<svg width="18" height="25" viewBox="0 0 18 25" fill="none" xmlns="http://www.w3.org/2000/svg">
<path d="M9.37326 24.4999C10.9536 24.4999 12.2348 23.2188 12.2348 21.6384C12.2348 20.058 10.9536 18.7769 9.37326 18.7769C7.79287 18.7769 6.51172 20.058 6.51172 21.6384C6.51172 23.2188 7.79287 24.4999 9.37326 24.4999Z" fill="#B19BF5" stroke="#080708" stroke-miterlimit="10"/>
<path d="M16.5923 8.28462C16.5923 3.61385 13.9954 0.5 8.79542 0.5C3.59542 0.5 0.752342 3.62 1.01696 8.28462C1.11542 9.98308 2.34003 11.0662 4.35234 11.0662C6.36465 11.0662 7.58311 9.94615 7.69388 8.28462C7.70003 7.99325 7.81769 7.71533 8.02261 7.50811C8.22754 7.30089 8.50413 7.18016 8.79542 7.17077C9.09083 7.17077 9.37414 7.28812 9.58303 7.49701C9.79191 7.70589 9.90926 7.9892 9.90926 8.28462C9.90777 8.58186 9.79071 8.86687 9.58283 9.07935C9.37495 9.29182 9.09256 9.41509 8.79542 9.42308C7.03542 9.55231 6.02003 10.9862 6.02003 12.7585V13.5954C6.02003 14.9369 6.16157 16.0569 6.60465 16.5123C7.44223 16.9876 8.39261 17.2278 9.35542 17.2077C10.3163 17.2282 11.2648 16.9879 12.1 16.5123C12.2718 16.3722 12.4089 16.1944 12.5007 15.9927C12.5925 15.791 12.6365 15.5708 12.6293 15.3492C15.2631 14.1431 16.5923 11.6138 16.5923 8.28462Z" fill="#B19BF5" stroke="#080708" stroke-miterlimit="10"/>
<path d="M10.9062 2.0752C12.0194 2.27225 13.0291 2.85109 13.7616 3.71212" stroke="white" stroke-miterlimit="10" stroke-linecap="round"/>
<path d="M9.63281 20.1122C9.81799 20.1009 10.0027 20.1409 10.1666 20.2278C10.3305 20.3146 10.4674 20.445 10.562 20.6045" stroke="white" stroke-miterlimit="10" stroke-linecap="round"/>
</svg>
