<svg width="67" height="36" viewBox="0 0 67 36" fill="none" xmlns="http://www.w3.org/2000/svg">
<g clip-path="url(#clip0_1434_8987)">
<path d="M4.60156 21.6621L6.84601 22.4245V27.5965L4.60156 28.6361V21.6621Z" fill="#818385"/>
<path d="M11.6507 13.7175C11.6332 14.1593 11.5543 15.4068 10.4847 16.2905C9.33613 17.2521 7.381 17.46 5.96069 17.46C5.41711 17.46 4.87353 17.4427 4.32995 17.3821C3.22527 17.2435 1.94523 16.9749 1.26137 15.9613C0.83177 15.3115 0.796701 14.6358 0.779166 13.8474H4.40886C4.40886 13.96 4.37379 14.4798 4.71572 14.7917C4.9086 14.965 5.35574 15.1383 5.97822 15.1383C6.07466 15.1383 6.89003 15.1209 7.3547 14.7744C7.89828 14.3672 7.83691 13.5875 7.83691 13.4489C7.83691 13.0244 7.85444 12.6259 7.85444 12.2187C7.67909 12.4873 7.66156 12.5219 7.50375 12.6432C6.8988 13.1197 5.98699 13.241 5.25053 13.241C4.18091 13.241 3.2691 13.0504 2.41867 12.4006C1.68221 11.8462 0.726562 10.6766 0.726562 8.46747C0.726562 7.99099 0.761631 6.08505 2.0066 4.78554C2.88334 3.86723 4.21598 3.52069 5.46095 3.52069C5.75027 3.52069 6.88126 3.52069 7.71416 4.17044C7.88951 4.30039 7.98595 4.40436 8.2402 4.7249L8.22267 3.78059H11.677V13.163C11.6682 13.3536 11.6682 13.5269 11.6507 13.7175ZM6.93387 6.41426C6.81989 6.35361 6.56564 6.24099 6.21494 6.25831C5.96069 6.25831 5.70643 6.31896 5.49602 6.41426C4.9349 6.68282 4.54037 7.31524 4.54037 8.56277C4.54037 9.40312 4.73325 9.92292 4.98751 10.1915C5.12779 10.3474 5.27683 10.4427 5.46971 10.5207C5.54862 10.5553 5.82041 10.6333 6.10973 10.6333C6.26754 10.6333 6.53933 10.6333 6.86373 10.4774C7.66156 10.1308 7.758 9.15188 7.758 8.40683C7.76677 7.69643 7.68786 6.77812 6.93387 6.41426ZM22.8554 12.34C22.154 13.111 20.6636 14.1073 18.1561 14.1073C17.5775 14.1073 15.7714 14.09 14.2897 12.9378C13.5532 12.366 12.4222 11.0925 12.4222 8.83133C12.4222 7.45386 12.8518 6.08505 13.7987 5.07143C14.4826 4.34371 15.9117 3.34742 18.3578 3.36475C18.8838 3.36475 20.9617 3.42539 22.4521 4.70757C23.5743 5.68653 24.1442 7.29792 24.1442 8.77069C24.153 9.30782 24.0566 11.0145 22.8554 12.34ZM18.9189 6.24099C18.6295 6.14569 18.3753 6.14569 18.2613 6.14569C17.5599 6.16302 17.1742 6.50955 16.9988 6.70015C16.692 7.02935 16.4202 7.69643 16.4202 8.71871C16.4202 9.69767 16.6744 10.3647 16.9287 10.7113C17.0865 10.9192 17.2969 11.0925 17.5336 11.1878C17.6476 11.2484 17.9369 11.3177 18.2876 11.3177C18.7523 11.3177 19.1819 11.1878 19.4888 10.8759C19.8394 10.5294 20.1288 9.7843 20.1288 8.66673C20.12 7.17663 19.629 6.48356 18.9189 6.24099ZM31.5001 6.87341C31.6929 6.87341 31.8858 6.89074 32.0787 6.90807V3.57267C31.0266 3.57267 30.1762 3.60733 29.2819 4.22242C29.0715 4.36104 28.9312 4.47366 28.7383 4.64693V3.78059H24.8982V13.7175H28.8786V9.03925C28.8786 8.69272 28.8786 8.42416 28.9926 8.09495C29.4748 6.76079 31.1844 6.85609 31.5001 6.87341ZM39.1452 13.7175L39.1277 13.0071C39.0926 13.0417 38.9173 13.2583 38.7156 13.4056C38.1545 13.8128 37.2953 13.96 36.6027 13.96C35.5331 13.96 34.7791 13.6135 34.4284 13.4056C32.1138 12.0974 32.0612 9.09124 32.0787 8.51079C32.0787 8.16426 32.0787 7.24594 32.4294 6.28431C32.7363 5.46129 33.8059 3.48604 36.4887 3.48604C36.7956 3.48604 37.6898 3.50336 38.4877 4.02317C38.663 4.13579 38.7594 4.21376 39.0312 4.465V0.167969H43.0116V13.7088H39.1452V13.7175ZM38.8208 7.08133C38.4526 6.43158 37.8301 6.31029 37.5583 6.31029C37.269 6.31029 36.9534 6.42292 36.7254 6.59619C36.2783 6.94272 36.024 7.57515 36.024 8.72737C36.024 9.34247 36.1205 10.2001 36.5851 10.6853C36.8219 10.9365 37.2252 11.1098 37.5934 11.1098C37.9791 11.1098 38.2772 10.9365 38.3737 10.8586C39.0751 10.3821 39.1277 9.43777 39.1277 8.71005C39.1277 8.15559 39.0838 7.58381 38.8208 7.08133ZM54.1725 12.34C53.4711 13.111 51.9807 14.1073 49.4732 14.1073C48.8945 14.1073 47.0885 14.09 45.6068 12.9378C44.8703 12.366 43.7393 11.0925 43.7393 8.83133C43.7393 7.45386 44.1689 6.08505 45.1158 5.07143C45.7996 4.34371 47.2287 3.34742 49.6748 3.36475C50.2009 3.36475 52.2787 3.42539 53.7692 4.70757C54.8914 5.68653 55.4613 7.29792 55.4613 8.77069C55.4788 9.30782 55.3736 11.0145 54.1725 12.34ZM50.2359 6.24099C49.9466 6.14569 49.6924 6.14569 49.5784 6.14569C48.877 6.16302 48.4912 6.50955 48.3159 6.70015C48.009 7.02935 47.7372 7.69643 47.7372 8.71871C47.7372 9.69767 47.9915 10.3647 48.2458 10.7113C48.4036 10.9192 48.614 11.0925 48.8507 11.1878C48.9647 11.2484 49.2628 11.3177 49.6047 11.3177C50.0694 11.3177 50.499 11.1878 50.8058 10.8759C51.1565 10.5294 51.4458 9.7843 51.4458 8.66673C51.4371 7.17663 50.9549 6.48356 50.2359 6.24099ZM67.0079 13.7175V7.4452C67.0079 6.7348 66.9466 6.38827 66.8677 6.06772C66.7098 5.41797 66.3855 4.75955 65.8594 4.34371C64.9038 3.53802 63.6676 3.52069 63.2993 3.52069C62.2736 3.52069 61.2039 3.78926 60.4675 4.51698C60.2746 4.70757 60.2308 4.75089 59.9853 5.11475V3.78926H56.2153V13.7261H60.1957V8.43282C60.1957 8.00831 60.1782 6.80411 61.6511 6.80411C62.5629 6.80411 62.8522 7.28059 62.9486 7.62713C63.01 7.86104 63.01 8.06896 63.01 8.30287V13.7348H67.0079V13.7175ZM30.1411 27.2583C29.4397 28.0294 27.9493 29.0256 25.4418 29.0256C24.8632 29.0256 23.0571 29.0083 21.5754 27.8561C20.8389 27.2843 19.7079 26.0108 19.7079 23.7497C19.7079 22.3722 20.1375 21.0034 21.0844 19.9897C21.7683 19.262 23.1974 18.2657 25.6434 18.2831C26.1695 18.2831 28.2474 18.3437 29.7378 19.6259C30.86 20.6048 31.4299 22.2162 31.4299 23.689C31.4387 24.2261 31.3422 25.9415 30.1411 27.2583ZM26.1958 21.1593C25.9065 21.064 25.6522 21.064 25.5382 21.064C24.8369 21.0813 24.4511 21.4279 24.2757 21.6185C23.9689 21.9477 23.6971 22.6147 23.6971 23.6284C23.6971 24.6073 23.9513 25.2831 24.2056 25.6209C24.3634 25.8289 24.5738 26.0021 24.8106 26.0974C24.9245 26.1581 25.2138 26.2274 25.5645 26.2274C26.0292 26.2274 26.4588 26.0974 26.7657 25.7855C27.1164 25.439 27.4057 24.694 27.4057 23.5764C27.3969 22.1036 26.9147 21.4105 26.1958 21.1593ZM42.1963 27.2583C41.4949 28.0294 40.0044 29.0256 37.4969 29.0256C36.9183 29.0256 35.1122 29.0083 33.6305 27.8561C32.8941 27.2843 31.7631 26.0108 31.7631 23.7497C31.7631 22.3722 32.1927 21.0034 33.1396 19.9897C33.8234 19.262 35.2525 18.2657 37.6986 18.2831C38.2246 18.2831 40.3025 18.3437 41.793 19.6259C42.9152 20.6048 43.4851 22.2162 43.4851 23.689C43.4938 24.2261 43.3974 25.9415 42.1963 27.2583ZM38.2509 21.1593C37.9616 21.064 37.7074 21.064 37.5934 21.064C36.892 21.0813 36.5062 21.4279 36.3309 21.6185C36.024 21.9477 35.7522 22.6147 35.7522 23.6284C35.7522 24.6073 36.0065 25.2831 36.2607 25.6209C36.4186 25.8289 36.629 26.0021 36.8657 26.0974C36.9797 26.1581 37.269 26.2274 37.6197 26.2274C38.0844 26.2274 38.514 26.0974 38.8208 25.7855C39.1715 25.439 39.4608 24.694 39.4608 23.5764C39.4608 22.1036 38.9699 21.4105 38.2509 21.1593ZM50.876 28.6445L50.8584 27.9341C50.8234 27.9687 50.648 28.1853 50.4464 28.3326C49.8852 28.7311 49.026 28.887 48.3334 28.887C47.2638 28.887 46.5098 28.5405 46.1591 28.3326C43.8445 27.0244 43.7919 24.0182 43.8095 23.4378C43.8095 23.0912 43.8095 22.1729 44.1602 21.2113C44.467 20.3883 45.5366 18.413 48.2194 18.413C48.5263 18.413 49.4206 18.4303 50.2184 18.9501C50.3938 19.0628 50.4902 19.1407 50.762 19.392V15.0949H54.7424V28.6358H50.876V28.6445ZM50.5428 22.0083C50.1746 21.3586 49.5521 21.2373 49.2803 21.2373C48.991 21.2373 48.6754 21.3499 48.4474 21.5232C48.0003 21.8697 47.746 22.5021 47.746 23.6544C47.746 24.2695 47.8424 25.1271 48.3071 25.6123C48.5438 25.8635 48.9471 26.0368 49.3154 26.0368C49.7011 26.0368 49.9992 25.8635 50.0957 25.7855C50.7971 25.3091 50.8497 24.3647 50.8497 23.637C50.8584 23.0826 50.8146 22.5021 50.5428 22.0083ZM66.3679 18.7076H62.2122C62.1946 18.8202 60.6954 25.1878 60.6954 25.1878L59.2576 18.7076H55.0843L58.2669 27.8388C58.4247 28.2806 58.5737 28.7051 58.5737 28.8524C58.5737 29.2162 57.6356 32.1185 57.0745 32.1185C56.6887 32.1185 56.3205 32.0838 55.926 32.0578V34.8821L57.0307 34.9947C57.3638 35.0294 57.7145 35.012 58.0389 35.012C59.0296 35.012 59.8099 35.0294 60.599 34.3969C61.353 33.7818 62.37 30.0999 62.6856 29.2162L66.3679 18.7076ZM18.7435 20.6395C18.2613 19.1841 16.9988 18.7596 16.4903 18.6209C15.8854 18.4477 15.4207 18.465 15.1664 18.465C13.5357 18.4477 12.7028 19.0801 12.2381 19.5566C12.0979 19.6865 11.8874 19.9031 11.7121 20.3016C11.5017 19.9204 11.3614 19.6865 11.2036 19.5306C10.2304 18.4563 8.5646 18.4563 8.2139 18.4563C6.83742 18.4563 6.00452 18.9761 5.59246 19.3573C5.43464 19.5133 5.2856 19.7039 5.04888 20.1024V18.7076H1.18247V28.6445H4.60174V21.6531H8.1613V28.6445H12.0803V23.3511C12.0803 23.0999 12.0803 22.9093 12.1417 22.6754C12.3959 21.7917 13.2288 21.7138 13.5357 21.7138C15.0525 21.7138 14.9297 23.0566 14.9297 23.4378V28.6358H18.9364V22.3635C18.9364 21.7571 18.9364 21.2199 18.7435 20.6395ZM27.3531 34.8821C27.2303 34.7608 27.2303 34.6395 27.2216 34.4922C27.1865 34.5875 27.1339 34.6742 27.0638 34.7521C26.941 34.8907 26.6254 35.1073 26.152 35.1073C25.7662 35.1073 25.5558 34.9774 25.4243 34.8474C25.3454 34.7694 25.1963 34.5789 25.1963 34.293C25.1963 34.2063 25.2051 34.0071 25.3629 33.8251C25.5908 33.5479 25.9678 33.4613 26.2922 33.366C26.4851 33.314 26.6692 33.262 26.8621 33.2187L27.2216 33.1407V32.9848C27.2216 32.8722 27.2303 32.8115 27.1865 32.6989C27.1251 32.5083 26.9498 32.3004 26.4939 32.3004C26.1081 32.3004 25.9065 32.4044 25.81 32.5603C25.7136 32.7076 25.7048 32.8635 25.6961 33.0281L25.284 32.9588C25.2928 32.8982 25.3366 32.6383 25.4593 32.439C25.5996 32.2311 25.8977 31.9798 26.4676 31.9798C26.7744 31.9798 27.1865 32.0578 27.3969 32.3004C27.5986 32.5343 27.581 32.8635 27.581 33.1494V34.111C27.581 34.3969 27.5723 34.6048 27.6862 34.6915C27.7827 34.7695 27.9317 34.7608 28.0369 34.7608V35.0553C27.6775 35.038 27.4846 35.012 27.3531 34.8821ZM27.2216 33.4613L27.0287 33.5133C26.4413 33.6692 25.9328 33.7905 25.7487 33.9204C25.6347 33.9984 25.5558 34.137 25.5558 34.2843C25.5558 34.3883 25.5996 34.4749 25.6171 34.5009C25.7574 34.7781 26.0994 34.7868 26.1695 34.7868C26.5377 34.7868 26.9849 34.5702 27.1427 34.2237C27.204 34.0937 27.2216 33.9724 27.2216 33.6952V33.4613ZM30.5532 34.5962C30.6409 34.4229 30.6496 34.2583 30.6496 34.1977C30.6496 34.111 30.6409 33.9291 30.5006 33.7385C30.334 33.5046 30.0797 33.4093 29.808 33.3487L29.4923 33.288C29.2293 33.236 28.8611 33.1581 28.8611 32.8029C28.8611 32.7595 28.8698 32.6556 28.9312 32.543C28.9751 32.4737 29.0364 32.4217 29.0627 32.413C29.1416 32.3524 29.3082 32.3004 29.5537 32.3004C29.8606 32.3004 30.22 32.4044 30.2902 32.7422L30.6496 32.6469C30.6233 32.543 30.5532 32.3264 30.3165 32.1618C30.0359 31.9712 29.6589 31.9712 29.5712 31.9712C29.3082 31.9712 28.9487 32.0318 28.7471 32.2224C28.5191 32.4217 28.4841 32.7162 28.4841 32.8029C28.4753 32.9675 28.5455 33.1494 28.6419 33.2707C28.8611 33.5306 29.3257 33.5739 29.6238 33.6432C29.9482 33.7125 30.0973 33.7905 30.1937 33.9204C30.2463 33.9984 30.2726 34.0937 30.2726 34.1803C30.2726 34.3363 30.1937 34.5095 30.0534 34.6135C29.9658 34.6828 29.7817 34.7608 29.4923 34.7608C28.9224 34.7608 28.6945 34.3796 28.6507 34.1717L28.2824 34.293C28.3438 34.4143 28.3876 34.5269 28.4841 34.6482C28.8172 35.0727 29.317 35.0987 29.5011 35.0987C30.1323 35.116 30.4392 34.8214 30.5532 34.5962ZM33.464 34.5962C33.5516 34.4229 33.5604 34.2583 33.5604 34.1977C33.5604 34.111 33.5516 33.9291 33.4113 33.7385C33.2448 33.5046 32.9905 33.4093 32.7187 33.3487L32.4031 33.288C32.1401 33.236 31.7718 33.1581 31.7718 32.8029C31.7718 32.7595 31.7806 32.6556 31.842 32.543C31.8858 32.4737 31.9472 32.4217 31.9735 32.413C32.0524 32.3524 32.219 32.3004 32.4732 32.3004C32.7801 32.3004 33.1396 32.4044 33.2097 32.7422L33.5692 32.6469C33.5429 32.543 33.4727 32.3264 33.236 32.1618C32.9554 31.9712 32.5784 31.9712 32.4908 31.9712C32.2277 31.9712 31.8683 32.0318 31.6666 32.2224C31.4387 32.4217 31.4036 32.7162 31.4036 32.8029C31.3948 32.9675 31.465 33.1494 31.5614 33.2707C31.7806 33.5306 32.2453 33.5739 32.5434 33.6432C32.8678 33.7125 33.0168 33.7905 33.1133 33.9204C33.1659 33.9984 33.1922 34.0937 33.1922 34.1803C33.1922 34.3363 33.1133 34.5095 32.973 34.6135C32.8853 34.6828 32.7012 34.7608 32.4119 34.7608C31.842 34.7608 31.614 34.3796 31.5702 34.1717L31.202 34.293C31.2633 34.4143 31.3072 34.5269 31.4036 34.6482C31.7368 35.0727 32.2365 35.0987 32.4206 35.0987C33.0431 35.116 33.35 34.8214 33.464 34.5962ZM36.8569 34.1284C36.664 34.7348 36.1906 35.116 35.5506 35.116C35.3402 35.116 34.858 35.0813 34.4985 34.6135C34.367 34.4316 34.1916 34.111 34.1916 33.5739C34.1916 33.444 34.2004 33.1494 34.3319 32.8115C34.63 32.0492 35.2788 31.9625 35.5769 31.9625C35.9276 31.9625 36.2169 32.0665 36.4712 32.2917C36.8043 32.6123 36.9446 33.0714 36.9446 33.5133C36.9358 33.6259 36.9358 33.8685 36.8569 34.1284ZM35.5681 32.2831C35.4717 32.2831 35.235 32.2917 35.0245 32.4563C34.7878 32.6296 34.5949 32.9588 34.5949 33.5826C34.5949 33.6952 34.5862 34.3016 34.9982 34.6222C35.0947 34.7001 35.27 34.7954 35.5594 34.7954C36.0065 34.7954 36.5413 34.5182 36.5413 33.5739C36.5501 32.5949 36.0503 32.2831 35.5681 32.2831ZM39.7765 34.8214C39.9255 34.7001 40.0219 34.5442 40.1096 34.3796L39.7239 34.293C39.5485 34.6222 39.2855 34.7954 38.8997 34.7954C38.6981 34.7954 38.5666 34.7435 38.4877 34.7088C38.3211 34.6308 38.2334 34.5355 38.1896 34.4922C37.9178 34.163 37.9002 33.6432 37.9002 33.5566C37.9002 33.4266 37.909 32.8635 38.3035 32.5343C38.549 32.3264 38.8208 32.3177 38.9348 32.3177C39.2943 32.3177 39.6186 32.491 39.7502 32.8202L40.1009 32.7422C40.0658 32.6556 40.0044 32.4996 39.8291 32.3177C39.68 32.1704 39.4258 31.9885 38.9436 31.9885C38.286 31.9885 37.7775 32.3437 37.5846 32.9588C37.5145 33.1667 37.4882 33.3573 37.4882 33.5826C37.4882 33.7558 37.4969 34.3709 37.9528 34.7954C38.3035 35.1246 38.7156 35.1333 38.8822 35.1333C39.3556 35.116 39.6362 34.9427 39.7765 34.8214ZM40.7409 30.7756H41.1091V31.3474H40.7409V30.7756ZM40.7409 32.0492H41.1091V35.0467H40.7409V32.0492ZM44.0286 34.8821C43.9059 34.7608 43.9059 34.6395 43.8971 34.4922C43.8621 34.5875 43.8095 34.6742 43.7393 34.7521C43.6166 34.8907 43.3009 35.1073 42.8275 35.1073C42.4417 35.1073 42.2313 34.9774 42.0998 34.8474C42.0209 34.7694 41.8719 34.5789 41.8719 34.293C41.8719 34.2063 41.8806 34.0071 42.0384 33.8251C42.2664 33.5479 42.6434 33.4613 42.9766 33.366C43.1694 33.314 43.3536 33.262 43.5464 33.2187L43.9059 33.1407V32.9848C43.9059 32.8722 43.9147 32.8115 43.8708 32.6989C43.8095 32.5083 43.6341 32.3004 43.1782 32.3004C42.7924 32.3004 42.5908 32.4044 42.4944 32.5603C42.3979 32.7076 42.3891 32.8635 42.3804 33.0281L41.9683 32.9588C41.9771 32.8982 42.0209 32.6383 42.1437 32.439C42.2839 32.2311 42.582 31.9798 43.1519 31.9798C43.4588 31.9798 43.8708 32.0578 44.0812 32.3004C44.2829 32.5343 44.2654 32.8635 44.2654 33.1494V34.111C44.2654 34.3969 44.2566 34.6048 44.3706 34.6915C44.467 34.7695 44.6161 34.7608 44.7213 34.7608V35.0553C44.353 35.038 44.1602 35.012 44.0286 34.8821ZM43.8971 33.4613L43.7043 33.5133C43.1168 33.6692 42.6083 33.7905 42.4242 33.9204C42.3102 33.9984 42.2313 34.137 42.2313 34.2843C42.2313 34.3883 42.2752 34.4749 42.2927 34.5009C42.433 34.7781 42.7749 34.7868 42.845 34.7868C43.2133 34.7868 43.6604 34.5702 43.8182 34.2237C43.8796 34.0937 43.8971 33.9724 43.8971 33.6952V33.4613ZM46.0364 35.0987C46.2819 35.0987 46.4397 35.0207 46.5186 34.96V34.5789C46.4046 34.6568 46.2556 34.7695 46.0977 34.7695C45.8435 34.7695 45.8435 34.5095 45.8523 34.3276V34.0071V32.3524H46.5186V32.0492H45.8523V30.7756H45.4928V32.0492H44.8615V32.361H45.4928V34.2323C45.4928 34.3796 45.484 34.7001 45.5366 34.8301C45.6243 35.0727 45.8523 35.09 45.9399 35.09C45.9662 35.0987 46.0101 35.0987 46.0364 35.0987ZM47.0972 30.7756H47.4655V31.3474H47.0972V30.7756ZM47.0972 32.0492H47.4655V35.0467H47.0972V32.0492ZM50.8847 34.1284C50.6918 34.7348 50.2184 35.116 49.5784 35.116C49.368 35.116 48.8858 35.0813 48.5263 34.6135C48.3948 34.4316 48.2107 34.111 48.2107 33.5739C48.2107 33.444 48.2194 33.1494 48.351 32.8115C48.649 32.0492 49.2978 31.9625 49.5959 31.9625C49.9466 31.9625 50.2272 32.0665 50.4814 32.2917C50.8146 32.6123 50.9549 33.0714 50.9549 33.5133C50.9724 33.6259 50.9724 33.8685 50.8847 34.1284ZM49.5959 32.2831C49.4995 32.2831 49.2628 32.2917 49.0523 32.4563C48.8156 32.6296 48.6227 32.9588 48.6227 33.5826C48.6227 33.6952 48.614 34.3016 49.026 34.6222C49.1225 34.7001 49.2978 34.7954 49.5872 34.7954C50.0343 34.7954 50.5691 34.5182 50.5691 33.5739C50.5866 32.5949 50.0781 32.2831 49.5959 32.2831ZM54.0848 35.038V33.4786C54.0848 32.9675 54.0936 32.7336 53.9796 32.491C53.8832 32.2831 53.6202 31.9798 53.059 31.9798C52.6557 31.9798 52.4453 32.1271 52.3226 32.2397C52.1735 32.3784 52.1297 32.4996 52.1034 32.569V32.0492H51.7264V35.0467H52.1034V33.7385C52.1034 33.3833 52.1122 33.1234 52.1385 32.9761C52.1998 32.7509 52.3752 32.5083 52.5944 32.4044C52.7609 32.3264 52.9275 32.3264 52.9977 32.3264C53.0678 32.3264 53.2344 32.3177 53.4097 32.4217C53.4711 32.4563 53.5763 32.5256 53.6377 32.6816C53.7078 32.8548 53.7078 33.0974 53.7078 33.4959V35.0553H54.0848V35.038Z" fill="white"/>
</g>
<defs>
<clipPath id="clip0_1434_8987">
<rect width="66.9828" height="35" fill="white" transform="translate(0 0.167969)"/>
</clipPath>
</defs>
</svg>
