<svg width="61" height="25" viewBox="0 0 61 25" fill="none" xmlns="http://www.w3.org/2000/svg">
<path d="M8.79085 0.832646C9.40482 0.823113 9.81668 1.35319 10.2972 1.65827C11.3402 2.44386 12.7493 3.18749 12.7741 4.6843C12.7969 9.57133 12.7722 14.4622 12.7855 19.3492C12.8179 20.232 12.4442 21.1492 11.7158 21.6716C11.0294 22.1845 10.3334 22.6879 9.65079 23.2066C9.38766 23.4239 9.06923 23.5422 8.73364 23.5917C8.72602 22.9682 9.00822 22.4 9.21033 21.8261C10.3754 18.6342 11.5518 15.4461 12.7016 12.2484C9.07305 13.4687 5.45211 14.7119 1.82736 15.9399C1.55469 16.0295 1.26487 16.0486 0.982666 16.0829C1.0208 15.3355 1.68054 14.8683 2.07143 14.2925C2.74833 13.3829 3.48433 12.3724 4.69322 12.1874C3.31654 11.9948 2.61485 10.7344 1.81211 9.76581C1.4727 9.30819 0.959785 8.89252 0.994107 8.2671C1.31826 8.31477 1.6424 8.37007 1.95321 8.47494C5.5341 9.71052 9.12644 10.9118 12.7092 12.1416C11.4508 8.66752 10.179 5.20103 8.90907 1.73073C8.84233 1.4409 8.63259 1.12819 8.79085 0.832646Z" fill="white"/>
<path d="M44.9983 6.3775C46.1119 5.20675 47.8298 5.07328 49.3457 5.22391C49.094 6.13916 48.869 7.06203 48.5887 7.96774C48.0262 7.84952 47.4523 7.83045 46.8822 7.88956C47.5324 8.9154 47.8794 10.151 47.6773 11.3656C47.5152 12.7289 46.6324 13.9588 45.414 14.5823C44.043 15.305 42.4261 15.3965 40.9178 15.1524C40.7634 15.6672 40.9903 16.2507 41.5452 16.388C43.5415 17.0477 45.8144 16.7674 47.6678 17.8886C48.6135 18.4454 49.0807 19.5952 48.9224 20.6629C48.8042 21.9443 47.8527 22.9911 46.743 23.5517C44.9373 24.4974 42.8341 24.5813 40.8397 24.4612C39.4306 24.3239 37.9528 23.9235 36.9232 22.8996C36.0156 21.99 35.8001 20.4589 36.5018 19.3683C36.8679 18.7333 37.5066 18.3329 38.1492 18.0202C37.7908 17.6598 37.4666 17.2193 37.4723 16.6893C37.3598 15.6272 38.1931 14.7863 39.0206 14.2677C36.4694 12.8433 36.2463 8.8296 38.4638 7.00292C40.2638 5.54616 42.939 5.41078 44.9983 6.3775ZM41.7072 8.76095C40.5727 9.14802 40.3325 10.702 40.9255 11.6287C41.3717 12.3552 42.3727 12.5726 43.1202 12.2103C44.0087 11.8118 44.2451 10.6219 43.8943 9.78298C43.593 8.92493 42.5615 8.44062 41.7072 8.76095ZM39.9511 21.0309C40.874 21.8394 42.2087 21.8852 43.3718 21.7879C44.0087 21.6964 44.8019 21.5896 45.1508 20.9757C45.3739 20.4913 44.8915 20.0661 44.4759 19.9231C43.0477 19.3969 41.4727 19.5551 40.0369 19.0536C39.5316 19.5875 39.3829 20.4837 39.9511 21.0309Z" fill="white"/>
<path d="M19.0378 7.28893C20.3782 6.32221 22.0123 5.58048 23.7017 5.8112C24.8076 5.91797 25.8125 6.55102 26.4265 7.47008C27.8928 6.2917 29.8148 5.49658 31.7177 5.85505C32.7855 6.00759 33.8056 6.58725 34.3853 7.51202C34.9649 8.41392 35.0851 9.51603 35.0927 10.5667C35.0927 13.1732 35.0908 15.7816 35.0927 18.3882C33.7732 18.392 32.4556 18.3901 31.1362 18.3901C31.1285 16.0333 31.1514 13.6766 31.1266 11.3198C31.1037 10.601 31.0523 9.64378 30.2724 9.32535C29.2141 8.95544 28.0529 9.3959 27.1701 10.0023C27.1911 12.7976 27.1739 15.5929 27.1796 18.3901C25.8602 18.3901 24.5407 18.392 23.2212 18.3882C23.2212 15.9094 23.2288 13.4287 23.2193 10.9499C23.204 10.3131 23.0153 9.52366 22.3346 9.29675C21.2916 8.97832 20.1933 9.41688 19.3104 9.96793C19.3181 12.7747 19.3123 15.5833 19.3143 18.3901C17.9948 18.3901 16.6772 18.392 15.3577 18.3882C15.3596 14.2906 15.3577 10.191 15.3577 6.09149C16.4713 6.0934 17.5848 6.08386 18.6984 6.09912C18.8109 6.49572 18.9234 6.89233 19.0378 7.28893Z" fill="white"/>
<path d="M50.3163 6.96669C52.5186 5.88747 55.0774 5.47942 57.4895 5.9809C58.542 6.20399 59.5488 6.78364 60.1265 7.71033C60.6528 8.56074 60.7863 9.58849 60.7882 10.5705C60.7825 12.5382 60.7901 14.5041 60.7844 16.4719C60.7729 17.1183 60.8511 17.7609 60.9827 18.392C59.892 18.3825 58.8032 18.4053 57.7145 18.3767C57.5448 18.0469 57.3751 17.717 57.2073 17.3871C55.3558 19.0308 52.1029 19.1661 50.4516 17.1736C49.5593 16.0829 49.3629 14.5213 49.7976 13.1999C50.1675 12.1264 51.1419 11.3923 52.1677 10.9957C53.6607 10.4084 55.2967 10.4828 56.8717 10.4179C56.805 9.7887 56.5418 9.09464 55.8706 8.90968C54.4387 8.45396 52.8885 8.88108 51.5595 9.47217C51.1457 8.63701 50.7205 7.80757 50.3163 6.96669ZM54.1012 13.2952C53.3308 13.709 53.3518 15.017 54.145 15.3946C55.0088 15.7778 56.0137 15.5471 56.8355 15.1562C56.8278 14.4031 56.8336 13.6499 56.8221 12.8986C55.9164 13.0149 54.9325 12.8452 54.1012 13.2952Z" fill="white"/>
</svg>
