<svg width="66" height="20" viewBox="0 0 66 20" fill="none" xmlns="http://www.w3.org/2000/svg">
<path fill-rule="evenodd" clip-rule="evenodd" d="M20.9406 8.54101C21.6662 8.37997 22.4771 8.42214 23.1222 8.82089C23.7424 9.20046 24.1095 9.91166 24.1583 10.6258C24.1909 11.1232 24.1622 11.6226 24.1277 12.1191C22.4254 12.121 20.7231 12.1133 19.0217 12.1229C18.9517 12.7757 18.9958 13.5032 19.4214 14.0371C19.8757 14.6199 20.7048 14.7761 21.395 14.6074C22.1685 14.4396 22.7695 13.7984 23.0053 13.0584C23.2727 13.0508 23.542 13.0498 23.8104 13.0546C23.6187 13.6767 23.3053 14.2815 22.7953 14.7004C21.9825 15.3742 20.8112 15.4921 19.824 15.193C19.0399 14.9592 18.4591 14.2585 18.2913 13.4696C18.0747 12.4469 18.23 11.3513 18.6949 10.4168C19.1358 9.5158 19.9467 8.76625 20.9406 8.54101ZM20.3214 9.54745C19.6955 9.99603 19.3179 10.7101 19.1224 11.4414C20.5371 11.4443 21.9528 11.4366 23.3676 11.4453C23.3762 11.0475 23.4107 10.6372 23.2736 10.2558C23.1366 9.81964 22.8049 9.44776 22.3803 9.27618C21.7074 9.00396 20.9052 9.12283 20.3214 9.54745ZM5.95731 11.0609C7.40847 10.7063 8.86539 10.3708 10.3223 10.0411C10.2191 10.3224 10.2471 10.4713 10.1159 10.6037C9.87229 10.8497 9.82904 10.9872 9.19225 11.1702C8.49734 11.3619 7.79092 11.5066 7.0893 11.6686L6.25306 11.533L5.95731 11.0609ZM0.982666 12.2255C1.97856 11.9724 2.98114 11.7463 3.98277 11.521C4.21684 11.5397 4.6313 11.5078 4.71563 11.6337C4.80255 11.7635 4.5653 12.031 4.49653 12.2878C3.86681 12.4201 3.24282 12.5811 2.61307 12.7182C4.35085 14.5786 6.057 16.4678 7.78231 18.3398C10.4354 17.5442 13.0914 16.7554 15.7532 15.9915C14.4451 14.7916 13.0844 13.6553 11.784 12.4555C11.7208 12.1984 11.7577 12.0779 11.8449 11.9502C11.9187 11.8421 12.0285 11.6909 12.2681 11.7482C14.021 13.2462 15.8014 14.8369 17.4939 16.3787C14.1621 17.3449 10.8332 18.3254 7.51009 19.3223C5.33237 16.9586 3.17669 14.5729 0.982666 12.2255Z" fill="white"/>
<path fill-rule="evenodd" clip-rule="evenodd" d="M20.3425 0.0141602L8.16856 17.734L2.40891 9.19375L8.15419 12.2197L20.3425 0.0141602Z" fill="white"/>
<path fill-rule="evenodd" clip-rule="evenodd" d="M26.5834 7.29879C27.4882 6.48597 28.7275 6.07572 29.9391 6.15914C30.889 6.19459 31.8868 6.53006 32.5031 7.2873C32.9612 7.83842 33.129 8.56976 33.1338 9.2733C32.6152 9.28384 32.0976 9.28577 31.58 9.28672C31.5589 8.84869 31.4803 8.38668 31.1909 8.03972C30.8008 7.55949 30.149 7.38696 29.5518 7.40997C28.7189 7.40038 27.9157 7.83268 27.4124 8.48925C26.6332 9.49471 26.383 10.8299 26.521 12.075C26.615 12.8207 27.0444 13.554 27.747 13.8703C28.5195 14.2106 29.5058 14.2106 30.1902 13.67C30.6963 13.277 30.9704 12.6741 31.165 12.0798C31.6788 12.0884 32.1925 12.075 32.7063 12.0894C32.4705 13.0671 31.9922 14.0275 31.165 14.6342C30.172 15.3828 28.8263 15.5141 27.6444 15.2227C26.7712 15.0147 25.9737 14.4694 25.505 13.6987C24.9941 12.8773 24.8648 11.8728 24.9558 10.9229C25.0373 9.57524 25.5597 8.21032 26.5834 7.29879Z" fill="white"/>
<path fill-rule="evenodd" clip-rule="evenodd" d="M37.1758 6.20225C38.1841 6.05945 39.2682 6.19459 40.1328 6.76299C40.913 7.26045 41.4421 8.09338 41.6424 8.99054C41.8274 9.88292 41.7565 10.8146 41.5609 11.7002C41.2753 12.9636 40.5133 14.1569 39.3583 14.7857C38.2253 15.4231 36.8202 15.5323 35.5895 15.1307C34.6568 14.8259 33.8737 14.1023 33.5085 13.1907C33.1855 12.446 33.1664 11.6178 33.2267 10.8203C33.3235 9.5321 33.8296 8.23622 34.792 7.34862C35.4486 6.73805 36.2911 6.34123 37.1758 6.20225ZM37.0636 7.52115C35.8521 7.87675 35.1236 9.07776 34.8725 10.2519C34.6655 11.2507 34.6242 12.4067 35.2588 13.2674C36.0917 14.338 37.8362 14.3534 38.8254 13.4917C39.7542 12.6932 40.1433 11.4366 40.2037 10.2471C40.2277 9.49088 40.1031 8.66368 39.5768 8.08189C38.9557 7.39943 37.9138 7.27771 37.0636 7.52115Z" fill="white"/>
<path fill-rule="evenodd" clip-rule="evenodd" d="M44.5965 6.60674C45.5876 6.11792 46.7436 6.04793 47.8152 6.26743C48.6203 6.43135 49.414 6.85116 49.8606 7.56334C50.1712 8.03779 50.2766 8.60809 50.3044 9.165C49.7868 9.16788 49.2702 9.16402 48.7526 9.16788C48.7315 8.55634 48.4181 7.9362 47.8487 7.66877C46.872 7.21348 45.6212 7.33906 44.8017 8.05888C44.054 8.71161 43.6687 9.68161 43.5134 10.6421C43.4099 11.5287 43.4089 12.5188 43.9745 13.2635C44.6742 14.1818 46.0544 14.3093 47.0493 13.8406C47.8784 13.439 48.3146 12.5533 48.535 11.7012C47.7318 11.6935 46.9276 11.6993 46.1244 11.6983C46.1809 11.3025 46.2911 10.9162 46.3573 10.5222C47.6196 10.5031 48.8839 10.5194 50.1472 10.5146C49.8232 12.0625 49.482 13.6077 49.1657 15.1585C48.8312 15.1643 48.4976 15.1633 48.1631 15.1624C48.165 14.8451 48.167 14.5278 48.1813 14.2106C47.5909 14.9314 46.6726 15.3713 45.741 15.3665C44.9282 15.3512 44.0971 15.1595 43.4233 14.6879C42.6996 14.1952 42.2118 13.4044 42.0239 12.5552C41.8226 11.5382 41.905 10.4666 42.2012 9.47556C42.5683 8.24771 43.431 7.15981 44.5965 6.60674Z" fill="white"/>
<path fill-rule="evenodd" clip-rule="evenodd" d="M52.0872 6.34987C53.3927 6.35753 54.6972 6.34699 56.0027 6.35563C56.7321 6.3719 57.5238 6.50898 58.0712 7.03233C58.63 7.56525 58.7344 8.4116 58.6147 9.14009C58.5274 9.70175 58.237 10.2443 57.7568 10.5644C57.4328 10.804 57.0369 10.9009 56.6545 11.0044C57.0293 11.1501 57.3696 11.4232 57.4874 11.822C57.7922 12.8131 57.3331 13.8368 57.498 14.8422C57.5172 14.9246 57.5526 15.0004 57.6034 15.0703C59.3402 12.1593 61.077 9.24839 62.8292 6.34699C63.365 6.35563 63.9018 6.35563 64.4376 6.34699C64.9676 9.28289 65.4459 12.2274 65.9827 15.1614C65.4584 15.1643 64.9341 15.1595 64.4107 15.1652C64.2689 14.3889 64.1749 13.6038 64.0407 12.8255C62.8867 12.8198 61.7336 12.8341 60.5815 12.8178C60.0917 13.5866 59.6699 14.3975 59.1869 15.171C58.1249 15.1528 57.0609 15.1681 55.9989 15.1633C55.7247 14.2058 56.1465 13.2281 56.0248 12.261C55.9605 11.8009 55.4755 11.5622 55.0519 11.5526C54.2295 11.5114 53.4061 11.5478 52.5828 11.5316C52.3192 12.7431 52.093 13.9623 51.816 15.17C51.2936 15.1547 50.7712 15.1671 50.2488 15.1614C50.8814 12.2284 51.4613 9.28384 52.0872 6.34987ZM52.8224 10.3641C53.5614 10.3612 54.3004 10.3641 55.0394 10.3631C55.5465 10.3583 56.0775 10.2855 56.5059 9.9941C57.0695 9.62029 57.2708 8.80747 56.989 8.20266C56.7523 7.74259 56.1848 7.64097 55.7171 7.61893C54.9407 7.60934 54.1653 7.61989 53.3889 7.61511C53.2039 8.53237 53.017 9.44871 52.8224 10.3641ZM62.9193 8.63782C62.3442 9.63466 61.7998 10.6507 61.2084 11.6379C62.1007 11.6533 62.995 11.6456 63.8874 11.6418C63.6985 10.4053 63.5231 9.16595 63.3516 7.92756C63.1599 8.13172 63.064 8.40106 62.9193 8.63782Z" fill="white"/>
</svg>
