<svg width="66" height="22" viewBox="0 0 66 22" fill="none" xmlns="http://www.w3.org/2000/svg">
<path d="M0.982666 0.549559H4.32884C5.81982 0.549559 6.35476 0.595085 6.79864 0.765808C7.62949 1.16416 8.11889 1.94949 8.11889 2.88278C8.11889 3.75915 7.85712 4.20303 6.96936 4.64692C7.89126 4.95422 8.50587 5.8306 8.4262 6.79803C8.4262 8.25486 7.27666 9.2223 5.61495 9.2223H0.994047V7.81099H1.65418V1.96087H0.994047L0.982666 0.549559ZM3.45246 1.96087V4.07784H5.17107C5.78568 4.12336 6.35476 3.67948 6.40028 3.06488C6.40028 3.01936 6.40028 2.97383 6.40028 2.97383C6.40028 2.40475 5.8312 1.96087 5.0345 1.96087H3.45246ZM3.45246 5.44362V7.82237H5.29627C6.00193 7.86789 6.61653 7.37849 6.66206 6.67283C6.66206 6.67283 6.66206 6.67283 6.66206 6.6273C6.66206 5.87612 6.04745 5.3981 5.12555 5.3981L3.45246 5.44362Z" fill="white"/>
<path d="M15.7218 7.07122C15.4145 8.52806 14.2308 9.40443 12.6374 9.40443C10.7936 9.40443 9.42777 7.9476 9.42777 5.93306C9.42777 3.90715 10.7936 2.46169 12.6374 2.46169C13.6503 2.46169 14.6178 2.9511 15.1868 3.82748C15.6307 4.57866 15.8925 5.40951 15.847 6.29727H11.0895C11.2602 8.01588 12.3642 8.10694 12.6715 8.10694C13.2861 8.15246 13.8552 7.70858 14.0373 7.1395L15.7218 7.07122ZM14.0487 5.13635C14.0487 4.38517 13.4341 3.8161 12.7284 3.8161H12.6829C11.9317 3.8161 11.3171 4.38517 11.1919 5.09083L14.0487 5.13635Z" fill="white"/>
<path d="M21.2304 4.90868H24.2693V9.22229H23.3019V7.8565C23.1312 8.1638 22.9035 8.42558 22.6417 8.68735C22.0727 9.17676 21.367 9.43854 20.6614 9.43854C18.6354 9.43854 17.0534 7.45815 17.0534 4.90868C17.0534 2.35922 18.6354 0.333301 20.6158 0.333301C21.7198 0.287774 22.6873 0.902379 23.2108 1.82428V0.458498H24.1327V3.23559H23.1653C23.0742 2.83724 22.9035 2.48441 22.6759 2.17711C22.232 1.60804 21.5264 1.25521 20.8321 1.20968C19.7736 1.20968 18.1916 2.13158 18.1916 4.81763C18.1916 6.9346 19.3411 8.47111 20.8321 8.47111C22.0158 8.42558 22.9832 7.5492 23.2108 6.39966C23.2563 6.18341 23.2564 5.91026 23.2564 5.69401H21.1849L21.2304 4.90868Z" fill="white"/>
<path d="M31.6559 9.26782H29.7666V8.08414C29.3227 8.915 28.4463 9.4044 27.5244 9.4044C26.4204 9.49546 25.453 8.60769 25.3733 7.51507C25.3733 7.46954 25.3733 7.42401 25.3733 7.37849C25.3733 6.10375 26.4773 5.48915 29.1178 5.22737L29.7324 5.18185V4.52172C29.7324 3.77054 29.1634 3.29251 28.2415 3.29251C27.3196 3.29251 26.8302 3.59981 26.6594 4.47619H25.6237C25.7148 3.95264 25.9765 3.46323 26.3749 3.11041C26.8643 2.71205 27.5244 2.54133 28.139 2.54133C29.5048 2.54133 30.643 3.15593 30.643 4.82902V8.47112H31.5649L31.6559 9.26782ZM29.7666 5.8306L29.152 5.92165C27.1261 6.18342 26.4659 6.53625 26.4659 7.37849C26.5115 8.12967 27.1261 8.65322 27.8317 8.65322C28.7992 8.60769 29.6414 7.90204 29.7666 6.93461V5.8306Z" fill="white"/>
<path d="M34.433 3.85023C34.7403 3.40635 35.3094 2.48444 36.55 2.48444C37.4264 2.48444 37.9158 2.92832 38.0865 3.85023C38.2572 3.54293 38.4393 3.28115 38.7011 3.01938C39.0995 2.66655 39.5775 2.4503 40.1124 2.4503C41.1254 2.4503 41.6945 3.11043 41.6945 4.25996V8.43699H42.6164V9.2337H40.7725V4.60141C40.7725 3.67951 40.4652 3.23563 39.8051 3.23563C38.6556 3.23563 38.041 4.60141 38.041 5.07944V8.42561H39.0084V9.22232H37.0735V4.46483C37.0735 3.63398 36.7662 3.28115 36.1061 3.28115C35.0932 3.28115 34.342 4.55588 34.342 5.17049V8.47114H35.3094V9.26784H32.4526V8.47114H33.4201V3.36082H32.4526V2.56411H34.3875L34.433 3.85023Z" fill="white"/>
<path d="M43.6293 0.162598H45.4731V3.9868C45.7349 3.49739 46.4861 2.52996 47.6242 2.52996C49.1152 2.52996 50.2648 4.06647 50.2648 6.00133C50.2648 7.81099 49.0355 9.34751 47.6242 9.34751C46.4406 9.34751 45.8601 8.5508 45.4731 8.02725V9.26783H43.5838V8.47113H44.5057V0.947924H43.6293V0.162598ZM45.4731 6.45659C45.4731 7.5606 46.304 8.43698 47.3625 8.52803C48.512 8.52803 49.2063 7.51507 49.2063 5.88751C49.2063 4.25995 48.4551 3.29252 47.3625 3.29252C46.395 3.29252 45.4276 4.351 45.4276 5.31844L45.4731 6.45659Z" fill="white"/>
<path d="M50.8338 0.162598H52.7232V8.47113H53.5995V9.26783H50.7883V8.47113H51.7557V0.902398H50.8338V0.162598Z" fill="white"/>
<path d="M60.0756 7.424C59.9846 7.82236 59.8139 8.12966 59.5521 8.43696C59.0285 9.05157 58.2774 9.40439 57.4351 9.40439C55.6255 9.40439 54.3507 7.99308 54.3507 5.96716C54.3507 4.0323 55.6255 2.52994 57.253 2.52994C58.8806 2.52994 60.2008 3.80467 60.2008 6.13789H55.4092C55.5003 7.10532 55.7165 7.6744 56.1604 8.11828C56.5132 8.42558 56.9571 8.60768 57.3896 8.60768C58.1408 8.60768 58.6188 8.25486 58.9716 7.45815L60.0756 7.424ZM59.1082 5.39809C59.1082 4.78348 58.892 4.21441 58.4481 3.725C58.1408 3.46322 57.7424 3.28112 57.3441 3.32664C56.5132 3.37217 55.8076 3.94125 55.5799 4.73796C55.5344 4.95421 55.4434 5.18184 55.4434 5.39809H59.1082Z" fill="white"/>
<path d="M4.02154 11.032H6.1385L8.56277 18.3389H9.2229V19.7502H7.24251L6.67344 17.8609H3.58904L3.01996 19.7502H0.994045V18.3389H1.65417L4.02154 11.032ZM5.08002 12.6595L3.93048 16.5293H6.21817L5.08002 12.6595Z" fill="white"/>
<path d="M9.12047 13.1034H11.761V14.3782H11.1009L12.0228 18.2934L13.1268 13.1034H14.8454L15.9494 18.2137L16.8258 14.3895H16.1656V13.1148H18.8062V14.3895H18.2371L16.8258 19.7161H15.0616L13.9576 15.1407L12.8991 19.7161H11.135L9.67817 14.3895H9.10909L9.12047 13.1034Z" fill="white"/>
<path d="M25.0546 18.4755H25.6237V19.7502H23.5523V18.9535C23.0629 19.5681 22.3231 19.8754 21.5264 19.8754C20.2061 19.8754 19.1931 18.999 19.1931 17.804C19.1931 15.8691 21.3898 15.6529 23.5067 15.4708C23.5067 14.4578 23.1539 14.1505 22.3231 14.1505C21.4922 14.1505 21.1735 14.5489 21.1394 15.1635V15.209L19.5573 15.1635C19.6484 13.8432 20.7069 13.0124 22.2889 13.0124C24.1327 13.0124 25.1002 13.8432 25.1002 15.3456L25.0546 18.4755ZM23.4726 16.6203C21.9361 16.7569 20.9231 16.8821 20.9231 17.804C20.9231 18.3275 21.367 18.6804 22.0271 18.6804C22.8239 18.6804 23.484 18.0658 23.5181 17.269V16.6203H23.4726Z" fill="white"/>
<path d="M28.7536 14.1619C29.1975 13.3311 29.6755 12.9782 30.4267 12.9782C30.6885 12.9782 30.9161 13.0238 31.1779 13.0693V14.6058C30.9161 14.5603 30.6544 14.5147 30.3812 14.5147C29.5503 14.4692 28.8447 15.0838 28.7992 15.8805V18.43H29.5959V19.7047H26.5115V18.43H27.1716V14.3782H26.5115V13.1034H28.7536V14.1619Z" fill="white"/>
<path d="M37.8133 17.5422C37.506 18.9991 36.3224 19.8755 34.7289 19.8755C32.8851 19.8755 31.5194 18.4186 31.5194 16.4041C31.5194 14.3782 32.8851 12.9327 34.7289 12.9327C35.7419 12.9327 36.7093 13.4221 37.2784 14.2985C37.7223 15.0497 37.9841 15.8805 37.9385 16.7683H33.1811C33.3518 18.4869 34.4558 18.578 34.7631 18.578C35.3777 18.6235 35.9468 18.1796 36.1289 17.6105L37.8133 17.5422ZM36.0947 15.6074C36.0947 14.8562 35.4801 14.2871 34.7745 14.2871H34.7289C33.9778 14.2871 33.3632 14.8562 33.238 15.5618L36.0947 15.6074Z" fill="white"/>
<path d="M64.0478 1.11863C64.2641 1.11863 64.4234 1.17553 64.5486 1.27797C64.6624 1.3804 64.7307 1.52836 64.7307 1.69909C64.7307 1.83566 64.6966 1.94948 64.6396 2.05191C64.5827 2.15435 64.4803 2.22264 64.3437 2.25678V2.26816C64.412 2.27954 64.4575 2.30231 64.5031 2.32507C64.5486 2.35922 64.5714 2.39336 64.5941 2.4275C64.6169 2.47303 64.6396 2.51856 64.651 2.56408C64.6624 2.60961 64.6738 2.66652 64.6738 2.72342C64.6738 2.78033 64.6852 2.83724 64.6852 2.89415C64.6852 2.95106 64.6966 3.00796 64.6966 3.06487C64.7079 3.12178 64.7193 3.1673 64.7307 3.22421C64.7421 3.26974 64.7648 3.31526 64.799 3.34941H64.4689C64.4462 3.32665 64.4348 3.2925 64.4234 3.25836C64.412 3.22421 64.412 3.17869 64.412 3.12178C64.412 3.07625 64.412 3.01935 64.4006 2.96244C64.4006 2.90553 64.3893 2.84862 64.3779 2.79171C64.3665 2.73481 64.3551 2.68928 64.3437 2.63237C64.3323 2.58685 64.3096 2.54132 64.2868 2.50718C64.2641 2.47303 64.2299 2.43888 64.1844 2.41612C64.1389 2.39336 64.082 2.38198 64.0137 2.38198H63.2966V3.32664H63.0007V1.10724H64.0478V1.11863ZM64.1047 2.13158C64.1616 2.1202 64.2185 2.09744 64.2641 2.07467C64.3096 2.04053 64.3437 2.00639 64.3779 1.94948C64.4006 1.90395 64.4234 1.83566 64.4234 1.75599C64.4234 1.64218 64.3893 1.55113 64.3323 1.48284C64.2754 1.41455 64.173 1.3804 64.025 1.3804H63.2966V2.15435H63.9112C63.9795 2.15435 64.0478 2.14296 64.1047 2.13158Z" fill="white"/>
<path d="M63.8316 4.47621C62.6479 4.47621 61.6804 3.50878 61.6804 2.3251C61.6804 1.14142 62.6479 0.17399 63.8316 0.17399C65.0152 0.17399 65.9827 1.14142 65.9827 2.3251C65.9827 3.50878 65.0152 4.47621 63.8316 4.47621ZM63.8316 0.515437C62.8414 0.515437 62.0219 1.32353 62.0219 2.3251C62.0219 3.32668 62.83 4.13477 63.8316 4.13477C64.8331 4.13477 65.6412 3.32668 65.6412 2.3251C65.6412 1.32353 64.8218 0.515437 63.8316 0.515437Z" fill="white"/>
<path d="M38.7353 18.8738H39.5547V19.6819H38.7353V18.8738Z" fill="white"/>
<path d="M40.2945 17.2918C40.2945 15.8464 41.1823 14.8448 42.4798 14.8448C43.7431 14.8448 44.665 15.8805 44.665 17.2918C44.665 18.7714 43.7659 19.7844 42.4684 19.7844C41.1709 19.7844 40.2945 18.7828 40.2945 17.2918ZM42.4456 19.1925C43.3448 19.1925 43.8911 18.4641 43.8911 17.269C43.8911 16.1423 43.322 15.4252 42.4456 15.4252C41.592 15.4252 41.0571 16.1423 41.0571 17.3032C41.0571 18.4982 41.5806 19.1925 42.4456 19.1925Z" fill="white"/>
<path d="M46.5202 16.0171C46.7479 15.5163 46.8731 15.3683 47.0893 15.1635C47.3397 14.9472 47.647 14.8334 47.9543 14.8334C48.0681 14.8334 48.2275 14.8562 48.4665 14.8903V15.5846C48.2275 15.5391 48.0909 15.5277 47.9657 15.5277C46.6796 15.5277 46.5202 16.8593 46.5202 16.939V19.1356H47.3283V19.6933H45.1544V19.1356H45.8373V15.4935H45.1317V14.9244H46.5202V16.0171Z" fill="white"/>
<path d="M52.1882 18.5096C51.7557 19.1242 51.2777 19.3177 50.7542 19.3177C49.616 19.3177 48.8307 18.3844 48.8307 17.03C48.8307 15.7439 49.6046 14.8334 50.6745 14.8334C51.5509 14.8334 51.9378 15.3911 52.1882 15.7553V14.9017H53.5313V15.4708H52.8711V19.3746C52.8711 20.5242 52.1427 21.1729 50.8452 21.1729C50.0599 21.1729 49.3884 20.8315 49.0697 20.2738C49.0128 20.16 48.9559 20.0461 48.8762 19.8071H49.6502C49.9347 20.3762 50.2648 20.5925 50.9021 20.5925C51.7102 20.5925 52.1882 20.1713 52.1882 19.4884V18.5096ZM52.1882 16.6772C52.1882 16.1537 51.5509 15.4139 50.8225 15.4139C50.0485 15.4139 49.5705 16.0512 49.5705 17.0869C49.5705 18.134 50.0599 18.7714 50.868 18.7714C51.5623 18.7714 52.1882 18.0885 52.1882 17.5308V16.6772Z" fill="white"/>
</svg>
