<svg width="66" height="21" viewBox="0 0 66 21" fill="none" xmlns="http://www.w3.org/2000/svg">
<path d="M15.1834 10.0092H28.2919V20.0889H25.669L24.7113 17.6482C22.674 19.436 18.9226 20.5892 14.8418 20.5892C9.724 20.5892 7.22306 19.4055 5.68589 18.4659C1.10491 15.7385 0.98291 12.5108 0.98291 10.5156C0.98291 5.92115 5.3931 0.74707 15.1346 0.74707C20.7098 0.74707 26.9134 2.74226 27.7857 6.97061H23.8756C22.5886 3.688 18.215 3.00463 14.9272 3.00463C9.5593 3.00463 5.14301 5.7076 5.14301 10.6437C5.14301 14.4755 7.13766 18.417 15.0919 18.417C16.5924 18.417 19.0019 18.3133 21.21 17.2089C23.8329 15.8971 24.4978 14.2131 24.4978 12.1935H15.1834V10.0092Z" fill="white"/>
<path d="M34.5382 1.24129V20.0889H53.7283V17.8313H38.5763V1.24129H34.5382Z" fill="white"/>
<path d="M62.7683 1.24129H58.7302V20.0889H62.7683V1.24129Z" fill="white"/>
<path d="M64.9032 2.0772V1.76602H65.1106C65.2204 1.76602 65.3302 1.79043 65.3302 1.91246C65.3302 2.0711 65.2143 2.0772 65.0862 2.0772H64.9032ZM64.9032 2.21143H65.0801L65.3485 2.65074H65.5193L65.2326 2.20533C65.379 2.18703 65.4949 2.10771 65.4949 1.92466C65.4949 1.72331 65.379 1.63789 65.135 1.63789H64.7507V2.65074H64.9032V2.21143ZM65.0923 3.02293C65.5742 3.02293 65.9829 2.65074 65.9829 2.13821C65.9829 1.63179 65.5742 1.2596 65.0923 1.2596C64.6104 1.2596 64.2018 1.63179 64.2018 2.13821C64.1957 2.65074 64.6104 3.02293 65.0923 3.02293ZM64.3726 2.13821C64.3726 1.72331 64.6836 1.40603 65.0862 1.40603C65.4827 1.40603 65.7999 1.71721 65.7999 2.13821C65.7999 2.55922 65.4827 2.8765 65.0862 2.8765C64.6897 2.8765 64.3726 2.56532 64.3726 2.13821Z" fill="white"/>
</svg>
