<svg width="33" height="31" viewBox="0 0 33 31" fill="none" xmlns="http://www.w3.org/2000/svg">
<path d="M10.5356 1.75106C13.8519 0.327098 17.6409 0.0839829 21.1274 0.998185C24.3899 1.82164 27.3733 3.71615 29.4886 6.33439C31.6508 8.98738 32.8597 12.3663 32.9829 15.7778C32.0553 15.7834 31.1265 15.8125 30.2011 15.761C29.9804 13.2144 29.325 10.5424 27.5492 8.61318C25.9953 6.85424 24.0706 5.39779 21.8848 4.52055C21.8579 4.40516 21.8332 4.28864 21.8086 4.17325C21.6327 4.11275 21.4646 4.03096 21.3089 3.93013C21.1543 4.03656 20.9874 4.12283 20.8126 4.19005C20.7924 4.38163 20.7454 4.56761 20.6793 4.74798C20.8249 4.86898 20.9526 5.00903 21.0389 5.18044C21.2327 5.15803 21.4288 5.15131 21.6237 5.17148C21.6753 5.07401 21.7257 4.97654 21.7761 4.87794C23.4465 5.52663 24.9422 6.56743 26.2418 7.79085C27.1033 8.6199 27.947 9.50498 28.4858 10.585C29.3037 12.1904 29.7216 13.9875 29.8202 15.78C29.4717 15.7498 29.0595 15.882 28.7536 15.7095C28.5766 13.8676 28.1565 12.0123 27.221 10.3968C26.1298 8.48322 24.2375 7.15897 22.241 6.31871C20.965 5.81904 19.5981 5.44932 18.2179 5.50198C18.3254 5.3821 18.4296 5.25774 18.5327 5.13338C18.2582 5.046 17.9815 4.96309 17.7092 4.87122C17.6846 4.57769 17.6622 4.28416 17.6207 3.99287C17.3877 4.13964 17.167 4.31105 16.9183 4.43205C16.6281 4.36147 16.404 4.13852 16.1497 3.99399C16.1172 4.27968 16.0948 4.56761 16.0814 4.85554C15.8069 4.96197 15.5246 5.04488 15.2445 5.13562C15.4282 5.36642 15.6399 5.57144 15.8539 5.77422C15.7542 6.04311 15.6534 6.31199 15.5761 6.58871C15.864 6.55398 16.1519 6.51253 16.441 6.48228C16.581 6.7422 16.73 6.99876 16.9015 7.24076C17.0482 6.9954 17.1849 6.7422 17.3171 6.489C17.6151 6.51029 17.9109 6.55286 18.2067 6.58759C18.126 6.33103 18.0364 6.07896 17.9501 5.82464C20.8137 5.81904 23.6504 7.01333 25.7018 9.00194C26.9835 10.2791 27.7083 12.0078 28.096 13.7488C28.2472 14.4155 28.3503 15.0933 28.3514 15.7789C27.6534 15.7823 26.9532 15.8159 26.2575 15.7576C26.1678 14.4984 25.8833 13.2391 25.2682 12.1266C24.6072 10.8696 23.609 9.80635 22.4382 9.0109C22.548 8.90111 22.6589 8.79243 22.7698 8.68376C22.5614 8.57733 22.3519 8.47202 22.1436 8.36894C22.1458 8.13927 22.1458 7.9096 22.1447 7.68105C21.9318 7.77068 21.7212 7.86815 21.5139 7.9701C21.319 7.81437 21.1308 7.6508 20.9381 7.49283C20.8944 7.73259 20.844 7.9701 20.798 8.20873C20.5639 8.26699 20.3275 8.31741 20.0911 8.37118C20.2345 8.5594 20.3801 8.7465 20.5235 8.93472C20.4283 9.15095 20.3219 9.36157 20.2143 9.5722C20.4574 9.57108 20.6994 9.56547 20.9425 9.57108C21.0299 9.78282 21.1274 9.99009 21.2238 10.1973C21.4064 10.036 21.5397 9.80523 21.7649 9.69992C21.9643 9.72232 22.1604 9.76826 22.3575 9.80747C22.3508 9.66519 22.3463 9.52402 22.3407 9.38174C24.4111 10.8203 25.8239 13.22 25.8721 15.761C24.9187 15.8024 23.9608 15.8024 23.0062 15.7599C22.958 14.1701 21.9699 12.7607 20.6781 11.8969C20.2782 11.6236 19.7942 11.2639 19.848 10.7194C19.7001 10.7441 19.5533 10.7698 19.4066 10.7967C19.29 10.6937 19.1746 10.5906 19.0581 10.4886C18.9965 10.6208 18.9371 10.7542 18.8777 10.8875C18.7243 10.9256 18.5708 10.9637 18.4184 11.0006C18.5831 11.2695 18.5887 11.5675 18.4162 11.8342C18.7287 11.8532 18.9461 12.0437 19.0447 12.3372C19.2643 12.1243 19.5432 12.0594 19.8345 12.1479C19.8502 12.0728 19.8827 11.9227 19.8984 11.8476C20.8171 12.3977 21.673 13.1248 22.1828 14.0805C22.4561 14.5902 22.5816 15.1638 22.6253 15.7363C21.8142 15.8439 20.9941 15.7733 20.1818 15.724C17.5681 15.7207 14.9509 15.6512 12.3405 15.7868C10.1682 15.78 7.99582 15.7924 5.82235 15.7823C5.89741 17.8404 6.50912 19.9264 7.7303 21.6025C7.88827 21.9005 8.27479 21.8512 8.49662 22.0753C8.52575 22.2041 8.55152 22.3329 8.5728 22.4629C8.46637 22.566 8.36106 22.6702 8.26022 22.7788C8.10338 22.7609 7.94765 22.7497 7.7908 22.7475C7.72022 22.5256 7.69333 22.2948 7.67316 22.0641C7.52864 21.7851 7.30905 21.5521 7.1466 21.2843C6.1002 19.6475 5.63301 17.7104 5.49185 15.7901C4.64375 15.7834 3.79676 15.7823 2.94978 15.7912C3.00244 16.3671 3.03381 16.9508 3.17161 17.5143C3.20746 17.735 3.47523 17.6992 3.63768 17.7451C3.80013 17.986 3.78332 18.2482 3.66008 18.5025C3.5122 18.5316 3.36767 18.5988 3.21531 18.5988C3.10663 18.5148 3.00468 18.4252 2.89937 18.3389C2.91281 17.4818 2.68762 16.6449 2.65177 15.7901C2.19691 15.7834 1.74205 15.7812 1.28831 15.7924C1.28383 19.2598 2.80302 22.5929 5.0157 25.21C5.49409 25.7444 5.94559 26.3135 6.52033 26.7505C6.63348 26.6844 6.74664 26.6171 6.85979 26.5488C7.00208 26.6888 7.16229 26.811 7.34154 26.9006C7.33258 27.0933 7.34042 27.286 7.36283 27.4776C7.19366 27.5818 7.06145 27.7296 6.96062 27.8999C6.78137 27.7868 6.57522 27.7565 6.36684 27.7778C6.29738 27.5952 6.21447 27.4193 6.10692 27.2569C6.15733 27.1639 6.20887 27.0709 6.25929 26.9779C3.82365 24.6509 1.92691 21.6719 1.24462 18.3445C0.8693 16.5721 0.9354 14.7336 1.2054 12.9512C1.37234 11.8185 1.80255 10.7486 2.27421 9.71336C3.92785 6.16522 6.93037 3.27473 10.5356 1.75106Z" fill="white"/>
<path d="M26.9039 18.7792C27.2266 18.5585 27.7901 18.6907 27.8551 19.122C27.9223 19.7113 27.8719 20.3085 27.8752 20.9011C28.3749 20.5124 29.018 20.2244 29.6577 20.4104C30.3086 20.5359 30.7814 21.1599 30.7893 21.812C30.805 22.6702 30.7949 23.5283 30.796 24.3865C30.8106 24.6476 30.6817 24.9075 30.4621 25.0498C30.1395 25.154 29.6745 25.0912 29.5995 24.6969C29.4874 23.8208 29.6196 22.9301 29.5334 22.0517C29.4874 21.7985 29.4034 21.477 29.12 21.3997C28.6326 21.2451 28.0758 21.5543 27.9559 22.0517C27.8013 22.9178 27.9526 23.804 27.854 24.6733C27.7666 25.108 27.1907 25.1999 26.8647 24.987C26.6563 24.8134 26.6462 24.5232 26.6429 24.2745C26.644 22.7038 26.6462 21.1319 26.6417 19.5612C26.6384 19.2834 26.6563 18.9562 26.9039 18.7792Z" fill="white"/>
<path d="M10.0158 18.7702C10.4057 18.5719 10.9479 18.8856 10.8998 19.3416C10.9423 19.9063 10.1413 20.1483 9.79846 19.755C9.51389 19.4637 9.63601 18.9181 10.0158 18.7702Z" fill="white"/>
<path d="M11.507 19.0716C11.693 18.7377 12.1209 18.7646 12.4481 18.7658C13.7152 18.787 14.9834 18.7389 16.2483 18.7893C16.7872 18.8173 16.9351 19.652 16.4354 19.8525C15.8864 19.9925 15.3083 19.8816 14.747 19.9287C14.7605 21.3392 14.7482 22.7497 14.7549 24.1591C14.7594 24.4706 14.7414 24.8616 14.4266 25.0263C14.1645 25.1159 13.8037 25.1428 13.6099 24.9041C13.4093 24.7114 13.4295 24.4145 13.4228 24.1602C13.4284 22.7486 13.4239 21.3358 13.4261 19.9242C12.922 19.9052 12.4167 19.9455 11.9137 19.8995C11.535 19.8659 11.2952 19.3909 11.507 19.0716Z" fill="white"/>
<path d="M10.0393 20.4037C10.4415 20.2211 10.9244 20.5796 10.8919 21.0154C10.9054 22.1391 10.8998 23.2639 10.8942 24.3877C10.9098 24.717 10.6903 25.1069 10.3194 25.0868C9.96539 25.154 9.66178 24.8358 9.65506 24.4974C9.63825 23.3726 9.65618 22.2478 9.64721 21.123C9.63489 20.8373 9.7346 20.4945 10.0393 20.4037Z" fill="white"/>
<path d="M16.9351 21.2518C17.5322 20.3555 18.8038 20.1438 19.7595 20.5281C20.5459 20.8406 21.0658 21.719 20.9504 22.557C20.9089 22.929 20.509 23.0701 20.1841 23.078C19.3987 23.1105 18.6111 23.0813 17.8246 23.0881C17.8201 23.5552 18.0812 24.0504 18.5551 24.1826C19.1029 24.3854 19.6317 24.0146 20.0104 23.6527C20.1986 23.4286 20.5605 23.3457 20.7924 23.5485C21.0075 23.8084 20.8496 24.1759 20.6613 24.4033C20.1639 24.9893 19.3438 25.1461 18.6111 25.0823C17.8313 25.0699 17.0594 24.6106 16.7525 23.8801C16.4063 23.0444 16.4421 22.0226 16.9351 21.2518ZM18.1876 21.4916C17.9322 21.6921 17.8683 22.0248 17.8213 22.3273C18.4599 22.3341 19.0996 22.3341 19.7393 22.3262C19.6922 22.0506 19.6609 21.7403 19.4402 21.5409C19.1175 21.2014 18.5316 21.1644 18.1876 21.4916Z" fill="white"/>
<path d="M23.3614 20.4037C24.3047 20.2043 25.5214 20.5236 25.9124 21.4893C26.0793 21.8321 25.8217 22.2646 25.443 22.2848C25.0587 22.3318 24.8929 21.9128 24.6632 21.6876C24.3215 21.2294 23.5451 21.2406 23.1911 21.6775C22.8415 22.073 22.8382 22.6399 22.8931 23.1362C22.9614 23.5059 23.153 23.8992 23.5261 24.0426C23.8566 24.1658 24.2655 24.1524 24.5501 23.9272C24.8033 23.7211 24.9287 23.404 25.1618 23.1788C25.4273 22.9682 25.8665 23.1004 25.9729 23.4219C26.1073 23.7681 25.9034 24.1322 25.6827 24.3921C25.2133 24.9366 24.4571 25.1192 23.7636 25.0733C22.9737 25.0991 22.1626 24.6677 21.8388 23.9294C21.4198 23.0007 21.5206 21.8041 22.2029 21.0244C22.5054 20.695 22.9278 20.4945 23.3614 20.4037Z" fill="white"/>
<path d="M9.79174 26.29C9.76037 25.9147 10.1671 25.5808 10.5222 25.7433C10.8505 25.8329 10.8897 26.2183 10.8964 26.504C10.9042 27.6243 10.8942 28.7458 10.8975 29.8673C11.6235 29.9087 12.3585 29.8124 13.08 29.9154C13.5259 30.0163 13.4598 30.7557 13.0004 30.777C12.1097 30.8128 11.2146 30.7983 10.3217 30.7848C10.008 30.805 9.77381 30.5014 9.79062 30.2045C9.7839 28.9004 9.78166 27.5941 9.79174 26.29Z" fill="white"/>
<path d="M18.0991 25.7556C18.3512 25.6066 18.731 25.7746 18.7668 26.0727C18.8329 26.5477 18.7881 27.0306 18.7892 27.5078C19.4334 26.9376 20.5538 26.8883 21.1117 27.6031C21.5419 28.1778 21.5789 28.962 21.4142 29.6387C21.2708 30.3053 20.6681 30.898 19.9589 30.8722C19.5354 30.9103 19.1567 30.6974 18.8408 30.4398C18.7153 30.6414 18.573 30.9182 18.2873 30.87C17.9255 30.9002 17.8045 30.507 17.8168 30.2157C17.8078 28.9788 17.8168 27.7409 17.8134 26.504C17.8336 26.2441 17.8045 25.871 18.0991 25.7556ZM19.3472 27.9302C18.9058 28.1699 18.7971 28.7436 18.8497 29.204C18.8822 29.6141 19.169 30.0588 19.6172 30.0689C20.0306 30.1126 20.3779 29.7608 20.4429 29.3732C20.5135 28.934 20.5202 28.4052 20.1897 28.0635C19.9835 27.8305 19.6183 27.8103 19.3472 27.9302Z" fill="white"/>
<path d="M14.5274 27.2289C15.138 26.9869 15.8405 26.9891 16.46 27.1975C16.7827 27.305 17.0045 27.6042 17.0718 27.9302C17.2241 28.6943 16.9956 29.4897 17.2432 30.2415C17.3686 30.5047 17.2062 30.8375 16.9071 30.8633C16.5934 30.9338 16.4096 30.6145 16.218 30.4297C15.817 30.656 15.3957 30.9058 14.9162 30.8722C14.3303 30.9182 13.7085 30.4846 13.6816 29.8706C13.6244 29.362 14.0255 28.9004 14.5039 28.7828C15.0495 28.6382 15.6153 28.5744 16.1508 28.3873C16.078 28.1856 16.0545 27.8921 15.7968 27.845C15.4641 27.7565 15.0305 27.7801 14.803 28.0747C14.6865 28.2058 14.5835 28.3481 14.4569 28.4702C14.2249 28.5531 13.8978 28.459 13.8586 28.1856C13.7936 27.7509 14.1532 27.3835 14.5274 27.2289ZM14.728 29.5849C14.57 30.0488 15.1728 30.3311 15.538 30.1328C16.0041 30.0107 16.1643 29.5144 16.1486 29.0819C15.6792 29.2309 15.0506 29.1626 14.728 29.5849Z" fill="white"/>
<path d="M22.4001 27.3734C22.8449 27.0373 23.4409 27.0384 23.9686 27.1135C24.3977 27.1852 24.8615 27.4249 24.9993 27.8663C25.1002 28.2349 24.6509 28.4892 24.3484 28.3223C24.0504 28.1207 23.8465 27.6916 23.4286 27.742C23.19 27.724 23.0152 27.8955 22.8998 28.0826C23.3222 28.6203 24.1333 28.4668 24.6722 28.841C25.3556 29.148 25.3365 30.2527 24.6733 30.5675C24.1367 30.9294 23.4432 30.9338 22.8348 30.7893C22.3923 30.6549 21.8948 30.2908 21.9632 29.7709C21.9811 29.4785 22.3452 29.3586 22.585 29.4774C22.8516 29.7239 23.0118 30.1507 23.4264 30.1787C23.7277 30.2471 24.2677 30.0958 24.1747 29.6981C23.9518 29.3788 23.5182 29.3654 23.1788 29.25C22.7788 29.1346 22.3351 28.9912 22.101 28.6181C21.859 28.2036 22.0214 27.6456 22.4001 27.3734Z" fill="white"/>
</svg>
