<svg width="33" height="33" viewBox="0 0 33 33" fill="none" xmlns="http://www.w3.org/2000/svg">
<path d="M11.1057 22.1174V13.4296H9.09732V11.2032H13.8771V22.1174H11.1057Z" fill="white"/>
<path d="M24.2926 14.0212C24.2926 14.9709 23.7788 15.8116 22.9225 16.2788C24.1212 16.7769 24.8686 17.8201 24.8686 19.0345C24.8686 20.9962 23.1248 22.2418 20.4002 22.2418C17.6756 22.2418 15.9319 21.0117 15.9319 19.0813C15.9319 17.8357 16.7414 16.7769 18.0025 16.2788C17.084 15.7649 16.4923 14.8932 16.4923 13.9435C16.4923 12.1996 18.0182 11.0943 20.3847 11.0943C22.7823 11.0943 24.2926 12.2308 24.2926 14.0212ZM18.5474 18.8011C18.5474 19.7197 19.2014 20.2335 20.4002 20.2335C21.599 20.2335 22.2685 19.7354 22.2685 18.8011C22.2685 17.8982 21.599 17.3842 20.4002 17.3842C19.2013 17.3842 18.5474 17.8981 18.5474 18.8011ZM18.8278 14.1769C18.8278 14.9555 19.3883 15.3913 20.4002 15.3913C21.4122 15.3913 21.9727 14.9554 21.9727 14.1769C21.9727 13.3675 21.4122 12.9159 20.4002 12.9159C19.3882 12.9159 18.8278 13.3675 18.8278 14.1769Z" fill="white"/>
<path d="M29.4801 12.4353C29.9408 13.7952 30.1746 15.2175 30.1746 16.6681C30.1746 23.9419 24.2568 29.8596 16.983 29.8596C9.70908 29.8596 3.79125 23.9419 3.79125 16.6681C3.79125 9.39414 9.70898 3.4766 16.9829 3.4766C18.4337 3.4766 19.856 3.71013 21.2157 4.17107V1.23545C19.8423 0.85898 18.4239 0.667969 16.983 0.667969C8.16056 0.667969 0.98291 7.84562 0.98291 16.6681C0.98291 25.4906 8.16056 32.6683 16.983 32.6683C25.8054 32.6683 32.9829 25.4906 32.9829 16.6681C32.9829 15.2273 32.792 13.8088 32.4155 12.4353H29.4801Z" fill="white"/>
<path d="M28.6817 4.96021V1.89227H26.4756V4.96021H23.426V7.16613H26.4756V10.234H28.6817V7.16613H31.7495V4.96021H28.6817Z" fill="white"/>
</svg>
