<svg width="36" height="28" viewBox="0 0 36 28" fill="none" xmlns="http://www.w3.org/2000/svg">
<g clip-path="url(#clip0_2124_5329)">
<path d="M34.8105 27.1328V27.2022H34.8758C34.888 27.2024 34.9001 27.1993 34.9108 27.1934C34.915 27.1904 34.9185 27.1864 34.9207 27.1817C34.923 27.1771 34.9241 27.172 34.9239 27.1668C34.9241 27.1617 34.923 27.1567 34.9207 27.1522C34.9184 27.1477 34.915 27.1438 34.9108 27.141C34.9002 27.1347 34.8881 27.1316 34.8758 27.1321H34.8105V27.1328ZM34.8765 27.0837C34.9045 27.082 34.9322 27.09 34.9549 27.1063C34.964 27.1136 34.9712 27.1231 34.976 27.1337C34.9808 27.1444 34.9829 27.156 34.9823 27.1677C34.9828 27.1777 34.981 27.1877 34.9772 27.197C34.9734 27.2063 34.9676 27.2147 34.9603 27.2216C34.9428 27.2367 34.9208 27.2458 34.8976 27.2475L34.9851 27.3464H34.9178L34.8373 27.2482H34.8112V27.3464H34.7548V27.0839H34.8773L34.8765 27.0837ZM34.859 27.437C34.8885 27.4373 34.9178 27.4313 34.9449 27.4196C34.971 27.4085 34.9948 27.3925 35.0149 27.3726C35.0351 27.3527 35.0512 27.3291 35.0623 27.3032C35.0853 27.2482 35.0853 27.1864 35.0623 27.1314C35.051 27.1056 35.0349 27.082 35.0149 27.062C34.9948 27.0421 34.971 27.0261 34.9449 27.015C34.9176 27.0039 34.8884 26.9984 34.859 26.9987C34.829 26.9984 34.7993 27.0039 34.7715 27.015C34.7448 27.0259 34.7205 27.0419 34.6999 27.062C34.6689 27.0935 34.648 27.1333 34.6397 27.1765C34.6314 27.2197 34.6361 27.2644 34.6532 27.3049C34.6638 27.331 34.6797 27.3546 34.6999 27.3743C34.7205 27.3944 34.7448 27.4104 34.7715 27.4214C34.7991 27.4331 34.8289 27.439 34.859 27.4387V27.437ZM34.859 26.9355C34.9359 26.9354 35.0097 26.9653 35.0646 27.0188C35.091 27.0445 35.1121 27.0751 35.1265 27.1089C35.1415 27.1435 35.1492 27.1809 35.1492 27.2186C35.1492 27.2563 35.1415 27.2937 35.1265 27.3284C35.1118 27.362 35.0907 27.3925 35.0646 27.4184C35.0378 27.4439 35.0065 27.4645 34.9724 27.4791C34.9365 27.4943 34.8979 27.5019 34.859 27.5017C34.8196 27.502 34.7805 27.4943 34.7442 27.4791C34.7096 27.4648 34.6781 27.4442 34.6512 27.4184C34.6251 27.3916 34.6044 27.36 34.5902 27.3254C34.5752 27.2907 34.5675 27.2534 34.5675 27.2157C34.5675 27.1779 34.5752 27.1406 34.5902 27.1059C34.6046 27.0721 34.6257 27.0415 34.6521 27.0158C34.6786 26.9896 34.7102 26.9689 34.745 26.9551C34.7814 26.94 34.8204 26.9323 34.8598 26.9326L34.859 26.9355ZM8.063 25.9216C8.063 25.421 8.39374 25.0098 8.93432 25.0098C9.45092 25.0098 9.79952 25.4033 9.79952 25.9216C9.79952 26.4399 9.45092 26.8335 8.93432 26.8335C8.39374 26.8335 8.063 26.4222 8.063 25.9216ZM10.3884 25.9216V24.497H9.76382V24.8441C9.56572 24.5876 9.26524 24.4267 8.85662 24.4267C8.05162 24.4267 7.41987 25.0528 7.41987 25.9223C7.41987 26.7918 8.05127 27.4179 8.85662 27.4179C9.26507 27.4179 9.56572 27.2569 9.76382 27.0006V27.3464H10.3877V25.9216H10.3884ZM31.492 25.9216C31.492 25.421 31.8227 25.0098 32.3635 25.0098C32.8806 25.0098 33.2287 25.4033 33.2287 25.9216C33.2287 26.4399 32.8806 26.8335 32.3635 26.8335C31.8229 26.8335 31.492 26.4222 31.492 25.9216ZM33.8181 25.9216V23.3535H33.193V24.8441C32.9949 24.5876 32.6944 24.4267 32.2858 24.4267C31.4808 24.4267 30.849 25.0528 30.849 25.9223C30.849 26.7918 31.4804 27.4179 32.2858 27.4179C32.6944 27.4179 32.9949 27.2569 33.193 27.0006V27.3464H33.8181V25.9216ZM18.1402 24.9804C18.5427 24.9804 18.8012 25.2307 18.8671 25.6712H17.3768C17.4435 25.26 17.6953 24.9804 18.1404 24.9804H18.1402ZM18.1528 24.4252C17.311 24.4252 16.7222 25.0325 16.7222 25.9208C16.7222 26.8264 17.3347 27.4163 18.1946 27.4163C18.6272 27.4163 19.0234 27.3093 19.372 27.0172L19.0659 26.5583C18.8251 26.7491 18.5185 26.8562 18.2303 26.8562C17.8278 26.8562 17.4614 26.6714 17.3712 26.1587H19.504C19.5101 26.0816 19.5164 26.0039 19.5164 25.9206C19.5101 25.0327 18.9564 24.425 18.1524 24.425L18.1528 24.4252ZM25.6932 25.9206C25.6932 25.42 26.0239 25.0087 26.5645 25.0087C27.0811 25.0087 27.4297 25.4023 27.4297 25.9206C27.4297 26.4389 27.0811 26.8324 26.5645 26.8324C26.0239 26.8324 25.693 26.4212 25.693 25.9206H25.6932ZM28.0184 25.9206V24.497H27.3942V24.8441C27.1954 24.5876 26.8956 24.4267 26.487 24.4267C25.682 24.4267 25.0502 25.0528 25.0502 25.9223C25.0502 26.7918 25.6816 27.4179 26.487 27.4179C26.8956 27.4179 27.1954 27.2569 27.3942 27.0006V27.3464H28.0186V25.9216L28.0184 25.9206ZM22.1661 25.9206C22.1661 26.7845 22.7726 27.4162 23.6984 27.4162C24.131 27.4162 24.4192 27.3207 24.7309 27.0766L24.4309 26.576C24.1964 26.7431 23.9502 26.8324 23.6784 26.8324C23.1798 26.8264 22.8132 26.4689 22.8132 25.9206C22.8132 25.3723 23.1798 25.015 23.6784 25.0087C23.9495 25.0087 24.1957 25.0981 24.4309 25.2652L24.7309 24.7646C24.4187 24.5204 24.1304 24.425 23.6984 24.425C22.7726 24.425 22.1661 25.0565 22.1661 25.9206ZM30.2178 24.425C29.8575 24.425 29.6228 24.5921 29.4606 24.8423V24.497H28.8416V27.3448H29.4669V25.7485C29.4669 25.2772 29.6711 25.0153 30.0794 25.0153C30.2131 25.0134 30.3458 25.0378 30.47 25.087L30.6625 24.5033C30.5242 24.4493 30.344 24.4255 30.2175 24.4255L30.2178 24.425ZM13.4763 24.7235C13.1758 24.527 12.7617 24.4255 12.305 24.4255C11.5773 24.4255 11.1089 24.7714 11.1089 25.3372C11.1089 25.8015 11.4576 26.088 12.0999 26.1774L12.3949 26.219C12.7374 26.2668 12.8991 26.3561 12.8991 26.517C12.8991 26.7372 12.6716 26.8628 12.2444 26.8628C11.8118 26.8628 11.4996 26.7257 11.2891 26.5649L10.9956 27.0478C11.3381 27.298 11.7707 27.4174 12.2392 27.4174C13.0687 27.4174 13.5494 27.0301 13.5494 26.4878C13.5494 25.9872 13.1711 25.7254 12.546 25.636L12.2516 25.5937C11.9812 25.559 11.7646 25.505 11.7646 25.3141C11.7646 25.1059 11.9688 24.9806 12.3115 24.9806C12.6781 24.9806 13.033 25.1177 13.2069 25.2248L13.4773 24.7242L13.4763 24.7235ZM21.5352 24.426C21.1749 24.426 20.9402 24.5931 20.7787 24.8434V24.497H20.1597V27.3448H20.7843V25.7485C20.7843 25.2772 20.9885 25.0153 21.3968 25.0153C21.5305 25.0134 21.6632 25.0378 21.7874 25.087L21.9799 24.5033C21.8416 24.4493 21.6614 24.4255 21.5348 24.4255L21.5352 24.426ZM16.2054 24.497H15.1841V23.6331H14.5527V24.497H13.9701V25.063H14.5527V26.3622C14.5527 27.023 14.8113 27.4165 15.5502 27.4165C15.8213 27.4165 16.1335 27.3332 16.3316 27.1963L16.1511 26.666C15.9648 26.7731 15.7605 26.8271 15.5981 26.8271C15.2859 26.8271 15.1841 26.6362 15.1841 26.3504V25.0636H16.2054V24.497ZM6.86757 27.3455V25.5583C6.86757 24.8852 6.43497 24.4323 5.7376 24.4262C5.37097 24.4201 4.9928 24.5333 4.72802 24.9329C4.52992 24.6171 4.21772 24.4262 3.77882 24.4262C3.47205 24.4262 3.17227 24.5156 2.9376 24.8491V24.497H2.3125V27.3448H2.9425V25.7658C2.9425 25.2714 3.219 25.0087 3.646 25.0087C4.06075 25.0087 4.27057 25.2768 4.27057 25.7596V27.3445H4.90197V25.7655C4.90197 25.2711 5.1902 25.0084 5.60477 25.0084C6.03125 25.0084 6.23477 25.2765 6.23477 25.7592V27.3441L6.86757 27.3455Z" fill="#231F20"/>
<path d="M35.1655 17.8735V17.457H35.0561L34.9296 17.7428L34.8038 17.457H34.694V17.8735H34.7717V17.5597L34.89 17.8304H34.9705L35.0888 17.5591V17.8735H35.1658H35.1655ZM34.4716 17.8735V17.5283H34.6116V17.4581H34.2539V17.5283H34.3939V17.8735H34.4709H34.4716Z" fill="#F79410"/>
<path d="M22.7346 19.6593H13.2695V2.79297H22.7348L22.7346 19.6593Z" fill="#FF5F00"/>
<path d="M13.87 11.2266C13.87 7.80528 15.4856 4.75754 18.0014 2.79345C16.0971 1.30454 13.7417 0.496459 11.3166 0.500012C5.3426 0.500012 0.5 5.3024 0.5 11.2266C0.5 17.1508 5.3426 21.9532 11.3166 21.9532C13.7418 21.9568 16.0972 21.1487 18.0016 19.6598C15.486 17.696 13.87 14.6481 13.87 11.2266Z" fill="#EB001B"/>
<path d="M35.5024 11.2266C35.5024 17.1508 30.6598 21.9532 24.6859 21.9532C22.2604 21.9567 19.9047 21.1487 18 19.6598C20.5165 17.6957 22.1321 14.6481 22.1321 11.2266C22.1321 7.80511 20.5165 4.75754 18 2.79345C19.9047 1.30459 22.2603 0.496521 24.6857 0.500011C30.6597 0.500011 35.5022 5.3024 35.5022 11.2266" fill="#F79E1B"/>
</g>
<defs>
<clipPath id="clip0_2124_5329">
<rect width="35" height="27" fill="white" transform="translate(0.5 0.5)"/>
</clipPath>
</defs>
</svg>
