<svg width="64" height="12" viewBox="0 0 64 12" fill="none" xmlns="http://www.w3.org/2000/svg">
<path d="M56.0613 5.16582C55.7234 5.40134 55.233 5.51777 54.562 5.51777H54.2707H53.8965L54.4068 2.76182H54.6654H54.8961C55.4531 2.76182 55.86 2.85146 56.1403 3.03341C56.3594 3.1761 56.619 3.45856 56.619 3.99458C56.619 4.64041 56.317 4.98785 56.0613 5.16582ZM16.3644 8.62463H11.2146L11.5474 6.82322H14.7776L15.1447 4.79424H11.9455L12.2548 3.01139H17.3956L16.3644 8.62463ZM58.8355 1.46513C58.0783 0.946082 56.9325 0.68457 55.4303 0.68457H51.496L50.0335 8.62489H44.8796L45.2101 6.82348H48.3151L48.6843 4.80007L45.5812 4.80564L45.9135 3.01192H49.111L49.5365 0.684835H43.0411L41.6529 8.2175H39.2712L40.6694 0.684835H37.2738L35.8856 8.2175H33.5633L34.9629 0.684835H31.5706L30.1045 8.62516H24.914L25.241 6.82375H28.3601L28.7274 4.81201L25.6131 4.80909L25.9439 3.01192H29.177L29.6003 0.684835H9.36435L8.21247 6.97731L5.91774 0.68457H2.39581L0.500244 10.9533H3.86357L5.01067 4.4879L7.23777 10.9533H19.2928L20.7582 3.01166H22.6445L21.1783 10.9533H52.8987L53.8175 5.93975L55.3067 10.9533H58.6719L57.1301 6.8569L57.4821 6.78078C58.2576 6.61475 58.8647 6.25696 59.2859 5.72094C59.7079 5.17988 59.9222 4.48525 59.9222 3.65085C59.9224 2.67907 59.5676 1.96455 58.8355 1.46513Z" fill="#8DC640"/>
<path d="M61.6077 9.73903L62.066 9.71516C62.1631 9.71065 62.2397 9.69607 62.2933 9.67299C62.3469 9.65045 62.3874 9.61597 62.4134 9.56955C62.4394 9.52341 62.4519 9.47487 62.4484 9.42288C62.4445 9.34597 62.4134 9.2847 62.3559 9.23776C62.2981 9.19134 62.2089 9.17225 62.0893 9.17782L61.5793 9.20381L61.6077 9.73903ZM61.4382 10.6509L61.3557 9.03566L62.0724 8.99959C62.2156 8.99216 62.3251 9.00118 62.4018 9.02664C62.4787 9.05157 62.5405 9.09984 62.5893 9.17119C62.6378 9.24227 62.6649 9.3213 62.6683 9.41042C62.6749 9.525 62.6423 9.62313 62.5723 9.70588C62.5023 9.78783 62.3906 9.8438 62.2371 9.87297C62.2946 9.8979 62.3394 9.92177 62.3697 9.94644C62.4352 10.0005 62.4978 10.0695 62.5577 10.1528L62.859 10.5782L62.5927 10.5917L62.362 10.2666C62.2946 10.1724 62.2394 10.1008 62.1965 10.0515C62.1538 10.0021 62.1153 9.96845 62.0824 9.94936C62.0503 9.93026 62.0159 9.91779 61.9832 9.9109C61.9583 9.90719 61.9188 9.90665 61.8636 9.90957L61.617 9.92204L61.6525 10.64L61.4382 10.6509Z" fill="#8DC640"/>
<path d="M60.7389 9.86959C60.7225 9.53541 60.836 9.21502 61.0601 8.96729C61.2843 8.71904 61.5924 8.57237 61.9272 8.5554C62.6162 8.51959 63.2058 9.0519 63.2414 9.74175C63.2424 9.76297 63.2437 9.78551 63.2437 9.80594C63.2437 10.4679 62.7223 11.0225 62.0542 11.0575C61.3641 11.0925 60.775 10.5597 60.7389 9.86959ZM61.9128 8.29786C61.511 8.31935 61.1397 8.49493 60.87 8.79437C60.6 9.09354 60.4621 9.48077 60.4827 9.88365C60.5262 10.7143 61.2368 11.3554 62.068 11.3137C62.8981 11.2708 63.5405 10.5597 63.4976 9.72902V9.72823C63.4556 8.89727 62.7451 8.25569 61.9128 8.29786Z" fill="#8DC640"/>
</svg>
