<svg width="60" height="16" viewBox="0 0 60 16" fill="none" xmlns="http://www.w3.org/2000/svg">
<path d="M11.297 1.6466C10.6041 0.856787 9.35148 0.518178 7.74909 0.518178H3.0984C2.93978 0.518094 2.78633 0.574627 2.66567 0.677603C2.54502 0.780579 2.46507 0.923236 2.44023 1.0799L0.504616 13.3621C0.495641 13.4191 0.499125 13.4773 0.514827 13.5328C0.53053 13.5883 0.558078 13.6398 0.595574 13.6836C0.633069 13.7274 0.679621 13.7626 0.732022 13.7867C0.784423 13.8108 0.841427 13.8233 0.899107 13.8232H3.77024L4.49133 9.24955L4.46898 9.39278C4.49335 9.23642 4.57276 9.09391 4.6929 8.99092C4.81304 8.88793 4.96601 8.83123 5.12426 8.83105H6.48863C9.16893 8.83105 11.2676 7.74237 11.8807 4.59307C11.8989 4.49993 11.9146 4.40927 11.9283 4.32069C12.1104 3.15667 11.9271 2.36438 11.2974 1.64701" fill="#003087"/>
<path d="M46.4476 7.49217C46.2721 8.64459 45.392 8.64459 44.541 8.64459H44.0566L44.3965 6.4929C44.4172 6.36292 44.529 6.2673 44.6606 6.2673H44.8829C45.4624 6.2673 46.0096 6.2673 46.292 6.59722C46.4604 6.79467 46.5113 7.08774 46.4476 7.49217ZM46.0771 4.48526H42.8665C42.7602 4.48531 42.6574 4.52327 42.5765 4.5923C42.4956 4.66134 42.442 4.75695 42.4253 4.86195L41.128 13.0941C41.122 13.1323 41.1244 13.1713 41.1349 13.2084C41.1454 13.2456 41.1638 13.2801 41.1889 13.3094C41.214 13.3388 41.2452 13.3624 41.2802 13.3786C41.3153 13.3948 41.3534 13.4032 41.3921 13.4033H43.0396C43.1932 13.4033 43.324 13.2916 43.348 13.1401L43.7164 10.8054C43.7503 10.5889 43.9374 10.4287 44.1568 10.4287H45.1726C47.2879 10.4287 48.5082 9.40584 48.827 7.37709C48.9706 6.49042 48.8328 5.79333 48.4176 5.30529C47.961 4.76881 47.1517 4.48485 46.0775 4.48485" fill="#009CDE"/>
<path d="M23.5492 7.49152C23.3737 8.64395 22.4937 8.64395 21.6422 8.64395H21.1579L21.4977 6.49225C21.5184 6.36227 21.6302 6.26665 21.7618 6.26665H21.9841C22.5636 6.26665 23.1109 6.26665 23.3932 6.59657C23.5621 6.79402 23.613 7.08709 23.5492 7.49152ZM23.1787 4.48461H19.9682C19.7488 4.48461 19.5617 4.6444 19.5273 4.8613L18.2296 13.0935C18.2236 13.1316 18.2259 13.1707 18.2364 13.2079C18.2469 13.2451 18.2653 13.2795 18.2904 13.3089C18.3155 13.3383 18.3467 13.3619 18.3818 13.3781C18.4169 13.3943 18.4551 13.4027 18.4937 13.4027H20.027C20.2464 13.4027 20.433 13.2429 20.4674 13.026L20.818 10.8052C20.852 10.5883 21.0391 10.4285 21.2585 10.4285H22.2743C24.3895 10.4285 25.6099 9.40519 25.9286 7.37644C26.0722 6.48977 25.9344 5.79268 25.5192 5.30464C25.0626 4.76817 24.2534 4.4842 23.1792 4.4842L23.1787 4.48461ZM30.6327 10.4471C30.4837 11.3255 29.787 11.9154 28.8974 11.9154C28.4516 11.9154 28.0944 11.7717 27.865 11.5002C27.6374 11.2311 27.5521 10.8474 27.6241 10.4206C27.7624 9.54966 28.4711 8.94116 29.347 8.94116C29.7837 8.94116 30.1376 9.08604 30.3719 9.36007C30.6074 9.63617 30.7002 10.022 30.6327 10.4471ZM32.7753 7.45426H31.2379C31.174 7.45419 31.1121 7.47697 31.0635 7.51849C31.015 7.56002 30.9828 7.61755 30.9729 7.68069L30.9059 8.11037L30.7983 7.95473C30.4654 7.47165 29.7232 7.3098 28.9823 7.3098C27.2839 7.3098 25.833 8.59717 25.5507 10.402C25.4037 11.3031 25.6123 12.1637 26.1231 12.7644C26.5921 13.3162 27.2615 13.5459 28.0592 13.5459C29.4285 13.5459 30.1877 12.6667 30.1877 12.6667L30.119 13.0939C30.1129 13.1321 30.1152 13.1711 30.1258 13.2084C30.1363 13.2456 30.1547 13.2801 30.1799 13.3095C30.205 13.3389 30.2363 13.3625 30.2714 13.3786C30.3066 13.3948 30.3448 13.4031 30.3835 13.4031H31.7677C31.9871 13.4031 32.1742 13.2437 32.2086 13.0264L33.0398 7.7639C33.0458 7.72566 33.0434 7.68659 33.0328 7.64936C33.0222 7.61213 33.0037 7.57764 32.9786 7.54825C32.9534 7.51886 32.9221 7.49528 32.887 7.47913C32.8518 7.46297 32.8135 7.45463 32.7749 7.45468" fill="#003087"/>
<path d="M53.5301 10.4471C53.3811 11.3255 52.6844 11.9154 51.7948 11.9154C51.349 11.9154 50.9918 11.7717 50.7625 11.5002C50.5348 11.2311 50.4495 10.8474 50.5215 10.4206C50.6598 9.54966 51.3681 8.94116 52.2444 8.94116C52.6811 8.94116 53.035 9.08604 53.2693 9.36007C53.5049 9.63617 53.5976 10.022 53.5301 10.4471ZM55.6727 7.45426H54.1353C54.0714 7.45419 54.0095 7.47697 53.961 7.51849C53.9124 7.56002 53.8802 7.61755 53.8704 7.68069L53.8033 8.11037L53.6957 7.95473C53.3629 7.47165 52.6207 7.3098 51.8797 7.3098C50.1817 7.3098 48.7308 8.59717 48.4481 10.402C48.3011 11.3031 48.5102 12.1637 49.021 12.7644C49.49 13.3162 50.1593 13.5459 50.957 13.5459C52.3268 13.5459 53.0859 12.6667 53.0859 12.6667L53.0172 13.0939C53.011 13.132 53.0132 13.1711 53.0236 13.2083C53.0341 13.2455 53.0524 13.2801 53.0775 13.3095C53.1026 13.3389 53.1338 13.3625 53.1689 13.3787C53.204 13.3948 53.2422 13.4032 53.2809 13.4031H54.6647C54.8841 13.4031 55.0712 13.2437 55.106 13.0264L55.9372 7.7639C55.9432 7.72566 55.9408 7.68659 55.9302 7.64936C55.9197 7.61213 55.9012 7.57764 55.876 7.54825C55.8508 7.51886 55.8196 7.49528 55.7844 7.47913C55.7492 7.46297 55.711 7.45463 55.6723 7.45468" fill="#009CDE"/>
<path d="M40.9603 7.4545H39.4146C39.2668 7.4545 39.129 7.52776 39.0462 7.65029L36.9143 10.7897L36.0107 7.77282C35.9831 7.6808 35.9266 7.60011 35.8496 7.5427C35.7726 7.4853 35.6792 7.45422 35.5831 7.45408H34.0643C34.0217 7.4541 33.9798 7.46428 33.9419 7.48377C33.904 7.50326 33.8714 7.5315 33.8466 7.56614C33.8218 7.60079 33.8057 7.64084 33.7995 7.68297C33.7933 7.72511 33.7972 7.76811 33.811 7.80842L35.5123 12.8031L33.912 15.0612C33.8837 15.1013 33.867 15.1483 33.8636 15.1973C33.8603 15.2462 33.8704 15.2951 33.893 15.3387C33.9155 15.3823 33.9496 15.4188 33.9915 15.4443C34.0334 15.4698 34.0815 15.4833 34.1306 15.4834H35.6746C35.8203 15.4834 35.9573 15.4118 36.0409 15.2917L41.1796 7.87465C41.2075 7.83456 41.2239 7.78759 41.227 7.73884C41.2301 7.69009 41.2198 7.64143 41.1972 7.59813C41.1746 7.55483 41.1405 7.51855 41.0988 7.49323C41.057 7.46791 41.0091 7.45451 40.9603 7.4545Z" fill="#003087"/>
<path d="M57.485 4.71128L56.167 13.0941C56.1611 13.1323 56.1634 13.1713 56.174 13.2085C56.1845 13.2457 56.203 13.2802 56.2281 13.3096C56.2533 13.339 56.2845 13.3626 56.3196 13.3787C56.3547 13.3949 56.3929 13.4033 56.4316 13.4033H57.7566C57.976 13.4033 58.1631 13.2435 58.1974 13.0266L59.4968 4.79406C59.5029 4.75585 59.5006 4.71679 59.49 4.67956C59.4795 4.64233 59.4611 4.60783 59.4359 4.57843C59.4108 4.54903 59.3795 4.52544 59.3444 4.50929C59.3092 4.49313 59.271 4.48479 59.2323 4.48485H57.7496C57.6857 4.48469 57.624 4.50739 57.5754 4.54886C57.5269 4.59032 57.4948 4.64779 57.485 4.71086" fill="#009CDE"/>
<path d="M11.297 1.6466C10.6041 0.856787 9.35148 0.518178 7.74909 0.518178H3.0984C2.93978 0.518094 2.78633 0.574627 2.66567 0.677603C2.54502 0.780579 2.46507 0.923236 2.44023 1.0799L0.504616 13.3621C0.495641 13.4191 0.499125 13.4773 0.514827 13.5328C0.53053 13.5883 0.558078 13.6398 0.595574 13.6836C0.633069 13.7274 0.679621 13.7626 0.732022 13.7867C0.784423 13.8108 0.841427 13.8233 0.899107 13.8232H3.77024L4.49133 9.24955L4.46898 9.39278C4.49335 9.23642 4.57276 9.09391 4.6929 8.99092C4.81304 8.88793 4.96601 8.83123 5.12426 8.83105H6.48863C9.16893 8.83105 11.2676 7.74237 11.8807 4.59307C11.8989 4.49993 11.9146 4.40927 11.9283 4.32069C12.1104 3.15667 11.9271 2.36438 11.2974 1.64701" fill="#003087"/>
<path d="M5.26631 4.33642C5.28806 4.19953 5.3579 4.07487 5.46327 3.98482C5.56865 3.89477 5.70267 3.84522 5.84128 3.84507H9.48732C9.91906 3.84507 10.3218 3.87322 10.6898 3.932C10.891 3.96436 11.0901 4.00888 11.2859 4.06529C11.5083 4.12781 11.7235 4.21355 11.9279 4.32111C12.1109 3.15668 11.9271 2.3648 11.2975 1.64701C10.6041 0.857618 9.35196 0.519009 7.74957 0.519009H3.09847C2.93999 0.519122 2.78674 0.575743 2.66625 0.678702C2.54577 0.781659 2.46594 0.924208 2.44112 1.08074L0.504682 13.3617C0.495646 13.4187 0.49907 13.4769 0.514718 13.5324C0.530366 13.588 0.557867 13.6394 0.595324 13.6833C0.632781 13.7272 0.679305 13.7624 0.731689 13.7866C0.784073 13.8107 0.841072 13.8232 0.898759 13.8232H3.7703L4.4914 9.24914L5.26631 4.33642Z" fill="#003087"/>
<path d="M11.9272 4.32051C11.913 4.41158 11.8971 4.50239 11.8796 4.59288C11.2666 7.74177 9.16784 8.83087 6.48754 8.83087H5.12276C4.96454 8.83098 4.81158 8.88766 4.69149 8.99067C4.5714 9.09368 4.49209 9.23624 4.4679 9.39259L3.76916 13.8226L3.57046 15.0794C3.56256 15.1293 3.56557 15.1803 3.57929 15.2289C3.59301 15.2775 3.61711 15.3226 3.64993 15.361C3.68274 15.3994 3.7235 15.4302 3.76938 15.4514C3.81526 15.4725 3.86518 15.4834 3.91569 15.4834H6.33604C6.62249 15.4834 6.86589 15.2748 6.91101 14.992L6.9346 14.8687L7.39077 11.9777L7.41975 11.8179C7.44144 11.6809 7.51131 11.5561 7.61679 11.4661C7.72227 11.376 7.85643 11.3265 7.99513 11.3266H8.35734C10.7019 11.3266 12.5378 10.3745 13.0743 7.61925C13.2978 6.46848 13.1819 5.50688 12.5899 4.83173C12.402 4.62242 12.1774 4.44917 11.9272 4.32051Z" fill="#009CDE"/>
<path d="M11.2858 4.06607C11.1922 4.03833 11.0958 4.0135 10.9964 3.99156C10.8971 3.96962 10.7944 3.95016 10.6893 3.9336C10.3209 3.87358 9.91852 3.84543 9.48636 3.84543H5.84074C5.70197 3.84526 5.56773 3.89475 5.46227 3.98494C5.35682 4.07514 5.28712 4.20009 5.26577 4.3372L4.49086 9.25074L4.46851 9.39355C4.4927 9.2372 4.57201 9.09464 4.6921 8.99163C4.81219 8.88862 4.96515 8.83194 5.12337 8.83183H6.48815C9.16845 8.83183 11.2672 7.74315 11.8802 4.59385C11.8984 4.50071 11.9137 4.41047 11.9278 4.32147C11.7659 4.23676 11.5973 4.16559 11.4236 4.1087C11.3785 4.0938 11.3326 4.07973 11.2858 4.06565" fill="#012169"/>
</svg>
