<svg width="54" height="18" viewBox="0 0 54 18" fill="none" xmlns="http://www.w3.org/2000/svg">
<path fill-rule="evenodd" clip-rule="evenodd" d="M38.7494 4.41939C39.9724 4.41939 40.9636 3.45823 40.9636 2.273C40.9636 1.08708 39.9724 0.125 38.7494 0.125C37.5279 0.125 36.5371 1.08708 36.5371 2.273C36.5371 3.45823 37.5279 4.41939 38.7494 4.41939ZM21.7913 5.57854C21.6913 5.822 20.9722 7.79254 19.233 9.83485V1.10231L14.599 1.99077V17.8195H19.233V12.9267C20.5752 14.8795 21.2379 17.8195 21.2379 17.8195H26.7885C26.2395 15.6052 23.8378 11.5225 23.8378 11.5225C25.9933 8.87139 26.94 6.04654 27.0906 5.57854H21.7913ZM33.9738 5.41331C29.8232 5.54254 27.7163 7.349 27.7163 10.94V17.8195H32.2444V12.2095C32.2444 10.0592 32.5346 9.13746 35.1649 9.04954V5.47631C34.7222 5.38515 33.9738 5.41331 33.9738 5.41331ZM6.82731 7.32154C6.25972 7.28531 4.94564 7.20292 4.94564 6.05531C4.94564 4.67046 6.83754 4.67046 7.54715 4.67046C8.79486 4.67046 10.4108 5.02815 11.5648 5.363C11.5648 5.363 12.2085 5.58315 12.7564 5.80862L12.8073 5.822V2.02931L12.7373 2.00923C11.3754 1.547 9.79184 1.10231 6.85586 1.10231C1.79366 1.10231 0 3.96315 0 6.41392C0 7.82669 0.624211 11.1516 6.42172 11.5352C6.91319 11.5645 8.21751 11.6374 8.21751 12.8233C8.21751 13.8025 7.14965 14.3798 5.35361 14.3798C3.38535 14.3798 1.47608 13.8929 0.316388 13.4312V17.3374C2.05248 17.7788 4.00956 17.9995 6.30325 17.9995C11.2529 17.9995 13.4698 15.2928 13.4698 12.6101C13.4698 9.56831 10.9891 7.592 6.82731 7.32154ZM36.5047 17.8195H40.9962V5.59239H36.5047V17.8195ZM49.4535 1.88185V17.8195H53.9458V1.10231L49.4535 1.88185ZM42.8988 1.88185L47.3868 1.10231V17.8195H42.8988V1.88185Z" fill="url(#paint0_linear_2124_5290)"/>
<defs>
<linearGradient id="paint0_linear_2124_5290" x1="14.5891" y1="0.125" x2="18.4107" y2="22.2123" gradientUnits="userSpaceOnUse">
<stop stop-color="#6B195F"/>
<stop offset="1" stop-color="#4C255B"/>
</linearGradient>
</defs>
</svg>
