<svg width="60" height="20" viewBox="0 0 60 20" fill="none" xmlns="http://www.w3.org/2000/svg">
<path fill-rule="evenodd" clip-rule="evenodd" d="M36.9112 11.5341C36.9112 12.2222 36.9112 12.9104 36.9112 13.5985C36.9112 13.876 36.8557 14.1535 36.7336 14.4087C36.5006 14.9526 36.0788 15.2411 35.4795 15.2744C35.4351 15.2744 35.3907 15.2744 35.3574 15.2744C34.3807 15.2744 33.4151 15.2744 32.4384 15.2744C32.2497 15.2744 32.061 15.2522 31.8834 15.2189C31.273 15.0858 30.8956 14.6862 30.7513 14.0758C30.7069 13.876 30.6736 13.6651 30.6736 13.4542C30.6625 12.1446 30.6736 10.846 30.6736 9.53631C30.6736 9.42532 30.6958 9.31434 30.718 9.21445C30.7846 8.99247 30.9289 8.89258 31.1509 8.89258C31.4173 8.89258 31.6836 8.89258 31.95 8.89258C32.2164 8.89258 32.4717 8.89258 32.738 8.89258C32.8379 8.89258 32.9378 8.91478 33.0266 8.94807C33.2375 9.02576 33.3485 9.20335 33.3485 9.43642C33.3485 10.4242 33.3485 11.4009 33.3485 12.3887C33.3485 12.4997 33.3596 12.6107 33.3818 12.7106C33.4262 12.9215 33.5704 13.0436 33.7702 13.0547C34.0033 13.0658 34.1809 12.9659 34.2475 12.755C34.2808 12.6551 34.2919 12.5552 34.2919 12.4442C34.2919 11.4675 34.2919 10.4797 34.2919 9.50302C34.2919 9.39203 34.303 9.28104 34.3141 9.18115C34.3363 9.01466 34.4473 8.92587 34.6026 8.90367C34.6581 8.89258 34.7136 8.89258 34.7691 8.89258C35.2686 8.89258 35.7569 8.89258 36.2564 8.89258C36.3341 8.89258 36.4118 8.90367 36.4784 8.91477C36.7003 8.94807 36.8446 9.10346 36.8668 9.32543C36.8779 9.38093 36.8779 9.43642 36.8779 9.50302C36.9223 10.1911 36.9223 10.8571 36.9112 11.5341C36.9112 11.5341 36.9223 11.5341 36.9112 11.5341Z" fill="#090E0D"/>
<path fill-rule="evenodd" clip-rule="evenodd" d="M21.129 6.62891C22.1945 6.62891 23.26 6.62891 24.3144 6.62891C24.4143 6.62891 24.5142 6.64001 24.6141 6.65111C24.7695 6.6844 24.836 6.76209 24.836 6.91748C24.836 7.06176 24.836 7.20605 24.836 7.33924C24.836 7.6944 24.836 8.04956 24.836 8.40473C24.836 8.63781 24.7806 8.6933 24.5475 8.7044C24.2367 8.7155 23.9259 8.7044 23.6263 8.7044C23.3599 8.7044 23.1046 8.7044 22.8382 8.7044C22.816 8.7044 22.7939 8.7044 22.7717 8.7044C22.5608 8.7155 22.5164 8.75989 22.5164 8.97077C22.5164 10.902 22.5164 12.8221 22.5164 14.7533C22.5164 14.8199 22.5164 14.8976 22.5053 14.9642C22.4942 15.0863 22.4276 15.1751 22.3055 15.2084C22.2167 15.2306 22.139 15.2527 22.0502 15.2527C21.7284 15.2638 21.4065 15.2527 21.0846 15.2527C20.7295 15.2527 20.3854 15.2527 20.0302 15.2527C19.9525 15.2527 19.8748 15.2417 19.7972 15.2195C19.6973 15.1973 19.6418 15.1307 19.6196 15.0308C19.6085 14.9642 19.6085 14.8865 19.6085 14.8199C19.6085 12.8998 19.6085 10.9797 19.6085 9.05957C19.6085 9.00407 19.6085 8.93748 19.6085 8.88198C19.5974 8.78209 19.5641 8.7377 19.4642 8.7266C19.4087 8.7155 19.3532 8.7155 19.2977 8.7155C18.7983 8.7155 18.3099 8.7155 17.8104 8.7155C17.7439 8.7155 17.6662 8.7155 17.5996 8.7044C17.4886 8.6822 17.4331 8.62671 17.422 8.51572C17.422 8.47132 17.4109 8.41583 17.4109 8.37143C17.4109 7.92748 17.4109 7.48352 17.4109 7.02847C17.4109 6.7399 17.4997 6.6511 17.7883 6.64001C17.8437 6.64001 17.9103 6.64001 17.9658 6.64001C19.0202 6.62891 20.0746 6.62891 21.129 6.62891Z" fill="#090E0D"/>
<path fill-rule="evenodd" clip-rule="evenodd" d="M56.2237 11.7456C56.3569 11.4126 56.4901 11.0686 56.6344 10.7356C56.812 10.2917 56.9896 9.8588 57.1672 9.41485C57.2337 9.25946 57.3225 9.11518 57.4557 9.01529C57.5445 8.94869 57.6555 8.9043 57.7665 8.9043C58.2437 8.9043 58.721 8.9043 59.2094 8.9043C59.2981 8.9043 59.3869 8.9154 59.4646 8.9376C59.5867 8.97089 59.6311 9.05968 59.5978 9.18177C59.5867 9.23726 59.5645 9.29276 59.5423 9.34825C58.4435 11.9343 57.3447 14.5203 56.2459 17.0953C56.1905 17.2285 56.1128 17.3506 56.0129 17.4615C55.9019 17.5725 55.7687 17.628 55.6133 17.628C55.1915 17.628 54.7809 17.628 54.3591 17.628C54.2814 17.628 54.2037 17.6169 54.1372 17.6058C53.9485 17.5725 53.8819 17.4726 53.9374 17.2951C53.9485 17.2396 53.9707 17.1952 53.9929 17.1397C54.2592 16.4959 54.5367 15.8522 54.8142 15.2085C54.8475 15.1308 54.8475 15.0753 54.8142 14.9976C54.0595 13.133 53.3047 11.2684 52.55 9.40375C52.5278 9.34825 52.5056 9.29276 52.4945 9.23726C52.4501 9.07078 52.5167 8.95979 52.6943 8.9265C52.772 8.9154 52.8386 8.9043 52.9163 8.9043C53.5267 8.9043 54.1372 8.9043 54.7587 8.9043C54.9252 8.9043 55.0695 8.95979 55.1805 9.08188C55.2803 9.18177 55.3469 9.30386 55.3913 9.42595C55.6466 10.1585 55.9019 10.891 56.1683 11.6124C56.1793 11.6568 56.2016 11.6901 56.2126 11.7345C56.2016 11.7456 56.2126 11.7456 56.2237 11.7456Z" fill="#090E0D"/>
<path fill-rule="evenodd" clip-rule="evenodd" d="M40.6642 15.4408C39.7652 15.4186 39.0327 15.352 38.3002 15.1633C38.2225 15.1411 38.1448 15.1078 38.056 15.0967C37.9783 15.0745 37.945 15.0301 37.9228 14.9524C37.8673 14.686 37.8562 14.4197 37.8562 14.1533C37.8562 13.9979 37.8784 13.8425 37.9006 13.6982C37.9006 13.6649 37.9117 13.6316 37.9228 13.5983C37.9783 13.4097 38.0227 13.3875 38.2114 13.4319C38.7996 13.5872 39.41 13.6316 40.0205 13.6094C40.1315 13.6094 40.2314 13.5872 40.3424 13.565C40.3978 13.5539 40.4644 13.5207 40.5088 13.4874C40.6198 13.3986 40.6198 13.2654 40.5199 13.1766C40.4533 13.1211 40.3756 13.0656 40.2869 13.0323C40.1426 12.9546 39.9872 12.8991 39.8318 12.8325C39.5765 12.7104 39.3213 12.5994 39.066 12.4552C38.7996 12.3109 38.5665 12.1333 38.3889 11.8891C37.9672 11.3231 37.8673 10.7126 38.1226 10.0467C38.2336 9.73593 38.4666 9.50285 38.733 9.32527C39.0882 9.07 39.4988 8.92571 39.9206 8.82582C40.4311 8.71483 40.9417 8.69263 41.4633 8.70373C41.8518 8.71483 42.2403 8.72593 42.6176 8.80362C42.7064 8.82582 42.7952 8.85912 42.884 8.87022C42.9728 8.89241 43.0172 8.94791 43.0283 9.0367C43.0283 9.19208 43.0394 9.34747 43.0283 9.50285C43.0061 9.72483 42.9617 9.93571 42.884 10.1466C42.8729 10.1799 42.8618 10.2132 42.8507 10.2354C42.7508 10.4463 42.6953 10.4685 42.4733 10.4463C42.1293 10.4019 41.7741 10.3575 41.43 10.3242C41.3191 10.3131 41.2081 10.3242 41.1082 10.3242C41.0416 10.3242 40.975 10.3464 40.9084 10.3575C40.8196 10.3797 40.753 10.4352 40.7419 10.535C40.7308 10.6349 40.7863 10.6793 40.8529 10.7237C40.9639 10.7903 41.0749 10.8569 41.1859 10.9124C41.4411 11.0456 41.7075 11.1566 41.9628 11.2898C42.2736 11.4563 42.551 11.6449 42.7952 11.9002C43.2392 12.3442 43.4389 12.888 43.3945 13.5096C43.3835 13.6871 43.3502 13.8758 43.3058 14.0534C43.1726 14.5085 42.884 14.8414 42.4733 15.0745C42.1515 15.2521 41.7963 15.352 41.43 15.3964C41.1304 15.4186 40.8307 15.4297 40.6642 15.4408Z" fill="#090E0D"/>
<path fill-rule="evenodd" clip-rule="evenodd" d="M44.6473 10.6353C44.5474 10.6353 44.4586 10.6353 44.3588 10.6353C44.2922 10.6353 44.2367 10.6353 44.1701 10.6242C44.0591 10.6131 43.9814 10.5465 43.9481 10.4466C43.9259 10.38 43.9148 10.3134 43.9148 10.2468C43.9148 9.92496 43.9148 9.61419 43.9148 9.29232C43.9148 9.28122 43.9148 9.25902 43.9148 9.23683C43.937 9.02595 44.048 8.91496 44.2478 8.90386C44.3698 8.89276 44.503 8.90386 44.6251 8.90386C44.6695 8.90386 44.7139 8.90386 44.7694 8.90386C44.7694 8.85946 44.7805 8.81507 44.7805 8.77067C44.7805 8.5487 44.7805 8.32672 44.7805 8.10474C44.7805 7.91606 44.8582 7.77177 45.0247 7.69408C45.1135 7.64968 45.2134 7.60529 45.3133 7.58309C45.8016 7.4943 46.3011 7.41661 46.7894 7.33892C46.856 7.32782 46.9226 7.33892 46.9892 7.33892C47.0891 7.35002 47.1446 7.41661 47.1557 7.5165C47.1668 7.60529 47.1779 7.69408 47.1779 7.78287C47.1779 8.11584 47.1779 8.4599 47.1779 8.79287C47.1779 8.82617 47.1779 8.84837 47.189 8.89276C47.2223 8.89276 47.2667 8.90386 47.3 8.90386C47.4997 8.90386 47.7106 8.90386 47.9104 8.90386C48.088 8.90386 48.199 8.97045 48.2434 9.14804C48.2767 9.23683 48.2878 9.34782 48.2878 9.43661C48.2989 9.72518 48.2878 10.0026 48.2878 10.2912C48.2878 10.3134 48.2878 10.3467 48.2878 10.3689C48.2767 10.5798 48.199 10.6575 47.9881 10.6575C47.7772 10.6575 47.5663 10.6575 47.3665 10.6575C47.3333 10.6575 47.3 10.6575 47.2667 10.6686C47.2667 10.713 47.2556 10.7574 47.2556 10.8018C47.2556 11.5898 47.2556 12.3778 47.2556 13.1658C47.2556 13.3989 47.3333 13.4988 47.5663 13.5321C47.644 13.5432 47.7217 13.5432 47.7994 13.5432C47.8882 13.5432 47.9104 13.5432 47.9437 13.632C47.977 13.7541 48.0103 13.8762 48.0436 13.9983C48.1102 14.3201 48.1435 14.642 48.1435 14.9639C48.1435 15.0083 48.1435 15.0526 48.1435 15.0859C48.1435 15.1747 48.1102 15.2191 48.0325 15.2413C47.8216 15.2857 47.5996 15.3412 47.3887 15.3745C47.0225 15.43 46.6451 15.4522 46.2678 15.4078C45.846 15.3523 45.4575 15.2191 45.1468 14.9084C44.8693 14.6309 44.7139 14.2868 44.6695 13.8984C44.6473 13.6875 44.6473 13.4655 44.6473 13.2546C44.6473 12.4111 44.6473 11.5676 44.6473 10.7241C44.6473 10.7019 44.6473 10.6797 44.6473 10.6353Z" fill="#090E0D"/>
<path fill-rule="evenodd" clip-rule="evenodd" d="M49.2429 10.9017C49.2429 9.58097 49.2429 8.2713 49.2429 6.95053C49.2429 6.89504 49.2429 6.85064 49.2429 6.79514C49.254 6.62866 49.365 6.51767 49.5315 6.49547C49.5759 6.49547 49.6203 6.48438 49.6647 6.48438C50.1974 6.48438 50.7191 6.48438 51.2518 6.48438C51.3628 6.48438 51.4738 6.49547 51.5737 6.51767C51.7513 6.55097 51.8068 6.62866 51.8179 6.79514C51.8179 6.83954 51.8179 6.88394 51.8179 6.92833C51.8179 9.53657 51.8179 12.1448 51.8179 14.7642C51.8179 14.8307 51.8179 14.8973 51.8068 14.9639C51.7846 15.1415 51.6958 15.2303 51.5293 15.2525C51.4738 15.2636 51.4183 15.2636 51.3628 15.2636C50.7968 15.2636 50.2307 15.2636 49.6647 15.2636C49.587 15.2636 49.4982 15.2636 49.4205 15.2414C49.3206 15.2303 49.2651 15.1637 49.254 15.0638C49.2429 15.0083 49.2429 14.9528 49.2429 14.8973C49.2429 14.1093 49.2429 13.3213 49.2429 12.5333C49.2429 12.0005 49.2429 11.4456 49.2429 10.9017Z" fill="#090E0D"/>
<path fill-rule="evenodd" clip-rule="evenodd" d="M25.2585 12.4102C25.2585 11.7332 25.2585 11.0561 25.2585 10.368C25.2585 10.2126 25.2696 10.0572 25.3029 9.91296C25.3695 9.5356 25.5915 9.26923 25.9467 9.10275C26.1798 9.00286 26.4239 8.94736 26.6681 8.93626C26.9567 8.92516 27.2563 8.91406 27.5449 8.91406C28.233 8.91406 28.9212 8.91406 29.6093 8.91406C29.6204 8.91406 29.6426 8.91406 29.6648 8.91406C29.8646 8.91406 29.9201 8.96956 29.9201 9.16934C29.9201 9.5911 29.9201 10.024 29.9201 10.4457C29.9201 10.479 29.9201 10.5012 29.9201 10.5345C29.909 10.6566 29.8313 10.7343 29.7092 10.7454C29.6093 10.7565 29.5205 10.7565 29.4206 10.7565C29.2098 10.7676 28.9989 10.7898 28.788 10.812C28.6104 10.8342 28.455 10.9008 28.2996 10.9896C28.0333 11.1449 27.889 11.378 27.8668 11.6777C27.8668 11.7443 27.8668 11.822 27.8668 11.8886C27.8668 12.832 27.8668 13.7754 27.8668 14.7188C27.8668 14.8076 27.8557 14.8964 27.8446 14.9852C27.8113 15.1627 27.7003 15.2626 27.5227 15.2737C27.4894 15.2737 27.4672 15.2737 27.4339 15.2737C26.9012 15.2737 26.3795 15.2737 25.8468 15.2737C25.7691 15.2737 25.6914 15.2626 25.6248 15.2404C25.4361 15.196 25.3251 15.0629 25.2918 14.8742C25.2807 14.7965 25.2696 14.7077 25.2696 14.63C25.2585 13.8864 25.2585 13.1427 25.2585 12.4102Z" fill="#090E0D"/>
<path fill-rule="evenodd" clip-rule="evenodd" d="M12.528 6.62896C12.6057 6.62896 12.6612 6.64006 12.7056 6.64006C13.3382 6.64006 13.9598 6.64006 14.5924 6.64006C14.8144 6.64006 15.0363 6.68445 15.2472 6.78434C15.6357 6.98412 15.7689 7.29489 15.6912 7.70555C15.558 8.37148 15.4026 9.02632 15.2472 9.69225C14.9809 10.8909 14.7145 12.0785 14.4481 13.2772C14.3704 13.6102 14.3038 13.9542 14.2261 14.2872C14.1484 14.6313 13.982 14.9087 13.6601 15.0863C13.4714 15.1973 13.2605 15.2306 13.0496 15.2417C12.9276 15.2528 12.7944 15.2417 12.6723 15.2417C9.47581 15.2417 6.27932 15.2417 3.09394 15.2417C2.82756 15.2417 2.57229 15.1862 2.35031 15.0308C2.10614 14.8643 1.96185 14.6313 1.89526 14.3538C1.79537 13.9209 1.69548 13.4881 1.59559 13.0552C1.24042 11.457 0.874159 9.85874 0.518995 8.2494C0.474599 8.07181 0.430204 7.89423 0.408006 7.71665C0.385808 7.58346 0.385808 7.45028 0.408006 7.31709C0.441302 7.09511 0.585588 6.93973 0.77427 6.81764C0.996248 6.68445 1.25152 6.62896 1.5068 6.62896C2.12834 6.62896 2.76097 6.62896 3.38251 6.62896C3.57119 6.62896 3.57119 6.62896 3.57119 6.44028C3.57119 6.06292 3.57119 5.68555 3.57119 5.31929C3.56009 3.2438 5.00295 1.44577 7.02295 0.957423C7.5224 0.835336 8.02185 0.813137 8.5324 0.868632C9.39811 0.957423 10.1639 1.27929 10.841 1.82314C11.6623 2.48907 12.195 3.34369 12.4281 4.37588C12.4947 4.67555 12.528 4.98632 12.528 5.29709C12.528 5.68555 12.528 6.07401 12.528 6.46247C12.528 6.51797 12.528 6.56236 12.528 6.62896ZM8.04405 6.64006C8.94306 6.64006 9.85317 6.64006 10.7522 6.64006C10.7855 6.64006 10.8299 6.64006 10.8632 6.64006C10.9409 6.64006 10.952 6.62896 10.9631 6.54017C10.9631 6.50687 10.9631 6.47357 10.9631 6.44028C10.9631 6.05182 10.9631 5.66336 10.9631 5.27489C10.9631 5.07511 10.952 4.88643 10.9187 4.68665C10.7966 3.98742 10.4636 3.39918 9.90866 2.95522C9.26493 2.42248 8.5213 2.2116 7.68888 2.30039C7.25603 2.34479 6.85647 2.48907 6.5013 2.72215C5.61339 3.29929 5.15833 4.13171 5.12504 5.1861C5.11394 5.60786 5.12504 6.02962 5.12504 6.45138C5.12504 6.62896 5.12504 6.62896 5.30262 6.62896C6.22383 6.64006 7.13394 6.64006 8.04405 6.64006ZM8.04405 8.43808C8.04405 8.43808 8.04405 8.44918 8.04405 8.43808C7.4669 8.43808 6.88976 8.43808 6.31262 8.43808C6.12394 8.43808 6.05734 8.50467 6.05734 8.69335C6.05734 8.89313 6.05734 9.09291 6.05734 9.29269C6.05734 9.53687 6.09064 9.57016 6.33482 9.58126C6.5568 9.58126 6.77877 9.58126 7.00075 9.58126C7.21163 9.58126 7.21163 9.58126 7.21163 9.79214C7.21163 10.7466 7.21163 11.7012 7.21163 12.6557C7.21163 12.7112 7.21163 12.7777 7.22273 12.8332C7.24493 12.9664 7.28932 13.0219 7.42251 13.0219C7.77767 13.033 8.12174 13.033 8.4769 13.033C8.5213 13.033 8.5657 13.033 8.61009 13.0219C8.70998 13.0108 8.76547 12.9553 8.78767 12.8554C8.79877 12.7999 8.79877 12.7444 8.79877 12.6779C8.79877 11.7012 8.79877 10.7355 8.79877 9.75885C8.79877 9.59236 8.79877 9.58126 8.97635 9.58126C9.23163 9.58126 9.4869 9.58126 9.74218 9.58126C9.79767 9.58126 9.85317 9.57017 9.91976 9.55907C9.97525 9.54797 10.0086 9.51467 10.0197 9.45918C10.0307 9.42588 10.0307 9.38148 10.0307 9.34819C10.0307 9.12621 10.0307 8.91533 10.0307 8.69335C10.0307 8.49357 9.96416 8.43808 9.77548 8.43808C9.74218 8.43808 9.70888 8.43808 9.67558 8.43808C9.12064 8.43808 8.58789 8.43808 8.04405 8.43808Z" fill="#87BD5C"/>
<path fill-rule="evenodd" clip-rule="evenodd" d="M9.3215 17.3735C9.2993 16.4523 10.0984 15.6199 11.0973 15.631C12.0407 15.6421 12.8398 16.4301 12.8398 17.4068C12.8287 18.3835 12.0185 19.1826 11.0307 19.1604C10.1317 19.1382 9.2993 18.3724 9.3215 17.3735Z" fill="#87BD5C"/>
<path fill-rule="evenodd" clip-rule="evenodd" d="M6.78799 17.3944C6.81019 18.3489 5.99997 19.1591 5.02327 19.1591C4.04657 19.1591 3.25854 18.3489 3.25854 17.3944C3.25854 16.4177 4.07986 15.6296 5.02327 15.6407C5.97778 15.6296 6.79909 16.4177 6.78799 17.3944Z" fill="#87BD5C"/>
</svg>
