<svg width="41" height="14" viewBox="0 0 41 14" fill="none" xmlns="http://www.w3.org/2000/svg">
<path d="M18.7663 13.4719H15.5992L17.5786 0.973332H20.7459L18.7663 13.4719ZM12.9349 0.973332L9.91565 9.56993L9.55837 7.71875L9.5587 7.71942L8.49305 2.09868C8.49305 2.09868 8.36419 0.973332 6.99072 0.973332H1.99924L1.94067 1.18496C1.94067 1.18496 3.46708 1.51127 5.25347 2.61355L8.00496 13.4722H11.3047L16.3434 0.973332H12.9349ZM37.8452 13.4719H40.7532L38.2177 0.972997H35.6719C34.4962 0.972997 34.2099 1.90444 34.2099 1.90444L29.4865 13.4719H32.7879L33.4482 11.6154H37.4742L37.8452 13.4719ZM34.3602 9.05072L36.0243 4.37346L36.9604 9.05072H34.3602ZM29.7342 3.97895L30.1861 1.29496C30.1861 1.29496 28.7915 0.75 27.3377 0.75C25.766 0.75 22.0338 1.45577 22.0338 4.88766C22.0338 8.11661 26.4142 8.15673 26.4142 9.85278C26.4142 11.5488 22.4851 11.2449 21.1885 10.1754L20.7176 12.9818C20.7176 12.9818 22.1318 13.6875 24.2923 13.6875C26.4536 13.6875 29.714 12.5378 29.714 9.40845C29.714 6.15877 25.2942 5.85621 25.2942 4.44333C25.2945 3.03012 28.3789 3.21166 29.7342 3.97895Z" fill="#2566AF"/>
<path d="M9.61187 7.9375L8.57401 2.1875C8.57401 2.1875 8.29563 0.75 6.78218 0.75H1.57868H0.87915C0.87915 0.75 3.57853 1.58573 6.1142 3.625C8.53872 5.57415 9.61187 7.9375 9.61187 7.9375Z" fill="#E6A540"/>
</svg>
