<svg width="111" height="19" viewBox="0 0 111 19" fill="none" xmlns="http://www.w3.org/2000/svg">
<g clip-path="url(#clip0_1921_52021)">
<path d="M18.4958 6.79665L12.6549 5.90444L10.0369 0.327938C9.84133 -0.0884792 9.15812 -0.0884792 8.96258 0.327938L6.34533 5.90444L0.50441 6.79665C0.0246598 6.87027 -0.166924 7.45373 0.169535 7.7981L4.41287 12.1475L3.40983 18.2964C3.32987 18.7849 3.85158 19.1514 4.28304 18.9115L9.50012 16.0283L14.7172 18.9123C15.1447 19.1498 15.6712 18.7904 15.5904 18.2972L14.5874 12.1483L18.8307 7.7989C19.1672 7.45373 18.9748 6.87027 18.4958 6.79665Z" fill="#FECC41"/>
</g>
<g clip-path="url(#clip1_1921_52021)">
<path d="M41.4958 6.79665L35.6549 5.90444L33.0369 0.327938C32.8413 -0.0884792 32.1581 -0.0884792 31.9626 0.327938L29.3453 5.90444L23.5044 6.79665C23.0247 6.87027 22.8331 7.45373 23.1695 7.7981L27.4129 12.1475L26.4098 18.2964C26.3299 18.7849 26.8516 19.1514 27.283 18.9115L32.5001 16.0283L37.7172 18.9123C38.1447 19.1498 38.6712 18.7904 38.5904 18.2972L37.5874 12.1483L41.8307 7.7989C42.1672 7.45373 41.9748 6.87027 41.4958 6.79665Z" fill="#FECC41"/>
</g>
<g clip-path="url(#clip2_1921_52021)">
<path d="M64.4958 6.79665L58.6549 5.90444L56.0369 0.327938C55.8413 -0.0884792 55.1581 -0.0884792 54.9626 0.327938L52.3453 5.90444L46.5044 6.79665C46.0247 6.87027 45.8331 7.45373 46.1695 7.7981L50.4129 12.1475L49.4098 18.2964C49.3299 18.7849 49.8516 19.1514 50.283 18.9115L55.5001 16.0283L60.7172 18.9123C61.1447 19.1498 61.6712 18.7904 61.5904 18.2972L60.5874 12.1483L64.8307 7.7989C65.1672 7.45373 64.9748 6.87027 64.4958 6.79665Z" fill="#FECC41"/>
</g>
<g clip-path="url(#clip3_1921_52021)">
<path d="M87.4958 6.79665L81.6549 5.90444L79.0369 0.327938C78.8413 -0.0884792 78.1581 -0.0884792 77.9626 0.327938L75.3453 5.90444L69.5044 6.79665C69.0247 6.87027 68.8331 7.45373 69.1695 7.7981L73.4129 12.1475L72.4098 18.2964C72.3299 18.7849 72.8516 19.1514 73.283 18.9115L78.5001 16.0283L83.7172 18.9123C84.1447 19.1498 84.6712 18.7904 84.5904 18.2972L83.5874 12.1483L87.8307 7.7989C88.1672 7.45373 87.9748 6.87027 87.4958 6.79665Z" fill="#FECC41"/>
</g>
<g clip-path="url(#clip4_1921_52021)">
<path d="M110.496 6.79665L104.655 5.90444L102.037 0.327938C101.841 -0.0884792 101.158 -0.0884792 100.963 0.327938L98.3453 5.90444L92.5044 6.79665C92.0247 6.87027 91.8331 7.45373 92.1695 7.7981L96.4129 12.1475L95.4098 18.2964C95.3299 18.7849 95.8516 19.1514 96.283 18.9115L101.5 16.0283L106.717 18.9123C107.145 19.1498 107.671 18.7904 107.59 18.2972L106.587 12.1483L110.831 7.7989C111.167 7.45373 110.975 6.87027 110.496 6.79665Z" fill="#FECC41"/>
</g>
<defs>
<clipPath id="clip0_1921_52021">
<rect width="19" height="19" fill="white"/>
</clipPath>
<clipPath id="clip1_1921_52021">
<rect width="19" height="19" fill="white" transform="translate(23)"/>
</clipPath>
<clipPath id="clip2_1921_52021">
<rect width="19" height="19" fill="white" transform="translate(46)"/>
</clipPath>
<clipPath id="clip3_1921_52021">
<rect width="19" height="19" fill="white" transform="translate(69)"/>
</clipPath>
<clipPath id="clip4_1921_52021">
<rect width="19" height="19" fill="white" transform="translate(92)"/>
</clipPath>
</defs>
</svg>
