<svg width="96" height="16" viewBox="0 0 96 16" fill="none" xmlns="http://www.w3.org/2000/svg">
<g clip-path="url(#clip0_1923_55834)">
<path d="M15.5754 5.72303L10.6568 4.9717L8.4521 0.275695C8.28743 -0.0749714 7.7121 -0.0749714 7.54743 0.275695L5.34343 4.9717L0.424766 5.72303C0.0207661 5.78503 -0.140567 6.27636 0.142766 6.56636L3.7161 10.229L2.87143 15.407C2.8041 15.8184 3.24343 16.127 3.60677 15.925L8.0001 13.497L12.3934 15.9257C12.7534 16.1257 13.1968 15.823 13.1288 15.4077L12.2841 10.2297L15.8574 6.56703C16.1408 6.27636 15.9788 5.78503 15.5754 5.72303Z" fill="#FECC41"/>
</g>
<g clip-path="url(#clip1_1923_55834)">
<path d="M35.5754 5.72303L30.6568 4.9717L28.4521 0.275695C28.2874 -0.0749714 27.7121 -0.0749714 27.5474 0.275695L25.3434 4.9717L20.4248 5.72303C20.0208 5.78503 19.8594 6.27636 20.1428 6.56636L23.7161 10.229L22.8714 15.407C22.8041 15.8184 23.2434 16.127 23.6068 15.925L28.0001 13.497L32.3934 15.9257C32.7534 16.1257 33.1968 15.823 33.1288 15.4077L32.2841 10.2297L35.8574 6.56703C36.1408 6.27636 35.9788 5.78503 35.5754 5.72303Z" fill="#FECC41"/>
</g>
<g clip-path="url(#clip2_1923_55834)">
<path d="M55.5754 5.72303L50.6568 4.9717L48.4521 0.275695C48.2874 -0.0749714 47.7121 -0.0749714 47.5474 0.275695L45.3434 4.9717L40.4248 5.72303C40.0208 5.78503 39.8594 6.27636 40.1428 6.56636L43.7161 10.229L42.8714 15.407C42.8041 15.8184 43.2434 16.127 43.6068 15.925L48.0001 13.497L52.3934 15.9257C52.7534 16.1257 53.1968 15.823 53.1288 15.4077L52.2841 10.2297L55.8574 6.56703C56.1408 6.27636 55.9788 5.78503 55.5754 5.72303Z" fill="#FECC41"/>
</g>
<g clip-path="url(#clip3_1923_55834)">
<path d="M75.5987 5.73154L70.6727 4.97909L68.4647 0.276088C68.2998 -0.0751021 67.7236 -0.0751021 67.5587 0.276088L65.3514 4.97909L60.4254 5.73154C60.0208 5.79364 59.8592 6.2857 60.143 6.57613L63.7216 10.2443L62.8757 15.43C62.8083 15.8419 63.2483 16.1511 63.6121 15.9488L68.012 13.5171L72.4119 15.9494C72.7725 16.1497 73.2164 15.8466 73.1483 15.4307L72.3024 10.2449L75.8811 6.5768C76.1648 6.2857 76.0026 5.79364 75.5987 5.73154Z" fill="#FECC41"/>
</g>
<g clip-path="url(#clip4_1923_55834)">
<path d="M95.5987 5.73154L90.6727 4.97909L88.4647 0.276088C88.2998 -0.0751021 87.7236 -0.0751021 87.5587 0.276088L85.3514 4.97909L80.4254 5.73154C80.0208 5.79364 79.8592 6.2857 80.143 6.57613L83.7216 10.2443L82.8757 15.43C82.8083 15.8419 83.2483 16.1511 83.6121 15.9488L88.012 13.5171L92.4119 15.9494C92.7725 16.1497 93.2164 15.8466 93.1483 15.4307L92.3024 10.2449L95.8811 6.5768C96.1648 6.2857 96.0026 5.79364 95.5987 5.73154Z" fill="#2A1E4A"/>
<g clip-path="url(#clip5_1923_55834)">
<path d="M95.5987 5.73154L90.6727 4.97909L88.4647 0.276088C88.2998 -0.0751021 87.7236 -0.0751021 87.5587 0.276088L85.3514 4.97909L80.4254 5.73154C80.0208 5.79364 79.8592 6.2857 80.143 6.57613L83.7216 10.2443L82.8757 15.43C82.8083 15.8419 83.2483 16.1511 83.6121 15.9488L88.012 13.5171L92.4119 15.9494C92.7725 16.1497 93.2164 15.8466 93.1483 15.4307L92.3024 10.2449L95.8811 6.5768C96.1648 6.2857 96.0026 5.79364 95.5987 5.73154Z" fill="#FECC41"/>
</g>
</g>
<defs>
<clipPath id="clip0_1923_55834">
<rect width="16" height="16" fill="white"/>
</clipPath>
<clipPath id="clip1_1923_55834">
<rect width="16" height="16" fill="white" transform="translate(20)"/>
</clipPath>
<clipPath id="clip2_1923_55834">
<rect width="16" height="16" fill="white" transform="translate(40)"/>
</clipPath>
<clipPath id="clip3_1923_55834">
<rect width="16" height="16" fill="white" transform="translate(60)"/>
</clipPath>
<clipPath id="clip4_1923_55834">
<rect width="16" height="16" fill="white" transform="translate(80)"/>
</clipPath>
<clipPath id="clip5_1923_55834">
<rect width="9" height="16" fill="white" transform="translate(80)"/>
</clipPath>
</defs>
</svg>
