<svg width="336" height="232" viewBox="0 0 336 232" fill="none" xmlns="http://www.w3.org/2000/svg">
<path fill-rule="evenodd" clip-rule="evenodd" d="M73.6964 74.2344L75.2664 78.4556C71.919 83.3877 54.4121 92.8521 47.7618 91.4599L45.5401 87.5497C45.5401 87.5497 57.4188 87.1202 73.6964 74.2344Z" fill="url(#paint0_radial_2184_54000)"/>
<path fill-rule="evenodd" clip-rule="evenodd" d="M73.6936 74.2344C73.6936 74.2344 55.5646 75.7895 45.5374 87.5497C52.0395 89.0308 69.8871 80.2181 73.6936 74.2344Z" fill="url(#paint1_radial_2184_54000)"/>
<path opacity="0.2" fill-rule="evenodd" clip-rule="evenodd" d="M70.0981 75.9385C70.0981 75.9385 57.4345 76.7235 47.4813 86.6322C47.4813 86.6322 61.1225 85.0178 70.0981 75.9385Z" fill="#DD4C90"/>
<path fill-rule="evenodd" clip-rule="evenodd" d="M69.4464 76.5754C69.4464 76.5754 55.5682 78.7526 48.1182 86.5434L47.4813 86.6322C50.5176 82.4851 61.4928 76.7679 70.0981 75.9385L69.4464 76.5754Z" fill="url(#paint2_radial_2184_54000)"/>
<path opacity="0.4" fill-rule="evenodd" clip-rule="evenodd" d="M72.7882 75.4365L74.5063 79.4059L72.3883 81.3462L70.4777 77.6138C70.4925 77.6138 72.0625 76.34 72.7882 75.4365Z" fill="#864C90"/>
<path fill-rule="evenodd" clip-rule="evenodd" d="M22.4914 120.09L26.7719 121.497C28.5344 127.184 25.0094 146.78 19.781 151.105L15.3376 150.409C15.3376 150.409 22.4174 140.855 22.4914 120.09Z" fill="url(#paint3_radial_2184_54000)"/>
<path fill-rule="evenodd" clip-rule="evenodd" d="M22.4941 120.09C22.4941 120.09 12.3928 135.227 15.3403 150.409C20.539 146.247 24.7898 126.799 22.4941 120.09Z" fill="url(#paint4_radial_2184_54000)"/>
<path opacity="0.2" fill-rule="evenodd" clip-rule="evenodd" d="M21.5767 123.971C21.5767 123.971 14.3043 134.353 15.8299 148.32C15.8299 148.32 23.0726 136.664 21.5767 123.971Z" fill="#DD4C90"/>
<path fill-rule="evenodd" clip-rule="evenodd" d="M21.6584 124.872C21.6584 124.872 14.6972 137.077 16.1339 147.756L15.808 148.304C14.4602 143.357 16.8448 131.197 21.5548 123.954L21.6584 124.872Z" fill="url(#paint5_radial_2184_54000)"/>
<path opacity="0.4" fill-rule="evenodd" clip-rule="evenodd" d="M22.8614 121.557L27.0382 122.682L27.2307 125.541L23.128 124.711C23.128 124.711 23.1132 122.682 22.8614 121.557Z" fill="#864C90"/>
<path fill-rule="evenodd" clip-rule="evenodd" d="M127.453 128.26L125.217 132.17C119.292 132.762 100.793 125.416 97.5938 119.432L99.1638 115.211C99.1638 115.211 107.117 124.053 127.453 128.26Z" fill="url(#paint6_radial_2184_54000)"/>
<path fill-rule="evenodd" clip-rule="evenodd" d="M127.453 128.257C127.453 128.257 114.627 115.356 99.1638 115.223C102.215 121.147 120.418 129.16 127.453 128.257Z" fill="url(#paint7_radial_2184_54000)"/>
<path opacity="0.2" fill-rule="evenodd" clip-rule="evenodd" d="M123.83 126.583C123.83 126.583 115.106 117.385 101.11 116.111C101.125 116.097 111.107 125.517 123.83 126.583Z" fill="#DD4C90"/>
<path fill-rule="evenodd" clip-rule="evenodd" d="M122.919 126.482C122.919 126.482 112.344 117.225 101.591 116.529L101.117 116.099C106.241 115.759 117.676 120.513 123.837 126.571L122.919 126.482Z" fill="url(#paint8_radial_2184_54000)"/>
<path opacity="0.4" fill-rule="evenodd" clip-rule="evenodd" d="M125.943 128.313L124.002 132.179L121.159 131.809L122.788 127.958C122.803 127.958 124.787 128.343 125.943 128.313Z" fill="#864C90"/>
<path fill-rule="evenodd" clip-rule="evenodd" d="M50.3358 203.333L51.5339 210.222C45.0133 216.812 15.5435 226.328 5.77396 222.319L3.46984 215.706C3.49288 215.706 21.7877 218.425 50.3358 203.333Z" fill="url(#paint9_radial_2184_54000)"/>
<path fill-rule="evenodd" clip-rule="evenodd" d="M50.342 203.337C50.342 203.337 22.1626 200.572 3.49912 215.71C13.0382 219.811 42.8306 211.401 50.342 203.337Z" fill="#FFA945"/>
<path opacity="0.2" fill-rule="evenodd" clip-rule="evenodd" d="M44.343 204.9C44.343 204.9 24.7579 202.527 6.71661 214.854C6.71661 214.854 28.0298 216.26 44.343 204.9Z" fill="#DD4C90"/>
<path fill-rule="evenodd" clip-rule="evenodd" d="M43.168 205.687C43.168 205.687 21.3248 205.065 7.70737 214.88L6.71661 214.834C12.523 209.35 30.956 203.705 44.343 204.88L43.168 205.687Z" fill="url(#paint10_radial_2184_54000)"/>
<path opacity="0.4" fill-rule="evenodd" clip-rule="evenodd" d="M48.6032 204.903L50.1008 211.447L46.3221 213.82L44.4558 207.576C44.4788 207.576 47.2437 206.078 48.6032 204.903Z" fill="#864C90"/>
<path fill-rule="evenodd" clip-rule="evenodd" d="M111.554 244.189L108.005 249.373C99.7105 249.534 74.9411 237.23 71.2314 228.544L73.9042 222.853C73.9042 222.853 83.8811 236.055 111.554 244.189Z" fill="url(#paint11_radial_2184_54000)"/>
<path fill-rule="evenodd" clip-rule="evenodd" d="M111.554 244.189C111.554 244.189 95.3096 224.788 73.9042 222.853C77.4065 231.447 101.692 244.673 111.554 244.189Z" fill="#FFA945"/>
<path opacity="0.2" fill-rule="evenodd" clip-rule="evenodd" d="M106.735 241.474C106.735 241.474 95.7211 227.695 76.4816 224.331C76.4816 224.331 89.2004 238.548 106.735 241.474Z" fill="#DD4C90"/>
<path fill-rule="evenodd" clip-rule="evenodd" d="M105.504 241.243C105.504 241.243 91.9326 227.188 77.117 224.976L76.518 224.331C83.6608 224.446 98.9602 232.349 106.771 241.474L105.504 241.243Z" fill="url(#paint12_radial_2184_54000)"/>
<path d="M242.189 114.852C243.258 118.034 248.72 123.691 253.945 128.641C259.407 133.827 264.513 138.187 264.513 138.187C264.513 138.187 274.369 149.03 276.981 148.087C279.594 147.144 277.219 130.88 277.219 130.88C277.219 130.88 275.675 127.227 275.675 124.988C275.675 122.748 284.462 88.0994 284.462 88.0994C284.462 88.0994 279.119 49.4434 277.338 49.4434C275.675 49.4434 273.063 50.504 273.063 50.504L245.158 71.2463C245.158 71.2463 243.02 86.0959 242.07 98.5884C241.595 105.895 241.358 112.495 242.189 114.852Z" fill="url(#paint13_linear_2184_54000)"/>
<path d="M275.804 124.987C275.804 124.987 268.798 123.101 267.61 116.03C266.423 108.959 278.06 92.3414 278.06 92.3414V90.1022C278.06 90.1022 274.26 79.4953 275.21 72.4241L276.991 67.71L286.728 93.9914C286.847 93.8735 277.585 114.498 275.804 124.987Z" fill="url(#paint14_linear_2184_54000)"/>
<path d="M273.058 49.5723H233.872V115.57H273.058V49.5723Z" fill="#3E1B40"/>
<path opacity="0.5" fill-rule="evenodd" clip-rule="evenodd" d="M270.692 84.9751L245.872 54.2812L233.881 103.676L265.057 109.673L270.692 84.9751Z" fill="#523E7A"/>
<path d="M65.7402 161.874C67.4027 181.084 79.2772 194.402 79.2772 194.402C85.8082 198.998 94.1203 202.887 100.889 205.598C107.657 208.308 112.645 209.841 112.645 209.841L119.532 217.501L125.588 224.219L124.163 216.794L119.651 193.223C119.413 189.216 119.057 185.327 118.701 181.909C117.632 171.302 116.207 164.113 116.207 164.113C111.813 162.11 100.533 163.995 100.533 163.995C83.077 168.002 65.7402 161.874 65.7402 161.874Z" fill="url(#paint15_linear_2184_54000)"/>
<path d="M236.618 126.166L167.033 138.187L158.721 60.8752L188.289 16.3265L209.307 6.42676L237.568 11.1409C237.568 11.1409 251.699 36.833 249.443 67.5929C247.186 98.3527 241.368 121.452 236.618 126.166Z" fill="url(#paint16_linear_2184_54000)"/>
<path d="M182.821 89.3965C182.821 89.3965 187.096 110.139 185.315 124.046C185.315 124.046 210.37 146.909 220.82 146.909C231.27 146.909 225.926 127.11 225.926 127.11C225.926 127.11 215.12 123.574 210.608 118.978C206.096 114.499 205.027 101.771 205.027 101.771L182.821 89.3965Z" fill="url(#paint17_linear_2184_54000)"/>
<path d="M180.68 84.3284C181.036 85.3891 181.273 86.3319 181.511 87.1569C184.005 94.8174 203.954 104.246 215.472 107.899C215.947 108.017 216.422 108.135 216.778 108.253C217.728 108.488 219.034 108.842 220.578 108.96C223.309 109.313 226.278 109.549 227.228 109.196C228.653 108.724 231.621 103.067 235.184 99.6494C238.627 96.2316 246.583 86.8033 246.583 81.1463C246.583 78.3178 245.396 75.2536 244.327 72.3073C243.14 69.4788 242.071 66.7682 241.952 64.6468C241.596 55.1006 245.515 42.726 245.515 39.8975C245.515 39.1904 244.921 36.8333 243.615 33.7691C243.377 33.2977 243.258 32.8263 243.021 32.3549C239.102 23.7515 230.79 10.6698 217.372 6.78058C217.372 6.78058 207.872 4.77707 197.423 7.72341L181.63 29.2907C181.63 29.2907 178.067 56.2792 180.442 66.061C182.817 75.8429 180.68 84.3284 180.68 84.3284Z" fill="url(#paint18_linear_2184_54000)"/>
<path d="M146.84 89.3939L146.959 91.2796L147.315 97.6437V98.8223C148.265 117.915 149.452 137.832 150.165 147.967C150.165 149.028 150.283 149.971 150.283 150.796L150.521 154.685L172.251 132.764V58.2805C172.251 58.2805 194.457 33.4134 198.256 27.5207C200.869 23.5137 205.5 15.8532 208.35 11.3747C209.062 10.314 209.419 9.72476 209.419 9.72476C210.131 8.54622 210.606 7.8391 210.606 7.8391C210.606 7.8391 224.38 9.3712 226.993 11.3747C226.993 11.3747 242.311 23.0422 245.636 39.8953C248.961 56.7484 250.029 94.9331 236.611 126.164H241.005C241.005 126.164 254.067 80.5549 250.148 48.7344C246.111 16.9138 236.017 3.71422 233.643 1.35714C231.268 -0.999938 212.268 3.83207 203.125 5.01061C193.982 6.18915 177.239 7.48554 169.401 11.3747C161.683 15.2639 147.909 44.6095 146.246 53.3307C145.534 56.7484 146.009 71.8337 146.84 89.3939Z" fill="url(#paint19_linear_2184_54000)"/>
<path d="M188.403 40.0137C188.403 40.0137 182.822 54.7454 182.822 66.4129L181.635 67.7093C181.635 67.7093 176.647 62.5238 172.373 58.281L188.403 40.0137Z" fill="url(#paint20_linear_2184_54000)"/>
<path fill-rule="evenodd" clip-rule="evenodd" d="M241.251 124.989L242.676 139.721L243.033 143.257L243.745 150.092L269.631 180.145C269.631 180.145 271.888 181.677 275.094 183.916C283.406 189.573 298.486 199.591 303.474 201.83C310.361 204.894 322.354 207.133 322.354 207.133L276.637 149.385C272.481 147.499 266.9 143.964 261.557 140.31C251.226 133.121 241.251 124.989 241.251 124.989Z" fill="url(#paint21_linear_2184_54000)"/>
<path fill-rule="evenodd" clip-rule="evenodd" d="M264.642 138.186C264.879 138.422 267.017 141.368 270.104 145.493C277.229 155.157 289.341 171.892 292.666 179.199C292.666 179.199 302.284 196.17 314.752 204.184C314.752 204.184 326.627 209.488 332.327 209.488C334.464 209.488 340.045 188.274 331.021 171.421C330.071 169.535 328.883 167.65 327.458 165.882C327.458 165.882 286.135 141.957 277.348 130.997C277.348 130.997 277.466 140.779 275.21 143.136C272.954 145.257 265.117 138.54 264.642 138.186Z" fill="url(#paint22_linear_2184_54000)"/>
<path fill-rule="evenodd" clip-rule="evenodd" d="M30.3566 140.301H25.0131C25.0131 140.301 49.1183 178.132 58.2617 209.481H105.403C105.403 209.481 89.1354 169.646 65.7426 142.186L30.3566 140.301Z" fill="#4D1A4F"/>
<path fill-rule="evenodd" clip-rule="evenodd" d="M76.3141 136.888C76.3141 136.888 105.525 168.591 116.331 191.219L61.3522 192.987C61.3522 192.987 41.1655 150.088 30.241 135.71L76.3141 136.888Z" fill="url(#paint23_linear_2184_54000)"/>
<path fill-rule="evenodd" clip-rule="evenodd" d="M110.034 189.687L114.665 192.987L103.503 206.54L61.4669 204.183L30.3557 143.135V135.71L64.3168 192.987L110.034 189.687Z" fill="url(#paint24_linear_2184_54000)"/>
<path fill-rule="evenodd" clip-rule="evenodd" d="M30.3557 135.71V143.135L61.4669 204.183L103.503 206.54L114.665 192.987L63.6043 195.108C63.6043 195.108 46.2676 155.863 30.3557 135.71Z" fill="url(#paint25_linear_2184_54000)"/>
<path opacity="0.3" fill-rule="evenodd" clip-rule="evenodd" d="M63.6007 195.109L61.4633 204.183L103.499 206.54L114.661 192.987L63.6007 195.109Z" fill="#592963"/>
<path d="M39.2105 140.679L39.1995 141.15L76.9491 142.02L76.9601 141.549L39.2105 140.679Z" fill="#726295"/>
<path d="M83.0862 148.558V148.086L45.4439 146.79L45.3252 147.261L83.0862 148.558Z" fill="#726295"/>
<path d="M105.992 182.616H69.7747V183.088H105.992V182.616Z" fill="#726295"/>
<path opacity="0.6" fill-rule="evenodd" clip-rule="evenodd" d="M109.316 178.844L84.617 161.873L79.8672 153.388L95.4228 159.634C95.4228 159.634 106.466 174.248 109.316 178.844Z" fill="#8B689A"/>
<path d="M116.329 163.994C114.786 157.159 109.798 153.152 109.323 152.681C108.848 152.209 98.8739 153.623 98.8739 153.623L79.9934 145.963C79.9934 145.963 78.5685 150.677 79.9934 153.27C79.9934 153.27 82.7246 157.513 88.0681 158.927C88.0681 158.927 96.499 158.691 101.843 161.52L100.774 163.759C100.655 163.877 117.873 170.948 116.329 163.994Z" fill="url(#paint26_linear_2184_54000)"/>
<path d="M245.403 38.8369L240.297 41.3119L234.597 49.9152C234.597 49.9152 238.278 38.012 243.859 33.6514C243.859 33.6514 245.403 35.4192 245.403 38.8369Z" fill="url(#paint27_linear_2184_54000)"/>
<path d="M218.448 33.0615L214.885 40.1328V38.6007C214.885 38.6007 203.723 39.1899 200.873 40.1328C198.142 41.0756 194.342 43.5505 194.342 43.5505C194.342 43.5505 199.448 37.8935 201.467 36.9507C203.486 36.0079 218.448 33.0615 218.448 33.0615Z" fill="url(#paint28_linear_2184_54000)"/>
<path d="M196.478 55.5644L196.953 58.1571C196.953 58.1571 204.791 64.757 215.596 62.8713C215.596 62.8713 215.715 62.0463 215.953 60.8678C216.309 57.6857 216.665 51.5573 213.815 47.1967C213.815 47.1967 212.39 46.961 210.372 47.0789C208.234 47.1968 205.503 47.5503 203.009 48.9646C198.141 51.6752 196.478 55.5644 196.478 55.5644Z" fill="url(#paint29_linear_2184_54000)"/>
<path d="M232.582 62.0561C232.582 63.5882 235.55 67.5952 237.45 68.3024C239.35 69.0095 241.725 68.3024 241.725 68.3024C241.725 67.9488 241.844 67.4774 241.844 67.1238C242.438 60.0526 242.438 52.5099 242.438 52.5099C242.438 52.5099 241.25 52.3921 239.825 52.6278C238.519 52.8635 237.094 53.3349 235.907 54.3956C234.838 55.4563 232.582 60.524 232.582 62.0561Z" fill="url(#paint30_linear_2184_54000)"/>
<path d="M207.29 53.9225C207.29 58.1653 210.021 61.7009 213.346 61.7009C214.296 61.7009 215.127 61.4652 215.84 60.9938C216.196 57.8117 216.552 51.6833 213.702 47.3227C213.702 47.3227 212.277 47.087 210.258 47.2049C208.596 48.5013 207.29 50.9762 207.29 53.9225Z" fill="url(#paint31_linear_2184_54000)"/>
<path d="M209.427 54.0387C209.427 57.2208 211.445 59.8136 213.939 59.8136C214.651 59.8136 215.245 59.5779 215.839 59.3421C216.076 56.9851 216.314 52.3888 214.295 49.2067C214.295 49.2067 213.227 49.0889 211.802 49.0889C210.377 50.0317 209.427 51.9174 209.427 54.0387Z" fill="#522F30"/>
<path d="M237.922 59.3454C237.922 63.5882 239.584 67.1238 241.722 67.1238H241.841C242.434 60.0526 243.265 52.5099 243.265 52.5099C243.265 52.5099 241.366 52.3921 239.941 52.6278C238.634 53.8063 237.922 56.3991 237.922 59.3454Z" fill="url(#paint32_linear_2184_54000)"/>
<path d="M239.224 59.1034C239.224 62.0498 240.411 64.4069 241.836 64.4069C241.836 64.4069 241.836 64.4069 241.955 64.4069C242.43 59.5749 242.905 54.3893 242.905 54.3893C242.905 54.3893 241.599 54.2714 240.649 54.3893C239.817 55.3321 239.224 57.0999 239.224 59.1034Z" fill="#522F30"/>
<path fill-rule="evenodd" clip-rule="evenodd" d="M215.834 61.7026V63.2347L216.071 64.6489C216.071 64.6489 205.147 64.5311 196.953 58.167C196.953 58.167 203.247 62.8811 215.596 62.8811L215.834 61.7026Z" fill="#D2726C"/>
<path fill-rule="evenodd" clip-rule="evenodd" d="M241.841 67.0037L241.96 69.4787C241.96 69.4787 235.548 69.5965 232.935 63.2324C232.935 63.2324 234.598 67.593 241.247 68.0644L241.841 67.0037Z" fill="#D2726C"/>
<path d="M215.478 51.564L219.396 48.6177H215.596L214.528 45.3178C214.528 45.3178 201.466 44.9642 196.478 55.6889C196.478 55.6889 201.347 48.0284 214.171 48.0284C214.171 47.9105 215.24 49.9141 215.478 51.564Z" fill="#522F30"/>
<path d="M242.317 56.4008L245.998 54.0437H244.217L243.861 50.0367C243.861 50.0367 239.824 49.801 236.499 52.7473C233.53 55.3401 232.699 61.7042 232.699 61.7042C232.699 61.7042 233.293 57.2258 237.093 54.1616C239.349 52.3938 242.555 52.5116 242.555 52.5116L242.317 56.4008Z" fill="#522F30"/>
<path d="M205.742 55.2157C205.742 56.0407 206.454 56.7478 207.286 56.7478C208.117 56.7478 208.829 56.0407 208.829 55.2157C208.829 54.3907 208.117 53.6836 207.286 53.6836C206.454 53.6836 205.742 54.3907 205.742 55.2157Z" fill="#F5F5F5"/>
<path d="M236.145 59.8163C236.145 60.5234 236.739 61.1127 237.451 61.1127C238.164 61.1127 238.757 60.5234 238.757 59.8163C238.757 59.1092 238.164 58.5199 237.451 58.5199C236.739 58.402 236.145 58.9913 236.145 59.8163Z" fill="#F5F5F5"/>
<path fill-rule="evenodd" clip-rule="evenodd" d="M240.529 75.8423C240.529 75.8423 236.373 76.5495 231.148 75.8423C225.923 75.1352 226.16 74.1924 226.16 74.1924L220.698 75.6066L223.786 76.1959C223.786 76.1959 227.585 80.3208 230.673 80.91C230.673 80.91 236.966 79.9672 240.529 75.8423Z" fill="#D2726C"/>
<path d="M226.159 78.5519C226.159 78.5519 224.259 75.252 223.665 75.252C223.072 75.252 221.409 75.8412 221.409 75.8412C221.409 75.8412 224.497 76.7841 226.159 78.5519Z" fill="#A64A4C"/>
<path d="M210.606 7.84158L201.7 7.0166C201.7 7.0166 177.238 31.0588 166.789 56.6331L172.37 58.1652C172.37 58.283 200.869 28.8196 210.606 7.84158Z" fill="url(#paint33_linear_2184_54000)"/>
<path d="M172.256 83.0291L172.375 131.703L160.501 143.37L168.219 79.6113L172.256 83.0291Z" fill="url(#paint34_linear_2184_54000)"/>
<path fill-rule="evenodd" clip-rule="evenodd" d="M232.346 90.6938C232.346 90.6938 233.177 93.9937 232.346 96.9401C232.346 96.9401 224.983 95.9972 221.421 93.8759C217.027 91.1652 212.515 82.3262 212.515 82.3262C212.515 82.3262 218.927 87.3939 220.827 87.9832C222.846 88.6903 232.346 90.6938 232.346 90.6938Z" fill="#D2726C"/>
<path fill-rule="evenodd" clip-rule="evenodd" d="M232.7 92.108C232.7 92.108 234.6 88.5724 234.6 87.5117C234.6 87.5117 230.8 86.3332 227.238 85.8618C223.675 85.3904 219.401 85.6261 218.094 85.3904C216.67 85.1547 212.632 82.3262 212.632 82.3262C212.632 82.3262 216.551 86.4511 220.944 87.9832C223.557 88.926 232.463 90.5759 232.463 90.5759L232.7 92.108Z" fill="#B14D63"/>
<path fill-rule="evenodd" clip-rule="evenodd" d="M210.605 7.83987C210.605 7.83987 229.841 7.13274 234.591 8.54699C239.341 9.96123 244.922 36.9498 244.922 36.9498C244.922 36.9498 233.997 16.2075 228.298 12.4362C222.717 8.7827 210.605 7.83987 210.605 7.83987Z" fill="url(#paint35_linear_2184_54000)"/>
<path d="M182.823 82.3295C182.823 82.3295 179.38 86.3365 177.48 86.3365C175.699 86.3365 164.418 77.0261 163.468 74.7869C160.262 67.9513 162.874 58.4052 163.468 57.8159C164.062 57.2267 168.693 56.5195 168.693 56.5195C168.693 56.5195 176.886 59.5837 180.448 66.1835C180.448 66.0657 182.823 75.1404 182.823 82.3295Z" fill="url(#paint36_linear_2184_54000)"/>
<path d="M199.578 7.0166L190.197 17.3877V14.6771L169.891 16.2092L163.954 16.6806C163.954 16.6806 166.448 13.2629 170.129 11.0236C173.691 9.02012 199.578 7.0166 199.578 7.0166Z" fill="url(#paint37_linear_2184_54000)"/>
<path d="M210.62 7.83987C210.62 7.83987 231.995 7.13275 235.082 8.90056C238.288 10.6684 247.788 35.5355 247.788 35.5355C247.788 35.5355 241.257 4.89353 232.47 0.0615234C232.47 0.0615234 217.151 0.8865 203.733 6.42563L210.62 7.83987Z" fill="url(#paint38_linear_2184_54000)"/>
<path fill-rule="evenodd" clip-rule="evenodd" d="M113.122 210.553C113.953 211.731 115.853 214.442 118.584 218.095C129.865 233.298 154.208 264.294 166.082 264.294C168.576 264.294 178.907 251.33 181.519 234.123C184.131 216.917 181.519 193.346 181.519 193.346L184.488 187.807C184.488 187.807 185.913 189.575 188.287 192.639C193.987 200.182 204.912 215.738 212.868 234.477L211.087 236.48L218.686 244.612C218.686 244.612 234.361 256.162 251.816 254.394C269.272 252.626 271.172 240.134 271.172 240.134C271.172 240.134 272.596 232.002 271.765 231.059C270.815 230.116 264.522 230.47 264.522 230.47C264.759 229.645 273.428 205.014 274.853 184.036C275.09 179.675 275.09 175.432 274.615 171.543L258.466 157.518L255.141 154.69L254.191 153.158L246.71 141.372L241.248 124.873C241.248 124.873 228.542 124.284 218.924 122.044C215.599 121.337 212.749 120.394 210.849 119.216L210.968 119.334L219.517 125.109C219.517 125.109 224.505 132.651 223.317 143.258C223.317 143.258 223.317 143.258 223.199 143.258C221.655 142.787 197.193 135.833 185.319 124.048L185.675 118.273V118.155C185.675 118.155 184.131 119.687 181.757 122.162C177.957 126.051 171.901 132.18 165.726 138.19C161.57 142.315 158.839 144.908 156.939 146.912C154.208 149.74 153.139 151.036 152.545 152.804C151.476 155.868 154.801 177.907 155.751 185.803C156.583 193.817 154.208 210.788 154.208 210.788C154.208 210.788 151.595 209.374 150.17 210.788C150.17 210.788 132.121 202.656 122.859 195.703C121.671 194.76 120.603 193.935 119.772 193.11C119.772 193.11 122.146 211.731 119.772 214.088C117.872 215.974 114.428 212.203 113.122 210.553Z" fill="url(#paint39_linear_2184_54000)"/>
<path fill-rule="evenodd" clip-rule="evenodd" d="M179.5 125.932C179.5 125.932 200.992 146.321 223.554 149.149L223.198 143.256C223.198 143.256 223.198 143.256 223.079 143.256C221.654 142.785 198.974 135.007 185.674 121.689V118.389V115.679L181.756 122.161L179.5 125.932Z" fill="url(#paint40_linear_2184_54000)"/>
<path fill-rule="evenodd" clip-rule="evenodd" d="M209.427 117.677C209.783 118.266 210.258 118.855 210.852 119.327L210.971 119.445C213.345 121.802 216.552 123.216 216.552 123.216C222.845 131.466 223.439 143.369 223.439 143.369L231.513 148.201C231.513 131.584 219.164 122.155 219.164 122.155L209.427 117.677Z" fill="url(#paint41_linear_2184_54000)"/>
<path fill-rule="evenodd" clip-rule="evenodd" d="M277.348 130.88L281.741 135.358C281.741 135.358 278.535 146.672 277.11 148.087C275.685 149.501 269.036 144.08 269.036 144.08L264.642 138.187C264.642 138.187 270.698 142.312 274.142 142.312C274.142 142.312 277.348 139.365 277.348 130.88Z" fill="url(#paint42_linear_2184_54000)"/>
<path d="M277.348 130.88C277.348 130.88 277.11 140.426 272.36 141.133C269.511 141.605 264.642 138.069 264.642 138.069C264.642 138.069 269.985 142.194 274.142 142.194C274.142 142.312 277.229 142.312 277.348 130.88Z" fill="#A64A4C"/>
<path opacity="0.5" fill-rule="evenodd" clip-rule="evenodd" d="M184.612 187.682C184.612 187.682 199.455 205.006 210.617 228.813L204.324 207.128L188.412 179.903L184.612 187.682Z" fill="url(#paint43_linear_2184_54000)"/>
<path fill-rule="evenodd" clip-rule="evenodd" d="M113.124 210.546C113.955 211.725 115.855 214.435 118.586 218.089C120.486 218.442 122.149 218.089 122.742 216.203C124.286 211.018 122.742 195.814 122.742 195.814C121.555 194.872 120.486 194.047 119.655 193.222C119.655 193.222 122.03 211.843 119.655 214.2C117.874 215.967 114.43 212.196 113.124 210.546Z" fill="url(#paint44_linear_2184_54000)"/>
<path opacity="0.5" fill-rule="evenodd" clip-rule="evenodd" d="M150.169 210.902C150.169 210.902 151.238 209.488 154.206 210.902C157.175 212.316 164.656 231.762 164.656 231.762C164.656 231.762 157.769 216.913 150.169 210.902Z" fill="url(#paint45_linear_2184_54000)"/>
<defs>
<radialGradient id="paint0_radial_2184_54000" cx="0" cy="0" r="1" gradientUnits="userSpaceOnUse" gradientTransform="translate(61.1567 84.1386) rotate(154.694) scale(11.235 12.7796)">
<stop stop-color="#FFD100"/>
<stop offset="1" stop-color="#F46F00"/>
</radialGradient>
<radialGradient id="paint1_radial_2184_54000" cx="0" cy="0" r="1" gradientUnits="userSpaceOnUse" gradientTransform="translate(59.6513 80.96) rotate(154.694) scale(11.1573 12.6912)">
<stop stop-color="#FFEF00"/>
<stop offset="1" stop-color="#FBBA00"/>
</radialGradient>
<radialGradient id="paint2_radial_2184_54000" cx="0" cy="0" r="1" gradientUnits="userSpaceOnUse" gradientTransform="translate(58.421 80.509) rotate(154.694) scale(8.87447 10.0945)">
<stop stop-color="#FFD100"/>
<stop offset="1" stop-color="#F46F00"/>
</radialGradient>
<radialGradient id="paint3_radial_2184_54000" cx="0" cy="0" r="1" gradientUnits="userSpaceOnUse" gradientTransform="translate(22.4032 136.076) rotate(103.29) scale(11.235 12.7793)">
<stop stop-color="#FFD100"/>
<stop offset="1" stop-color="#F46F00"/>
</radialGradient>
<radialGradient id="paint4_radial_2184_54000" cx="0" cy="0" r="1" gradientUnits="userSpaceOnUse" gradientTransform="translate(18.9842 135.268) rotate(103.29) scale(11.1573 12.6908)">
<stop stop-color="#FFEF00"/>
<stop offset="1" stop-color="#FBBA00"/>
</radialGradient>
<radialGradient id="paint5_radial_2184_54000" cx="0" cy="0" r="1" gradientUnits="userSpaceOnUse" gradientTransform="translate(17.8547 135.949) rotate(103.29) scale(8.8745 10.0943)">
<stop stop-color="#FFD100"/>
<stop offset="1" stop-color="#F46F00"/>
</radialGradient>
<radialGradient id="paint6_radial_2184_54000" cx="0" cy="0" r="1" gradientUnits="userSpaceOnUse" gradientTransform="translate(111.806 124.989) rotate(-155.248) scale(11.2351 12.7789)">
<stop stop-color="#FFD100"/>
<stop offset="1" stop-color="#F46F00"/>
</radialGradient>
<radialGradient id="paint7_radial_2184_54000" cx="0" cy="0" r="1" gradientUnits="userSpaceOnUse" gradientTransform="translate(113.278 121.793) rotate(-155.248) scale(11.1572 12.6903)">
<stop stop-color="#FFEF00"/>
<stop offset="1" stop-color="#FBBA00"/>
</radialGradient>
<radialGradient id="paint8_radial_2184_54000" cx="0" cy="0" r="1" gradientUnits="userSpaceOnUse" gradientTransform="translate(112.83 120.559) rotate(-155.248) scale(8.8745 10.094)">
<stop stop-color="#FFD100"/>
<stop offset="1" stop-color="#F46F00"/>
</radialGradient>
<radialGradient id="paint9_radial_2184_54000" cx="0" cy="0" r="1" gradientUnits="userSpaceOnUse" gradientTransform="translate(28.3497 214.907) rotate(165.191) scale(17.4778 19.8817)">
<stop stop-color="#DB6D56"/>
<stop offset="1" stop-color="#C74747"/>
</radialGradient>
<radialGradient id="paint10_radial_2184_54000" cx="0" cy="0" r="1" gradientUnits="userSpaceOnUse" gradientTransform="translate(25.1904 208.582) rotate(165.191) scale(13.8056 15.7045)">
<stop stop-color="#FFD100"/>
<stop offset="1" stop-color="#F46F00"/>
</radialGradient>
<radialGradient id="paint11_radial_2184_54000" cx="0" cy="0" r="1" gradientUnits="userSpaceOnUse" gradientTransform="translate(90.2567 237.886) rotate(-150.462) scale(15.6135 17.8563)">
<stop stop-color="#DB6D56"/>
<stop offset="1" stop-color="#C74747"/>
</radialGradient>
<radialGradient id="paint12_radial_2184_54000" cx="0" cy="0" r="1" gradientUnits="userSpaceOnUse" gradientTransform="translate(92.2178 231.846) rotate(-150.462) scale(12.3329 14.1044)">
<stop stop-color="#FFD100"/>
<stop offset="1" stop-color="#F46F00"/>
</radialGradient>
<linearGradient id="paint13_linear_2184_54000" x1="272.145" y1="148.996" x2="255.392" y2="53.2659" gradientUnits="userSpaceOnUse">
<stop stop-color="#FF957C"/>
<stop offset="0.984" stop-color="#F47867"/>
</linearGradient>
<linearGradient id="paint14_linear_2184_54000" x1="280.624" y1="124.149" x2="270.918" y2="68.6838" gradientUnits="userSpaceOnUse">
<stop stop-color="#FF957C"/>
<stop offset="0.984" stop-color="#FFAE78"/>
</linearGradient>
<linearGradient id="paint15_linear_2184_54000" x1="102.522" y1="228.222" x2="90.1598" y2="157.585" gradientUnits="userSpaceOnUse">
<stop stop-color="#FF957C"/>
<stop offset="0.984" stop-color="#F48767"/>
</linearGradient>
<linearGradient id="paint16_linear_2184_54000" x1="214.604" y1="130.066" x2="193.463" y2="9.26406" gradientUnits="userSpaceOnUse">
<stop offset="0.0111732" stop-color="#512438"/>
<stop offset="0.9944" stop-color="#832E31"/>
</linearGradient>
<linearGradient id="paint17_linear_2184_54000" x1="205.048" y1="147.025" x2="205.048" y2="89.4341" gradientUnits="userSpaceOnUse">
<stop stop-color="#FF7459"/>
<stop offset="0.9784" stop-color="#C75659"/>
</linearGradient>
<linearGradient id="paint18_linear_2184_54000" x1="221.739" y1="110.283" x2="203.546" y2="6.32709" gradientUnits="userSpaceOnUse">
<stop offset="0.0159875" stop-color="#FFAE78"/>
<stop offset="1" stop-color="#FF957C"/>
</linearGradient>
<linearGradient id="paint19_linear_2184_54000" x1="198.367" y1="154.747" x2="198.367" y2="0.819485" gradientUnits="userSpaceOnUse">
<stop offset="0.0111732" stop-color="#772438"/>
<stop offset="0.9944" stop-color="#994540"/>
</linearGradient>
<linearGradient id="paint20_linear_2184_54000" x1="183.586" y1="67.2655" x2="179.095" y2="41.6031" gradientUnits="userSpaceOnUse">
<stop offset="0.0111732" stop-color="#512438"/>
<stop offset="0.9944" stop-color="#6D1D20"/>
</linearGradient>
<linearGradient id="paint21_linear_2184_54000" x1="281.852" y1="207.108" x2="281.852" y2="124.877" gradientUnits="userSpaceOnUse">
<stop stop-color="#EDE3FC"/>
<stop offset="1" stop-color="white"/>
</linearGradient>
<linearGradient id="paint22_linear_2184_54000" x1="300.365" y1="209.464" x2="300.365" y2="130.889" gradientUnits="userSpaceOnUse">
<stop stop-color="#EDE3FC"/>
<stop offset="1" stop-color="white"/>
</linearGradient>
<linearGradient id="paint23_linear_2184_54000" x1="73.3464" y1="193.014" x2="73.3464" y2="135.687" gradientUnits="userSpaceOnUse">
<stop offset="0.0167598" stop-color="#E3D1FE"/>
<stop offset="1" stop-color="#EBE8FF"/>
</linearGradient>
<linearGradient id="paint24_linear_2184_54000" x1="72.4729" y1="206.587" x2="72.4729" y2="135.687" gradientUnits="userSpaceOnUse">
<stop offset="0.0167598" stop-color="#E3D1FE"/>
<stop offset="1" stop-color="#EBE8FF"/>
</linearGradient>
<linearGradient id="paint25_linear_2184_54000" x1="72.4729" y1="206.587" x2="72.4729" y2="135.687" gradientUnits="userSpaceOnUse">
<stop stop-color="#8E8EC9"/>
<stop offset="0.9888" stop-color="#BE6888"/>
</linearGradient>
<linearGradient id="paint26_linear_2184_54000" x1="99.8883" y1="169.456" x2="95.3166" y2="143.332" gradientUnits="userSpaceOnUse">
<stop stop-color="#FF957C"/>
<stop offset="0.984" stop-color="#FFAE78"/>
</linearGradient>
<linearGradient id="paint27_linear_2184_54000" x1="239.974" y1="49.9472" x2="239.974" y2="33.6824" gradientUnits="userSpaceOnUse">
<stop offset="0.0111732" stop-color="#772438"/>
<stop offset="0.9944" stop-color="#994540"/>
</linearGradient>
<linearGradient id="paint28_linear_2184_54000" x1="206.357" y1="43.5526" x2="206.357" y2="33.0965" gradientUnits="userSpaceOnUse">
<stop offset="0.0111732" stop-color="#772438"/>
<stop offset="0.9944" stop-color="#994540"/>
</linearGradient>
<linearGradient id="paint29_linear_2184_54000" x1="206.314" y1="63.268" x2="206.314" y2="47.1121" gradientUnits="userSpaceOnUse">
<stop offset="0.00396825" stop-color="#E1DBFB"/>
<stop offset="1" stop-color="white"/>
</linearGradient>
<linearGradient id="paint30_linear_2184_54000" x1="237.477" y1="68.5609" x2="237.477" y2="52.3845" gradientUnits="userSpaceOnUse">
<stop offset="0.00396825" stop-color="#E1DBFB"/>
<stop offset="1" stop-color="white"/>
</linearGradient>
<linearGradient id="paint31_linear_2184_54000" x1="211.736" y1="61.6473" x2="211.736" y2="47.1203" gradientUnits="userSpaceOnUse">
<stop offset="0.0223464" stop-color="#85757A"/>
<stop offset="0.9944" stop-color="#563757"/>
</linearGradient>
<linearGradient id="paint32_linear_2184_54000" x1="240.557" y1="67.0716" x2="240.557" y2="52.3845" gradientUnits="userSpaceOnUse">
<stop offset="0.0223464" stop-color="#85757A"/>
<stop offset="0.9944" stop-color="#563757"/>
</linearGradient>
<linearGradient id="paint33_linear_2184_54000" x1="192.701" y1="54.6898" x2="184.882" y2="10.0127" gradientUnits="userSpaceOnUse">
<stop offset="0.0111732" stop-color="#B45E52"/>
<stop offset="0.9944" stop-color="#C16140"/>
</linearGradient>
<linearGradient id="paint34_linear_2184_54000" x1="171.439" y1="141.466" x2="160.837" y2="80.8844" gradientUnits="userSpaceOnUse">
<stop offset="0.0111732" stop-color="#B45E52"/>
<stop offset="0.9944" stop-color="#C16140"/>
</linearGradient>
<linearGradient id="paint35_linear_2184_54000" x1="227.768" y1="37.0294" x2="227.768" y2="7.67817" gradientUnits="userSpaceOnUse">
<stop offset="0.0111732" stop-color="#512438"/>
<stop offset="0.9944" stop-color="#6D1D20"/>
</linearGradient>
<linearGradient id="paint36_linear_2184_54000" x1="174.73" y1="86.759" x2="169.395" y2="56.2749" gradientUnits="userSpaceOnUse">
<stop offset="0.0159875" stop-color="#FFAE78"/>
<stop offset="1" stop-color="#FF957C"/>
</linearGradient>
<linearGradient id="paint37_linear_2184_54000" x1="182.996" y1="18.6518" x2="181.26" y2="8.73491" gradientUnits="userSpaceOnUse">
<stop offset="0.0111732" stop-color="#B45E52"/>
<stop offset="0.9944" stop-color="#C16140"/>
</linearGradient>
<linearGradient id="paint38_linear_2184_54000" x1="229.021" y1="38.8763" x2="222.46" y2="1.38273" gradientUnits="userSpaceOnUse">
<stop offset="0.0111732" stop-color="#B45E52"/>
<stop offset="0.9944" stop-color="#C16140"/>
</linearGradient>
<linearGradient id="paint39_linear_2184_54000" x1="194.164" y1="264.25" x2="194.164" y2="117.955" gradientUnits="userSpaceOnUse">
<stop stop-color="#EDE3FC"/>
<stop offset="1" stop-color="white"/>
</linearGradient>
<linearGradient id="paint40_linear_2184_54000" x1="201.546" y1="149.194" x2="201.546" y2="115.665" gradientUnits="userSpaceOnUse">
<stop offset="0.0111732" stop-color="#EFEDFF"/>
<stop offset="1" stop-color="#EBE8FF"/>
</linearGradient>
<linearGradient id="paint41_linear_2184_54000" x1="220.355" y1="148.158" x2="220.355" y2="117.626" gradientUnits="userSpaceOnUse">
<stop offset="0.0111732" stop-color="#EFEDFF"/>
<stop offset="1" stop-color="#EBE8FF"/>
</linearGradient>
<linearGradient id="paint42_linear_2184_54000" x1="273.235" y1="148.349" x2="273.235" y2="130.925" gradientUnits="userSpaceOnUse">
<stop offset="0.0111732" stop-color="#EFEDFF"/>
<stop offset="1" stop-color="#EBE8FF"/>
</linearGradient>
<linearGradient id="paint43_linear_2184_54000" x1="197.618" y1="228.849" x2="197.618" y2="179.949" gradientUnits="userSpaceOnUse">
<stop stop-color="#8E81F4"/>
<stop offset="0.9888" stop-color="#BE6888"/>
</linearGradient>
<linearGradient id="paint44_linear_2184_54000" x1="118.32" y1="218.172" x2="118.32" y2="193.144" gradientUnits="userSpaceOnUse">
<stop offset="0.0111732" stop-color="#EFEDFF"/>
<stop offset="1" stop-color="#EBE8FF"/>
</linearGradient>
<linearGradient id="paint45_linear_2184_54000" x1="157.362" y1="231.735" x2="157.362" y2="210.211" gradientUnits="userSpaceOnUse">
<stop offset="0.0111732" stop-color="#BE6888"/>
<stop offset="1" stop-color="#8E81F4"/>
</linearGradient>
</defs>
</svg>
