<svg width="193" height="264" viewBox="0 0 193 264" fill="none" xmlns="http://www.w3.org/2000/svg">
<g clip-path="url(#clip0_1671_62392)">
<path fill-rule="evenodd" clip-rule="evenodd" d="M72.4503 74.0273L74.0146 78.2367C70.6793 83.1551 53.2349 92.593 46.6084 91.2046L44.3946 87.3054C44.3946 87.3054 56.2308 86.8771 72.4503 74.0273Z" fill="url(#paint0_radial_1671_62392)"/>
<path fill-rule="evenodd" clip-rule="evenodd" d="M72.4474 74.0273C72.4474 74.0273 54.3831 75.5782 44.3917 87.3054C50.8707 88.7824 68.6545 79.9944 72.4474 74.0273Z" fill="url(#paint1_radial_1671_62392)"/>
<path opacity="0.2" fill-rule="evenodd" clip-rule="evenodd" d="M68.865 75.7256C68.865 75.7256 56.2466 76.5084 46.329 86.3894C46.329 86.3894 59.9214 84.7795 68.865 75.7256Z" fill="#DD4C90"/>
<path fill-rule="evenodd" clip-rule="evenodd" d="M68.2156 76.3607C68.2156 76.3607 54.387 78.5319 46.9636 86.3008L46.329 86.3894C49.3544 82.2539 60.2904 76.5527 68.865 75.7256L68.2156 76.3607Z" fill="url(#paint2_radial_1671_62392)"/>
<path opacity="0.4" fill-rule="evenodd" clip-rule="evenodd" d="M71.5453 75.2256L73.2573 79.1839L71.1469 81.1187L69.243 77.3968C69.2578 77.3968 70.8222 76.1265 71.5453 75.2256Z" fill="#864C90"/>
<path fill-rule="evenodd" clip-rule="evenodd" d="M21.4281 119.754L25.6933 121.157C27.4496 126.829 23.9371 146.369 18.7274 150.682L14.2999 149.988C14.2999 149.988 21.3544 140.461 21.4281 119.754Z" fill="url(#paint3_radial_1671_62392)"/>
<path fill-rule="evenodd" clip-rule="evenodd" d="M21.4307 119.754C21.4307 119.754 11.3655 134.849 14.3024 149.988C19.4826 145.837 23.7182 126.445 21.4307 119.754Z" fill="url(#paint4_radial_1671_62392)"/>
<path opacity="0.2" fill-rule="evenodd" clip-rule="evenodd" d="M20.5167 123.623C20.5167 123.623 13.2704 133.977 14.7905 147.905C14.7905 147.905 22.0073 136.281 20.5167 123.623Z" fill="#DD4C90"/>
<path fill-rule="evenodd" clip-rule="evenodd" d="M20.5981 124.523C20.5981 124.523 13.6617 136.693 15.0933 147.343L14.7686 147.889C13.4256 142.956 15.8017 130.83 20.4949 123.607L20.5981 124.523Z" fill="url(#paint5_radial_1671_62392)"/>
<path opacity="0.4" fill-rule="evenodd" clip-rule="evenodd" d="M21.7968 121.217L25.9586 122.339L26.1505 125.19L22.0625 124.363C22.0625 124.363 22.0477 122.339 21.7968 121.217Z" fill="#864C90"/>
<path fill-rule="evenodd" clip-rule="evenodd" d="M126.014 127.902L123.786 131.801C117.882 132.392 99.4492 125.066 96.2614 119.099L97.8258 114.89C97.8258 114.89 105.751 123.707 126.014 127.902Z" fill="url(#paint6_radial_1671_62392)"/>
<path fill-rule="evenodd" clip-rule="evenodd" d="M126.014 127.9C126.014 127.9 113.234 115.035 97.8259 114.902C100.866 120.81 119.004 128.801 126.014 127.9Z" fill="url(#paint7_radial_1671_62392)"/>
<path opacity="0.2" fill-rule="evenodd" clip-rule="evenodd" d="M122.404 126.228C122.404 126.228 113.712 117.056 99.7651 115.786C99.7799 115.771 109.727 125.165 122.404 126.228Z" fill="#DD4C90"/>
<path fill-rule="evenodd" clip-rule="evenodd" d="M121.496 126.129C121.496 126.129 110.959 116.898 100.244 116.203L99.7719 115.775C104.878 115.435 116.272 120.176 122.411 126.217L121.496 126.129Z" fill="url(#paint8_radial_1671_62392)"/>
<path opacity="0.4" fill-rule="evenodd" clip-rule="evenodd" d="M124.509 127.956L122.576 131.811L119.742 131.442L121.365 127.602C121.38 127.602 123.358 127.986 124.509 127.956Z" fill="#864C90"/>
<path fill-rule="evenodd" clip-rule="evenodd" d="M161.723 563.885C165.211 565.496 175.674 566.033 182.65 566.033C186.137 566.033 188.552 566.033 188.552 566.033C188.552 566.033 194.454 490.317 208.137 437.691C221.82 385.065 230.137 328.412 230.137 328.412L238.991 327.338C238.991 327.338 247.844 427.488 248.113 438.228C248.381 448.968 239.527 469.642 237.649 492.196C235.503 514.482 245.161 573.283 245.161 573.283L265.551 575.431C265.551 575.431 272.795 475.549 277.624 440.644C282.454 405.74 293.454 335.661 291.039 318.209C290.502 314.45 288.893 308.275 286.746 300.757C285.941 297.803 284.868 294.85 284.063 291.628C276.015 266.657 264.746 235.511 264.746 235.511C250.527 233.095 211.625 233.9 211.625 233.9C211.625 233.9 205.186 243.298 197.406 256.723C195.528 259.945 193.65 263.435 191.772 267.194L191.235 268.268C182.65 284.378 174.601 303.173 172.991 318.209C169.504 350.697 175.674 397.416 175.138 421.313C174.601 444.94 167.894 466.957 162.528 484.41C157.162 501.594 161.723 563.885 161.723 563.885Z" fill="#321833"/>
<path d="M64.5225 161.42C66.179 180.576 78.0111 193.857 78.0111 193.857C84.5187 198.44 92.8012 202.318 99.5454 205.021C106.29 207.724 111.259 209.252 111.259 209.252L118.122 216.891L124.156 223.59L122.736 216.186L118.24 192.681C118.004 188.686 117.649 184.807 117.294 181.399C116.229 170.822 114.809 163.653 114.809 163.653C110.431 161.655 99.1905 163.535 99.1905 163.535C81.7973 167.531 64.5225 161.42 64.5225 161.42Z" fill="url(#paint9_linear_1671_62392)"/>
<path d="M234.79 125.813L165.454 137.8L157.171 60.7044L186.633 16.2802L207.576 6.4082L235.736 11.1092C235.736 11.1092 249.817 36.7294 247.568 67.4032C245.32 98.077 239.523 121.112 234.79 125.813Z" fill="url(#paint10_linear_1671_62392)"/>
<path d="M181.185 89.1455C181.185 89.1455 185.445 109.83 183.67 123.698C183.67 123.698 208.636 146.497 219.048 146.497C229.46 146.497 224.136 126.753 224.136 126.753C224.136 126.753 213.369 123.228 208.872 118.644C204.376 114.178 203.311 101.486 203.311 101.486L181.185 89.1455Z" fill="url(#paint11_linear_1671_62392)"/>
<path d="M179.051 84.092C179.406 85.1497 179.643 86.0899 179.879 86.9126C182.364 94.5517 202.242 103.954 213.719 107.597C214.193 107.714 214.666 107.832 215.021 107.949C215.967 108.184 217.269 108.537 218.807 108.655C221.528 109.007 224.486 109.242 225.433 108.89C226.853 108.42 229.811 102.778 233.361 99.3702C236.792 95.962 244.719 86.56 244.719 80.9189C244.719 78.0983 243.536 75.0426 242.471 72.1045C241.288 69.284 240.223 66.5809 240.105 64.4655C239.75 54.946 243.654 42.606 243.654 39.7854C243.654 39.0803 243.063 36.7298 241.761 33.6742C241.525 33.2041 241.406 32.734 241.17 32.2639C237.265 23.6846 228.983 10.6394 215.612 6.76114C215.612 6.76114 206.147 4.76323 195.734 7.70133L179.998 29.2082C179.998 29.2082 176.448 56.1213 178.815 65.8758C181.181 75.6303 179.051 84.092 179.051 84.092Z" fill="url(#paint12_linear_1671_62392)"/>
<path d="M145.332 89.143L145.451 91.0234L145.806 97.3697L145.806 98.5449C146.752 117.584 147.935 137.445 148.645 147.552C148.645 148.61 148.764 149.55 148.764 150.373L149 154.251L170.653 132.392L170.653 58.1166C170.653 58.1166 192.779 33.319 196.565 27.4428C199.168 23.447 203.783 15.8079 206.622 11.342C207.332 10.2843 207.687 9.69663 207.687 9.69663C208.397 8.52139 208.871 7.81625 208.871 7.81625C208.871 7.81625 222.596 9.34406 225.199 11.342C225.199 11.342 240.462 22.9769 243.775 39.7828C247.088 56.5888 248.153 94.6666 234.783 125.81L239.161 125.81C239.161 125.81 252.176 80.3286 248.271 48.5971C244.249 16.8656 234.191 3.7029 231.825 1.35242C229.458 -0.998064 210.527 3.82043 201.416 4.99567C192.306 6.17091 175.622 7.46368 167.813 11.342C160.122 15.2203 146.397 44.4838 144.741 53.1806C144.031 56.5888 144.504 71.6319 145.332 89.143Z" fill="url(#paint13_linear_1671_62392)"/>
<path d="M186.747 39.9004C186.747 39.9004 181.186 54.5909 181.186 66.2258L180.003 67.5186C180.003 67.5186 175.033 62.3475 170.774 58.1166L186.747 39.9004Z" fill="url(#paint14_linear_1671_62392)"/>
<path fill-rule="evenodd" clip-rule="evenodd" d="M29.2652 139.908L23.9408 139.908C23.9408 139.908 47.9599 177.633 57.0706 208.895L104.044 208.895C104.044 208.895 87.8341 169.172 64.5248 141.789L29.2652 139.908Z" fill="#4D1A4F"/>
<path fill-rule="evenodd" clip-rule="evenodd" d="M75.0584 136.505C75.0584 136.505 104.165 168.119 114.933 190.684L60.15 192.447C60.15 192.447 40.0354 149.668 29.1499 135.33L75.0584 136.505Z" fill="url(#paint15_linear_1671_62392)"/>
<path fill-rule="evenodd" clip-rule="evenodd" d="M108.658 189.156L113.272 192.447L102.15 205.962L60.2645 203.612L29.2644 142.734L29.2644 135.33L63.1042 192.447L108.658 189.156Z" fill="url(#paint16_linear_1671_62392)"/>
<path fill-rule="evenodd" clip-rule="evenodd" d="M29.2644 135.33L29.2644 142.734L60.2645 203.612L102.15 205.962L113.272 192.447L62.3943 194.562C62.3943 194.562 45.1194 155.427 29.2644 135.33Z" fill="url(#paint17_linear_1671_62392)"/>
<path opacity="0.3" fill-rule="evenodd" clip-rule="evenodd" d="M62.3905 194.563L60.2607 203.612L102.146 205.963L113.269 192.447L62.3905 194.563Z" fill="#592963"/>
<path d="M38.0874 140.285L38.0764 140.755L75.6912 141.622L75.7022 141.152L38.0874 140.285Z" fill="#726295"/>
<path d="M81.8063 148.141L81.8063 147.671L44.2986 146.378L44.1803 146.848L81.8063 148.141Z" fill="#726295"/>
<path d="M104.63 182.104L68.5425 182.104L68.5425 182.575L104.63 182.575L104.63 182.104Z" fill="#726295"/>
<path opacity="0.6" fill-rule="evenodd" clip-rule="evenodd" d="M107.943 178.343L83.3318 161.42L78.599 152.958L94.099 159.187C94.099 159.187 105.103 173.76 107.943 178.343Z" fill="#8B689A"/>
<path d="M114.931 163.535C113.393 156.718 108.423 152.723 107.95 152.253C107.477 151.782 97.5376 153.193 97.5376 153.193L78.7246 145.554C78.7246 145.554 77.3047 150.255 78.7246 152.84C78.7246 152.84 81.4459 157.071 86.7704 158.481C86.7704 158.481 95.1712 158.246 100.496 161.067L99.4307 163.3C99.3124 163.417 116.469 170.469 114.931 163.535Z" fill="url(#paint18_linear_1671_62392)"/>
<path d="M216.684 32.9687L213.135 40.0202L213.135 38.4924C213.135 38.4924 202.012 39.08 199.173 40.0202C196.451 40.9604 192.665 43.4284 192.665 43.4284C192.665 43.4284 197.753 37.7872 199.764 36.847C201.776 35.9069 216.684 32.9687 216.684 32.9687Z" fill="url(#paint19_linear_1671_62392)"/>
<path d="M208.87 7.81876L199.996 6.99609C199.996 6.99609 175.622 30.971 165.21 56.4738L170.771 58.0016C170.771 58.1191 199.168 28.7381 208.87 7.81876Z" fill="url(#paint20_linear_1671_62392)"/>
<path d="M170.658 82.7959L170.776 131.333L158.944 142.968L166.635 79.3877L170.658 82.7959Z" fill="url(#paint21_linear_1671_62392)"/>
<path d="M181.187 82.0981C181.187 82.0981 177.756 86.0939 175.863 86.0939C174.088 86.0939 162.847 76.8095 161.901 74.5766C158.706 67.7602 161.309 58.2407 161.901 57.6531C162.492 57.0655 167.107 56.3604 167.107 56.3604C167.107 56.3604 175.271 59.416 178.821 65.9973C178.821 65.8798 181.187 74.9292 181.187 82.0981Z" fill="url(#paint22_linear_1671_62392)"/>
<path d="M197.882 6.99609L188.534 17.3382L188.534 14.6352L168.301 16.163L162.385 16.6331C162.385 16.6331 164.87 13.2249 168.538 10.9919C172.088 8.994 197.882 6.99609 197.882 6.99609Z" fill="url(#paint23_linear_1671_62392)"/>
<path fill-rule="evenodd" clip-rule="evenodd" d="M111.735 209.963C112.563 211.138 114.456 213.841 117.177 217.485C128.418 232.645 152.674 263.554 164.506 263.554C166.991 263.554 177.284 250.626 179.888 233.468C182.491 216.309 179.888 192.805 179.888 192.805L182.846 187.281C182.846 187.281 184.265 189.044 186.632 192.099C192.311 199.621 203.197 215.134 211.124 233.821L209.349 235.818L216.922 243.928C216.922 243.928 232.54 255.445 249.934 253.682C267.327 251.919 269.22 239.462 269.22 239.462C269.22 239.462 270.64 231.353 269.811 230.412C268.865 229.472 262.594 229.825 262.594 229.825C262.83 229.002 271.468 204.439 272.888 183.52C273.124 179.172 273.124 174.941 272.651 171.063L256.559 157.077L253.246 154.257L252.3 152.729L244.846 140.976L239.403 124.523C239.403 124.523 226.743 123.935 217.159 121.703C213.846 120.997 211.006 120.057 209.113 118.882L209.231 118.999L217.75 124.758C217.75 124.758 222.72 132.28 221.537 142.857C221.537 142.857 221.537 142.857 221.418 142.857C219.88 142.387 195.506 135.453 183.674 123.7L184.029 117.942L184.029 117.824C184.029 117.824 182.491 119.352 180.124 121.82C176.338 125.698 170.304 131.81 164.151 137.803C160.01 141.917 157.288 144.502 155.395 146.5C152.674 149.321 151.609 150.613 151.017 152.376C149.952 155.432 153.265 177.409 154.212 185.283C155.04 193.275 152.674 210.198 152.674 210.198C152.674 210.198 150.071 208.788 148.651 210.198C148.651 210.198 130.666 202.089 121.437 195.155C120.254 194.215 119.189 193.392 118.361 192.57C118.361 192.57 120.727 211.138 118.361 213.489C116.468 215.369 113.036 211.608 111.735 209.963Z" fill="url(#paint24_linear_1671_62392)"/>
<path fill-rule="evenodd" clip-rule="evenodd" d="M177.875 125.578C177.875 125.578 199.291 145.91 221.772 148.73L221.417 142.854C221.417 142.854 221.417 142.854 221.299 142.854C219.879 142.384 197.28 134.627 184.028 121.347L184.028 118.057L184.028 115.354L180.123 121.817L177.875 125.578Z" fill="url(#paint25_linear_1671_62392)"/>
<path opacity="0.5" fill-rule="evenodd" clip-rule="evenodd" d="M182.97 187.156C182.97 187.156 197.76 204.432 208.882 228.172L202.611 206.547L186.756 179.399L182.97 187.156Z" fill="url(#paint26_linear_1671_62392)"/>
<path fill-rule="evenodd" clip-rule="evenodd" d="M111.737 209.957C112.565 211.132 114.458 213.835 117.18 217.478C119.073 217.831 120.729 217.478 121.321 215.598C122.859 210.427 121.321 195.266 121.321 195.266C120.138 194.326 119.073 193.503 118.245 192.681C118.245 192.681 120.611 211.249 118.245 213.6C116.47 215.363 113.038 211.602 111.737 209.957Z" fill="url(#paint27_linear_1671_62392)"/>
<path opacity="0.5" fill-rule="evenodd" clip-rule="evenodd" d="M148.65 210.311C148.65 210.311 149.714 208.901 152.672 210.311C155.63 211.722 163.085 231.113 163.085 231.113C163.085 231.113 156.222 216.305 148.65 210.311Z" fill="url(#paint28_linear_1671_62392)"/>
<path d="M74.6247 158.537C74.9191 158.799 75.2644 158.967 75.606 159.015C75.7228 159.037 75.8387 159.049 75.9528 159.051C75.9817 159.055 76.0101 159.055 76.0369 159.05C76.0464 159.049 76.0551 159.045 76.0624 159.04C76.0698 159.035 76.0757 159.028 76.0798 159.019C76.084 159.011 76.0862 159.001 76.0865 158.991C76.0868 158.98 76.085 158.969 76.0814 158.958C76.0737 158.937 76.0592 158.917 76.0406 158.903C76.0221 158.889 76.0009 158.882 75.9814 158.883L75.9258 158.875C75.9208 158.874 75.9157 158.872 75.911 158.869C75.9063 158.866 75.9021 158.862 75.8987 158.857C75.7475 158.694 75.745 157.784 76.2346 155.76C76.2854 155.603 76.2852 155.42 76.2341 155.237C76.183 155.053 76.0834 154.876 75.9482 154.73C75.7586 154.542 75.5386 154.398 75.3083 154.31C75.078 154.223 74.8449 154.195 74.6306 154.23C74.5195 154.241 74.4221 154.288 74.3501 154.365C74.2782 154.442 74.2349 154.547 74.2255 154.666C74.2116 155.058 74.1853 155.432 74.1592 155.794C74.1166 156.266 74.0981 156.746 74.1039 157.233C74.1261 157.79 74.3001 158.224 74.6247 158.537Z" fill="#E5476D"/>
<g style="mix-blend-mode:overlay">
<path d="M68.9485 165.025C69.0345 163.144 68.855 162.794 68.7844 162.73C68.7808 162.729 68.7772 162.728 68.7739 162.729C68.7663 162.726 68.7586 162.725 68.7514 162.726C68.7172 162.75 68.6907 162.783 68.6736 162.824C68.7473 163.034 68.8259 163.553 68.7754 164.838C68.825 164.908 68.8835 164.971 68.9485 165.025Z" fill="white"/>
</g>
<g style="mix-blend-mode:overlay">
<path d="M73.1842 166.8C73.2002 166.818 73.2206 166.829 73.2409 166.832L73.2589 166.834C73.2714 166.833 73.2827 166.829 73.2919 166.822C73.3012 166.815 73.308 166.805 73.3119 166.793L73.3178 166.779C73.1678 166.601 72.7131 165.955 72.8079 165.016C72.9475 163.616 73.8892 161.523 74.8749 161.47C75.0353 161.434 75.2074 161.431 75.3838 161.46C75.1461 161.4 74.9117 161.393 74.6956 161.438C73.7083 161.491 72.7694 163.583 72.6271 164.984C72.5171 166.079 73.1558 166.771 73.1842 166.8Z" fill="white"/>
</g>
<g style="mix-blend-mode:overlay">
<path d="M72.4663 169.856C72.4843 170.571 72.3466 171.24 72.0637 171.813C72.0061 171.864 71.9369 171.9 71.8596 171.919C71.8996 171.943 71.9426 171.957 71.9837 171.958C72.0848 171.95 72.1746 171.911 72.243 171.844C72.5267 171.272 72.6644 170.603 72.6457 169.888C72.6169 169.351 72.4428 168.598 71.7869 168.083C71.3653 167.767 70.9236 167.494 70.4694 167.268C70.4719 167.291 70.4667 167.31 70.4645 167.331C70.8583 167.533 71.2413 167.774 71.6074 168.05C72.2638 168.569 72.4355 169.314 72.4663 169.856Z" fill="white"/>
</g>
<g style="mix-blend-mode:overlay">
<path d="M76.2518 172.151C76.2691 172.176 76.2927 172.196 76.3187 172.208C76.4835 172.267 76.8685 171.837 77.2542 169.873C77.7417 167.405 78.1734 163.812 78.3195 162.537C78.3366 162.014 78.3534 161.701 78.3533 161.687C78.354 161.674 78.3579 161.662 78.3646 161.652C78.3713 161.643 78.3805 161.636 78.3916 161.632C78.9297 161.434 79.3597 161.354 79.6949 161.391C79.3311 161.296 78.845 161.364 78.2075 161.599C78.1965 161.602 78.1872 161.609 78.1805 161.619C78.1739 161.628 78.17 161.64 78.1693 161.653C78.1709 161.668 78.1511 161.98 78.1355 162.503C77.9893 163.778 77.5562 167.371 77.0686 169.839C76.7578 171.439 76.4458 172.022 76.2518 172.151Z" fill="white"/>
</g>
<g style="mix-blend-mode:overlay">
<path d="M74.1068 165.313C74.0345 165.46 73.9608 165.608 73.8894 165.776C73.8354 166.538 73.8022 167.341 73.8074 168.131C73.877 168.246 73.9396 168.364 73.9947 168.485C73.9794 167.412 74.0168 166.354 74.1068 165.313Z" fill="white"/>
</g>
<g style="mix-blend-mode:overlay">
<path d="M88.1159 171.783L88.0811 171.802C88.1026 171.819 88.1262 171.833 88.1505 171.841C88.1776 171.849 88.2045 171.851 88.2295 171.846C88.2545 171.842 88.2769 171.832 88.2955 171.816C88.6079 171.609 88.8617 170.597 88.9895 169.211C88.7917 169.151 88.596 169.064 88.4078 168.951C87.9151 168.642 87.4881 168.197 87.1854 167.676C87.1954 167.766 87.1963 167.855 87.203 167.941C87.4789 168.339 87.8319 168.678 88.2273 168.923C88.4157 169.035 88.6114 169.123 88.8091 169.184C88.6821 170.564 88.4269 171.576 88.1159 171.783Z" fill="white"/>
</g>
<g style="mix-blend-mode:overlay">
<path d="M68.687 166.282C68.6629 166.583 68.6338 166.905 68.5996 167.261C68.457 168.74 68.0786 172.666 67.3198 173.085C67.3023 173.095 67.2834 173.103 67.2633 173.109C67.2756 173.121 67.2899 173.13 67.3048 173.136C67.3765 173.16 67.447 173.153 67.5009 173.118C68.2582 172.698 68.6424 168.772 68.7741 167.302C68.8086 166.948 68.8373 166.623 68.8614 166.322C68.175 165.786 67.6675 165.065 67.6548 163.877C67.6441 162.905 68.0475 162.096 68.6474 161.908C68.7426 161.879 68.8456 161.867 68.9526 161.875C68.7827 161.827 68.6151 161.827 68.468 161.877C67.8725 162.063 67.463 162.872 67.4738 163.844C67.4946 165.025 68.0006 165.746 68.687 166.282Z" fill="white"/>
</g>
<g style="mix-blend-mode:overlay">
<path d="M88.8997 166.989C88.9015 167.125 88.9002 167.259 88.8987 167.391C88.9592 167.417 89.0196 167.441 89.0794 167.461C89.081 167.316 89.0809 167.169 89.0808 167.022C89.0577 163.792 88.5657 161.937 88.0908 161.775L88.0653 161.771C88.0345 161.767 88.005 161.77 87.9792 161.781C88.4311 162.083 88.8793 163.915 88.8997 166.989Z" fill="white"/>
</g>
<g style="mix-blend-mode:overlay">
<path d="M88.0445 172.851C87.3119 172.616 86.6714 171.59 86.2488 170.144C86.2221 170.237 86.194 170.329 86.1659 170.421C86.5865 171.702 87.1862 172.602 87.8637 172.819C87.9523 172.847 88.0412 172.869 88.1298 172.886L88.2138 172.898C88.1576 172.884 88.1013 172.87 88.0445 172.851Z" fill="white"/>
</g>
<g style="mix-blend-mode:overlay">
<path d="M65.2384 162.701C65.2464 162.667 65.2543 162.632 65.2628 162.601C65.4151 162.045 65.9171 161.975 66.3826 162.042C65.8798 161.932 65.2585 161.94 65.0877 162.569C65.0894 162.584 65.0805 162.596 65.0776 162.61C65.1296 162.64 65.1846 162.669 65.2384 162.701Z" fill="white"/>
</g>
<g style="mix-blend-mode:overlay">
<path d="M75.1413 173.063C74.7124 172.635 74.4245 171.936 74.249 171.089C74.2276 171.216 74.2002 171.341 74.17 171.468C74.348 172.124 74.5998 172.673 74.9617 173.03C75.1843 173.255 75.4577 173.406 75.7316 173.453L75.8081 173.463C75.5684 173.401 75.3348 173.26 75.1413 173.063Z" fill="white"/>
</g>
<g style="mix-blend-mode:overlay">
<path d="M83.3258 172.917C82.9864 172.657 82.8174 172.216 82.6708 171.643C82.0548 169.233 82.4054 166.066 82.5729 164.876C82.5028 165.004 82.4209 165.171 82.3301 165.35C82.1584 166.781 81.9502 169.489 82.4927 171.61C82.6414 172.188 82.8085 172.626 83.1477 172.885C83.3362 173.021 83.5458 173.101 83.7483 173.114C83.6029 173.083 83.458 173.015 83.3258 172.917Z" fill="white"/>
</g>
<g style="mix-blend-mode:overlay">
<path d="M79.4079 173.24C79.1357 173.079 78.9493 172.772 78.8632 172.331C78.696 171.492 78.5747 170.656 78.4999 169.827C78.4702 170.052 78.4357 170.272 78.3948 170.489C78.4663 171.13 78.5661 171.734 78.6838 172.299C78.7759 172.741 78.9607 173.046 79.2283 173.207C79.3242 173.262 79.4246 173.299 79.5243 173.316C79.5558 173.32 79.5858 173.324 79.6174 173.329C79.5463 173.309 79.4758 173.279 79.4079 173.24Z" fill="white"/>
</g>
<g style="mix-blend-mode:overlay">
<path d="M65.4437 171.482C65.4189 171.618 65.3922 171.75 65.3639 171.88C65.7637 173.439 66.2929 173.838 67.1225 173.988L67.1901 173.998C66.3556 173.817 65.8378 173.321 65.4437 171.482Z" fill="white"/>
</g>
<g style="mix-blend-mode:overlay">
<path d="M70.7029 173.381C70.1822 172.687 70.356 171.197 71.2127 168.95C71.2183 168.936 71.229 168.924 71.2431 168.918C71.3834 168.855 71.5439 168.83 71.7125 168.847L71.7005 168.845C71.4725 168.79 71.2508 168.805 71.0624 168.888C71.0491 168.895 71.039 168.906 71.0335 168.921C70.1753 171.167 70.0046 172.659 70.5239 173.353C70.6193 173.473 70.7344 173.574 70.8603 173.648C70.9862 173.723 71.1195 173.769 71.2501 173.783C71.2772 173.786 71.3042 173.79 71.3327 173.794C71.2168 173.771 71.1008 173.722 70.9923 173.651C70.8838 173.579 70.7851 173.488 70.7029 173.381Z" fill="white"/>
</g>
<g style="mix-blend-mode:overlay">
<path d="M64.9936 165.868C64.989 165.148 65.0193 164.436 65.0842 163.737C65.0633 163.721 65.0403 163.71 65.0171 163.706C64.9761 163.699 64.9357 163.697 64.8969 163.701L64.9045 163.703C64.8438 164.312 64.811 165.052 64.8122 165.832C64.8138 166.059 64.8167 166.377 64.824 166.747C64.7617 167.355 64.6867 168.035 64.5995 168.711C64.2257 171.763 63.9529 172.564 63.821 172.76C63.8711 172.838 63.9086 172.856 63.9253 172.86C63.9838 172.868 64.2986 172.669 64.779 168.744C64.8618 168.068 64.9367 167.387 65.0034 166.778C64.992 166.411 64.9893 166.095 64.9936 165.868Z" fill="white"/>
</g>
<g style="mix-blend-mode:overlay">
<path d="M62.0301 172.279C61.963 172.066 61.9061 171.852 61.8595 171.637C61.8202 171.709 61.7813 171.784 61.7361 171.857C61.7703 171.991 61.8056 172.122 61.846 172.246C62.2059 173.38 62.7705 174.044 63.478 174.172L63.517 174.178L63.5561 174.183C62.8997 174.01 62.3733 173.357 62.0301 172.279Z" fill="white"/>
</g>
<g style="mix-blend-mode:overlay">
<path d="M58.2886 172.945C58.3327 172.971 58.3798 172.984 58.4243 172.983C59.2709 172.967 61.1943 169.553 61.7143 166.05C61.9251 164.374 62.39 162.578 63.097 162.318C63.3736 162.217 63.684 162.189 64.0059 162.239C63.6215 162.15 63.2466 162.166 62.9175 162.285C62.2074 162.544 61.7456 164.341 61.5333 166.016C61.0225 169.456 59.1558 172.824 58.2886 172.945Z" fill="white"/>
</g>
<g style="mix-blend-mode:overlay">
<path d="M56.8526 173.542C55.3107 171.894 54.9385 167.868 55.0644 165.563C55.5271 157.096 58.1872 154.868 59.6846 154.885C59.7879 154.887 59.8925 154.895 59.9978 154.909C59.8315 154.872 59.6664 154.853 59.5053 154.853C58.0061 154.835 55.3461 157.063 54.8848 165.53C54.7577 167.836 55.13 171.865 56.673 173.509C57.0167 173.887 57.4543 174.141 57.8944 174.217C57.9236 174.223 57.9527 174.227 57.9815 174.229C57.5721 174.136 57.1715 173.892 56.8526 173.542Z" fill="white"/>
</g>
<g style="mix-blend-mode:overlay">
<path d="M60.1034 155.783C60.4049 156.207 60.0458 157.919 59.9011 158.649C59.592 160.146 58.5504 162.775 58.5399 162.8C58.5356 162.811 58.5341 162.823 58.5355 162.835C58.5369 162.848 58.5412 162.861 58.5479 162.872C58.6834 163.133 59.0189 163.318 59.4462 163.373C59.1063 163.294 58.8443 163.132 58.7273 162.904C58.7213 162.892 58.7174 162.88 58.7161 162.868C58.7147 162.855 58.7159 162.844 58.7195 162.833C58.7298 162.806 59.7715 160.179 60.0807 158.682C60.2327 157.951 60.5859 156.24 60.2845 155.816C60.2701 155.795 60.2518 155.776 60.2312 155.762C60.2106 155.748 60.1882 155.739 60.166 155.735C60.1312 155.73 60.0974 155.732 60.0661 155.74C60.0802 155.753 60.0928 155.767 60.1034 155.783Z" fill="white"/>
</g>
<path d="M91.5727 165.977C91.5641 165.964 91.553 165.953 91.5404 165.945C91.5278 165.937 91.5142 165.932 91.501 165.931C91.4881 165.929 91.4757 165.931 91.465 165.936C91.4542 165.94 91.4453 165.948 91.4391 165.958C91.1135 166.478 90.6943 166.913 90.1983 167.248C90.1289 165.485 89.8872 163.477 89.4937 162.505C89.0863 161.502 88.5883 161.078 87.6557 160.93C86.9396 160.816 86.4281 161.052 86.0462 161.669C85.5871 162.414 85.4468 163.807 85.4073 165.136C85.0997 167.399 84.5527 170.842 84.2935 171.208C84.1679 170.916 84.0429 169.411 84.0326 166.562C84.0512 165.934 84.0622 165.33 84.0741 164.748C84.0892 163.969 84.1028 163.296 84.1273 162.76C84.1506 162.28 84.0997 161.652 83.7293 161.324C83.4839 161.111 83.1429 161.075 82.7163 161.211C81.6192 161.563 80.6635 165.262 80.1233 167.838C80.1382 166.567 80.2059 165.094 80.363 163.455C80.4502 162.554 80.3163 161.963 79.9562 161.649C79.5962 161.335 78.9766 161.318 78.0723 161.65C78.0616 161.654 78.0525 161.661 78.0458 161.67C78.0392 161.68 78.0352 161.691 78.0341 161.704C78.0357 161.719 78.0161 162.033 78.0005 162.556C77.8544 163.829 77.4218 167.423 76.9346 169.892C76.5462 171.855 76.1673 172.286 76.0011 172.227C75.869 172.182 75.6186 171.672 75.605 170.066C75.5835 167.224 75.8788 161.842 75.8818 161.789C75.8825 161.768 75.8755 161.745 75.8621 161.726C75.8486 161.706 75.8298 161.691 75.8095 161.684C75.2624 161.481 74.8429 161.417 74.5571 161.49C73.57 161.543 72.6315 163.635 72.4893 165.036C72.3787 166.125 73.0181 166.823 73.0446 166.849C73.0613 166.866 73.082 166.878 73.103 166.882L73.121 166.885C73.1333 166.884 73.1445 166.88 73.1537 166.873C73.1629 166.866 73.1699 166.856 73.1742 166.845C73.3423 166.317 73.5471 165.811 73.787 165.331C73.6969 166.373 73.6587 167.433 73.6727 168.506C73.4925 168.11 73.24 167.742 72.9335 167.426C72.627 167.11 72.274 166.856 71.9 166.681C71.4603 166.462 71.0144 166.253 70.5846 166.056L70.2046 165.881C70.2118 163.389 69.5968 162.471 69.2128 162.142C69.0786 162.027 68.9263 161.947 68.7719 161.909C68.6174 161.87 68.4664 161.876 68.3345 161.925C67.7392 162.111 67.3301 162.922 67.3409 163.893C67.3537 165.081 67.8611 165.802 68.5474 166.338C68.5239 166.64 68.4948 166.966 68.46 167.316C68.3175 168.795 67.9398 172.722 67.1812 173.141C67.1546 173.159 67.1236 173.169 67.09 173.172C67.0564 173.176 67.0208 173.171 66.9853 173.16C66.8513 173.111 66.4306 172.571 66.6351 167.7C66.7454 165.072 66.9854 162.454 66.9869 162.427C66.9886 162.408 66.9832 162.387 66.9719 162.369C66.9605 162.35 66.9439 162.335 66.9253 162.326C66.9088 162.323 65.2405 161.528 64.9417 162.625L64.9158 162.724C64.298 162.364 63.4988 162.075 62.7763 162.34C62.0537 162.605 61.6049 164.397 61.3928 166.073C60.8746 169.575 58.9516 172.988 58.1041 173.007C58.0612 173.007 58.0164 172.995 57.9735 172.973C57.9306 172.951 57.8909 172.919 57.8579 172.88C57.2639 172.257 56.75 169.57 56.9139 165.62C57.1797 159.284 59.0954 155.621 59.8405 155.756C59.8627 155.76 59.8851 155.769 59.9057 155.783C59.9263 155.797 59.9446 155.816 59.9589 155.837C60.2603 156.261 59.9013 157.971 59.7569 158.704C59.448 160.2 58.4067 162.828 58.3964 162.855C58.3921 162.865 58.3906 162.877 58.3919 162.889C58.3933 162.901 58.3976 162.914 58.4043 162.925C58.5417 163.191 58.8832 163.377 59.3189 163.428C59.7106 163.483 60.14 163.398 60.2158 163.164C60.2955 163.017 61.639 160.582 61.3284 157.24C61.243 156.342 61.0141 155.747 60.6276 155.368C60.3114 155.063 59.8986 154.913 59.3674 154.906C57.8686 154.888 55.2093 157.118 54.7483 165.586C54.6211 167.89 54.9935 171.918 56.5364 173.564C56.8798 173.942 57.3176 174.196 57.7574 174.271C57.8803 174.293 58.0021 174.303 58.1215 174.303C59.7709 174.293 60.8639 172.95 61.5382 171.656C61.5904 171.886 61.6468 172.101 61.7105 172.3C62.0702 173.433 62.635 174.098 63.3406 174.225L63.3812 174.231C64.307 174.371 64.8308 173.132 65.1232 171.501C65.5354 173.421 66.0827 173.878 66.9829 174.04C67.4157 174.117 68.2521 174.038 68.9932 172.642C69.6173 171.467 70.0061 169.666 70.1495 167.282C70.6039 167.509 71.046 167.782 71.4683 168.097C72.1246 168.616 72.2969 169.366 72.3272 169.903C72.3453 170.618 72.2077 171.287 71.9248 171.86C71.8576 171.929 71.7681 171.972 71.6665 171.982C71.6333 171.981 71.5988 171.973 71.5654 171.957C71.532 171.941 71.5005 171.918 71.4731 171.89C71.1997 171.625 71.072 170.56 71.638 169.023C71.6431 169.012 71.6449 169 71.6434 168.986C71.6419 168.973 71.6371 168.959 71.6295 168.946C71.6216 168.934 71.6113 168.922 71.5995 168.914C71.5877 168.905 71.5748 168.899 71.5618 168.896C71.3337 168.84 71.1119 168.856 70.9241 168.941C70.9108 168.947 70.9007 168.959 70.8951 168.973C70.0374 171.22 69.8667 172.71 70.3859 173.404C70.4811 173.524 70.5961 173.625 70.722 173.7C70.848 173.775 70.9815 173.821 71.1122 173.835C71.2199 173.853 71.3267 173.862 71.4315 173.862L71.4531 173.857C72.0567 173.97 72.8413 173.878 73.3234 172.913C73.6066 172.364 73.8108 171.759 73.9309 171.113C74.1095 171.96 74.3988 172.66 74.8232 173.086C75.0462 173.31 75.3194 173.457 75.592 173.501C75.8078 173.536 76.0183 173.531 76.2138 173.485C77.3933 173.237 77.9422 171.64 78.1725 169.849C78.2478 170.678 78.3696 171.514 78.5373 172.352C78.6295 172.794 78.8144 173.101 79.0818 173.26C79.1773 173.316 79.278 173.353 79.3777 173.369C79.8543 173.456 80.334 173.172 80.3575 173.158C80.3683 173.152 80.3764 173.143 80.381 173.131C80.3857 173.118 80.3866 173.104 80.3838 173.089C80.3838 173.089 80.3702 172.968 80.3458 172.748C80.2828 168.884 81.6886 165.921 82.2498 164.898C82.087 166.089 81.7309 169.255 82.3468 171.665C82.4954 172.242 82.6623 172.679 83.0016 172.939C83.2746 173.148 83.6236 173.217 84.1182 173.16C84.8838 173.069 85.4942 171.653 85.9269 170.166C86.3498 171.613 86.9902 172.639 87.7212 172.874C87.8099 172.903 87.8988 172.925 87.9873 172.941C88.3705 173.011 88.7326 172.943 89.0147 172.747C89.7016 172.281 90.0979 171.104 90.1947 169.242C90.713 169.094 91.1918 168.864 91.6183 168.559C91.6295 168.552 91.6375 168.54 91.6412 168.526C91.6634 168.447 92.1071 166.728 91.5727 165.977ZM86.8665 167.686C87.1684 168.207 87.5949 168.652 88.0872 168.961C88.2752 169.075 88.4711 169.163 88.669 169.222C88.5428 170.608 88.2877 171.62 87.9769 171.827C87.9583 171.843 87.9359 171.853 87.9109 171.858C87.886 171.862 87.8591 171.86 87.832 171.853C87.4425 171.726 87.0032 170.053 86.8668 167.69L86.8665 167.686ZM88.7561 167.035C88.7577 167.182 88.7563 167.329 88.7547 167.474C88.5164 167.395 88.2846 167.263 88.0763 167.087C86.698 165.937 87.1431 163.171 87.3813 162.1C87.4319 161.986 87.5059 161.889 87.5992 161.815C87.6379 161.785 87.6886 161.773 87.7431 161.78L87.7671 161.783C88.2427 161.954 88.7346 163.808 88.7565 167.038L88.7561 167.035ZM68.6299 165.037C68.305 164.774 68.2042 164.347 68.176 164.027C68.1179 163.374 68.3309 162.766 68.4319 162.732L68.4529 162.735C68.4545 162.734 68.4562 162.734 68.4581 162.734C68.4599 162.734 68.4617 162.735 68.4634 162.736C68.5366 162.809 68.7143 163.158 68.6302 165.04L68.6299 165.037ZM64.6648 165.88C64.6666 166.107 64.6693 166.423 64.6766 166.793C64.6145 167.403 64.5395 168.081 64.4525 168.759C63.9726 172.684 63.657 172.875 63.5994 172.875C63.5693 172.871 63.4647 172.82 63.3545 172.415C63.2544 171.99 63.1923 171.566 63.169 171.149C62.9634 168.404 63.45 163.492 64.6852 163.717C64.7084 163.72 64.7317 163.731 64.7522 163.748C64.6962 164.359 64.664 165.103 64.6652 165.883L64.6648 165.88Z" fill="#E5476D"/>
<path d="M91.971 175.687C91.2858 175.958 90.7279 176.478 90.4088 177.142C90.0914 176.476 89.5329 175.956 88.8466 175.687C89.5326 175.416 90.0907 174.895 90.4088 174.229C90.7278 174.894 91.2856 175.415 91.971 175.687Z" fill="#E5476D"/>
</g>
<defs>
<radialGradient id="paint0_radial_1671_62392" cx="0" cy="0" r="1" gradientUnits="userSpaceOnUse" gradientTransform="translate(59.9554 83.9039) rotate(154.677) scale(11.1965 12.742)">
<stop stop-color="#FFD100"/>
<stop offset="1" stop-color="#F46F00"/>
</radialGradient>
<radialGradient id="paint1_radial_1671_62392" cx="0" cy="0" r="1" gradientUnits="userSpaceOnUse" gradientTransform="translate(58.4552 80.7342) rotate(154.677) scale(11.119 12.6539)">
<stop stop-color="#FFEF00"/>
<stop offset="1" stop-color="#FBBA00"/>
</radialGradient>
<radialGradient id="paint2_radial_1671_62392" cx="0" cy="0" r="1" gradientUnits="userSpaceOnUse" gradientTransform="translate(57.2296 80.2833) rotate(154.677) scale(8.84402 10.0649)">
<stop stop-color="#FFD100"/>
<stop offset="1" stop-color="#F46F00"/>
</radialGradient>
<radialGradient id="paint3_radial_1671_62392" cx="0" cy="0" r="1" gradientUnits="userSpaceOnUse" gradientTransform="translate(21.3403 135.695) rotate(103.28) scale(11.2031 12.7342)">
<stop stop-color="#FFD100"/>
<stop offset="1" stop-color="#F46F00"/>
</radialGradient>
<radialGradient id="paint4_radial_1671_62392" cx="0" cy="0" r="1" gradientUnits="userSpaceOnUse" gradientTransform="translate(17.9334 134.889) rotate(103.28) scale(11.1256 12.646)">
<stop stop-color="#FFEF00"/>
<stop offset="1" stop-color="#FBBA00"/>
</radialGradient>
<radialGradient id="paint5_radial_1671_62392" cx="0" cy="0" r="1" gradientUnits="userSpaceOnUse" gradientTransform="translate(16.808 135.568) rotate(103.28) scale(8.84931 10.0586)">
<stop stop-color="#FFD100"/>
<stop offset="1" stop-color="#F46F00"/>
</radialGradient>
<radialGradient id="paint6_radial_1671_62392" cx="0" cy="0" r="1" gradientUnits="userSpaceOnUse" gradientTransform="translate(110.423 124.64) rotate(-155.231) scale(11.1965 12.7414)">
<stop stop-color="#FFD100"/>
<stop offset="1" stop-color="#F46F00"/>
</radialGradient>
<radialGradient id="paint7_radial_1671_62392" cx="0" cy="0" r="1" gradientUnits="userSpaceOnUse" gradientTransform="translate(111.89 121.454) rotate(-155.231) scale(11.1189 12.6531)">
<stop stop-color="#FFEF00"/>
<stop offset="1" stop-color="#FBBA00"/>
</radialGradient>
<radialGradient id="paint8_radial_1671_62392" cx="0" cy="0" r="1" gradientUnits="userSpaceOnUse" gradientTransform="translate(111.444 120.222) rotate(-155.231) scale(8.844 10.0644)">
<stop stop-color="#FFD100"/>
<stop offset="1" stop-color="#F46F00"/>
</radialGradient>
<linearGradient id="paint9_linear_1671_62392" x1="101.172" y1="227.582" x2="88.8362" y2="157.146" gradientUnits="userSpaceOnUse">
<stop stop-color="#FF957C"/>
<stop offset="0.984" stop-color="#F48767"/>
</linearGradient>
<linearGradient id="paint10_linear_1671_62392" x1="212.854" y1="129.702" x2="191.757" y2="9.24314" gradientUnits="userSpaceOnUse">
<stop offset="0.0111732" stop-color="#512438"/>
<stop offset="0.9944" stop-color="#832E31"/>
</linearGradient>
<linearGradient id="paint11_linear_1671_62392" x1="203.333" y1="146.613" x2="203.333" y2="89.183" gradientUnits="userSpaceOnUse">
<stop stop-color="#FF7459"/>
<stop offset="0.9784" stop-color="#C75659"/>
</linearGradient>
<linearGradient id="paint12_linear_1671_62392" x1="219.963" y1="109.974" x2="201.808" y2="6.31372" gradientUnits="userSpaceOnUse">
<stop offset="0.0159875" stop-color="#FFAE78"/>
<stop offset="1" stop-color="#FF957C"/>
</linearGradient>
<linearGradient id="paint13_linear_1671_62392" x1="196.675" y1="154.313" x2="196.675" y2="0.81627" gradientUnits="userSpaceOnUse">
<stop offset="0.0111732" stop-color="#772438"/>
<stop offset="0.9944" stop-color="#994540"/>
</linearGradient>
<linearGradient id="paint14_linear_1671_62392" x1="181.948" y1="67.076" x2="177.466" y2="41.4866" gradientUnits="userSpaceOnUse">
<stop offset="0.0111732" stop-color="#512438"/>
<stop offset="0.9944" stop-color="#6D1D20"/>
</linearGradient>
<linearGradient id="paint15_linear_1671_62392" x1="72.1013" y1="192.474" x2="72.1013" y2="135.307" gradientUnits="userSpaceOnUse">
<stop offset="0.0167598" stop-color="#E3D1FE"/>
<stop offset="1" stop-color="#EBE8FF"/>
</linearGradient>
<linearGradient id="paint16_linear_1671_62392" x1="71.2312" y1="206.009" x2="71.2312" y2="135.307" gradientUnits="userSpaceOnUse">
<stop offset="0.0167598" stop-color="#E3D1FE"/>
<stop offset="1" stop-color="#EBE8FF"/>
</linearGradient>
<linearGradient id="paint17_linear_1671_62392" x1="71.2312" y1="206.009" x2="71.2312" y2="135.307" gradientUnits="userSpaceOnUse">
<stop stop-color="#8E8EC9"/>
<stop offset="0.9888" stop-color="#BE6888"/>
</linearGradient>
<linearGradient id="paint18_linear_1671_62392" x1="98.5484" y1="168.981" x2="93.9862" y2="142.932" gradientUnits="userSpaceOnUse">
<stop stop-color="#FF957C"/>
<stop offset="0.984" stop-color="#FFAE78"/>
</linearGradient>
<linearGradient id="paint19_linear_1671_62392" x1="204.637" y1="43.4305" x2="204.637" y2="33.0037" gradientUnits="userSpaceOnUse">
<stop offset="0.0111732" stop-color="#772438"/>
<stop offset="0.9944" stop-color="#994540"/>
</linearGradient>
<linearGradient id="paint20_linear_1671_62392" x1="191.029" y1="54.5359" x2="183.227" y2="9.98586" gradientUnits="userSpaceOnUse">
<stop offset="0.0111732" stop-color="#B45E52"/>
<stop offset="0.9944" stop-color="#C16140"/>
</linearGradient>
<linearGradient id="paint21_linear_1671_62392" x1="169.844" y1="141.07" x2="159.264" y2="80.66" gradientUnits="userSpaceOnUse">
<stop offset="0.0111732" stop-color="#B45E52"/>
<stop offset="0.9944" stop-color="#C16140"/>
</linearGradient>
<linearGradient id="paint22_linear_1671_62392" x1="173.122" y1="86.5153" x2="167.799" y2="56.1178" gradientUnits="userSpaceOnUse">
<stop offset="0.0159875" stop-color="#FFAE78"/>
<stop offset="1" stop-color="#FF957C"/>
</linearGradient>
<linearGradient id="paint23_linear_1671_62392" x1="181.359" y1="18.5988" x2="179.627" y2="8.71006" gradientUnits="userSpaceOnUse">
<stop offset="0.0111732" stop-color="#B45E52"/>
<stop offset="0.9944" stop-color="#C16140"/>
</linearGradient>
<linearGradient id="paint24_linear_1671_62392" x1="192.488" y1="263.51" x2="192.488" y2="117.624" gradientUnits="userSpaceOnUse">
<stop stop-color="#EDE3FC"/>
<stop offset="1" stop-color="white"/>
</linearGradient>
<linearGradient id="paint25_linear_1671_62392" x1="199.843" y1="148.775" x2="199.843" y2="115.34" gradientUnits="userSpaceOnUse">
<stop offset="0.0111732" stop-color="#EFEDFF"/>
<stop offset="1" stop-color="#EBE8FF"/>
</linearGradient>
<linearGradient id="paint26_linear_1671_62392" x1="195.929" y1="228.208" x2="195.929" y2="179.445" gradientUnits="userSpaceOnUse">
<stop stop-color="#8E81F4"/>
<stop offset="0.9888" stop-color="#BE6888"/>
</linearGradient>
<linearGradient id="paint27_linear_1671_62392" x1="116.915" y1="217.561" x2="116.915" y2="192.603" gradientUnits="userSpaceOnUse">
<stop offset="0.0111732" stop-color="#EFEDFF"/>
<stop offset="1" stop-color="#EBE8FF"/>
</linearGradient>
<linearGradient id="paint28_linear_1671_62392" x1="155.817" y1="231.086" x2="155.817" y2="209.622" gradientUnits="userSpaceOnUse">
<stop offset="0.0111732" stop-color="#BE6888"/>
<stop offset="1" stop-color="#8E81F4"/>
</linearGradient>
<clipPath id="clip0_1671_62392">
<rect width="193" height="264" fill="white" transform="matrix(-1 0 0 1 193 0)"/>
</clipPath>
</defs>
</svg>
