<svg width="118" height="34" viewBox="0 0 118 34" fill="none" xmlns="http://www.w3.org/2000/svg">
<path d="M15.3307 0.114258C7.38751 0.114258 0.974854 7.66898 0.974854 17.0213C0.974854 18.6825 1.18796 20.3436 1.61418 21.9137C1.88541 21.4814 2.13727 21.049 2.36975 20.5711C3.37718 18.8418 4.34586 17.1124 5.31454 15.3375L6.03136 13.9949C6.26384 13.5626 6.49633 13.1075 6.70943 12.6524C7.1744 11.7649 7.63937 10.8547 8.04621 9.96724C8.25932 9.51214 8.47243 9.07979 8.70492 8.60193C8.9374 8.14683 9.13113 7.71448 9.34424 7.23662C9.55735 6.75877 9.77046 6.30366 9.94483 5.87131L10.526 4.48325L10.5842 4.39223C10.8941 3.64131 11.6691 3.34549 12.3278 3.68682C12.7927 4.00539 13.0833 4.57427 13.064 5.23417C13.064 6.0306 12.9284 6.87254 12.8702 7.66897C12.8121 8.46541 12.7927 9.30734 12.7346 10.1493C12.6765 11.7877 12.6571 13.4715 12.6571 15.1099C12.6571 16.7483 12.7346 18.3867 12.8702 19.9795C12.9477 20.7532 13.064 21.5269 13.1802 22.3005C13.2771 22.9832 13.4708 23.6659 13.742 24.2802C13.8195 24.4623 13.9358 24.6443 14.052 24.8036C14.1295 24.8719 14.0714 24.8264 14.1295 24.8264C14.1876 24.8264 14.1489 24.8264 14.1876 24.8264L14.2458 24.8036H14.2651L14.3426 24.7809C14.362 24.7581 14.4201 24.7126 14.4395 24.6898C14.6526 24.5078 14.827 24.2802 15.0207 24.0299C15.4469 23.4383 15.8344 22.8467 16.1831 22.2095C16.5512 21.5496 16.8999 20.8442 17.2293 20.1388C17.9074 18.7052 18.5467 17.2489 19.1473 15.7698C19.4379 15.0189 19.7479 14.2907 20.0385 13.517C20.3291 12.7661 20.6197 11.9925 20.8909 11.2643C21.1621 10.4906 21.9177 10.1265 22.5764 10.4223C23.0026 10.6044 23.2932 11.0367 23.3707 11.5601C23.3707 11.7421 23.3901 11.9925 23.4288 12.2428L23.5063 12.9482C23.5645 13.4033 23.6032 13.8811 23.7001 14.3362C23.8357 15.2692 23.9907 16.2022 24.2038 17.0896C24.4169 17.9771 24.6688 18.8873 24.9981 19.752C25.3081 20.6167 25.7149 21.4131 26.2186 22.164C26.3155 22.3461 26.2961 22.5964 26.1605 22.7101C26.0249 22.8239 25.8505 22.8239 25.7343 22.7101C25.0756 22.0275 24.4944 21.2538 23.9907 20.4119C23.487 19.5699 23.0607 18.6825 22.6733 17.7723C22.402 17.1579 22.2083 16.5435 21.9564 15.9063C21.8015 16.2704 21.6658 16.6573 21.5109 16.9986C20.8715 18.5232 20.2516 20.025 19.5154 21.5496C19.1473 22.3461 18.7792 23.097 18.353 23.8479C17.9267 24.6216 17.4618 25.3725 16.9581 26.0551C16.6675 26.4647 16.3187 26.8061 15.9894 27.1474C15.8925 27.2384 15.7763 27.3294 15.6407 27.3977L15.4082 27.557L15.2726 27.6252H15.2532L15.1757 27.648H15.1176L15.0207 27.6708C14.9432 27.6935 14.8851 27.739 14.8076 27.739C14.6526 27.7618 14.4976 27.8073 14.3426 27.83C13.9939 27.8528 13.6258 27.8073 13.3158 27.6708C13.0059 27.5342 12.7152 27.3294 12.444 27.0791C12.0565 26.6695 11.7078 26.1917 11.4753 25.6228C11.1072 24.7581 10.836 23.8251 10.681 22.8694C10.526 22.0047 10.4098 21.0945 10.3323 20.2298C10.1773 18.5004 10.1192 16.7938 10.0998 15.0644C10.0998 14.268 10.0998 13.426 10.0998 12.6296C9.82858 13.2212 9.57673 13.8129 9.3055 14.359C9.09239 14.8141 8.87928 15.292 8.64679 15.7471L7.98809 17.1351C7.09691 19.001 6.16698 20.8215 5.1983 22.6419C4.59771 23.8251 3.95839 24.9856 3.31906 26.1462C7.65874 33.9512 16.5706 36.1129 23.2157 31.0158C29.8609 25.9186 31.7014 15.4512 27.3617 7.64622C24.6881 2.98141 20.1935 0.114258 15.3307 0.114258Z" fill="url(#paint0_linear_2146_47582)"/>
<path d="M42.1431 23.0748V11.8565H41.9106L38.8496 23.1203H38.094L35.033 11.8793H34.8005V23.0976H33.5413V10.7188H35.7886L38.5009 20.5717L41.1551 10.7188H43.4218V23.1431H42.1431V23.0748Z" fill="url(#paint1_linear_2146_47582)"/>
<path d="M45.2639 12.3109V10.6953H46.6394V12.3109H45.2639ZM45.2833 23.0741V13.517H46.6201V23.0741H45.2833Z" fill="url(#paint2_linear_2146_47582)"/>
<path d="M54.7794 19.957C54.7794 21.8229 54.1788 23.2337 51.544 23.2337C48.2311 23.2337 48.0374 21.0037 48.0374 18.2731C48.0374 15.5425 48.2311 13.3125 51.544 13.3125C54.1788 13.3125 54.7794 14.7461 54.7794 16.5892H53.5201C53.5201 15.0646 53.0745 14.3365 51.544 14.3365C49.4904 14.3365 49.3741 15.6335 49.3741 18.2276C49.3741 20.8217 49.471 22.1187 51.544 22.1187C53.0745 22.1187 53.5201 21.3678 53.5201 19.866L54.7794 19.957Z" fill="url(#paint3_linear_2146_47582)"/>
<path d="M57.3905 14.5411C58.0299 14.086 58.8436 13.4488 59.5991 13.4261C59.7541 13.4033 59.9091 13.4033 60.0641 13.4033C60.2772 13.4033 60.4516 13.4033 60.7034 13.4261L60.6066 14.5638C60.3935 14.5411 60.2191 14.5411 60.0254 14.5411C59.8704 14.5411 59.7154 14.5411 59.5216 14.5638C58.8048 14.5866 58.0492 15.2237 57.4874 15.5878V23.1198H56.1506V13.5171H57.1968L57.3905 14.5411Z" fill="url(#paint4_linear_2146_47582)"/>
<path d="M68.241 18.318C68.241 21.0487 68.0473 23.2787 64.6763 23.2787C61.3053 23.2787 61.1116 21.0487 61.1116 18.318C61.1116 15.5874 61.3053 13.3574 64.6763 13.3574C68.0473 13.3574 68.241 15.5874 68.241 18.318ZM62.4677 18.318C62.4677 20.9121 62.5646 22.2092 64.6763 22.2092C66.788 22.2092 66.8849 20.9349 66.8849 18.318C66.8849 15.7012 66.788 14.4269 64.6763 14.4269C62.5646 14.4269 62.4677 15.6784 62.4677 18.318Z" fill="url(#paint5_linear_2146_47582)"/>
<path d="M70.6991 25.3042C71.2029 25.3724 71.8616 25.3952 72.5978 25.3952C74.6514 25.3952 74.9226 24.7353 74.942 22.2095C74.3414 22.6191 73.4889 23.0742 72.6171 23.0969C69.6336 23.1652 69.4592 21.2765 69.4592 18.2956C69.4592 15.3147 69.6142 13.335 72.4815 13.335C73.4502 13.335 74.3608 13.8583 75.0582 14.3817L75.1938 13.517H76.24V22.0047C76.24 25.4407 75.5813 26.4874 72.8884 26.4874C72.094 26.4874 71.2997 26.3964 70.5442 26.2599L70.6991 25.3042ZM74.942 15.2691C74.3608 14.8368 73.6246 14.4045 72.9077 14.4045C70.9316 14.4045 70.796 15.7015 70.796 18.2956C70.796 20.8442 70.9316 22.0502 72.9077 22.0502C73.6246 22.0502 74.3801 21.5951 74.942 21.2537V15.2691Z" fill="url(#paint6_linear_2146_47582)"/>
<path d="M83.5646 23.0742L83.429 22.2095C82.7703 22.7101 81.8985 23.2562 80.9492 23.2562C77.9656 23.3245 77.7913 21.3448 77.7913 18.2956C77.7913 15.2691 77.9462 13.335 80.9104 13.335C81.8791 13.335 82.7509 13.8583 83.4096 14.3362L83.5452 13.4942H84.5914V23.0514H83.5646V23.0742ZM83.2934 15.2236C82.7315 14.8596 81.976 14.4272 81.2591 14.4272C79.283 14.4272 79.1474 15.7243 79.1474 18.3183C79.1474 20.9124 79.283 22.2095 81.2591 22.2095C81.976 22.2095 82.7122 21.7544 83.2934 21.3448V15.2236Z" fill="url(#paint7_linear_2146_47582)"/>
<path d="M87.438 14.3599C88.0386 13.9275 88.8523 13.4041 89.7241 13.3586C91.0997 13.2904 91.7971 13.7227 92.1458 14.4054C92.7852 13.9503 93.6182 13.3814 94.5481 13.3586C97.3379 13.2676 97.5317 14.9287 97.5317 17.2498V23.0751H96.1949V17.3408C96.1949 15.3611 96.098 14.4054 94.2769 14.4054C93.6182 14.4054 92.9401 14.8605 92.3783 15.2701C92.5139 15.9527 92.572 16.6581 92.5333 17.3863V23.1206H91.3709V17.3635C91.3709 15.3838 91.274 14.4281 89.4529 14.4281C88.8136 14.4281 88.1355 14.8832 87.6124 15.2245V23.0978H86.2756V13.5407H87.3218L87.438 14.3599Z" fill="url(#paint8_linear_2146_47582)"/>
<path d="M99.178 12.3109V10.6953H100.553V12.3109H99.178ZM99.2167 23.0741V13.517H100.553V23.0741H99.2167Z" fill="url(#paint9_linear_2146_47582)"/>
<path d="M103.407 14.3593C104.065 13.9269 104.937 13.4036 105.886 13.3581C108.87 13.267 109.044 14.9282 109.044 17.2492V23.0745H107.708V17.3402C107.708 15.3605 107.572 14.4048 105.596 14.4048C104.879 14.4048 104.123 14.8599 103.562 15.2467V23.12H102.225V13.5173H103.271L103.407 14.3593Z" fill="url(#paint10_linear_2146_47582)"/>
<path d="M111.656 25.3042C112.16 25.3724 112.819 25.3952 113.555 25.3952C115.608 25.3952 115.88 24.7353 115.899 22.2095C115.298 22.6191 114.446 23.0742 113.574 23.0969C110.591 23.1652 110.416 21.2765 110.416 18.2956C110.416 15.3147 110.571 13.335 113.439 13.335C114.407 13.335 115.318 13.8583 116.015 14.3817L116.151 13.517H117.197V22.0047C117.197 25.4407 116.538 26.4874 113.845 26.4874C113.051 26.4874 112.257 26.3964 111.501 26.2599L111.656 25.3042ZM115.88 15.2691C115.298 14.8368 114.562 14.4045 113.845 14.4045C111.869 14.4045 111.734 15.7015 111.734 18.2956C111.734 20.8442 111.869 22.0502 113.845 22.0502C114.562 22.0502 115.318 21.5951 115.88 21.2537V15.2691Z" fill="url(#paint11_linear_2146_47582)"/>
<defs>
<linearGradient id="paint0_linear_2146_47582" x1="-1.26415" y1="21.6542" x2="116.491" y2="-2.49832" gradientUnits="userSpaceOnUse">
<stop stop-color="#21E418"/>
<stop offset="0.3" stop-color="#31B6E9"/>
<stop offset="0.9757" stop-color="#21E418"/>
</linearGradient>
<linearGradient id="paint1_linear_2146_47582" x1="-0.00575784" y1="27.7928" x2="117.749" y2="3.64029" gradientUnits="userSpaceOnUse">
<stop stop-color="#21E418"/>
<stop offset="0.3" stop-color="#31B6E9"/>
<stop offset="0.9757" stop-color="#21E418"/>
</linearGradient>
<linearGradient id="paint2_linear_2146_47582" x1="0.402567" y1="29.7759" x2="118.158" y2="5.62318" gradientUnits="userSpaceOnUse">
<stop stop-color="#21E418"/>
<stop offset="0.3" stop-color="#31B6E9"/>
<stop offset="0.9757" stop-color="#21E418"/>
</linearGradient>
<linearGradient id="paint3_linear_2146_47582" x1="0.982011" y1="32.5858" x2="118.737" y2="8.43328" gradientUnits="userSpaceOnUse">
<stop stop-color="#21E418"/>
<stop offset="0.3" stop-color="#31B6E9"/>
<stop offset="0.9757" stop-color="#21E418"/>
</linearGradient>
<linearGradient id="paint4_linear_2146_47582" x1="1.27395" y1="34.0299" x2="119.029" y2="9.87732" gradientUnits="userSpaceOnUse">
<stop stop-color="#21E418"/>
<stop offset="0.3" stop-color="#31B6E9"/>
<stop offset="0.9757" stop-color="#21E418"/>
</linearGradient>
<linearGradient id="paint5_linear_2146_47582" x1="1.70697" y1="36.1338" x2="119.462" y2="11.9813" gradientUnits="userSpaceOnUse">
<stop stop-color="#21E418"/>
<stop offset="0.3" stop-color="#31B6E9"/>
<stop offset="0.9757" stop-color="#21E418"/>
</linearGradient>
<linearGradient id="paint6_linear_2146_47582" x1="2.4657" y1="39.8461" x2="120.221" y2="15.6933" gradientUnits="userSpaceOnUse">
<stop stop-color="#21E418"/>
<stop offset="0.3" stop-color="#31B6E9"/>
<stop offset="0.9757" stop-color="#21E418"/>
</linearGradient>
<linearGradient id="paint7_linear_2146_47582" x1="2.65898" y1="40.7809" x2="120.414" y2="16.6283" gradientUnits="userSpaceOnUse">
<stop stop-color="#21E418"/>
<stop offset="0.3" stop-color="#31B6E9"/>
<stop offset="0.9757" stop-color="#21E418"/>
</linearGradient>
<linearGradient id="paint8_linear_2146_47582" x1="3.19395" y1="43.3951" x2="120.949" y2="19.2427" gradientUnits="userSpaceOnUse">
<stop stop-color="#21E418"/>
<stop offset="0.3" stop-color="#31B6E9"/>
<stop offset="0.9757" stop-color="#21E418"/>
</linearGradient>
<linearGradient id="paint9_linear_2146_47582" x1="3.35929" y1="44.1988" x2="121.113" y2="20.0467" gradientUnits="userSpaceOnUse">
<stop stop-color="#21E418"/>
<stop offset="0.3" stop-color="#31B6E9"/>
<stop offset="0.9757" stop-color="#21E418"/>
</linearGradient>
<linearGradient id="paint10_linear_2146_47582" x1="3.95257" y1="47.0708" x2="121.708" y2="22.9182" gradientUnits="userSpaceOnUse">
<stop stop-color="#21E418"/>
<stop offset="0.3" stop-color="#31B6E9"/>
<stop offset="0.9757" stop-color="#21E418"/>
</linearGradient>
<linearGradient id="paint11_linear_2146_47582" x1="4.7142" y1="50.8006" x2="122.469" y2="26.6481" gradientUnits="userSpaceOnUse">
<stop stop-color="#21E418"/>
<stop offset="0.3" stop-color="#31B6E9"/>
<stop offset="0.9757" stop-color="#21E418"/>
</linearGradient>
</defs>
</svg>
