<svg width="103" height="36" viewBox="0 0 103 36" fill="none" xmlns="http://www.w3.org/2000/svg">
<path d="M53.868 0L52.8293 0L52.8293 36H53.868L53.868 29.0733H66.9869V24.8793H56.893V20.0496H65.5218V15.824L56.893 15.824V11.1523L66.9869 11.1523V6.92672L53.868 6.92672V0Z" fill="#88BC40"/>
<path d="M13.0315 20.6884L9.30359 14.6542L4.52518 7.18245L4.47779 7.10742H0.516846L0.516846 29.254H4.91219L4.91219 15.6414L8.18995 20.9451L13.462 29.254L17.4545 29.254L17.4545 7.10742H13.0315L13.0315 20.6884Z" fill="#19161B"/>
<path d="M19.927 29.255H34.4439V25.061H24.35V20.2313H32.9788V16.0057H24.35V11.3339L34.4439 11.3339V7.1084L19.927 7.1084L19.927 29.255Z" fill="#19161B"/>
<path d="M36.2239 11.3655H41.2985V29.255H45.7215V11.3655L50.7645 11.3655V7.1084L36.2239 7.1084V11.3655Z" fill="#19161B"/>
<path d="M81.7073 20.5438L77.9794 14.5136L73.201 7.04187L73.1536 6.96289H69.1926V29.1094H73.584V15.4969L76.8618 20.8005L82.1378 29.1094L86.1303 29.1094V6.96289H81.7073V20.5438Z" fill="#88BC40"/>
<path d="M87.9426 6.96191V11.219H93.0172V29.1085H97.4402V11.219L102.483 11.219V6.96191L87.9426 6.96191Z" fill="#88BC40"/>
</svg>
