<svg width="130" height="37" viewBox="0 0 130 37" fill="none" xmlns="http://www.w3.org/2000/svg">
<path d="M121.601 8.80267C121.493 6.91893 120.823 5.01402 119.503 3.59592C118.055 2.0085 115.978 1.14071 113.859 0.886719H81.3556C76.5979 1.41586 72.2944 4.56954 70.2183 8.7815V8.80267C49.8685 8.80267 29.497 8.80267 9.14713 8.80267C5.86002 8.80267 2.85404 11.3637 2.20526 14.4962C1.49161 17.2689 0.691459 19.9781 0.0859375 22.772V24.1689C0.237318 25.206 0.69146 26.2432 1.44836 26.9628C2.4864 27.9576 3.95695 28.3174 5.38425 28.3174C25.107 28.3174 44.8297 28.3174 64.5524 28.3174C64.6605 30.2435 65.3958 32.1061 66.7582 33.503C68.1422 34.9634 70.175 35.81 72.2079 36.0217H104.322C109.188 35.6407 113.643 32.5082 115.892 28.2962L121.601 8.80267Z" fill="#2185C7"/>
<path d="M123.116 6.38934C123.376 6.55867 123.657 6.70683 123.96 6.79149C124.263 6.87615 124.565 6.89732 124.89 6.87615C125.301 6.83382 125.712 6.68566 126.036 6.43167C126.317 6.24118 126.533 5.98719 126.685 5.71204C126.923 5.30989 127.031 4.86541 127.009 4.42093C127.009 4.10345 126.901 3.74363 126.75 3.44731C126.62 3.17216 126.425 2.91817 126.187 2.72768C125.885 2.47369 125.539 2.2832 125.149 2.19854C124.89 2.15621 124.652 2.11387 124.392 2.15621C124.003 2.17737 123.657 2.30437 123.333 2.47369C123.008 2.66418 122.706 2.93933 122.489 3.27799C122.295 3.59547 122.165 3.99762 122.143 4.39977C122.122 4.84425 122.23 5.33106 122.446 5.71204C122.641 5.94486 122.857 6.17769 123.116 6.38934ZM122.684 4.27278C122.727 3.93412 122.857 3.59547 123.073 3.34148C123.311 3.06633 123.571 2.83351 123.917 2.72768C124.09 2.64302 124.263 2.62185 124.457 2.60068C124.717 2.57952 124.998 2.60068 125.214 2.70651C125.539 2.81234 125.82 3.00283 126.058 3.25682C126.317 3.53198 126.468 3.84946 126.512 4.20928C126.555 4.52676 126.533 4.88658 126.404 5.1829C126.295 5.43689 126.166 5.64854 125.971 5.83903C125.798 6.00836 125.582 6.15652 125.366 6.26235C125.063 6.38934 124.717 6.43167 124.349 6.41051C123.938 6.36818 123.571 6.17769 123.29 5.90253C123.03 5.66971 122.857 5.37339 122.749 5.05591C122.662 4.78075 122.641 4.5056 122.684 4.27278ZM124.176 5.69088C124.176 5.37339 124.176 5.07707 124.176 4.73842C124.263 4.73842 124.328 4.73842 124.436 4.73842C124.479 4.73842 124.565 4.75958 124.609 4.78075C124.652 4.80192 124.717 4.86541 124.738 4.92891C124.782 5.01357 124.825 5.07707 124.868 5.16173C124.955 5.33106 125.041 5.50038 125.128 5.69088C125.366 5.69088 125.582 5.69088 125.82 5.69088C125.69 5.45805 125.582 5.2464 125.474 5.01357C125.43 4.88658 125.344 4.75958 125.236 4.67492C125.149 4.59026 125.084 4.56909 124.998 4.54793C125.041 4.52676 125.084 4.52676 125.128 4.5056C125.257 4.46326 125.366 4.35744 125.409 4.25161C125.452 4.14578 125.495 4.06112 125.495 3.95529C125.495 3.84946 125.495 3.7648 125.452 3.65897C125.43 3.57431 125.366 3.51081 125.322 3.46848C125.214 3.36265 125.063 3.32032 124.911 3.27799C124.782 3.25682 124.652 3.25682 124.501 3.25682C124.176 3.25682 123.852 3.25682 123.506 3.25682C123.506 4.08228 123.506 4.92891 123.506 5.75437C123.744 5.69088 123.982 5.69088 124.176 5.69088ZM124.176 3.6378C124.263 3.6378 124.328 3.6378 124.436 3.6378C124.544 3.6378 124.63 3.6378 124.717 3.68014C124.76 3.7013 124.825 3.7648 124.847 3.80713C124.868 3.89179 124.868 3.95529 124.868 3.99762C124.868 4.08228 124.847 4.14578 124.76 4.16695C124.674 4.20928 124.609 4.25161 124.501 4.25161C124.392 4.25161 124.306 4.25161 124.198 4.25161C124.176 4.06112 124.176 3.87063 124.176 3.6378Z" fill="#2185C7"/>
<path d="M115.891 28.2744C118.118 28.1685 120.454 28.5707 122.638 27.8934C125.082 27.0891 127.006 25.036 127.612 22.5596C128.325 19.8504 129.19 17.1836 129.839 14.4532V13.0351C129.601 11.5112 128.693 10.0931 127.287 9.39461C125.536 8.46332 123.503 8.88663 121.6 8.80197L115.891 28.2744Z" fill="#2185C7"/>
<path d="M13.9458 20.8878C12.951 20.9725 11.9346 20.909 10.9614 20.909C10.6587 21.8614 10.3559 22.8351 10.0531 23.7664C9.03673 23.7664 8.02032 23.7664 7.00391 23.7664C8.21495 19.893 9.49087 15.9986 10.7235 12.1253C12.7996 12.1464 14.8541 12.1041 16.9301 12.1253C18.0763 12.1464 19.0062 13.2047 18.8548 14.3265C18.6818 15.5541 18.1628 16.6759 17.8384 17.84C17.341 19.5332 15.7191 20.8243 13.9458 20.8878ZM17.1896 23.7875C18.4007 19.9142 19.6766 16.0409 20.8876 12.1676C21.9041 12.1464 22.9205 12.1464 23.9585 12.1676C23.0502 15.0884 22.0987 17.967 21.1688 20.8878C22.1419 20.8878 23.0719 20.8878 24.0234 20.8878C24.3478 19.893 24.6505 18.9194 24.9533 17.9458C25.9697 17.9458 26.9861 17.9458 28.0025 17.9458C27.397 19.893 26.7699 21.8614 26.1211 23.7875C23.1584 23.7875 20.1956 23.7875 17.1896 23.7875ZM39.0749 15.1519C38.1666 18.0305 37.2151 20.909 36.3068 23.7875C35.2904 23.7875 34.274 23.7875 33.2576 23.7875C33.5603 22.8351 33.8631 21.8614 34.1659 20.9302C33.1927 20.9302 32.2628 20.9302 31.3113 20.9302C31.0085 21.8826 30.7057 22.8562 30.403 23.7875C29.3866 23.7875 28.3702 23.7875 27.3538 23.7875C28.262 20.9513 29.1703 18.1151 30.1002 15.2789C30.5976 13.5434 32.3277 12.1252 34.2091 12.1676C35.2904 12.1676 36.4149 12.1253 37.4962 12.2099C38.9019 12.3369 39.6156 13.9455 39.0749 15.1519ZM48.5903 17.9246C48.028 19.5967 46.4061 20.7608 44.6544 20.9302C44.3516 21.8826 44.0488 22.8139 43.7461 23.7664C42.7297 23.7664 41.7133 23.7664 40.6969 23.7664C40.9996 22.8139 41.3024 21.9038 41.6051 20.9513C40.978 20.782 40.2211 20.655 39.8318 20.0624C39.3344 19.3639 39.4209 18.4749 39.6804 17.6918C40.2643 15.8504 40.8699 14.009 41.4538 12.1464C42.4702 12.1253 43.4866 12.1253 44.5246 12.1253C43.8975 14.0725 43.2487 15.9986 42.6432 17.967C43.5731 17.967 44.5462 17.967 45.4978 17.967C46.1249 16.0197 46.7304 14.0513 47.3792 12.1253C48.3956 12.1253 49.412 12.1253 50.4284 12.1253C49.8229 14.0725 49.2174 15.9986 48.5903 17.9246ZM52.072 12.4639C53.3912 12.4639 54.7104 12.4639 56.0511 12.4639C55.6619 13.6068 55.2294 14.7286 54.8617 15.8716C53.5426 15.8716 52.2234 15.8716 50.9042 15.8716C51.2935 14.7286 51.6827 13.5857 52.072 12.4639ZM63.1228 18.8348C62.647 20.4857 62.128 22.1154 61.6522 23.7875C60.6358 23.7875 59.6194 23.7875 58.603 23.7875C59.1004 22.0096 59.6626 20.274 60.1817 18.5173C59.2085 18.5173 58.2786 18.5173 57.3271 18.5173C56.7864 20.2529 56.289 22.0308 55.7484 23.7875C54.732 23.7875 53.7156 23.7875 52.6992 23.7875C53.1965 22.1154 53.6939 20.4222 54.1913 18.7289C54.6671 16.951 56.4188 15.5753 58.3002 15.5964C59.3383 15.5753 60.3763 15.5541 61.4143 15.6176C62.1064 15.6599 62.7768 15.9986 63.0795 16.6124C63.4904 17.2897 63.339 18.1151 63.1228 18.8348Z" fill="white"/>
<path d="M80.9 32.8459C78.2833 32.8882 75.6449 32.8671 73.0498 32.8671C71.3198 32.8882 69.5248 32.1474 68.5517 30.6658C67.5569 29.2054 67.5352 27.3005 68.0759 25.6708C69.5464 21.0567 71.0386 16.4637 72.5092 11.8284C73.7418 7.29899 78.3481 3.74316 83.1923 3.97598C87.5607 3.99715 91.9075 3.97598 96.2759 3.99715C95.5406 6.38887 94.7621 8.75942 93.9836 11.1511C89.3989 11.1511 84.771 11.1723 80.1863 11.1511C78.6076 15.9981 77.0506 20.8662 75.4935 25.7131C77.9372 25.7131 80.3377 25.7131 82.7598 25.7131C83.1491 24.4643 83.5383 23.2155 83.9492 21.9879C82.7382 21.9879 81.4839 21.9879 80.2728 21.9879C81.0081 19.6174 81.7866 17.268 82.5219 14.8974C86.0685 14.8974 89.5935 14.8974 93.1402 14.8974C91.9507 18.5591 90.8046 22.2419 89.5935 25.9247C88.3392 29.5441 84.9007 32.6131 80.9 32.8459ZM113.793 24.9088C112.495 29.5229 107.867 33.0576 102.958 32.9094C100.774 32.8882 98.5682 32.9517 96.384 32.8671C94.7188 32.7824 93.0537 32.0416 92.1238 30.6658C91.0857 29.1631 90.9992 27.237 91.5399 25.5438C93.0537 20.8238 94.5675 16.0827 96.0813 11.3628C97.1626 7.63764 100.493 4.67445 104.321 3.76432C106.635 3.36218 108.992 3.6585 111.327 3.595C113.122 3.55267 115.134 3.51034 116.626 4.71678C118.486 6.09255 118.94 8.65359 118.291 10.749C116.82 15.4478 115.285 20.1677 113.793 24.9088Z" fill="#ED1F24"/>
<path d="M103.845 11.2145C102.331 16.0614 100.774 20.9084 99.2389 25.713C101.466 25.713 103.694 25.713 105.921 25.713C107.478 20.8872 109.014 16.0614 110.528 11.2145C108.322 11.2145 106.073 11.1933 103.845 11.2145ZM11.9141 17.9875C12.8872 17.9875 13.8171 17.9875 14.7687 17.9875C15.0714 17.0139 15.3958 16.0403 15.6986 15.0666C14.7254 15.0666 13.7739 15.0666 12.8007 15.0666C12.498 16.0403 12.1952 17.0139 11.9141 17.9875ZM32.2855 17.9875C33.2154 17.9875 34.1886 17.9875 35.1401 17.9875C35.4429 17.0139 35.7673 16.0403 36.07 15.0666C35.1401 15.0666 34.167 15.0666 33.2154 15.0666C32.8911 16.0403 32.5667 17.0139 32.2855 17.9875Z" fill="#2185C7"/>
</svg>
