<svg width="40" height="20" viewBox="0 0 40 20" fill="none" xmlns="http://www.w3.org/2000/svg">
<path fill-rule="evenodd" clip-rule="evenodd" d="M9.95346 20H10.0232C15.5348 19.9767 20 15.5116 20 10C20 4.48837 15.5349 0.0232558 10.0465 0H9.95346C4.44183 0.0232558 -3.16381e-05 4.48837 -3.16381e-05 10C-0.0232875 15.5116 4.44183 19.9767 9.95346 20Z" fill="#E31818"/>
<path fill-rule="evenodd" clip-rule="evenodd" d="M3.72156 8.11624H8.09365V3.74414H11.8611V8.11624H16.2332V11.8604H11.8611V16.2558H8.09365V11.8604H3.72156V8.11624Z" fill="white"/>
<path d="M36.9762 6.45703L31.9981 11.4171L29.9726 9.39159" stroke="#3FCA89" stroke-width="1.5" stroke-linecap="round" stroke-linejoin="round"/>
<path d="M37.5251 8.74401C38.1304 11.4058 36.7528 14.121 34.2473 15.2045C31.7418 16.288 28.82 15.432 27.2951 13.1679C25.7703 10.9038 26.0755 7.87443 28.0214 5.96001C29.9672 4.04558 33.0011 3.78974 35.2401 5.35127" stroke="#D8D8E4" stroke-linecap="round" stroke-linejoin="round"/>
</svg>
