<svg width="32" height="32" viewBox="0 0 32 32" fill="none" xmlns="http://www.w3.org/2000/svg">
<g clip-path="url(#clip0_1911_59777)">
<path d="M1.75844 21.528C2.99844 22.552 11.1984 22.688 15.9984 22.688C20.7984 22.688 28.9984 22.552 30.2384 21.528C31.4784 21.008 31.5984 18.272 31.5984 16C31.5984 13.728 31.4784 10.992 30.2384 10.472C28.9984 9.44801 20.7984 9.31201 15.9984 9.31201C11.1984 9.31201 2.99844 9.44801 1.75844 10.472C0.518438 10.992 0.398438 13.728 0.398438 16C0.398438 18.272 0.518438 21.008 1.75844 21.528Z" fill="#FEF1ED" stroke="#080708" stroke-miterlimit="10"/>
<path d="M25.8555 11.6001C29.0075 11.8801 28.9915 12.2321 29.1675 13.0881" stroke="white" stroke-miterlimit="10" stroke-linecap="round"/>
</g>
<defs>
<clipPath id="clip0_1911_59777">
<rect width="32" height="32" fill="white"/>
</clipPath>
</defs>
</svg>
