<svg width="34" height="34" viewBox="0 0 34 34" fill="none" xmlns="http://www.w3.org/2000/svg">
<path d="M31.6051 11.3303C30.8338 10.6903 27.4123 10.3949 23.7446 10.2554C23.6051 6.58769 23.3097 3.16615 22.6697 2.39487C22.1364 1.12308 19.3303 1 17 1C14.6697 1 11.8554 1.12308 11.3303 2.39487C10.6903 3.16615 10.3867 6.58769 10.2554 10.2554C6.58769 10.3949 3.16615 10.6903 2.39487 11.3303C1.12308 11.8636 1 14.6697 1 17C1 19.3303 1.12308 22.1364 2.39487 22.6697C3.16615 23.3097 6.58769 23.6051 10.2554 23.7446C10.3867 27.4123 10.6903 30.8338 11.3303 31.6051C11.8554 32.8769 14.6697 33 17 33C19.3303 33 22.1364 32.8769 22.6697 31.6051C23.3097 30.8338 23.6051 27.4123 23.7446 23.7446C27.4123 23.6051 30.8338 23.3097 31.6051 22.6697C32.8769 22.1364 33 19.3303 33 17C33 14.6697 32.8769 11.8636 31.6051 11.3303Z" fill="#ECE7FD" stroke="#080708" stroke-miterlimit="10"/>
<path d="M18.5352 3.10889C20.4387 3.16632 20.9557 3.10889 21.2264 4.01145" stroke="white" stroke-miterlimit="10" stroke-linecap="round"/>
</svg>
