<svg width="24" height="24" viewBox="0 0 24 24" fill="none" xmlns="http://www.w3.org/2000/svg">
<rect x="2" y="2.33398" width="20" height="20" rx="10" fill="#F9480B"/>
<path d="M8.34872 13.7514C8.66667 14.014 10.7692 14.0489 12 14.0489C13.2308 14.0489 15.3333 14.014 15.6513 13.7514C15.9692 13.6181 16 12.9166 16 12.334C16 11.7514 15.9692 11.0499 15.6513 10.9166C15.3333 10.654 13.2308 10.6191 12 10.6191C10.7692 10.6191 8.66667 10.654 8.34872 10.9166C8.03077 11.0499 8 11.7514 8 12.334C8 12.9166 8.03077 13.6181 8.34872 13.7514Z" fill="white" stroke="#080708" stroke-width="0.5" stroke-miterlimit="10"/>
<path d="M14.5273 11.2061C15.3355 11.2778 15.3314 11.3681 15.3766 11.5876" stroke="white" stroke-width="0.5" stroke-miterlimit="10" stroke-linecap="round"/>
</svg>
