<svg width="24" height="24" viewBox="0 0 24 24" fill="none" xmlns="http://www.w3.org/2000/svg">
<rect x="2" y="2.33398" width="20" height="20" rx="10" fill="#7D53FE"/>
<path d="M15.6513 10.9165C15.4585 10.7565 14.6031 10.6827 13.6862 10.6478C13.6513 9.73091 13.5774 8.87552 13.4174 8.6827C13.2841 8.36475 12.5826 8.33398 12 8.33398C11.4174 8.33398 10.7138 8.36475 10.5826 8.6827C10.4226 8.87552 10.3467 9.73091 10.3138 10.6478C9.39692 10.6827 8.54154 10.7565 8.34872 10.9165C8.03077 11.0499 8 11.7514 8 12.334C8 12.9165 8.03077 13.6181 8.34872 13.7514C8.54154 13.9114 9.39692 13.9853 10.3138 14.0201C10.3467 14.9371 10.4226 15.7924 10.5826 15.9853C10.7138 16.3032 11.4174 16.334 12 16.334C12.5826 16.334 13.2841 16.3032 13.4174 15.9853C13.5774 15.7924 13.6513 14.9371 13.6862 14.0201C14.6031 13.9853 15.4585 13.9114 15.6513 13.7514C15.9692 13.6181 16 12.9165 16 12.334C16 11.7514 15.9692 11.0499 15.6513 10.9165Z" fill="white" stroke="#080708" stroke-width="0.5" stroke-miterlimit="10"/>
</svg>
