<svg width="62" height="48" viewBox="0 0 62 48" fill="none" xmlns="http://www.w3.org/2000/svg">
<path d="M58.1823 0V10.1682H52.2266C47.5435 10.1682 45.202 12.4611 45.202 17.0467V21.8318H47.798C51.8703 21.8318 55.2299 23.028 57.8769 25.4206C60.6256 27.8131 62 30.8536 62 34.5421C62 38.5296 60.6256 41.7695 57.8769 44.2617C55.2299 46.7539 51.8703 48 47.798 48C43.624 48 40.2135 46.7539 37.5665 44.2617C34.9195 41.6698 33.5961 38.2305 33.5961 33.9439V16.7477C33.5961 5.58255 39.2972 0 50.6995 0H58.1823ZM24.5862 0V10.1682H18.6305C13.9475 10.1682 11.6059 12.4611 11.6059 17.0467V21.8318H14.202C18.2742 21.8318 21.6338 23.028 24.2808 25.4206C27.0296 27.8131 28.4039 30.8536 28.4039 34.5421C28.4039 38.5296 27.0296 41.7695 24.2808 44.2617C21.6338 46.7539 18.2742 48 14.202 48C10.0279 48 6.61741 46.7539 3.97044 44.2617C1.32348 41.6698 0 38.2305 0 33.9439V16.7477C0 5.58255 5.70115 0 17.1034 0H24.5862Z" fill="#EBEAF2"/>
</svg>
