<svg width="111" height="20" viewBox="0 0 111 20" fill="none" xmlns="http://www.w3.org/2000/svg">
<g clip-path="url(#clip0_1916_60657)">
<path d="M18.4958 7.13063L12.6549 6.23842L10.0369 0.661922C9.84133 0.245505 9.15812 0.245505 8.96258 0.661922L6.34533 6.23842L0.50441 7.13063C0.0246598 7.20426 -0.166924 7.78771 0.169535 8.13209L4.41287 12.4815L3.40983 18.6304C3.32987 19.1188 3.85158 19.4854 4.28304 19.2455L9.50012 16.3623L14.7172 19.2463C15.1447 19.4838 15.6712 19.1244 15.5904 18.6312L14.5874 12.4823L18.8307 8.13288C19.1672 7.78771 18.9748 7.20426 18.4958 7.13063Z" fill="#FECC41"/>
</g>
<g clip-path="url(#clip1_1916_60657)">
<path d="M41.4958 7.13063L35.6549 6.23842L33.0369 0.661922C32.8413 0.245505 32.1581 0.245505 31.9626 0.661922L29.3453 6.23842L23.5044 7.13063C23.0247 7.20426 22.8331 7.78771 23.1695 8.13209L27.4129 12.4815L26.4098 18.6304C26.3299 19.1188 26.8516 19.4854 27.283 19.2455L32.5001 16.3623L37.7172 19.2463C38.1447 19.4838 38.6712 19.1244 38.5904 18.6312L37.5874 12.4823L41.8307 8.13288C42.1672 7.78771 41.9748 7.20426 41.4958 7.13063Z" fill="#FECC41"/>
</g>
<g clip-path="url(#clip2_1916_60657)">
<path d="M64.4958 7.13063L58.6549 6.23842L56.0369 0.661922C55.8413 0.245505 55.1581 0.245505 54.9626 0.661922L52.3453 6.23842L46.5044 7.13063C46.0247 7.20426 45.8331 7.78771 46.1695 8.13209L50.4129 12.4815L49.4098 18.6304C49.3299 19.1188 49.8516 19.4854 50.283 19.2455L55.5001 16.3623L60.7172 19.2463C61.1447 19.4838 61.6712 19.1244 61.5904 18.6312L60.5874 12.4823L64.8307 8.13288C65.1672 7.78771 64.9748 7.20426 64.4958 7.13063Z" fill="#FECC41"/>
</g>
<g clip-path="url(#clip3_1916_60657)">
<path d="M87.4958 7.13063L81.6549 6.23842L79.0369 0.661922C78.8413 0.245505 78.1581 0.245505 77.9626 0.661922L75.3453 6.23842L69.5044 7.13063C69.0247 7.20426 68.8331 7.78771 69.1695 8.13209L73.4129 12.4815L72.4098 18.6304C72.3299 19.1188 72.8516 19.4854 73.283 19.2455L78.5001 16.3623L83.7172 19.2463C84.1447 19.4838 84.6712 19.1244 84.5904 18.6312L83.5874 12.4823L87.8307 8.13288C88.1672 7.78771 87.9748 7.20426 87.4958 7.13063Z" fill="#FECC41"/>
</g>
<g clip-path="url(#clip4_1916_60657)">
<path d="M110.496 7.13063L104.655 6.23842L102.037 0.661922C101.841 0.245505 101.158 0.245505 100.963 0.661922L98.3453 6.23842L92.5044 7.13063C92.0247 7.20426 91.8331 7.78771 92.1695 8.13209L96.4129 12.4815L95.4098 18.6304C95.3299 19.1188 95.8516 19.4854 96.283 19.2455L101.5 16.3623L106.717 19.2463C107.145 19.4838 107.671 19.1244 107.59 18.6312L106.587 12.4823L110.831 8.13288C111.167 7.78771 110.975 7.20426 110.496 7.13063Z" fill="#FECC41"/>
</g>
<defs>
<clipPath id="clip0_1916_60657">
<rect width="19" height="19" fill="white" transform="translate(0 0.333984)"/>
</clipPath>
<clipPath id="clip1_1916_60657">
<rect width="19" height="19" fill="white" transform="translate(23 0.333984)"/>
</clipPath>
<clipPath id="clip2_1916_60657">
<rect width="19" height="19" fill="white" transform="translate(46 0.333984)"/>
</clipPath>
<clipPath id="clip3_1916_60657">
<rect width="19" height="19" fill="white" transform="translate(69 0.333984)"/>
</clipPath>
<clipPath id="clip4_1916_60657">
<rect width="19" height="19" fill="white" transform="translate(92 0.333984)"/>
</clipPath>
</defs>
</svg>
