<svg width="68" height="219" viewBox="0 0 68 219" fill="none" xmlns="http://www.w3.org/2000/svg">
<g clip-path="url(#clip0_1671_65038)">
<path d="M-34.9851 130.683L15.7142 140.43L21.7704 77.7473L0.227531 41.6285L-15.0861 33.6021L-35.6772 37.4242C-35.6772 37.4242 -45.9728 58.2546 -44.329 83.1938C-42.6852 108.133 -38.4458 126.861 -34.9851 130.683Z" fill="url(#paint0_linear_1671_65038)"/>
<path d="M24.3352 82.7489L24.1376 84.2672L23.5013 89.3936L23.429 90.3464C21.6021 105.732 19.5607 121.772 18.4471 129.929C18.382 130.787 18.2422 131.543 18.1916 132.21L17.7891 135.341L4.12344 116.483L8.6906 56.2668C8.6906 56.2668 -5.12245 35.0022 -7.38579 30.0396C-8.94454 26.6635 -11.6736 20.2283 -13.3675 16.4587C-13.7946 15.564 -14.0045 15.0689 -14.0045 15.0689C-14.4244 14.0789 -14.7091 13.4824 -14.7091 13.4824C-14.7091 13.4824 -24.3174 14.001 -26.2447 15.4842C-26.2447 15.4842 -37.5408 24.1162 -40.8708 37.5674C-44.2007 51.0186 -47.2803 81.8333 -39.927 107.784L-42.9618 107.554C-42.9618 107.554 -49.1874 69.9981 -44.5296 44.4775C-39.7897 18.9631 -32.0086 8.81935 -30.2236 7.0379C-28.4387 5.25645 -15.6117 10.156 -9.36837 11.5867C-3.12505 13.0175 8.36035 14.9407 13.5352 18.4946C18.6281 22.0422 26.3431 46.4868 26.9566 53.6244C27.2392 56.4248 25.9861 68.5957 24.3352 82.7489Z" fill="url(#paint1_linear_1671_65038)"/>
<path fill-rule="evenodd" clip-rule="evenodd" d="M50.999 137.013C50.999 137.013 52.1389 142.066 50.2975 144.766L46.3517 140.846L50.999 137.013Z" fill="url(#paint2_radial_1671_65038)"/>
<path d="M43.7287 87.7972V94.5049L53.1986 102.432L61.0026 101.822L64.4223 100.603C64.4223 100.603 67.6666 95.9858 67.9297 95.0275C68.1927 94.0693 67.9297 92.0657 67.9297 92.0657L55.1277 85.271L43.7287 87.7972Z" fill="#F17C57"/>
<path d="M44.418 87.0158C44.418 87.0158 47.3993 78.0433 47.8377 74.9944C48.2761 71.9455 50.9066 61.6663 51.9588 59.7498C51.9588 59.7498 53.9756 59.4885 55.2032 61.4049C56.4308 63.2343 55.2909 71.9455 52.3973 76.0397C52.3973 76.0397 51.3451 81.4407 51.4328 85.1865L44.418 87.0158Z" fill="url(#paint3_linear_1671_65038)"/>
<path d="M6.88367 40.4514C6.88367 40.4514 6.36403 59.1213 -0.823944 70.7362C-1.68996 72.1128 -2.64258 73.4034 -3.6818 74.6079C-11.5626 83.1255 -23.0807 85.9647 -27.6706 85.7066C-32.2605 85.4485 -33.4729 83.9858 -35.1184 82.5232C-36.6772 81.1466 -46.9828 76.2426 -49.4943 68.9295C-51.8326 62.1326 -46.8962 54.8195 -45.5972 50.6897C-45.5106 50.3456 -45.424 50.0875 -45.3374 49.8294C-44.6446 45.9577 -46.6364 36.7518 -45.3374 29.6108C-44.0384 22.4697 -33.7327 12.5755 -23.6003 12.0593C-1.68995 10.9409 6.88367 40.4514 6.88367 40.4514Z" fill="url(#paint4_linear_1671_65038)"/>
<path d="M5.91777 53.4738C5.91777 53.4738 7.58381 50.7733 12.5818 49.7279C12.5818 49.7279 16.1769 49.2053 17.1414 53.3866C17.1414 53.3866 17.5799 61.0525 14.1601 65.4952C10.7404 70.025 4.7779 70.2864 3.37495 69.9379C1.97199 69.5895 2.05968 66.3663 2.05968 66.3663C2.05968 66.3663 4.25176 55.5644 5.91777 53.4738Z" fill="url(#paint5_linear_1671_65038)"/>
<path d="M36.7002 131.618C36.7002 131.618 45.8194 118.725 46.1701 115.066C46.5209 111.321 40.5583 105.833 39.243 101.651C38.3662 98.7765 41.5228 86.668 41.9613 85.7968C42.3997 84.9257 47.9238 83.4448 50.1159 82.835C52.308 82.1381 55.4647 80.7444 56.1662 81.267C56.8677 81.8768 55.64 87.0164 51.9573 88.7587C48.5376 90.3267 46.5209 90.1524 46.5209 90.1524L45.5563 94.2467C45.5563 94.2467 49.0637 95.1178 51.3435 97.4698C53.5356 99.8219 58.0075 100.606 61.1642 100.693C64.3208 100.78 68.0036 95.0307 68.0036 95.0307C68.0036 95.0307 65.2854 107.139 61.3395 112.192C61.3395 112.192 57.9199 115.85 55.9908 116.286C55.9908 116.286 49.6775 141.548 41.0844 156.445L36.7002 131.618Z" fill="url(#paint6_linear_1671_65038)"/>
<path d="M54.4115 83.2632C54.4115 83.2632 56.4282 83.6987 58.5326 85.2668V86.9219C58.5326 86.9219 62.5661 87.4446 63.706 88.7512V89.9708C63.706 89.9708 66.1612 90.4064 67.8272 92.0615C67.8272 92.0615 66.3366 97.114 63.706 98.9433C63.706 98.9433 61.777 98.8562 60.1987 97.5496L59.1464 98.5949C59.1464 98.5949 55.9021 99.1176 55.7268 96.5042L56.7789 92.8455C56.7789 92.8455 55.4637 94.4135 54.8499 94.5877C54.3238 94.8491 51.9563 94.1522 51.8686 92.4099C51.6932 90.6677 54.4115 83.2632 54.4115 83.2632Z" fill="url(#paint7_linear_1671_65038)"/>
<path fill-rule="evenodd" clip-rule="evenodd" d="M31.8867 301.918H-43.4344C-45.0127 295.123 -46.328 288.503 -47.4679 283.015L-47.9063 280.75L-48.2571 279.007L-48.3447 278.659L-48.4325 277.962C-48.4325 277.875 -48.4325 277.875 -48.4325 277.875C-49.2216 273.606 -49.7477 270.47 -49.923 269.338L-45.8896 302.005H-76.2285C-79.3851 288.067 -81.7526 272.126 -83.2432 258.449C-84.1201 249.825 -84.6462 241.985 -84.7339 236.235C-84.8216 232.141 -84.6462 229.005 -84.2078 227.176C-81.7526 216.461 -72.9842 203.656 -66.8462 189.631C-63.9526 183.097 -62.2866 176.651 -61.2344 171.686C-61.2344 171.686 -61.2344 171.686 -61.2344 171.598C-60.0945 165.936 -59.8315 162.103 -59.8315 162.103C-60.3576 161.581 -60.8837 160.971 -61.4098 160.274C-65.4433 154.873 -67.1093 147.033 -66.9339 145.639C-66.7585 144.071 -66.0571 141.022 -62.5497 135.97C-59.0423 130.917 -54.9211 123.6 -55.0965 120.289C-55.2718 116.892 -57.727 112.362 -57.727 112.362C-57.727 112.362 -50.8876 108.355 -45.7142 105.829C-44.1359 105.045 -42.4699 104.174 -40.9793 103.39C-37.4719 101.473 -34.5782 99.6439 -34.5782 99.6439H-32.4738L-32.7369 99.8181C-32.8246 99.8181 -32.8246 99.9053 -32.9123 99.9053C-32.9999 99.9053 -33 99.9924 -33.0876 99.9924C-33.1753 100.079 -33.263 100.079 -33.3507 100.167C-33.7891 100.428 -34.4029 100.863 -35.0167 101.212C-35.2797 101.386 -35.5428 101.473 -35.7182 101.648C-36.5073 102.17 -37.2965 102.606 -37.9103 103.041L-39.2256 103.912C-39.8394 105.045 -40.5408 106.961 -41.1546 109.226C-42.6452 114.453 -44.1359 121.683 -45.1004 127.346C-45.7142 131.091 -46.1526 134.053 -46.1526 135.273C-46.1526 135.273 -46.1526 135.273 -46.1526 135.36C-46.1526 135.534 -46.1526 135.621 -46.1526 135.708C-46.1526 135.795 -46.1526 135.882 -46.065 135.97C-46.065 136.057 -46.065 136.057 -46.065 136.144C-45.9773 136.667 -45.8019 137.276 -45.6265 137.886V137.973C-45.0127 139.977 -44.2236 142.329 -43.8728 143.287V143.374V143.461L-43.7851 143.635C-43.7851 143.635 -37.9979 134.489 -33.8768 129.175C-32.5615 127.433 -29.2295 124.122 -25.2837 120.377C-17.3044 112.536 -6.78219 102.78 -5.64229 100.689C-5.0285 99.5568 -4.5901 98.2501 -4.41473 97.1177C-4.32705 96.5079 -4.23938 95.8981 -4.1517 95.4625C-4.06401 94.5043 -4.06398 93.8945 -4.06398 93.8945H-2.1349C-0.819633 94.5914 2.68771 95.2012 6.80889 95.9852C8.91332 96.4208 10.667 97.2919 11.9823 98.0759C13.2099 98.8599 13.999 99.4697 13.999 99.4697C13.999 99.4697 13.2099 99.9924 12.07 101.038C10.3163 102.519 7.68577 104.958 5.14291 108.181C4.96754 108.442 4.70448 108.704 4.52911 108.965C3.38921 110.533 2.2493 112.275 1.28477 114.105C0.758659 115.063 0.320259 116.021 -0.118164 117.066C-1.6088 120.812 -2.13491 124.558 -2.31028 127.781C-2.39796 129.436 -2.3103 130.917 -2.22262 132.224C-1.95956 135.011 -1.52114 136.928 -1.34577 137.538V137.625C-1.34577 137.712 -1.34577 137.712 -1.34577 137.712C-5.2039 142.242 -9.2374 150.866 -12.3064 159.316C-15.463 168.027 -17.5674 176.564 -17.3921 180.397C-17.0413 188.063 -5.8177 222.646 6.37047 246.602C14.6128 262.979 25.5734 287.632 31.8867 301.918Z" fill="black"/>
<path fill-rule="evenodd" clip-rule="evenodd" d="M51.1621 144.765L43.7965 152.256C40.2892 161.664 26.3473 178.303 25.1197 178.303C23.8921 178.303 15.6498 173.076 12.4054 166.107C9.16109 159.225 9.24878 154.434 8.89804 151.821C8.5473 149.295 2.05864 135.792 2.05864 135.792L-1.36108 137.709C-1.36108 137.709 -2.58864 134.834 -3.02706 130.391C-3.55317 125.774 -3.29016 119.502 -0.221194 112.882C5.82905 99.815 13.8961 99.3794 13.8961 99.3794C13.8961 99.3794 15.4744 100.512 15.6498 101.035C15.7375 101.209 15.6498 102.428 15.6498 104.083V104.258C15.5621 107.045 15.3867 110.965 15.5621 113.84C15.8251 118.457 22.8399 144.678 23.1906 144.765C23.2783 144.765 24.3306 143.981 25.7335 142.761C28.8902 139.974 34.2389 134.834 36.4311 131.437C36.8695 130.74 37.3079 130.043 37.6586 129.433C39.5877 126.123 40.2015 124.381 40.2892 124.206L42.2182 123.597L41.6921 124.468C44.235 139.015 50.6359 143.719 50.6359 143.719C51.6882 140.932 51.5128 137.36 51.4251 136.663C51.7759 139.886 51.1621 144.765 51.1621 144.765Z" fill="black"/>
<path fill-rule="evenodd" clip-rule="evenodd" d="M-21.2539 49.6418C-21.2539 49.6418 -22.7445 42.8471 -16.8696 38.84C-11.0825 34.8328 -3.7169 38.6657 -3.01543 45.112C-3.01543 45.112 -0.472616 44.2409 0.667284 41.4533C0.667284 41.4533 -0.823322 41.8018 -1.87554 41.7147C-1.87554 41.7147 -5.0322 34.6586 -11.8716 34.5715C-18.711 34.4844 -22.9199 42.8471 -21.2539 49.6418Z" fill="url(#paint8_linear_1671_65038)"/>
<path fill-rule="evenodd" clip-rule="evenodd" d="M4.07642 60.9643C4.07642 60.9643 8.89905 54.7793 13.5463 53.9082C13.5463 53.9082 15.3877 55.9989 15.2124 59.1349C15.2124 59.1349 14.5109 55.9118 13.1079 55.2149C13.1079 55.2149 12.7572 55.302 11.8804 55.7376C10.5651 56.2602 8.1099 57.7411 4.07642 60.9643Z" fill="#F3764E"/>
<path fill-rule="evenodd" clip-rule="evenodd" d="M8.38178 57.3938C8.38178 57.3938 11.8015 57.2196 12.5906 57.3938C13.3798 57.5681 13.8182 61.8365 12.5906 63.4917C11.363 65.1468 9.78469 64.1015 7.68026 64.0143C5.57583 63.9272 4.17288 64.4499 4.17288 64.4499C4.17288 64.4499 3.20835 62.0979 4.17288 60.9654C5.04973 59.833 8.38178 57.3938 8.38178 57.3938Z" fill="#F3764E"/>
<path fill-rule="evenodd" clip-rule="evenodd" d="M-17.7529 2.07666C-17.7529 2.07666 -4.60019 21.8511 3.64217 28.4716C11.8845 35.0921 15.2166 33.7854 15.2166 33.7854C15.2166 33.7854 9.42934 45.2842 0.66087 39.4477C-8.10761 33.6112 -13.1933 8.61006 -17.7529 2.07666Z" fill="url(#paint9_linear_1671_65038)"/>
<path fill-rule="evenodd" clip-rule="evenodd" d="M-22.4882 0.0755558C-22.4882 0.0755558 -18.2794 -1.49246 -14.2459 9.65787C-10.2124 20.8082 -6.96806 34.9203 0.660507 39.4502C8.28908 43.98 13.2871 36.6626 13.2871 36.6626C13.2871 36.6626 8.7275 43.196 -0.216339 36.9239C-9.33555 30.4776 -9.68625 0.0755558 -22.4882 0.0755558Z" fill="url(#paint10_linear_1671_65038)"/>
<path fill-rule="evenodd" clip-rule="evenodd" d="M25.6496 142.767L23.1068 144.77C23.1068 144.77 14.6014 150.084 13.7245 153.568C12.6723 157.924 15.7413 164.37 15.7413 164.37C15.7413 164.37 16.4428 155.659 18.5472 152.175C20.5639 148.69 25.6496 142.767 25.6496 142.767Z" fill="url(#paint11_linear_1671_65038)"/>
<path fill-rule="evenodd" clip-rule="evenodd" d="M51.1649 144.77L43.7994 152.261C43.7994 152.261 37.9245 141.721 37.4861 129.525L40.1166 124.298L41.4319 124.56C43.9747 139.107 50.3757 143.811 50.3757 143.811C51.4279 141.024 51.2526 137.452 51.1649 136.755C51.7787 139.891 51.1649 144.77 51.1649 144.77Z" fill="url(#paint12_linear_1671_65038)"/>
<path opacity="0.4" fill-rule="evenodd" clip-rule="evenodd" d="M-2.05956 102.083L5.21826 108.356C5.21826 108.356 -4.164 114.802 -11.0034 116.021C-11.0034 116.021 -7.14526 124.907 -6.70683 128.13C-6.70683 128.13 -28.5403 139.193 -34.6783 142.329C-40.8162 145.552 -44.9374 148.95 -44.9374 148.95L-23.3669 122.555L-2.05956 102.083Z" fill="black"/>
<path fill-rule="evenodd" clip-rule="evenodd" d="M-48.2644 153.562C-48.2644 153.562 -43.6171 140.583 -36.8654 131.872C-30.1137 123.16 -6.17574 99.6401 -5.21121 98.1592C-4.24667 96.5911 -4.07132 93.8036 -4.07132 93.8036L-4.68512 93.1938L-2.84377 92.584C-2.84377 92.584 1.97889 101.818 6.36312 105.912C6.36312 105.912 -2.40533 110.181 -11.4368 112.968C-11.4368 112.968 -6.08805 119.85 -5.21121 125.077C-5.21121 125.077 -21.959 132.917 -31.1659 138.84C-40.3728 144.764 -43.6171 147.552 -44.2309 148.336C-44.757 149.033 -48.2644 153.562 -48.2644 153.562Z" fill="#292329"/>
<path fill-rule="evenodd" clip-rule="evenodd" d="M58.528 85.188C58.528 85.188 57.6511 89.8049 56.7743 92.8538L59.1418 86.9302L58.528 86.8431V85.188Z" fill="#F17C57"/>
<path fill-rule="evenodd" clip-rule="evenodd" d="M63.7054 88.665C63.7054 88.665 61.9517 93.8918 60.1981 97.4633C60.1981 97.4633 63.004 93.1078 64.4069 90.0588L63.6178 89.8846V88.665H63.7054Z" fill="#F17C57"/>
<path fill-rule="evenodd" clip-rule="evenodd" d="M2.06671 135.884L-3.19437 131.528C-3.19437 131.528 -11.1737 149.038 -12.3136 159.491C-8.98158 150.606 -5.73725 144.16 -1.35301 137.887L2.06671 135.884Z" fill="black"/>
</g>
<defs>
<linearGradient id="paint0_linear_1671_65038" x1="-18.9454" y1="133.846" x2="-0.00601633" y2="36.5911" gradientUnits="userSpaceOnUse">
<stop offset="0.0111732" stop-color="#512438"/>
<stop offset="0.9944" stop-color="#832E31"/>
</linearGradient>
<linearGradient id="paint1_linear_1671_65038" x1="-15.2633" y1="132.891" x2="-5.84596" y2="8.4455" gradientUnits="userSpaceOnUse">
<stop offset="0.0111732" stop-color="#772438"/>
<stop offset="0.9944" stop-color="#994540"/>
</linearGradient>
<radialGradient id="paint2_radial_1671_65038" cx="0" cy="0" r="1" gradientUnits="userSpaceOnUse" gradientTransform="translate(48.8363 140.89) scale(3.28898 3.26748)">
<stop stop-color="#B3819D"/>
<stop offset="1" stop-color="#785CA6"/>
</radialGradient>
<linearGradient id="paint3_linear_1671_65038" x1="49.9781" y1="87.0455" x2="49.9781" y2="59.805" gradientUnits="userSpaceOnUse">
<stop offset="0.0159875" stop-color="#FFAE78"/>
<stop offset="1" stop-color="#FF957C"/>
</linearGradient>
<linearGradient id="paint4_linear_1671_65038" x1="-14.2655" y1="86.3736" x2="-25.2487" y2="11.5188" gradientUnits="userSpaceOnUse">
<stop offset="0.0159875" stop-color="#FFAE78"/>
<stop offset="1" stop-color="#FF957C"/>
</linearGradient>
<linearGradient id="paint5_linear_1671_65038" x1="9.60994" y1="69.9889" x2="9.60994" y2="49.6339" gradientUnits="userSpaceOnUse">
<stop offset="0.0215741" stop-color="#FF8359"/>
<stop offset="1" stop-color="#FF8B7C"/>
</linearGradient>
<linearGradient id="paint6_linear_1671_65038" x1="52.2926" y1="156.451" x2="52.2926" y2="81.1179" gradientUnits="userSpaceOnUse">
<stop offset="0.0159875" stop-color="#FFAE78"/>
<stop offset="1" stop-color="#FF957C"/>
</linearGradient>
<linearGradient id="paint7_linear_1671_65038" x1="59.873" y1="98.8797" x2="59.873" y2="83.2469" gradientUnits="userSpaceOnUse">
<stop offset="0.0159875" stop-color="#FFAE78"/>
<stop offset="1" stop-color="#FF957C"/>
</linearGradient>
<linearGradient id="paint8_linear_1671_65038" x1="-10.4681" y1="49.6181" x2="-10.4681" y2="34.6215" gradientUnits="userSpaceOnUse">
<stop stop-color="#403060"/>
<stop offset="0.9944" stop-color="#2A0E51"/>
</linearGradient>
<linearGradient id="paint9_linear_1671_65038" x1="-1.27543" y1="41.116" x2="-1.27543" y2="2.10244" gradientUnits="userSpaceOnUse">
<stop offset="0.0111732" stop-color="#772438"/>
<stop offset="0.9944" stop-color="#994540"/>
</linearGradient>
<linearGradient id="paint10_linear_1671_65038" x1="-1.95269" y1="44.7843" x2="-12.3931" y2="2.79546" gradientUnits="userSpaceOnUse">
<stop offset="0.0111732" stop-color="#B45E52"/>
<stop offset="0.9944" stop-color="#C16140"/>
</linearGradient>
<linearGradient id="paint11_linear_1671_65038" x1="19.599" y1="164.422" x2="19.599" y2="142.823" gradientUnits="userSpaceOnUse">
<stop stop-color="#5B4365"/>
<stop offset="0.9777" stop-color="#70517C"/>
</linearGradient>
<linearGradient id="paint12_linear_1671_65038" x1="44.4869" y1="152.328" x2="44.4869" y2="124.371" gradientUnits="userSpaceOnUse">
<stop stop-color="#5B4365"/>
<stop offset="0.9777" stop-color="#70517C"/>
</linearGradient>
<clipPath id="clip0_1671_65038">
<rect width="68" height="219" fill="white"/>
</clipPath>
</defs>
</svg>
