<svg width="205" height="219" viewBox="0 0 205 219" fill="none" xmlns="http://www.w3.org/2000/svg">
<g clip-path="url(#clip0_1671_64969)">
<path d="M102.015 130.683L152.714 140.43L158.77 77.7473L137.228 41.6285L121.914 33.6021L101.323 37.4242C101.323 37.4242 91.0272 58.2546 92.671 83.1938C94.3148 108.133 98.5542 126.861 102.015 130.683Z" fill="url(#paint0_linear_1671_64969)"/>
<path d="M161.335 82.7489L161.138 84.2672L160.501 89.3936L160.429 90.3464C158.602 105.732 156.561 121.772 155.447 129.929C155.382 130.787 155.242 131.543 155.192 132.21L154.789 135.341L141.123 116.483L145.691 56.2668C145.691 56.2668 131.878 35.0022 129.614 30.0396C128.055 26.6635 125.326 20.2283 123.632 16.4587C123.205 15.564 122.995 15.0689 122.995 15.0689C122.576 14.0789 122.291 13.4824 122.291 13.4824C122.291 13.4824 112.683 14.001 110.755 15.4842C110.755 15.4842 99.4592 24.1162 96.1292 37.5674C92.7993 51.0186 89.7197 81.8333 97.073 107.784L94.0382 107.554C94.0382 107.554 87.8126 69.9981 92.4704 44.4775C97.2103 18.9631 104.991 8.81935 106.776 7.0379C108.561 5.25645 121.388 10.156 127.632 11.5867C133.875 13.0175 145.36 14.9407 150.535 18.4946C155.628 22.0422 163.343 46.4868 163.957 53.6244C164.239 56.4248 162.986 68.5957 161.335 82.7489Z" fill="url(#paint1_linear_1671_64969)"/>
<path fill-rule="evenodd" clip-rule="evenodd" d="M87.9348 122.641C87.9348 122.641 83.9012 148.339 77.3249 157.66C72.3268 164.804 69.9594 174.473 65.9259 182.749C64.5229 185.711 62.8569 188.498 60.7525 190.937C52.2471 201.042 40.9357 216.635 40.9357 216.635C32.4303 215.416 27.4323 203.568 27.4323 203.568C33.7456 187.714 46.8983 168.027 54.8776 159.925C62.2431 152.521 67.5042 139.28 70.9239 129.61C71.2746 128.739 71.5377 127.868 71.8007 126.997C75.1328 117.153 79.4293 112.188 79.4293 112.188C81.7091 111.665 87.9348 122.641 87.9348 122.641Z" fill="#321833"/>
<path fill-rule="evenodd" clip-rule="evenodd" d="M87.9425 122.641C87.9425 122.641 83.909 148.34 77.3326 157.66C72.3346 164.804 69.9671 174.473 65.9336 182.749L54.7977 185.536C54.7977 185.536 61.0233 173.254 63.04 164.368C65.0568 155.483 70.6686 130.569 70.6686 130.569L70.844 129.61C71.1947 128.739 71.4578 127.868 71.7208 126.997C75.0529 117.153 79.3494 112.188 79.3494 112.188C81.7169 111.665 87.9425 122.641 87.9425 122.641Z" fill="black"/>
<path fill-rule="evenodd" clip-rule="evenodd" d="M110.046 4.24951C110.046 4.24951 105.749 11.7411 98.033 14.7901C90.3168 17.839 85.5818 20.1039 84.2665 27.8569C82.9512 35.6098 89.0015 43.1014 91.8074 45.105C94.701 47.0215 102.242 32.0382 102.242 32.0382L113.729 11.2185L111.186 8.16955L110.046 4.24951Z" fill="url(#paint2_linear_1671_64969)"/>
<path fill-rule="evenodd" clip-rule="evenodd" d="M101.186 13.2319C101.186 13.2319 100.222 14.9742 94.5224 19.504C87.8583 24.7307 85.4032 43.1985 96.2761 47.9025C96.2761 47.9025 86.017 45.5505 83.1234 34.6615C80.4051 24.7307 90.8396 20.9849 101.186 13.2319Z" fill="url(#paint3_linear_1671_64969)"/>
<path fill-rule="evenodd" clip-rule="evenodd" d="M187.999 137.013C187.999 137.013 189.139 142.066 187.297 144.766L183.352 140.846L187.999 137.013Z" fill="url(#paint4_radial_1671_64969)"/>
<path d="M36.4681 202.353C36.4681 202.353 31.8209 208.451 29.6287 209.496C28.8396 209.845 20.6849 208.538 19.1942 208.886C17.7036 209.235 13.6701 219.166 12.3549 221.605C11.0396 223.957 9.6366 225.96 9.6366 225.96C9.6366 225.96 12.1795 226.657 15.4238 225.263C18.7558 223.87 18.9312 217.685 18.9312 217.685C18.9312 217.685 20.5095 216.988 25.4198 218.643C30.2425 220.298 36.7312 222.999 38.3095 226.047C38.3095 226.047 40.5016 222.04 39.2741 218.643C38.1342 215.246 41.4662 211.064 41.4662 211.064L36.4681 202.353Z" fill="url(#paint5_linear_1671_64969)"/>
<path d="M180.729 87.7972V94.5049L190.199 102.432L198.002 101.822L201.422 100.603C201.422 100.603 204.666 95.9858 204.93 95.0275C205.193 94.0693 204.93 92.0657 204.93 92.0657L192.128 85.271L180.729 87.7972Z" fill="#F17C57"/>
<path d="M181.418 87.0158C181.418 87.0158 184.399 78.0433 184.838 74.9944C185.276 71.9455 187.906 61.6663 188.959 59.7498C188.959 59.7498 190.975 59.4885 192.203 61.4049C193.431 63.2343 192.291 71.9455 189.397 76.0397C189.397 76.0397 188.345 81.4407 188.433 85.1865L181.418 87.0158Z" fill="url(#paint6_linear_1671_64969)"/>
<path d="M131.443 76.9092C131.443 76.9092 128.901 86.2302 129.427 92.0667L131.443 93.3733C131.443 93.3733 125.218 107.834 115.836 111.057C106.453 114.28 100.228 110.447 103.56 101.736C103.56 101.736 112.591 98.4258 114.257 95.2027C115.923 91.8924 115.748 84.2266 115.748 84.2266L131.443 76.9092Z" fill="url(#paint7_linear_1671_64969)"/>
<path d="M143.884 40.4514C143.884 40.4514 143.364 59.1213 136.176 70.7362C135.31 72.1128 134.357 73.4034 133.318 74.6079C125.437 83.1255 113.919 85.9647 109.329 85.7066C104.739 85.4485 103.527 83.9858 101.882 82.5232C100.323 81.1466 90.017 76.2426 87.5056 68.9295C85.1673 62.1326 90.1036 54.8195 91.4027 50.6897C91.4893 50.3456 91.5759 50.0875 91.6625 49.8294C92.3553 45.9577 90.3634 36.7518 91.6625 29.6108C92.9615 22.4697 103.267 12.5755 113.4 12.0593C135.31 10.9409 143.884 40.4514 143.884 40.4514Z" fill="url(#paint8_linear_1671_64969)"/>
<path d="M142.918 53.4738C142.918 53.4738 144.584 50.7733 149.582 49.7279C149.582 49.7279 153.177 49.2053 154.141 53.3866C154.141 53.3866 154.58 61.0525 151.16 65.4952C147.74 70.025 141.778 70.2864 140.375 69.9379C138.972 69.5895 139.06 66.3663 139.06 66.3663C139.06 66.3663 141.252 55.5644 142.918 53.4738Z" fill="url(#paint9_linear_1671_64969)"/>
<path d="M173.7 131.618C173.7 131.618 182.819 118.725 183.17 115.066C183.521 111.321 177.558 105.833 176.243 101.651C175.366 98.7765 178.523 86.668 178.961 85.7968C179.4 84.9257 184.924 83.4448 187.116 82.835C189.308 82.1381 192.465 80.7444 193.166 81.267C193.868 81.8768 192.64 87.0164 188.957 88.7587C185.537 90.3267 183.521 90.1524 183.521 90.1524L182.556 94.2467C182.556 94.2467 186.064 95.1178 188.343 97.4698C190.536 99.8219 195.007 100.606 198.164 100.693C201.321 100.78 205.003 95.0307 205.003 95.0307C205.003 95.0307 202.285 107.139 198.339 112.192C198.339 112.192 194.92 115.85 192.991 116.286C192.991 116.286 186.677 141.548 178.084 156.445L173.7 131.618Z" fill="url(#paint10_linear_1671_64969)"/>
<path d="M191.411 83.2632C191.411 83.2632 193.428 83.6987 195.533 85.2668V86.9219C195.533 86.9219 199.566 87.4446 200.706 88.7512V89.9708C200.706 89.9708 203.161 90.4064 204.827 92.0615C204.827 92.0615 203.336 97.114 200.706 98.9433C200.706 98.9433 198.777 98.8562 197.199 97.5496L196.146 98.5949C196.146 98.5949 192.902 99.1176 192.727 96.5042L193.779 92.8455C193.779 92.8455 192.464 94.4135 191.85 94.5877C191.324 94.8491 188.956 94.1522 188.868 92.4099C188.693 90.6677 191.411 83.2632 191.411 83.2632Z" fill="url(#paint11_linear_1671_64969)"/>
<path fill-rule="evenodd" clip-rule="evenodd" d="M104.035 106.278C104.035 106.278 106.297 112.157 118.366 107.002L102.432 122.83L100.829 118.579L104.035 106.278Z" fill="url(#paint12_linear_1671_64969)"/>
<path fill-rule="evenodd" clip-rule="evenodd" d="M136.785 97.6397C136.785 97.6397 134.944 99.4691 132.05 102.17C129.683 104.434 126.614 107.396 123.457 110.445L123.369 110.532C116.355 117.24 108.726 124.557 106.183 126.909C101.098 131.613 93.8197 144.767 93.8197 144.767C93.8197 144.767 88.8217 136.927 88.1202 133.617C87.4188 130.307 88.1202 107.57 88.1202 107.57C88.1202 107.57 93.8198 105.48 98.7301 102.866C101.887 101.124 105.57 98.9464 107.762 97.5526C108.726 96.9428 109.428 96.5073 109.691 96.333H109.778L112.847 96.7686C111.532 98.3366 106.271 100.514 106.271 100.514C102.413 106.525 103.728 118.459 103.728 118.459C103.728 118.459 109.252 114.714 115.215 109.313C121.177 103.912 130.91 93.0228 130.91 93.0228L130.209 92.5872L131.349 92.2388L132.927 93.8068L134.856 95.7232L136.785 97.6397Z" fill="url(#paint13_linear_1671_64969)"/>
<path fill-rule="evenodd" clip-rule="evenodd" d="M168.887 301.918H93.5655C91.9871 295.123 90.6719 288.503 89.532 283.015L89.0936 280.75L88.7428 279.007L88.6551 278.659L88.5674 277.962C88.5674 277.875 88.5674 277.875 88.5674 277.875C87.7783 273.606 87.2522 270.47 87.0768 269.338L91.1103 302.005H60.7714C57.6148 288.067 55.2473 272.126 53.7567 258.449C52.8798 249.825 52.3537 241.985 52.266 236.235C52.1783 232.141 52.3537 229.005 52.7921 227.176C55.2473 216.461 64.0157 203.656 70.1536 189.631C73.0472 183.097 74.7133 176.651 75.7655 171.686C75.7655 171.686 75.7655 171.686 75.7655 171.598C76.9054 165.936 77.1684 162.103 77.1684 162.103C76.6423 161.581 76.1162 160.971 75.5901 160.274C71.5566 154.873 69.8906 147.033 70.066 145.639C70.2414 144.071 70.9428 141.022 74.4502 135.97C77.9576 130.917 82.0788 123.6 81.9034 120.289C81.728 116.892 79.2729 112.362 79.2729 112.362C79.2729 112.362 86.1123 108.355 91.2857 105.829C92.864 105.045 94.53 104.174 96.0206 103.39C99.528 101.473 102.422 99.6439 102.422 99.6439H104.526L104.263 99.8181C104.175 99.8181 104.175 99.9053 104.088 99.9053C104 99.9053 104 99.9924 103.912 99.9924C103.825 100.079 103.737 100.079 103.649 100.167C103.211 100.428 102.597 100.863 101.983 101.212C101.72 101.386 101.457 101.473 101.282 101.648C100.493 102.17 99.7034 102.606 99.0896 103.041L97.7743 103.912C97.1605 105.045 96.4591 106.961 95.8453 109.226C94.3547 114.453 92.864 121.683 91.8995 127.346C91.2857 131.091 90.8473 134.053 90.8473 135.273C90.8473 135.273 90.8473 135.273 90.8473 135.36C90.8473 135.534 90.8473 135.621 90.8473 135.708C90.8473 135.795 90.8472 135.882 90.9349 135.97C90.9349 136.057 90.9349 136.057 90.9349 136.144C91.0226 136.667 91.198 137.276 91.3733 137.886V137.973C91.9871 139.977 92.7763 142.329 93.127 143.287V143.374V143.461L93.2148 143.635C93.2148 143.635 99.0019 134.489 103.123 129.175C104.438 127.433 107.77 124.122 111.716 120.377C119.696 112.536 130.218 102.78 131.358 100.689C131.971 99.5568 132.41 98.2501 132.585 97.1177C132.673 96.5079 132.76 95.8981 132.848 95.4625C132.936 94.5043 132.936 93.8945 132.936 93.8945H134.865C136.18 94.5914 139.688 95.2012 143.809 95.9852C145.913 96.4208 147.667 97.2919 148.982 98.0759C150.21 98.8599 150.999 99.4697 150.999 99.4697C150.999 99.4697 150.21 99.9924 149.07 101.038C147.316 102.519 144.686 104.958 142.143 108.181C141.967 108.442 141.704 108.704 141.529 108.965C140.389 110.533 139.249 112.275 138.285 114.105C137.759 115.063 137.32 116.021 136.882 117.066C135.391 120.812 134.865 124.558 134.69 127.781C134.602 129.436 134.69 130.917 134.777 132.224C135.04 135.011 135.479 136.928 135.654 137.538V137.625C135.654 137.712 135.654 137.712 135.654 137.712C131.796 142.242 127.762 150.866 124.694 159.316C121.537 168.027 119.432 176.564 119.608 180.397C119.959 188.063 131.182 222.646 143.37 246.602C151.613 262.979 162.573 287.632 168.887 301.918Z" fill="black"/>
<path fill-rule="evenodd" clip-rule="evenodd" d="M132.925 93.812C132.925 93.812 130.82 97.8192 120.123 108.621C109.425 119.336 104.427 126.131 104.427 126.131L96.0094 125.782L104.603 126.392L131.346 103.743L134.941 95.4671L132.925 93.812Z" fill="url(#paint14_linear_1671_64969)"/>
<path fill-rule="evenodd" clip-rule="evenodd" d="M188.162 144.765L180.796 152.256C177.289 161.664 163.347 178.303 162.12 178.303C160.892 178.303 152.65 173.076 149.405 166.107C146.161 159.225 146.249 154.434 145.898 151.821C145.547 149.295 139.059 135.792 139.059 135.792L135.639 137.709C135.639 137.709 134.411 134.834 133.973 130.391C133.447 125.774 133.71 119.502 136.779 112.882C142.829 99.815 150.896 99.3794 150.896 99.3794C150.896 99.3794 152.474 100.512 152.65 101.035C152.737 101.209 152.65 102.428 152.65 104.083V104.258C152.562 107.045 152.387 110.965 152.562 113.84C152.825 118.457 159.84 144.678 160.191 144.765C160.278 144.765 161.33 143.981 162.733 142.761C165.89 139.974 171.239 134.834 173.431 131.437C173.869 130.74 174.308 130.043 174.658 129.433C176.588 126.123 177.201 124.381 177.289 124.206L179.218 123.597L178.692 124.468C181.235 139.015 187.636 143.719 187.636 143.719C188.688 140.932 188.513 137.36 188.425 136.663C188.776 139.886 188.162 144.765 188.162 144.765Z" fill="black"/>
<path fill-rule="evenodd" clip-rule="evenodd" d="M112.841 20.9795C112.841 20.9795 113.981 21.5022 119.154 23.3315C124.415 25.1609 129.676 27.5129 132.57 32.3912C132.57 32.3912 128.273 28.5582 123.1 27.7742C117.926 26.9902 115.296 26.6418 114.419 26.032C113.542 25.5093 112.841 20.9795 112.841 20.9795Z" fill="url(#paint15_linear_1671_64969)"/>
<path fill-rule="evenodd" clip-rule="evenodd" d="M91.2771 35.1852C91.2771 35.1852 92.1539 33.3558 94.1707 33.7043C96.1874 34.1398 99.9578 40.7604 99.9578 40.7604C99.9578 40.7604 97.152 32.1363 94.5214 30.2198C92.5924 28.826 91.2771 31.4394 91.2771 31.4394C91.2771 31.4394 90.4003 33.2687 91.2771 35.1852Z" fill="url(#paint16_linear_1671_64969)"/>
<path d="M117.5 53.2101C118.903 54.8652 131.442 53.4714 133.459 48.506C135.651 43.1051 130.565 35.265 123.638 36.6588C115.395 38.2268 113.554 48.506 117.5 53.2101Z" fill="url(#paint17_linear_1671_64969)"/>
<path d="M101.183 48.5066C101.183 49.1164 101.183 49.7262 101.095 50.336C100.92 51.7298 100.394 52.8622 99.8675 53.7334C98.9029 55.3014 97.6754 56.0854 97.0616 56.0854C95.834 56.0854 93.9049 56.1725 93.0281 51.7298C92.1512 47.2871 92.8527 40.8408 95.4832 39.7954C96.4478 39.3599 97.6754 40.231 98.8152 41.6248C99.3414 42.3217 99.8675 43.1928 100.306 44.151C100.832 45.4577 101.183 46.9386 101.183 48.5066Z" fill="url(#paint18_linear_1671_64969)"/>
<path fill-rule="evenodd" clip-rule="evenodd" d="M104.248 63.4082C104.248 63.4082 97.4091 64.3665 95.8308 60.4464C94.7786 57.9202 98.9874 57.1362 101.18 52.4321C101.18 52.4321 100.127 55.2197 98.7244 56.7877C97.146 58.53 96.883 58.9655 97.7598 60.3593C99.2504 62.9727 104.248 63.4082 104.248 63.4082Z" fill="#F17C57"/>
<path fill-rule="evenodd" clip-rule="evenodd" d="M105.041 60.618C105.041 60.618 106.532 58.8757 108.987 59.1371C108.987 59.1371 107.759 59.3984 107.409 59.9211C107.058 60.4437 106.006 61.4891 105.041 60.618Z" fill="#C44A4C"/>
<path fill-rule="evenodd" clip-rule="evenodd" d="M106.713 15.3176C106.713 15.3176 104.433 13.4012 101.188 16.1888C101.188 16.1888 103.556 13.1398 104.608 7.042C105.573 0.944157 113.815 -1.58209 118.287 1.11838C122.759 3.73174 126.529 28.7329 136.876 38.925C136.876 38.925 128.721 33.2627 124.6 22.4608C121.619 14.6207 119.865 12.3558 115.744 11.4847C111.711 10.6136 106.713 15.3176 106.713 15.3176Z" fill="url(#paint19_linear_1671_64969)"/>
<path fill-rule="evenodd" clip-rule="evenodd" d="M115.746 49.6418C115.746 49.6418 114.255 42.8471 120.13 38.84C125.917 34.8328 133.283 38.6657 133.984 45.112C133.984 45.112 136.527 44.2409 137.667 41.4533C137.667 41.4533 136.177 41.8018 135.124 41.7147C135.124 41.7147 131.968 34.6586 125.128 34.5715C118.289 34.4844 114.08 42.8471 115.746 49.6418Z" fill="url(#paint20_linear_1671_64969)"/>
<path fill-rule="evenodd" clip-rule="evenodd" d="M118.984 53.74C118.984 53.74 121.79 54.7854 127.314 53.8271C132.838 52.8689 133.627 47.8164 133.627 47.8164C133.627 47.8164 131.874 53.9142 118.984 53.74Z" fill="#C44A4C"/>
<path fill-rule="evenodd" clip-rule="evenodd" d="M93.2079 52.6943C93.2079 52.6943 93.5586 55.9175 95.663 56.353C97.6798 56.7886 99.6089 54.6108 100.223 52.9557C100.223 52.9557 98.9074 55.8304 96.3645 55.7433C94.2601 55.7433 93.2079 52.6943 93.2079 52.6943Z" fill="#C44A4C"/>
<path fill-rule="evenodd" clip-rule="evenodd" d="M131.97 45.1061C131.97 48.5905 129.164 51.3781 125.657 51.3781C122.15 51.3781 119.344 48.5905 119.344 45.1061C119.344 41.6216 122.15 38.834 125.657 38.834C129.077 38.834 131.97 41.7087 131.97 45.1061Z" fill="url(#paint21_linear_1671_64969)"/>
<path fill-rule="evenodd" clip-rule="evenodd" d="M129.871 45.1103C129.871 47.4623 127.941 49.3788 125.574 49.3788C123.206 49.3788 121.277 47.4623 121.277 45.1103C121.277 42.7583 123.206 40.8418 125.574 40.8418C127.941 40.8418 129.871 42.7583 129.871 45.1103Z" fill="url(#paint22_linear_1671_64969)"/>
<path fill-rule="evenodd" clip-rule="evenodd" d="M101.192 48.5103C101.192 49.12 101.192 49.7298 101.105 50.3396C100.929 51.7334 100.403 52.8659 99.8772 53.737C99.4387 53.9983 98.9127 54.1725 98.4742 54.1725C96.2821 54.1725 94.6161 51.385 94.6161 47.9005C94.6161 44.416 96.3698 41.6284 98.4742 41.6284C98.5619 41.6284 98.7372 41.6284 98.8249 41.6284C99.351 42.3253 99.8772 43.1964 100.316 44.1547C100.842 45.4613 101.192 46.9422 101.192 48.5103Z" fill="url(#paint23_linear_1671_64969)"/>
<path fill-rule="evenodd" clip-rule="evenodd" d="M101.183 48.514C101.183 49.1238 101.183 49.7336 101.095 50.3434C100.656 51.4758 99.8673 52.1727 98.9028 52.1727C97.4121 52.1727 96.2722 50.2562 96.2722 47.9042C96.2722 45.5522 97.4121 43.6357 98.9028 43.6357C99.3412 43.6357 99.8673 43.81 100.218 44.2455C100.832 45.4651 101.183 46.946 101.183 48.514Z" fill="url(#paint24_linear_1671_64969)"/>
<path fill-rule="evenodd" clip-rule="evenodd" d="M101.183 49.6396C101.183 49.6396 99.7804 40.3186 96.4484 40.7542C93.5548 41.1897 92.678 47.3747 92.678 47.3747C92.678 47.3747 91.0997 47.2876 89.5214 45.5453C89.5214 45.5453 90.8366 45.3711 91.8011 45.0227C91.8011 45.0227 92.8534 39.4475 95.3085 38.4022C97.8514 37.3568 101.446 44.2387 101.183 49.6396Z" fill="url(#paint25_linear_1671_64969)"/>
<path d="M98.206 68.8053C98.206 68.8053 99.5213 69.1538 100.223 70.0249C100.924 70.896 101.1 72.1156 103.116 72.464C105.045 72.8125 112.499 72.2898 119.25 64.4497C119.25 64.4497 115.041 66.5404 110.394 66.7146C105.747 66.8888 102.503 67.9342 101.187 68.4569C99.872 69.0666 98.206 68.8053 98.206 68.8053Z" fill="url(#paint26_linear_1671_64969)"/>
<path d="M97.8524 68.7229C97.8524 68.7229 98.8169 68.9843 100.22 68.7229C101.623 68.4616 101.798 66.7193 105.569 66.3709C109.339 65.9353 113.811 66.2838 116.091 65.674C118.371 65.0642 119.598 63.6704 119.598 63.6704H120.212C120.212 63.6704 118.721 65.4127 113.811 66.8936C108.901 68.2874 101.272 69.1585 99.8691 69.1585C98.4661 69.0714 97.7646 68.9843 97.7646 68.9843L97.8524 68.7229Z" fill="url(#paint27_linear_1671_64969)"/>
<path fill-rule="evenodd" clip-rule="evenodd" d="M121.007 48.3332C121.007 48.943 120.481 49.3785 119.955 49.3785C119.341 49.3785 118.902 48.8559 118.902 48.3332C118.902 47.7234 119.428 47.2879 119.955 47.2879C120.481 47.2007 121.007 47.7234 121.007 48.3332Z" fill="white"/>
<path fill-rule="evenodd" clip-rule="evenodd" d="M96.4475 51.3825C96.5352 51.9923 96.0968 52.515 95.483 52.6021C94.8692 52.6892 94.3431 52.2537 94.2554 51.6439C94.1677 51.0341 94.6061 50.5114 95.2199 50.4243C95.8337 50.4243 96.3598 50.8599 96.4475 51.3825Z" fill="white"/>
<path fill-rule="evenodd" clip-rule="evenodd" d="M141.076 60.9643C141.076 60.9643 145.899 54.7793 150.546 53.9082C150.546 53.9082 152.388 55.9989 152.212 59.1349C152.212 59.1349 151.511 55.9118 150.108 55.2149C150.108 55.2149 149.757 55.302 148.88 55.7376C147.565 56.2602 145.11 57.7411 141.076 60.9643Z" fill="#F3764E"/>
<path fill-rule="evenodd" clip-rule="evenodd" d="M145.382 57.3938C145.382 57.3938 148.801 57.2196 149.591 57.3938C150.38 57.5681 150.818 61.8365 149.591 63.4917C148.363 65.1468 146.785 64.1015 144.68 64.0143C142.576 63.9272 141.173 64.4499 141.173 64.4499C141.173 64.4499 140.208 62.0979 141.173 60.9654C142.05 59.833 145.382 57.3938 145.382 57.3938Z" fill="#F3764E"/>
<path fill-rule="evenodd" clip-rule="evenodd" d="M119.247 2.07666C119.247 2.07666 132.4 21.8511 140.642 28.4716C148.884 35.0921 152.216 33.7854 152.216 33.7854C152.216 33.7854 146.429 45.2842 137.661 39.4477C128.892 33.6112 123.807 8.61006 119.247 2.07666Z" fill="url(#paint28_linear_1671_64969)"/>
<path fill-rule="evenodd" clip-rule="evenodd" d="M114.512 0.0755558C114.512 0.0755558 118.72 -1.49246 122.754 9.65787C126.787 20.8082 130.032 34.9203 137.66 39.4502C145.289 43.98 150.287 36.6626 150.287 36.6626C150.287 36.6626 145.727 43.196 136.784 36.9239C127.664 30.4776 127.314 0.0755558 114.512 0.0755558Z" fill="url(#paint29_linear_1671_64969)"/>
<path fill-rule="evenodd" clip-rule="evenodd" d="M104.252 13.2309C104.252 13.2309 102.849 3.38721 109.513 1.1223C116.177 -1.14261 119.684 3.03876 121 9.92061C122.227 16.8896 124.069 20.9838 124.069 20.9838C124.069 20.9838 121.964 16.8025 119.948 9.74638C117.931 2.69031 111.881 0.599625 108.022 3.47432C104.164 6.34902 104.252 13.2309 104.252 13.2309Z" fill="url(#paint30_linear_1671_64969)"/>
<path fill-rule="evenodd" clip-rule="evenodd" d="M162.649 142.767L160.107 144.77C160.107 144.77 151.601 150.084 150.724 153.568C149.672 157.924 152.741 164.37 152.741 164.37C152.741 164.37 153.443 155.659 155.547 152.175C157.564 148.69 162.649 142.767 162.649 142.767Z" fill="url(#paint31_linear_1671_64969)"/>
<path fill-rule="evenodd" clip-rule="evenodd" d="M188.165 144.77L180.799 152.261C180.799 152.261 174.924 141.721 174.486 129.525L177.116 124.298L178.432 124.56C180.975 139.107 187.376 143.811 187.376 143.811C188.428 141.024 188.252 137.452 188.165 136.755C188.779 139.891 188.165 144.77 188.165 144.77Z" fill="url(#paint32_linear_1671_64969)"/>
<path opacity="0.5" fill-rule="evenodd" clip-rule="evenodd" d="M86.0155 160.274C86.0155 160.274 86.8923 156.006 87.5938 156.006C89.5229 156.093 115.302 157.748 115.302 157.748C115.302 157.748 98.6421 161.842 94.9593 161.668C91.2766 161.407 86.0155 160.274 86.0155 160.274Z" fill="url(#paint33_linear_1671_64969)"/>
<path opacity="0.4" fill-rule="evenodd" clip-rule="evenodd" d="M88.2937 113.846L83.8218 114.63C83.8218 114.63 88.7321 119.943 89.5213 122.644C89.5213 122.644 82.7695 126.999 79.5252 132.4C79.5252 132.4 82.6819 145.903 89.7843 151.129V131.529L93.6425 112.19L88.2937 113.846Z" fill="black"/>
<path opacity="0.4" fill-rule="evenodd" clip-rule="evenodd" d="M134.94 102.083L142.218 108.356C142.218 108.356 132.836 114.802 125.996 116.021C125.996 116.021 129.855 124.907 130.293 128.13C130.293 128.13 108.46 139.193 102.322 142.329C96.1837 145.552 92.0625 148.95 92.0625 148.95L113.633 122.555L134.94 102.083Z" fill="black"/>
<path fill-rule="evenodd" clip-rule="evenodd" d="M90.2239 152.169C90.2239 152.169 83.0338 139.277 82.5077 124.903C82.5077 124.903 88.1195 120.199 91.4515 118.457C91.4515 118.457 89.084 114.276 84.2614 113.143C84.2614 113.143 93.1175 105.913 96.0988 103.038C99.0801 100.164 101.798 97.9858 101.798 97.9858L104.604 99.2925L97.6771 103.648C97.6771 103.648 90.75 128.911 90.6624 133.528C90.5747 138.144 93.2929 143.633 93.2929 143.633L90.2239 152.169Z" fill="#292329"/>
<path fill-rule="evenodd" clip-rule="evenodd" d="M88.7355 153.562C88.7355 153.562 93.3828 140.583 100.134 131.872C106.886 123.16 130.824 99.6401 131.789 98.1592C132.753 96.5911 132.929 93.8036 132.929 93.8036L132.315 93.1938L134.156 92.584C134.156 92.584 138.979 101.818 143.363 105.912C143.363 105.912 134.595 110.181 125.563 112.968C125.563 112.968 130.912 119.85 131.789 125.077C131.789 125.077 115.041 132.917 105.834 138.84C96.6271 144.764 93.3828 147.552 92.769 148.336C92.2429 149.033 88.7355 153.562 88.7355 153.562Z" fill="#292329"/>
<path fill-rule="evenodd" clip-rule="evenodd" d="M195.528 85.188C195.528 85.188 194.651 89.8049 193.774 92.8538L196.142 86.9302L195.528 86.8431V85.188Z" fill="#F17C57"/>
<path fill-rule="evenodd" clip-rule="evenodd" d="M200.705 88.665C200.705 88.665 198.952 93.8918 197.198 97.4633C197.198 97.4633 200.004 93.1078 201.407 90.0588L200.618 89.8846V88.665H200.705Z" fill="#F17C57"/>
<path fill-rule="evenodd" clip-rule="evenodd" d="M139.067 135.884L133.806 131.528C133.806 131.528 125.826 149.038 124.686 159.491C128.018 150.606 131.263 144.16 135.647 137.887L139.067 135.884Z" fill="black"/>
</g>
<defs>
<linearGradient id="paint0_linear_1671_64969" x1="118.055" y1="133.846" x2="136.994" y2="36.5911" gradientUnits="userSpaceOnUse">
<stop offset="0.0111732" stop-color="#512438"/>
<stop offset="0.9944" stop-color="#832E31"/>
</linearGradient>
<linearGradient id="paint1_linear_1671_64969" x1="121.737" y1="132.891" x2="131.154" y2="8.4455" gradientUnits="userSpaceOnUse">
<stop offset="0.0111732" stop-color="#772438"/>
<stop offset="0.9944" stop-color="#994540"/>
</linearGradient>
<linearGradient id="paint2_linear_1671_64969" x1="98.8987" y1="45.2909" x2="98.8987" y2="4.27661" gradientUnits="userSpaceOnUse">
<stop offset="0.0111732" stop-color="#772438"/>
<stop offset="0.9944" stop-color="#994540"/>
</linearGradient>
<linearGradient id="paint3_linear_1671_64969" x1="93.6265" y1="45.5465" x2="85.4991" y2="16.6187" gradientUnits="userSpaceOnUse">
<stop offset="0.0111732" stop-color="#B45E52"/>
<stop offset="0.9944" stop-color="#C16140"/>
</linearGradient>
<radialGradient id="paint4_radial_1671_64969" cx="0" cy="0" r="1" gradientUnits="userSpaceOnUse" gradientTransform="translate(185.836 140.89) scale(3.28898 3.26748)">
<stop stop-color="#B3819D"/>
<stop offset="1" stop-color="#785CA6"/>
</radialGradient>
<linearGradient id="paint5_linear_1671_64969" x1="25.4926" y1="226.167" x2="25.4926" y2="202.396" gradientUnits="userSpaceOnUse">
<stop offset="0.0159875" stop-color="#FFAE78"/>
<stop offset="1" stop-color="#FF957C"/>
</linearGradient>
<linearGradient id="paint6_linear_1671_64969" x1="186.978" y1="87.0455" x2="186.978" y2="59.805" gradientUnits="userSpaceOnUse">
<stop offset="0.0159875" stop-color="#FFAE78"/>
<stop offset="1" stop-color="#FF957C"/>
</linearGradient>
<linearGradient id="paint7_linear_1671_64969" x1="117.005" y1="112.154" x2="117.005" y2="76.9013" gradientUnits="userSpaceOnUse">
<stop offset="0.0215741" stop-color="#FF8359"/>
<stop offset="1" stop-color="#FF8B7C"/>
</linearGradient>
<linearGradient id="paint8_linear_1671_64969" x1="122.734" y1="86.3736" x2="111.751" y2="11.5188" gradientUnits="userSpaceOnUse">
<stop offset="0.0159875" stop-color="#FFAE78"/>
<stop offset="1" stop-color="#FF957C"/>
</linearGradient>
<linearGradient id="paint9_linear_1671_64969" x1="146.61" y1="69.9889" x2="146.61" y2="49.6339" gradientUnits="userSpaceOnUse">
<stop offset="0.0215741" stop-color="#FF8359"/>
<stop offset="1" stop-color="#FF8B7C"/>
</linearGradient>
<linearGradient id="paint10_linear_1671_64969" x1="189.293" y1="156.451" x2="189.293" y2="81.1179" gradientUnits="userSpaceOnUse">
<stop offset="0.0159875" stop-color="#FFAE78"/>
<stop offset="1" stop-color="#FF957C"/>
</linearGradient>
<linearGradient id="paint11_linear_1671_64969" x1="196.873" y1="98.8797" x2="196.873" y2="83.2469" gradientUnits="userSpaceOnUse">
<stop offset="0.0159875" stop-color="#FFAE78"/>
<stop offset="1" stop-color="#FF957C"/>
</linearGradient>
<linearGradient id="paint12_linear_1671_64969" x1="109.608" y1="122.825" x2="109.608" y2="106.256" gradientUnits="userSpaceOnUse">
<stop stop-color="#EDE3FC"/>
<stop offset="1" stop-color="white"/>
</linearGradient>
<linearGradient id="paint13_linear_1671_64969" x1="112.327" y1="144.751" x2="112.327" y2="92.1668" gradientUnits="userSpaceOnUse">
<stop stop-color="#EDE3FC"/>
<stop offset="1" stop-color="white"/>
</linearGradient>
<linearGradient id="paint14_linear_1671_64969" x1="115.499" y1="126.382" x2="115.499" y2="93.7674" gradientUnits="userSpaceOnUse">
<stop stop-color="#EDE3FC"/>
<stop offset="1" stop-color="white"/>
</linearGradient>
<linearGradient id="paint15_linear_1671_64969" x1="122.674" y1="32.3935" x2="122.674" y2="21.0176" gradientUnits="userSpaceOnUse">
<stop offset="0.0111732" stop-color="#772438"/>
<stop offset="0.9944" stop-color="#994540"/>
</linearGradient>
<linearGradient id="paint16_linear_1671_64969" x1="95.4083" y1="40.7626" x2="95.4083" y2="29.8471" gradientUnits="userSpaceOnUse">
<stop offset="0.0111732" stop-color="#772438"/>
<stop offset="0.9944" stop-color="#994540"/>
</linearGradient>
<linearGradient id="paint17_linear_1671_64969" x1="124.729" y1="53.8464" x2="124.729" y2="36.4569" gradientUnits="userSpaceOnUse">
<stop stop-color="#E1DBFB"/>
<stop offset="1" stop-color="white"/>
</linearGradient>
<linearGradient id="paint18_linear_1671_64969" x1="96.9083" y1="56.0405" x2="96.9083" y2="39.619" gradientUnits="userSpaceOnUse">
<stop stop-color="#E1DBFB"/>
<stop offset="1" stop-color="white"/>
</linearGradient>
<linearGradient id="paint19_linear_1671_64969" x1="126.153" y1="38.3018" x2="122.104" y2="1.61648" gradientUnits="userSpaceOnUse">
<stop offset="0.0111732" stop-color="#512438"/>
<stop offset="0.9944" stop-color="#6D1D20"/>
</linearGradient>
<linearGradient id="paint20_linear_1671_64969" x1="126.532" y1="49.6181" x2="126.532" y2="34.6215" gradientUnits="userSpaceOnUse">
<stop stop-color="#403060"/>
<stop offset="0.9944" stop-color="#2A0E51"/>
</linearGradient>
<linearGradient id="paint21_linear_1671_64969" x1="125.732" y1="51.3318" x2="125.732" y2="38.7894" gradientUnits="userSpaceOnUse">
<stop offset="0.0223464" stop-color="#85757A"/>
<stop offset="0.9944" stop-color="#563757"/>
</linearGradient>
<linearGradient id="paint22_linear_1671_64969" x1="125.593" y1="49.4328" x2="125.593" y2="40.8737" gradientUnits="userSpaceOnUse">
<stop stop-color="#403060"/>
<stop offset="0.9944" stop-color="#2A0E51"/>
</linearGradient>
<linearGradient id="paint23_linear_1671_64969" x1="97.9434" y1="54.1262" x2="97.9434" y2="41.5838" gradientUnits="userSpaceOnUse">
<stop offset="0.0223464" stop-color="#85757A"/>
<stop offset="0.9944" stop-color="#563757"/>
</linearGradient>
<linearGradient id="paint24_linear_1671_64969" x1="96.2587" y1="47.8363" x2="101.189" y2="47.8363" gradientUnits="userSpaceOnUse">
<stop stop-color="#382160"/>
<stop offset="0.9944" stop-color="#2A0E51"/>
</linearGradient>
<linearGradient id="paint25_linear_1671_64969" x1="95.3358" y1="49.6327" x2="95.3358" y2="38.2836" gradientUnits="userSpaceOnUse">
<stop stop-color="#403060"/>
<stop offset="0.9944" stop-color="#2A0E51"/>
</linearGradient>
<linearGradient id="paint26_linear_1671_64969" x1="108.714" y1="72.5161" x2="108.714" y2="64.3988" gradientUnits="userSpaceOnUse">
<stop stop-color="#E76C42"/>
<stop offset="0.9944" stop-color="#AE2545"/>
</linearGradient>
<linearGradient id="paint27_linear_1671_64969" x1="108.946" y1="69.0471" x2="108.946" y2="63.6275" gradientUnits="userSpaceOnUse">
<stop stop-color="#A12F42"/>
<stop offset="0.9944" stop-color="#811945"/>
</linearGradient>
<linearGradient id="paint28_linear_1671_64969" x1="135.724" y1="41.116" x2="135.724" y2="2.10244" gradientUnits="userSpaceOnUse">
<stop offset="0.0111732" stop-color="#772438"/>
<stop offset="0.9944" stop-color="#994540"/>
</linearGradient>
<linearGradient id="paint29_linear_1671_64969" x1="135.047" y1="44.7843" x2="124.607" y2="2.79546" gradientUnits="userSpaceOnUse">
<stop offset="0.0111732" stop-color="#B45E52"/>
<stop offset="0.9944" stop-color="#C16140"/>
</linearGradient>
<linearGradient id="paint30_linear_1671_64969" x1="115.92" y1="19.5921" x2="113.147" y2="1.58222" gradientUnits="userSpaceOnUse">
<stop offset="0.0111732" stop-color="#B45E52"/>
<stop offset="0.9944" stop-color="#C16140"/>
</linearGradient>
<linearGradient id="paint31_linear_1671_64969" x1="156.599" y1="164.422" x2="156.599" y2="142.823" gradientUnits="userSpaceOnUse">
<stop stop-color="#5B4365"/>
<stop offset="0.9777" stop-color="#70517C"/>
</linearGradient>
<linearGradient id="paint32_linear_1671_64969" x1="181.487" y1="152.328" x2="181.487" y2="124.371" gradientUnits="userSpaceOnUse">
<stop stop-color="#5B4365"/>
<stop offset="0.9777" stop-color="#70517C"/>
</linearGradient>
<linearGradient id="paint33_linear_1671_64969" x1="86.0297" y1="158.775" x2="115.313" y2="158.775" gradientUnits="userSpaceOnUse">
<stop offset="0.0111732" stop-color="#C695C7"/>
<stop offset="1" stop-color="#8E81F4"/>
</linearGradient>
<clipPath id="clip0_1671_64969">
<rect width="205" height="219" fill="white"/>
</clipPath>
</defs>
</svg>
