<svg width="82" height="32" viewBox="0 0 82 32" fill="none" xmlns="http://www.w3.org/2000/svg">
<path d="M10.8645 0.0001715C11.7013 -0.0127167 12.2627 0.703868 12.9176 1.11629C14.3391 2.17828 16.2597 3.18356 16.2935 5.20701C16.3247 11.8135 16.2909 18.4252 16.3091 25.0317C16.3532 26.2251 15.8439 27.465 14.8511 28.1712C13.9155 28.8646 12.967 29.5451 12.0366 30.2462C11.6779 30.5401 11.2439 30.6999 10.7865 30.7669C10.7761 29.924 11.1608 29.1559 11.4362 28.38C13.0241 24.0651 14.6276 19.7552 16.1947 15.4325C11.2491 17.0822 6.31392 18.7628 1.37352 20.4228C1.00188 20.544 0.606858 20.5698 0.222229 20.6162C0.274206 19.6057 1.17341 18.9742 1.70617 18.1958C2.62876 16.9662 3.63191 15.6001 5.27958 15.35C3.40321 15.0897 2.44684 13.3859 1.35273 12.0764C0.890132 11.4578 0.191043 10.8959 0.237822 10.0504C0.679625 10.1148 1.12143 10.1896 1.54504 10.3314C6.42567 12.0017 11.3219 13.6256 16.2051 15.2882C14.4899 10.5917 12.7564 5.90555 11.0256 1.21424C10.9347 0.82244 10.6488 0.399706 10.8645 0.0001715Z" fill="white"/>
<path d="M60.2139 7.49596C61.7316 5.91329 64.0732 5.73285 66.1393 5.93649C65.7962 7.17375 65.4896 8.42133 65.1075 9.64571C64.3409 9.4859 63.5586 9.46012 62.7816 9.54003C63.6678 10.9268 64.1408 12.5971 63.8653 14.2391C63.6444 16.0821 62.4411 17.7447 60.7805 18.5876C58.9119 19.5645 56.7081 19.6882 54.6524 19.3583C54.4419 20.0542 54.7511 20.843 55.5074 21.0286C58.2284 21.9205 61.3262 21.5415 63.8523 23.0572C65.1413 23.8099 65.778 25.3642 65.5623 26.8077C65.4012 28.5398 64.1044 29.955 62.5919 30.7128C60.1308 31.9913 57.2642 32.1047 54.5458 31.9423C52.6253 31.7567 50.6112 31.2154 49.2078 29.8312C47.9708 28.6017 47.6771 26.5319 48.6335 25.0574C49.1325 24.1991 50.0031 23.6578 50.8789 23.2351C50.3903 22.7479 49.9485 22.1524 49.9563 21.4359C49.803 20.0001 50.9386 18.8634 52.0665 18.1622C48.5893 16.2367 48.2852 10.8108 51.3077 8.34143C53.761 6.37211 57.4072 6.18909 60.2139 7.49596ZM55.7283 10.718C54.182 11.2413 53.8545 13.3421 54.6628 14.5948C55.2709 15.5769 56.6353 15.8707 57.6541 15.381C58.8651 14.8422 59.1874 13.2338 58.7092 12.0996C58.2986 10.9397 56.8926 10.285 55.7283 10.718ZM53.3348 27.3052C54.5926 28.3981 56.4118 28.4599 57.9971 28.3285C58.8651 28.2047 59.9462 28.0604 60.4218 27.2304C60.7259 26.5757 60.0684 26.0009 59.5018 25.8075C57.5553 25.0961 55.4087 25.3101 53.4517 24.6321C52.763 25.3539 52.5603 26.5654 53.3348 27.3052Z" fill="white"/>
<path d="M24.8307 8.72807C26.6577 7.42121 28.8849 6.4185 31.1874 6.7304C32.6948 6.87475 34.0644 7.73053 34.9012 8.97295C36.8997 7.37997 39.5193 6.30509 42.113 6.78969C43.5683 6.9959 44.9587 7.7795 45.7488 9.02966C46.5388 10.2489 46.7025 11.7388 46.7129 13.159C46.7129 16.6827 46.7103 20.2089 46.7129 23.7325C44.9145 23.7377 43.1187 23.7351 41.3203 23.7351C41.3099 20.5491 41.3411 17.3632 41.3073 14.1772C41.2761 13.2054 41.206 11.9115 40.1431 11.481C38.7007 10.9809 37.118 11.5764 35.9147 12.3961C35.9433 16.1749 35.9199 19.9537 35.9277 23.7351C34.1293 23.7351 32.3309 23.7377 30.5325 23.7325C30.5325 20.3816 30.5429 17.0281 30.5299 13.6771C30.5091 12.8162 30.2519 11.7491 29.3241 11.4423C27.9025 11.0119 26.4056 11.6047 25.2023 12.3497C25.2127 16.144 25.2049 19.9408 25.2075 23.7351C23.4091 23.7351 21.6133 23.7377 19.8149 23.7325C19.8175 18.1932 19.8149 12.6512 19.8149 7.10931C21.3326 7.11189 22.8504 7.099 24.3681 7.11962C24.5214 7.65577 24.6747 8.19192 24.8307 8.72807Z" fill="white"/>
<path d="M67.4621 8.29245C70.4637 6.83351 73.9514 6.28189 77.2389 6.95981C78.6735 7.26139 80.0457 8.045 80.8331 9.29773C81.5504 10.4474 81.7323 11.8367 81.7349 13.1642C81.7271 15.8243 81.7375 18.4819 81.7297 21.142C81.7141 22.0158 81.8207 22.8845 82 23.7377C80.5135 23.7248 79.0295 23.7557 77.5456 23.7171C77.3143 23.2711 77.083 22.8252 76.8543 22.3793C74.3308 24.6012 69.8972 24.7842 67.6466 22.0906C66.4303 20.6162 66.1627 18.5051 66.7552 16.7188C67.2594 15.2676 68.5874 14.2752 69.9856 13.739C72.0204 12.9451 74.2503 13.0456 76.3969 12.958C76.3059 12.1074 75.9473 11.1691 75.0325 10.9191C73.0808 10.303 70.9679 10.8804 69.1565 11.6795C68.5926 10.5505 68.013 9.42919 67.4621 8.29245ZM72.6208 16.8477C71.5709 17.407 71.5994 19.1753 72.6806 19.6856C73.8578 20.2037 75.2274 19.8918 76.3475 19.3634C76.3371 18.3453 76.3449 17.3271 76.3293 16.3115C75.0949 16.4687 73.7539 16.2393 72.6208 16.8477Z" fill="white"/>
</svg>
