<svg width="89" height="29" viewBox="0 0 89 29" fill="none" xmlns="http://www.w3.org/2000/svg">
<path d="M5.87397 2.10701C7.87381 0.185715 11.2482 -0.128459 13.5229 1.4847C15.6254 2.90151 16.7734 5.33333 17.2446 7.75912C16.4532 7.76214 15.6587 7.76214 14.8672 7.76214C14.4171 6.26075 13.8189 4.69894 12.5562 3.68996C11.2119 2.52994 9.07613 2.53296 7.70162 3.63861C6.42982 4.65967 5.78637 6.23054 5.37552 7.76516C4.57196 7.76214 3.7684 7.76214 2.96484 7.75912C3.39683 5.66261 4.25779 3.56611 5.87397 2.10701Z" fill="#6BC530"/>
<path d="M1.65168 9.42076C2.09273 9.21232 2.60327 9.2969 3.07453 9.26367C8.01975 9.29388 12.968 9.24555 17.9102 9.28482C18.7349 9.20325 19.4629 9.92827 19.3572 10.756C19.3874 15.9006 19.3481 21.0482 19.3753 26.1928C19.3421 26.7698 19.4569 27.4827 18.9494 27.8966C18.4026 28.3679 17.6202 28.2712 16.9495 28.3105C12.3155 28.2984 7.67838 28.3074 3.0413 28.3074C2.40691 28.2652 1.61845 28.3256 1.18344 27.7576C0.887395 27.4133 0.956876 26.9299 0.929688 26.51C0.950834 21.2627 0.929688 16.0124 0.93875 10.7651C0.887395 10.2183 1.15626 9.66847 1.65168 9.42076ZM7.8113 16.2178C7.56057 17.2207 8.19194 18.0998 8.8807 18.7463C8.50611 20.2205 8.11642 21.6947 7.74484 23.1689C9.3278 23.1689 10.9107 23.1689 12.4907 23.1689C12.1131 21.6917 11.7324 20.2144 11.3639 18.7342C12.5602 17.8461 12.9166 15.8885 11.6509 14.9037C10.4032 13.6712 8.06808 14.517 7.8113 16.2178Z" fill="#6BC530"/>
<path d="M61.7611 7.29338C66.3861 6.62274 71.2225 9.32041 73.0743 13.6071C74.6966 17.1264 74.2102 21.5067 71.8448 24.576C69.2015 28.1739 64.2382 29.787 59.9818 28.4337C55.4111 27.1075 52.064 22.5006 52.2966 17.7276C52.3389 12.5437 56.6165 7.85527 61.7611 7.29338ZM62.0692 9.37478C57.7312 9.87021 54.1454 13.9424 54.4082 18.3378C54.4414 23.132 59.0332 27.2374 63.8002 26.751C68.5611 26.5244 72.5185 21.8511 71.866 17.1083C71.4884 12.3836 66.7335 8.69206 62.0692 9.37478Z" fill="white"/>
<path d="M21.1797 11.0843C23.2973 11.0934 25.415 11.0662 27.5326 11.0904C29.1941 11.1115 30.9614 11.5647 32.1184 12.8304C33.5201 14.2714 33.7346 16.4132 33.7346 18.3285C33.7406 20.2618 33.1817 22.3946 31.5414 23.5818C30.336 24.5636 28.7048 24.6603 27.2185 24.6844C25.2066 24.6784 23.1916 24.6754 21.1797 24.6784C21.1797 20.147 21.1797 15.6157 21.1797 11.0843ZM25.3365 14.22C25.3395 16.7002 25.3365 19.1804 25.3365 21.6605C26.6264 21.6605 28.4752 21.9505 29.0975 20.4763C29.6503 18.8541 29.6866 16.96 29.0068 15.374C28.2879 14.069 26.6113 14.1838 25.3365 14.22Z" fill="white"/>
<path d="M35.3789 11.0847C37.2368 11.0878 39.0946 11.0787 40.9525 11.0908C41.6503 13.8156 42.3511 16.5435 43.0671 19.2653C43.7951 16.5405 44.5202 13.8156 45.2422 11.0878C47.0849 11.0817 48.9246 11.0847 50.7674 11.0847C50.7674 15.6161 50.7674 20.1474 50.7674 24.6788C49.5651 24.6788 48.3627 24.6788 47.1604 24.6788C47.1544 21.3226 47.1755 17.9694 47.1483 14.6162C46.2964 17.9664 45.4566 21.3196 44.6168 24.6728C43.5807 24.6788 42.5475 24.6788 41.5113 24.6788C40.6776 21.3407 39.8649 17.9996 39.001 14.6675C38.9677 18.0056 38.9949 21.3407 38.9859 24.6788C37.7835 24.6788 36.5812 24.6788 35.3789 24.6788C35.3789 20.1474 35.3789 15.6161 35.3789 11.0847Z" fill="white"/>
<path d="M78.9821 11.0912C80.5319 11.0822 82.0786 11.0822 83.6283 11.0882C85.3593 15.6195 87.1054 20.1479 88.8394 24.6792C87.341 24.6792 85.8426 24.6792 84.3412 24.6762C84.1026 23.9723 83.8639 23.2715 83.6283 22.5676C82.0544 22.5646 80.4805 22.5646 78.9096 22.5646C78.671 23.2685 78.4354 23.9723 78.1997 24.6762C76.7376 24.6823 75.2785 24.6792 73.8164 24.6762C75.5383 20.1479 77.2663 15.6195 78.9821 11.0912ZM81.2841 14.9006C80.7403 16.4352 80.2781 17.994 79.7766 19.5437C80.7856 19.5437 81.7946 19.5437 82.8036 19.5407C82.2991 17.994 81.8671 16.4201 81.2841 14.9006Z" fill="white"/>
<path d="M58.6773 13.5186C60.9853 10.6276 66.2266 10.6034 68.2838 13.7965C68.6886 14.3614 68.9122 15.029 69.175 15.6664C68.166 15.8386 67.157 15.9957 66.145 16.1558C65.7765 15.3402 65.4713 14.3372 64.5711 13.9596C63.1513 13.2376 61.233 14.1167 60.8343 15.6513C60.357 17.1859 60.3509 18.8686 60.7738 20.4153C61.1394 21.8593 62.9006 22.8683 64.2902 22.1735C65.3989 21.7264 65.7372 20.4727 66.1692 19.4758C67.2084 19.7356 68.2476 19.9924 69.2837 20.2582C68.7823 21.6146 68.0693 22.9982 66.7764 23.7594C64.6285 24.992 61.801 24.9044 59.7135 23.5812C56.5688 21.385 56.0884 16.322 58.6773 13.5186Z" fill="white"/>
</svg>
