<svg width="77" height="33" viewBox="0 0 77 33" fill="none" xmlns="http://www.w3.org/2000/svg">
<path d="M14.2683 6.98047C7.73854 6.98047 2.41797 12.301 2.41797 18.8308C2.41797 25.3606 7.73854 30.6812 14.2683 30.6812H63.6287C70.1585 30.6812 75.4791 25.3606 75.4791 18.8308C75.4791 12.301 70.1585 6.98047 63.6287 6.98047H14.2683Z" fill="white"/>
<path d="M63.6281 31.6721H14.2677C7.18167 31.6721 1.42578 25.9162 1.42578 18.8302C1.42578 11.7442 7.18167 5.98828 14.2677 5.98828H63.6281C70.7141 5.98828 76.47 11.7442 76.47 18.8302C76.47 25.9162 70.7141 31.6721 63.6281 31.6721ZM14.2677 6.97984C7.73792 6.97984 2.41734 12.3004 2.41734 18.8302C2.41734 25.36 7.73792 30.6806 14.2677 30.6806H63.6281C70.1579 30.6806 75.4785 25.36 75.4785 18.8302C75.4785 12.3004 70.1579 6.97984 63.6281 6.97984H14.2677Z" fill="#BCBBBC"/>
<path d="M57.7045 11.623C55.7939 11.623 54.2461 13.1708 54.2461 15.1056C54.2461 17.0162 55.7939 18.564 57.7045 18.564C59.615 18.564 61.1628 17.0162 61.1628 15.1056C61.1628 13.195 59.615 11.623 57.7045 11.623ZM57.7045 16.8711C56.7129 16.8711 55.9148 16.073 55.9148 15.0814C55.9148 14.0899 56.7129 13.2918 57.7045 13.2918C58.696 13.2918 59.4941 14.0899 59.4941 15.0814C59.4941 16.073 58.696 16.8711 57.7045 16.8711Z" fill="black"/>
<path d="M41.7904 11.623C39.8798 11.623 38.332 13.1708 38.332 15.1056C38.332 17.0162 39.8798 18.564 41.7904 18.564C43.701 18.564 45.273 17.0162 45.273 15.1056C45.273 13.195 43.701 11.623 41.7904 11.623ZM41.7904 16.8711C40.7988 16.8711 40.0008 16.073 40.0008 15.0814C40.0008 14.0899 40.7988 13.2918 41.7904 13.2918C42.782 13.2918 43.5801 14.0899 43.5801 15.0814C43.5801 16.073 42.782 16.8711 41.7904 16.8711Z" fill="black"/>
<path d="M54.0054 16.9689C53.7878 17.0414 53.4492 17.0898 53.3283 17.0898C52.7237 17.0898 52.6027 16.8963 52.6027 16.3159V13.0993H54.0296V11.7692H52.6027V9.88281H51.0066L50.668 11.7692H49.5555H49.4588C48.5398 11.7692 47.8626 12.3254 47.4273 13.1961L46.871 11.7692H45.7344V18.4199H47.6933V15.5178C47.6933 14.0667 48.564 13.1235 49.5797 13.0993H50.6438V16.4126C50.6438 17.9604 51.4419 18.5408 52.7479 18.5408C53.425 18.5408 53.9329 18.3957 54.2473 18.299L54.0054 16.9689Z" fill="black"/>
<path d="M63.559 13.897V18.4437H61.6484V11.793H62.8093L63.1962 12.8087" fill="black"/>
<path d="M63.1719 12.8081C63.7523 12.1309 64.5504 11.623 65.4694 11.623C67.0656 11.623 67.6944 12.8806 67.6944 14.0657V18.4431H65.7354V14.114C65.7354 13.5336 65.2517 13.2434 64.7439 13.2434C64.1876 13.2434 63.849 13.5578 63.5346 13.8964" fill="black"/>
<path d="M30.6914 9.375H32.868L35.8669 15.0825V9.375H37.6807V18.4442H35.6976L32.5052 12.1804V18.4442H30.6914V9.375Z" fill="black"/>
<path d="M73.4981 5.96484V6.30342H73.0144V7.8996H72.6517V6.30342H72.168V5.96484H73.4981Z" fill="#979695"/>
<path d="M73.7617 7.8996V5.96484H74.2454L74.584 7.22243L74.9226 5.96484H75.4304V7.8996H75.116V6.40016L74.7291 7.8996H74.4631L74.0761 6.40016H74.0519V7.8996H73.7617Z" fill="#979695"/>
<path d="M30.1602 26.4722L30.6197 25.7708C30.9824 26.0368 31.5387 26.3029 32.2158 26.3029C32.8688 26.3029 33.2799 26.0127 33.2799 25.4806C33.2799 24.9002 32.7721 24.7309 31.9256 24.4407C31.1759 24.1746 30.4262 23.7877 30.4262 22.7236C30.4262 21.732 31.2243 21.1758 32.2642 21.1758C32.9655 21.1758 33.4976 21.3209 33.9087 21.5627L33.546 22.3125C33.2074 22.119 32.7721 21.9981 32.2884 21.9981C31.708 21.9981 31.3452 22.2157 31.3452 22.6994C31.3452 23.2556 31.7563 23.3766 32.5302 23.6426C33.3283 23.9086 34.2231 24.2714 34.2231 25.4564C34.2231 26.448 33.5218 27.101 32.24 27.101C31.2484 27.1251 30.5713 26.8107 30.1602 26.4722Z" fill="#979695"/>
<path d="M35.9141 21.2969H39.3483V22.095H36.8814V23.6669H38.8162V24.4408H36.8814V26.2547H39.4934V27.0528H35.9141V21.2969Z" fill="#979695"/>
<path d="M40.8945 24.1759C40.8945 22.4829 41.6926 21.2012 43.313 21.2012C44.0385 21.2012 44.5947 21.4188 45.0059 21.9025L44.4255 22.5555C44.0869 22.2169 43.7967 22.0476 43.313 22.0476C42.3698 22.0476 41.9345 22.8215 41.9345 24.2484C41.9345 25.5786 42.394 26.2557 43.313 26.2557C43.8208 26.2557 44.1836 25.9897 44.498 25.6511L45.0784 26.2799C44.6673 26.7636 44.1352 27.1022 43.2888 27.1022C41.6684 27.1264 40.8945 25.8688 40.8945 24.1759Z" fill="#979695"/>
<path d="M46.6758 24.852V21.2969H47.6673V25.0213C47.6673 25.8194 47.8608 26.3272 48.7073 26.3272C49.5295 26.3272 49.7472 25.8194 49.7472 25.0213V21.2969H50.7388V24.852C50.7388 26.2789 50.1825 27.1253 48.7073 27.1253C47.232 27.1253 46.6758 26.2789 46.6758 24.852Z" fill="#979695"/>
<path d="M56.7388 27.0528H55.6747L54.5622 24.6101H53.6432V27.0528H52.6758V21.2969H54.5622C55.723 21.2969 56.642 21.708 56.642 22.9656C56.642 23.8362 56.1342 24.2716 55.5537 24.465L56.7388 27.0528ZM54.5138 23.8604C55.2393 23.8604 55.6263 23.6186 55.6263 22.9656C55.6263 22.3368 55.2393 22.095 54.5864 22.095H53.6673V23.8604H54.5138Z" fill="#979695"/>
<path d="M58.4062 21.2969H61.8404V22.095H59.3736V23.6669H61.3084V24.4408H59.3736V26.2547H61.9855V27.0528H58.4062V21.2969Z" fill="#979695"/>
<path d="M63.6297 21.2969H65.0565C66.9429 21.2969 67.8377 22.3126 67.8377 24.1506C67.8377 26.037 66.9187 27.0528 65.1049 27.0528H63.6055V21.2969H63.6297ZM65.0082 26.2547C66.3625 26.2547 66.822 25.6259 66.822 24.1506C66.822 22.8447 66.4592 22.095 65.1291 22.095H64.597V26.2547H65.0082Z" fill="#979695"/>
<path d="M14.221 32.688C6.57868 32.688 0.363281 26.4726 0.363281 18.8303C0.363281 11.188 6.57868 4.97266 14.221 4.97266C21.8632 4.97266 28.0786 11.188 28.0786 18.8303C28.0786 26.4726 21.8632 32.688 14.221 32.688ZM14.221 9.35004C11.6816 9.35004 9.31152 10.3416 7.52187 12.1312C5.73222 13.9209 4.74066 16.291 4.74066 18.8303C4.74066 21.3697 5.73222 23.7398 7.52187 25.5294C9.31152 27.3191 11.6816 28.3106 14.221 28.3106C16.7603 28.3106 19.1304 27.3191 20.92 25.5294C22.7097 23.7398 23.7012 21.3697 23.7012 18.8303C23.7012 16.291 22.7097 13.9209 20.92 12.1312C19.1304 10.3416 16.7361 9.35004 14.221 9.35004Z" fill="#F0BC44"/>
<path d="M30.4008 2.82031H29.3125V3.90861H30.4008V2.82031Z" fill="#F0BC44"/>
<path d="M30.4008 0.667969H29.3125V1.75627H30.4008V0.667969Z" fill="#F0BC44"/>
<path d="M27.2814 3.88477H26.2656V4.94888H27.2814V3.88477Z" fill="#F0BC44"/>
<path d="M25.297 5.96484H24.2812V6.98058H25.297V5.96484Z" fill="black"/>
<path d="M28.4179 4.94922H27.2812V5.96497H28.4179V4.94922Z" fill="black"/>
<path d="M24.2814 4.99609H23.2656V5.96347H24.2814V4.99609Z" fill="black"/>
<path d="M27.2814 5.96484H26.2656V6.98058H27.2814V5.96484Z" fill="black"/>
<path d="M29.3102 1.75586H28.2461V2.81997H29.3102V1.75586Z" fill="black"/>
<path d="M28.2487 2.82031H26.2656V3.88443H28.2487V2.82031Z" fill="black"/>
<path d="M26.2884 3.88477H25.2969V5.96463H26.2884V3.88477Z" fill="black"/>
<path d="M25.2974 6.98047V7.99622H24.2816V6.98047H22.5887V7.706H21.6939V8.60083H22.7096V9.61658H21.6939V8.60083H20.6298V10.1728H19.5898V11.1886H18.9127V12.2043H18.163C17.3407 13.4377 15.2367 17.3072 14.6079 18.8792C12.3345 15.711 10.5691 14.4535 9.16636 13.994C8.41665 13.7763 7.52182 14.5744 8.75523 15.8803C11.609 19.0243 12.528 21.6362 13.3986 23.7161C13.8581 24.8044 15.9138 24.9737 16.325 23.8612C17.1956 21.4911 18.4774 18.855 20.001 16.6784V15.5418H20.7991V14.526H21.6455V13.341H22.6613V12.2285H21.6455V11.1886H22.6613V12.2285H23.6528V11.2127H24.4509V9.97934H25.3457V9.13289H26.2164V6.98047H25.2974Z" fill="black"/>
</svg>
