<svg width="91" height="22" viewBox="0 0 91 22" fill="none" xmlns="http://www.w3.org/2000/svg">
<path d="M2.49276 2.26074C3.78028 0.893095 5.66563 0.276348 7.49156 0.0827702C10.2782 -0.171131 13.1764 0.223226 15.6929 1.48643C15.0735 2.88559 14.4658 4.29196 13.8157 5.67761C12.5417 4.97893 11.1065 4.50894 9.64072 4.56387C9.00867 4.59178 8.3343 4.75294 7.87692 5.21843C7.37001 5.71993 7.3475 6.59328 7.77788 7.1497C8.22356 7.73674 8.93034 8.03475 9.59841 8.29406C11.2046 8.8874 12.8964 9.3979 14.2524 10.4864C15.2419 11.2625 15.9378 12.4042 16.1368 13.6503C16.3808 15.2043 16.1665 16.8844 15.2995 18.2232C14.6026 19.3073 13.5078 20.0861 12.3202 20.5561C10.704 21.1962 8.94384 21.3664 7.21875 21.3511C4.90032 21.3304 2.56659 20.8739 0.46875 19.8709C1.12421 18.3052 1.78508 16.7412 2.45404 15.18C3.8505 15.8814 5.37752 16.3523 6.94234 16.4477C7.71035 16.4882 8.56209 16.3964 9.15903 15.8616C9.74156 15.3574 9.81179 14.3931 9.31299 13.8079C8.79708 13.2055 8.01647 12.9435 7.29888 12.6653C5.62782 12.063 3.86761 11.466 2.57109 10.1947C1.5825 9.25384 1.03958 7.9024 1.00717 6.54556C0.929735 4.99964 1.40873 3.3925 2.49276 2.26074Z" fill="#65666A"/>
<path d="M39.9438 1.98702C41.4024 0.800345 43.2535 0.144883 45.1227 0.0296366C47.3169 -0.0991149 49.6083 0.239421 51.5062 1.40629C50.8616 2.88018 50.225 4.35857 49.557 5.82166C48.5296 5.1923 47.2763 4.95191 46.0906 5.16259C45.1479 5.34176 44.3295 5.97022 43.8397 6.78504C43.132 7.94561 42.933 9.33937 42.9402 10.6773C42.9357 11.4273 43.06 12.1701 43.2166 12.9012C41.8319 13.3091 40.4489 13.7232 39.0768 14.1698C38.3736 14.3859 37.6857 14.6533 36.9717 14.8325C36.6035 13.572 36.409 12.2628 36.3928 10.9492C36.3667 9.26013 36.5747 7.55035 37.1626 5.96031C37.7244 4.4261 38.6644 3.01433 39.9438 1.98702Z" fill="#65666A"/>
<path d="M77.7133 0.168944C79.7959 -0.0381385 81.909 -0.0849573 83.9834 0.23197C83.6008 1.91744 83.2235 3.60472 82.8319 5.28839C81.3706 4.88053 79.7797 4.76979 78.3247 5.26228C78.3202 5.60802 78.3148 5.95376 78.3085 6.2995C76.1782 6.49398 74.0561 6.76319 71.9303 6.99278C71.9096 5.15784 71.9204 3.32291 71.924 1.48797C73.7779 0.773086 75.7424 0.38233 77.7133 0.168944Z" fill="#65666A"/>
<path d="M17.2186 0.767846C19.3498 0.759742 21.48 0.757942 23.6103 0.768746C23.6274 5.12469 23.6094 9.48063 23.6193 13.8366C23.6256 14.5533 23.8281 15.3465 24.4404 15.785C25.1085 16.2631 25.9719 16.2829 26.7606 16.2585C27.3585 16.2495 27.9518 16.1514 28.5217 15.9731C28.5316 10.9059 28.5127 5.83868 28.5316 0.771447C30.6601 0.761543 32.7894 0.748038 34.9179 0.77865C34.9125 5.68742 34.9233 10.5953 34.9125 15.504C30.6394 16.9626 26.4581 18.6841 22.3795 20.6172C22.1634 20.7189 21.9185 20.809 21.6826 20.718C20.5958 20.3624 19.573 19.7528 18.823 18.8795C18.0361 17.9755 17.5922 16.8195 17.3888 15.649C17.215 14.6928 17.2141 13.7177 17.215 12.7489C17.2186 8.75584 17.2105 4.76185 17.2186 0.767846Z" fill="#65666A"/>
<path d="M52.1162 0.770908C54.2446 0.762805 56.374 0.746598 58.5024 0.779912C58.4979 3.56653 58.5015 6.35224 58.5006 9.13886C56.3713 9.58634 54.2392 10.0203 52.1171 10.5029C52.1009 7.25891 52.1027 4.01491 52.1162 0.770908Z" fill="#65666A"/>
<path d="M63.4068 0.76756C65.6469 0.763959 67.887 0.747752 70.1262 0.776564C70.1271 2.93473 70.1244 5.09199 70.1271 7.25016C67.8897 7.58329 65.6478 7.89391 63.4095 8.22435C63.3978 5.73845 63.4032 3.25346 63.4068 0.76756Z" fill="#65666A"/>
<path d="M84.5424 0.769934C86.6708 0.75913 88.8002 0.752827 90.9286 0.772635C90.9295 2.33566 90.9304 3.89869 90.9277 5.46171C88.7984 5.54365 86.6699 5.65889 84.5415 5.77504C84.5334 4.10667 84.5325 2.4383 84.5424 0.769934Z" fill="#62A945"/>
<path d="M84.5515 6.93576C86.6746 6.68005 88.7986 6.41805 90.9306 6.23438C90.9288 11.172 90.9315 16.1104 90.9288 21.048C88.7994 21.0597 86.6701 21.0561 84.5416 21.0498C84.5317 17.1729 84.5398 13.295 84.5371 9.41715C84.5416 8.59062 84.5227 7.76319 84.5515 6.93576Z" fill="#9D9DA0"/>
<path d="M71.9358 8.8286C74.0633 8.46576 76.1846 8.0624 78.3166 7.72656C78.322 12.1662 78.3175 16.6068 78.3193 21.0465C76.1882 21.0627 74.057 21.0546 71.9259 21.051C71.925 16.9769 71.9033 12.9027 71.9358 8.8286Z" fill="#9D9DA0"/>
<path d="M63.4065 10.6101C65.6466 10.1545 67.8813 9.67825 70.1232 9.23438C70.1214 12.7386 70.125 16.2437 70.1214 19.7479C68.3675 20.4745 66.4857 20.8409 64.6067 21.0525C62.9122 21.2299 61.1997 21.2875 59.5016 21.1362C57.8846 20.976 56.2297 20.5942 54.8837 19.6407C53.8411 18.9115 53.0839 17.8148 52.703 16.6056C52.4005 15.6602 52.269 14.6653 52.2735 13.6741C54.339 13.0663 56.3981 12.4325 58.4833 11.8931C58.5184 12.599 58.4698 13.3076 58.5175 14.0135C58.5653 14.6329 58.8003 15.2839 59.3234 15.6566C59.8456 16.0348 60.5118 16.1275 61.1421 16.1365C61.8966 16.1365 62.6619 16.1149 63.393 15.9078C63.4164 14.1422 63.3858 12.3757 63.4065 10.6101Z" fill="#9D9DA0"/>
<path d="M46.4752 15.9577C47.5448 16.0756 48.6423 15.8163 49.5553 15.25C50.2171 16.7725 50.8716 18.2986 51.5037 19.8328C49.7273 20.8998 47.6222 21.2815 45.5712 21.2176C43.1411 21.1771 40.6822 20.2047 39.0508 18.3725C41.0082 17.5738 42.989 16.8346 44.9779 16.1188C45.2399 16.0279 45.4983 15.91 45.7756 15.8703C46.0115 15.8658 46.2411 15.9334 46.4752 15.9577Z" fill="#9D9DA0"/>
</svg>
