<svg width="83" height="29" viewBox="0 0 83 29" fill="none" xmlns="http://www.w3.org/2000/svg">
<path d="M1.77754 0.447266H27.2261C27.6441 0.784626 28.1917 0.957571 28.5182 1.40428C28.854 1.80524 28.9478 2.34269 28.9377 2.85222C28.9478 10.8411 28.9315 18.8299 28.9455 26.8187C28.961 27.3205 28.6531 27.7354 28.36 28.1108C28.0676 28.4846 27.6116 28.6622 27.2215 28.9096H1.7566C1.3572 28.6878 0.943833 28.4683 0.632065 28.1263C0.356749 27.8417 0.201641 27.4718 0 27.1367V2.18293C0.245846 1.86961 0.38079 1.47873 0.678598 1.20419C0.978732 0.863731 1.39752 0.679152 1.77754 0.447266ZM11.0817 3.77744C8.5705 4.52738 6.33539 6.17308 4.88203 8.35468C3.62643 10.2129 2.92689 12.455 2.95791 14.7001C3.64737 14.7009 4.3376 14.7056 5.02783 14.6947C5.07979 14.2216 5.0635 13.7424 5.15347 13.2739C5.41327 11.6143 6.13375 10.0329 7.21253 8.74555C8.66589 6.99593 10.78 5.80935 13.033 5.49293C14.7919 5.24864 16.6253 5.49371 18.2368 6.24753C19.8802 6.99515 21.2878 8.2399 22.2479 9.76694C23.1848 11.2288 23.6625 12.9606 23.6858 14.6924C24.3737 14.7095 25.0616 14.7017 25.7503 14.6963C25.8061 14.2798 25.7448 13.8602 25.7037 13.4453C25.5316 11.8485 25.0151 10.2881 24.1876 8.91151C22.7776 6.50811 20.4526 4.6569 17.7917 3.82707C15.6271 3.13374 13.2571 3.12831 11.0817 3.77744ZM13.4502 7.48142C12.6211 7.62257 11.8022 7.85755 11.0515 8.24222C9.59654 8.96813 8.44176 10.2268 7.74765 11.6887C7.07526 13.1995 6.89611 14.9421 7.34049 16.5421C7.7174 18.0745 8.65736 19.4434 9.8959 20.4112C11.3601 21.5955 13.3184 22.1244 15.1828 21.9057C16.4322 21.7847 17.6304 21.2977 18.644 20.564C18.9457 20.3476 19.2458 20.1212 19.4792 19.8296C19.2846 19.5597 19.0302 19.3441 18.796 19.1106C18.5463 18.8664 18.3152 18.6019 18.0484 18.3747C17.7544 18.5197 17.5474 18.7834 17.2759 18.9625C16.4539 19.4992 15.4891 19.8435 14.5011 19.8575C13.0485 19.9071 11.592 19.2913 10.6024 18.2296C9.74932 17.33 9.23746 16.1109 9.19791 14.8708C9.16766 14.0448 9.35534 13.2173 9.70434 12.4712C10.3589 11.1552 11.568 10.0973 13.0027 9.72893C14.111 9.43035 15.3425 9.46835 16.3895 9.9647C17.9429 10.6162 19.1272 12.0796 19.4296 13.7385C19.4824 14.0557 19.4761 14.3814 19.5522 14.6955C20.2385 14.7102 20.9264 14.7141 21.6135 14.6947C21.643 12.5884 20.6604 10.5107 19.0473 9.16356C17.9297 8.20189 16.5066 7.62024 15.0455 7.4628C14.5142 7.44807 13.9791 7.43023 13.4502 7.48142ZM11.3144 14.704C13.3354 14.7017 15.3573 14.7102 17.3791 14.697C17.4977 13.9828 17.1557 13.2778 16.7214 12.7318C16.115 11.992 15.1409 11.5732 14.187 11.6329C12.6289 11.6949 11.2291 13.1227 11.3144 14.704Z" fill="#8CC63E"/>
<path d="M32.8633 17.664C33.0921 17.6338 33.3255 17.6221 33.552 17.6818C34.0654 19.0949 34.5291 20.5296 35.0216 21.9496C35.0379 21.9582 35.0697 21.9768 35.086 21.9861C35.4846 20.6886 35.9437 19.4098 36.3563 18.1169C36.4059 17.9603 36.468 17.8083 36.5362 17.6586C36.7309 17.6625 37.2381 17.5236 37.1706 17.8532C36.6371 19.4051 36.0725 20.9469 35.5443 22.5011C35.5086 22.5918 35.473 22.6841 35.4109 22.7601C35.1519 22.8384 34.875 22.8183 34.6145 22.7624C34.1197 21.5231 33.7203 20.2458 33.2611 18.9925C33.1339 18.5481 32.8858 18.1324 32.8633 17.664Z" fill="#8CC63E"/>
<path d="M38.5385 17.7459C38.806 17.6156 39.1116 17.6723 39.3985 17.6614C40.0368 17.6816 40.6782 17.6296 41.3157 17.687C41.3351 17.8568 41.3382 18.0282 41.3242 18.1988C40.6309 18.2717 39.9329 18.2027 39.2372 18.2306C39.1798 18.7603 39.2023 19.297 39.2264 19.8283C39.8282 19.8577 40.4316 19.8089 41.0341 19.8492C41.0636 20.0206 41.0644 20.1951 41.0396 20.368C40.4354 20.4014 39.8305 20.3564 39.2264 20.3851C39.2031 20.9939 39.1806 21.6081 39.2372 22.2161C39.9406 22.2386 40.6456 22.1844 41.3482 22.2386C41.3762 22.4139 41.3746 22.5923 41.3413 22.7668C40.6681 22.8056 39.9934 22.7683 39.3202 22.7846C39.0588 22.7784 38.782 22.8203 38.5392 22.7001C38.4997 21.384 38.5354 20.0664 38.5222 18.7495C38.5198 18.4152 38.5129 18.0802 38.5385 17.7459Z" fill="#8CC63E"/>
<path d="M43.1142 17.7462C43.533 17.5818 43.9983 17.6951 44.4372 17.6617C45.0414 17.6253 45.7619 17.7811 46.0674 18.3628C46.2761 18.8142 46.2753 19.4051 45.9682 19.8138C45.803 20.0248 45.5571 20.1465 45.34 20.2947C45.6448 20.5917 45.879 20.9516 46.0186 21.3548C46.1814 21.8264 46.4537 22.2645 46.5266 22.7632C46.3024 22.8105 46.0729 22.8191 45.8464 22.7857C45.5121 22.1785 45.3865 21.4735 45.0111 20.8872C44.7529 20.4878 44.2248 20.4668 43.7998 20.5134C43.7563 21.2633 43.8021 22.0156 43.7835 22.7663C43.5648 22.8152 43.3399 22.8136 43.1196 22.7818C43.0676 21.5169 43.1126 20.2481 43.0979 18.9825C43.1002 18.5699 43.0816 18.1573 43.1142 17.7462ZM43.7718 18.2356C43.7718 18.7925 43.7711 19.3501 43.7718 19.9069C44.0906 19.9829 44.4225 19.9558 44.7444 19.9131C45.0491 19.8681 45.3532 19.6673 45.4369 19.3578C45.5346 18.9941 45.4392 18.5218 45.0654 18.3535C44.6606 18.179 44.2023 18.231 43.7718 18.2356Z" fill="#8CC63E"/>
<path d="M48.0855 17.6674C48.2941 17.6364 48.5058 17.6348 48.716 17.6604C48.7711 18.7974 48.723 19.9374 48.7385 21.0759C48.7261 21.6452 48.7695 22.2167 48.716 22.7844C48.5058 22.8108 48.2941 22.81 48.0855 22.7806C48.0312 21.5676 48.0785 20.3508 48.063 19.1363C48.0715 18.6469 48.0366 18.156 48.0855 17.6674Z" fill="#8CC63E"/>
<path d="M50.6368 17.7469C50.8804 17.6275 51.1572 17.6686 51.4194 17.6616C52.0406 17.6779 52.6633 17.6414 53.2845 17.6802C53.3179 17.8578 53.3187 18.0385 53.2923 18.2177C52.6455 18.2766 51.9956 18.2215 51.348 18.2394C51.2627 18.8148 51.3092 19.4042 51.3247 19.9843C51.9483 20.0161 52.5734 19.9595 53.1969 20.0099C53.2256 20.1813 53.224 20.355 53.1961 20.5272C52.578 20.5986 51.956 20.5303 51.3364 20.5582C51.2619 21.2911 51.3333 22.031 51.3069 22.767C51.0882 22.8158 50.8633 22.8143 50.643 22.7817C50.5911 21.5944 50.6361 20.4039 50.6213 19.2158C50.6275 18.7264 50.6012 18.2355 50.6368 17.7469Z" fill="#8CC63E"/>
<path d="M54.9879 17.6674C55.1965 17.6364 55.4082 17.6348 55.6184 17.6604C55.6727 18.7718 55.6254 19.8862 55.6417 20.9984C55.6277 21.5932 55.6719 22.1904 55.6184 22.7844C55.4082 22.8108 55.1957 22.81 54.9871 22.7806C54.9344 21.5676 54.9801 20.3508 54.9654 19.1371C54.9739 18.6469 54.939 18.156 54.9879 17.6674Z" fill="#8CC63E"/>
<path d="M57.5392 17.7475C57.8308 17.6087 58.1635 17.6769 58.4753 17.663C59.088 17.6824 59.703 17.6288 60.3149 17.6886C60.3351 17.8584 60.3382 18.0298 60.3242 18.1996C59.6309 18.2725 58.9329 18.2035 58.2372 18.2314C58.1798 18.7611 58.2023 19.297 58.2256 19.8291C58.8282 19.8593 59.4316 19.8089 60.0341 19.85C60.0628 20.0214 60.0636 20.1959 60.0388 20.3688C59.4347 20.4022 58.8297 20.3572 58.2264 20.3859C58.2031 20.9947 58.1806 21.6089 58.2372 22.2162C58.9406 22.2394 59.6456 22.1851 60.3475 22.2394C60.3754 22.4147 60.3738 22.5931 60.3405 22.7676C59.6681 22.8064 58.9934 22.7691 58.3202 22.7862C58.0588 22.7784 57.7812 22.8211 57.5385 22.7009C57.4997 21.3848 57.5346 20.0671 57.5222 18.7503C57.5198 18.416 57.5129 18.081 57.5392 17.7475Z" fill="#8CC63E"/>
<path d="M62.1129 17.747C62.3556 17.626 62.6332 17.6694 62.8954 17.6617C63.5794 17.6679 64.3138 17.6066 64.9343 17.9564C65.5694 18.2883 65.9479 18.9824 66.0138 19.6812C66.0689 20.3667 66.0472 21.0996 65.7013 21.7139C65.4554 22.1629 65.0242 22.4964 64.5372 22.6453C63.9835 22.833 63.3909 22.774 62.817 22.7864C62.5805 22.7818 62.3316 22.8112 62.1129 22.7011C62.0741 21.437 62.109 20.1705 62.0973 18.9056C62.0973 18.5194 62.0826 18.1324 62.1129 17.747ZM62.7721 18.2363C62.7736 19.5617 62.7736 20.8864 62.7713 22.2118C63.3669 22.2195 64.0168 22.2785 64.5527 21.9659C65.07 21.6596 65.2709 21.0329 65.2957 20.4629C65.3376 19.8169 65.2429 19.0755 64.7218 18.6295C64.1897 18.1603 63.4305 18.2216 62.7721 18.2363Z" fill="#8CC63E"/>
<path d="M11.0818 3.77765C13.2572 3.12852 15.6273 3.13395 17.7918 3.82728C20.4527 4.65711 22.7777 6.50832 24.1877 8.91172C25.0152 10.2883 25.5317 11.8487 25.7038 13.4455C25.745 13.8604 25.8062 14.28 25.7504 14.6965C25.0617 14.7019 24.3738 14.7097 23.6859 14.6926C23.6626 12.9608 23.1849 11.229 22.248 9.76714C21.2879 8.2401 19.8803 6.99536 18.2369 6.24774C16.6254 5.49392 14.792 5.24885 13.0331 5.49314C10.7801 5.80956 8.666 6.99614 7.21264 8.74576C6.13386 10.0332 5.41338 11.6145 5.15358 13.2741C5.06361 13.7426 5.0799 14.2218 5.02794 14.6949C4.33771 14.7058 3.64748 14.7011 2.95802 14.7004C2.927 12.4552 3.62654 10.2131 4.88214 8.35489C6.3355 6.17329 8.57061 4.52759 11.0818 3.77765Z" fill="white"/>
<path d="M60.7935 5.71676C61.4752 5.13123 62.3903 4.83265 63.2853 4.86289C64.5704 4.81636 65.8756 5.23283 66.8838 6.03396C66.5682 6.56908 66.2106 7.08171 65.8306 7.57263C65.3064 7.29731 64.8116 6.94987 64.233 6.79089C63.6963 6.63733 63.0906 6.55124 62.564 6.78313C62.2492 6.94677 61.9421 7.26397 61.9808 7.64476C62.0382 8.08139 62.4462 8.36291 62.8285 8.50948C63.8049 8.87399 64.8674 8.99265 65.7942 9.49132C66.5069 9.82092 67.0994 10.498 67.1591 11.303C67.1731 11.707 67.1948 12.1165 67.1297 12.5167C66.9807 13.1441 66.6411 13.7529 66.0912 14.1128C65.3909 14.6107 64.513 14.7534 63.6731 14.7968C62.1995 14.7472 60.6872 14.278 59.5898 13.2628C59.7814 12.9743 60.0319 12.7323 60.2475 12.4616C60.4274 12.2476 60.581 12.0087 60.8005 11.8311C61.1479 12.0289 61.4418 12.3081 61.8032 12.4841C62.5485 12.8921 63.4334 13.0883 64.2749 12.92C64.6316 12.8541 64.983 12.633 65.121 12.2864C65.1699 12.0832 65.1761 11.8583 65.1055 11.6597C64.9194 11.3177 64.5455 11.1393 64.1958 11.0091C63.0976 10.6104 61.8746 10.4964 60.8928 9.81937C60.4158 9.51148 60.1118 8.98334 60.0272 8.42728C59.8186 7.47569 60.0753 6.39691 60.7935 5.71676Z" fill="white"/>
<path d="M56.1818 4.97966C56.8619 4.98199 57.542 4.98122 58.2222 4.97656C58.2734 6.61916 58.2276 8.26485 58.2439 9.909C58.2711 11.0591 58.1602 12.2884 57.4893 13.2617C56.9658 14.0705 56.0367 14.5219 55.1131 14.6918C53.8668 14.9244 52.4941 14.7965 51.406 14.107C50.6281 13.6254 50.183 12.7607 49.9759 11.8944C49.813 11.2972 49.8782 10.6745 49.8673 10.0641C49.8743 8.38196 49.8533 6.69826 49.8766 5.01611C50.5412 4.98354 51.2105 4.98432 51.876 5.01379C51.8961 6.93092 51.8744 8.84884 51.8845 10.766C51.9225 11.3057 52.0753 11.8773 52.4747 12.2659C53.3006 13.2081 54.9921 13.136 55.7374 12.1286C56.0561 11.7199 56.1748 11.1917 56.1756 10.6814C56.1849 8.78136 56.1701 6.87974 56.1818 4.97966Z" fill="white"/>
<path d="M31.0315 5.01348C32.992 4.97316 34.9549 5.00883 36.917 4.9972C37.6119 5.01038 38.3076 4.96928 39.0017 5.01271C39.0164 5.63314 39.0149 6.25357 39.0017 6.87401C38.0997 6.90503 37.1962 6.86392 36.2951 6.88719C36.1601 6.88176 35.9833 6.95854 36.0166 7.12063C36.0027 9.62407 36.0383 12.1283 36.0003 14.631C35.3264 14.6441 34.6525 14.6457 33.9785 14.6302C33.9576 12.1267 33.9785 9.62175 33.9692 7.1183C33.9932 6.97793 33.8754 6.8585 33.7358 6.88409C32.8346 6.86935 31.9326 6.90115 31.0315 6.87478C31.0152 6.25512 31.0159 5.63392 31.0315 5.01348Z" fill="white"/>
<path d="M40.1827 5.01268C41.7035 4.98321 43.2259 4.99407 44.7475 5.00958C45.72 4.98864 46.7368 5.28722 47.4479 5.97125C48.3662 7.00349 48.474 8.61197 47.8411 9.81638C47.5945 10.2778 47.2005 10.6547 46.7383 10.8967C46.5483 10.9983 46.3443 11.0797 46.183 11.2271C46.3622 11.59 46.6305 11.8964 46.8492 12.2345C47.3851 13.0388 47.9536 13.8213 48.474 14.6356C47.679 14.6348 46.8833 14.6565 46.09 14.6263C45.879 14.3866 45.7208 14.1098 45.5432 13.8469C45.1198 13.2101 44.6878 12.5789 44.2705 11.9383C44.1387 11.7599 44.0092 11.4946 43.7447 11.5358C43.2856 11.5404 42.8242 11.5109 42.3666 11.5536C42.2177 11.6172 42.2611 11.794 42.2464 11.9227C42.2456 12.8239 42.2557 13.7251 42.2479 14.6271C41.56 14.6503 40.8706 14.6449 40.1834 14.6309C40.1734 11.4249 40.1734 8.21877 40.1827 5.01268ZM42.3681 6.82279C42.3457 6.84451 42.3007 6.88871 42.2782 6.91043C42.2045 7.67356 42.2735 8.44522 42.2448 9.21146C42.2696 9.3844 42.1929 9.6256 42.3674 9.7365C42.8498 9.78458 43.336 9.7365 43.82 9.75434C44.4311 9.76752 45.105 9.76442 45.6177 9.38208C46.2567 8.92373 46.356 7.8721 45.7859 7.32302C45.3765 6.86002 44.7095 6.7941 44.1294 6.80341C43.5423 6.8259 42.9529 6.77549 42.3681 6.82279Z" fill="white"/>
<path d="M67.6372 5.01507C69.2876 4.97241 70.941 5.01041 72.5921 4.99723C73.5972 5.01041 74.6039 4.97241 75.6082 5.01507C75.6245 5.6355 75.6237 6.25593 75.609 6.87559C74.7078 6.90196 73.8051 6.86938 72.9047 6.88489C72.7635 6.86008 72.6449 6.97796 72.6705 7.11911C72.6604 9.62255 72.6829 12.1275 72.6612 14.631C71.9709 14.645 71.2799 14.6488 70.5905 14.6279C70.5796 12.4347 70.5897 10.2407 70.5858 8.04743C70.5781 7.69378 70.6161 7.33781 70.5672 6.98571C70.5036 6.87559 70.3741 6.88644 70.2671 6.88102C69.3907 6.87481 68.5128 6.89963 67.6372 6.87559C67.6209 6.25593 67.6209 5.63472 67.6372 5.01507Z" fill="white"/>
<path d="M76.2675 8.08152C77.5657 6.85772 79.7737 6.8042 81.1332 7.95821C81.5373 8.32892 81.8149 8.81751 82.0197 9.32161C82.2159 9.79857 82.2678 10.3159 82.3632 10.8184V11.3551C82.3299 11.4357 82.295 11.5164 82.2593 11.5963C81.2612 11.649 80.26 11.5994 79.2611 11.6157C78.5476 11.635 77.831 11.5699 77.1213 11.6521C77.195 12.2904 77.6611 12.8612 78.2575 13.0876C78.7143 13.2358 79.2145 13.2249 79.6791 13.1163C80.1111 13.0116 80.4414 12.6983 80.8114 12.4711C81.2038 12.7844 81.6001 13.1016 81.9281 13.4847C81.4047 14.2013 80.5399 14.6054 79.6822 14.7496C78.415 14.9528 77.0213 14.6154 76.1046 13.6863C74.6993 12.1585 74.7862 9.52868 76.2675 8.08152ZM78.0729 8.8811C77.5425 9.19364 77.1702 9.75203 77.081 10.3608C77.2416 10.4741 77.4447 10.4477 77.6309 10.4523C78.3816 10.4446 79.1331 10.4454 79.8838 10.4523C80.0436 10.4492 80.2196 10.4648 80.3546 10.3585C80.3189 9.71791 79.9148 9.09593 79.3216 8.83767C78.9229 8.69342 78.4568 8.69575 78.0729 8.8811Z" fill="white"/>
<path d="M13.4511 7.48129C13.9801 7.43011 14.5152 7.44795 15.0464 7.46268C16.5076 7.62012 17.9307 8.20177 19.0482 9.16344C20.6613 10.5106 21.644 12.5882 21.6145 14.6946C20.9274 14.714 20.2395 14.7101 19.5531 14.6954C19.4771 14.3813 19.4833 14.0556 19.4306 13.7384C19.1281 12.0795 17.9439 10.616 16.3904 9.96457C15.3435 9.46823 14.1119 9.43023 13.0037 9.72881C11.5689 10.0972 10.3598 11.155 9.70529 12.4711C9.35629 13.2172 9.16861 14.0447 9.19886 14.8706C9.23841 16.1107 9.75027 17.3299 10.6034 18.2295C11.593 19.2912 13.0494 19.907 14.502 19.8574C15.49 19.8434 16.4548 19.4991 17.2769 18.9624C17.5483 18.7832 17.7554 18.5196 18.0493 18.3745C18.3161 18.6018 18.5472 18.8662 18.7969 19.1105C19.0312 19.344 19.2855 19.5596 19.4802 19.8294C19.2468 20.1211 18.9466 20.3475 18.6449 20.5639C17.6313 21.2975 16.4331 21.7846 15.1837 21.9056C13.3193 22.1243 11.3611 21.5954 9.89684 20.4111C8.65831 19.4432 7.71835 18.0744 7.34144 16.5419C6.89705 14.942 7.0762 13.1994 7.7486 11.6886C8.44271 10.2267 9.59749 8.968 11.0524 8.2421C11.8031 7.85743 12.6221 7.62244 13.4511 7.48129Z" fill="#FFFFFE"/>
<path d="M11.3162 14.7037C11.2309 13.1224 12.6307 11.6946 14.1888 11.6326C15.1427 11.5729 16.1168 11.9917 16.7233 12.7315C17.1576 13.2775 17.4996 13.9825 17.3809 14.6967C15.3591 14.7099 13.3373 14.7014 11.3162 14.7037Z" fill="#FFFFFE"/>
</svg>
