<svg width="52" height="74" viewBox="0 0 52 74" fill="none" xmlns="http://www.w3.org/2000/svg">
<path d="M25.5721 69.027L19.5588 65.6793L13.5455 69.027V42.3082H25.5721V69.027Z" fill="#FECC41"/>
<path d="M25.572 69.027L31.5853 65.6793L37.5934 69.027V42.3082H25.572V69.027Z" fill="#FECC41"/>
<path d="M31.5854 73.7916L25.5721 70.4439L19.5588 73.7916V47.0676H31.5854V73.7916Z" fill="#FFEB57"/>
<path d="M29.8643 71.0001L25.5721 68.6074L21.2747 71.0001V48.0174L29.8643 47.0676V71.0001Z" fill="#FECC41"/>
<path d="M5.93159 26.1888C5.93159 15.3428 14.7259 6.55376 25.5666 6.54851V0.00524902C23.6986 0.00524902 22.2714 3.69928 20.5241 4.09807C18.7243 4.50735 15.8331 1.81553 14.2064 2.60261C12.5536 3.40543 12.8684 7.34608 11.4464 8.48473C10.0192 9.62337 6.24117 8.448 5.10253 9.87523C3.96913 11.2972 5.95258 14.7132 5.14975 16.366C4.36267 17.9927 0.448259 18.5646 0.0337296 20.3696C-0.365058 22.117 2.90395 24.326 2.90395 26.194C2.90395 28.062 -0.365058 30.2711 0.0337296 32.0184C0.443011 33.8235 4.36267 34.3902 5.14975 36.0168C5.95258 37.6697 3.96913 41.0908 5.10253 42.5128C6.24642 43.9401 10.0192 42.7594 11.4464 43.9033C12.8684 45.0367 12.5483 48.9826 14.2064 49.7802C15.8331 50.5673 18.7243 47.8755 20.5241 48.2848C22.2714 48.6835 23.6986 52.3723 25.5666 52.3723V45.8291C14.7259 45.8291 5.93159 37.0348 5.93159 26.1888Z" fill="#FFF080"/>
<path d="M51.0996 20.3644C50.6903 18.5593 46.7706 17.9927 45.9835 16.366C45.186 14.7132 47.1694 11.292 46.0308 9.86999C44.8921 8.44275 41.1141 9.62337 39.6869 8.47948C38.2649 7.34608 38.585 3.40019 36.9269 2.59737C35.3002 1.81028 32.409 4.5021 30.6092 4.09282C28.8619 3.69403 27.4347 0 25.5667 0V6.54851C36.4126 6.54851 45.2017 15.3428 45.2017 26.1888C45.2017 37.0347 36.4126 45.8238 25.5667 45.8238V52.3671C27.4347 52.3671 28.8619 48.673 30.6092 48.2795C32.4143 47.865 35.3002 50.562 36.9269 49.775C38.5797 48.9774 38.2649 45.0315 39.6869 43.8981C41.1141 42.7594 44.8869 43.9401 46.0308 42.5076C47.1642 41.0856 45.186 37.6697 45.9835 36.0115C46.7706 34.3849 50.685 33.8182 51.0996 32.0132C51.4983 30.2659 48.2293 28.0515 48.2293 26.1888C48.2293 24.3208 51.4983 22.1117 51.0996 20.3644Z" fill="#FFEB57"/>
<path d="M7.26438 26.1782C7.26438 16.0616 15.4605 7.86543 25.5771 7.86543V1.75769C23.835 1.75769 22.5023 5.19985 20.8756 5.5724C19.1913 5.95545 16.4995 3.44204 14.983 4.17665C13.4403 4.92175 13.7342 8.60004 12.4119 9.65997C11.0791 10.7252 7.55822 9.62324 6.49304 10.956C5.43311 12.2783 7.28012 15.4686 6.54026 17.0113C5.80566 18.5277 2.15361 19.063 1.77056 20.7421C1.39801 22.3739 4.44663 24.4361 4.44663 26.1782C4.44663 27.9202 1.39801 29.9824 1.77056 31.609C2.15361 33.2934 5.80566 33.8233 6.54026 35.3398C7.28537 36.8825 5.43835 40.0675 6.49304 41.395C7.55822 42.7278 11.0791 41.6259 12.4119 42.6911C13.7394 43.751 13.4403 47.4293 14.983 48.1744C16.4995 48.909 19.1965 46.3956 20.8756 46.7787C22.5023 47.1512 23.835 50.5934 25.5771 50.5934V44.4856C15.4605 44.4909 7.26438 36.2948 7.26438 26.1782Z" fill="#219ABC"/>
<path d="M49.3889 20.7421C49.0059 19.063 45.3538 18.5277 44.6192 17.0113C43.8741 15.4686 45.7211 12.2836 44.6612 10.956C43.596 9.62324 40.0804 10.7252 38.7423 9.65998C37.4148 8.60004 37.7139 4.92175 36.1712 4.17665C34.6495 3.44204 31.9577 5.95545 30.2786 5.5724C28.6467 5.19985 27.3192 1.75769 25.5771 1.75769V7.86543C35.6937 7.86543 43.8899 16.0668 43.8899 26.1782C43.8899 36.2948 35.6885 44.4909 25.5771 44.4909V50.5986C27.3192 50.5986 28.652 47.1565 30.2786 46.7839C31.9577 46.4009 34.6495 48.9143 36.1712 48.1797C37.7139 47.4346 37.4201 43.7563 38.7423 42.6964C40.0751 41.6312 43.596 42.7331 44.6612 41.4003C45.7211 40.0728 43.8689 36.8877 44.6192 35.345C45.3538 33.8286 49.0059 33.2934 49.3889 31.6143C49.7615 29.9824 46.7128 27.9255 46.7128 26.1834C46.7076 24.4361 49.7615 22.3739 49.3889 20.7421Z" fill="#198EC3"/>
<path d="M7.26438 26.1782C7.26438 16.0616 15.4605 7.86543 25.5771 7.86543V1.75769C23.835 1.75769 22.5023 5.19985 20.8756 5.5724C19.1913 5.95545 16.4995 3.44204 14.983 4.17665C13.4403 4.92175 13.7342 8.60004 12.4119 9.65997C11.0791 10.7252 7.55822 9.62324 6.49304 10.956C5.43311 12.2783 7.28012 15.4686 6.54026 17.0113C5.80566 18.5277 2.15361 19.063 1.77056 20.7421C1.39801 22.3739 4.44663 24.4361 4.44663 26.1782C4.44663 27.9202 1.39801 29.9824 1.77056 31.609C2.15361 33.2934 5.80566 33.8233 6.54026 35.3398C7.28537 36.8825 5.43835 40.0675 6.49304 41.395C7.55822 42.7278 11.0791 41.6259 12.4119 42.6911C13.7394 43.751 13.4403 47.4293 14.983 48.1744C16.4995 48.909 19.1965 46.3956 20.8756 46.7787C22.5023 47.1512 23.835 50.5934 25.5771 50.5934V44.4856C15.4605 44.4909 7.26438 36.2948 7.26438 26.1782Z" fill="#FECC41"/>
<path d="M49.3889 20.7421C49.0059 19.063 45.3538 18.5277 44.6192 17.0113C43.8741 15.4686 45.7211 12.2836 44.6612 10.956C43.596 9.62324 40.0804 10.7252 38.7423 9.65998C37.4148 8.60004 37.7139 4.92175 36.1712 4.17665C34.6495 3.44204 31.9577 5.95545 30.2786 5.5724C28.6467 5.19985 27.3192 1.75769 25.5771 1.75769V7.86543C35.6937 7.86543 43.8899 16.0668 43.8899 26.1782C43.8899 36.2948 35.6885 44.4909 25.5771 44.4909V50.5986C27.3192 50.5986 28.652 47.1565 30.2786 46.7839C31.9577 46.4009 34.6495 48.9143 36.1712 48.1797C37.7139 47.4346 37.4201 43.7563 38.7423 42.6964C40.0751 41.6312 43.596 42.7331 44.6612 41.4003C45.7211 40.0728 43.8689 36.8877 44.6192 35.345C45.3538 33.8286 49.0059 33.2934 49.3889 31.6143C49.7615 29.9824 46.7128 27.9255 46.7128 26.1834C46.7076 24.4361 49.7615 22.3739 49.3889 20.7421Z" fill="#FECC41"/>
<path d="M25.577 44.4917C35.6936 44.4917 43.8897 36.2903 43.8897 26.1789C43.8897 16.0623 35.6884 7.86621 25.577 7.86621V44.4917Z" fill="#FF835B"/>
<path d="M7.26436 26.1789C7.26436 36.2955 15.4605 44.4917 25.5771 44.4917V7.86621C15.4605 7.86621 7.26436 16.0623 7.26436 26.1789Z" fill="#FF835B"/>
<path d="M25.577 42.8489C34.7806 42.8489 42.2421 35.3874 42.2421 26.1838C42.2421 16.9802 34.7806 9.51343 25.577 9.51343V42.8489Z" fill="white"/>
<path d="M8.91185 26.1838C8.91185 35.3874 16.3734 42.8489 25.577 42.8489V9.51343C16.3734 9.51343 8.91185 16.9749 8.91185 26.1838Z" fill="white"/>
<path d="M27.5183 32.3114L27.5273 16.7006H25.7536L25.0658 16.8906C24.7309 17.7594 24.1834 18.5015 23.4187 19.1078C22.6586 19.7187 21.8531 20.0807 21.0115 20.1892V22.9675H24.0024V32.3114H20.7852V35.6463H24.0024H25.749H27.5138H30.7128V32.3114H27.5183Z" fill="#FF835B"/>
<path d="M27.17 32.3108V16.89H25.4053H24.7175C24.3826 17.7588 23.8351 18.5009 23.0749 19.1072C22.3148 19.7181 21.5093 20.0801 20.6677 20.1887V22.9669H23.6586V32.3108H20.4415V35.6457H23.6586H25.4053H27.17H30.3691V32.3108H27.17Z" fill="#FF9C7C"/>
<path d="M23.8351 32.3115V22.9677H23.6586V32.126H20.446L20.4415 35.6509H20.6224L20.6179 32.3115H23.8351Z" fill="#FFE6DE"/>
<path d="M23.2513 19.1078C24.016 18.4969 24.5635 17.7594 24.8983 16.8906H25.5861H27.1743L27.5318 16.7006H25.4096H24.7219C24.387 17.5693 23.8395 18.3069 23.0748 18.9178C22.3146 19.5286 21.5092 19.8906 20.6676 19.9992V22.7775H20.844V20.1892C21.6857 20.0807 22.4866 19.7187 23.2513 19.1078Z" fill="#FFE6DE"/>
</svg>
