<svg width="105" height="60" viewBox="0 0 105 60" fill="none" xmlns="http://www.w3.org/2000/svg">
<rect width="105" height="60" rx="12" fill="#250158"/>
<g clip-path="url(#clip0_1369_4776)">
<g clip-path="url(#clip1_1369_4776)">
<path d="M21.2517 25.491C21.2517 27.9403 19.6629 29.4609 17.1349 29.4609H15.511V32.2878H12.8865V21.5007H17.1262C19.6629 21.5007 21.2517 23.0315 21.2517 25.491ZM18.6008 25.491C18.6008 24.4909 18.0566 23.9092 16.9681 23.9092H15.511V27.0627H16.9681C18.0566 27.0627 18.6008 26.481 18.6008 25.491Z" fill="#1CC68D"/>
<path d="M22.1895 21.4604C22.1895 20.5827 22.7951 19.9092 23.7256 19.9092C24.656 19.9092 25.2617 20.5419 25.2617 21.4196C25.2617 22.3483 24.656 23.0218 23.7256 23.0218C22.7951 23.0116 22.1895 22.3381 22.1895 21.4604ZM22.4703 23.9403H24.9808V32.2883H22.4616V23.9403H22.4703Z" fill="#1CC68D"/>
<path d="M34.2602 27.5119V32.288H31.741V27.9915C31.741 26.7873 31.2933 26.277 30.5648 26.277C29.7572 26.277 29.134 26.8587 29.134 28.2467V32.288H26.6147V23.94H29.0111V24.8483C29.5817 24.1543 30.3892 23.7971 31.2933 23.7971C32.9787 23.7971 34.2602 24.9299 34.2602 27.5119Z" fill="#1CC68D"/>
<path d="M44.4075 26.8996C44.4075 23.6237 46.5669 21.2969 49.5075 21.2969C51.2191 21.2969 52.5972 22.0215 53.4926 23.3277L51.8247 25.0831C51.2455 24.2666 50.5256 23.8176 49.6391 23.8176C48.1117 23.8176 47.0584 25.0524 47.0584 26.8996C47.0584 28.7468 48.1206 29.9816 49.6391 29.9816C50.5256 29.9816 51.2455 29.5326 51.8247 28.7162L53.4926 30.4715C52.5884 31.7778 51.2102 32.5023 49.5075 32.5023C46.5669 32.5023 44.4075 30.1755 44.4075 26.8996Z" fill="white"/>
<path d="M61.2434 27.6544V32.2877H58.8999V31.2059C58.5399 32.0019 57.8289 32.4204 56.7843 32.4204C55.0639 32.4204 54.1072 31.2977 54.1072 29.8486C54.1072 28.3076 55.0727 27.3483 57.3023 27.3483H58.733C58.6892 26.5012 58.2064 26.0216 57.2057 26.0216C56.5211 26.0216 55.7487 26.2971 55.2571 26.7461L54.4056 24.7561C55.2307 24.1234 56.4421 23.7866 57.5744 23.7866C59.9093 23.7968 61.2434 25.001 61.2434 27.6544ZM58.733 29.6037V28.8791H57.6447C56.8371 28.8791 56.5473 29.2159 56.5473 29.7261C56.5473 30.216 56.8897 30.5732 57.4867 30.5732C58.0397 30.5732 58.5312 30.267 58.733 29.6037Z" fill="white"/>
<path d="M62.2708 31.5634L63.0258 29.5631C63.684 30.0428 64.6585 30.3286 65.5272 30.3286C66.3791 30.3286 66.6512 30.1143 66.6512 29.757C66.6512 28.6344 62.4111 29.9101 62.4111 26.573C62.4111 25.0014 63.6577 23.7971 65.9047 23.7971C66.9141 23.7971 68.0205 24.0421 68.7402 24.5013L67.9851 26.4913C67.2654 26.0321 66.5543 25.879 65.9224 25.879C65.0709 25.879 64.7726 26.1545 64.7726 26.4607C64.7726 27.6139 68.9946 26.3689 68.9946 29.6754C68.9946 31.2164 67.7747 32.4207 65.4484 32.4207C64.2285 32.4309 62.9733 32.0736 62.2708 31.5634Z" fill="white"/>
<path d="M69.8018 21.4604C69.8018 20.5827 70.4074 19.9092 71.3376 19.9092C72.2683 19.9092 72.874 20.5419 72.874 21.4196C72.874 22.3483 72.2683 23.0218 71.3376 23.0218C70.416 23.0116 69.8018 22.3381 69.8018 21.4604ZM70.0829 23.9403H72.6019V32.2883H70.0829V23.9403Z" fill="white"/>
<path d="M81.8715 27.5119V32.288H79.352V27.9915C79.352 26.7873 78.9043 26.277 78.176 26.277C77.3684 26.277 76.7451 26.8587 76.7451 28.2467V32.288H74.2256V23.94H76.622V24.8483C77.1928 24.1543 78.0003 23.7971 78.9043 23.7971C80.5895 23.7971 81.8715 24.9299 81.8715 27.5119Z" fill="white"/>
<path d="M83.1096 28.0936C83.1096 25.5831 84.8211 23.7971 87.165 23.7971C89.5347 23.7971 91.2199 25.5831 91.2199 28.0936C91.2199 30.6245 89.5347 32.4207 87.165 32.4207C84.8125 32.4309 83.1096 30.6245 83.1096 28.0936ZM88.6746 28.0936C88.6746 26.8281 88.025 26.1239 87.165 26.1239C86.3135 26.1239 85.6549 26.8281 85.6549 28.0936C85.6549 29.3693 86.3135 30.0939 87.165 30.0939C88.025 30.1041 88.6746 29.3795 88.6746 28.0936Z" fill="white"/>
<path d="M39.5352 23.8279C37.1916 23.8279 35.48 25.6138 35.48 28.1243C35.48 30.6553 37.1916 32.4514 39.5352 32.4514C41.9053 32.4514 43.5907 30.6451 43.5907 28.1243C43.5907 25.6138 41.9141 23.8279 39.5352 23.8279ZM41.2382 29.349C41.0362 29.5837 40.7642 29.7062 40.4746 29.7062H40.4657C40.1672 29.7062 39.8952 29.5633 39.6932 29.3183C39.7285 29.4919 39.7547 29.696 39.7986 29.8286C39.9567 30.3287 40.22 30.543 40.2025 30.543H38.877C38.8595 30.543 39.1227 30.3287 39.2807 29.8286C39.3246 29.696 39.351 29.4919 39.3861 29.3183C39.1841 29.5633 38.9121 29.7062 38.6136 29.7062H38.6049C38.3152 29.7062 38.0431 29.5735 37.8411 29.349C37.6394 29.1142 37.5251 28.8081 37.534 28.4917C37.534 27.9406 37.85 27.6549 38.2537 27.2875C38.3327 27.2161 38.4117 27.1446 38.4907 27.063C39.0789 26.4915 39.5441 25.7261 39.5441 25.7261C39.5441 25.7261 40.0092 26.4915 40.5975 27.063C40.6765 27.1446 40.7555 27.2161 40.8345 27.2875C41.2295 27.6549 41.5454 27.9406 41.5542 28.4917C41.5542 28.8183 41.4401 29.1244 41.2382 29.349Z" fill="#1CC68D"/>
<path d="M14.803 37.9683C15.0116 37.846 15.1507 37.6225 15.1507 37.3188C15.1507 36.8507 14.803 36.5513 14.1538 36.5513H12.8865V39.5035H14.2311C14.9266 39.5035 15.2898 39.2082 15.2898 38.7022C15.2898 38.3184 15.0927 38.0695 14.803 37.9683ZM14.0997 36.9815C14.4475 36.9815 14.6445 37.1164 14.6445 37.3906C14.6445 37.6605 14.4475 37.7955 14.0997 37.7955H13.3888V36.9815H14.0997ZM14.2002 39.0733H13.3888V38.2214H14.2002C14.5788 38.2214 14.7836 38.3521 14.7836 38.6473C14.7836 38.9425 14.5788 39.0733 14.2002 39.0733Z" fill="white"/>
<path d="M17.8737 39.0438V38.2298H19.1796V37.7785H17.8737V37.011H19.3458V36.5513H17.3713V39.5035H19.3999V39.0438H17.8737Z" fill="white"/>
<path d="M24.6675 39.5035H25.1697V37.0152H26.0662V36.5513H23.771V37.0152H24.6675V39.5035Z" fill="white"/>
<path d="M29.8897 36.5513V37.7701H28.4911V36.5513H27.9888V39.5035H28.4911V38.2383H29.8897V39.5035H30.3921V36.5513H29.8897Z" fill="white"/>
<path d="M33.1647 39.0438V38.2298H34.4705V37.7785H33.1647V37.011H34.6366V36.5513H32.6624V39.5035H34.6909V39.0438H33.1647Z" fill="white"/>
<path d="M40.6616 39.5456C41.1058 39.5456 41.4846 39.3727 41.7357 39.0522L41.4112 38.7147C41.214 38.9509 40.9707 39.0648 40.6887 39.0648C40.1284 39.0648 39.7226 38.6346 39.7226 38.0273C39.7226 37.42 40.1284 36.9898 40.6887 36.9898C40.9707 36.9898 41.214 37.1037 41.4112 37.3356L41.7357 37.0025C41.4846 36.6819 41.1058 36.509 40.6655 36.509C39.8347 36.509 39.2166 37.1459 39.2166 38.0273C39.2166 38.9088 39.8347 39.5456 40.6616 39.5456Z" fill="white"/>
<path d="M45.7307 39.5035H46.2563L45.0353 36.5513H44.5407L43.3235 39.5035H43.8412L44.108 38.8203H45.4602L45.7307 39.5035ZM44.2779 38.3901L44.7841 37.0996L45.2941 38.3901H44.2779Z" fill="white"/>
<path d="M48.9842 39.5456C49.7261 39.5456 50.0777 39.1407 50.0777 38.6684C50.0777 37.5845 48.4741 37.9935 48.4741 37.3652C48.4741 37.1417 48.6441 36.9645 49.0615 36.9645C49.2972 36.9645 49.5638 37.0404 49.8072 37.1965L49.9656 36.7705C49.73 36.6018 49.3899 36.509 49.0654 36.509C48.3235 36.509 47.9757 36.9139 47.9757 37.3905C47.9757 38.487 49.5831 38.0695 49.5831 38.7063C49.5831 38.9256 49.4053 39.0901 48.9842 39.0901C48.652 39.0901 48.3079 38.9551 48.0917 38.7654L47.9177 39.1913C48.1418 39.4022 48.563 39.5456 48.9842 39.5456Z" fill="white"/>
<path d="M54.0223 36.5513V37.7701H52.6237V36.5513H52.1213V39.5035H52.6237V38.2383H54.0223V39.5035H54.5246V36.5513H54.0223Z" fill="white"/>
<path d="M58.7115 37.9683C58.92 37.846 59.0592 37.6225 59.0592 37.3188C59.0592 36.8507 58.7115 36.5513 58.0623 36.5513H56.7949V39.5035H58.1395C58.8351 39.5035 59.1982 39.2082 59.1982 38.7022C59.1982 38.3184 59.0013 38.0695 58.7115 37.9683ZM58.0081 36.9815C58.356 36.9815 58.553 37.1164 58.553 37.3906C58.553 37.6605 58.356 37.7955 58.0081 37.7955H57.2973V36.9815H58.0081ZM58.1087 39.0733H57.2973V38.2214H58.1087C58.4872 38.2214 58.692 38.3521 58.692 38.6473C58.692 38.9425 58.4872 39.0733 58.1087 39.0733Z" fill="white"/>
<path d="M63.3046 39.5035H63.8301L62.6092 36.5513H62.1143L60.8972 39.5035H61.4151L61.6814 38.8203H63.034L63.3046 39.5035ZM61.8518 38.3901L62.3577 37.0996L62.8679 38.3901H61.8518Z" fill="white"/>
<path d="M66.9337 39.5456C67.3781 39.5456 67.7565 39.3727 68.0076 39.0522L67.683 38.7147C67.4859 38.9509 67.243 39.0648 66.9604 39.0648C66.4001 39.0648 65.9949 38.6346 65.9949 38.0273C65.9949 37.42 66.4001 36.9898 66.9604 36.9898C67.243 36.9898 67.4859 37.1037 67.683 37.3356L68.0076 37.0025C67.7565 36.6819 67.3781 36.509 66.9375 36.509C66.1066 36.509 65.4885 37.1459 65.4885 38.0273C65.4885 38.9088 66.1066 39.5456 66.9337 39.5456Z" fill="white"/>
<path d="M71.9204 39.5035H72.5074L71.3018 37.8713L72.4382 36.5513H71.8736L70.5372 38.0653V36.5513H70.0347V39.5035H70.5372V38.7486L70.9658 38.2678L71.9204 39.5035Z" fill="white"/>
<path d="M78.8943 39.5035H79.4813L78.2757 37.8713L79.4116 36.5513H78.8475L77.5106 38.0653V36.5513H77.0085V39.5035H77.5106V38.7486L77.9397 38.2678L78.8943 39.5035Z" fill="white"/>
<path d="M81.3689 39.5035H81.871V36.5513H81.3689V39.5035Z" fill="white"/>
<path d="M86.0532 36.5513V38.5503L84.5618 36.5513H84.1484V39.5035H84.6467V37.5044L86.1382 39.5035H86.5515V36.5513H86.0532Z" fill="white"/>
<path d="M90.669 38.913C90.4948 39.0227 90.3058 39.0648 90.1125 39.0648C89.5407 39.0648 89.1351 38.6262 89.1351 38.0273C89.1351 37.4158 89.5407 36.9898 90.1163 36.9898C90.406 36.9898 90.6494 37.0952 90.8618 37.3272L91.1787 36.9898C90.9239 36.6735 90.5454 36.509 90.0929 36.509C89.2467 36.509 88.6287 37.1459 88.6287 38.0273C88.6287 38.9088 89.2467 39.5456 90.0853 39.5456C90.4681 39.5456 90.8618 39.419 91.1439 39.1702V37.9935H90.669V38.913Z" fill="white"/>
</g>
</g>
<defs>
<clipPath id="clip0_1369_4776">
<rect width="78.75" height="19.6364" fill="white" transform="translate(12.8865 20.1819)"/>
</clipPath>
<clipPath id="clip1_1369_4776">
<rect width="78.75" height="19.6364" fill="white" transform="translate(12.8865 19.9092)"/>
</clipPath>
</defs>
</svg>
