<svg width="105" height="60" viewBox="0 0 105 60" fill="none" xmlns="http://www.w3.org/2000/svg">
<rect width="105" height="60" rx="12" fill="#250158"/>
<g clip-path="url(#clip0_2102_17352)">
<path fill-rule="evenodd" clip-rule="evenodd" d="M81.2359 24.5107L76.0345 31.7027L81.6003 25.4235L75.7148 33.744L82.0563 27.3018L77.3131 33.744L82.8788 27.9463L82.8319 29.9849L79.0007 34.8173L83.7439 30.1454L83.8355 26.3337L81.2359 24.5107Z" fill="url(#paint0_linear_2102_17352)"/>
<path fill-rule="evenodd" clip-rule="evenodd" d="M81.8282 24.7655L79.1749 28.9508C78.5491 29.9136 79.0274 31.171 80.1629 30.7106C80.6793 30.416 81.1196 30.0109 81.437 29.5137C81.6605 29.2033 81.8617 29.519 81.6583 29.7452L81.2135 30.4344C82.1344 31.3288 83.1515 32.1232 84.4412 31.8812C84.9732 31.7813 84.781 32.1364 84.4904 32.2495L83.4644 32.7361C83.1984 33.0808 83.518 33.5253 83.945 33.4674C84.8681 33.5516 87.8388 30.5633 89.2246 27.7854L83.9181 23.5002L81.8304 24.7629L81.8282 24.7655Z" fill="white"/>
<path fill-rule="evenodd" clip-rule="evenodd" d="M84.772 28.2903C83.015 28.2771 82.2796 29.4661 81.8058 30.9655C81.6068 30.7998 81.4146 30.6183 81.2246 30.4368L81.6694 29.7476C81.8237 29.5924 81.7231 29.2688 81.542 29.4135L81.5331 29.1768C81.1486 27.6958 80.2143 28.5507 78.9357 30.1211C78.8597 29.7713 78.9335 29.3372 79.186 28.9505L81.8393 24.7653L82.2685 24.5049L84.772 28.2929V28.2903Z" fill="#C6D4D7"/>
<path fill-rule="evenodd" clip-rule="evenodd" d="M82.2284 20.7751C80.8917 22.0536 76.904 24.7052 78.5447 26.6939L79.8903 27.8303L81.5869 25.2155C82.9034 28.3591 84.7162 28.9167 87.3762 28.9667L82.7559 24.2528L82.2306 20.7778L82.2284 20.7751Z" fill="#F10099"/>
<path d="M88.6773 29.0562C92.3351 29.0562 95.3003 25.543 95.3003 21.2093C95.3003 16.8755 92.3351 13.3623 88.6773 13.3623C85.0194 13.3623 82.0542 16.8755 82.0542 21.2093C82.0542 25.543 85.0194 29.0562 88.6773 29.0562Z" fill="#C6D4D7"/>
<path d="M89.4216 29.0562C92.9263 29.0562 95.7674 25.543 95.7674 21.2093C95.7674 16.8755 92.9263 13.3623 89.4216 13.3623C85.9168 13.3623 83.0757 16.8755 83.0757 21.2093C83.0757 25.543 85.9168 29.0562 89.4216 29.0562Z" fill="white"/>
<path fill-rule="evenodd" clip-rule="evenodd" d="M90.1702 13.8755C93.2191 13.8755 95.6891 16.7849 95.6891 20.3703C95.6891 23.9584 93.2638 25.0396 90.5793 25.0948C87.8948 25.1474 84.7855 22.993 84.6492 20.3703C84.5128 17.7503 87.1214 13.8755 90.168 13.8755H90.1702Z" fill="#010313"/>
<path d="M93.0874 17.682C92.9354 17.4505 92.969 17.119 93.1657 16.9402C93.3624 16.7613 93.644 16.8007 93.796 17.0322C94.0665 17.4373 94.2833 17.8951 94.4353 18.387C94.5828 18.8631 94.67 19.3761 94.6834 19.9101C94.6946 20.3283 94.6633 20.7334 94.5918 21.1201C94.518 21.52 94.4018 21.904 94.2498 22.2644C94.1402 22.5275 93.8698 22.6353 93.6462 22.5064C93.4227 22.3775 93.3311 22.0592 93.4428 21.7962C93.5613 21.5147 93.6507 21.2148 93.7111 20.8965C93.7669 20.5861 93.7938 20.2678 93.7848 19.9443C93.7736 19.526 93.7044 19.1235 93.5881 18.7474C93.4674 18.358 93.2975 18.0003 93.0852 17.682H93.0874Z" fill="white"/>
<path d="M90.8029 15.9899C90.5592 15.9268 90.405 15.6453 90.4587 15.3586C90.5123 15.0718 90.7515 14.8903 90.9951 14.9535C91.2723 15.0245 91.5405 15.1271 91.7953 15.2586C92.0524 15.3928 92.2983 15.5559 92.5285 15.7479C92.7319 15.9162 92.7788 16.2477 92.6336 16.4844C92.4905 16.7238 92.2089 16.7791 92.0054 16.6081C91.8289 16.4608 91.6366 16.3319 91.431 16.2266C91.232 16.1241 91.0219 16.0425 90.8029 15.9873V15.9899Z" fill="white"/>
<path fill-rule="evenodd" clip-rule="evenodd" d="M92.5304 19.2339L91.2183 18.3422L89.8906 17.4399C89.6782 17.2689 89.3787 17.4478 89.3943 17.795V19.5785V21.3831C89.3742 21.683 89.6559 21.9013 89.904 21.7093L91.2161 20.8175L92.5438 19.9152C92.7763 19.7837 92.7941 19.3891 92.5282 19.2313L92.5304 19.2339Z" fill="#00FF6C"/>
<path d="M82.9011 14.0173H82.8988C82.6248 14.0173 82.4026 14.2788 82.4026 14.6013V21.0041C82.4026 21.3266 82.6248 21.5881 82.8988 21.5881H82.9011C83.1751 21.5881 83.3973 21.3266 83.3973 21.0041V14.6013C83.3973 14.2788 83.1751 14.0173 82.9011 14.0173Z" fill="white"/>
<path d="M82.872 23.7926C83.2115 23.7926 83.4867 23.099 83.4867 22.2432C83.4867 21.3875 83.2115 20.6938 82.872 20.6938C82.5325 20.6938 82.2573 21.3875 82.2573 22.2432C82.2573 23.099 82.5325 23.7926 82.872 23.7926Z" fill="#010313"/>
<path fill-rule="evenodd" clip-rule="evenodd" d="M33.3905 25.1343C35.8761 25.1343 37.586 27.4045 37.2083 30.206C36.8305 33.0075 34.5058 35.2777 32.0202 35.2777C29.5346 35.2777 27.8247 33.0075 28.2024 30.206C28.5802 27.4045 30.9049 25.1343 33.3905 25.1343ZM32.9769 27.2624C34.3002 27.2624 35.2502 28.5803 35.1004 30.206C34.9507 31.8317 33.7548 33.1496 32.4315 33.1496C31.1083 33.1496 30.1583 31.8317 30.3103 30.206C30.46 28.5803 31.6559 27.2624 32.9792 27.2624H32.9769Z" fill="#F1009A"/>
<path fill-rule="evenodd" clip-rule="evenodd" d="M47.021 31.6397C46.2118 33.7546 44.2537 35.2777 42.2085 35.2777C39.7229 35.2777 38.0129 33.0075 38.3907 30.206C38.7684 27.4045 41.0931 25.1343 43.5787 25.1343C45.6016 25.1343 47.1104 26.639 47.3987 28.7066C47.401 28.7303 45.1054 28.7566 45.0763 28.6592C44.8081 27.7833 44.028 27.2598 43.1652 27.2598C41.8419 27.2598 40.646 28.5777 40.4963 30.2034C40.3465 31.8291 41.2965 33.147 42.6175 33.147C43.5675 33.147 44.3677 32.5998 44.8461 31.6133C44.8595 31.587 44.8952 31.5476 44.9534 31.5476L46.9137 31.5765C46.9874 31.5765 47.0232 31.6133 47.0165 31.6344L47.021 31.6397ZM19.3955 25.2L24.4963 25.179L24.5075 25.1843C25.8799 25.2079 26.7696 26.0208 27.1943 27.1072C27.3776 27.5754 27.4647 28.0884 27.4603 28.6066C27.4558 29.1196 27.3641 29.6352 27.1853 30.1087C26.8545 30.9899 26.2353 31.7501 25.3457 32.1316L26.4969 35.2593L24.5835 35.2462L23.4279 32.3841C22.6343 32.3788 21.8408 32.371 21.0495 32.371C20.8037 32.3631 20.6159 32.3999 20.5131 32.4998C20.4348 32.5761 20.3812 32.734 20.3588 32.9891V33.0102L20.1331 35.2856L18.2063 35.2988L18.5125 32.7629H18.5148C18.5908 31.8975 18.8791 31.2635 19.3284 30.8268C19.8067 30.3586 20.4192 30.1665 21.1054 30.1928L24.1387 30.2086C24.8383 30.1744 25.2921 29.7483 25.4865 29.2274C25.5648 29.017 25.6072 28.7986 25.6072 28.5882C25.6095 28.383 25.5759 28.1857 25.5089 28.0095C25.3681 27.6491 25.035 27.3755 24.4963 27.3624V27.365H19.1697L19.3932 25.1974L19.3955 25.2ZM58.7449 25.3026H74.6733L72.409 27.7254H58.4521L58.7449 25.3026V25.3026ZM68.58 29.2116H70.7326L69.8362 35.2041H67.6837L68.58 29.2116ZM64.5163 33.0417L64.2324 35.2567H57.4283C57.5848 34.0414 57.7725 32.3631 58.0944 31.011C58.4387 29.5694 59.6703 29.0959 60.5957 29.0459H64.3598L64.0849 31.1898H60.3207L60.0838 33.0444H64.5141L64.5163 33.0417ZM51.5898 31.4318L50.3247 32.7682L49.9626 35.2567H47.8301L49.2763 25.3026H51.4088L50.8075 29.4405L54.7102 25.3026H57.3657L53.2417 29.7115L56.1028 35.2593H53.5569L51.5898 31.4345V31.4318Z" fill="#F1009A"/>
<path fill-rule="evenodd" clip-rule="evenodd" d="M34.275 24.4446C36.7606 24.4446 38.4706 26.7148 38.0928 29.5163C37.7151 32.3179 35.3904 34.588 32.9048 34.588C30.4192 34.588 28.7092 32.3179 29.0892 29.5163C29.467 26.7148 31.7894 24.4446 34.2773 24.4446H34.275ZM33.8637 26.5727C35.187 26.5727 36.137 27.8906 35.9872 29.5163C35.8352 31.142 34.6416 32.4599 33.3183 32.4599C31.9951 32.4599 31.0451 31.142 31.1948 29.5163C31.3446 27.8906 32.5405 26.5727 33.8637 26.5727Z" fill="#01FE6D"/>
<path fill-rule="evenodd" clip-rule="evenodd" d="M47.9057 30.95C47.0966 33.0649 45.1385 34.588 43.0932 34.588C40.6076 34.588 38.8977 32.3179 39.2754 29.5163C39.6532 26.7148 41.9778 24.4446 44.4634 24.4446C46.4863 24.4446 47.9951 25.9493 48.2835 28.0195C48.288 28.0432 45.9901 28.0695 45.9611 27.9722C45.6928 27.0962 44.9127 26.5727 44.0499 26.5727C42.7266 26.5727 41.5308 27.8906 41.381 29.5163C41.229 31.142 42.1812 32.4599 43.5023 32.4599C44.4523 32.4599 45.2525 31.9127 45.7308 30.9263C45.7442 30.9 45.78 30.8605 45.8381 30.8605L47.7984 30.8895C47.8722 30.8895 47.908 30.9263 47.9013 30.9473L47.9057 30.95ZM20.2802 24.5077L25.3811 24.4867L25.3922 24.4919C26.7625 24.5156 27.6543 25.3284 28.079 26.4122C28.2623 26.8805 28.3495 27.3934 28.345 27.9117C28.3405 28.4246 28.2489 28.9402 28.0701 29.4137C27.7393 30.2923 27.1201 31.0552 26.2305 31.4366L27.3816 34.5644L25.4682 34.5512L24.3126 31.6892C23.5191 31.6839 22.7256 31.676 21.9343 31.676C21.6884 31.6681 21.5007 31.7049 21.3978 31.8049C21.3196 31.8812 21.266 32.039 21.2436 32.2942V32.3152L21.0179 34.588L19.0911 34.6012L19.3973 32.0653H19.3995C19.4755 31.1999 19.7639 30.5659 20.2132 30.1292C20.6915 29.661 21.304 29.469 21.9902 29.4953L25.0234 29.511C25.7231 29.4768 26.1768 29.0507 26.3713 28.5298C26.4495 28.3194 26.492 28.1011 26.4942 27.8906C26.4965 27.6854 26.4629 27.4881 26.3959 27.3145C26.2551 26.9515 25.922 26.6806 25.3833 26.6674V26.67H20.0567L20.2825 24.5025L20.2802 24.5077ZM59.6296 24.6103H75.5581L73.2938 27.0331H59.3368L59.6296 24.6103ZM69.4648 28.5193H71.6173L70.721 34.5117H68.5684L69.4648 28.5193ZM65.4011 32.3521L65.1172 34.567H58.3131C58.4695 33.3517 58.6573 31.6734 58.9792 30.3213C59.3234 28.8797 60.555 28.4062 61.4804 28.3562H65.2446L64.9697 30.5001H61.2055L60.9686 32.3547H65.3988L65.4011 32.3521ZM52.4746 30.7421L51.2094 32.0785L50.8473 34.567H48.7149L50.1611 24.6129H52.2935L51.6923 28.7508L55.595 24.6129H58.2505L54.1264 29.0218L56.9876 34.567H54.4416L52.4746 30.7421Z" fill="#01FE6D"/>
</g>
<defs>
<linearGradient id="paint0_linear_2102_17352" x1="79.2287" y1="27.6227" x2="76.2847" y2="30.9727" gradientUnits="userSpaceOnUse">
<stop stop-color="#E04EBC"/>
<stop offset="1" stop-color="#830877"/>
</linearGradient>
<clipPath id="clip0_2102_17352">
<rect width="77.564" height="24.2424" fill="white" transform="translate(18.2058 11.0535)"/>
</clipPath>
</defs>
</svg>
