<svg width="105" height="60" viewBox="0 0 105 60" fill="none" xmlns="http://www.w3.org/2000/svg">
<rect width="105" height="60" rx="12" fill="#250158"/>
<g clip-path="url(#clip0_2102_17701)">
<g clip-path="url(#clip1_2102_17701)">
<path d="M43.6951 25.0486V18.3618H45.538V24.9924C45.538 26.0584 45.9504 26.7472 46.5525 26.7472C47.1548 26.7472 47.567 26.0584 47.567 24.9924V18.3618H49.41V25.0486C49.41 27.7314 48.2213 29.5429 46.5525 29.5429C44.8837 29.5429 43.6951 27.7314 43.6951 25.0486Z" fill="white"/>
<path d="M56.3227 18.3618V29.2671H54.8313L52.2309 23.3491V29.2671H50.4834V18.3618H52.0617L54.5752 24.0832V18.3618H56.3227Z" fill="white"/>
<path d="M57.4497 18.3618H59.2768V29.2671H57.4497V18.3618Z" fill="white"/>
<path d="M65.1261 21.067H63.3479V29.2671H61.5365V21.067H59.7583V18.3618H65.1261V21.067Z" fill="white"/>
<path d="M69.8813 26.661V29.2668H65.6135V18.3618H69.802V20.9588H67.4089V22.5645H69.5589V25.0286H67.4089V26.661H69.8813Z" fill="white"/>
<path d="M76.8495 23.8056C76.8495 26.9879 75.4468 29.2671 73.4705 29.2671H70.821V18.3618H73.4705C75.4523 18.3618 76.8495 20.619 76.8495 23.8056ZM75.0007 23.8056C75.0007 22.1879 74.3545 21.1134 73.3852 21.1134H72.6323V26.5158H73.3852C74.3545 26.5158 75.0007 25.4143 75.0007 23.8056Z" fill="white"/>
<path d="M50.3629 36.08C50.3629 39.6486 48.9645 42.1836 46.9147 42.1836C44.909 42.1836 43.4272 39.7821 43.4272 36.4643C43.4272 33.1465 44.8818 30.7271 46.8984 30.7271C48.6144 30.7271 50.018 32.5159 50.2946 35.05H48.4049C48.1679 34.1313 47.5822 33.5407 46.9147 33.5407C45.9341 33.5407 45.2732 34.7219 45.2732 36.4643C45.2732 38.1887 45.9235 39.3702 46.9147 39.3702C47.6029 39.3702 48.1932 38.8152 48.3989 37.9741H46.7732V36.0803L50.3629 36.08Z" fill="white"/>
<path d="M54.7275 40.1368H52.4074L52.0447 41.9077H50.1123L52.6835 31.0024H54.4464L57.0741 41.9077H55.0882L54.7275 40.1368ZM53.5639 34.4067L52.8468 37.7856H54.2878L53.5639 34.4067Z" fill="white"/>
<path d="M64.1653 41.908L63.6545 35.6278L61.9182 41.9259H61.3855L59.6502 35.6304L59.1465 41.908H57.3191L58.309 31.0027H60.11L61.6514 36.9369L63.2031 31.0027H65.0037L65.9846 41.908H64.1653V41.908Z" fill="white"/>
<path d="M70.8655 36.1501C71.4823 36.6372 71.8692 37.6129 71.8692 38.8029C71.8692 40.57 70.9539 41.9082 69.7457 41.9082H66.7285V31.0032H69.6852C70.8459 31.0032 71.6929 32.1829 71.6929 33.7942C71.6931 34.7687 71.3654 35.645 70.8655 36.1501ZM70.0857 38.4454C70.0857 37.866 69.8304 37.4586 69.4399 37.4586H68.4601V39.4417H69.4399C69.8304 39.4417 70.0857 39.0337 70.0857 38.4454ZM69.9814 34.2919C69.9814 33.7257 69.7489 33.3423 69.3718 33.3423H68.4605V35.2411H69.3718C69.7489 35.2408 69.9816 34.8575 69.9814 34.2919Z" fill="white"/>
<path d="M76.8391 39.1567V41.9077H72.6821V31.0027H74.5092V39.1567H76.8391V39.1567Z" fill="white"/>
<path d="M81.5932 39.3019V41.9077H77.3254V31.0027H81.514V33.5997H79.1208V35.2054H81.2708V37.6697H79.1208V39.3022H81.5932V39.3019Z" fill="white"/>
<path d="M84.99 38.5711H84.3362V41.908H82.5327V31.0027H85.3699C86.7811 31.0027 87.804 32.5822 87.804 34.862C87.804 36.2005 87.4116 37.2967 86.765 37.942L88.0646 41.908H86.0519L84.99 38.5711ZM84.3362 36.0405H85.1599C85.6639 36.0405 85.9542 35.5346 85.9542 34.8532C85.9542 34.1717 85.6639 33.6726 85.1599 33.6726H84.3362V36.0405Z" fill="white"/>
<path d="M88.3433 38.3865H90.2037C90.2037 39.1655 90.5644 39.5444 90.9756 39.5444C91.3534 39.5444 91.7142 39.2096 91.7142 38.614C91.7142 37.9299 91.2046 37.7318 90.5815 37.4801C89.6353 37.0883 88.4274 36.6053 88.4274 34.1226C88.4274 31.9752 89.3745 30.7449 90.918 30.7449C92.4875 30.7449 93.3875 32.0872 93.3875 34.3058H91.5789C91.5789 33.6161 91.2703 33.2928 90.8965 33.2928C90.5753 33.2928 90.2667 33.5244 90.2667 34.0336C90.2667 34.653 90.7601 34.8582 91.3763 35.1163C92.3398 35.5302 93.5997 36.0664 93.5997 38.5567C93.5997 40.9387 92.5011 42.1749 90.981 42.1749C89.3789 42.1746 88.3433 40.7635 88.3433 38.3865Z" fill="white"/>
<path d="M34.0991 26.5161L33.1571 32.1945L36.2048 33.6197C35.287 34.8891 33.9604 35.3653 32.7207 34.7847C30.7862 33.8805 29.4428 30.4189 30.0512 26.8118C30.6595 23.2059 32.8464 21.3962 34.8215 22.3208C35.8935 22.8232 36.658 23.9353 37.1535 25.3005L40.8887 21.8363C39.8557 18.8213 38.1484 16.4372 35.9846 15.4238C32.014 13.5665 27.9199 16.9366 26.3061 23.0472L24.7725 14.4546L20.6551 16.483L23.1679 30.438C23.4979 32.2986 22.8561 34.2638 21.7386 34.8141C20.6216 35.3641 19.4417 34.2955 19.1117 32.4338L16.5636 18.1449L12.467 19.8793L15.0337 34.554C16.0416 40.2424 19.5543 43.4232 22.9682 41.7437C24.791 40.8462 26.1973 38.7187 26.9469 36.0553C27.9878 38.7014 29.5829 40.758 31.557 41.6817C34.8868 43.24 38.3125 41.1222 40.2869 36.7967L40.2913 36.8117C40.8562 35.5279 41.3789 33.8622 41.6522 32.2407L41.9653 30.169L34.0991 26.5161ZM28.5017 34.4731L26.6465 32.9383L24.8364 34.6142L25.1392 31.2015L23.6232 28.8508L25.6652 28.2764L26.5384 25.1468L27.4976 28.2053L29.5534 28.6221L28.1038 31.0871L28.5017 34.4731Z" fill="#E52C4B"/>
</g>
</g>
<defs>
<clipPath id="clip0_2102_17701">
<rect x="6.68188" y="12.5454" width="95.4545" height="34.3636" rx="12" fill="white"/>
</clipPath>
<clipPath id="clip1_2102_17701">
<rect width="83.3058" height="32.4545" fill="white" transform="translate(12.467 14.4546)"/>
</clipPath>
</defs>
</svg>
