<svg width="84" height="55" viewBox="0 0 84 55" fill="none" xmlns="http://www.w3.org/2000/svg">
<g clip-path="url(#clip0_1683_65439)">
<g clip-path="url(#clip1_1683_65439)">
<path d="M45.5326 -10.6968C45.5326 -10.6968 34.6324 6.68949 25.7943 14.9754C18.5598 21.7563 4.34489 39.8437 12.9041 51.8659C16.2791 56.6081 27.6708 44.7556 31.2268 36.7249C32.982 32.7584 53.183 -6.63616 53.183 -6.63616L45.5326 -10.6968Z" fill="#FFAE78"/>
</g>
<path fill-rule="evenodd" clip-rule="evenodd" d="M47.5523 16.3943L40.1856 23.8858C36.6777 33.2938 22.7337 49.9319 21.5059 49.9319C20.2781 49.9319 12.0345 44.7053 8.78966 37.7364C5.54483 30.8547 5.63253 26.0636 5.28174 23.4503C4.93094 20.9241 -1.55871 7.42196 -1.55871 7.42196L-4.97896 9.33839C-4.97896 9.33839 -6.2067 6.46375 -6.64519 2.02111C-7.17138 -2.59574 -6.90833 -8.86771 -3.83889 -15.4881C2.21228 -28.5547 10.2805 -28.9902 10.2805 -28.9902C10.2805 -28.9902 11.8591 -27.8578 12.0345 -27.3351C12.1222 -27.1609 12.0345 -25.9414 12.0345 -24.2863V-24.112C11.9468 -21.3245 11.7714 -17.4045 11.9468 -14.5299C12.2099 -9.91303 19.2257 16.3072 19.5765 16.3943C19.6642 16.3943 20.7166 15.6103 22.1198 14.3908C25.2769 11.6033 30.6265 6.46375 32.819 3.06644C33.2575 2.36955 33.6959 1.67266 34.0467 1.06289C35.9761 -2.24731 36.59 -3.98952 36.6777 -4.16374L38.607 -4.77351L38.0809 -3.9024C40.6241 10.6451 47.026 15.349 47.026 15.349C48.0784 12.5615 47.903 8.98995 47.8153 8.29306C48.1661 11.5162 47.5523 16.3943 47.5523 16.3943Z" fill="black"/>
<path fill-rule="evenodd" clip-rule="evenodd" d="M22.0363 14.3965L19.4931 16.4C19.4931 16.4 10.9864 21.7138 10.1094 25.1982C9.05701 29.5537 12.1264 35.9999 12.1264 35.9999C12.1264 35.9999 12.828 27.2888 14.9328 23.8044C16.9498 20.32 22.0363 14.3965 22.0363 14.3965Z" fill="url(#paint0_linear_1683_65439)"/>
<path fill-rule="evenodd" clip-rule="evenodd" d="M47.5559 16.4007L40.1893 23.8922C40.1893 23.8922 34.3135 13.3518 33.875 1.15632L36.5059 -4.07031L37.8214 -3.80898C40.3646 10.7385 46.7666 15.4425 46.7666 15.4425C47.819 12.6549 47.6436 9.08339 47.5559 8.38651C48.1698 11.5225 47.5559 16.4007 47.5559 16.4007Z" fill="url(#paint1_linear_1683_65439)"/>
</g>
<defs>
<linearGradient id="paint0_linear_1683_65439" x1="15.9847" y1="36.0511" x2="15.9847" y2="14.4525" gradientUnits="userSpaceOnUse">
<stop stop-color="#5B4365"/>
<stop offset="0.9777" stop-color="#70517C"/>
</linearGradient>
<linearGradient id="paint1_linear_1683_65439" x1="40.8769" y1="23.9584" x2="40.8769" y2="-3.9978" gradientUnits="userSpaceOnUse">
<stop stop-color="#5B4365"/>
<stop offset="0.9777" stop-color="#70517C"/>
</linearGradient>
<clipPath id="clip0_1683_65439">
<rect width="84" height="183" fill="white" transform="translate(0 -128.367)"/>
</clipPath>
<clipPath id="clip1_1683_65439">
<rect width="40.674" height="45.5142" fill="white" transform="matrix(-0.998993 -0.0448699 -0.0448699 0.998993 53.3496 -10.3457)"/>
</clipPath>
</defs>
</svg>
