<svg width="215" height="303" viewBox="0 0 215 303" fill="none" xmlns="http://www.w3.org/2000/svg">
<g clip-path="url(#clip0_1683_65222)">
<path d="M176.533 118.303C176.533 118.303 165.632 135.689 156.794 143.975C149.56 150.756 135.345 168.844 143.904 180.866C147.279 185.608 158.671 173.756 162.227 165.725C163.982 161.758 184.183 122.364 184.183 122.364L176.533 118.303Z" fill="#FFAE78"/>
</g>
<path d="M195.413 65.0539C195.413 65.0539 190.218 65.061 191.209 76.5498L189.87 87.5763L196.288 93.4929C196.288 93.4929 195.905 78.1209 196.181 77.0663C196.451 76.0114 195.413 65.0539 195.413 65.0539Z" fill="url(#paint0_linear_1683_65222)"/>
<path d="M180.038 90.3171L182.34 88.3861C182.34 88.3861 185.708 88.8598 186.073 89.2104C186.444 89.5613 192.16 96.7655 192.16 96.7655L192.556 100.864C192.556 100.864 184.445 112.923 183.344 111.337C182.243 109.746 180.038 90.3171 180.038 90.3171Z" fill="#DD6668"/>
<path d="M197.501 92.7775L198.293 97.5913C198.293 97.5913 192.455 114.126 190.116 116.22C187.776 118.313 185.324 120.835 185.324 120.835L184 122.635L176.26 118.752C176.26 118.752 173.997 103.723 176.266 98.9002C178.534 94.0832 176.83 86.3438 176.83 86.3438C176.83 86.3438 183.158 86.2939 181.868 93.4824C180.61 100.479 186.568 103.977 183.418 110.021C180.819 115.005 193.633 92.34 193.633 92.34L197.501 92.7775Z" fill="url(#paint1_linear_1683_65222)"/>
<path d="M178.637 87.5505C178.637 87.5505 179.605 92.1025 186.203 89.6961L189.569 90.2166L190.618 93.8694L196.966 92.6067C196.966 92.6067 192.089 86.3079 190.965 84.4517C189.84 82.6013 187.187 83.7309 186.927 83.9068C186.721 84.0441 180.263 87.2425 178.637 87.5505Z" fill="url(#paint2_linear_1683_65222)"/>
<path d="M178.634 87.551C178.634 87.551 183.31 85.9142 186.542 83.7788C189.775 81.6433 193.066 86.1766 193.066 86.1766C193.066 86.1766 190.497 83.1942 188.52 83.4865C186.542 83.7788 181.879 88.0017 178.634 87.551Z" fill="#D36865"/>
<path d="M178.63 87.5518C178.63 87.5518 180.069 92.1894 186.303 88.7466C186.303 88.7466 186.539 89.6366 188.247 89.725C189.955 89.8193 190.096 89.8022 190.096 89.8022L189.992 91.7206L189.561 90.2179L186.196 89.6974C186.19 89.703 180.206 92.395 178.63 87.5518Z" fill="#D36865"/>
<path d="M178.53 94.0768C178.53 94.0768 180.954 98.0552 186.378 93.5968L189.724 92.9732L191.925 96.0738L197.496 92.777C197.496 92.777 192.096 88.3308 190.417 86.9538C188.743 85.5771 184.286 87.9741 184.447 88.1573C184.615 88.3407 179.962 93.25 178.53 94.0768Z" fill="url(#paint3_linear_1683_65222)"/>
<path d="M178.528 94.0782C178.528 94.0782 180.972 98.1396 186.376 93.5982L189.723 92.9746L191.771 96.0508L189.403 91.8639C189.403 91.8639 188.444 93.3687 185.81 93.0158C185.81 93.0158 182.901 97.6106 178.528 94.0782Z" fill="#D36865"/>
<path d="M181.181 91.7831C181.181 91.7831 183.907 89.0444 184.557 88.0241C184.557 88.0241 187.317 86.0902 189.906 86.6638C189.906 86.6638 187.078 86.4547 184.659 88.2339C184.659 88.2339 182.559 90.8541 181.181 91.7831Z" fill="#FFC7BB"/>
<path d="M190.417 86.9555L195.998 91.5446C195.992 91.5444 191.719 87.3422 190.417 86.9555Z" fill="#FFC7BB"/>
<path d="M179.321 98.8913C179.321 98.8913 181.745 102.87 187.169 98.4112L190.516 97.7877L192.716 100.888L198.287 97.5914C198.287 97.5914 192.882 93.145 191.208 91.7683C189.534 90.3915 185.077 92.7886 185.238 92.9717C185.4 93.1549 180.747 98.0642 179.321 98.8913Z" fill="url(#paint4_linear_1683_65222)"/>
<path d="M179.317 98.8907C179.317 98.8907 181.761 102.952 187.165 98.4107L190.512 97.7871L192.56 100.863L190.192 96.6764C190.192 96.6764 189.233 98.1812 186.599 97.8283C186.593 97.8281 183.69 102.423 179.317 98.8907Z" fill="#D36865"/>
<path d="M181.977 96.5956C181.977 96.5956 184.703 93.8569 185.353 92.8366C185.353 92.8366 188.113 90.9027 190.702 91.4763C190.702 91.4763 187.874 91.2672 185.455 93.0464C185.449 93.0461 183.35 95.6664 181.977 96.5956Z" fill="#FFC7BB"/>
<path d="M191.208 91.7699L196.789 96.3591C196.789 96.3591 192.51 92.1567 191.208 91.7699Z" fill="#FFC7BB"/>
<path d="M180.51 116.927C180.51 116.927 186.903 109.962 183.506 102.563C183.506 102.563 185.056 108.665 180.51 116.927Z" fill="#D36865"/>
<path d="M92.3921 131.312L143.099 141.058L149.156 78.377L127.61 42.2587L112.294 34.2324L91.6998 38.0545C91.6998 38.0545 81.4027 58.8846 83.0468 83.8234C84.6908 108.762 88.9309 127.49 92.3921 131.312Z" fill="url(#paint5_linear_1683_65222)"/>
<path d="M151.722 83.3805L151.524 84.8988L150.888 90.0252L150.815 90.9779C148.988 106.363 146.947 122.403 145.833 130.56C145.768 131.417 145.628 132.173 145.577 132.84L145.175 135.972L131.507 117.115L136.075 56.8989C136.075 56.8989 122.26 35.6346 119.996 30.6721C118.437 27.2961 115.707 20.861 114.013 17.0914C113.586 16.1967 113.376 15.7017 113.376 15.7017C112.956 14.7117 112.671 14.1152 112.671 14.1152C112.671 14.1152 103.062 14.6338 101.134 16.117C101.134 16.117 89.8363 24.7488 86.5058 38.1998C83.1753 51.6507 80.0953 82.4649 87.4497 108.415L84.4145 108.185C84.4145 108.185 78.1879 70.63 82.8465 45.1098C87.587 19.5958 95.3694 9.4522 97.1546 7.67078C98.9398 5.88936 111.769 10.7888 118.013 12.2195C124.257 13.6502 135.744 15.5734 140.92 19.1273C146.014 22.6749 153.73 47.1191 154.344 54.2565C154.626 57.0568 153.373 69.2276 151.722 83.3805Z" fill="url(#paint6_linear_1683_65222)"/>
<path fill-rule="evenodd" clip-rule="evenodd" d="M97.0855 302.545L71.9161 242.961L70.1622 302.545H97.0855Z" fill="url(#paint7_radial_1683_65222)"/>
<path fill-rule="evenodd" clip-rule="evenodd" d="M78.3105 123.272C78.3105 123.272 74.2764 148.97 67.699 158.291C62.7002 165.434 60.3324 175.103 56.2983 183.378C54.8951 186.34 53.2289 189.128 51.1241 191.567C42.6174 201.672 31.3043 217.264 31.3043 217.264C22.7976 216.045 17.7988 204.198 17.7988 204.198C24.1131 188.344 37.2678 168.657 45.2483 160.555C52.615 153.151 57.8769 139.91 61.2971 130.241C61.6479 129.37 61.911 128.499 62.1741 127.628C65.5066 117.784 69.8038 112.819 69.8038 112.819C72.084 112.296 78.3105 123.272 78.3105 123.272Z" fill="#321833"/>
<path fill-rule="evenodd" clip-rule="evenodd" d="M78.318 123.272C78.318 123.272 74.2838 148.97 67.7064 158.291C62.7077 165.434 60.3398 175.103 56.3057 183.378L45.168 186.166C45.168 186.166 51.3946 173.883 53.4117 164.998C55.4287 156.113 61.0414 131.199 61.0414 131.199L61.2168 130.241C61.5676 129.37 61.8307 128.499 62.0938 127.628C65.4263 117.784 69.7235 112.819 69.7235 112.819C72.0913 112.296 78.318 123.272 78.318 123.272Z" fill="black"/>
<path fill-rule="evenodd" clip-rule="evenodd" d="M100.425 4.88281C100.425 4.88281 96.1274 12.3743 88.41 15.4232C80.6925 18.4721 75.9568 20.7369 74.6414 28.4898C73.3259 36.2426 79.377 43.7341 82.1834 45.7377C85.0774 47.6541 92.6195 32.6711 92.6195 32.6711L104.108 11.8517L101.565 8.80279L100.425 4.88281Z" fill="url(#paint8_linear_1683_65222)"/>
<path fill-rule="evenodd" clip-rule="evenodd" d="M91.5636 13.8633C91.5636 13.8633 90.599 15.6055 84.8986 20.1352C78.2335 25.3619 75.778 43.8293 86.6525 48.5333C86.6525 48.5333 76.3919 46.1813 73.4978 35.2925C70.7792 25.3619 81.2152 21.6161 91.5636 13.8633Z" fill="url(#paint9_linear_1683_65222)"/>
<path fill-rule="evenodd" clip-rule="evenodd" d="M178.389 137.645C178.389 137.645 179.529 142.697 177.688 145.397L173.741 141.477L178.389 137.645Z" fill="url(#paint10_radial_1683_65222)"/>
<path d="M26.8357 202.982C26.8357 202.982 22.1877 209.08 19.9952 210.125C19.2059 210.474 11.05 209.167 9.55912 209.516C8.06825 209.864 4.03415 219.795 2.71867 222.234C1.4032 224.586 0 226.589 0 226.589C0 226.589 2.54328 227.286 5.78811 225.892C9.12064 224.499 9.29603 218.314 9.29603 218.314C9.29603 218.314 10.8746 217.617 15.7857 219.272C20.6091 220.927 27.0987 223.628 28.6773 226.676C28.6773 226.676 30.8698 222.669 29.642 219.272C28.5019 215.875 31.8345 211.693 31.8345 211.693L26.8357 202.982Z" fill="url(#paint11_linear_1683_65222)"/>
<path d="M5.703 230.681C5.703 230.681 8.15859 234.253 9.03557 234.862C9.91256 235.559 12.2804 235.559 12.2804 235.559L13.5958 234.601C13.5958 234.601 17.2792 235.472 18.9455 235.124C18.9455 235.124 20.3486 237.04 21.8395 236.779C21.8395 236.779 22.6288 238.521 24.6458 238.434C24.6458 238.434 27.1891 236.692 27.8907 232.685C27.8907 232.685 27.9783 231.03 25.4351 231.639L23.7688 233.73C23.7688 233.73 25.8736 229.374 25.8736 226.326C25.8736 226.326 25.6982 224.148 23.3304 223.712L23.5058 222.318C23.5058 222.318 21.2256 221.36 19.9978 222.318C18.7701 223.277 17.7177 225.977 17.7177 225.977C17.7177 225.977 15.7883 225.542 14.2975 226.413C12.8066 227.284 12.8066 227.284 12.8066 227.284L9.91256 231.378L5.703 230.681Z" fill="url(#paint12_linear_1683_65222)"/>
<path d="M121.826 77.541C121.826 77.541 119.283 86.8618 119.809 92.6982L121.826 94.0049C121.826 94.0049 115.599 108.465 106.216 111.688C96.832 114.911 90.6054 111.079 93.9379 102.367C93.9379 102.367 102.971 99.0573 104.637 95.8342C106.303 92.524 106.128 84.8583 106.128 84.8583L121.826 77.541Z" fill="url(#paint13_linear_1683_65222)"/>
<path d="M134.267 41.0847C134.267 41.0847 133.748 59.7543 126.559 71.369C125.692 72.7456 124.74 74.0361 123.7 75.2406C115.818 83.7581 104.298 86.5973 99.7078 86.3391C95.1172 86.081 93.9046 84.6184 92.2589 83.1558C90.6999 81.7793 80.3926 76.8753 77.8808 69.5623C75.5422 62.7655 80.4793 55.4526 81.7785 51.3229C81.8651 50.9787 81.9517 50.7206 82.0383 50.4625C82.7313 46.5909 80.7391 37.3852 82.0383 30.2443C83.3376 23.1034 93.6448 13.2093 103.779 12.6931C125.692 11.5747 134.267 41.0847 134.267 41.0847Z" fill="url(#paint14_linear_1683_65222)"/>
<path d="M133.301 54.1046C133.301 54.1046 134.968 51.4041 139.966 50.3588C139.966 50.3588 143.562 49.8361 144.527 54.0174C144.527 54.0174 144.965 61.6832 141.545 66.1258C138.125 70.6556 132.161 70.9169 130.758 70.5685C129.355 70.22 129.443 66.9969 129.443 66.9969C129.443 66.9969 131.635 56.1952 133.301 54.1046Z" fill="url(#paint15_linear_1683_65222)"/>
<path fill-rule="evenodd" clip-rule="evenodd" d="M94.4122 106.91C94.4122 106.91 96.6754 112.789 108.746 107.634L92.8092 123.461L91.2061 119.21L94.4122 106.91Z" fill="url(#paint16_linear_1683_65222)"/>
<path fill-rule="evenodd" clip-rule="evenodd" d="M127.168 98.2719C127.168 98.2719 125.326 100.101 122.432 102.802C120.064 105.067 116.995 108.028 113.838 111.077L113.75 111.164C106.734 117.872 99.1045 125.189 96.5613 127.541C91.4748 132.245 84.1958 145.399 84.1958 145.399C84.1958 145.399 79.197 137.559 78.4954 134.249C77.7938 130.938 78.4954 108.203 78.4954 108.203C78.4954 108.203 84.1958 106.112 89.1069 103.499C92.264 101.756 95.9474 99.5786 98.1398 98.1848C99.1045 97.5751 99.8061 97.1395 100.069 96.9653H100.157L103.226 97.4008C101.911 98.9688 96.6489 101.147 96.6489 101.147C92.7902 107.157 94.1057 119.091 94.1057 119.091C94.1057 119.091 99.6307 115.346 105.594 109.945C111.558 104.544 121.292 93.6551 121.292 93.6551L120.591 93.2195L121.731 92.8711L123.309 94.4391L125.239 96.3555L127.168 98.2719Z" fill="url(#paint17_linear_1683_65222)"/>
<path fill-rule="evenodd" clip-rule="evenodd" d="M159.274 302.545H83.9418C82.3632 295.751 81.0478 289.13 79.9077 283.642L79.4692 281.377L79.1184 279.635L79.0307 279.287L78.943 278.59C78.943 278.503 78.943 278.503 78.943 278.503C78.1537 274.234 77.6276 271.098 77.4522 269.966L81.4863 302.632H51.1427C47.9856 288.695 45.6177 272.754 44.1269 259.077C43.2499 250.453 42.7237 242.613 42.636 236.864C42.5483 232.77 42.7237 229.634 43.1622 227.804C45.6177 217.09 54.3875 204.285 60.5264 190.26C63.4204 183.727 65.0867 177.28 66.1391 172.315C66.1391 172.315 66.1391 172.315 66.1391 172.228C67.2792 166.566 67.5422 162.733 67.5422 162.733C67.016 162.21 66.4899 161.601 65.9637 160.904C61.9296 155.503 60.2633 147.663 60.4387 146.269C60.6141 144.701 61.3157 141.652 64.8236 136.6C68.3315 131.547 72.4533 124.23 72.278 120.92C72.1026 117.523 69.647 112.993 69.647 112.993C69.647 112.993 76.4875 108.986 81.6617 106.46C83.2402 105.676 84.9065 104.804 86.3973 104.02C89.9053 102.104 92.7993 100.275 92.7993 100.275H94.9041L94.641 100.449C94.5533 100.449 94.5533 100.536 94.4656 100.536C94.3779 100.536 94.3779 100.623 94.2902 100.623C94.2025 100.71 94.1148 100.71 94.0271 100.797C93.5886 101.059 92.9747 101.494 92.3608 101.843C92.0977 102.017 91.8346 102.104 91.6592 102.278C90.8699 102.801 90.0806 103.236 89.4668 103.672L88.1513 104.543C87.5374 105.676 86.8359 107.592 86.222 109.857C84.7311 115.083 83.2402 122.314 82.2756 127.976C81.6617 131.722 81.2232 134.683 81.2232 135.903C81.2232 135.903 81.2232 135.903 81.2232 135.99C81.2232 136.164 81.2232 136.251 81.2232 136.338C81.2232 136.426 81.2231 136.513 81.3108 136.6C81.3108 136.687 81.3108 136.687 81.3108 136.774C81.3985 137.297 81.5739 137.906 81.7493 138.516V138.603C82.3632 140.607 83.1525 142.959 83.5033 143.917V144.004V144.091L83.591 144.266C83.591 144.266 89.3791 135.119 93.5009 129.805C94.8164 128.063 98.1489 124.753 102.095 121.007C110.076 113.167 120.6 103.411 121.74 101.32C122.354 100.188 122.792 98.8809 122.967 97.7485C123.055 97.1387 123.143 96.5289 123.231 96.0934C123.318 95.1352 123.318 94.5254 123.318 94.5254H125.248C126.563 95.2223 130.071 95.8321 134.193 96.6161C136.298 97.0516 138.052 97.9227 139.367 98.7067C140.595 99.4907 141.384 100.1 141.384 100.1C141.384 100.1 140.595 100.623 139.455 101.668C137.701 103.149 135.07 105.588 132.527 108.812C132.351 109.073 132.088 109.334 131.913 109.596C130.773 111.164 129.633 112.906 128.668 114.735C128.142 115.693 127.703 116.651 127.265 117.697C125.774 121.443 125.248 125.188 125.072 128.411C124.985 130.066 125.072 131.547 125.16 132.854C125.423 135.642 125.861 137.558 126.037 138.168V138.255C126.037 138.342 126.037 138.342 126.037 138.342C122.178 142.872 118.144 151.496 115.075 159.945C111.917 168.656 109.813 177.193 109.988 181.026C110.339 188.692 121.564 223.275 133.754 247.23C141.998 263.607 152.96 288.259 159.274 302.545Z" fill="black"/>
<path fill-rule="evenodd" clip-rule="evenodd" d="M123.307 94.4414C123.307 94.4414 121.202 98.4485 110.503 109.25C99.8036 119.965 94.8048 126.759 94.8048 126.759L86.3857 126.411L94.9802 127.021L121.728 104.372L125.324 96.0965L123.307 94.4414Z" fill="url(#paint18_linear_1683_65222)"/>
<path fill-rule="evenodd" clip-rule="evenodd" d="M178.552 145.394L171.186 152.886C167.678 162.294 153.734 178.932 152.506 178.932C151.278 178.932 143.034 173.705 139.79 166.736C136.545 159.855 136.633 155.064 136.282 152.45C135.931 149.924 129.441 136.422 129.441 136.422L126.021 138.338C126.021 138.338 124.793 135.464 124.355 131.021C123.829 126.404 124.092 120.132 127.161 113.512C133.212 100.445 141.281 100.01 141.281 100.01C141.281 100.01 142.859 101.142 143.035 101.665C143.122 101.839 143.035 103.059 143.035 104.714V104.888C142.947 107.675 142.771 111.595 142.947 114.47C143.21 119.087 150.226 145.307 150.577 145.394C150.664 145.394 151.717 144.61 153.12 143.391C156.277 140.603 161.627 135.464 163.819 132.066C164.257 131.37 164.696 130.673 165.047 130.063C166.976 126.753 167.59 125.01 167.678 124.836L169.607 124.226L169.081 125.098C171.624 139.645 178.026 144.349 178.026 144.349C179.078 141.561 178.903 137.99 178.815 137.293C179.166 140.516 178.552 145.394 178.552 145.394Z" fill="black"/>
<path fill-rule="evenodd" clip-rule="evenodd" d="M103.22 21.6113C103.22 21.6113 104.36 22.134 109.534 23.9633C114.796 25.7926 120.058 28.1446 122.952 33.0228C122.952 33.0228 118.655 29.1899 113.481 28.406C108.306 27.622 105.675 27.2735 104.798 26.6637C103.921 26.1411 103.22 21.6113 103.22 21.6113Z" fill="url(#paint19_linear_1683_65222)"/>
<path fill-rule="evenodd" clip-rule="evenodd" d="M81.6534 35.8179C81.6534 35.8179 82.5304 33.9886 84.5475 34.337C86.5645 34.7726 90.3355 41.393 90.3355 41.393C90.3355 41.393 87.5292 32.769 84.8983 30.8526C82.9689 29.4588 81.6534 32.0722 81.6534 32.0722C81.6534 32.0722 80.7765 33.9015 81.6534 35.8179Z" fill="url(#paint20_linear_1683_65222)"/>
<path d="M107.88 53.8412C109.283 55.4963 121.824 54.1025 123.841 49.1372C126.034 43.7363 120.947 35.8964 114.019 37.2902C105.775 38.8581 103.934 49.1372 107.88 53.8412Z" fill="url(#paint21_linear_1683_65222)"/>
<path d="M91.5602 49.1383C91.5602 49.7481 91.5602 50.3579 91.4725 50.9676C91.2971 52.3614 90.7709 53.4939 90.2447 54.365C89.2801 55.933 88.0523 56.7169 87.4384 56.7169C86.2106 56.7169 84.2813 56.8041 83.4043 52.3614C82.5273 47.9188 83.2289 41.4726 85.8598 40.4273C86.8245 39.9917 88.0523 40.8628 89.1924 42.2566C89.7185 42.9535 90.2447 43.8246 90.6832 44.7828C91.2094 46.0895 91.5602 47.5703 91.5602 49.1383Z" fill="url(#paint22_linear_1683_65222)"/>
<path fill-rule="evenodd" clip-rule="evenodd" d="M94.626 64.0384C94.626 64.0384 87.7856 64.9966 86.207 61.0767C85.1547 58.5505 89.3641 57.7665 91.5566 53.0625C91.5566 53.0625 90.5042 55.85 89.1011 57.418C87.5225 59.1602 87.2594 59.5958 88.1363 60.9896C89.6272 63.6029 94.626 64.0384 94.626 64.0384Z" fill="#F17C57"/>
<path fill-rule="evenodd" clip-rule="evenodd" d="M95.4192 61.2498C95.4192 61.2498 96.9101 59.5076 99.3656 59.7689C99.3656 59.7689 98.1378 60.0302 97.787 60.5529C97.4362 61.0756 96.3839 62.1209 95.4192 61.2498Z" fill="#C44A4C"/>
<path fill-rule="evenodd" clip-rule="evenodd" d="M97.0904 15.9517C97.0904 15.9517 94.8103 14.0352 91.5654 16.8228C91.5654 16.8228 93.9333 13.7739 94.9857 7.67616C95.9504 1.57842 104.194 -0.947787 108.667 1.75264C113.139 4.36596 116.91 29.3667 127.259 39.5586C127.259 39.5586 119.103 33.8964 114.981 23.0947C111.999 15.2548 110.245 12.9899 106.123 12.1188C102.089 11.2477 97.0904 15.9517 97.0904 15.9517Z" fill="url(#paint23_linear_1683_65222)"/>
<path fill-rule="evenodd" clip-rule="evenodd" d="M106.126 50.2739C106.126 50.2739 104.635 43.4793 110.511 39.4722C116.299 35.4651 123.665 39.298 124.367 45.7442C124.367 45.7442 126.91 44.8731 128.05 42.0855C128.05 42.0855 126.559 42.434 125.507 42.3469C125.507 42.3469 122.35 35.2909 115.509 35.2038C108.669 35.1167 104.459 43.4793 106.126 50.2739Z" fill="url(#paint24_linear_1683_65222)"/>
<path fill-rule="evenodd" clip-rule="evenodd" d="M109.364 54.3708C109.364 54.3708 112.171 55.4161 117.696 54.4579C123.221 53.4997 124.01 48.4473 124.01 48.4473C124.01 48.4473 122.256 54.545 109.364 54.3708Z" fill="#C44A4C"/>
<path fill-rule="evenodd" clip-rule="evenodd" d="M83.5842 53.3262C83.5842 53.3262 83.9349 56.5493 86.0397 56.9848C88.0568 57.4204 89.9861 55.2426 90.6 53.5875C90.6 53.5875 89.2845 56.4622 86.7413 56.375C84.6365 56.375 83.5842 53.3262 83.5842 53.3262Z" fill="#C44A4C"/>
<path fill-rule="evenodd" clip-rule="evenodd" d="M122.352 45.7368C122.352 49.2212 119.546 52.0088 116.038 52.0088C112.53 52.0088 109.724 49.2212 109.724 45.7368C109.724 42.2524 112.53 39.4648 116.038 39.4648C119.458 39.4648 122.352 42.3395 122.352 45.7368Z" fill="url(#paint25_linear_1683_65222)"/>
<path fill-rule="evenodd" clip-rule="evenodd" d="M120.253 45.743C120.253 48.095 118.323 50.0114 115.955 50.0114C113.588 50.0114 111.658 48.095 111.658 45.743C111.658 43.391 113.588 41.4746 115.955 41.4746C118.323 41.4746 120.253 43.391 120.253 45.743Z" fill="url(#paint26_linear_1683_65222)"/>
<path fill-rule="evenodd" clip-rule="evenodd" d="M91.5695 49.1415C91.5695 49.7513 91.5696 50.361 91.4819 50.9708C91.3065 52.3646 90.7803 53.497 90.2541 54.3681C89.8156 54.6295 89.2894 54.8037 88.8509 54.8037C86.6585 54.8037 84.9922 52.0161 84.9922 48.5317C84.9922 45.0473 86.7462 42.2598 88.8509 42.2598C88.9386 42.2598 89.114 42.2598 89.2017 42.2598C89.7279 42.9566 90.2541 43.8278 90.6926 44.786C91.2187 46.0926 91.5695 47.5735 91.5695 49.1415Z" fill="url(#paint27_linear_1683_65222)"/>
<path fill-rule="evenodd" clip-rule="evenodd" d="M91.5595 49.1458C91.5595 49.7555 91.5595 50.3653 91.4718 50.9751C91.0333 52.1075 90.2441 52.8044 89.2794 52.8044C87.7885 52.8044 86.6484 50.888 86.6484 48.536C86.6484 46.184 87.7885 44.2676 89.2794 44.2676C89.7179 44.2676 90.2441 44.4418 90.5949 44.8774C91.2087 46.0969 91.5595 47.5778 91.5595 49.1458Z" fill="url(#paint28_linear_1683_65222)"/>
<path fill-rule="evenodd" clip-rule="evenodd" d="M91.5613 50.2712C91.5613 50.2712 90.1581 40.9504 86.8256 41.386C83.9315 41.8215 83.0546 48.0064 83.0546 48.0064C83.0546 48.0064 81.476 47.9193 79.8975 46.1771C79.8975 46.1771 81.2129 46.0028 82.1776 45.6544C82.1776 45.6544 83.23 40.0793 85.6855 39.034C88.2288 37.9887 91.8244 44.8704 91.5613 50.2712Z" fill="url(#paint29_linear_1683_65222)"/>
<path d="M88.5829 69.4376C88.5829 69.4376 89.8985 69.786 90.6 70.6571C91.3016 71.5282 91.477 72.7478 93.4941 73.0962C95.4234 73.4446 102.878 72.922 109.631 65.082C109.631 65.082 105.421 67.1727 100.773 67.3469C96.125 67.5211 92.8802 68.5665 91.5647 69.0891C90.2492 69.6989 88.5829 69.4376 88.5829 69.4376Z" fill="url(#paint30_linear_1683_65222)"/>
<path d="M88.2293 69.3552C88.2293 69.3552 89.194 69.6165 90.5972 69.3552C92.0004 69.0938 92.1757 67.3516 95.9468 67.0032C99.7178 66.5676 104.19 66.9161 106.471 66.3063C108.751 65.6965 109.978 64.3027 109.978 64.3027H110.592C110.592 64.3027 109.101 66.045 104.19 67.5258C99.2793 68.9196 91.6495 69.7907 90.2464 69.7907C88.8432 69.7036 88.1416 69.6165 88.1416 69.6165L88.2293 69.3552Z" fill="url(#paint31_linear_1683_65222)"/>
<path fill-rule="evenodd" clip-rule="evenodd" d="M111.387 48.965C111.387 49.5748 110.861 50.0103 110.335 50.0103C109.721 50.0103 109.282 49.4877 109.282 48.965C109.282 48.3552 109.808 47.9197 110.335 47.9197C110.861 47.8326 111.387 48.3552 111.387 48.965Z" fill="white"/>
<path fill-rule="evenodd" clip-rule="evenodd" d="M86.8247 52.0149C86.9124 52.6246 86.474 53.1473 85.8601 53.2344C85.2462 53.3215 84.72 52.886 84.6323 52.2762C84.5446 51.6664 84.9831 51.1438 85.597 51.0566C86.2109 51.0566 86.737 51.4922 86.8247 52.0149Z" fill="white"/>
<path fill-rule="evenodd" clip-rule="evenodd" d="M131.46 61.597C131.46 61.597 136.283 55.4121 140.931 54.541C140.931 54.541 142.773 56.6317 142.597 59.7676C142.597 59.7676 141.896 56.5446 140.493 55.8477C140.493 55.8477 140.142 55.9348 139.265 56.3703C137.95 56.893 135.494 58.3739 131.46 61.597Z" fill="#F3764E"/>
<path fill-rule="evenodd" clip-rule="evenodd" d="M135.766 58.0247C135.766 58.0247 139.186 57.8505 139.976 58.0247C140.765 58.1989 141.203 62.4673 139.976 64.1224C138.748 65.7775 137.169 64.7322 135.065 64.6451C132.96 64.558 131.557 65.0806 131.557 65.0806C131.557 65.0806 130.592 62.7287 131.557 61.5962C132.434 60.4638 135.766 58.0247 135.766 58.0247Z" fill="#F3764E"/>
<path fill-rule="evenodd" clip-rule="evenodd" d="M109.627 2.70898C109.627 2.70898 122.782 22.4831 131.026 29.1035C139.269 35.7239 142.602 34.4172 142.602 34.4172C142.602 34.4172 136.814 45.9158 128.044 40.0794C119.274 34.243 114.188 9.24227 109.627 2.70898Z" fill="url(#paint32_linear_1683_65222)"/>
<path fill-rule="evenodd" clip-rule="evenodd" d="M104.892 0.708367C104.892 0.708367 109.101 -0.859623 113.135 10.2905C117.169 21.4407 120.414 35.5526 128.044 40.0823C135.674 44.6121 140.672 37.2948 140.672 37.2948C140.672 37.2948 136.112 43.8281 127.167 37.5561C118.046 31.1099 117.696 0.708367 104.892 0.708367Z" fill="url(#paint33_linear_1683_65222)"/>
<path fill-rule="evenodd" clip-rule="evenodd" d="M94.6298 13.862C94.6298 13.862 93.2267 4.01851 99.8917 1.75363C106.557 -0.51124 110.065 3.67007 111.38 10.5518C112.608 17.5206 114.45 21.6148 114.45 21.6148C114.45 21.6148 112.345 17.4335 110.328 10.3776C108.311 3.32162 102.26 1.23097 98.4008 4.10562C94.5421 6.98027 94.6298 13.862 94.6298 13.862Z" fill="url(#paint34_linear_1683_65222)"/>
<path fill-rule="evenodd" clip-rule="evenodd" d="M61.051 229.55V234.69C61.051 234.69 49.1241 235.996 46.8439 235.299C44.5638 234.602 43.7745 230.16 43.7745 230.16L45.2654 224.672C45.2654 224.672 46.8439 228.94 48.0717 229.55C49.2995 230.16 61.051 229.55 61.051 229.55Z" fill="url(#paint35_radial_1683_65222)"/>
<path opacity="0.5" fill-rule="evenodd" clip-rule="evenodd" d="M78.9453 278.586C79.2961 280.067 82.0147 291.043 85.0842 302.541H83.8564C82.2779 295.747 80.9624 289.126 79.8223 283.638L79.3838 281.373L79.033 279.631L78.9453 279.283V278.586Z" fill="url(#paint36_linear_1683_65222)"/>
<path fill-rule="evenodd" clip-rule="evenodd" d="M153.036 143.396L150.493 145.4C150.493 145.4 141.986 150.714 141.109 154.198C140.057 158.554 143.126 165 143.126 165C143.126 165 143.828 156.289 145.933 152.804C147.95 149.32 153.036 143.396 153.036 143.396Z" fill="url(#paint37_linear_1683_65222)"/>
<path fill-rule="evenodd" clip-rule="evenodd" d="M178.556 145.401L171.189 152.892C171.189 152.892 165.313 142.352 164.875 130.156L167.506 124.93L168.821 125.191C171.365 139.738 177.767 144.442 177.767 144.442C178.819 141.655 178.644 138.083 178.556 137.387C179.17 140.522 178.556 145.401 178.556 145.401Z" fill="url(#paint38_linear_1683_65222)"/>
<path opacity="0.5" fill-rule="evenodd" clip-rule="evenodd" d="M81.3069 302.548H79.4652C77.1851 293.75 75.4311 285.649 74.1156 278.244V278.157C71.2215 262.042 70.3446 249.411 70.1692 241.135C69.9938 233.992 70.3446 230.072 70.3446 230.072L71.8355 238.348V238.522L72.3616 241.571L77.185 269.098V269.272V269.359V269.708L81.3069 302.548Z" fill="url(#paint39_linear_1683_65222)"/>
<path opacity="0.5" fill-rule="evenodd" clip-rule="evenodd" d="M55.5199 235.212L58.1508 260.474L47.9778 262.652L44.1191 258.906L47.9778 263.784L60.6064 261.694L61.0449 234.689L55.5199 235.212Z" fill="url(#paint40_linear_1683_65222)"/>
<path opacity="0.3" fill-rule="evenodd" clip-rule="evenodd" d="M92.6152 231.379C92.6152 231.379 105.595 224.148 108.401 223.016C111.12 221.884 118.837 220.664 118.837 220.664C118.837 220.664 116.469 229.114 114.189 229.985C111.909 230.943 92.6152 231.379 92.6152 231.379Z" fill="url(#paint41_linear_1683_65222)"/>
<path fill-rule="evenodd" clip-rule="evenodd" d="M92.6152 231.379L94.9831 238.347C94.9831 238.347 112.347 237.041 116.118 235.821C119.889 234.602 121.117 228.504 121.117 228.504L118.837 220.664C118.837 220.664 115.768 228.156 114.715 228.504C113.663 228.852 92.6152 231.379 92.6152 231.379Z" fill="url(#paint42_radial_1683_65222)"/>
<path opacity="0.5" fill-rule="evenodd" clip-rule="evenodd" d="M76.3906 160.903C76.3906 160.903 77.2676 156.635 77.9692 156.635C79.8985 156.722 105.682 158.377 105.682 158.377C105.682 158.377 89.0192 162.471 85.3358 162.297C81.6525 162.036 76.3906 160.903 76.3906 160.903Z" fill="url(#paint43_linear_1683_65222)"/>
<path opacity="0.4" fill-rule="evenodd" clip-rule="evenodd" d="M78.6691 114.475L74.1965 115.259C74.1965 115.259 79.1076 120.573 79.8969 123.274C79.8969 123.274 73.1441 127.629 69.8993 133.03C69.8993 133.03 73.0564 146.532 80.16 151.759V132.159L84.0187 112.82L78.6691 114.475Z" fill="black"/>
<path opacity="0.4" fill-rule="evenodd" clip-rule="evenodd" d="M125.323 102.715L132.602 108.987C132.602 108.987 123.218 115.433 116.378 116.653C116.378 116.653 120.237 125.538 120.675 128.761C120.675 128.761 98.8382 139.824 92.6993 142.96C86.5604 146.183 82.4386 149.58 82.4386 149.58L104.012 123.186L125.323 102.715Z" fill="black"/>
<path fill-rule="evenodd" clip-rule="evenodd" d="M80.5993 152.8C80.5993 152.8 73.408 139.908 72.8818 125.534C72.8818 125.534 78.4945 120.83 81.8271 119.088C81.8271 119.088 79.4592 114.907 74.6358 113.774C74.6358 113.774 83.4933 106.544 86.475 103.67C89.4568 100.795 92.1754 98.6172 92.1754 98.6172L94.9818 99.9238L88.0536 104.279C88.0536 104.279 81.1255 129.541 81.0378 134.158C80.9501 138.775 83.6687 144.263 83.6687 144.263L80.5993 152.8Z" fill="#292329"/>
<path fill-rule="evenodd" clip-rule="evenodd" d="M79.1113 154.194C79.1113 154.194 83.7593 141.215 90.5121 132.504C97.2648 123.793 121.206 100.273 122.171 98.7919C123.136 97.2239 123.311 94.4364 123.311 94.4364L122.697 93.8266L124.539 93.2168C124.539 93.2168 129.362 102.451 133.747 106.545C133.747 106.545 124.977 110.813 115.945 113.601C115.945 113.601 121.294 120.482 122.171 125.709C122.171 125.709 105.421 133.549 96.2125 139.473C87.0042 145.396 83.7594 148.184 83.1455 148.968C82.6193 149.664 79.1113 154.194 79.1113 154.194Z" fill="#292329"/>
<path fill-rule="evenodd" clip-rule="evenodd" d="M13.5038 234.598C13.5038 234.598 16.924 229.72 17.6256 225.887C17.6256 225.887 17.0117 230.765 14.6438 234.772L13.5038 234.598Z" fill="#DB2727"/>
<path fill-rule="evenodd" clip-rule="evenodd" d="M23.253 223.705C23.253 223.705 21.7621 230.151 18.7804 235.117C18.7804 235.117 22.9022 229.28 23.8669 223.879L23.253 223.705Z" fill="#DB2727"/>
<path fill-rule="evenodd" clip-rule="evenodd" d="M23.6774 233.731L21.748 236.78C21.748 236.78 24.5544 235.822 25.3436 231.641L23.6774 233.731Z" fill="#DB2727"/>
<path fill-rule="evenodd" clip-rule="evenodd" d="M129.45 136.514L124.188 132.158C124.188 132.158 116.207 149.667 115.067 160.121C118.4 151.235 121.645 144.789 126.03 138.517L129.45 136.514Z" fill="black"/>
<path fill-rule="evenodd" clip-rule="evenodd" d="M97.0855 302.545L71.9161 242.961L70.1622 302.545H97.0855Z" fill="url(#paint44_radial_1683_65222)"/>
<path fill-rule="evenodd" clip-rule="evenodd" d="M78.3105 123.272C78.3105 123.272 74.2764 148.97 67.699 158.291C62.7002 165.434 60.3324 175.103 56.2983 183.378C54.8951 186.34 53.2289 189.128 51.1241 191.567C42.6174 201.672 31.3043 217.264 31.3043 217.264C22.7976 216.045 17.7988 204.198 17.7988 204.198C24.1131 188.344 37.2678 168.657 45.2483 160.555C52.615 153.151 57.8769 139.91 61.2971 130.241C61.6479 129.37 61.911 128.499 62.1741 127.628C65.5066 117.784 69.8038 112.819 69.8038 112.819C72.084 112.296 78.3105 123.272 78.3105 123.272Z" fill="#321833"/>
<path fill-rule="evenodd" clip-rule="evenodd" d="M78.318 123.272C78.318 123.272 74.2838 148.97 67.7064 158.291C62.7077 165.434 60.3398 175.103 56.3057 183.378L45.168 186.166C45.168 186.166 51.3946 173.883 53.4117 164.998C55.4287 156.113 61.0414 131.199 61.0414 131.199L61.2168 130.241C61.5676 129.37 61.8307 128.499 62.0938 127.628C65.4263 117.784 69.7235 112.819 69.7235 112.819C72.0913 112.296 78.318 123.272 78.318 123.272Z" fill="black"/>
<path fill-rule="evenodd" clip-rule="evenodd" d="M100.425 4.88281C100.425 4.88281 96.1274 12.3743 88.41 15.4232C80.6925 18.4721 75.9568 20.7369 74.6414 28.4898C73.3259 36.2426 79.377 43.7341 82.1834 45.7377C85.0774 47.6541 92.6195 32.6711 92.6195 32.6711L104.108 11.8517L101.565 8.80279L100.425 4.88281Z" fill="url(#paint45_linear_1683_65222)"/>
<path fill-rule="evenodd" clip-rule="evenodd" d="M91.5636 13.8633C91.5636 13.8633 90.599 15.6055 84.8986 20.1352C78.2335 25.3619 75.778 43.8293 86.6525 48.5333C86.6525 48.5333 76.3919 46.1813 73.4978 35.2925C70.7792 25.3619 81.2152 21.6161 91.5636 13.8633Z" fill="url(#paint46_linear_1683_65222)"/>
<path fill-rule="evenodd" clip-rule="evenodd" d="M178.389 137.645C178.389 137.645 179.529 142.697 177.688 145.397L173.741 141.477L178.389 137.645Z" fill="url(#paint47_radial_1683_65222)"/>
<path d="M26.8357 202.982C26.8357 202.982 22.1877 209.08 19.9952 210.125C19.2059 210.474 11.05 209.167 9.55912 209.516C8.06825 209.864 4.03415 219.795 2.71867 222.234C1.4032 224.586 0 226.589 0 226.589C0 226.589 2.54328 227.286 5.78811 225.892C9.12064 224.499 9.29603 218.314 9.29603 218.314C9.29603 218.314 10.8746 217.617 15.7857 219.272C20.6091 220.927 27.0987 223.628 28.6773 226.676C28.6773 226.676 30.8698 222.669 29.642 219.272C28.5019 215.875 31.8345 211.693 31.8345 211.693L26.8357 202.982Z" fill="url(#paint48_linear_1683_65222)"/>
<path d="M5.703 230.681C5.703 230.681 8.15859 234.253 9.03557 234.862C9.91256 235.559 12.2804 235.559 12.2804 235.559L13.5958 234.601C13.5958 234.601 17.2792 235.472 18.9455 235.124C18.9455 235.124 20.3486 237.04 21.8395 236.779C21.8395 236.779 22.6288 238.521 24.6458 238.434C24.6458 238.434 27.1891 236.692 27.8907 232.685C27.8907 232.685 27.9783 231.03 25.4351 231.639L23.7688 233.73C23.7688 233.73 25.8736 229.374 25.8736 226.326C25.8736 226.326 25.6982 224.148 23.3304 223.712L23.5058 222.318C23.5058 222.318 21.2256 221.36 19.9978 222.318C18.7701 223.277 17.7177 225.977 17.7177 225.977C17.7177 225.977 15.7883 225.542 14.2975 226.413C12.8066 227.284 12.8066 227.284 12.8066 227.284L9.91256 231.378L5.703 230.681Z" fill="url(#paint49_linear_1683_65222)"/>
<path d="M121.826 77.541C121.826 77.541 119.283 86.8618 119.809 92.6982L121.826 94.0049C121.826 94.0049 115.599 108.465 106.216 111.688C96.832 114.911 90.6054 111.079 93.9379 102.367C93.9379 102.367 102.971 99.0573 104.637 95.8342C106.303 92.524 106.128 84.8583 106.128 84.8583L121.826 77.541Z" fill="url(#paint50_linear_1683_65222)"/>
<path d="M134.267 41.0847C134.267 41.0847 133.748 59.7543 126.559 71.369C125.692 72.7456 124.74 74.0361 123.7 75.2406C115.818 83.7581 104.298 86.5973 99.7078 86.3391C95.1172 86.081 93.9046 84.6184 92.2589 83.1558C90.6999 81.7793 80.3926 76.8753 77.8808 69.5623C75.5422 62.7655 80.4793 55.4526 81.7785 51.3229C81.8651 50.9787 81.9517 50.7206 82.0383 50.4625C82.7313 46.5909 80.7391 37.3852 82.0383 30.2443C83.3376 23.1034 93.6448 13.2093 103.779 12.6931C125.692 11.5747 134.267 41.0847 134.267 41.0847Z" fill="url(#paint51_linear_1683_65222)"/>
<path d="M133.301 54.1046C133.301 54.1046 134.968 51.4041 139.966 50.3588C139.966 50.3588 143.562 49.8361 144.527 54.0174C144.527 54.0174 144.965 61.6832 141.545 66.1258C138.125 70.6556 132.161 70.9169 130.758 70.5685C129.355 70.22 129.443 66.9969 129.443 66.9969C129.443 66.9969 131.635 56.1952 133.301 54.1046Z" fill="url(#paint52_linear_1683_65222)"/>
<path fill-rule="evenodd" clip-rule="evenodd" d="M94.4122 106.91C94.4122 106.91 96.6754 112.789 108.746 107.634L92.8092 123.461L91.2061 119.21L94.4122 106.91Z" fill="url(#paint53_linear_1683_65222)"/>
<path fill-rule="evenodd" clip-rule="evenodd" d="M127.168 98.2719C127.168 98.2719 125.326 100.101 122.432 102.802C120.064 105.067 116.995 108.028 113.838 111.077L113.75 111.164C106.734 117.872 99.1045 125.189 96.5613 127.541C91.4748 132.245 84.1958 145.399 84.1958 145.399C84.1958 145.399 79.197 137.559 78.4954 134.249C77.7938 130.938 78.4954 108.203 78.4954 108.203C78.4954 108.203 84.1958 106.112 89.1069 103.499C92.264 101.756 95.9474 99.5786 98.1398 98.1848C99.1045 97.5751 99.8061 97.1395 100.069 96.9653H100.157L103.226 97.4008C101.911 98.9688 96.6489 101.147 96.6489 101.147C92.7902 107.157 94.1057 119.091 94.1057 119.091C94.1057 119.091 99.6307 115.346 105.594 109.945C111.558 104.544 121.292 93.6551 121.292 93.6551L120.591 93.2195L121.731 92.8711L123.309 94.4391L125.239 96.3555L127.168 98.2719Z" fill="url(#paint54_linear_1683_65222)"/>
<path fill-rule="evenodd" clip-rule="evenodd" d="M159.274 302.545H83.9418C82.3632 295.751 81.0478 289.13 79.9077 283.642L79.4692 281.377L79.1184 279.635L79.0307 279.287L78.943 278.59C78.943 278.503 78.943 278.503 78.943 278.503C78.1537 274.234 77.6276 271.098 77.4522 269.966L81.4863 302.632H51.1427C47.9856 288.695 45.6177 272.754 44.1269 259.077C43.2499 250.453 42.7237 242.613 42.636 236.864C42.5483 232.77 42.7237 229.634 43.1622 227.804C45.6177 217.09 54.3875 204.285 60.5264 190.26C63.4204 183.727 65.0867 177.28 66.1391 172.315C66.1391 172.315 66.1391 172.315 66.1391 172.228C67.2792 166.566 67.5422 162.733 67.5422 162.733C67.016 162.21 66.4899 161.601 65.9637 160.904C61.9296 155.503 60.2633 147.663 60.4387 146.269C60.6141 144.701 61.3157 141.652 64.8236 136.6C68.3315 131.547 72.4533 124.23 72.278 120.92C72.1026 117.523 69.647 112.993 69.647 112.993C69.647 112.993 76.4875 108.986 81.6617 106.46C83.2402 105.676 84.9065 104.804 86.3973 104.02C89.9053 102.104 92.7993 100.275 92.7993 100.275H94.9041L94.641 100.449C94.5533 100.449 94.5533 100.536 94.4656 100.536C94.3779 100.536 94.3779 100.623 94.2902 100.623C94.2025 100.71 94.1148 100.71 94.0271 100.797C93.5886 101.059 92.9747 101.494 92.3608 101.843C92.0977 102.017 91.8346 102.104 91.6592 102.278C90.8699 102.801 90.0806 103.236 89.4668 103.672L88.1513 104.543C87.5374 105.676 86.8359 107.592 86.222 109.857C84.7311 115.083 83.2402 122.314 82.2756 127.976C81.6617 131.722 81.2232 134.683 81.2232 135.903C81.2232 135.903 81.2232 135.903 81.2232 135.99C81.2232 136.164 81.2232 136.251 81.2232 136.338C81.2232 136.426 81.2231 136.513 81.3108 136.6C81.3108 136.687 81.3108 136.687 81.3108 136.774C81.3985 137.297 81.5739 137.906 81.7493 138.516V138.603C82.3632 140.607 83.1525 142.959 83.5033 143.917V144.004V144.091L83.591 144.266C83.591 144.266 89.3791 135.119 93.5009 129.805C94.8164 128.063 98.1489 124.753 102.095 121.007C110.076 113.167 120.6 103.411 121.74 101.32C122.354 100.188 122.792 98.8809 122.967 97.7485C123.055 97.1387 123.143 96.5289 123.231 96.0934C123.318 95.1352 123.318 94.5254 123.318 94.5254H125.248C126.563 95.2223 130.071 95.8321 134.193 96.6161C136.298 97.0516 138.052 97.9227 139.367 98.7067C140.595 99.4907 141.384 100.1 141.384 100.1C141.384 100.1 140.595 100.623 139.455 101.668C137.701 103.149 135.07 105.588 132.527 108.812C132.351 109.073 132.088 109.334 131.913 109.596C130.773 111.164 129.633 112.906 128.668 114.735C128.142 115.693 127.703 116.651 127.265 117.697C125.774 121.443 125.248 125.188 125.072 128.411C124.985 130.066 125.072 131.547 125.16 132.854C125.423 135.642 125.861 137.558 126.037 138.168V138.255C126.037 138.342 126.037 138.342 126.037 138.342C122.178 142.872 118.144 151.496 115.075 159.945C111.917 168.656 109.813 177.193 109.988 181.026C110.339 188.692 121.564 223.275 133.754 247.23C141.998 263.607 152.96 288.259 159.274 302.545Z" fill="black"/>
<path fill-rule="evenodd" clip-rule="evenodd" d="M123.307 94.4414C123.307 94.4414 121.202 98.4485 110.503 109.25C99.8036 119.965 94.8048 126.759 94.8048 126.759L86.3857 126.411L94.9802 127.021L121.728 104.372L125.324 96.0965L123.307 94.4414Z" fill="url(#paint55_linear_1683_65222)"/>
<path fill-rule="evenodd" clip-rule="evenodd" d="M178.552 145.394L171.186 152.886C167.678 162.294 153.734 178.932 152.506 178.932C151.278 178.932 143.034 173.705 139.79 166.736C136.545 159.855 136.633 155.064 136.282 152.45C135.931 149.924 129.441 136.422 129.441 136.422L126.021 138.338C126.021 138.338 124.793 135.464 124.355 131.021C123.829 126.404 124.092 120.132 127.161 113.512C133.212 100.445 141.281 100.01 141.281 100.01C141.281 100.01 142.859 101.142 143.035 101.665C143.122 101.839 143.035 103.059 143.035 104.714V104.888C142.947 107.675 142.771 111.595 142.947 114.47C143.21 119.087 150.226 145.307 150.577 145.394C150.664 145.394 151.717 144.61 153.12 143.391C156.277 140.603 161.627 135.464 163.819 132.066C164.257 131.37 164.696 130.673 165.047 130.063C166.976 126.753 167.59 125.01 167.678 124.836L169.607 124.226L169.081 125.098C171.624 139.645 178.026 144.349 178.026 144.349C179.078 141.561 178.903 137.99 178.815 137.293C179.166 140.516 178.552 145.394 178.552 145.394Z" fill="black"/>
<path fill-rule="evenodd" clip-rule="evenodd" d="M103.22 21.6113C103.22 21.6113 104.36 22.134 109.534 23.9633C114.796 25.7926 120.058 28.1446 122.952 33.0228C122.952 33.0228 118.655 29.1899 113.481 28.406C108.306 27.622 105.675 27.2735 104.798 26.6637C103.921 26.1411 103.22 21.6113 103.22 21.6113Z" fill="url(#paint56_linear_1683_65222)"/>
<path fill-rule="evenodd" clip-rule="evenodd" d="M81.6534 35.8179C81.6534 35.8179 82.5304 33.9886 84.5475 34.337C86.5645 34.7726 90.3355 41.393 90.3355 41.393C90.3355 41.393 87.5292 32.769 84.8983 30.8526C82.9689 29.4588 81.6534 32.0722 81.6534 32.0722C81.6534 32.0722 80.7765 33.9015 81.6534 35.8179Z" fill="url(#paint57_linear_1683_65222)"/>
<path d="M107.88 53.8412C109.283 55.4963 121.824 54.1025 123.841 49.1372C126.034 43.7363 120.947 35.8964 114.019 37.2902C105.775 38.8581 103.934 49.1372 107.88 53.8412Z" fill="url(#paint58_linear_1683_65222)"/>
<path d="M91.5602 49.1383C91.5602 49.7481 91.5602 50.3579 91.4725 50.9676C91.2971 52.3614 90.7709 53.4939 90.2447 54.365C89.2801 55.933 88.0523 56.7169 87.4384 56.7169C86.2106 56.7169 84.2813 56.8041 83.4043 52.3614C82.5273 47.9188 83.2289 41.4726 85.8598 40.4273C86.8245 39.9917 88.0523 40.8628 89.1924 42.2566C89.7185 42.9535 90.2447 43.8246 90.6832 44.7828C91.2094 46.0895 91.5602 47.5703 91.5602 49.1383Z" fill="url(#paint59_linear_1683_65222)"/>
<path fill-rule="evenodd" clip-rule="evenodd" d="M94.626 64.0384C94.626 64.0384 87.7856 64.9966 86.207 61.0767C85.1547 58.5505 89.3641 57.7665 91.5566 53.0625C91.5566 53.0625 90.5042 55.85 89.1011 57.418C87.5225 59.1602 87.2594 59.5958 88.1363 60.9896C89.6272 63.6029 94.626 64.0384 94.626 64.0384Z" fill="#F17C57"/>
<path fill-rule="evenodd" clip-rule="evenodd" d="M95.4192 61.2498C95.4192 61.2498 96.9101 59.5076 99.3656 59.7689C99.3656 59.7689 98.1378 60.0302 97.787 60.5529C97.4362 61.0756 96.3839 62.1209 95.4192 61.2498Z" fill="#C44A4C"/>
<path fill-rule="evenodd" clip-rule="evenodd" d="M97.0904 15.9517C97.0904 15.9517 94.8103 14.0352 91.5654 16.8228C91.5654 16.8228 93.9333 13.7739 94.9857 7.67616C95.9504 1.57842 104.194 -0.947787 108.667 1.75264C113.139 4.36596 116.91 29.3667 127.259 39.5586C127.259 39.5586 119.103 33.8964 114.981 23.0947C111.999 15.2548 110.245 12.9899 106.123 12.1188C102.089 11.2477 97.0904 15.9517 97.0904 15.9517Z" fill="url(#paint60_linear_1683_65222)"/>
<path fill-rule="evenodd" clip-rule="evenodd" d="M106.126 50.2739C106.126 50.2739 104.635 43.4793 110.511 39.4722C116.299 35.4651 123.665 39.298 124.367 45.7442C124.367 45.7442 126.91 44.8731 128.05 42.0855C128.05 42.0855 126.559 42.434 125.507 42.3469C125.507 42.3469 122.35 35.2909 115.509 35.2038C108.669 35.1167 104.459 43.4793 106.126 50.2739Z" fill="url(#paint61_linear_1683_65222)"/>
<path fill-rule="evenodd" clip-rule="evenodd" d="M109.364 54.3708C109.364 54.3708 112.171 55.4161 117.696 54.4579C123.221 53.4997 124.01 48.4473 124.01 48.4473C124.01 48.4473 122.256 54.545 109.364 54.3708Z" fill="#C44A4C"/>
<path fill-rule="evenodd" clip-rule="evenodd" d="M83.5842 53.3262C83.5842 53.3262 83.9349 56.5493 86.0397 56.9848C88.0568 57.4204 89.9861 55.2426 90.6 53.5875C90.6 53.5875 89.2845 56.4622 86.7413 56.375C84.6365 56.375 83.5842 53.3262 83.5842 53.3262Z" fill="#C44A4C"/>
<path fill-rule="evenodd" clip-rule="evenodd" d="M122.352 45.7368C122.352 49.2212 119.546 52.0088 116.038 52.0088C112.53 52.0088 109.724 49.2212 109.724 45.7368C109.724 42.2524 112.53 39.4648 116.038 39.4648C119.458 39.4648 122.352 42.3395 122.352 45.7368Z" fill="url(#paint62_linear_1683_65222)"/>
<path fill-rule="evenodd" clip-rule="evenodd" d="M120.253 45.743C120.253 48.095 118.323 50.0114 115.955 50.0114C113.588 50.0114 111.658 48.095 111.658 45.743C111.658 43.391 113.588 41.4746 115.955 41.4746C118.323 41.4746 120.253 43.391 120.253 45.743Z" fill="url(#paint63_linear_1683_65222)"/>
<path fill-rule="evenodd" clip-rule="evenodd" d="M91.5695 49.1415C91.5695 49.7513 91.5696 50.361 91.4819 50.9708C91.3065 52.3646 90.7803 53.497 90.2541 54.3681C89.8156 54.6295 89.2894 54.8037 88.8509 54.8037C86.6585 54.8037 84.9922 52.0161 84.9922 48.5317C84.9922 45.0473 86.7462 42.2598 88.8509 42.2598C88.9386 42.2598 89.114 42.2598 89.2017 42.2598C89.7279 42.9566 90.2541 43.8278 90.6926 44.786C91.2187 46.0926 91.5695 47.5735 91.5695 49.1415Z" fill="url(#paint64_linear_1683_65222)"/>
<path fill-rule="evenodd" clip-rule="evenodd" d="M91.5595 49.1458C91.5595 49.7555 91.5595 50.3653 91.4718 50.9751C91.0333 52.1075 90.2441 52.8044 89.2794 52.8044C87.7885 52.8044 86.6484 50.888 86.6484 48.536C86.6484 46.184 87.7885 44.2676 89.2794 44.2676C89.7179 44.2676 90.2441 44.4418 90.5949 44.8774C91.2087 46.0969 91.5595 47.5778 91.5595 49.1458Z" fill="url(#paint65_linear_1683_65222)"/>
<path fill-rule="evenodd" clip-rule="evenodd" d="M91.5613 50.2712C91.5613 50.2712 90.1581 40.9504 86.8256 41.386C83.9315 41.8215 83.0546 48.0064 83.0546 48.0064C83.0546 48.0064 81.476 47.9193 79.8975 46.1771C79.8975 46.1771 81.2129 46.0028 82.1776 45.6544C82.1776 45.6544 83.23 40.0793 85.6855 39.034C88.2288 37.9887 91.8244 44.8704 91.5613 50.2712Z" fill="url(#paint66_linear_1683_65222)"/>
<path d="M88.5829 69.4376C88.5829 69.4376 89.8985 69.786 90.6 70.6571C91.3016 71.5282 91.477 72.7478 93.4941 73.0962C95.4234 73.4446 102.878 72.922 109.631 65.082C109.631 65.082 105.421 67.1727 100.773 67.3469C96.125 67.5211 92.8802 68.5665 91.5647 69.0891C90.2492 69.6989 88.5829 69.4376 88.5829 69.4376Z" fill="url(#paint67_linear_1683_65222)"/>
<path d="M88.2293 69.3552C88.2293 69.3552 89.194 69.6165 90.5972 69.3552C92.0004 69.0938 92.1757 67.3516 95.9468 67.0032C99.7178 66.5676 104.19 66.9161 106.471 66.3063C108.751 65.6965 109.978 64.3027 109.978 64.3027H110.592C110.592 64.3027 109.101 66.045 104.19 67.5258C99.2793 68.9196 91.6495 69.7907 90.2464 69.7907C88.8432 69.7036 88.1416 69.6165 88.1416 69.6165L88.2293 69.3552Z" fill="url(#paint68_linear_1683_65222)"/>
<path fill-rule="evenodd" clip-rule="evenodd" d="M111.387 48.965C111.387 49.5748 110.861 50.0103 110.335 50.0103C109.721 50.0103 109.282 49.4877 109.282 48.965C109.282 48.3552 109.808 47.9197 110.335 47.9197C110.861 47.8326 111.387 48.3552 111.387 48.965Z" fill="white"/>
<path fill-rule="evenodd" clip-rule="evenodd" d="M86.8247 52.0149C86.9124 52.6246 86.474 53.1473 85.8601 53.2344C85.2462 53.3215 84.72 52.886 84.6323 52.2762C84.5446 51.6664 84.9831 51.1438 85.597 51.0566C86.2109 51.0566 86.737 51.4922 86.8247 52.0149Z" fill="white"/>
<path fill-rule="evenodd" clip-rule="evenodd" d="M131.46 61.597C131.46 61.597 136.283 55.4121 140.931 54.541C140.931 54.541 142.773 56.6317 142.597 59.7676C142.597 59.7676 141.896 56.5446 140.493 55.8477C140.493 55.8477 140.142 55.9348 139.265 56.3703C137.95 56.893 135.494 58.3739 131.46 61.597Z" fill="#F3764E"/>
<path fill-rule="evenodd" clip-rule="evenodd" d="M135.766 58.0247C135.766 58.0247 139.186 57.8505 139.976 58.0247C140.765 58.1989 141.203 62.4673 139.976 64.1224C138.748 65.7775 137.169 64.7322 135.065 64.6451C132.96 64.558 131.557 65.0806 131.557 65.0806C131.557 65.0806 130.592 62.7287 131.557 61.5962C132.434 60.4638 135.766 58.0247 135.766 58.0247Z" fill="#F3764E"/>
<path fill-rule="evenodd" clip-rule="evenodd" d="M109.627 2.70898C109.627 2.70898 122.782 22.4831 131.026 29.1035C139.269 35.7239 142.602 34.4172 142.602 34.4172C142.602 34.4172 136.814 45.9158 128.044 40.0794C119.274 34.243 114.188 9.24227 109.627 2.70898Z" fill="url(#paint69_linear_1683_65222)"/>
<path fill-rule="evenodd" clip-rule="evenodd" d="M104.892 0.708367C104.892 0.708367 109.101 -0.859623 113.135 10.2905C117.169 21.4407 120.414 35.5526 128.044 40.0823C135.674 44.6121 140.672 37.2948 140.672 37.2948C140.672 37.2948 136.112 43.8281 127.167 37.5561C118.046 31.1099 117.696 0.708367 104.892 0.708367Z" fill="url(#paint70_linear_1683_65222)"/>
<path fill-rule="evenodd" clip-rule="evenodd" d="M94.6298 13.862C94.6298 13.862 93.2267 4.01851 99.8917 1.75363C106.557 -0.51124 110.065 3.67007 111.38 10.5518C112.608 17.5206 114.45 21.6148 114.45 21.6148C114.45 21.6148 112.345 17.4335 110.328 10.3776C108.311 3.32162 102.26 1.23097 98.4008 4.10562C94.5421 6.98027 94.6298 13.862 94.6298 13.862Z" fill="url(#paint71_linear_1683_65222)"/>
<path fill-rule="evenodd" clip-rule="evenodd" d="M61.051 229.55V234.69C61.051 234.69 49.1241 235.996 46.8439 235.299C44.5638 234.602 43.7745 230.16 43.7745 230.16L45.2654 224.672C45.2654 224.672 46.8439 228.94 48.0717 229.55C49.2995 230.16 61.051 229.55 61.051 229.55Z" fill="url(#paint72_radial_1683_65222)"/>
<path opacity="0.5" fill-rule="evenodd" clip-rule="evenodd" d="M78.9453 278.586C79.2961 280.067 82.0147 291.043 85.0842 302.541H83.8564C82.2779 295.747 80.9624 289.126 79.8223 283.638L79.3838 281.373L79.033 279.631L78.9453 279.283V278.586Z" fill="url(#paint73_linear_1683_65222)"/>
<path fill-rule="evenodd" clip-rule="evenodd" d="M153.036 143.396L150.493 145.4C150.493 145.4 141.986 150.714 141.109 154.198C140.057 158.554 143.126 165 143.126 165C143.126 165 143.828 156.289 145.933 152.804C147.95 149.32 153.036 143.396 153.036 143.396Z" fill="url(#paint74_linear_1683_65222)"/>
<path fill-rule="evenodd" clip-rule="evenodd" d="M178.556 145.401L171.189 152.892C171.189 152.892 165.313 142.352 164.875 130.156L167.506 124.93L168.821 125.191C171.365 139.738 177.767 144.442 177.767 144.442C178.819 141.655 178.644 138.083 178.556 137.387C179.17 140.522 178.556 145.401 178.556 145.401Z" fill="url(#paint75_linear_1683_65222)"/>
<path opacity="0.5" fill-rule="evenodd" clip-rule="evenodd" d="M81.3069 302.548H79.4652C77.1851 293.75 75.4311 285.649 74.1156 278.244V278.157C71.2215 262.042 70.3446 249.411 70.1692 241.135C69.9938 233.992 70.3446 230.072 70.3446 230.072L71.8355 238.348V238.522L72.3616 241.571L77.185 269.098V269.272V269.359V269.708L81.3069 302.548Z" fill="url(#paint76_linear_1683_65222)"/>
<path opacity="0.5" fill-rule="evenodd" clip-rule="evenodd" d="M55.5199 235.212L58.1508 260.474L47.9778 262.652L44.1191 258.906L47.9778 263.784L60.6064 261.694L61.0449 234.689L55.5199 235.212Z" fill="url(#paint77_linear_1683_65222)"/>
<path opacity="0.3" fill-rule="evenodd" clip-rule="evenodd" d="M92.6152 231.379C92.6152 231.379 105.595 224.148 108.401 223.016C111.12 221.884 118.837 220.664 118.837 220.664C118.837 220.664 116.469 229.114 114.189 229.985C111.909 230.943 92.6152 231.379 92.6152 231.379Z" fill="url(#paint78_linear_1683_65222)"/>
<path fill-rule="evenodd" clip-rule="evenodd" d="M92.6152 231.379L94.9831 238.347C94.9831 238.347 112.347 237.041 116.118 235.821C119.889 234.602 121.117 228.504 121.117 228.504L118.837 220.664C118.837 220.664 115.768 228.156 114.715 228.504C113.663 228.852 92.6152 231.379 92.6152 231.379Z" fill="url(#paint79_radial_1683_65222)"/>
<path opacity="0.5" fill-rule="evenodd" clip-rule="evenodd" d="M76.3906 160.903C76.3906 160.903 77.2676 156.635 77.9692 156.635C79.8985 156.722 105.682 158.377 105.682 158.377C105.682 158.377 89.0192 162.471 85.3358 162.297C81.6525 162.036 76.3906 160.903 76.3906 160.903Z" fill="url(#paint80_linear_1683_65222)"/>
<path opacity="0.4" fill-rule="evenodd" clip-rule="evenodd" d="M78.6691 114.475L74.1965 115.259C74.1965 115.259 79.1076 120.573 79.8969 123.274C79.8969 123.274 73.1441 127.629 69.8993 133.03C69.8993 133.03 73.0564 146.532 80.16 151.759V132.159L84.0187 112.82L78.6691 114.475Z" fill="black"/>
<path opacity="0.4" fill-rule="evenodd" clip-rule="evenodd" d="M125.323 102.715L132.602 108.987C132.602 108.987 123.218 115.433 116.378 116.653C116.378 116.653 120.237 125.538 120.675 128.761C120.675 128.761 98.8382 139.824 92.6993 142.96C86.5604 146.183 82.4386 149.58 82.4386 149.58L104.012 123.186L125.323 102.715Z" fill="black"/>
<path fill-rule="evenodd" clip-rule="evenodd" d="M80.5993 152.8C80.5993 152.8 73.408 139.908 72.8818 125.534C72.8818 125.534 78.4945 120.83 81.8271 119.088C81.8271 119.088 79.4592 114.907 74.6358 113.774C74.6358 113.774 83.4933 106.544 86.475 103.67C89.4568 100.795 92.1754 98.6172 92.1754 98.6172L94.9818 99.9238L88.0536 104.279C88.0536 104.279 81.1255 129.541 81.0378 134.158C80.9501 138.775 83.6687 144.263 83.6687 144.263L80.5993 152.8Z" fill="#292329"/>
<path fill-rule="evenodd" clip-rule="evenodd" d="M79.1113 154.194C79.1113 154.194 83.7593 141.215 90.5121 132.504C97.2648 123.793 121.206 100.273 122.171 98.7919C123.136 97.2239 123.311 94.4364 123.311 94.4364L122.697 93.8266L124.539 93.2168C124.539 93.2168 129.362 102.451 133.747 106.545C133.747 106.545 124.977 110.813 115.945 113.601C115.945 113.601 121.294 120.482 122.171 125.709C122.171 125.709 105.421 133.549 96.2125 139.473C87.0042 145.396 83.7594 148.184 83.1455 148.968C82.6193 149.664 79.1113 154.194 79.1113 154.194Z" fill="#292329"/>
<path fill-rule="evenodd" clip-rule="evenodd" d="M13.5038 234.598C13.5038 234.598 16.924 229.72 17.6256 225.887C17.6256 225.887 17.0117 230.765 14.6438 234.772L13.5038 234.598Z" fill="#DB2727"/>
<path fill-rule="evenodd" clip-rule="evenodd" d="M23.253 223.705C23.253 223.705 21.7621 230.151 18.7804 235.117C18.7804 235.117 22.9022 229.28 23.8669 223.879L23.253 223.705Z" fill="#DB2727"/>
<path fill-rule="evenodd" clip-rule="evenodd" d="M23.6774 233.731L21.748 236.78C21.748 236.78 24.5544 235.822 25.3436 231.641L23.6774 233.731Z" fill="#DB2727"/>
<path fill-rule="evenodd" clip-rule="evenodd" d="M129.45 136.514L124.188 132.158C124.188 132.158 116.207 149.667 115.067 160.121C118.4 151.235 121.645 144.789 126.03 138.517L129.45 136.514Z" fill="black"/>
<g clip-path="url(#clip1_1683_65222)">
<path d="M188.632 49.1455C187.983 49.1164 187.474 48.5604 187.504 47.9107L187.531 47.3105C187.56 46.6609 188.116 46.1527 188.765 46.1819L190.207 46.2466L190.316 43.8274L199.327 44.2321L199.219 46.6514L200.391 46.704C201.041 46.7332 201.549 47.2892 201.52 47.9389L201.493 48.539C201.464 49.1887 200.908 49.6969 200.258 49.6677L199.086 49.615L199.054 50.3142L199.818 50.3485C200.468 50.3777 200.976 50.9337 200.947 51.5833L200.916 52.2733C200.887 52.9229 200.331 53.4311 199.681 53.4019L198.917 53.3676L198.886 54.0668C199.445 54.1136 199.879 54.5826 199.854 55.1487L199.815 56.0149C199.789 56.5934 199.294 57.0424 198.719 57.0165L198.574 57.01C198.143 58.119 197.075 58.8956 195.823 58.8393L192.5 58.6901C191.247 58.6338 190.254 57.7647 189.924 56.6215L189.779 56.615C189.2 56.589 188.751 56.0945 188.777 55.5191L188.816 54.6529C188.841 54.0899 189.316 53.6586 189.877 53.6621L189.908 52.963L188.467 52.8982C187.817 52.869 187.309 52.3131 187.338 51.6634L187.369 50.9735C187.398 50.3238 187.954 49.8156 188.604 49.8448L190.046 49.9096L190.077 49.2104L188.632 49.1455Z" fill="#482D5D"/>
<path d="M199.329 56.7873C199.146 56.9093 198.949 57.0214 198.717 57.0109L198.572 57.0044C198.141 58.1134 197.074 58.89 195.821 58.8337L192.498 58.6845C191.245 58.6282 190.252 57.7591 189.922 56.6159L189.777 56.6094C189.198 56.5834 188.749 56.0889 188.775 55.5135L188.814 54.6473C188.839 54.0843 189.314 53.653 189.875 53.6565L189.907 52.9574L188.465 52.8926C187.815 52.8634 187.307 52.3074 187.336 51.6578L187.367 50.9679C187.396 50.3183 187.952 49.81 188.602 49.8392L190.044 49.904L190.075 49.2048L188.633 49.14C187.984 49.1109 187.476 48.5549 187.505 47.9052L187.532 47.305C187.561 46.6554 188.117 46.1472 188.767 46.1764L190.208 46.2411L190.317 43.8219C189.5 51.9285 196.069 55.5156 199.329 56.7873Z" fill="#3E1B40"/>
<path d="M181.199 28.6191C179.777 20.402 185.286 12.5884 193.503 11.1668C201.72 9.74533 209.534 15.2542 210.955 23.4713C212.377 31.6884 206.868 39.502 198.651 40.9235C190.434 42.345 182.62 36.8361 181.199 28.6191Z" fill="#FCD89A"/>
<path d="M190.377 44.7944L198.634 45.1653C199.642 45.2106 200.496 44.4306 200.541 43.4221L200.813 37.3555L188.909 36.8208L188.637 42.8874C188.591 43.8959 189.372 44.7493 190.377 44.7944Z" fill="#FCD89A"/>
<path d="M180.969 25.3681C181.343 17.037 188.4 10.587 196.731 10.9612C205.062 11.3353 211.512 18.392 211.138 26.7231C210.847 33.195 206.502 38.4866 200.683 40.3703L200.57 42.8947C200.511 44.194 199.409 45.2015 198.11 45.1432L190.911 44.8198C189.611 44.7615 188.604 43.6592 188.662 42.3598L188.803 39.226C183.93 36.5396 180.702 31.3016 180.969 25.3681Z" fill="#FFCD19"/>
<path d="M203.602 26.383C203.459 29.5756 204.818 32.2282 206.64 32.31C208.462 32.3918 210.054 29.8719 210.197 26.6793C210.341 23.4867 208.981 20.8341 207.159 20.7523C205.34 20.6706 203.745 23.1935 203.602 26.383Z" fill="#FFF1DA"/>
<path d="M180.97 25.3672C181.06 23.3656 181.554 21.4814 182.341 19.7653C180.985 36.8932 196.244 40.7931 200.628 41.5479L200.567 42.8905C200.509 44.1899 199.407 45.1974 198.108 45.139L190.909 44.8157C189.609 44.7573 188.602 43.655 188.66 42.3557L188.801 39.2219C183.931 36.5388 180.703 31.3008 180.97 25.3672Z" fill="#EDA018"/>
</g>
<defs>
<linearGradient id="paint0_linear_1683_65222" x1="192.996" y1="93.376" x2="194.268" y2="65.0725" gradientUnits="userSpaceOnUse">
<stop offset="0.0159875" stop-color="#FFAE78"/>
<stop offset="1" stop-color="#FF957C"/>
</linearGradient>
<linearGradient id="paint1_linear_1683_65222" x1="185.802" y1="123.998" x2="187.472" y2="86.8024" gradientUnits="userSpaceOnUse">
<stop offset="0.0159875" stop-color="#FFAE78"/>
<stop offset="1" stop-color="#FF957C"/>
</linearGradient>
<linearGradient id="paint2_linear_1683_65222" x1="187.605" y1="93.6919" x2="188.07" y2="83.3511" gradientUnits="userSpaceOnUse">
<stop offset="0.0159875" stop-color="#FFAE78"/>
<stop offset="1" stop-color="#FF957C"/>
</linearGradient>
<linearGradient id="paint3_linear_1683_65222" x1="187.865" y1="95.9547" x2="188.29" y2="86.4847" gradientUnits="userSpaceOnUse">
<stop offset="0.0159875" stop-color="#FFAE78"/>
<stop offset="1" stop-color="#FF957C"/>
</linearGradient>
<linearGradient id="paint4_linear_1683_65222" x1="188.656" y1="100.769" x2="189.081" y2="91.2992" gradientUnits="userSpaceOnUse">
<stop offset="0.0159875" stop-color="#FFAE78"/>
<stop offset="1" stop-color="#FF957C"/>
</linearGradient>
<linearGradient id="paint5_linear_1683_65222" x1="108.434" y1="134.474" x2="127.37" y2="37.2202" gradientUnits="userSpaceOnUse">
<stop offset="0.0111732" stop-color="#512438"/>
<stop offset="0.9944" stop-color="#832E31"/>
</linearGradient>
<linearGradient id="paint6_linear_1683_65222" x1="112.117" y1="133.521" x2="121.533" y2="9.07812" gradientUnits="userSpaceOnUse">
<stop offset="0.0111732" stop-color="#772438"/>
<stop offset="0.9944" stop-color="#994540"/>
</linearGradient>
<radialGradient id="paint7_radial_1683_65222" cx="0" cy="0" r="1" gradientUnits="userSpaceOnUse" gradientTransform="translate(83.6353 272.734) scale(23.259 23.1031)">
<stop stop-color="#6D47D3"/>
<stop offset="0.9944" stop-color="#713592"/>
</radialGradient>
<linearGradient id="paint8_linear_1683_65222" x1="89.2758" y1="45.9235" x2="89.2758" y2="4.90991" gradientUnits="userSpaceOnUse">
<stop offset="0.0111732" stop-color="#772438"/>
<stop offset="0.9944" stop-color="#994540"/>
</linearGradient>
<linearGradient id="paint9_linear_1683_65222" x1="84.0025" y1="46.1773" x2="75.8765" y2="17.2493" gradientUnits="userSpaceOnUse">
<stop offset="0.0111732" stop-color="#B45E52"/>
<stop offset="0.9944" stop-color="#C16140"/>
</linearGradient>
<radialGradient id="paint10_radial_1683_65222" cx="0" cy="0" r="1" gradientUnits="userSpaceOnUse" gradientTransform="translate(176.226 141.522) scale(3.28949 3.26743)">
<stop stop-color="#B3819D"/>
<stop offset="1" stop-color="#785CA6"/>
</radialGradient>
<linearGradient id="paint11_linear_1683_65222" x1="15.8585" y1="226.796" x2="15.8585" y2="203.025" gradientUnits="userSpaceOnUse">
<stop offset="0.0159875" stop-color="#FFAE78"/>
<stop offset="1" stop-color="#FF957C"/>
</linearGradient>
<linearGradient id="paint12_linear_1683_65222" x1="16.7411" y1="238.404" x2="16.7411" y2="221.869" gradientUnits="userSpaceOnUse">
<stop offset="0.0159875" stop-color="#FFAE78"/>
<stop offset="1" stop-color="#FF957C"/>
</linearGradient>
<linearGradient id="paint13_linear_1683_65222" x1="107.385" y1="112.785" x2="107.385" y2="77.5332" gradientUnits="userSpaceOnUse">
<stop offset="0.0215741" stop-color="#FF8359"/>
<stop offset="1" stop-color="#FF8B7C"/>
</linearGradient>
<linearGradient id="paint14_linear_1683_65222" x1="113.115" y1="87.0062" x2="102.134" y2="12.152" gradientUnits="userSpaceOnUse">
<stop offset="0.0159875" stop-color="#FFAE78"/>
<stop offset="1" stop-color="#FF957C"/>
</linearGradient>
<linearGradient id="paint15_linear_1683_65222" x1="136.994" y1="70.6194" x2="136.994" y2="50.2648" gradientUnits="userSpaceOnUse">
<stop offset="0.0215741" stop-color="#FF8359"/>
<stop offset="1" stop-color="#FF8B7C"/>
</linearGradient>
<linearGradient id="paint16_linear_1683_65222" x1="99.9866" y1="123.456" x2="99.9866" y2="106.887" gradientUnits="userSpaceOnUse">
<stop stop-color="#EDE3FC"/>
<stop offset="1" stop-color="white"/>
</linearGradient>
<linearGradient id="paint17_linear_1683_65222" x1="102.706" y1="145.383" x2="102.706" y2="92.7991" gradientUnits="userSpaceOnUse">
<stop stop-color="#EDE3FC"/>
<stop offset="1" stop-color="white"/>
</linearGradient>
<linearGradient id="paint18_linear_1683_65222" x1="105.879" y1="127.011" x2="105.879" y2="94.3968" gradientUnits="userSpaceOnUse">
<stop stop-color="#EDE3FC"/>
<stop offset="1" stop-color="white"/>
</linearGradient>
<linearGradient id="paint19_linear_1683_65222" x1="113.055" y1="33.0251" x2="113.055" y2="21.6494" gradientUnits="userSpaceOnUse">
<stop offset="0.0111732" stop-color="#772438"/>
<stop offset="0.9944" stop-color="#994540"/>
</linearGradient>
<linearGradient id="paint20_linear_1683_65222" x1="85.7853" y1="41.3952" x2="85.7853" y2="30.4799" gradientUnits="userSpaceOnUse">
<stop offset="0.0111732" stop-color="#772438"/>
<stop offset="0.9944" stop-color="#994540"/>
</linearGradient>
<linearGradient id="paint21_linear_1683_65222" x1="115.111" y1="54.4774" x2="115.111" y2="37.0882" gradientUnits="userSpaceOnUse">
<stop stop-color="#E1DBFB"/>
<stop offset="1" stop-color="white"/>
</linearGradient>
<linearGradient id="paint22_linear_1683_65222" x1="87.2851" y1="56.6721" x2="87.2851" y2="40.2508" gradientUnits="userSpaceOnUse">
<stop stop-color="#E1DBFB"/>
<stop offset="1" stop-color="white"/>
</linearGradient>
<linearGradient id="paint23_linear_1683_65222" x1="116.534" y1="38.9355" x2="112.486" y2="2.25058" gradientUnits="userSpaceOnUse">
<stop offset="0.0111732" stop-color="#512438"/>
<stop offset="0.9944" stop-color="#6D1D20"/>
</linearGradient>
<linearGradient id="paint24_linear_1683_65222" x1="116.913" y1="50.2502" x2="116.913" y2="35.2538" gradientUnits="userSpaceOnUse">
<stop stop-color="#403060"/>
<stop offset="0.9944" stop-color="#2A0E51"/>
</linearGradient>
<linearGradient id="paint25_linear_1683_65222" x1="116.113" y1="51.9625" x2="116.113" y2="39.4203" gradientUnits="userSpaceOnUse">
<stop offset="0.0223464" stop-color="#85757A"/>
<stop offset="0.9944" stop-color="#563757"/>
</linearGradient>
<linearGradient id="paint26_linear_1683_65222" x1="115.975" y1="50.0654" x2="115.975" y2="41.5065" gradientUnits="userSpaceOnUse">
<stop stop-color="#403060"/>
<stop offset="0.9944" stop-color="#2A0E51"/>
</linearGradient>
<linearGradient id="paint27_linear_1683_65222" x1="88.3201" y1="54.7574" x2="88.3201" y2="42.2152" gradientUnits="userSpaceOnUse">
<stop offset="0.0223464" stop-color="#85757A"/>
<stop offset="0.9944" stop-color="#563757"/>
</linearGradient>
<linearGradient id="paint28_linear_1683_65222" x1="86.6349" y1="48.468" x2="91.5656" y2="48.468" gradientUnits="userSpaceOnUse">
<stop stop-color="#382160"/>
<stop offset="0.9944" stop-color="#2A0E51"/>
</linearGradient>
<linearGradient id="paint29_linear_1683_65222" x1="85.7128" y1="50.2644" x2="85.7128" y2="38.9154" gradientUnits="userSpaceOnUse">
<stop stop-color="#403060"/>
<stop offset="0.9944" stop-color="#2A0E51"/>
</linearGradient>
<linearGradient id="paint30_linear_1683_65222" x1="99.093" y1="73.1483" x2="99.093" y2="65.0312" gradientUnits="userSpaceOnUse">
<stop stop-color="#E76C42"/>
<stop offset="0.9944" stop-color="#AE2545"/>
</linearGradient>
<linearGradient id="paint31_linear_1683_65222" x1="99.3247" y1="69.6793" x2="99.3247" y2="64.2598" gradientUnits="userSpaceOnUse">
<stop stop-color="#A12F42"/>
<stop offset="0.9944" stop-color="#811945"/>
</linearGradient>
<linearGradient id="paint32_linear_1683_65222" x1="126.107" y1="41.7476" x2="126.107" y2="2.73476" gradientUnits="userSpaceOnUse">
<stop offset="0.0111732" stop-color="#772438"/>
<stop offset="0.9944" stop-color="#994540"/>
</linearGradient>
<linearGradient id="paint33_linear_1683_65222" x1="125.43" y1="45.4163" x2="114.992" y2="3.4274" gradientUnits="userSpaceOnUse">
<stop offset="0.0111732" stop-color="#B45E52"/>
<stop offset="0.9944" stop-color="#C16140"/>
</linearGradient>
<linearGradient id="paint34_linear_1683_65222" x1="106.3" y1="20.2231" x2="103.527" y2="2.21341" gradientUnits="userSpaceOnUse">
<stop offset="0.0111732" stop-color="#B45E52"/>
<stop offset="0.9944" stop-color="#C16140"/>
</linearGradient>
<radialGradient id="paint35_radial_1683_65222" cx="0" cy="0" r="1" gradientUnits="userSpaceOnUse" gradientTransform="translate(52.3702 230.076) scale(7.22686 7.17844)">
<stop stop-color="#6D47D3"/>
<stop offset="0.9944" stop-color="#713592"/>
</radialGradient>
<linearGradient id="paint36_linear_1683_65222" x1="78.9558" y1="290.554" x2="85.0955" y2="290.554" gradientUnits="userSpaceOnUse">
<stop offset="0.0111732" stop-color="#C695C7"/>
<stop offset="1" stop-color="#8E81F4"/>
</linearGradient>
<linearGradient id="paint37_linear_1683_65222" x1="146.985" y1="165.051" x2="146.985" y2="143.453" gradientUnits="userSpaceOnUse">
<stop stop-color="#5B4365"/>
<stop offset="0.9777" stop-color="#70517C"/>
</linearGradient>
<linearGradient id="paint38_linear_1683_65222" x1="171.877" y1="152.958" x2="171.877" y2="125.002" gradientUnits="userSpaceOnUse">
<stop stop-color="#5B4365"/>
<stop offset="0.9777" stop-color="#70517C"/>
</linearGradient>
<linearGradient id="paint39_linear_1683_65222" x1="75.7247" y1="302.529" x2="75.7247" y2="230.132" gradientUnits="userSpaceOnUse">
<stop stop-color="#8E81F4"/>
<stop offset="0.9888" stop-color="#D295AB"/>
</linearGradient>
<linearGradient id="paint40_linear_1683_65222" x1="52.569" y1="263.825" x2="52.569" y2="234.688" gradientUnits="userSpaceOnUse">
<stop offset="0.0111732" stop-color="#C695C7"/>
<stop offset="1" stop-color="#8E81F4"/>
</linearGradient>
<linearGradient id="paint41_linear_1683_65222" x1="92.6566" y1="226.062" x2="118.864" y2="226.062" gradientUnits="userSpaceOnUse">
<stop offset="0.0111732" stop-color="#C695C7"/>
<stop offset="1" stop-color="#8E81F4"/>
</linearGradient>
<radialGradient id="paint42_radial_1683_65222" cx="0" cy="0" r="1" gradientUnits="userSpaceOnUse" gradientTransform="translate(106.899 229.562) scale(11.8766 11.797)">
<stop stop-color="#6D47D3"/>
<stop offset="0.9944" stop-color="#713592"/>
</radialGradient>
<linearGradient id="paint43_linear_1683_65222" x1="76.4048" y1="159.403" x2="105.693" y2="159.403" gradientUnits="userSpaceOnUse">
<stop offset="0.0111732" stop-color="#C695C7"/>
<stop offset="1" stop-color="#8E81F4"/>
</linearGradient>
<radialGradient id="paint44_radial_1683_65222" cx="0" cy="0" r="1" gradientUnits="userSpaceOnUse" gradientTransform="translate(83.6353 272.734) scale(23.259 23.1031)">
<stop stop-color="#6D47D3"/>
<stop offset="0.9944" stop-color="#713592"/>
</radialGradient>
<linearGradient id="paint45_linear_1683_65222" x1="89.2758" y1="45.9235" x2="89.2758" y2="4.90991" gradientUnits="userSpaceOnUse">
<stop offset="0.0111732" stop-color="#772438"/>
<stop offset="0.9944" stop-color="#994540"/>
</linearGradient>
<linearGradient id="paint46_linear_1683_65222" x1="84.0025" y1="46.1773" x2="75.8765" y2="17.2493" gradientUnits="userSpaceOnUse">
<stop offset="0.0111732" stop-color="#B45E52"/>
<stop offset="0.9944" stop-color="#C16140"/>
</linearGradient>
<radialGradient id="paint47_radial_1683_65222" cx="0" cy="0" r="1" gradientUnits="userSpaceOnUse" gradientTransform="translate(176.226 141.522) scale(3.28949 3.26743)">
<stop stop-color="#B3819D"/>
<stop offset="1" stop-color="#785CA6"/>
</radialGradient>
<linearGradient id="paint48_linear_1683_65222" x1="15.8585" y1="226.796" x2="15.8585" y2="203.025" gradientUnits="userSpaceOnUse">
<stop offset="0.0159875" stop-color="#FFAE78"/>
<stop offset="1" stop-color="#FF957C"/>
</linearGradient>
<linearGradient id="paint49_linear_1683_65222" x1="16.7411" y1="238.404" x2="16.7411" y2="221.869" gradientUnits="userSpaceOnUse">
<stop offset="0.0159875" stop-color="#FFAE78"/>
<stop offset="1" stop-color="#FF957C"/>
</linearGradient>
<linearGradient id="paint50_linear_1683_65222" x1="107.385" y1="112.785" x2="107.385" y2="77.5332" gradientUnits="userSpaceOnUse">
<stop offset="0.0215741" stop-color="#FF8359"/>
<stop offset="1" stop-color="#FF8B7C"/>
</linearGradient>
<linearGradient id="paint51_linear_1683_65222" x1="113.115" y1="87.0062" x2="102.134" y2="12.152" gradientUnits="userSpaceOnUse">
<stop offset="0.0159875" stop-color="#FFAE78"/>
<stop offset="1" stop-color="#FF957C"/>
</linearGradient>
<linearGradient id="paint52_linear_1683_65222" x1="136.994" y1="70.6194" x2="136.994" y2="50.2648" gradientUnits="userSpaceOnUse">
<stop offset="0.0215741" stop-color="#FF8359"/>
<stop offset="1" stop-color="#FF8B7C"/>
</linearGradient>
<linearGradient id="paint53_linear_1683_65222" x1="99.9866" y1="123.456" x2="99.9866" y2="106.887" gradientUnits="userSpaceOnUse">
<stop stop-color="#EDE3FC"/>
<stop offset="1" stop-color="white"/>
</linearGradient>
<linearGradient id="paint54_linear_1683_65222" x1="102.706" y1="145.383" x2="102.706" y2="92.7991" gradientUnits="userSpaceOnUse">
<stop stop-color="#EDE3FC"/>
<stop offset="1" stop-color="white"/>
</linearGradient>
<linearGradient id="paint55_linear_1683_65222" x1="105.879" y1="127.011" x2="105.879" y2="94.3968" gradientUnits="userSpaceOnUse">
<stop stop-color="#EDE3FC"/>
<stop offset="1" stop-color="white"/>
</linearGradient>
<linearGradient id="paint56_linear_1683_65222" x1="113.055" y1="33.0251" x2="113.055" y2="21.6494" gradientUnits="userSpaceOnUse">
<stop offset="0.0111732" stop-color="#772438"/>
<stop offset="0.9944" stop-color="#994540"/>
</linearGradient>
<linearGradient id="paint57_linear_1683_65222" x1="85.7853" y1="41.3952" x2="85.7853" y2="30.4799" gradientUnits="userSpaceOnUse">
<stop offset="0.0111732" stop-color="#772438"/>
<stop offset="0.9944" stop-color="#994540"/>
</linearGradient>
<linearGradient id="paint58_linear_1683_65222" x1="115.111" y1="54.4774" x2="115.111" y2="37.0882" gradientUnits="userSpaceOnUse">
<stop stop-color="#E1DBFB"/>
<stop offset="1" stop-color="white"/>
</linearGradient>
<linearGradient id="paint59_linear_1683_65222" x1="87.2851" y1="56.6721" x2="87.2851" y2="40.2508" gradientUnits="userSpaceOnUse">
<stop stop-color="#E1DBFB"/>
<stop offset="1" stop-color="white"/>
</linearGradient>
<linearGradient id="paint60_linear_1683_65222" x1="116.534" y1="38.9355" x2="112.486" y2="2.25058" gradientUnits="userSpaceOnUse">
<stop offset="0.0111732" stop-color="#512438"/>
<stop offset="0.9944" stop-color="#6D1D20"/>
</linearGradient>
<linearGradient id="paint61_linear_1683_65222" x1="116.913" y1="50.2502" x2="116.913" y2="35.2538" gradientUnits="userSpaceOnUse">
<stop stop-color="#403060"/>
<stop offset="0.9944" stop-color="#2A0E51"/>
</linearGradient>
<linearGradient id="paint62_linear_1683_65222" x1="116.113" y1="51.9625" x2="116.113" y2="39.4203" gradientUnits="userSpaceOnUse">
<stop offset="0.0223464" stop-color="#85757A"/>
<stop offset="0.9944" stop-color="#563757"/>
</linearGradient>
<linearGradient id="paint63_linear_1683_65222" x1="115.975" y1="50.0654" x2="115.975" y2="41.5065" gradientUnits="userSpaceOnUse">
<stop stop-color="#403060"/>
<stop offset="0.9944" stop-color="#2A0E51"/>
</linearGradient>
<linearGradient id="paint64_linear_1683_65222" x1="88.3201" y1="54.7574" x2="88.3201" y2="42.2152" gradientUnits="userSpaceOnUse">
<stop offset="0.0223464" stop-color="#85757A"/>
<stop offset="0.9944" stop-color="#563757"/>
</linearGradient>
<linearGradient id="paint65_linear_1683_65222" x1="86.6349" y1="48.468" x2="91.5656" y2="48.468" gradientUnits="userSpaceOnUse">
<stop stop-color="#382160"/>
<stop offset="0.9944" stop-color="#2A0E51"/>
</linearGradient>
<linearGradient id="paint66_linear_1683_65222" x1="85.7128" y1="50.2644" x2="85.7128" y2="38.9154" gradientUnits="userSpaceOnUse">
<stop stop-color="#403060"/>
<stop offset="0.9944" stop-color="#2A0E51"/>
</linearGradient>
<linearGradient id="paint67_linear_1683_65222" x1="99.093" y1="73.1483" x2="99.093" y2="65.0312" gradientUnits="userSpaceOnUse">
<stop stop-color="#E76C42"/>
<stop offset="0.9944" stop-color="#AE2545"/>
</linearGradient>
<linearGradient id="paint68_linear_1683_65222" x1="99.3247" y1="69.6793" x2="99.3247" y2="64.2598" gradientUnits="userSpaceOnUse">
<stop stop-color="#A12F42"/>
<stop offset="0.9944" stop-color="#811945"/>
</linearGradient>
<linearGradient id="paint69_linear_1683_65222" x1="126.107" y1="41.7476" x2="126.107" y2="2.73476" gradientUnits="userSpaceOnUse">
<stop offset="0.0111732" stop-color="#772438"/>
<stop offset="0.9944" stop-color="#994540"/>
</linearGradient>
<linearGradient id="paint70_linear_1683_65222" x1="125.43" y1="45.4163" x2="114.992" y2="3.4274" gradientUnits="userSpaceOnUse">
<stop offset="0.0111732" stop-color="#B45E52"/>
<stop offset="0.9944" stop-color="#C16140"/>
</linearGradient>
<linearGradient id="paint71_linear_1683_65222" x1="106.3" y1="20.2231" x2="103.527" y2="2.21341" gradientUnits="userSpaceOnUse">
<stop offset="0.0111732" stop-color="#B45E52"/>
<stop offset="0.9944" stop-color="#C16140"/>
</linearGradient>
<radialGradient id="paint72_radial_1683_65222" cx="0" cy="0" r="1" gradientUnits="userSpaceOnUse" gradientTransform="translate(52.3702 230.076) scale(7.22686 7.17844)">
<stop stop-color="#6D47D3"/>
<stop offset="0.9944" stop-color="#713592"/>
</radialGradient>
<linearGradient id="paint73_linear_1683_65222" x1="78.9558" y1="290.554" x2="85.0955" y2="290.554" gradientUnits="userSpaceOnUse">
<stop offset="0.0111732" stop-color="#C695C7"/>
<stop offset="1" stop-color="#8E81F4"/>
</linearGradient>
<linearGradient id="paint74_linear_1683_65222" x1="146.985" y1="165.051" x2="146.985" y2="143.453" gradientUnits="userSpaceOnUse">
<stop stop-color="#5B4365"/>
<stop offset="0.9777" stop-color="#70517C"/>
</linearGradient>
<linearGradient id="paint75_linear_1683_65222" x1="171.877" y1="152.958" x2="171.877" y2="125.002" gradientUnits="userSpaceOnUse">
<stop stop-color="#5B4365"/>
<stop offset="0.9777" stop-color="#70517C"/>
</linearGradient>
<linearGradient id="paint76_linear_1683_65222" x1="75.7247" y1="302.529" x2="75.7247" y2="230.132" gradientUnits="userSpaceOnUse">
<stop stop-color="#8E81F4"/>
<stop offset="0.9888" stop-color="#D295AB"/>
</linearGradient>
<linearGradient id="paint77_linear_1683_65222" x1="52.569" y1="263.825" x2="52.569" y2="234.688" gradientUnits="userSpaceOnUse">
<stop offset="0.0111732" stop-color="#C695C7"/>
<stop offset="1" stop-color="#8E81F4"/>
</linearGradient>
<linearGradient id="paint78_linear_1683_65222" x1="92.6566" y1="226.062" x2="118.864" y2="226.062" gradientUnits="userSpaceOnUse">
<stop offset="0.0111732" stop-color="#C695C7"/>
<stop offset="1" stop-color="#8E81F4"/>
</linearGradient>
<radialGradient id="paint79_radial_1683_65222" cx="0" cy="0" r="1" gradientUnits="userSpaceOnUse" gradientTransform="translate(106.899 229.562) scale(11.8766 11.797)">
<stop stop-color="#6D47D3"/>
<stop offset="0.9944" stop-color="#713592"/>
</radialGradient>
<linearGradient id="paint80_linear_1683_65222" x1="76.4048" y1="159.403" x2="105.693" y2="159.403" gradientUnits="userSpaceOnUse">
<stop offset="0.0111732" stop-color="#C695C7"/>
<stop offset="1" stop-color="#8E81F4"/>
</linearGradient>
<clipPath id="clip0_1683_65222">
<rect width="40.674" height="45.5142" fill="white" transform="matrix(-0.998993 -0.0448699 -0.0448699 0.998993 184.35 118.654)"/>
</clipPath>
<clipPath id="clip1_1683_65222">
<rect width="42.3968" height="55.6592" fill="white" transform="matrix(-0.998993 -0.0448699 -0.0448699 0.998993 214.854 8.88281)"/>
</clipPath>
</defs>
</svg>
