<svg width="115" height="54" viewBox="0 0 115 54" fill="none" xmlns="http://www.w3.org/2000/svg">
<g clip-path="url(#clip0_1434_6086)">
<circle cx="23.4998" cy="30.7498" r="23.2498" fill="url(#paint0_linear_1434_6086)"/>
<mask id="mask0_1434_6086" style="mask-type:alpha" maskUnits="userSpaceOnUse" x="0" y="7" width="47" height="47">
<circle cx="23.4998" cy="30.7498" r="23.2498" fill="#C4C4C4"/>
</mask>
<g mask="url(#mask0_1434_6086)">
<path fill-rule="evenodd" clip-rule="evenodd" d="M10.8795 34.7204C10.8795 34.7204 9.73829 41.9956 7.87766 44.6345C6.46358 46.6567 5.79376 49.3942 4.65258 51.7371C4.25564 52.5756 3.78429 53.3647 3.18889 54.0553C0.782482 56.9161 -2.4178 61.3305 -2.4178 61.3305C-4.82421 60.9853 -6.23828 57.6312 -6.23828 57.6312C-4.45208 53.1428 -0.730831 47.5692 1.52673 45.2757C3.61063 43.1794 5.09913 39.4308 6.06665 36.6933C6.16589 36.4467 6.24031 36.2001 6.31474 35.9535C7.25745 33.1667 8.47307 31.761 8.47307 31.761C9.11808 31.613 10.8795 34.7204 10.8795 34.7204Z" fill="#321833"/>
<path fill-rule="evenodd" clip-rule="evenodd" d="M10.8815 34.7204C10.8815 34.7204 9.74028 41.9956 7.87965 44.6345C6.46558 46.6567 5.79575 49.3942 4.65457 51.7371L1.50391 52.5263C1.50391 52.5263 3.2653 49.0489 3.8359 46.5334C4.40649 44.0179 5.99423 36.9646 5.99423 36.9646L6.04385 36.6933C6.14308 36.4467 6.2175 36.2001 6.29193 35.9535C7.23465 33.1667 8.45024 31.761 8.45024 31.761C9.12007 31.613 10.8815 34.7204 10.8815 34.7204Z" fill="#321833"/>
<path fill-rule="evenodd" clip-rule="evenodd" d="M31.8933 32.1312C31.9181 32.3778 31.9429 32.5998 31.9429 32.7724C31.9677 33.6356 31.5459 35.1646 31.025 36.669C30.3551 38.5926 29.5365 40.4422 29.4372 40.6642C29.4869 40.5162 29.7846 39.5544 29.4372 37.9267C29.0403 36.1511 24.9469 33.2656 23.8057 29.8623C23.5825 29.1718 23.508 28.3086 23.5577 27.3714C23.6569 25.2999 24.2523 22.735 24.7485 20.3182L24.7981 20.0469C25.1454 18.2712 25.4183 16.5696 25.3687 15.1885C25.2198 10.922 26.7331 8.06123 26.7331 8.06123L28.3953 7.78995C28.3953 7.78995 30.2311 7.12408 31.4715 8.06123C32.4639 8.82575 32.6375 12.4757 31.4715 18.3945C30.38 23.7708 31.5956 29.5417 31.8933 32.1312Z" fill="url(#paint1_linear_1434_6086)"/>
<path fill-rule="evenodd" clip-rule="evenodd" d="M17.1349 1.20312C17.1349 1.20312 15.9193 3.32404 13.7362 4.18721C11.5531 5.05037 10.2134 5.69158 9.84127 7.88648C9.46915 10.0814 11.1809 12.2023 11.9748 12.7695C12.7935 13.3121 14.927 9.07025 14.927 9.07025L18.1769 3.17607L17.4574 2.31291L17.1349 1.20312Z" fill="url(#paint2_linear_1434_6086)"/>
<path fill-rule="evenodd" clip-rule="evenodd" d="M14.6287 3.74414C14.6287 3.74414 14.3559 4.23738 12.7433 5.51979C10.8579 6.9995 10.1632 12.2278 13.2395 13.5596C13.2395 13.5596 10.3369 12.8937 9.51823 9.81095C8.74917 6.9995 11.7014 5.93904 14.6287 3.74414Z" fill="url(#paint3_linear_1434_6086)"/>
<path fill-rule="evenodd" clip-rule="evenodd" d="M39.1898 38.7871C39.1898 38.7871 39.5124 40.2175 38.9914 40.982L37.875 39.8722L39.1898 38.7871Z" fill="url(#paint4_radial_1434_6086)"/>
<path fill-rule="evenodd" clip-rule="evenodd" d="M-13.3555 64.5119C-13.3555 64.5119 -11.7677 51.959 -9.8823 45.3496C-9.8823 45.3496 4.4073 47.6432 11.5273 49.4435L9.31935 68.2111L-13.3555 64.5119Z" fill="url(#paint5_linear_1434_6086)"/>
<path d="M37.1328 24.8558V26.7548L39.8121 28.999L42.0201 28.8264L42.9876 28.4811C42.9876 28.4811 43.9055 27.174 43.9799 26.9027C44.0543 26.6315 43.9799 26.0642 43.9799 26.0642L40.3579 24.1406L37.1328 24.8558Z" fill="#F17C57"/>
<path d="M37.3281 24.6347C37.3281 24.6347 38.1716 22.0945 38.2957 21.2313C38.4197 20.3682 39.1639 17.4581 39.4616 16.9155C39.4616 16.9155 40.0322 16.8415 40.3796 17.3841C40.7269 17.902 40.4044 20.3682 39.5857 21.5273C39.5857 21.5273 39.288 23.0563 39.3128 24.1168L37.3281 24.6347Z" fill="url(#paint6_linear_1434_6086)"/>
<path d="M23.1891 21.7734C23.1891 21.7734 22.4696 24.4123 22.6185 26.0646L23.1891 26.4345C23.1891 26.4345 21.4277 30.5284 18.7732 31.4409C16.1187 32.3534 14.3573 31.2682 15.3 28.8021C15.3 28.8021 17.8553 27.8649 18.3266 26.9524C18.798 26.0153 18.7484 23.845 18.7484 23.845L23.1891 21.7734Z" fill="url(#paint7_linear_1434_6086)"/>
<path fill-rule="evenodd" clip-rule="evenodd" d="M-0.902344 46.9043V66.4858L1.10713 66.8804L8.57443 48.7786L-0.902344 46.9043Z" fill="url(#paint8_linear_1434_6086)"/>
<path d="M26.9099 11.2918C26.9099 11.2918 26.761 16.6434 24.7019 19.9728C24.4538 20.3674 24.1809 20.7373 23.8832 21.0826C21.6257 23.5241 18.3262 24.3379 17.0113 24.2639C15.6965 24.19 15.3492 23.7707 14.8778 23.3515C14.4313 22.9569 11.4791 21.5511 10.7596 19.4549C10.0898 17.5066 11.5039 15.4104 11.876 14.2266C11.9008 14.1279 11.9256 14.054 11.9504 13.98C12.1489 12.8702 11.5783 10.2314 11.9504 8.18443C12.3226 6.1375 15.2747 3.30139 18.1773 3.15342C24.4538 2.83282 26.9099 11.2918 26.9099 11.2918Z" fill="url(#paint9_linear_1434_6086)"/>
<path d="M26.4356 15.1386C26.4356 15.1386 26.907 14.3741 28.3211 14.0782C28.3211 14.0782 29.3382 13.9302 29.6111 15.114C29.6111 15.114 29.7351 17.2842 28.7676 18.542C27.8001 19.8244 26.1131 19.8984 25.7162 19.7997C25.3192 19.7011 25.3441 18.7886 25.3441 18.7886C25.3441 18.7886 25.9643 15.7305 26.4356 15.1386Z" fill="url(#paint10_linear_1434_6086)"/>
<path d="M35.1445 37.2616C35.1445 37.2616 37.7246 33.6117 37.8238 32.5759C37.9231 31.5154 36.2361 29.9617 35.864 28.7779C35.6159 27.9641 36.509 24.5361 36.633 24.2895C36.7571 24.0429 38.32 23.6236 38.9402 23.451C39.5604 23.2537 40.4535 22.8591 40.652 23.0071C40.8504 23.1797 40.5031 24.6348 39.4612 25.128C38.4936 25.5719 37.9231 25.5226 37.9231 25.5226L37.6502 26.6817C37.6502 26.6817 38.6425 26.9283 39.2875 27.5942C39.9077 28.26 41.1729 28.482 42.066 28.5067C42.9591 28.5313 44.0011 26.9036 44.0011 26.9036C44.0011 26.9036 43.232 30.3316 42.1157 31.762C42.1157 31.762 41.1481 32.7978 40.6024 32.9211C40.6024 32.9211 38.8162 40.0731 36.3849 44.2902L35.1445 37.2616Z" fill="url(#paint11_linear_1434_6086)"/>
<path d="M40.1553 23.5723C40.1553 23.5723 40.7259 23.6956 41.3213 24.1395V24.6081C41.3213 24.6081 42.4625 24.756 42.785 25.126V25.4712C42.785 25.4712 43.4797 25.5945 43.951 26.0631C43.951 26.0631 43.5293 27.4935 42.785 28.0114C42.785 28.0114 42.2392 27.9867 41.7927 27.6168L41.495 27.9127C41.495 27.9127 40.5771 28.0607 40.5275 27.3209L40.8252 26.2851C40.8252 26.2851 40.453 26.729 40.2794 26.7783C40.1305 26.8523 39.4607 26.655 39.4359 26.1618C39.3863 25.6685 40.1553 23.5723 40.1553 23.5723Z" fill="url(#paint12_linear_1434_6086)"/>
<path fill-rule="evenodd" clip-rule="evenodd" d="M15.4343 30.0879C15.4343 30.0879 16.0745 31.7522 19.489 30.2927L14.9808 34.7736L14.5273 33.5702L15.4343 30.0879Z" fill="#FFDED6"/>
<path fill-rule="evenodd" clip-rule="evenodd" d="M24.7006 27.6423C24.7006 27.6423 24.1796 28.1602 23.361 28.9247C22.6911 29.5659 21.8228 30.4044 20.9297 31.2676L20.9049 31.2923C18.9202 33.1912 16.7619 35.2628 16.0425 35.9287C14.6036 37.2604 12.5445 40.9844 12.5445 40.9844C12.5445 40.9844 11.1304 38.7648 10.932 37.8277C10.7335 36.8905 10.932 30.4538 10.932 30.4538C10.932 30.4538 12.5445 29.8619 13.9338 29.122C14.8269 28.6288 15.8688 28.0122 16.489 27.6177C16.7619 27.445 16.9604 27.3217 17.0348 27.2724H17.0596L17.9279 27.3957C17.5558 27.8396 16.0673 28.4562 16.0673 28.4562C14.9757 30.1578 15.3479 33.5365 15.3479 33.5365C15.3479 33.5365 16.9108 32.476 18.5977 30.947C20.2847 29.418 23.0384 26.3352 23.0384 26.3352L22.84 26.2119L23.1625 26.1133L23.609 26.5572L24.1548 27.0998L24.7006 27.6423Z" fill="#FFDED6"/>
<path fill-rule="evenodd" clip-rule="evenodd" d="M33.7826 85.4764H12.4722C12.0256 83.5528 11.6535 81.6785 11.331 80.1248L11.207 79.4836L11.1077 78.9904L11.0829 78.8917L11.0581 78.6944C11.0581 78.6698 11.0581 78.6698 11.0581 78.6698C10.8348 77.4613 10.686 76.5735 10.6364 76.2529L11.7775 85.5011H3.19387C2.30076 81.5552 1.63094 77.0421 1.2092 73.1702C0.961114 70.7287 0.812261 68.5091 0.787453 66.8814C0.762644 65.7223 0.812255 64.8345 0.936297 64.3166C1.63093 61.2832 4.11176 57.6579 5.84835 53.6873C6.66702 51.8377 7.13839 50.0127 7.43609 48.607C7.43609 48.607 7.43609 48.607 7.43609 48.5823C7.75859 46.9793 7.83301 45.8942 7.83301 45.8942C7.68416 45.7462 7.53532 45.5736 7.38647 45.3763C6.24528 43.8473 5.77393 41.6277 5.82354 41.2331C5.87316 40.7892 6.07163 39.926 7.06396 38.4956C8.05629 37.0653 9.22229 34.9937 9.17267 34.0565C9.12305 33.0947 8.42842 31.8123 8.42842 31.8123C8.42842 31.8123 10.3635 30.6779 11.8272 29.9627C12.2737 29.7407 12.7451 29.4941 13.1668 29.2721C14.1591 28.7296 14.9778 28.2117 14.9778 28.2117H15.5732L15.4988 28.261C15.474 28.261 15.474 28.2857 15.4492 28.2857C15.4244 28.2857 15.4244 28.3103 15.3996 28.3103C15.3748 28.335 15.3499 28.335 15.3251 28.3596C15.2011 28.4336 15.0274 28.5569 14.8538 28.6556C14.7794 28.7049 14.7049 28.7296 14.6553 28.7789C14.432 28.9269 14.2088 29.0502 14.0351 29.1735L13.663 29.4201C13.4893 29.7407 13.2909 30.2833 13.1172 30.9245C12.6955 32.4042 12.2737 34.4511 12.0008 36.0541C11.8272 37.1146 11.7031 37.9531 11.7031 38.2984C11.7031 38.2984 11.7031 38.2984 11.7031 38.323C11.7031 38.3723 11.7031 38.397 11.7031 38.4217C11.7031 38.4463 11.7031 38.471 11.7279 38.4956C11.7279 38.5203 11.7279 38.5203 11.7279 38.545C11.7527 38.6929 11.8024 38.8656 11.852 39.0382V39.0629C12.0256 39.6301 12.2489 40.296 12.3481 40.5672V40.5919V40.6166L12.373 40.6659C12.373 40.6659 14.0103 38.0764 15.1763 36.572C15.5484 36.0788 16.4911 35.1416 17.6075 34.0812C19.8651 31.8616 22.8421 29.0995 23.1646 28.5076C23.3382 28.187 23.4623 27.8171 23.5119 27.4965C23.5367 27.3238 23.5615 27.1512 23.5863 27.0279C23.6111 26.7566 23.6111 26.584 23.6111 26.584H24.1569C24.529 26.7813 25.5214 26.9539 26.6874 27.1759C27.2828 27.2992 27.7789 27.5458 28.1511 27.7678C28.4984 27.9897 28.7216 28.1623 28.7216 28.1623C28.7216 28.1623 28.4984 28.3103 28.1759 28.6063C27.6797 29.0255 26.9354 29.716 26.216 30.6285C26.1664 30.7025 26.092 30.7765 26.0423 30.8505C25.7198 31.2944 25.3973 31.7876 25.1244 32.3055C24.9756 32.5768 24.8515 32.8481 24.7275 33.144C24.3058 34.2045 24.1569 35.265 24.1073 36.1774C24.0825 36.646 24.1073 37.0653 24.1321 37.4352C24.2065 38.2244 24.3306 38.7669 24.3802 38.9396V38.9642C24.3802 38.9889 24.3802 38.9889 24.3802 38.9889C23.2886 40.2713 22.1474 42.7128 21.2791 45.105C20.386 47.5712 19.7906 49.9881 19.8403 51.0732C19.9395 53.2434 23.115 63.0342 26.5633 69.8162C28.8953 74.4526 31.9964 81.4319 33.7826 85.4764Z" fill="#321833"/>
<path fill-rule="evenodd" clip-rule="evenodd" d="M23.6084 26.5586C23.6084 26.5586 23.013 27.693 19.9864 30.7511C16.9597 33.7845 15.5457 35.7081 15.5457 35.7081L13.1641 35.6095L15.5953 35.7821L23.1618 29.37L24.179 27.0272L23.6084 26.5586Z" fill="#FFDED6"/>
<path fill-rule="evenodd" clip-rule="evenodd" d="M39.2362 40.9855L37.1523 43.1065C36.1599 45.7699 32.2154 50.4803 31.8681 50.4803C31.5208 50.4803 29.1888 49.0006 28.2709 47.0277C27.353 45.0794 27.3778 43.723 27.2785 42.9831C27.1793 42.2679 25.3435 38.4454 25.3435 38.4454L24.376 38.9879C24.376 38.9879 24.0287 38.1741 23.9046 36.9163C23.7558 35.6093 23.8302 33.8336 24.6985 31.9593C26.4102 28.26 28.6926 28.1367 28.6926 28.1367C28.6926 28.1367 29.1392 28.4573 29.1888 28.6053C29.2136 28.6546 29.1888 28.9999 29.1888 29.4685V29.5178C29.164 30.307 29.1144 31.4167 29.164 32.2306C29.2384 33.5377 31.2231 40.9609 31.3223 40.9855C31.3471 40.9855 31.6448 40.7636 32.0418 40.4183C32.9349 39.6291 34.4482 38.1741 35.0684 37.2123C35.1924 37.015 35.3164 36.8177 35.4157 36.6451C35.9615 35.7079 36.1351 35.2147 36.1599 35.1653L36.7057 34.9927L36.5569 35.2393C37.2763 39.3579 39.0873 40.6896 39.0873 40.6896C39.385 39.9004 39.3354 38.8893 39.3106 38.692C39.4098 39.6045 39.2362 40.9855 39.2362 40.9855Z" fill="#321833"/>
<path fill-rule="evenodd" clip-rule="evenodd" d="M17.9258 5.93945C17.9258 5.93945 18.2483 6.08742 19.712 6.60532C21.2005 7.12322 22.689 7.78909 23.5077 9.17015C23.5077 9.17015 22.2921 8.08503 20.8284 7.86308C19.3647 7.64112 18.6204 7.54247 18.3723 7.36984C18.1242 7.22187 17.9258 5.93945 17.9258 5.93945Z" fill="url(#paint13_linear_1434_6086)"/>
<path fill-rule="evenodd" clip-rule="evenodd" d="M11.8251 9.96104C11.8251 9.96104 12.0732 9.44314 12.6438 9.54179C13.2144 9.6651 14.2811 11.5394 14.2811 11.5394C14.2811 11.5394 13.4873 9.09788 12.743 8.55532C12.1972 8.16073 11.8251 8.90058 11.8251 8.90058C11.8251 8.90058 11.577 9.41848 11.8251 9.96104Z" fill="url(#paint14_linear_1434_6086)"/>
<path d="M19.2439 15.064C19.6408 15.5326 23.1884 15.138 23.759 13.7322C24.3792 12.2032 22.9403 9.98365 20.9804 10.3782C18.6485 10.8221 18.1275 13.7322 19.2439 15.064Z" fill="url(#paint15_linear_1434_6086)"/>
<path d="M14.6312 13.7325C14.6312 13.9051 14.6312 14.0778 14.6064 14.2504C14.5567 14.645 14.4079 14.9656 14.259 15.2122C13.9861 15.6561 13.6388 15.8781 13.4652 15.8781C13.1179 15.8781 12.5721 15.9027 12.324 14.645C12.0759 13.3872 12.2744 11.5623 13.0186 11.2663C13.2915 11.143 13.6388 11.3896 13.9613 11.7842C14.1102 11.9815 14.259 12.2281 14.3831 12.4994C14.5319 12.8693 14.6312 13.2886 14.6312 13.7325Z" fill="url(#paint16_linear_1434_6086)"/>
<path fill-rule="evenodd" clip-rule="evenodd" d="M15.495 17.9511C15.495 17.9511 13.5599 18.2224 13.1134 17.1126C12.8157 16.3974 14.0065 16.1755 14.6267 14.8438C14.6267 14.8438 14.329 15.6329 13.932 16.0768C13.4855 16.5701 13.4111 16.6934 13.6591 17.088C14.0809 17.8278 15.495 17.9511 15.495 17.9511Z" fill="#F17C57"/>
<path fill-rule="evenodd" clip-rule="evenodd" d="M15.7188 17.1612C15.7188 17.1612 16.1405 16.668 16.8351 16.7419C16.8351 16.7419 16.4878 16.8159 16.3886 16.9639C16.2893 17.1119 15.9916 17.4078 15.7188 17.1612Z" fill="#C44A4C"/>
<path fill-rule="evenodd" clip-rule="evenodd" d="M16.5625 3.7967C16.5625 3.7967 16.7114 0.0234375 18.4231 0.0234375C19.9364 0.0234375 20.8543 1.47849 22.2684 2.26766C23.6825 3.05684 27.6518 4.56122 28.6194 5.81897C29.5869 7.07672 30.3311 11.2446 28.6194 14.056C28.6194 14.056 27.0316 14.1053 26.0641 16.103C26.0641 16.103 26.6347 13.4148 26.2378 11.7871C26.2378 11.7871 24.65 11.4665 23.1119 9.17298C21.5738 6.87943 20.7551 3.77204 19.7628 3.40211C18.7704 3.03218 17.3316 3.2788 16.5873 4.01866V3.7967H16.5625Z" fill="url(#paint17_linear_1434_6086)"/>
<path fill-rule="evenodd" clip-rule="evenodd" d="M16.1918 4.33647C16.1918 4.33647 15.5468 3.79391 14.6289 4.58309C14.6289 4.58309 15.2987 3.71992 15.5964 1.99359C15.8693 0.267264 18.2013 -0.447929 19.4665 0.316588C20.7318 1.05644 21.7985 8.13439 24.7259 11.0198C24.7259 11.0198 22.4187 9.4168 21.2527 6.35874C20.4093 4.13917 19.9131 3.49796 18.7471 3.25135C17.6059 3.00473 16.1918 4.33647 16.1918 4.33647Z" fill="url(#paint18_linear_1434_6086)"/>
<path fill-rule="evenodd" clip-rule="evenodd" d="M18.7515 14.0518C18.7515 14.0518 18.3297 12.1282 19.9919 10.9938C21.6292 9.85933 23.7132 10.9445 23.9116 12.7694C23.9116 12.7694 24.631 12.5228 24.9536 11.7336C24.9536 11.7336 24.5318 11.8323 24.2341 11.8076C24.2341 11.8076 23.341 9.81001 21.406 9.78535C19.4709 9.76069 18.2801 12.1282 18.7515 14.0518Z" fill="url(#paint19_linear_1434_6086)"/>
<path fill-rule="evenodd" clip-rule="evenodd" d="M19.6641 15.2141C19.6641 15.2141 20.4579 15.5101 22.0209 15.2388C23.5838 14.9675 23.8071 13.5371 23.8071 13.5371C23.8071 13.5371 23.3109 15.2634 19.6641 15.2141Z" fill="#C44A4C"/>
<path fill-rule="evenodd" clip-rule="evenodd" d="M12.3711 14.918C12.3711 14.918 12.4703 15.8305 13.0657 15.9538C13.6363 16.0771 14.1821 15.4605 14.3558 14.992C14.3558 14.992 13.9836 15.8058 13.2642 15.7811C12.6688 15.7811 12.3711 14.918 12.3711 14.918Z" fill="#C44A4C"/>
<path fill-rule="evenodd" clip-rule="evenodd" d="M23.3341 12.7698C23.3341 13.7563 22.5403 14.5454 21.5479 14.5454C20.5556 14.5454 19.7617 13.7563 19.7617 12.7698C19.7617 11.7833 20.5556 10.9941 21.5479 10.9941C22.5154 10.9941 23.3341 11.808 23.3341 12.7698Z" fill="url(#paint20_linear_1434_6086)"/>
<path fill-rule="evenodd" clip-rule="evenodd" d="M22.7437 12.7709C22.7437 13.4368 22.1979 13.9794 21.5281 13.9794C20.8583 13.9794 20.3125 13.4368 20.3125 12.7709C20.3125 12.1051 20.8583 11.5625 21.5281 11.5625C22.1979 11.5625 22.7437 12.1051 22.7437 12.7709Z" fill="url(#paint21_linear_1434_6086)"/>
<path fill-rule="evenodd" clip-rule="evenodd" d="M14.6302 13.7334C14.6302 13.9061 14.6302 14.0787 14.6054 14.2513C14.5557 14.6459 14.4069 14.9665 14.258 15.2132C14.134 15.2871 13.9851 15.3365 13.8611 15.3365C13.2409 15.3365 12.7695 14.5473 12.7695 13.5608C12.7695 12.5743 13.2657 11.7852 13.8611 11.7852C13.8859 11.7852 13.9355 11.7852 13.9603 11.7852C14.1092 11.9825 14.258 12.2291 14.3821 12.5003C14.5309 12.8703 14.6302 13.2895 14.6302 13.7334Z" fill="url(#paint22_linear_1434_6086)"/>
<path fill-rule="evenodd" clip-rule="evenodd" d="M14.6275 13.7346C14.6275 13.9072 14.6275 14.0798 14.6027 14.2525C14.4787 14.5731 14.2554 14.7704 13.9825 14.7704C13.5608 14.7704 13.2383 14.2278 13.2383 13.5619C13.2383 12.8961 13.5608 12.3535 13.9825 12.3535C14.1066 12.3535 14.2554 12.4028 14.3547 12.5261C14.5283 12.8714 14.6275 13.2907 14.6275 13.7346Z" fill="url(#paint23_linear_1434_6086)"/>
<path fill-rule="evenodd" clip-rule="evenodd" d="M14.6276 14.0533C14.6276 14.0533 14.2307 11.4144 13.288 11.5377C12.4693 11.6611 12.2212 13.412 12.2212 13.412C12.2212 13.412 11.7747 13.3874 11.3281 12.8941C11.3281 12.8941 11.7002 12.8448 11.9731 12.7462C11.9731 12.7462 12.2708 11.1678 12.9655 10.8719C13.6849 10.5759 14.7021 12.5242 14.6276 14.0533Z" fill="url(#paint24_linear_1434_6086)"/>
<path d="M13.7852 19.4792C13.7852 19.4792 14.1573 19.5778 14.3558 19.8245C14.5542 20.0711 14.6038 20.4163 15.1744 20.515C15.7202 20.6136 17.8289 20.4657 19.7392 18.2461C19.7392 18.2461 18.5484 18.838 17.2335 18.8873C15.9187 18.9366 15.0008 19.2326 14.6286 19.3805C14.2565 19.5532 13.7852 19.4792 13.7852 19.4792Z" fill="url(#paint25_linear_1434_6086)"/>
<path d="M13.685 19.4558C13.685 19.4558 13.9579 19.5298 14.3548 19.4558C14.7517 19.3818 14.8013 18.8886 15.8681 18.7899C16.9349 18.6666 18.2001 18.7652 18.8451 18.5926C19.4901 18.42 19.8374 18.0254 19.8374 18.0254H20.0111C20.0111 18.0254 19.5894 18.5186 18.2001 18.9379C16.8108 19.3325 14.6525 19.5791 14.2556 19.5791C13.8586 19.5544 13.6602 19.5298 13.6602 19.5298L13.685 19.4558Z" fill="url(#paint26_linear_1434_6086)"/>
<path fill-rule="evenodd" clip-rule="evenodd" d="M20.236 13.6854C20.236 13.858 20.0872 13.9813 19.9383 13.9813C19.7647 13.9813 19.6406 13.8333 19.6406 13.6854C19.6406 13.5127 19.7895 13.3894 19.9383 13.3894C20.0872 13.3648 20.236 13.5127 20.236 13.6854Z" fill="white"/>
<path fill-rule="evenodd" clip-rule="evenodd" d="M13.2874 14.5467C13.3122 14.7193 13.1882 14.8673 13.0145 14.8919C12.8409 14.9166 12.692 14.7933 12.6672 14.6207C12.6424 14.448 12.7665 14.3001 12.9401 14.2754C13.1138 14.2754 13.2626 14.3987 13.2874 14.5467Z" fill="white"/>
<path fill-rule="evenodd" clip-rule="evenodd" d="M25.9141 17.2593C25.9141 17.2593 27.2785 15.5083 28.5934 15.2617C28.5934 15.2617 29.1143 15.8536 29.0647 16.7414C29.0647 16.7414 28.8662 15.8289 28.4693 15.6316C28.4693 15.6316 28.3701 15.6563 28.122 15.7796C27.7499 15.9276 27.0552 16.3468 25.9141 17.2593Z" fill="#F17C57"/>
<path fill-rule="evenodd" clip-rule="evenodd" d="M27.1324 16.2485C27.1324 16.2485 28.0999 16.1992 28.3232 16.2485C28.5465 16.2978 28.6705 17.5062 28.3232 17.9748C27.9759 18.4434 27.5293 18.1474 26.9339 18.1228C26.3385 18.0981 25.9416 18.2461 25.9416 18.2461C25.9416 18.2461 25.6687 17.5802 25.9416 17.2596C26.1897 16.939 27.1324 16.2485 27.1324 16.2485Z" fill="#F17C57"/>
<path fill-rule="evenodd" clip-rule="evenodd" d="M19.7383 0.589844C19.7383 0.589844 23.4595 6.18808 25.7915 8.06238C28.1235 9.93668 29.0662 9.56675 29.0662 9.56675C29.0662 9.56675 27.4289 12.8221 24.948 11.1698C22.4672 9.51743 21.0283 2.43948 19.7383 0.589844Z" fill="url(#paint27_linear_1434_6086)"/>
<path fill-rule="evenodd" clip-rule="evenodd" d="M18.3984 0.0213902C18.3984 0.0213902 19.5892 -0.422523 20.7304 2.73419C21.8716 5.89091 22.7895 9.88612 24.9478 11.1685C27.1062 12.451 28.5202 10.3794 28.5202 10.3794C28.5202 10.3794 27.2302 12.229 24.6997 10.4533C22.1197 8.62837 22.0205 0.0213902 18.3984 0.0213902Z" fill="url(#paint28_linear_1434_6086)"/>
<path fill-rule="evenodd" clip-rule="evenodd" d="M31.4516 8.06055C31.4516 8.06055 33.3618 9.6389 31.8981 18.7638C30.4345 27.8887 33.9821 31.2673 34.1557 34.6953C34.3294 38.148 30.9802 39.8743 30.9802 39.8743L30.8314 39.3071C30.8314 39.3071 33.5851 38.1726 33.4115 34.6953C33.2378 31.218 30.3104 27.3954 30.7818 21.3779C31.2035 15.3604 32.9153 12.771 31.4516 8.06055Z" fill="url(#paint29_linear_1434_6086)"/>
<path fill-rule="evenodd" clip-rule="evenodd" d="M32.0181 40.418L31.2987 40.9852C31.2987 40.9852 28.8923 42.4896 28.6442 43.476C28.3465 44.7091 29.2148 46.5341 29.2148 46.5341C29.2148 46.5341 29.4133 44.0679 30.0087 43.0814C30.5792 42.095 32.0181 40.418 32.0181 40.418Z" fill="url(#paint30_linear_1434_6086)"/>
<path fill-rule="evenodd" clip-rule="evenodd" d="M39.2412 40.985L37.1573 43.1059C37.1573 43.1059 35.4951 40.1218 35.3711 36.6692L36.1153 35.1895L36.4875 35.2634C37.2069 39.382 39.0179 40.7137 39.0179 40.7137C39.3156 39.9245 39.266 38.9134 39.2412 38.7161C39.4149 39.6039 39.2412 40.985 39.2412 40.985Z" fill="url(#paint31_linear_1434_6086)"/>
<path opacity="0.4" fill-rule="evenodd" clip-rule="evenodd" d="M10.9808 32.2303L9.71562 32.4523C9.71562 32.4523 11.1049 33.9566 11.3282 34.7211C11.3282 34.7211 9.41791 35.9542 8.5 37.4833C8.5 37.4833 9.3931 41.3059 11.4026 42.7856V37.2366L12.4942 31.7617L10.9808 32.2303Z" fill="#6F1D77"/>
<path opacity="0.4" fill-rule="evenodd" clip-rule="evenodd" d="M24.1821 28.9023L26.2412 30.678C26.2412 30.678 23.5867 32.503 21.6516 32.8482C21.6516 32.8482 22.7432 35.3637 22.8672 36.2762C22.8672 36.2762 16.6899 39.4083 14.9534 40.2961C13.2168 41.2086 12.0508 42.1704 12.0508 42.1704L18.1536 34.6979L24.1821 28.9023Z" fill="#6F1D77"/>
<path fill-rule="evenodd" clip-rule="evenodd" d="M11.5269 43.0819C11.5269 43.0819 9.4926 39.4319 9.34375 35.3627C9.34375 35.3627 10.9315 34.031 11.8742 33.5377C11.8742 33.5377 11.2044 32.3539 9.83992 32.0333C9.83992 32.0333 12.3456 29.9864 13.189 29.1726C14.0325 28.3587 14.8016 27.7422 14.8016 27.7422L15.5955 28.1121L13.6356 29.3452C13.6356 29.3452 11.6757 36.4971 11.6509 37.8042C11.6261 39.1113 12.3952 40.665 12.3952 40.665L11.5269 43.0819Z" fill="url(#paint32_linear_1434_6086)"/>
<path fill-rule="evenodd" clip-rule="evenodd" d="M11.1094 43.4742C11.1094 43.4742 12.4242 39.7996 14.3345 37.3334C16.2447 34.8672 23.0174 28.2085 23.2903 27.7893C23.5632 27.3454 23.6128 26.5562 23.6128 26.5562L23.4391 26.3836L23.9601 26.2109C23.9601 26.2109 25.3246 28.8251 26.565 29.9842C26.565 29.9842 24.0841 31.1926 21.5289 31.9818C21.5289 31.9818 23.0422 33.9301 23.2903 35.4098C23.2903 35.4098 18.5519 37.6294 15.947 39.3064C13.3421 40.9834 12.4242 41.7726 12.2506 41.9945C12.1017 42.1918 11.1094 43.4742 11.1094 43.4742Z" fill="url(#paint33_linear_1434_6086)"/>
<path fill-rule="evenodd" clip-rule="evenodd" d="M41.3204 24.1172C41.3204 24.1172 41.0723 25.4243 40.8242 26.2874L41.494 24.6104L41.3204 24.5858V24.1172Z" fill="#F17C57"/>
<path fill-rule="evenodd" clip-rule="evenodd" d="M42.7814 25.1016C42.7814 25.1016 42.2852 26.5813 41.7891 27.5924C41.7891 27.5924 42.5829 26.3593 42.9799 25.4962L42.7566 25.4468V25.1016H42.7814Z" fill="#F17C57"/>
<path fill-rule="evenodd" clip-rule="evenodd" d="M25.3459 38.4694L23.8574 37.2363C23.8574 37.2363 21.5999 42.1934 21.2773 45.1528C22.2201 42.6373 23.138 40.8123 24.3784 39.0366L25.3459 38.4694Z" fill="#321833"/>
</g>
<g clip-path="url(#clip1_1434_6086)">
<path fill-rule="evenodd" clip-rule="evenodd" d="M10.8795 34.7204C10.8795 34.7204 9.73829 41.9956 7.87766 44.6345C6.46358 46.6567 5.79376 49.3942 4.65258 51.7371C4.25564 52.5756 3.78429 53.3647 3.18889 54.0553C0.782482 56.9161 -2.4178 61.3305 -2.4178 61.3305C-4.82421 60.9853 -6.23828 57.6312 -6.23828 57.6312C-4.45208 53.1428 -0.730831 47.5692 1.52673 45.2757C3.61063 43.1794 5.09913 39.4308 6.06665 36.6933C6.16589 36.4467 6.24031 36.2001 6.31474 35.9535C7.25745 33.1667 8.47307 31.761 8.47307 31.761C9.11808 31.613 10.8795 34.7204 10.8795 34.7204Z" fill="#321833"/>
<path fill-rule="evenodd" clip-rule="evenodd" d="M10.8815 34.7204C10.8815 34.7204 9.74028 41.9956 7.87965 44.6345C6.46558 46.6567 5.79575 49.3942 4.65457 51.7371L1.50391 52.5263C1.50391 52.5263 3.2653 49.0489 3.8359 46.5334C4.40649 44.0179 5.99423 36.9646 5.99423 36.9646L6.04385 36.6933C6.14308 36.4467 6.2175 36.2001 6.29193 35.9535C7.23465 33.1667 8.45024 31.761 8.45024 31.761C9.12007 31.613 10.8815 34.7204 10.8815 34.7204Z" fill="#321833"/>
<path fill-rule="evenodd" clip-rule="evenodd" d="M31.8933 32.1312C31.9181 32.3778 31.9429 32.5998 31.9429 32.7724C31.9677 33.6356 31.5459 35.1646 31.025 36.669C30.3551 38.5926 29.5365 40.4422 29.4372 40.6642C29.4869 40.5162 29.7846 39.5544 29.4372 37.9267C29.0403 36.1511 24.9469 33.2656 23.8057 29.8623C23.5825 29.1718 23.508 28.3086 23.5577 27.3714C23.6569 25.2999 24.2523 22.735 24.7485 20.3182L24.7981 20.0469C25.1454 18.2712 25.4183 16.5696 25.3687 15.1885C25.2198 10.922 26.7331 8.06123 26.7331 8.06123L28.3953 7.78995C28.3953 7.78995 30.2311 7.12408 31.4715 8.06123C32.4639 8.82575 32.6375 12.4757 31.4715 18.3945C30.38 23.7708 31.5956 29.5417 31.8933 32.1312Z" fill="url(#paint34_linear_1434_6086)"/>
<path fill-rule="evenodd" clip-rule="evenodd" d="M17.1349 1.20312C17.1349 1.20312 15.9193 3.32404 13.7362 4.18721C11.5531 5.05037 10.2134 5.69158 9.84127 7.88648C9.46915 10.0814 11.1809 12.2023 11.9748 12.7695C12.7935 13.3121 14.927 9.07025 14.927 9.07025L18.1769 3.17607L17.4574 2.31291L17.1349 1.20312Z" fill="url(#paint35_linear_1434_6086)"/>
<path fill-rule="evenodd" clip-rule="evenodd" d="M14.6287 3.74609C14.6287 3.74609 14.3559 4.23933 12.7433 5.52175C10.8579 7.00146 10.1632 12.2298 13.2395 13.5615C13.2395 13.5615 10.3369 12.8956 9.51823 9.81291C8.74917 7.00146 11.7014 5.941 14.6287 3.74609Z" fill="url(#paint36_linear_1434_6086)"/>
<path fill-rule="evenodd" clip-rule="evenodd" d="M39.1898 38.7891C39.1898 38.7891 39.5124 40.2194 38.9914 40.984L37.875 39.8742L39.1898 38.7891Z" fill="url(#paint37_radial_1434_6086)"/>
<path d="M37.1328 24.8558V26.7548L39.8121 28.999L42.0201 28.8264L42.9876 28.4811C42.9876 28.4811 43.9055 27.174 43.9799 26.9027C44.0543 26.6315 43.9799 26.0642 43.9799 26.0642L40.3579 24.1406L37.1328 24.8558Z" fill="#F17C57"/>
<path d="M37.3281 24.6347C37.3281 24.6347 38.1716 22.0945 38.2957 21.2313C38.4197 20.3682 39.1639 17.4581 39.4616 16.9155C39.4616 16.9155 40.0322 16.8415 40.3796 17.3841C40.7269 17.902 40.4044 20.3682 39.5857 21.5273C39.5857 21.5273 39.288 23.0563 39.3128 24.1168L37.3281 24.6347Z" fill="url(#paint38_linear_1434_6086)"/>
<path d="M23.1891 21.7734C23.1891 21.7734 22.4696 24.4123 22.6185 26.0646L23.1891 26.4345C23.1891 26.4345 21.4277 30.5284 18.7732 31.4409C16.1187 32.3534 14.3573 31.2682 15.3 28.8021C15.3 28.8021 17.8553 27.8649 18.3266 26.9524C18.798 26.0153 18.7484 23.845 18.7484 23.845L23.1891 21.7734Z" fill="url(#paint39_linear_1434_6086)"/>
<path d="M26.9099 11.2918C26.9099 11.2918 26.761 16.6434 24.7019 19.9728C24.4538 20.3674 24.1809 20.7373 23.8832 21.0826C21.6257 23.5241 18.3262 24.3379 17.0113 24.2639C15.6965 24.19 15.3492 23.7707 14.8778 23.3515C14.4313 22.9569 11.4791 21.5511 10.7596 19.4549C10.0898 17.5066 11.5039 15.4104 11.876 14.2266C11.9008 14.1279 11.9256 14.054 11.9504 13.98C12.1489 12.8702 11.5783 10.2314 11.9504 8.18443C12.3226 6.1375 15.2747 3.30139 18.1773 3.15342C24.4538 2.83282 26.9099 11.2918 26.9099 11.2918Z" fill="url(#paint40_linear_1434_6086)"/>
<path d="M26.4356 15.1386C26.4356 15.1386 26.907 14.3741 28.3211 14.0782C28.3211 14.0782 29.3382 13.9302 29.6111 15.114C29.6111 15.114 29.7351 17.2842 28.7676 18.542C27.8001 19.8244 26.1131 19.8984 25.7162 19.7997C25.3192 19.7011 25.3441 18.7886 25.3441 18.7886C25.3441 18.7886 25.9643 15.7305 26.4356 15.1386Z" fill="url(#paint41_linear_1434_6086)"/>
<path d="M35.1445 37.2616C35.1445 37.2616 37.7246 33.6117 37.8238 32.5759C37.9231 31.5154 36.2361 29.9617 35.864 28.7779C35.6159 27.9641 36.509 24.5361 36.633 24.2895C36.7571 24.0429 38.32 23.6236 38.9402 23.451C39.5604 23.2537 40.4535 22.8591 40.652 23.0071C40.8504 23.1797 40.5031 24.6348 39.4612 25.128C38.4936 25.5719 37.9231 25.5226 37.9231 25.5226L37.6502 26.6817C37.6502 26.6817 38.6425 26.9283 39.2875 27.5942C39.9077 28.26 41.1729 28.482 42.066 28.5067C42.9591 28.5313 44.0011 26.9036 44.0011 26.9036C44.0011 26.9036 43.232 30.3316 42.1157 31.762C42.1157 31.762 41.1481 32.7978 40.6024 32.9211C40.6024 32.9211 38.8162 40.0731 36.3849 44.2902L35.1445 37.2616Z" fill="url(#paint42_linear_1434_6086)"/>
<path d="M40.1553 23.5723C40.1553 23.5723 40.7259 23.6956 41.3213 24.1395V24.6081C41.3213 24.6081 42.4625 24.756 42.785 25.126V25.4712C42.785 25.4712 43.4797 25.5945 43.951 26.0631C43.951 26.0631 43.5293 27.4935 42.785 28.0114C42.785 28.0114 42.2392 27.9867 41.7927 27.6168L41.495 27.9128C41.495 27.9128 40.5771 28.0607 40.5275 27.3209L40.8252 26.2851C40.8252 26.2851 40.453 26.729 40.2794 26.7783C40.1305 26.8523 39.4607 26.655 39.4359 26.1618C39.3863 25.6685 40.1553 23.5723 40.1553 23.5723Z" fill="url(#paint43_linear_1434_6086)"/>
<path fill-rule="evenodd" clip-rule="evenodd" d="M15.4343 30.0879C15.4343 30.0879 16.0745 31.7522 19.489 30.2927L14.9808 34.7736L14.5273 33.5702L15.4343 30.0879Z" fill="url(#paint44_linear_1434_6086)"/>
<path fill-rule="evenodd" clip-rule="evenodd" d="M24.7006 27.6423C24.7006 27.6423 24.1796 28.1602 23.361 28.9247C22.6911 29.5659 21.8228 30.4044 20.9297 31.2676L20.9049 31.2923C18.9202 33.1912 16.7619 35.2628 16.0425 35.9287C14.6036 37.2604 12.5445 40.9844 12.5445 40.9844C12.5445 40.9844 11.1304 38.7648 10.932 37.8277C10.7335 36.8905 10.932 30.4538 10.932 30.4538C10.932 30.4538 12.5445 29.8619 13.9338 29.122C14.8269 28.6288 15.8688 28.0122 16.489 27.6177C16.7619 27.445 16.9604 27.3217 17.0348 27.2724H17.0596L17.9279 27.3957C17.5558 27.8396 16.0673 28.4562 16.0673 28.4562C14.9757 30.1578 15.3479 33.5365 15.3479 33.5365C15.3479 33.5365 16.9108 32.476 18.5977 30.947C20.2847 29.418 23.0384 26.3352 23.0384 26.3352L22.84 26.2119L23.1625 26.1133L23.609 26.5572L24.1548 27.0998L24.7006 27.6423Z" fill="url(#paint45_linear_1434_6086)"/>
<path fill-rule="evenodd" clip-rule="evenodd" d="M33.7826 85.4745H12.4722C12.0256 83.5509 11.6535 81.6766 11.331 80.1229L11.207 79.4817L11.1077 78.9884L11.0829 78.8898L11.0581 78.6925C11.0581 78.6678 11.0581 78.6678 11.0581 78.6678C10.8348 77.4594 10.686 76.5716 10.6364 76.251L11.7775 85.4991H3.19387C2.30076 81.5532 1.63094 77.0401 1.2092 73.1682C0.961114 70.7267 0.812261 68.5071 0.787453 66.8795C0.762644 65.7204 0.812255 64.8325 0.936297 64.3146C1.63093 61.2812 4.11176 57.6559 5.84835 53.6854C6.66702 51.8357 7.13839 50.0108 7.43609 48.605C7.43609 48.605 7.43609 48.605 7.43609 48.5804C7.75859 46.9774 7.83301 45.8922 7.83301 45.8922C7.68416 45.7443 7.53532 45.5716 7.38647 45.3743C6.24528 43.8453 5.77393 41.6257 5.82354 41.2312C5.87316 40.7872 6.07163 39.9241 7.06396 38.4937C8.05629 37.0633 9.22229 34.9917 9.17267 34.0546C9.12305 33.0928 8.42842 31.8103 8.42842 31.8103C8.42842 31.8103 10.3635 30.6759 11.8272 29.9607C12.2737 29.7387 12.7451 29.4921 13.1668 29.2702C14.1591 28.7276 14.9778 28.2097 14.9778 28.2097H15.5732L15.4988 28.259C15.474 28.259 15.474 28.2837 15.4492 28.2837C15.4244 28.2837 15.4244 28.3084 15.3996 28.3084C15.3748 28.333 15.3499 28.333 15.3251 28.3577C15.2011 28.4317 15.0274 28.555 14.8538 28.6536C14.7794 28.703 14.7049 28.7276 14.6553 28.7769C14.432 28.9249 14.2088 29.0482 14.0351 29.1715L13.663 29.4181C13.4893 29.7387 13.2909 30.2813 13.1172 30.9225C12.6955 32.4022 12.2737 34.4492 12.0008 36.0522C11.8272 37.1126 11.7031 37.9511 11.7031 38.2964C11.7031 38.2964 11.7031 38.2964 11.7031 38.3211C11.7031 38.3704 11.7031 38.395 11.7031 38.4197C11.7031 38.4444 11.7031 38.469 11.7279 38.4937C11.7279 38.5184 11.7279 38.5184 11.7279 38.543C11.7527 38.691 11.8024 38.8636 11.852 39.0363V39.0609C12.0256 39.6281 12.2489 40.294 12.3481 40.5653V40.59V40.6146L12.373 40.6639C12.373 40.6639 14.0103 38.0744 15.1763 36.5701C15.5484 36.0768 16.4911 35.1397 17.6075 34.0792C19.8651 31.8597 22.8421 29.0975 23.1646 28.5057C23.3382 28.1851 23.4623 27.8151 23.5119 27.4945C23.5367 27.3219 23.5615 27.1493 23.5863 27.0259C23.6111 26.7547 23.6111 26.582 23.6111 26.582H24.1569C24.529 26.7793 25.5214 26.952 26.6874 27.1739C27.2828 27.2972 27.7789 27.5438 28.1511 27.7658C28.4984 27.9878 28.7216 28.1604 28.7216 28.1604C28.7216 28.1604 28.4984 28.3084 28.1759 28.6043C27.6797 29.0236 26.9354 29.7141 26.216 30.6266C26.1664 30.7006 26.092 30.7745 26.0423 30.8485C25.7198 31.2924 25.3973 31.7857 25.1244 32.3036C24.9756 32.5749 24.8515 32.8461 24.7275 33.1421C24.3058 34.2025 24.1569 35.263 24.1073 36.1755C24.0825 36.6441 24.1073 37.0633 24.1321 37.4332C24.2065 38.2224 24.3306 38.765 24.3802 38.9376V38.9623C24.3802 38.9869 24.3802 38.9869 24.3802 38.9869C23.2886 40.2693 22.1474 42.7109 21.2791 45.1031C20.386 47.5693 19.7906 49.9861 19.8403 51.0712C19.9395 53.2415 23.115 63.0322 26.5633 69.8142C28.8953 74.4506 31.9964 81.4299 33.7826 85.4745Z" fill="#321833"/>
<path fill-rule="evenodd" clip-rule="evenodd" d="M23.6084 26.5586C23.6084 26.5586 23.013 27.693 19.9864 30.7511C16.9597 33.7845 15.5457 35.7081 15.5457 35.7081L13.1641 35.6095L15.5953 35.7821L23.1618 29.37L24.179 27.0272L23.6084 26.5586Z" fill="url(#paint46_linear_1434_6086)"/>
<path fill-rule="evenodd" clip-rule="evenodd" d="M39.2362 40.9836L37.1523 43.1045C36.1599 45.768 32.2154 50.4784 31.8681 50.4784C31.5208 50.4784 29.1888 48.9987 28.2709 47.0257C27.353 45.0774 27.3778 43.721 27.2785 42.9812C27.1793 42.266 25.3435 38.4434 25.3435 38.4434L24.376 38.986C24.376 38.986 24.0287 38.1721 23.9046 36.9144C23.7558 35.6073 23.8302 33.8316 24.6985 31.9573C26.4102 28.2581 28.6926 28.1348 28.6926 28.1348C28.6926 28.1348 29.1392 28.4554 29.1888 28.6033C29.2136 28.6527 29.1888 28.9979 29.1888 29.4665V29.5158C29.164 30.305 29.1144 31.4148 29.164 32.2286C29.2384 33.5357 31.2231 40.9589 31.3223 40.9836C31.3471 40.9836 31.6448 40.7616 32.0418 40.4164C32.9349 39.6272 34.4482 38.1721 35.0684 37.2103C35.1924 37.013 35.3164 36.8157 35.4157 36.6431C35.9615 35.7059 36.1351 35.2127 36.1599 35.1634L36.7057 34.9908L36.5569 35.2374C37.2763 39.3559 39.0873 40.6876 39.0873 40.6876C39.385 39.8985 39.3354 38.8873 39.3106 38.69C39.4098 39.6025 39.2362 40.9836 39.2362 40.9836Z" fill="#321833"/>
<path fill-rule="evenodd" clip-rule="evenodd" d="M17.9258 5.93945C17.9258 5.93945 18.2483 6.08742 19.712 6.60532C21.2005 7.12322 22.689 7.78909 23.5077 9.17015C23.5077 9.17015 22.2921 8.08503 20.8284 7.86308C19.3647 7.64112 18.6204 7.54247 18.3723 7.36984C18.1242 7.22187 17.9258 5.93945 17.9258 5.93945Z" fill="url(#paint47_linear_1434_6086)"/>
<path fill-rule="evenodd" clip-rule="evenodd" d="M11.8251 9.96104C11.8251 9.96104 12.0732 9.44314 12.6438 9.54179C13.2144 9.6651 14.2811 11.5394 14.2811 11.5394C14.2811 11.5394 13.4873 9.09788 12.743 8.55532C12.1972 8.16073 11.8251 8.90058 11.8251 8.90058C11.8251 8.90058 11.577 9.41848 11.8251 9.96104Z" fill="url(#paint48_linear_1434_6086)"/>
<path d="M19.2439 15.064C19.6408 15.5326 23.1884 15.138 23.759 13.7322C24.3792 12.2032 22.9403 9.98365 20.9804 10.3782C18.6485 10.8221 18.1275 13.7322 19.2439 15.064Z" fill="url(#paint49_linear_1434_6086)"/>
<path d="M14.6273 13.7325C14.6273 13.9051 14.6273 14.0778 14.6025 14.2504C14.5528 14.645 14.404 14.9656 14.2551 15.2122C13.9822 15.6561 13.6349 15.8781 13.4613 15.8781C13.1139 15.8781 12.5682 15.9027 12.3201 14.645C12.072 13.3872 12.2705 11.5623 13.0147 11.2663C13.2876 11.143 13.6349 11.3896 13.9574 11.7842C14.1063 11.9815 14.2551 12.2281 14.3792 12.4994C14.528 12.8693 14.6273 13.2886 14.6273 13.7325Z" fill="url(#paint50_linear_1434_6086)"/>
<path fill-rule="evenodd" clip-rule="evenodd" d="M15.495 17.9511C15.495 17.9511 13.5599 18.2224 13.1134 17.1126C12.8157 16.3974 14.0065 16.1755 14.6267 14.8438C14.6267 14.8438 14.329 15.6329 13.932 16.0768C13.4855 16.5701 13.4111 16.6934 13.6591 17.088C14.0809 17.8278 15.495 17.9511 15.495 17.9511Z" fill="#F17C57"/>
<path fill-rule="evenodd" clip-rule="evenodd" d="M15.7188 17.1612C15.7188 17.1612 16.1405 16.668 16.8351 16.7419C16.8351 16.7419 16.4878 16.8159 16.3886 16.9639C16.2893 17.1119 15.9916 17.4078 15.7188 17.1612Z" fill="#C44A4C"/>
<path fill-rule="evenodd" clip-rule="evenodd" d="M16.5625 3.79475C16.5625 3.79475 16.7114 0.0214844 18.4231 0.0214844C19.9364 0.0214844 20.8543 1.47653 22.2684 2.26571C23.6825 3.05489 27.6518 4.55926 28.6194 5.81702C29.5869 7.07477 30.3311 11.2426 28.6194 14.0541C28.6194 14.0541 27.0316 14.1034 26.0641 16.101C26.0641 16.101 26.6347 13.4129 26.2378 11.7852C26.2378 11.7852 24.65 11.4646 23.1119 9.17103C21.5738 6.87748 20.7551 3.77008 19.7628 3.40016C18.7704 3.03023 17.3316 3.27685 16.5873 4.0167V3.79475H16.5625Z" fill="url(#paint51_linear_1434_6086)"/>
<path fill-rule="evenodd" clip-rule="evenodd" d="M16.1918 4.33647C16.1918 4.33647 15.5468 3.79391 14.6289 4.58309C14.6289 4.58309 15.2987 3.71992 15.5964 1.99359C15.8693 0.267264 18.2013 -0.447929 19.4665 0.316588C20.7318 1.05644 21.7985 8.13439 24.7259 11.0198C24.7259 11.0198 22.4187 9.41681 21.2527 6.35874C20.4093 4.13917 19.9131 3.49796 18.7471 3.25135C17.6059 3.00473 16.1918 4.33647 16.1918 4.33647Z" fill="url(#paint52_linear_1434_6086)"/>
<path fill-rule="evenodd" clip-rule="evenodd" d="M18.7476 14.0538C18.7476 14.0538 18.3258 12.1302 19.988 10.9957C21.6253 9.86128 23.7092 10.9464 23.9077 12.7714C23.9077 12.7714 24.6271 12.5248 24.9496 11.7356C24.9496 11.7356 24.5279 11.8342 24.2302 11.8096C24.2302 11.8096 23.3371 9.81196 21.4021 9.7873C19.467 9.76264 18.2762 12.1302 18.7476 14.0538Z" fill="url(#paint53_linear_1434_6086)"/>
<path fill-rule="evenodd" clip-rule="evenodd" d="M19.6641 15.2141C19.6641 15.2141 20.4579 15.5101 22.0209 15.2388C23.5838 14.9675 23.8071 13.5371 23.8071 13.5371C23.8071 13.5371 23.3109 15.2634 19.6641 15.2141Z" fill="#C44A4C"/>
<path fill-rule="evenodd" clip-rule="evenodd" d="M12.3711 14.918C12.3711 14.918 12.4703 15.8305 13.0657 15.9538C13.6363 16.0771 14.1821 15.4605 14.3558 14.992C14.3558 14.992 13.9836 15.8058 13.2642 15.7811C12.6688 15.7811 12.3711 14.918 12.3711 14.918Z" fill="#C44A4C"/>
<path fill-rule="evenodd" clip-rule="evenodd" d="M23.338 12.7698C23.338 13.7563 22.5442 14.5454 21.5518 14.5454C20.5595 14.5454 19.7656 13.7563 19.7656 12.7698C19.7656 11.7833 20.5595 10.9941 21.5518 10.9941C22.5194 10.9941 23.338 11.808 23.338 12.7698Z" fill="url(#paint54_linear_1434_6086)"/>
<path fill-rule="evenodd" clip-rule="evenodd" d="M22.7437 12.7709C22.7437 13.4368 22.1979 13.9794 21.5281 13.9794C20.8583 13.9794 20.3125 13.4368 20.3125 12.7709C20.3125 12.1051 20.8583 11.5625 21.5281 11.5625C22.1979 11.5625 22.7437 12.1051 22.7437 12.7709Z" fill="url(#paint55_linear_1434_6086)"/>
<path fill-rule="evenodd" clip-rule="evenodd" d="M14.6302 13.7334C14.6302 13.9061 14.6302 14.0787 14.6054 14.2513C14.5557 14.6459 14.4069 14.9665 14.258 15.2132C14.134 15.2871 13.9851 15.3365 13.8611 15.3365C13.2409 15.3365 12.7695 14.5473 12.7695 13.5608C12.7695 12.5743 13.2657 11.7852 13.8611 11.7852C13.8859 11.7852 13.9355 11.7852 13.9603 11.7852C14.1092 11.9825 14.258 12.2291 14.3821 12.5003C14.5309 12.8703 14.6302 13.2895 14.6302 13.7334Z" fill="url(#paint56_linear_1434_6086)"/>
<path fill-rule="evenodd" clip-rule="evenodd" d="M14.6275 13.7346C14.6275 13.9072 14.6275 14.0798 14.6027 14.2525C14.4787 14.5731 14.2554 14.7704 13.9825 14.7704C13.5608 14.7704 13.2383 14.2278 13.2383 13.5619C13.2383 12.8961 13.5608 12.3535 13.9825 12.3535C14.1066 12.3535 14.2554 12.4028 14.3547 12.5261C14.5283 12.8714 14.6275 13.2907 14.6275 13.7346Z" fill="url(#paint57_linear_1434_6086)"/>
<path fill-rule="evenodd" clip-rule="evenodd" d="M14.6276 14.0533C14.6276 14.0533 14.2307 11.4144 13.288 11.5377C12.4693 11.6611 12.2212 13.412 12.2212 13.412C12.2212 13.412 11.7747 13.3874 11.3281 12.8941C11.3281 12.8941 11.7002 12.8448 11.9731 12.7462C11.9731 12.7462 12.2708 11.1678 12.9655 10.8719C13.6849 10.5759 14.7021 12.5242 14.6276 14.0533Z" fill="url(#paint58_linear_1434_6086)"/>
<path d="M13.7852 19.4792C13.7852 19.4792 14.1573 19.5778 14.3558 19.8245C14.5542 20.0711 14.6038 20.4163 15.1744 20.515C15.7202 20.6136 17.8289 20.4657 19.7392 18.2461C19.7392 18.2461 18.5484 18.838 17.2335 18.8873C15.9187 18.9366 15.0008 19.2326 14.6286 19.3805C14.2565 19.5532 13.7852 19.4792 13.7852 19.4792Z" fill="url(#paint59_linear_1434_6086)"/>
<path d="M13.685 19.4558C13.685 19.4558 13.9579 19.5298 14.3548 19.4558C14.7517 19.3818 14.8013 18.8886 15.8681 18.7899C16.9349 18.6666 18.2001 18.7652 18.8451 18.5926C19.4901 18.42 19.8374 18.0254 19.8374 18.0254H20.0111C20.0111 18.0254 19.5894 18.5186 18.2001 18.9379C16.8108 19.3325 14.6525 19.5791 14.2556 19.5791C13.8586 19.5544 13.6602 19.5298 13.6602 19.5298L13.685 19.4558Z" fill="url(#paint60_linear_1434_6086)"/>
<path fill-rule="evenodd" clip-rule="evenodd" d="M20.236 13.6834C20.236 13.856 20.0872 13.9793 19.9383 13.9793C19.7647 13.9793 19.6406 13.8314 19.6406 13.6834C19.6406 13.5108 19.7895 13.3875 19.9383 13.3875C20.0872 13.3628 20.236 13.5108 20.236 13.6834Z" fill="white"/>
<path fill-rule="evenodd" clip-rule="evenodd" d="M13.2874 14.5467C13.3122 14.7193 13.1882 14.8673 13.0145 14.8919C12.8409 14.9166 12.692 14.7933 12.6672 14.6207C12.6424 14.448 12.7665 14.3001 12.9401 14.2754C13.1138 14.2754 13.2626 14.3987 13.2874 14.5467Z" fill="white"/>
<path fill-rule="evenodd" clip-rule="evenodd" d="M25.9141 17.2593C25.9141 17.2593 27.2785 15.5083 28.5934 15.2617C28.5934 15.2617 29.1143 15.8536 29.0647 16.7414C29.0647 16.7414 28.8662 15.8289 28.4693 15.6316C28.4693 15.6316 28.3701 15.6563 28.122 15.7796C27.7499 15.9276 27.0552 16.3468 25.9141 17.2593Z" fill="#F3764E"/>
<path fill-rule="evenodd" clip-rule="evenodd" d="M27.1324 16.2485C27.1324 16.2485 28.0999 16.1992 28.3232 16.2485C28.5465 16.2978 28.6705 17.5062 28.3232 17.9748C27.9759 18.4434 27.5293 18.1474 26.9339 18.1228C26.3385 18.0981 25.9416 18.2461 25.9416 18.2461C25.9416 18.2461 25.6687 17.5802 25.9416 17.2596C26.1897 16.939 27.1324 16.2485 27.1324 16.2485Z" fill="#F3764E"/>
<path fill-rule="evenodd" clip-rule="evenodd" d="M19.7383 0.587891C19.7383 0.587891 23.4595 6.18613 25.7915 8.06042C28.1235 9.93472 29.0662 9.5648 29.0662 9.5648C29.0662 9.5648 27.4289 12.8202 24.948 11.1678C22.4672 9.51547 21.0283 2.43753 19.7383 0.587891Z" fill="url(#paint61_linear_1434_6086)"/>
<path fill-rule="evenodd" clip-rule="evenodd" d="M20.3125 0.810547C20.3125 0.810547 21.1808 2.95613 23.5128 4.75644C25.8696 6.55676 28.9706 6.55676 28.9706 6.55676C28.9706 6.55676 28.8714 6.18683 28.6481 5.91555C28.6481 5.91555 24.4803 4.95374 22.7437 3.49869C20.9823 2.04364 20.5854 1.00784 20.5854 1.00784L20.3125 0.810547Z" fill="url(#paint62_linear_1434_6086)"/>
<path fill-rule="evenodd" clip-rule="evenodd" d="M18.3984 0.0213902C18.3984 0.0213902 19.5892 -0.422523 20.7304 2.73419C21.8716 5.89091 22.7895 9.88612 24.9478 11.1685C27.1062 12.451 28.5202 10.3794 28.5202 10.3794C28.5202 10.3794 27.2302 12.229 24.6997 10.4533C22.1197 8.62837 22.0205 0.0213902 18.3984 0.0213902Z" fill="url(#paint63_linear_1434_6086)"/>
<path fill-rule="evenodd" clip-rule="evenodd" d="M15.4958 3.74578C15.4958 3.74578 15.0989 0.958994 16.9843 0.317786C18.8697 -0.323422 19.862 0.860346 20.2342 2.80863C20.5815 4.78158 21.1025 5.94068 21.1025 5.94068C21.1025 5.94068 20.5071 4.75692 19.9365 2.75931C19.3659 0.761699 17.6541 0.169815 16.5625 0.983656C15.471 1.7975 15.4958 3.74578 15.4958 3.74578Z" fill="url(#paint64_linear_1434_6086)"/>
<path fill-rule="evenodd" clip-rule="evenodd" d="M31.4477 8.06055C31.4477 8.06055 33.3579 9.6389 31.8942 18.7638C30.4305 27.8887 33.9782 31.2673 34.1518 34.6953C34.3255 38.148 30.9763 39.8743 30.9763 39.8743L30.8275 39.3071C30.8275 39.3071 33.5812 38.1726 33.4076 34.6953C33.2339 31.218 30.3065 27.3954 30.7779 21.3779C31.1996 15.3604 32.9114 12.771 31.4477 8.06055Z" fill="url(#paint65_linear_1434_6086)"/>
<path fill-rule="evenodd" clip-rule="evenodd" d="M39.2373 40.985L37.1534 43.1059C37.1534 43.1059 35.4912 40.1218 35.3672 36.6692L36.1114 35.1895L36.4836 35.2634C37.203 39.382 39.014 40.7137 39.014 40.7137C39.3117 39.9245 39.2621 38.9134 39.2373 38.7161C39.411 39.6039 39.2373 40.985 39.2373 40.985Z" fill="url(#paint66_linear_1434_6086)"/>
<path opacity="0.4" fill-rule="evenodd" clip-rule="evenodd" d="M10.9808 32.2303L9.71561 32.4523C9.71561 32.4523 11.1049 33.9566 11.3282 34.7211C11.3282 34.7211 9.41791 35.9542 8.5 37.4833C8.5 37.4833 9.3931 41.3059 11.4026 42.7856V37.2366L12.4942 31.7617L10.9808 32.2303Z" fill="#6F1D77"/>
<path opacity="0.4" fill-rule="evenodd" clip-rule="evenodd" d="M24.1782 28.9004L26.2373 30.676C26.2373 30.676 23.5828 32.501 21.6477 32.8463C21.6477 32.8463 22.7393 35.3618 22.8633 36.2743C22.8633 36.2743 16.686 39.4063 14.9495 40.2942C13.2129 41.2066 12.0469 42.1685 12.0469 42.1685L18.1497 34.6959L24.1782 28.9004Z" fill="#6F1D77"/>
<path fill-rule="evenodd" clip-rule="evenodd" d="M11.5269 43.0799C11.5269 43.0799 9.4926 39.4299 9.34375 35.3607C9.34375 35.3607 10.9315 34.029 11.8742 33.5358C11.8742 33.5358 11.2044 32.352 9.83992 32.0314C9.83992 32.0314 12.3456 29.9845 13.189 29.1706C14.0325 28.3568 14.8016 27.7402 14.8016 27.7402L15.5955 28.1102L13.6356 29.3433C13.6356 29.3433 11.6757 36.4952 11.6509 37.8023C11.6261 39.1093 12.3952 40.663 12.3952 40.663L11.5269 43.0799Z" fill="url(#paint67_linear_1434_6086)"/>
<path fill-rule="evenodd" clip-rule="evenodd" d="M11.1055 43.4742C11.1055 43.4742 12.4203 39.7996 14.3306 37.3334C16.2408 34.8672 23.0135 28.2085 23.2864 27.7893C23.5593 27.3454 23.6089 26.5562 23.6089 26.5562L23.4352 26.3836L23.9562 26.2109C23.9562 26.2109 25.3206 28.8251 26.5611 29.9842C26.5611 29.9842 24.0802 31.1926 21.525 31.9818C21.525 31.9818 23.0383 33.9301 23.2864 35.4098C23.2864 35.4098 18.548 37.6294 15.9431 39.3064C13.3382 40.9834 12.4203 41.7726 12.2467 41.9945C12.0978 42.1918 11.1055 43.4742 11.1055 43.4742Z" fill="url(#paint68_linear_1434_6086)"/>
<path fill-rule="evenodd" clip-rule="evenodd" d="M41.3204 24.1172C41.3204 24.1172 41.0723 25.4243 40.8242 26.2874L41.494 24.6104L41.3204 24.5858V24.1172Z" fill="#F17C57"/>
<path fill-rule="evenodd" clip-rule="evenodd" d="M42.7853 25.1016C42.7853 25.1016 42.2891 26.5813 41.793 27.5924C41.793 27.5924 42.5868 26.3593 42.9838 25.4962L42.7605 25.4468V25.1016H42.7853Z" fill="#F17C57"/>
<path fill-rule="evenodd" clip-rule="evenodd" d="M25.3459 38.4694L23.8574 37.2363C23.8574 37.2363 21.5999 42.1934 21.2773 45.1528C22.2201 42.6373 23.138 40.8123 24.3784 39.0366L25.3459 38.4694Z" fill="#321833"/>
</g>
</g>
<path d="M62.254 32.336C59.55 32.336 57.486 31.584 56.062 30.08C54.654 28.576 53.95 26.44 53.95 23.672C53.95 22.296 54.166 21.072 54.598 20C55.03 18.912 55.622 18 56.374 17.264C57.126 16.512 58.022 15.944 59.062 15.56C60.102 15.176 61.23 14.984 62.446 14.984C63.15 14.984 63.79 15.04 64.366 15.152C64.942 15.248 65.446 15.368 65.878 15.512C66.31 15.64 66.67 15.776 66.958 15.92C67.246 16.064 67.454 16.176 67.582 16.256L66.502 19.28C65.99 19.008 65.39 18.776 64.702 18.584C64.03 18.392 63.262 18.296 62.398 18.296C61.822 18.296 61.254 18.392 60.694 18.584C60.15 18.776 59.662 19.088 59.23 19.52C58.814 19.936 58.478 20.48 58.222 21.152C57.966 21.824 57.838 22.64 57.838 23.6C57.838 24.368 57.918 25.088 58.078 25.76C58.254 26.416 58.526 26.984 58.894 27.464C59.278 27.944 59.774 28.328 60.382 28.616C60.99 28.888 61.726 29.024 62.59 29.024C63.134 29.024 63.622 28.992 64.054 28.928C64.486 28.864 64.87 28.792 65.206 28.712C65.542 28.616 65.838 28.512 66.094 28.4C66.35 28.288 66.582 28.184 66.79 28.088L67.822 31.088C67.294 31.408 66.55 31.696 65.59 31.952C64.63 32.208 63.518 32.336 62.254 32.336ZM80.2645 15.368H84.0085V32H80.2645V24.944H73.9765V32H70.2325V15.368H73.9765V21.728H80.2645V15.368Z" fill="#E5476D"/>
<path d="M87.8575 32V15.368H99.0895V18.512H91.6015V21.776H98.2495V24.848H91.6015V28.856H99.6415V32H87.8575ZM102.412 32V15.368H113.548V18.512H106.156V21.992H112.732V25.136H106.156V32H102.412Z" fill="#080708"/>
<path d="M57.896 47.192C57.224 47.192 56.632 47.0853 56.12 46.872C55.6187 46.6587 55.192 46.36 54.84 45.976C54.4987 45.592 54.2427 45.1387 54.072 44.616C53.9013 44.0827 53.816 43.496 53.816 42.856C53.816 42.216 53.9067 41.6293 54.088 41.096C54.28 40.5627 54.5467 40.104 54.888 39.72C55.2293 39.3253 55.6453 39.0213 56.136 38.808C56.6373 38.584 57.192 38.472 57.8 38.472C58.1733 38.472 58.5467 38.504 58.92 38.568C59.2933 38.632 59.6507 38.7333 59.992 38.872L59.656 40.136C59.432 40.0293 59.1707 39.944 58.872 39.88C58.584 39.816 58.2747 39.784 57.944 39.784C57.112 39.784 56.472 40.0453 56.024 40.568C55.5867 41.0907 55.368 41.8533 55.368 42.856C55.368 43.304 55.416 43.7147 55.512 44.088C55.6187 44.4613 55.7787 44.7813 55.992 45.048C56.216 45.3147 56.4987 45.5227 56.84 45.672C57.1813 45.8107 57.5973 45.88 58.088 45.88C58.4827 45.88 58.84 45.8427 59.16 45.768C59.48 45.6933 59.7307 45.6133 59.912 45.528L60.12 46.776C60.0347 46.8293 59.912 46.8827 59.752 46.936C59.592 46.9787 59.4107 47.016 59.208 47.048C59.0053 47.0907 58.7867 47.1227 58.552 47.144C58.328 47.176 58.1093 47.192 57.896 47.192ZM64.5335 45.928C64.8855 45.928 65.1948 45.9227 65.4615 45.912C65.7388 45.8907 65.9682 45.8587 66.1495 45.816V43.336C66.0428 43.2827 65.8668 43.24 65.6215 43.208C65.3868 43.1653 65.0988 43.144 64.7575 43.144C64.5335 43.144 64.2935 43.16 64.0375 43.192C63.7922 43.224 63.5628 43.2933 63.3495 43.4C63.1468 43.496 62.9762 43.6347 62.8375 43.816C62.6988 43.9867 62.6295 44.216 62.6295 44.504C62.6295 45.0373 62.8002 45.4107 63.1415 45.624C63.4828 45.8267 63.9468 45.928 64.5335 45.928ZM64.4055 38.472C65.0028 38.472 65.5042 38.552 65.9095 38.712C66.3255 38.8613 66.6562 39.08 66.9015 39.368C67.1575 39.6453 67.3388 39.9813 67.4455 40.376C67.5522 40.76 67.6055 41.1867 67.6055 41.656V46.856C67.4775 46.8773 67.2962 46.9093 67.0615 46.952C66.8375 46.984 66.5815 47.016 66.2935 47.048C66.0055 47.08 65.6908 47.1067 65.3495 47.128C65.0188 47.16 64.6882 47.176 64.3575 47.176C63.8882 47.176 63.4562 47.128 63.0615 47.032C62.6668 46.936 62.3255 46.7867 62.0375 46.584C61.7495 46.3707 61.5255 46.0933 61.3655 45.752C61.2055 45.4107 61.1255 45 61.1255 44.52C61.1255 44.0613 61.2162 43.6667 61.3975 43.336C61.5895 43.0053 61.8455 42.7387 62.1655 42.536C62.4855 42.3333 62.8588 42.184 63.2855 42.088C63.7122 41.992 64.1602 41.944 64.6295 41.944C64.7788 41.944 64.9335 41.9547 65.0935 41.976C65.2535 41.9867 65.4028 42.008 65.5415 42.04C65.6908 42.0613 65.8188 42.0827 65.9255 42.104C66.0322 42.1253 66.1068 42.1413 66.1495 42.152V41.736C66.1495 41.4907 66.1228 41.2507 66.0695 41.016C66.0162 40.7707 65.9202 40.5573 65.7815 40.376C65.6428 40.184 65.4508 40.0347 65.2055 39.928C64.9708 39.8107 64.6615 39.752 64.2775 39.752C63.7868 39.752 63.3548 39.7893 62.9815 39.864C62.6188 39.928 62.3468 39.9973 62.1655 40.072L61.9895 38.84C62.1815 38.7547 62.5015 38.6747 62.9495 38.6C63.3975 38.5147 63.8828 38.472 64.4055 38.472ZM72.0129 45.928C72.6209 45.928 73.0689 45.848 73.3569 45.688C73.6555 45.528 73.8049 45.272 73.8049 44.92C73.8049 44.5573 73.6609 44.2693 73.3729 44.056C73.0849 43.8427 72.6102 43.6027 71.9489 43.336C71.6289 43.208 71.3195 43.08 71.0209 42.952C70.7329 42.8133 70.4822 42.6533 70.2689 42.472C70.0555 42.2907 69.8849 42.072 69.7569 41.816C69.6289 41.56 69.5649 41.2453 69.5649 40.872C69.5649 40.136 69.8369 39.5547 70.3809 39.128C70.9249 38.6907 71.6662 38.472 72.6049 38.472C72.8395 38.472 73.0742 38.488 73.3089 38.52C73.5435 38.5413 73.7622 38.5733 73.9649 38.616C74.1675 38.648 74.3435 38.6853 74.4929 38.728C74.6529 38.7707 74.7755 38.808 74.8609 38.84L74.5889 40.12C74.4289 40.0347 74.1782 39.9493 73.8369 39.864C73.4955 39.768 73.0849 39.72 72.6049 39.72C72.1889 39.72 71.8262 39.8053 71.5169 39.976C71.2075 40.136 71.0529 40.392 71.0529 40.744C71.0529 40.9253 71.0849 41.0853 71.1489 41.224C71.2235 41.3627 71.3302 41.4907 71.4689 41.608C71.6182 41.7147 71.7995 41.816 72.0129 41.912C72.2262 42.008 72.4822 42.1093 72.7809 42.216C73.1755 42.3653 73.5275 42.5147 73.8369 42.664C74.1462 42.8027 74.4075 42.968 74.6209 43.16C74.8449 43.352 75.0155 43.5867 75.1329 43.864C75.2502 44.1307 75.3089 44.4613 75.3089 44.856C75.3089 45.624 75.0209 46.2053 74.4449 46.6C73.8795 46.9947 73.0689 47.192 72.0129 47.192C71.2769 47.192 70.7009 47.128 70.2849 47C69.8689 46.8827 69.5862 46.792 69.4369 46.728L69.7089 45.448C69.8795 45.512 70.1515 45.608 70.5249 45.736C70.8982 45.864 71.3942 45.928 72.0129 45.928ZM78.7055 47H77.2175V38.68H78.7055V47ZM77.9535 37.176C77.6868 37.176 77.4575 37.0907 77.2655 36.92C77.0842 36.7387 76.9935 36.4987 76.9935 36.2C76.9935 35.9013 77.0842 35.6667 77.2655 35.496C77.4575 35.3147 77.6868 35.224 77.9535 35.224C78.2202 35.224 78.4442 35.3147 78.6255 35.496C78.8175 35.6667 78.9135 35.9013 78.9135 36.2C78.9135 36.4987 78.8175 36.7387 78.6255 36.92C78.4442 37.0907 78.2202 37.176 77.9535 37.176ZM81.2644 38.92C81.6057 38.8347 82.059 38.744 82.6244 38.648C83.1897 38.552 83.8404 38.504 84.5764 38.504C85.2377 38.504 85.787 38.6 86.2244 38.792C86.6617 38.9733 87.0084 39.2347 87.2644 39.576C87.531 39.9067 87.7177 40.3067 87.8244 40.776C87.931 41.2453 87.9844 41.7627 87.9844 42.328V47H86.4964V42.648C86.4964 42.136 86.459 41.6987 86.3844 41.336C86.3204 40.9733 86.2084 40.68 86.0484 40.456C85.8884 40.232 85.675 40.072 85.4084 39.976C85.1417 39.8693 84.811 39.816 84.4164 39.816C84.2564 39.816 84.091 39.8213 83.9204 39.832C83.7497 39.8427 83.5844 39.8587 83.4244 39.88C83.275 39.8907 83.1364 39.9067 83.0084 39.928C82.891 39.9493 82.8057 39.9653 82.7524 39.976V47H81.2644V38.92ZM97.7959 42.84C97.7959 43.5013 97.6999 44.0987 97.5079 44.632C97.3159 45.1653 97.0439 45.624 96.6919 46.008C96.3505 46.392 95.9399 46.6907 95.4599 46.904C94.9799 47.1067 94.4572 47.208 93.8919 47.208C93.3265 47.208 92.8039 47.1067 92.3239 46.904C91.8439 46.6907 91.4279 46.392 91.0759 46.008C90.7345 45.624 90.4679 45.1653 90.2759 44.632C90.0839 44.0987 89.9879 43.5013 89.9879 42.84C89.9879 42.1893 90.0839 41.5973 90.2759 41.064C90.4679 40.52 90.7345 40.056 91.0759 39.672C91.4279 39.288 91.8439 38.9947 92.3239 38.792C92.8039 38.5787 93.3265 38.472 93.8919 38.472C94.4572 38.472 94.9799 38.5787 95.4599 38.792C95.9399 38.9947 96.3505 39.288 96.6919 39.672C97.0439 40.056 97.3159 40.52 97.5079 41.064C97.6999 41.5973 97.7959 42.1893 97.7959 42.84ZM96.2439 42.84C96.2439 41.9013 96.0305 41.16 95.6039 40.616C95.1879 40.0613 94.6172 39.784 93.8919 39.784C93.1665 39.784 92.5905 40.0613 92.1639 40.616C91.7479 41.16 91.5399 41.9013 91.5399 42.84C91.5399 43.7787 91.7479 44.5253 92.1639 45.08C92.5905 45.624 93.1665 45.896 93.8919 45.896C94.6172 45.896 95.1879 45.624 95.6039 45.08C96.0305 44.5253 96.2439 43.7787 96.2439 42.84Z" fill="#080708"/>
<defs>
<linearGradient id="paint0_linear_1434_6086" x1="-18.5" y1="42.5" x2="47.4999" y2="41.5449" gradientUnits="userSpaceOnUse">
<stop stop-color="#231845"/>
<stop offset="1" stop-color="#7D53FE"/>
</linearGradient>
<linearGradient id="paint1_linear_1434_6086" x1="27.9107" y1="40.6775" x2="27.9107" y2="7.58242" gradientUnits="userSpaceOnUse">
<stop offset="0.0111732" stop-color="#772438"/>
<stop offset="0.9944" stop-color="#994540"/>
</linearGradient>
<linearGradient id="paint2_linear_1434_6086" x1="13.9811" y1="12.8222" x2="13.9811" y2="1.2108" gradientUnits="userSpaceOnUse">
<stop offset="0.0111732" stop-color="#772438"/>
<stop offset="0.9944" stop-color="#994540"/>
</linearGradient>
<linearGradient id="paint3_linear_1434_6086" x1="12.4898" y1="12.8926" x2="10.1877" y2="4.70371" gradientUnits="userSpaceOnUse">
<stop offset="0.0111732" stop-color="#B45E52"/>
<stop offset="0.9944" stop-color="#C16140"/>
</linearGradient>
<radialGradient id="paint4_radial_1434_6086" cx="0" cy="0" r="1" gradientUnits="userSpaceOnUse" gradientTransform="translate(38.578 39.8848) scale(0.93054 0.925041)">
<stop stop-color="#B3819D"/>
<stop offset="1" stop-color="#785CA6"/>
</radialGradient>
<linearGradient id="paint5_linear_1434_6086" x1="-13.3441" y1="56.7959" x2="11.5366" y2="56.7959" gradientUnits="userSpaceOnUse">
<stop stop-color="#FF5C1B"/>
<stop offset="0.998" stop-color="#E03347"/>
</linearGradient>
<linearGradient id="paint6_linear_1434_6086" x1="38.9012" y1="24.6431" x2="38.9012" y2="16.9311" gradientUnits="userSpaceOnUse">
<stop offset="0.0159875" stop-color="#FFAE78"/>
<stop offset="1" stop-color="#FF957C"/>
</linearGradient>
<linearGradient id="paint7_linear_1434_6086" x1="19.104" y1="31.7514" x2="19.104" y2="21.7712" gradientUnits="userSpaceOnUse">
<stop offset="0.0215741" stop-color="#FF8359"/>
<stop offset="1" stop-color="#FF8B7C"/>
</linearGradient>
<linearGradient id="paint8_linear_1434_6086" x1="3.83354" y1="66.8807" x2="3.83354" y2="46.9089" gradientUnits="userSpaceOnUse">
<stop offset="0.00558659" stop-color="#BD89C4"/>
<stop offset="0.984" stop-color="#F0C2D6"/>
</linearGradient>
<linearGradient id="paint9_linear_1434_6086" x1="20.8514" y1="24.4552" x2="17.7012" y2="2.99904" gradientUnits="userSpaceOnUse">
<stop offset="0.0159875" stop-color="#FFAE78"/>
<stop offset="1" stop-color="#FF957C"/>
</linearGradient>
<linearGradient id="paint10_linear_1434_6086" x1="27.4802" y1="19.8142" x2="27.4802" y2="14.0516" gradientUnits="userSpaceOnUse">
<stop offset="0.0215741" stop-color="#FF8359"/>
<stop offset="1" stop-color="#FF8B7C"/>
</linearGradient>
<linearGradient id="paint11_linear_1434_6086" x1="39.556" y1="44.292" x2="39.556" y2="22.9649" gradientUnits="userSpaceOnUse">
<stop offset="0.0159875" stop-color="#FFAE78"/>
<stop offset="1" stop-color="#FF957C"/>
</linearGradient>
<linearGradient id="paint12_linear_1434_6086" x1="41.7006" y1="27.9934" x2="41.7006" y2="23.5677" gradientUnits="userSpaceOnUse">
<stop offset="0.0159875" stop-color="#FFAE78"/>
<stop offset="1" stop-color="#FF957C"/>
</linearGradient>
<linearGradient id="paint13_linear_1434_6086" x1="20.7079" y1="9.17081" x2="20.7079" y2="5.95023" gradientUnits="userSpaceOnUse">
<stop offset="0.0111732" stop-color="#772438"/>
<stop offset="0.9944" stop-color="#994540"/>
</linearGradient>
<linearGradient id="paint14_linear_1434_6086" x1="12.9939" y1="11.54" x2="12.9939" y2="8.4498" gradientUnits="userSpaceOnUse">
<stop offset="0.0111732" stop-color="#772438"/>
<stop offset="0.9944" stop-color="#994540"/>
</linearGradient>
<linearGradient id="paint15_linear_1434_6086" x1="21.2892" y1="15.2441" x2="21.2892" y2="10.3211" gradientUnits="userSpaceOnUse">
<stop stop-color="#E1DBFB"/>
<stop offset="1" stop-color="white"/>
</linearGradient>
<linearGradient id="paint16_linear_1434_6086" x1="13.4218" y1="15.8654" x2="13.4218" y2="11.2164" gradientUnits="userSpaceOnUse">
<stop stop-color="#E1DBFB"/>
<stop offset="1" stop-color="white"/>
</linearGradient>
<linearGradient id="paint17_linear_1434_6086" x1="23.0998" y1="16.1094" x2="23.0998" y2="0.0340597" gradientUnits="userSpaceOnUse">
<stop offset="0.0111732" stop-color="#772438"/>
<stop offset="0.9944" stop-color="#994540"/>
</linearGradient>
<linearGradient id="paint18_linear_1434_6086" x1="21.692" y1="10.8434" x2="20.5451" y2="0.45776" gradientUnits="userSpaceOnUse">
<stop offset="0.0111732" stop-color="#512438"/>
<stop offset="0.9944" stop-color="#6D1D20"/>
</linearGradient>
<linearGradient id="paint19_linear_1434_6086" x1="21.803" y1="14.0451" x2="21.803" y2="9.7995" gradientUnits="userSpaceOnUse">
<stop stop-color="#403060"/>
<stop offset="0.9944" stop-color="#2A0E51"/>
</linearGradient>
<linearGradient id="paint20_linear_1434_6086" x1="21.5692" y1="14.5323" x2="21.5692" y2="10.9815" gradientUnits="userSpaceOnUse">
<stop offset="0.0223464" stop-color="#85757A"/>
<stop offset="0.9944" stop-color="#563757"/>
</linearGradient>
<linearGradient id="paint21_linear_1434_6086" x1="21.5336" y1="13.9947" x2="21.5336" y2="11.5715" gradientUnits="userSpaceOnUse">
<stop stop-color="#403060"/>
<stop offset="0.9944" stop-color="#2A0E51"/>
</linearGradient>
<linearGradient id="paint22_linear_1434_6086" x1="13.7109" y1="15.3234" x2="13.7109" y2="11.7725" gradientUnits="userSpaceOnUse">
<stop offset="0.0223464" stop-color="#85757A"/>
<stop offset="0.9944" stop-color="#563757"/>
</linearGradient>
<linearGradient id="paint23_linear_1434_6086" x1="13.2345" y1="13.5427" x2="14.6293" y2="13.5427" gradientUnits="userSpaceOnUse">
<stop stop-color="#382160"/>
<stop offset="0.9944" stop-color="#2A0E51"/>
</linearGradient>
<linearGradient id="paint24_linear_1434_6086" x1="12.9732" y1="14.0513" x2="12.9732" y2="10.8383" gradientUnits="userSpaceOnUse">
<stop stop-color="#403060"/>
<stop offset="0.9944" stop-color="#2A0E51"/>
</linearGradient>
<linearGradient id="paint25_linear_1434_6086" x1="16.7583" y1="20.5297" x2="16.7583" y2="18.2317" gradientUnits="userSpaceOnUse">
<stop stop-color="#E76C42"/>
<stop offset="0.9944" stop-color="#AE2545"/>
</linearGradient>
<linearGradient id="paint26_linear_1434_6086" x1="16.8237" y1="19.5475" x2="16.8237" y2="18.0132" gradientUnits="userSpaceOnUse">
<stop stop-color="#A12F42"/>
<stop offset="0.9944" stop-color="#811945"/>
</linearGradient>
<linearGradient id="paint27_linear_1434_6086" x1="24.4002" y1="11.6421" x2="24.4002" y2="0.597142" gradientUnits="userSpaceOnUse">
<stop offset="0.0111732" stop-color="#772438"/>
<stop offset="0.9944" stop-color="#994540"/>
</linearGradient>
<linearGradient id="paint28_linear_1434_6086" x1="24.2085" y1="12.6786" x2="21.2511" y2="0.792282" gradientUnits="userSpaceOnUse">
<stop offset="0.0111732" stop-color="#B45E52"/>
<stop offset="0.9944" stop-color="#C16140"/>
</linearGradient>
<linearGradient id="paint29_linear_1434_6086" x1="32.7599" y1="37.7124" x2="19.1823" y2="27.9428" gradientUnits="userSpaceOnUse">
<stop offset="0.0111732" stop-color="#B45E52"/>
<stop offset="0.9944" stop-color="#C16140"/>
</linearGradient>
<linearGradient id="paint30_linear_1434_6086" x1="30.3062" y1="46.5486" x2="30.3062" y2="40.4338" gradientUnits="userSpaceOnUse">
<stop stop-color="#5B4365"/>
<stop offset="0.9777" stop-color="#70517C"/>
</linearGradient>
<linearGradient id="paint31_linear_1434_6086" x1="37.3518" y1="43.1247" x2="37.3518" y2="35.21" gradientUnits="userSpaceOnUse">
<stop stop-color="#5B4365"/>
<stop offset="0.9777" stop-color="#70517C"/>
</linearGradient>
<linearGradient id="paint32_linear_1434_6086" x1="12.4675" y1="43.0857" x2="12.4675" y2="27.7498" gradientUnits="userSpaceOnUse">
<stop stop-color="#5B4365"/>
<stop offset="0.9777" stop-color="#70517C"/>
</linearGradient>
<linearGradient id="paint33_linear_1434_6086" x1="18.8047" y1="43.4876" x2="18.8047" y2="26.2246" gradientUnits="userSpaceOnUse">
<stop stop-color="#5B4365"/>
<stop offset="0.9777" stop-color="#70517C"/>
</linearGradient>
<linearGradient id="paint34_linear_1434_6086" x1="27.9107" y1="40.6775" x2="27.9107" y2="7.58242" gradientUnits="userSpaceOnUse">
<stop offset="0.0111732" stop-color="#772438"/>
<stop offset="0.9944" stop-color="#994540"/>
</linearGradient>
<linearGradient id="paint35_linear_1434_6086" x1="13.9811" y1="12.8222" x2="13.9811" y2="1.2108" gradientUnits="userSpaceOnUse">
<stop offset="0.0111732" stop-color="#772438"/>
<stop offset="0.9944" stop-color="#994540"/>
</linearGradient>
<linearGradient id="paint36_linear_1434_6086" x1="12.4898" y1="12.8945" x2="10.1877" y2="4.70567" gradientUnits="userSpaceOnUse">
<stop offset="0.0111732" stop-color="#B45E52"/>
<stop offset="0.9944" stop-color="#C16140"/>
</linearGradient>
<radialGradient id="paint37_radial_1434_6086" cx="0" cy="0" r="1" gradientUnits="userSpaceOnUse" gradientTransform="translate(38.578 39.8867) scale(0.930538 0.92504)">
<stop stop-color="#B3819D"/>
<stop offset="1" stop-color="#785CA6"/>
</radialGradient>
<linearGradient id="paint38_linear_1434_6086" x1="38.9012" y1="24.6431" x2="38.9012" y2="16.9311" gradientUnits="userSpaceOnUse">
<stop offset="0.0159875" stop-color="#FFAE78"/>
<stop offset="1" stop-color="#FF957C"/>
</linearGradient>
<linearGradient id="paint39_linear_1434_6086" x1="19.104" y1="31.7514" x2="19.104" y2="21.7712" gradientUnits="userSpaceOnUse">
<stop offset="0.0215741" stop-color="#FF8359"/>
<stop offset="1" stop-color="#FF8B7C"/>
</linearGradient>
<linearGradient id="paint40_linear_1434_6086" x1="20.8514" y1="24.4552" x2="17.7012" y2="2.99904" gradientUnits="userSpaceOnUse">
<stop offset="0.0159875" stop-color="#FFAE78"/>
<stop offset="1" stop-color="#FF957C"/>
</linearGradient>
<linearGradient id="paint41_linear_1434_6086" x1="27.4802" y1="19.8142" x2="27.4802" y2="14.0516" gradientUnits="userSpaceOnUse">
<stop offset="0.0215741" stop-color="#FF8359"/>
<stop offset="1" stop-color="#FF8B7C"/>
</linearGradient>
<linearGradient id="paint42_linear_1434_6086" x1="39.556" y1="44.292" x2="39.556" y2="22.9649" gradientUnits="userSpaceOnUse">
<stop offset="0.0159875" stop-color="#FFAE78"/>
<stop offset="1" stop-color="#FF957C"/>
</linearGradient>
<linearGradient id="paint43_linear_1434_6086" x1="41.7006" y1="27.9934" x2="41.7006" y2="23.5677" gradientUnits="userSpaceOnUse">
<stop offset="0.0159875" stop-color="#FFAE78"/>
<stop offset="1" stop-color="#FF957C"/>
</linearGradient>
<linearGradient id="paint44_linear_1434_6086" x1="17.0112" y1="34.7722" x2="17.0112" y2="30.0815" gradientUnits="userSpaceOnUse">
<stop stop-color="#EDE3FC"/>
<stop offset="1" stop-color="white"/>
</linearGradient>
<linearGradient id="paint45_linear_1434_6086" x1="17.7807" y1="40.9798" x2="17.7807" y2="26.0929" gradientUnits="userSpaceOnUse">
<stop stop-color="#EDE3FC"/>
<stop offset="1" stop-color="white"/>
</linearGradient>
<linearGradient id="paint46_linear_1434_6086" x1="18.6783" y1="35.7793" x2="18.6783" y2="26.546" gradientUnits="userSpaceOnUse">
<stop stop-color="#EDE3FC"/>
<stop offset="1" stop-color="white"/>
</linearGradient>
<linearGradient id="paint47_linear_1434_6086" x1="20.7079" y1="9.17081" x2="20.7079" y2="5.95023" gradientUnits="userSpaceOnUse">
<stop offset="0.0111732" stop-color="#772438"/>
<stop offset="0.9944" stop-color="#994540"/>
</linearGradient>
<linearGradient id="paint48_linear_1434_6086" x1="12.9939" y1="11.54" x2="12.9939" y2="8.4498" gradientUnits="userSpaceOnUse">
<stop offset="0.0111732" stop-color="#772438"/>
<stop offset="0.9944" stop-color="#994540"/>
</linearGradient>
<linearGradient id="paint49_linear_1434_6086" x1="21.2892" y1="15.2441" x2="21.2892" y2="10.3211" gradientUnits="userSpaceOnUse">
<stop stop-color="#E1DBFB"/>
<stop offset="1" stop-color="white"/>
</linearGradient>
<linearGradient id="paint50_linear_1434_6086" x1="13.4179" y1="15.8654" x2="13.4179" y2="11.2164" gradientUnits="userSpaceOnUse">
<stop stop-color="#E1DBFB"/>
<stop offset="1" stop-color="white"/>
</linearGradient>
<linearGradient id="paint51_linear_1434_6086" x1="23.0998" y1="16.1075" x2="23.0998" y2="0.0321066" gradientUnits="userSpaceOnUse">
<stop offset="0.0111732" stop-color="#772438"/>
<stop offset="0.9944" stop-color="#994540"/>
</linearGradient>
<linearGradient id="paint52_linear_1434_6086" x1="21.692" y1="10.8434" x2="20.5451" y2="0.457761" gradientUnits="userSpaceOnUse">
<stop offset="0.0111732" stop-color="#512438"/>
<stop offset="0.9944" stop-color="#6D1D20"/>
</linearGradient>
<linearGradient id="paint53_linear_1434_6086" x1="21.7991" y1="14.0471" x2="21.7991" y2="9.80146" gradientUnits="userSpaceOnUse">
<stop stop-color="#403060"/>
<stop offset="0.9944" stop-color="#2A0E51"/>
</linearGradient>
<linearGradient id="paint54_linear_1434_6086" x1="21.5731" y1="14.5323" x2="21.5731" y2="10.9815" gradientUnits="userSpaceOnUse">
<stop offset="0.0223464" stop-color="#85757A"/>
<stop offset="0.9944" stop-color="#563757"/>
</linearGradient>
<linearGradient id="paint55_linear_1434_6086" x1="21.5336" y1="13.9946" x2="21.5336" y2="11.5715" gradientUnits="userSpaceOnUse">
<stop stop-color="#403060"/>
<stop offset="0.9944" stop-color="#2A0E51"/>
</linearGradient>
<linearGradient id="paint56_linear_1434_6086" x1="13.7109" y1="15.3234" x2="13.7109" y2="11.7725" gradientUnits="userSpaceOnUse">
<stop offset="0.0223464" stop-color="#85757A"/>
<stop offset="0.9944" stop-color="#563757"/>
</linearGradient>
<linearGradient id="paint57_linear_1434_6086" x1="13.2345" y1="13.5427" x2="14.6293" y2="13.5427" gradientUnits="userSpaceOnUse">
<stop stop-color="#382160"/>
<stop offset="0.9944" stop-color="#2A0E51"/>
</linearGradient>
<linearGradient id="paint58_linear_1434_6086" x1="12.9732" y1="14.0513" x2="12.9732" y2="10.8383" gradientUnits="userSpaceOnUse">
<stop stop-color="#403060"/>
<stop offset="0.9944" stop-color="#2A0E51"/>
</linearGradient>
<linearGradient id="paint59_linear_1434_6086" x1="16.7583" y1="20.5297" x2="16.7583" y2="18.2317" gradientUnits="userSpaceOnUse">
<stop stop-color="#E76C42"/>
<stop offset="0.9944" stop-color="#AE2545"/>
</linearGradient>
<linearGradient id="paint60_linear_1434_6086" x1="16.8237" y1="19.5475" x2="16.8237" y2="18.0132" gradientUnits="userSpaceOnUse">
<stop stop-color="#A12F42"/>
<stop offset="0.9944" stop-color="#811945"/>
</linearGradient>
<linearGradient id="paint61_linear_1434_6086" x1="24.4002" y1="11.6401" x2="24.4002" y2="0.595189" gradientUnits="userSpaceOnUse">
<stop offset="0.0111732" stop-color="#772438"/>
<stop offset="0.9944" stop-color="#994540"/>
</linearGradient>
<linearGradient id="paint62_linear_1434_6086" x1="25.4326" y1="6.16628" x2="24.9229" y2="1.04413" gradientUnits="userSpaceOnUse">
<stop offset="0.0111732" stop-color="#B45E52"/>
<stop offset="0.9944" stop-color="#C16140"/>
</linearGradient>
<linearGradient id="paint63_linear_1434_6086" x1="24.2085" y1="12.6786" x2="21.2511" y2="0.792281" gradientUnits="userSpaceOnUse">
<stop offset="0.0111732" stop-color="#B45E52"/>
<stop offset="0.9944" stop-color="#C16140"/>
</linearGradient>
<linearGradient id="paint64_linear_1434_6086" x1="18.7971" y1="5.54668" x2="18.0115" y2="0.448142" gradientUnits="userSpaceOnUse">
<stop offset="0.0111732" stop-color="#B45E52"/>
<stop offset="0.9944" stop-color="#C16140"/>
</linearGradient>
<linearGradient id="paint65_linear_1434_6086" x1="32.756" y1="37.7124" x2="19.1784" y2="27.9428" gradientUnits="userSpaceOnUse">
<stop offset="0.0111732" stop-color="#B45E52"/>
<stop offset="0.9944" stop-color="#C16140"/>
</linearGradient>
<linearGradient id="paint66_linear_1434_6086" x1="37.3479" y1="43.1247" x2="37.3479" y2="35.21" gradientUnits="userSpaceOnUse">
<stop stop-color="#5B4365"/>
<stop offset="0.9777" stop-color="#70517C"/>
</linearGradient>
<linearGradient id="paint67_linear_1434_6086" x1="12.4675" y1="43.0838" x2="12.4675" y2="27.7479" gradientUnits="userSpaceOnUse">
<stop stop-color="#5B4365"/>
<stop offset="0.9777" stop-color="#70517C"/>
</linearGradient>
<linearGradient id="paint68_linear_1434_6086" x1="18.8008" y1="43.4876" x2="18.8008" y2="26.2246" gradientUnits="userSpaceOnUse">
<stop stop-color="#5B4365"/>
<stop offset="0.9777" stop-color="#70517C"/>
</linearGradient>
<clipPath id="clip0_1434_6086">
<rect width="47" height="54" fill="white"/>
</clipPath>
<clipPath id="clip1_1434_6086">
<rect width="57.7496" height="39.7497" fill="white" transform="translate(-14)"/>
</clipPath>
</defs>
</svg>
