<svg width="20" height="20" viewBox="0 0 20 20" fill="none" xmlns="http://www.w3.org/2000/svg">
<path d="M13.3033 5.02987C14.4541 3.87904 16.3191 3.87904 17.47 5.02987V5.02987C18.6208 6.18071 18.6208 8.04571 17.47 9.19654L12.5708 14.0957C11.42 15.2465 9.55497 15.2465 8.40414 14.0957V14.0957C7.25331 12.9449 7.25331 11.0799 8.40414 9.92904L9.13664 9.19654" stroke="#E5476D" stroke-linecap="round" stroke-linejoin="round"/>
<path d="M6.69654 15.8032C5.54571 16.9541 3.68071 16.9541 2.52987 15.8032V15.8032C1.37904 14.6524 1.37904 12.7874 2.52987 11.6366L7.42904 6.73739C8.57987 5.58656 10.4449 5.58656 11.5957 6.73739V6.73739C12.7465 7.88823 12.7465 9.75323 11.5957 10.9041L10.8332 11.6666" stroke="#E5476D" stroke-linecap="round" stroke-linejoin="round"/>
</svg>
