<svg width="91" height="114" viewBox="0 0 91 114" fill="none" xmlns="http://www.w3.org/2000/svg">
<g clip-path="url(#clip0_1916_60460)">
<path d="M-71.2643 38.871L8.61791 54.2248L18.1602 -44.5215L-15.783 -101.421L-39.9112 -114.065L-72.3549 -108.044C-72.3549 -108.044 -88.5767 -75.2292 -85.9867 -35.9414C-83.3966 3.34638 -76.717 32.8499 -71.2643 38.871Z" fill="url(#paint0_linear_1916_60460)"/>
<path d="M22.2013 -36.6421L21.8899 -34.2503L20.8873 -26.1743L20.7735 -24.6734C17.8951 -0.435749 14.6785 24.833 12.9239 37.6828C12.8214 39.0336 12.6011 40.2246 12.5214 41.2753L11.8872 46.209L-9.64454 16.5014L-2.44849 -78.3604C-2.44849 -78.3604 -24.2125 -111.86 -27.7786 -119.677C-30.2346 -124.996 -34.5345 -135.133 -37.2034 -141.072C-37.8764 -142.481 -38.2071 -143.261 -38.2071 -143.261C-38.8687 -144.821 -39.3173 -145.761 -39.3173 -145.761C-39.3173 -145.761 -54.4563 -144.944 -57.493 -142.607C-57.493 -142.607 -75.2911 -129.009 -80.5379 -107.818C-85.7846 -86.6282 -90.6368 -38.0845 -79.0509 2.79631L-83.8325 2.43453C-83.8325 2.43453 -93.6416 -56.7289 -86.3027 -96.9327C-78.8345 -137.127 -66.5745 -153.106 -63.7621 -155.913C-60.9497 -158.719 -40.7394 -151.001 -30.9024 -148.747C-21.0653 -146.493 -2.96883 -143.463 5.18477 -137.865C13.2091 -132.276 25.3649 -93.7673 26.3316 -82.5231C26.7768 -78.1116 24.8025 -58.9382 22.2013 -36.6421Z" fill="url(#paint1_linear_1916_60460)"/>
<path fill-rule="evenodd" clip-rule="evenodd" d="M64.213 48.8428C64.213 48.8428 66.009 56.8022 63.1077 61.0563L56.8906 54.8809L64.213 48.8428Z" fill="black"/>
<path d="M41.6836 40.343C41.6836 40.343 56.0519 20.0328 56.6045 14.2691C57.1571 8.36818 47.7624 -0.277378 45.6901 -6.86447C44.3085 -11.3931 49.2822 -30.4682 49.973 -31.8405C50.6638 -33.2129 59.3676 -35.5458 62.8216 -36.5064C66.2755 -37.6043 71.2491 -39.7999 72.3544 -38.9766C73.4597 -38.0159 71.5254 -29.9193 65.7228 -27.1747C60.3347 -24.7045 57.1572 -24.979 57.1572 -24.979L55.6374 -18.5291C55.6374 -18.5291 61.1637 -17.1568 64.7558 -13.4516C68.2097 -9.74633 75.2556 -8.51126 80.2293 -8.37402C85.2029 -8.23679 91.0056 -17.294 91.0056 -17.294C91.0056 -17.294 86.7226 1.78108 80.5056 9.74048C80.5056 9.74048 75.1175 15.5042 72.0781 16.1904C72.0781 16.1904 62.1308 55.9874 48.5914 79.4539L41.6836 40.343Z" fill="url(#paint2_linear_1916_60460)"/>
<path fill-rule="evenodd" clip-rule="evenodd" d="M64.4699 61.0541L52.8647 72.8559C47.3384 87.6769 25.3715 113.888 23.4373 113.888C21.5031 113.888 8.51634 105.654 3.40453 94.6757C-1.70727 83.8344 -1.56911 76.2867 -2.12174 72.1698C-2.67437 68.1901 -12.898 46.9193 -12.898 46.9193L-18.2861 49.9383C-18.2861 49.9383 -20.2203 45.4097 -20.911 38.4109C-21.74 31.1377 -21.3256 21.257 -16.4901 10.8275C-6.95727 -9.7572 5.75322 -10.4434 5.75322 -10.4434C5.75322 -10.4434 8.24004 -8.65934 8.51636 -7.83596C8.65451 -7.56149 8.51636 -5.64026 8.51636 -3.03287V-2.75841C8.3782 1.63299 8.10183 7.80839 8.37815 12.337C8.79262 19.6103 19.8452 60.9168 20.3978 61.0541C20.536 61.0541 22.1939 59.819 24.4044 57.8978C29.378 53.5064 37.8056 45.4097 41.2596 40.0577C41.9503 38.9599 42.6411 37.862 43.1937 36.9014C46.2331 31.6866 47.2002 28.942 47.3384 28.6675L50.3779 27.7069L49.549 29.0792C53.5555 51.9968 63.6409 59.4073 63.6409 59.4073C65.2988 55.0159 65.0225 49.3894 64.8843 48.2916C65.437 53.3691 64.4699 61.0541 64.4699 61.0541Z" fill="black"/>
<path fill-rule="evenodd" clip-rule="evenodd" d="M24.2722 57.9062L20.2657 61.0626C20.2657 61.0626 6.86446 69.4337 5.48289 74.9229C3.82501 81.7845 8.66048 91.9396 8.66048 91.9396C8.66048 91.9396 9.76575 78.2165 13.0815 72.7272C16.2591 67.238 24.2722 57.9062 24.2722 57.9062Z" fill="#292329"/>
<path fill-rule="evenodd" clip-rule="evenodd" d="M64.4744 61.0619L52.8692 72.8637C52.8692 72.8637 43.6127 56.2588 42.9219 37.0464L47.0666 28.8125L49.1389 29.2242C53.1455 52.1418 63.2309 59.5523 63.2309 59.5523C64.8888 55.1609 64.6125 49.5344 64.4744 48.4366C65.4415 53.3769 64.4744 61.0619 64.4744 61.0619Z" fill="#292329"/>
</g>
<defs>
<linearGradient id="paint0_linear_1916_60460" x1="-45.9921" y1="43.8524" x2="-16.1607" y2="-109.359" gradientUnits="userSpaceOnUse">
<stop offset="0.0111732" stop-color="#512438"/>
<stop offset="0.9944" stop-color="#832E31"/>
</linearGradient>
<linearGradient id="paint1_linear_1916_60460" x1="-40.1905" y1="42.3483" x2="-25.3574" y2="-153.696" gradientUnits="userSpaceOnUse">
<stop offset="0.0111732" stop-color="#772438"/>
<stop offset="0.9944" stop-color="#994540"/>
</linearGradient>
<linearGradient id="paint2_linear_1916_60460" x1="66.2512" y1="79.4638" x2="66.2512" y2="-39.2115" gradientUnits="userSpaceOnUse">
<stop offset="0.0159875" stop-color="#FFAE78"/>
<stop offset="1" stop-color="#FF957C"/>
</linearGradient>
<clipPath id="clip0_1916_60460">
<rect width="91" height="114" fill="white"/>
</clipPath>
</defs>
</svg>
