<svg width="323" height="345" viewBox="0 0 323 345" fill="none" xmlns="http://www.w3.org/2000/svg">
<g clip-path="url(#clip0_1916_60385)">
<path d="M160.736 205.871L240.618 221.225L250.16 122.478L216.217 65.5789L192.089 52.9346L159.645 58.9557C159.645 58.9557 143.423 91.7708 146.013 131.059C148.603 170.346 155.283 199.85 160.736 205.871Z" fill="url(#paint0_linear_1916_60385)"/>
<path d="M254.201 130.358L253.89 132.75L252.887 140.826L252.773 142.327C249.895 166.564 246.678 191.833 244.924 204.683C244.821 206.034 244.601 207.225 244.521 208.275L243.887 213.209L222.355 183.501L229.552 88.6396C229.552 88.6396 207.788 55.1405 204.221 47.3227C201.765 42.0043 197.465 31.8666 194.797 25.9282C194.124 24.5186 193.793 23.7388 193.793 23.7388C193.131 22.1792 192.683 21.2395 192.683 21.2395C192.683 21.2395 177.544 22.0565 174.507 24.393C174.507 24.393 156.709 37.9914 151.462 59.1816C146.215 80.3718 141.363 128.915 152.949 169.796L148.168 169.435C148.168 169.435 138.358 110.271 145.697 70.0673C153.165 29.8734 165.426 13.8936 168.238 11.0872C171.05 8.28076 191.261 15.9992 201.098 18.2531C210.935 20.507 229.031 23.5368 237.185 29.1353C245.209 34.7241 257.365 73.2327 258.332 84.4769C258.777 88.8884 256.802 108.062 254.201 130.358Z" fill="url(#paint1_linear_1916_60385)"/>
<path fill-rule="evenodd" clip-rule="evenodd" d="M138.551 193.202C138.551 193.202 132.196 233.686 121.834 248.369C113.959 259.622 110.229 274.855 103.873 287.892C101.663 292.558 99.038 296.949 95.7223 300.792C82.321 316.71 64.4988 341.275 64.4988 341.275C51.0975 339.354 43.2227 320.69 43.2227 320.69C53.1699 295.714 73.8935 264.7 86.4657 251.937C98.0709 240.273 106.36 219.413 111.748 204.181C112.301 202.808 112.716 201.436 113.13 200.064C118.38 184.557 125.15 176.735 125.15 176.735C128.742 175.911 138.551 193.202 138.551 193.202Z" fill="#321833"/>
<path fill-rule="evenodd" clip-rule="evenodd" d="M138.563 193.202C138.563 193.202 132.208 233.686 121.846 248.369C113.971 259.622 110.241 274.855 103.886 287.892L86.3398 292.283C86.3398 292.283 96.149 272.934 99.3266 258.936C102.504 244.938 111.346 205.69 111.346 205.69L111.623 204.181C112.175 202.808 112.59 201.436 113.004 200.064C118.254 184.557 125.024 176.735 125.024 176.735C128.754 175.911 138.563 193.202 138.563 193.202Z" fill="black"/>
<path fill-rule="evenodd" clip-rule="evenodd" d="M173.389 6.69434C173.389 6.69434 166.62 18.4962 154.462 23.2993C142.304 28.1024 134.844 31.6704 132.771 43.884C130.699 56.0976 140.232 67.8994 144.653 71.0558C149.212 74.0748 161.093 50.4711 161.093 50.4711L179.192 17.6728L175.185 12.8697L173.389 6.69434Z" fill="url(#paint2_linear_1916_60385)"/>
<path fill-rule="evenodd" clip-rule="evenodd" d="M159.43 20.8447C159.43 20.8447 157.911 23.5894 148.931 30.7254C138.431 38.9592 134.562 68.0523 151.694 75.4627C151.694 75.4627 135.529 71.7575 130.97 54.6036C126.687 38.9592 143.128 33.0583 159.43 20.8447Z" fill="url(#paint3_linear_1916_60385)"/>
<path fill-rule="evenodd" clip-rule="evenodd" d="M296.213 215.843C296.213 215.843 298.009 223.802 295.108 228.056L288.891 221.881L296.213 215.843Z" fill="url(#paint4_radial_1916_60385)"/>
<path d="M57.4596 318.775C57.4596 318.775 50.1373 328.382 46.6834 330.028C45.44 330.577 32.5914 328.519 30.2427 329.068C27.8941 329.617 21.5389 345.261 19.4665 349.103C17.3942 352.809 15.1836 355.965 15.1836 355.965C15.1836 355.965 19.1902 357.063 24.302 354.867C29.552 352.671 29.8283 342.928 29.8283 342.928C29.8283 342.928 32.315 341.83 40.0518 344.438C47.6504 347.045 57.8741 351.299 60.3609 356.102C60.3609 356.102 63.8149 349.79 61.8807 344.438C60.0846 339.086 65.3346 332.498 65.3346 332.498L57.4596 318.775Z" fill="url(#paint5_linear_1916_60385)"/>
<path d="M284.758 138.311V148.878L299.679 161.366L311.975 160.405L317.363 158.484C317.363 158.484 322.475 151.21 322.889 149.701C323.304 148.191 322.889 145.035 322.889 145.035L302.718 134.331L284.758 138.311Z" fill="#F17C57"/>
<path d="M285.844 137.08C285.844 137.08 290.541 122.945 291.232 118.142C291.923 113.339 296.067 97.1454 297.725 94.1263C297.725 94.1263 300.903 93.7146 302.837 96.7337C304.771 99.6156 302.975 113.339 298.416 119.789C298.416 119.789 296.758 128.297 296.896 134.198L285.844 137.08Z" fill="url(#paint6_linear_1916_60385)"/>
<path d="M207.104 121.158C207.104 121.158 203.097 135.842 203.926 145.036L207.104 147.095C207.104 147.095 197.294 169.875 182.512 174.953C167.729 180.03 157.92 173.992 163.17 160.269C163.17 160.269 177.4 155.054 180.025 149.977C182.65 144.762 182.373 132.686 182.373 132.686L207.104 121.158Z" fill="url(#paint7_linear_1916_60385)"/>
<path d="M226.705 63.7253C226.705 63.7253 225.886 93.1368 214.561 111.434C213.196 113.603 211.695 115.636 210.058 117.533C197.641 130.952 179.493 135.424 172.261 135.018C165.029 134.611 163.119 132.307 160.526 130.003C158.07 127.834 141.832 120.109 137.875 108.588C134.191 97.8806 141.969 86.3599 144.016 79.8542C144.152 79.312 144.288 78.9054 144.425 78.4988C145.517 72.3996 142.378 57.8972 144.425 46.6476C146.472 35.398 162.709 19.8113 178.674 18.9981C213.196 17.2361 226.705 63.7253 226.705 63.7253Z" fill="url(#paint8_linear_1916_60385)"/>
<path d="M225.182 84.2395C225.182 84.2395 227.807 79.9854 235.682 78.3386C235.682 78.3386 241.347 77.5152 242.866 84.1023C242.866 84.1023 243.557 96.1787 238.169 103.177C232.781 110.313 223.386 110.725 221.176 110.176C218.965 109.627 219.103 104.55 219.103 104.55C219.103 104.55 222.557 87.5331 225.182 84.2395Z" fill="url(#paint9_linear_1916_60385)"/>
<path d="M273.684 207.343C273.684 207.343 288.052 187.033 288.605 181.269C289.157 175.368 279.762 166.723 277.69 160.136C276.309 155.607 281.282 136.532 281.973 135.159C282.664 133.787 291.368 131.454 294.822 130.494C298.275 129.396 303.249 127.2 304.354 128.023C305.46 128.984 303.525 137.081 297.723 139.825C292.335 142.295 289.157 142.021 289.157 142.021L287.637 148.471C287.637 148.471 293.164 149.843 296.756 153.548C300.21 157.254 307.256 158.489 312.229 158.626C317.203 158.763 323.006 149.706 323.006 149.706C323.006 149.706 318.723 168.781 312.506 176.74C312.506 176.74 307.118 182.504 304.078 183.19C304.078 183.19 294.131 222.987 280.591 246.454L273.684 207.343Z" fill="url(#paint10_linear_1916_60385)"/>
<path d="M301.59 131.168C301.59 131.168 304.767 131.854 308.083 134.324V136.932C308.083 136.932 314.438 137.755 316.234 139.814V141.735C316.234 141.735 320.103 142.421 322.728 145.028C322.728 145.028 320.379 152.988 316.234 155.87C316.234 155.87 313.195 155.732 310.708 153.674L309.05 155.321C309.05 155.321 303.938 156.144 303.662 152.027L305.32 146.263C305.32 146.263 303.248 148.734 302.28 149.008C301.452 149.42 297.721 148.322 297.583 145.577C297.307 142.833 301.59 131.168 301.59 131.168Z" fill="url(#paint11_linear_1916_60385)"/>
<path fill-rule="evenodd" clip-rule="evenodd" d="M163.918 167.425C163.918 167.425 167.483 176.686 186.499 168.565L161.393 193.499L158.867 186.802L163.918 167.425Z" fill="url(#paint12_linear_1916_60385)"/>
<path fill-rule="evenodd" clip-rule="evenodd" d="M215.52 153.816C215.52 153.816 212.619 156.698 208.059 160.952C204.329 164.52 199.494 169.186 194.52 173.989L194.382 174.126C183.329 184.693 171.31 196.22 167.303 199.926C159.29 207.336 147.823 228.058 147.823 228.058C147.823 228.058 139.948 215.707 138.843 210.492C137.738 205.278 138.843 169.46 138.843 169.46C138.843 169.46 147.823 166.167 155.56 162.05C160.533 159.305 166.336 155.874 169.79 153.679C171.31 152.718 172.415 152.032 172.829 151.757H172.968L177.803 152.444C175.731 154.914 167.441 158.345 167.441 158.345C161.362 167.814 163.435 186.614 163.435 186.614C163.435 186.614 172.139 180.713 181.533 172.205C190.928 163.697 206.263 146.543 206.263 146.543L205.158 145.857L206.954 145.308L209.441 147.778L212.48 150.797L215.52 153.816Z" fill="url(#paint13_linear_1916_60385)"/>
<path fill-rule="evenodd" clip-rule="evenodd" d="M266.1 475.624H147.423C144.936 464.92 142.864 454.49 141.068 445.845L140.377 442.277L139.824 439.532L139.686 438.983L139.548 437.885C139.548 437.748 139.548 437.748 139.548 437.748C138.304 431.024 137.476 426.084 137.199 424.3L143.554 475.761H95.7522C90.7785 453.804 87.0483 428.691 84.6996 407.146C83.3181 393.56 82.4891 381.209 82.3509 372.152C82.2128 365.702 82.4891 360.762 83.1799 357.88C87.0482 341 100.864 320.827 110.535 298.733C115.094 288.441 117.719 278.286 119.377 270.463C119.377 270.463 119.377 270.463 119.377 270.326C121.173 261.406 121.587 255.368 121.587 255.368C120.758 254.545 119.93 253.584 119.101 252.486C112.745 243.978 110.12 231.627 110.397 229.431C110.673 226.961 111.778 222.158 117.305 214.199C122.831 206.239 129.324 194.712 129.048 189.497C128.772 184.145 124.903 177.009 124.903 177.009C124.903 177.009 135.679 170.696 143.831 166.717C146.318 165.482 148.942 164.109 151.291 162.874C156.817 159.855 161.377 156.973 161.377 156.973H164.692L164.278 157.248C164.14 157.248 164.14 157.385 164.002 157.385C163.863 157.385 163.863 157.522 163.725 157.522C163.587 157.659 163.449 157.659 163.311 157.797C162.62 158.208 161.653 158.895 160.686 159.443C160.271 159.718 159.857 159.855 159.581 160.13C158.337 160.953 157.094 161.639 156.127 162.325L154.054 163.698C153.087 165.482 151.982 168.501 151.015 172.069C148.666 180.303 146.318 191.693 144.798 200.613C143.831 206.514 143.14 211.18 143.14 213.101C143.14 213.101 143.14 213.101 143.14 213.238C143.14 213.513 143.14 213.65 143.14 213.787C143.14 213.924 143.14 214.061 143.278 214.199C143.278 214.336 143.278 214.336 143.278 214.473C143.416 215.297 143.693 216.257 143.969 217.218V217.355C144.936 220.511 146.179 224.217 146.732 225.726V225.863V226.001L146.87 226.275C146.87 226.275 155.989 211.866 162.482 203.495C164.554 200.75 169.804 195.535 176.021 189.634C188.594 177.283 205.172 161.914 206.968 158.62C207.936 156.836 208.626 154.778 208.903 152.994C209.041 152.033 209.179 151.072 209.317 150.386C209.455 148.877 209.455 147.916 209.455 147.916H212.495C214.567 149.014 220.093 149.974 226.587 151.21C229.902 151.896 232.666 153.268 234.738 154.503C236.672 155.738 237.915 156.699 237.915 156.699C237.915 156.699 236.672 157.522 234.876 159.169C232.113 161.502 227.968 165.344 223.962 170.422C223.685 170.834 223.271 171.245 222.995 171.657C221.199 174.127 219.402 176.872 217.883 179.754C217.054 181.263 216.363 182.773 215.672 184.42C213.324 190.32 212.495 196.221 212.218 201.299C212.08 203.906 212.218 206.239 212.356 208.298C212.771 212.689 213.462 215.708 213.738 216.669V216.806C213.738 216.943 213.738 216.943 213.738 216.943C207.659 224.079 201.304 237.665 196.468 250.977C191.495 264.7 188.179 278.148 188.455 284.187C189.008 296.263 206.692 350.744 225.896 388.482C238.883 414.282 256.152 453.118 266.1 475.624Z" fill="black"/>
<path fill-rule="evenodd" clip-rule="evenodd" d="M209.438 147.786C209.438 147.786 206.122 154.099 189.267 171.115C172.411 187.995 164.537 198.699 164.537 198.699L151.273 198.15L164.813 199.111L206.951 163.43L212.615 150.394L209.438 147.786Z" fill="url(#paint14_linear_1916_60385)"/>
<path fill-rule="evenodd" clip-rule="evenodd" d="M296.47 228.054L284.865 239.856C279.338 254.677 257.371 280.888 255.437 280.888C253.503 280.888 240.516 272.654 235.405 261.676C230.293 250.834 230.431 243.287 229.878 239.17C229.326 235.19 219.102 213.919 219.102 213.919L213.714 216.938C213.714 216.938 211.78 212.41 211.089 205.411C210.26 198.138 210.674 188.257 215.51 177.827C225.043 157.243 237.753 156.557 237.753 156.557C237.753 156.557 240.24 158.341 240.516 159.164C240.655 159.439 240.516 161.36 240.516 163.967V164.242C240.378 168.633 240.102 174.808 240.378 179.337C240.793 186.61 251.845 227.917 252.398 228.054C252.536 228.054 254.194 226.819 256.404 224.898C261.378 220.506 269.806 212.41 273.26 207.058C273.95 205.96 274.641 204.862 275.194 203.901C278.233 198.687 279.2 195.942 279.338 195.668L282.378 194.707L281.549 196.079C285.556 218.997 295.641 226.407 295.641 226.407C297.299 222.016 297.023 216.389 296.884 215.292C297.437 220.369 296.47 228.054 296.47 228.054Z" fill="black"/>
<path fill-rule="evenodd" clip-rule="evenodd" d="M177.793 33.0498C177.793 33.0498 179.589 33.8732 187.74 36.755C196.03 39.6369 204.319 43.3421 208.878 51.0271C208.878 51.0271 202.109 44.9889 193.957 43.7538C185.806 42.5188 181.661 41.9698 180.28 41.0092C178.898 40.1858 177.793 33.0498 177.793 33.0498Z" fill="url(#paint15_linear_1916_60385)"/>
<path fill-rule="evenodd" clip-rule="evenodd" d="M143.817 55.4288C143.817 55.4288 145.199 52.547 148.376 53.0959C151.554 53.782 157.495 64.2116 157.495 64.2116C157.495 64.2116 153.074 50.6257 148.929 47.6066C145.89 45.4109 143.817 49.5279 143.817 49.5279C143.817 49.5279 142.436 52.4097 143.817 55.4288Z" fill="url(#paint16_linear_1916_60385)"/>
<path d="M185.134 83.8242C187.345 86.4316 207.101 84.2359 210.279 76.4137C213.733 67.9054 205.719 55.5546 194.805 57.7503C181.818 60.2204 178.917 76.4137 185.134 83.8242Z" fill="url(#paint17_linear_1916_60385)"/>
<path d="M159.425 76.4145C159.425 77.3751 159.425 78.3358 159.286 79.2964C159.01 81.4921 158.181 83.2761 157.352 84.6484C155.833 87.1186 153.898 88.3536 152.931 88.3536C150.997 88.3536 147.958 88.4909 146.576 81.4921C145.194 74.4933 146.3 64.3382 150.444 62.6914C151.964 62.0053 153.898 63.3776 155.694 65.5733C156.523 66.6711 157.352 68.0434 158.043 69.553C158.872 71.6114 159.425 73.9444 159.425 76.4145Z" fill="url(#paint18_linear_1916_60385)"/>
<path fill-rule="evenodd" clip-rule="evenodd" d="M164.255 99.8898C164.255 99.8898 153.479 101.399 150.992 95.2239C149.334 91.2442 155.966 90.0091 159.42 82.5986C159.42 82.5986 157.762 86.99 155.551 89.4602C153.064 92.2048 152.65 92.891 154.031 95.0867C156.38 99.2036 164.255 99.8898 164.255 99.8898Z" fill="#F17C57"/>
<path fill-rule="evenodd" clip-rule="evenodd" d="M165.504 95.4942C165.504 95.4942 167.853 92.7495 171.721 93.1612C171.721 93.1612 169.787 93.5729 169.234 94.3963C168.681 95.2197 167.024 96.8665 165.504 95.4942Z" fill="#C44A4C"/>
<path fill-rule="evenodd" clip-rule="evenodd" d="M168.137 24.1306C168.137 24.1306 164.545 21.1115 159.434 25.5029C159.434 25.5029 163.164 20.6998 164.822 11.0936C166.341 1.48742 179.328 -2.49229 186.374 1.76188C193.42 5.87881 199.361 45.2642 215.663 61.3202C215.663 61.3202 202.815 52.4002 196.321 35.3835C191.624 23.0327 188.861 19.4647 182.368 18.0924C176.012 16.7201 168.137 24.1306 168.137 24.1306Z" fill="url(#paint19_linear_1916_60385)"/>
<path fill-rule="evenodd" clip-rule="evenodd" d="M182.371 78.203C182.371 78.203 180.022 67.499 189.279 61.1863C198.397 54.8737 210.002 60.9119 211.107 71.067C211.107 71.067 215.114 69.6947 216.91 65.3033C216.91 65.3033 214.561 65.8522 212.903 65.715C212.903 65.715 207.93 54.5992 197.153 54.462C186.377 54.3248 179.746 67.499 182.371 78.203Z" fill="url(#paint20_linear_1916_60385)"/>
<path fill-rule="evenodd" clip-rule="evenodd" d="M187.473 84.6589C187.473 84.6589 191.894 86.3056 200.598 84.7961C209.301 83.2866 210.545 75.3271 210.545 75.3271C210.545 75.3271 207.782 84.9333 187.473 84.6589Z" fill="#C44A4C"/>
<path fill-rule="evenodd" clip-rule="evenodd" d="M146.859 83.0117C146.859 83.0117 147.412 88.0893 150.728 88.7754C153.905 89.4616 156.945 86.0308 157.912 83.4234C157.912 83.4234 155.84 87.952 151.833 87.8148C148.517 87.8148 146.859 83.0117 146.859 83.0117Z" fill="#C44A4C"/>
<path fill-rule="evenodd" clip-rule="evenodd" d="M207.934 71.0574C207.934 76.5467 203.513 80.9381 197.986 80.9381C192.46 80.9381 188.039 76.5467 188.039 71.0574C188.039 65.5682 192.46 61.1768 197.986 61.1768C203.374 61.1768 207.934 65.7054 207.934 71.0574Z" fill="url(#paint21_linear_1916_60385)"/>
<path fill-rule="evenodd" clip-rule="evenodd" d="M204.625 71.0642C204.625 74.7694 201.586 77.7885 197.856 77.7885C194.125 77.7885 191.086 74.7694 191.086 71.0642C191.086 67.3589 194.125 64.3398 197.856 64.3398C201.586 64.3398 204.625 67.3589 204.625 71.0642Z" fill="url(#paint22_linear_1916_60385)"/>
<path fill-rule="evenodd" clip-rule="evenodd" d="M159.44 76.4204C159.44 77.381 159.44 78.3416 159.302 79.3022C159.025 81.4979 158.196 83.2819 157.368 84.6542C156.677 85.0659 155.848 85.3404 155.157 85.3404C151.703 85.3404 149.078 80.949 149.078 75.4597C149.078 69.9705 151.841 65.5791 155.157 65.5791C155.295 65.5791 155.571 65.5791 155.71 65.5791C156.539 66.677 157.368 68.0493 158.058 69.5588C158.887 71.6173 159.44 73.9502 159.44 76.4204Z" fill="url(#paint23_linear_1916_60385)"/>
<path fill-rule="evenodd" clip-rule="evenodd" d="M159.424 76.4262C159.424 77.3868 159.424 78.3474 159.286 79.308C158.595 81.092 157.352 82.1899 155.832 82.1899C153.484 82.1899 151.688 79.1708 151.688 75.4655C151.688 71.7603 153.484 68.7412 155.832 68.7412C156.523 68.7412 157.352 69.0157 157.905 69.7018C158.872 71.6231 159.424 73.956 159.424 76.4262Z" fill="url(#paint24_linear_1916_60385)"/>
<path fill-rule="evenodd" clip-rule="evenodd" d="M159.426 78.1993C159.426 78.1993 157.215 63.5156 151.965 64.2017C147.406 64.8879 146.024 74.6313 146.024 74.6313C146.024 74.6313 143.538 74.4941 141.051 71.7495C141.051 71.7495 143.123 71.475 144.643 70.9261C144.643 70.9261 146.301 62.1433 150.169 60.4965C154.176 58.8497 159.84 69.691 159.426 78.1993Z" fill="url(#paint25_linear_1916_60385)"/>
<path d="M154.734 108.392C154.734 108.392 156.807 108.941 157.912 110.313C159.017 111.685 159.294 113.607 162.471 114.156C165.511 114.704 177.254 113.881 187.892 101.53C187.892 101.53 181.261 104.824 173.938 105.098C166.616 105.373 161.504 107.02 159.432 107.843C157.359 108.804 154.734 108.392 154.734 108.392Z" fill="url(#paint26_linear_1916_60385)"/>
<path d="M154.177 108.262C154.177 108.262 155.697 108.674 157.908 108.262C160.118 107.85 160.394 105.106 166.335 104.557C172.276 103.871 179.322 104.42 182.914 103.459C186.506 102.498 188.44 100.303 188.44 100.303H189.407C189.407 100.303 187.059 103.047 179.322 105.38C171.585 107.576 159.565 108.948 157.355 108.948C155.144 108.811 154.039 108.674 154.039 108.674L154.177 108.262Z" fill="url(#paint27_linear_1916_60385)"/>
<path fill-rule="evenodd" clip-rule="evenodd" d="M190.659 76.1413C190.659 77.1019 189.831 77.7881 189.002 77.7881C188.035 77.7881 187.344 76.9647 187.344 76.1413C187.344 75.1807 188.173 74.4945 189.002 74.4945C189.831 74.3573 190.659 75.1807 190.659 76.1413Z" fill="white"/>
<path fill-rule="evenodd" clip-rule="evenodd" d="M151.964 80.9451C152.102 81.9057 151.411 82.7291 150.444 82.8663C149.477 83.0036 148.648 82.3174 148.51 81.3568C148.372 80.3962 149.062 79.5728 150.03 79.4355C150.997 79.4355 151.826 80.1217 151.964 80.9451Z" fill="white"/>
<path fill-rule="evenodd" clip-rule="evenodd" d="M222.281 96.0395C222.281 96.0395 229.88 86.2961 237.202 84.9238C237.202 84.9238 240.103 88.2174 239.827 93.1577C239.827 93.1577 238.722 88.0801 236.511 86.9823C236.511 86.9823 235.959 87.1195 234.577 87.8057C232.505 88.6291 228.636 90.962 222.281 96.0395Z" fill="#F3764E"/>
<path fill-rule="evenodd" clip-rule="evenodd" d="M229.065 90.415C229.065 90.415 234.453 90.1405 235.696 90.415C236.94 90.6894 237.631 97.4137 235.696 100.021C233.762 102.629 231.275 100.982 227.96 100.845C224.644 100.707 222.433 101.531 222.433 101.531C222.433 101.531 220.914 97.8254 222.433 96.0414C223.815 94.2574 229.065 90.415 229.065 90.415Z" fill="#F3764E"/>
<path fill-rule="evenodd" clip-rule="evenodd" d="M187.887 3.27148C187.887 3.27148 208.61 34.423 221.597 44.8525C234.584 55.2821 239.834 53.2236 239.834 53.2236C239.834 53.2236 230.715 71.3381 216.9 62.1436C203.084 52.9492 195.071 13.5638 187.887 3.27148Z" fill="url(#paint28_linear_1916_60385)"/>
<path fill-rule="evenodd" clip-rule="evenodd" d="M180.426 0.119026C180.426 0.119026 187.057 -2.35114 193.412 15.2145C199.768 32.78 204.879 55.0115 216.899 62.1475C228.919 69.2835 236.794 57.7561 236.794 57.7561C236.794 57.7561 229.61 68.0484 215.518 58.1678C201.149 48.0127 200.597 0.119026 180.426 0.119026Z" fill="url(#paint29_linear_1916_60385)"/>
<path fill-rule="evenodd" clip-rule="evenodd" d="M164.26 20.843C164.26 20.843 162.05 5.33593 172.55 1.76791C183.05 -1.8001 188.576 4.787 190.648 15.6283C192.583 26.6068 195.484 33.0566 195.484 33.0566C195.484 33.0566 192.168 26.4695 188.991 15.3538C185.813 4.23808 176.28 0.944529 170.201 5.47316C164.122 10.0018 164.26 20.843 164.26 20.843Z" fill="url(#paint30_linear_1916_60385)"/>
<path fill-rule="evenodd" clip-rule="evenodd" d="M256.272 224.906L252.266 228.063C252.266 228.063 238.864 236.434 237.483 241.923C235.825 248.784 240.66 258.94 240.66 258.94C240.66 258.94 241.766 245.216 245.082 239.727C248.259 234.238 256.272 224.906 256.272 224.906Z" fill="url(#paint31_linear_1916_60385)"/>
<path fill-rule="evenodd" clip-rule="evenodd" d="M296.474 228.062L284.869 239.864C284.869 239.864 275.613 223.259 274.922 204.046L279.067 195.812L281.139 196.224C285.145 219.142 295.231 226.552 295.231 226.552C296.889 222.161 296.613 216.534 296.474 215.437C297.441 220.377 296.474 228.062 296.474 228.062Z" fill="url(#paint32_linear_1916_60385)"/>
<path opacity="0.5" fill-rule="evenodd" clip-rule="evenodd" d="M135.527 252.487C135.527 252.487 136.909 245.763 138.014 245.763C141.054 245.9 181.672 248.507 181.672 248.507C181.672 248.507 155.422 254.957 149.619 254.683C143.817 254.271 135.527 252.487 135.527 252.487Z" fill="url(#paint33_linear_1916_60385)"/>
<path opacity="0.4" fill-rule="evenodd" clip-rule="evenodd" d="M139.116 179.346L132.07 180.581C132.07 180.581 139.807 188.952 141.051 193.206C141.051 193.206 130.413 200.068 125.301 208.576C125.301 208.576 130.274 229.847 141.465 238.081V207.204L147.544 176.738L139.116 179.346Z" fill="black"/>
<path opacity="0.4" fill-rule="evenodd" clip-rule="evenodd" d="M212.613 160.816L224.08 170.697C224.08 170.697 209.298 180.852 198.521 182.773C198.521 182.773 204.6 196.771 205.291 201.849C205.291 201.849 170.89 219.277 161.219 224.217C151.548 229.295 145.055 234.647 145.055 234.647L179.041 193.066L212.613 160.816Z" fill="black"/>
<path fill-rule="evenodd" clip-rule="evenodd" d="M142.158 239.719C142.158 239.719 130.829 219.409 130 196.766C130 196.766 138.842 189.355 144.092 186.611C144.092 186.611 140.362 180.024 132.763 178.24C132.763 178.24 146.717 166.849 151.414 162.321C156.112 157.792 160.395 154.361 160.395 154.361L164.816 156.42L153.901 163.281C153.901 163.281 142.987 203.078 142.849 210.352C142.71 217.625 146.993 226.27 146.993 226.27L142.158 239.719Z" fill="#292329"/>
<path fill-rule="evenodd" clip-rule="evenodd" d="M139.812 241.913C139.812 241.913 147.135 221.466 157.773 207.743C168.411 194.02 206.128 156.967 207.648 154.634C209.167 152.164 209.444 147.773 209.444 147.773L208.476 146.812L211.378 145.852C211.378 145.852 218.976 160.398 225.884 166.848C225.884 166.848 212.069 173.572 197.838 177.964C197.838 177.964 206.266 188.805 207.648 197.039C207.648 197.039 181.26 209.39 166.753 218.721C152.247 228.053 147.135 232.444 146.168 233.68C145.339 234.777 139.812 241.913 139.812 241.913Z" fill="#292329"/>
<path fill-rule="evenodd" clip-rule="evenodd" d="M308.076 134.2C308.076 134.2 306.694 141.473 305.312 146.277L309.043 136.945L308.076 136.808V134.2Z" fill="#F17C57"/>
<path fill-rule="evenodd" clip-rule="evenodd" d="M316.233 139.678C316.233 139.678 313.47 147.912 310.707 153.538C310.707 153.538 315.128 146.677 317.339 141.873L316.095 141.599V139.678H316.233Z" fill="#F17C57"/>
<path fill-rule="evenodd" clip-rule="evenodd" d="M219.115 214.064L210.825 207.202C210.825 207.202 198.253 234.786 196.457 251.253C201.707 237.256 206.819 227.101 213.727 217.22L219.115 214.064Z" fill="black"/>
</g>
<defs>
<linearGradient id="paint0_linear_1916_60385" x1="186.008" y1="210.852" x2="215.839" y2="57.6415" gradientUnits="userSpaceOnUse">
<stop offset="0.0111732" stop-color="#512438"/>
<stop offset="0.9944" stop-color="#832E31"/>
</linearGradient>
<linearGradient id="paint1_linear_1916_60385" x1="191.81" y1="209.348" x2="206.643" y2="13.3042" gradientUnits="userSpaceOnUse">
<stop offset="0.0111732" stop-color="#772438"/>
<stop offset="0.9944" stop-color="#994540"/>
</linearGradient>
<linearGradient id="paint2_linear_1916_60385" x1="155.826" y1="71.3486" x2="155.826" y2="6.73703" gradientUnits="userSpaceOnUse">
<stop offset="0.0111732" stop-color="#772438"/>
<stop offset="0.9944" stop-color="#994540"/>
</linearGradient>
<linearGradient id="paint3_linear_1916_60385" x1="147.519" y1="71.7513" x2="134.717" y2="26.179" gradientUnits="userSpaceOnUse">
<stop offset="0.0111732" stop-color="#B45E52"/>
<stop offset="0.9944" stop-color="#C16140"/>
</linearGradient>
<radialGradient id="paint4_radial_1916_60385" cx="0" cy="0" r="1" gradientUnits="userSpaceOnUse" gradientTransform="translate(292.805 221.951) scale(5.18215 5.1474)">
<stop stop-color="#B3819D"/>
<stop offset="1" stop-color="#785CA6"/>
</radialGradient>
<linearGradient id="paint5_linear_1916_60385" x1="40.1665" y1="356.29" x2="40.1665" y2="318.843" gradientUnits="userSpaceOnUse">
<stop offset="0.0159875" stop-color="#FFAE78"/>
<stop offset="1" stop-color="#FF957C"/>
</linearGradient>
<linearGradient id="paint6_linear_1916_60385" x1="294.604" y1="137.126" x2="294.604" y2="94.2133" gradientUnits="userSpaceOnUse">
<stop offset="0.0159875" stop-color="#FFAE78"/>
<stop offset="1" stop-color="#FF957C"/>
</linearGradient>
<linearGradient id="paint7_linear_1916_60385" x1="184.354" y1="176.681" x2="184.354" y2="121.146" gradientUnits="userSpaceOnUse">
<stop offset="0.0215741" stop-color="#FF8359"/>
<stop offset="1" stop-color="#FF8B7C"/>
</linearGradient>
<linearGradient id="paint8_linear_1916_60385" x1="193.382" y1="136.069" x2="176.083" y2="18.1456" gradientUnits="userSpaceOnUse">
<stop offset="0.0159875" stop-color="#FFAE78"/>
<stop offset="1" stop-color="#FF957C"/>
</linearGradient>
<linearGradient id="paint9_linear_1916_60385" x1="231" y1="110.257" x2="231" y2="78.1905" gradientUnits="userSpaceOnUse">
<stop offset="0.0215741" stop-color="#FF8359"/>
<stop offset="1" stop-color="#FF8B7C"/>
</linearGradient>
<linearGradient id="paint10_linear_1916_60385" x1="298.251" y1="246.464" x2="298.251" y2="127.788" gradientUnits="userSpaceOnUse">
<stop offset="0.0159875" stop-color="#FFAE78"/>
<stop offset="1" stop-color="#FF957C"/>
</linearGradient>
<linearGradient id="paint11_linear_1916_60385" x1="310.195" y1="155.769" x2="310.195" y2="131.142" gradientUnits="userSpaceOnUse">
<stop offset="0.0159875" stop-color="#FFAE78"/>
<stop offset="1" stop-color="#FF957C"/>
</linearGradient>
<linearGradient id="paint12_linear_1916_60385" x1="172.7" y1="193.491" x2="172.7" y2="167.389" gradientUnits="userSpaceOnUse">
<stop stop-color="#EDE3FC"/>
<stop offset="1" stop-color="white"/>
</linearGradient>
<linearGradient id="paint13_linear_1916_60385" x1="176.983" y1="228.033" x2="176.983" y2="145.194" gradientUnits="userSpaceOnUse">
<stop stop-color="#EDE3FC"/>
<stop offset="1" stop-color="white"/>
</linearGradient>
<linearGradient id="paint14_linear_1916_60385" x1="181.982" y1="199.095" x2="181.982" y2="147.716" gradientUnits="userSpaceOnUse">
<stop stop-color="#EDE3FC"/>
<stop offset="1" stop-color="white"/>
</linearGradient>
<linearGradient id="paint15_linear_1916_60385" x1="193.286" y1="51.0307" x2="193.286" y2="33.1098" gradientUnits="userSpaceOnUse">
<stop offset="0.0111732" stop-color="#772438"/>
<stop offset="0.9944" stop-color="#994540"/>
</linearGradient>
<linearGradient id="paint16_linear_1916_60385" x1="150.326" y1="64.2151" x2="150.326" y2="47.0195" gradientUnits="userSpaceOnUse">
<stop offset="0.0111732" stop-color="#772438"/>
<stop offset="0.9944" stop-color="#994540"/>
</linearGradient>
<linearGradient id="paint17_linear_1916_60385" x1="196.525" y1="84.8265" x2="196.525" y2="57.4322" gradientUnits="userSpaceOnUse">
<stop stop-color="#E1DBFB"/>
<stop offset="1" stop-color="white"/>
</linearGradient>
<linearGradient id="paint18_linear_1916_60385" x1="152.69" y1="88.283" x2="152.69" y2="62.4134" gradientUnits="userSpaceOnUse">
<stop stop-color="#E1DBFB"/>
<stop offset="1" stop-color="white"/>
</linearGradient>
<linearGradient id="paint19_linear_1916_60385" x1="198.768" y1="60.3386" x2="192.391" y2="2.54632" gradientUnits="userSpaceOnUse">
<stop offset="0.0111732" stop-color="#512438"/>
<stop offset="0.9944" stop-color="#6D1D20"/>
</linearGradient>
<linearGradient id="paint20_linear_1916_60385" x1="199.365" y1="78.1657" x2="199.365" y2="54.5408" gradientUnits="userSpaceOnUse">
<stop stop-color="#403060"/>
<stop offset="0.9944" stop-color="#2A0E51"/>
</linearGradient>
<linearGradient id="paint21_linear_1916_60385" x1="198.105" y1="80.8651" x2="198.105" y2="61.1065" gradientUnits="userSpaceOnUse">
<stop offset="0.0223464" stop-color="#85757A"/>
<stop offset="0.9944" stop-color="#563757"/>
</linearGradient>
<linearGradient id="paint22_linear_1916_60385" x1="197.886" y1="77.8736" x2="197.886" y2="64.3901" gradientUnits="userSpaceOnUse">
<stop stop-color="#403060"/>
<stop offset="0.9944" stop-color="#2A0E51"/>
</linearGradient>
<linearGradient id="paint23_linear_1916_60385" x1="154.321" y1="85.2675" x2="154.321" y2="65.5089" gradientUnits="userSpaceOnUse">
<stop offset="0.0223464" stop-color="#85757A"/>
<stop offset="0.9944" stop-color="#563757"/>
</linearGradient>
<linearGradient id="paint24_linear_1916_60385" x1="151.666" y1="75.3585" x2="159.434" y2="75.3585" gradientUnits="userSpaceOnUse">
<stop stop-color="#382160"/>
<stop offset="0.9944" stop-color="#2A0E51"/>
</linearGradient>
<linearGradient id="paint25_linear_1916_60385" x1="150.212" y1="78.1885" x2="150.212" y2="60.3097" gradientUnits="userSpaceOnUse">
<stop stop-color="#403060"/>
<stop offset="0.9944" stop-color="#2A0E51"/>
</linearGradient>
<linearGradient id="paint26_linear_1916_60385" x1="171.292" y1="114.238" x2="171.292" y2="101.45" gradientUnits="userSpaceOnUse">
<stop stop-color="#E76C42"/>
<stop offset="0.9944" stop-color="#AE2545"/>
</linearGradient>
<linearGradient id="paint27_linear_1916_60385" x1="171.657" y1="108.773" x2="171.657" y2="100.235" gradientUnits="userSpaceOnUse">
<stop stop-color="#A12F42"/>
<stop offset="0.9944" stop-color="#811945"/>
</linearGradient>
<linearGradient id="paint28_linear_1916_60385" x1="213.849" y1="64.7718" x2="213.849" y2="3.3121" gradientUnits="userSpaceOnUse">
<stop offset="0.0111732" stop-color="#772438"/>
<stop offset="0.9944" stop-color="#994540"/>
</linearGradient>
<linearGradient id="paint29_linear_1916_60385" x1="212.782" y1="70.5505" x2="196.337" y2="4.4025" gradientUnits="userSpaceOnUse">
<stop offset="0.0111732" stop-color="#B45E52"/>
<stop offset="0.9944" stop-color="#C16140"/>
</linearGradient>
<linearGradient id="paint30_linear_1916_60385" x1="182.645" y1="30.8642" x2="178.277" y2="2.49223" gradientUnits="userSpaceOnUse">
<stop offset="0.0111732" stop-color="#B45E52"/>
<stop offset="0.9944" stop-color="#C16140"/>
</linearGradient>
<linearGradient id="paint31_linear_1916_60385" x1="246.739" y1="259.02" x2="246.739" y2="224.995" gradientUnits="userSpaceOnUse">
<stop stop-color="#5B4365"/>
<stop offset="0.9777" stop-color="#70517C"/>
</linearGradient>
<linearGradient id="paint32_linear_1916_60385" x1="285.952" y1="239.968" x2="285.952" y2="195.927" gradientUnits="userSpaceOnUse">
<stop stop-color="#5B4365"/>
<stop offset="0.9777" stop-color="#70517C"/>
</linearGradient>
<linearGradient id="paint33_linear_1916_60385" x1="135.55" y1="250.124" x2="181.689" y2="250.124" gradientUnits="userSpaceOnUse">
<stop offset="0.0111732" stop-color="#C695C7"/>
<stop offset="1" stop-color="#8E81F4"/>
</linearGradient>
<clipPath id="clip0_1916_60385">
<rect width="323" height="345" fill="white"/>
</clipPath>
</defs>
</svg>
