<svg width="83" height="36" viewBox="0 0 83 36" fill="none" xmlns="http://www.w3.org/2000/svg">
<g clip-path="url(#clip0_2102_5272)">
<path d="M11.2533 2.00017C12.0902 1.98728 12.6515 2.70387 13.3064 3.11629C14.728 4.17828 16.6485 5.18356 16.6823 7.20701C16.7135 13.8135 16.6797 20.4252 16.6979 27.0317C16.7421 28.2251 16.2327 29.465 15.24 30.1712C14.3044 30.8646 13.3558 31.5451 12.4254 32.2462C12.0668 32.5401 11.6328 32.6999 11.1754 32.7669C11.165 31.924 11.5496 31.1559 11.8251 30.38C13.413 26.0651 15.0165 21.7552 16.5836 17.4325C11.638 19.0822 6.70277 20.7628 1.76237 22.4228C1.39074 22.544 0.995713 22.5698 0.611084 22.6162C0.663061 21.6057 1.56226 20.9742 2.09502 20.1958C3.01761 18.9662 4.02077 17.6001 5.66843 17.35C3.79207 17.0897 2.83569 15.3859 1.74158 14.0764C1.27899 13.4578 0.579898 12.8959 0.626677 12.0504C1.06848 12.1148 1.51028 12.1896 1.93389 12.3314C6.81452 14.0017 11.7107 15.6256 16.594 17.2882C14.8787 12.5917 13.1453 7.90555 11.4145 3.21424C11.3235 2.82244 11.0376 2.39971 11.2533 2.00017Z" fill="#B19BF5" fill-opacity="0.7"/>
<path d="M60.6028 9.49596C62.1205 7.91329 64.4621 7.73285 66.5281 7.93649C66.1851 9.17375 65.8784 10.4213 65.4964 11.6457C64.7297 11.4859 63.9475 11.4601 63.1704 11.54C64.0566 12.9268 64.5296 14.5971 64.2541 16.2391C64.0332 18.0821 62.83 19.7447 61.1693 20.5876C59.3008 21.5645 57.0969 21.6882 55.0412 21.3583C54.8307 22.0542 55.14 22.843 55.8963 23.0286C58.6173 23.9205 61.7151 23.5415 64.2411 25.0572C65.5302 25.8099 66.1669 27.3642 65.9512 28.8077C65.7901 30.5398 64.4932 31.955 62.9807 32.7128C60.5196 33.9913 57.6531 34.1047 54.9347 33.9423C53.0142 33.7567 51 33.2154 49.5967 31.8312C48.3596 30.6017 48.066 28.5319 49.0223 27.0574C49.5213 26.1991 50.3919 25.6578 51.2677 25.2351C50.7791 24.7479 50.3373 24.1524 50.3451 23.4359C50.1918 22.0001 51.3275 20.8634 52.4554 20.1622C48.9781 18.2367 48.6741 12.8108 51.6965 10.3414C54.1498 8.37211 57.796 8.18909 60.6028 9.49596ZM56.1172 12.718C54.5709 13.2413 54.2434 15.3421 55.0516 16.5948C55.6598 17.5769 57.0242 17.8707 58.0429 17.381C59.254 16.8422 59.5762 15.2338 59.098 14.0996C58.6874 12.9397 57.2815 12.285 56.1172 12.718ZM53.7236 29.3052C54.9815 30.3981 56.8007 30.4599 58.386 30.3285C59.254 30.2047 60.3351 30.0604 60.8107 29.2304C61.1147 28.5757 60.4572 28.0009 59.8907 27.8075C57.9442 27.0961 55.7975 27.3101 53.8406 26.6321C53.1519 27.3539 52.9492 28.5654 53.7236 29.3052Z" fill="#B19BF5" fill-opacity="0.7"/>
<path d="M25.2195 10.7281C27.0465 9.42121 29.2737 8.4185 31.5763 8.7304C33.0836 8.87475 34.4532 9.73053 35.29 10.9729C37.2886 9.37997 39.9082 8.30509 42.5018 8.78969C43.9572 8.9959 45.3476 9.7795 46.1376 11.0297C46.9277 12.2489 47.0914 13.7388 47.1018 15.159C47.1018 18.6827 47.0992 22.2089 47.1018 25.7325C45.3034 25.7377 43.5076 25.7351 41.7092 25.7351C41.6988 22.5491 41.73 19.3632 41.6962 16.1772C41.665 15.2054 41.5948 13.9115 40.5319 13.481C39.0896 12.9809 37.5069 13.5764 36.3036 14.3961C36.3322 18.1749 36.3088 21.9537 36.3166 25.7351C34.5182 25.7351 32.7198 25.7377 30.9214 25.7325C30.9214 22.3816 30.9318 19.0281 30.9188 15.6771C30.898 14.8162 30.6407 13.7491 29.7129 13.4423C28.2914 13.0119 26.7944 13.6047 25.5912 14.3497C25.6016 18.144 25.5938 21.9408 25.5964 25.7351C23.798 25.7351 22.0022 25.7377 20.2038 25.7325C20.2064 20.1932 20.2038 14.6512 20.2038 9.10931C21.7215 9.11189 23.2392 9.099 24.7569 9.11962C24.9103 9.65577 25.0636 10.1919 25.2195 10.7281Z" fill="#B19BF5" fill-opacity="0.7"/>
<path d="M67.8509 10.2925C70.8526 8.83351 74.3402 8.28189 77.6278 8.95981C79.0623 9.26139 80.4345 10.045 81.222 11.2977C81.9393 12.4474 82.1212 13.8367 82.1238 15.1642C82.116 17.8243 82.1264 20.4819 82.1186 23.142C82.103 24.0158 82.2095 24.8845 82.3889 25.7377C80.9023 25.7248 79.4184 25.7557 77.9344 25.7171C77.7032 25.2711 77.4719 24.8252 77.2432 24.3793C74.7197 26.6012 70.286 26.7842 68.0355 24.0906C66.8192 22.6162 66.5515 20.5051 67.1441 18.7188C67.6482 17.2676 68.9762 16.2752 70.3744 15.739C72.4093 14.9451 74.6391 15.0456 76.7858 14.958C76.6948 14.1074 76.3362 13.1691 75.4214 12.9191C73.4696 12.303 71.3568 12.8804 69.5454 13.6795C68.9814 12.5505 68.4019 11.4292 67.8509 10.2925ZM73.0096 18.8477C71.9597 19.407 71.9883 21.1753 73.0694 21.6856C74.2467 22.2037 75.6163 21.8918 76.7364 21.3634C76.726 20.3453 76.7338 19.3271 76.7182 18.3115C75.4837 18.4687 74.1427 18.2393 73.0096 18.8477Z" fill="#B19BF5" fill-opacity="0.7"/>
</g>
<defs>
<clipPath id="clip0_2102_5272">
<rect width="81.7778" height="36" fill="white" transform="translate(0.611084)"/>
</clipPath>
</defs>
</svg>
