<svg width="111" height="20" viewBox="0 0 111 20" fill="none" xmlns="http://www.w3.org/2000/svg">
<g clip-path="url(#clip0_2102_5225)">
<path d="M18.4958 7.29665L12.6549 6.40444L10.0369 0.827938C9.84133 0.411521 9.15812 0.411521 8.96258 0.827938L6.34533 6.40444L0.50441 7.29665C0.0246598 7.37027 -0.166924 7.95373 0.169535 8.2981L4.41287 12.6475L3.40983 18.7964C3.32987 19.2849 3.85158 19.6514 4.28304 19.4115L9.50012 16.5283L14.7172 19.4123C15.1447 19.6498 15.6712 19.2904 15.5904 18.7972L14.5874 12.6483L18.8307 8.2989C19.1672 7.95373 18.9748 7.37027 18.4958 7.29665Z" fill="#FECC41"/>
</g>
<g clip-path="url(#clip1_2102_5225)">
<path d="M41.4958 7.29665L35.6549 6.40444L33.0369 0.827938C32.8413 0.411521 32.1581 0.411521 31.9626 0.827938L29.3453 6.40444L23.5044 7.29665C23.0247 7.37027 22.8331 7.95373 23.1695 8.2981L27.4129 12.6475L26.4098 18.7964C26.3299 19.2849 26.8516 19.6514 27.283 19.4115L32.5001 16.5283L37.7172 19.4123C38.1447 19.6498 38.6712 19.2904 38.5904 18.7972L37.5874 12.6483L41.8307 8.2989C42.1672 7.95373 41.9748 7.37027 41.4958 7.29665Z" fill="#FECC41"/>
</g>
<g clip-path="url(#clip2_2102_5225)">
<path d="M64.4958 7.29665L58.6549 6.40444L56.0369 0.827938C55.8413 0.411521 55.1581 0.411521 54.9626 0.827938L52.3453 6.40444L46.5044 7.29665C46.0247 7.37027 45.8331 7.95373 46.1695 8.2981L50.4129 12.6475L49.4098 18.7964C49.3299 19.2849 49.8516 19.6514 50.283 19.4115L55.5001 16.5283L60.7172 19.4123C61.1447 19.6498 61.6712 19.2904 61.5904 18.7972L60.5874 12.6483L64.8307 8.2989C65.1672 7.95373 64.9748 7.37027 64.4958 7.29665Z" fill="#FECC41"/>
</g>
<g clip-path="url(#clip3_2102_5225)">
<path d="M87.4958 7.29665L81.6549 6.40444L79.0369 0.827938C78.8413 0.411521 78.1581 0.411521 77.9626 0.827938L75.3453 6.40444L69.5044 7.29665C69.0247 7.37027 68.8331 7.95373 69.1695 8.2981L73.4129 12.6475L72.4098 18.7964C72.3299 19.2849 72.8516 19.6514 73.283 19.4115L78.5001 16.5283L83.7172 19.4123C84.1447 19.6498 84.6712 19.2904 84.5904 18.7972L83.5874 12.6483L87.8307 8.2989C88.1672 7.95373 87.9748 7.37027 87.4958 7.29665Z" fill="#FECC41"/>
</g>
<g clip-path="url(#clip4_2102_5225)">
<path d="M110.496 7.29665L104.655 6.40444L102.037 0.827938C101.841 0.411521 101.158 0.411521 100.963 0.827938L98.3453 6.40444L92.5044 7.29665C92.0247 7.37027 91.8331 7.95373 92.1695 8.2981L96.4129 12.6475L95.4098 18.7964C95.3299 19.2849 95.8516 19.6514 96.283 19.4115L101.5 16.5283L106.717 19.4123C107.145 19.6498 107.671 19.2904 107.59 18.7972L106.587 12.6483L110.831 8.2989C111.167 7.95373 110.975 7.37027 110.496 7.29665Z" fill="#D8D8E4"/>
<g clip-path="url(#clip5_2102_5225)">
<path d="M110.496 7.29665L104.655 6.40444L102.037 0.827938C101.841 0.411521 101.158 0.411521 100.963 0.827938L98.3453 6.40444L92.5044 7.29665C92.0247 7.37027 91.8331 7.95373 92.1695 8.2981L96.4129 12.6475L95.4098 18.7964C95.3299 19.2849 95.8516 19.6514 96.283 19.4115L101.5 16.5283L106.717 19.4123C107.145 19.6498 107.671 19.2904 107.59 18.7972L106.587 12.6483L110.831 8.2989C111.167 7.95373 110.975 7.37027 110.496 7.29665Z" fill="#FECC41"/>
</g>
</g>
<defs>
<clipPath id="clip0_2102_5225">
<rect width="19" height="19" fill="white" transform="translate(0 0.5)"/>
</clipPath>
<clipPath id="clip1_2102_5225">
<rect width="19" height="19" fill="white" transform="translate(23 0.5)"/>
</clipPath>
<clipPath id="clip2_2102_5225">
<rect width="19" height="19" fill="white" transform="translate(46 0.5)"/>
</clipPath>
<clipPath id="clip3_2102_5225">
<rect width="19" height="19" fill="white" transform="translate(69 0.5)"/>
</clipPath>
<clipPath id="clip4_2102_5225">
<rect width="19" height="19" fill="white" transform="translate(92 0.5)"/>
</clipPath>
<clipPath id="clip5_2102_5225">
<rect width="13" height="20" fill="white" transform="translate(92)"/>
</clipPath>
</defs>
</svg>
