<svg width="52" height="53" viewBox="0 0 52 53" fill="none" xmlns="http://www.w3.org/2000/svg">
<path d="M6.35981 26.1884C6.35981 15.3425 15.1541 6.55339 25.9948 6.54814V0.00488281C24.1268 0.00488281 22.6996 3.69891 20.9523 4.0977C19.1525 4.50698 16.2613 1.81517 14.6346 2.60225C12.9818 3.40507 13.2966 7.34572 11.8746 8.48436C10.4474 9.623 6.66939 8.44763 5.53075 9.87487C4.39735 11.2969 6.3808 14.7128 5.57798 16.3657C4.7909 17.9923 0.876481 18.5642 0.461952 20.3693C0.0631649 22.1166 3.33217 24.3257 3.33217 26.1937C3.33217 28.0617 0.0631649 30.2707 0.461952 32.0181C0.871234 33.8231 4.7909 34.3898 5.57798 36.0164C6.3808 37.6693 4.39735 41.0905 5.53075 42.5125C6.67464 43.9397 10.4474 42.7591 11.8746 43.903C13.2966 45.0364 12.9765 48.9823 14.6346 49.7798C16.2613 50.5669 19.1525 47.8751 20.9523 48.2844C22.6996 48.6832 24.1268 52.372 25.9948 52.372V45.8287C15.1541 45.8287 6.35981 37.0344 6.35981 26.1884Z" fill="#FFF080"/>
<path d="M51.5278 20.3644C51.1185 18.5594 47.1988 17.9927 46.4117 16.366C45.6142 14.7132 47.5976 11.292 46.459 9.86999C45.3203 8.44275 41.5423 9.62337 40.1151 8.47948C38.6931 7.34608 39.0132 3.40019 37.3551 2.59737C35.7284 1.81028 32.8372 4.5021 31.0374 4.09282C29.2901 3.69403 27.8629 0 25.9949 0V6.54851C36.8408 6.54851 45.6299 15.3428 45.6299 26.1888C45.6299 37.0347 36.8408 45.8238 25.9949 45.8238V52.3671C27.8629 52.3671 29.2901 48.673 31.0374 48.2795C32.8425 47.865 35.7284 50.562 37.3551 49.775C39.0079 48.9774 38.6931 45.0315 40.1151 43.8981C41.5423 42.7594 45.3151 43.9401 46.459 42.5076C47.5924 41.0856 45.6142 37.6697 46.4117 36.0115C47.1988 34.3849 51.1132 33.8182 51.5278 32.0132C51.9265 30.2659 48.6575 28.0515 48.6575 26.1888C48.6575 24.3208 51.9265 22.1117 51.5278 20.3644Z" fill="#FFEB57"/>
<path d="M7.69262 26.1783C7.69262 16.0617 15.8887 7.86555 26.0054 7.86555V1.75781C24.2633 1.75781 22.9305 5.19997 21.3039 5.57253C19.6195 5.95557 16.9277 3.44216 15.4113 4.17677C13.8686 4.92187 14.1624 8.60016 12.8401 9.6601C11.5073 10.7253 7.98646 9.62336 6.92128 10.9562C5.86134 12.2784 7.70836 15.4687 6.9685 17.0114C6.23389 18.5279 2.58184 19.0631 2.1988 20.7422C1.82625 22.3741 4.87487 24.4362 4.87487 26.1783C4.87487 27.9204 1.82625 29.9825 2.1988 31.6091C2.58184 33.2935 6.23389 33.8235 6.9685 35.3399C7.7136 36.8826 5.86659 40.0676 6.92128 41.3952C7.98646 42.728 11.5073 41.626 12.8401 42.6912C14.1677 43.7512 13.8686 47.4294 15.4113 48.1745C16.9277 48.9092 19.6248 46.3957 21.3039 46.7788C22.9305 47.1513 24.2633 50.5935 26.0054 50.5935V44.4858C15.8887 44.491 7.69262 36.2949 7.69262 26.1783Z" fill="#219ABC"/>
<path d="M49.8172 20.7422C49.4341 19.0631 45.7821 18.5279 45.0475 17.0114C44.3024 15.4687 46.1494 12.2837 45.0894 10.9562C44.0243 9.62337 40.5086 10.7253 39.1706 9.6601C37.8431 8.60016 38.1421 4.92187 36.5995 4.17677C35.0778 3.44216 32.386 5.95557 30.7069 5.57253C29.075 5.19998 27.7474 1.75781 26.0054 1.75781V7.86556C36.122 7.86556 44.3181 16.0669 44.3181 26.1783C44.3181 36.2949 36.1167 44.491 26.0054 44.491V50.5988C27.7474 50.5988 29.0802 47.1566 30.7069 46.784C32.386 46.401 35.0778 48.9144 36.5995 48.1798C38.1421 47.4347 37.8483 43.7564 39.1706 42.6965C40.5034 41.6313 44.0243 42.7332 45.0894 41.4004C46.1494 40.0729 44.2971 36.8878 45.0475 35.3451C45.7821 33.8287 49.4341 33.2935 49.8172 31.6144C50.1897 29.9825 47.1411 27.9256 47.1411 26.1835C47.1358 24.4362 50.1897 22.3741 49.8172 20.7422Z" fill="#198EC3"/>
<path d="M7.69262 26.1783C7.69262 16.0617 15.8887 7.86555 26.0054 7.86555V1.75781C24.2633 1.75781 22.9305 5.19997 21.3039 5.57253C19.6195 5.95557 16.9277 3.44216 15.4113 4.17677C13.8686 4.92187 14.1624 8.60016 12.8401 9.6601C11.5073 10.7253 7.98646 9.62336 6.92128 10.9562C5.86134 12.2784 7.70836 15.4687 6.9685 17.0114C6.23389 18.5279 2.58184 19.0631 2.1988 20.7422C1.82625 22.3741 4.87487 24.4362 4.87487 26.1783C4.87487 27.9204 1.82625 29.9825 2.1988 31.6091C2.58184 33.2935 6.23389 33.8235 6.9685 35.3399C7.71361 36.8826 5.86659 40.0676 6.92128 41.3952C7.98646 42.728 11.5073 41.626 12.8401 42.6912C14.1677 43.7512 13.8686 47.4294 15.4113 48.1745C16.9277 48.9092 19.6248 46.3957 21.3039 46.7788C22.9305 47.1513 24.2633 50.5935 26.0054 50.5935V44.4858C15.8887 44.491 7.69262 36.2949 7.69262 26.1783Z" fill="#FECC41"/>
<path d="M49.8172 20.7422C49.4341 19.0631 45.7821 18.5279 45.0475 17.0114C44.3024 15.4687 46.1494 12.2837 45.0894 10.9562C44.0243 9.62337 40.5086 10.7253 39.1706 9.6601C37.8431 8.60016 38.1421 4.92187 36.5995 4.17677C35.0778 3.44216 32.386 5.95557 30.7069 5.57253C29.075 5.19998 27.7474 1.75781 26.0054 1.75781V7.86556C36.122 7.86556 44.3181 16.0669 44.3181 26.1783C44.3181 36.2949 36.1167 44.491 26.0054 44.491V50.5988C27.7474 50.5988 29.0802 47.1566 30.7069 46.784C32.386 46.401 35.0778 48.9144 36.5995 48.1798C38.1421 47.4347 37.8483 43.7564 39.1706 42.6965C40.5034 41.6313 44.0243 42.7332 45.0894 41.4004C46.1494 40.0729 44.2971 36.8878 45.0475 35.3451C45.7821 33.8287 49.4341 33.2935 49.8172 31.6144C50.1897 29.9825 47.1411 27.9256 47.1411 26.1835C47.1358 24.4362 50.1897 22.3741 49.8172 20.7422Z" fill="#FECC41"/>
<path d="M26.0054 44.4917C36.122 44.4917 44.3181 36.2903 44.3181 26.1789C44.3181 16.0623 36.1167 7.86621 26.0054 7.86621V44.4917Z" fill="#FF835B"/>
<path d="M7.69263 26.1789C7.69263 36.2955 15.8888 44.4917 26.0054 44.4917V7.86621C15.8888 7.86621 7.69263 16.0623 7.69263 26.1789Z" fill="#FF835B"/>
<path d="M26.0051 42.8491C35.2087 42.8491 42.6702 35.3876 42.6702 26.184C42.6702 16.9804 35.2087 9.51367 26.0051 9.51367V42.8491V42.8491Z" fill="white"/>
<path d="M9.34009 26.184C9.34009 35.3876 16.8016 42.8491 26.0052 42.8491V9.51367C16.8016 9.51367 9.34009 16.9752 9.34009 26.184Z" fill="white"/>
<path d="M27.9464 32.3111L27.9555 16.7002H26.1817L25.4939 16.8902C25.1591 17.759 24.6116 18.5011 23.8469 19.1074C23.0867 19.7183 22.2813 20.0803 21.4396 20.1889V22.9672H24.4306V32.3111H21.2134V35.6459H24.4306H26.1772H27.9419H31.141V32.3111H27.9464V32.3111Z" fill="#FF835B"/>
<path d="M27.5981 32.3105V16.8896H25.8334H25.1456C24.8108 17.7584 24.2633 18.5005 23.5031 19.1068C22.7429 19.7177 21.9375 20.0797 21.0959 20.1883V22.9666H24.0868V32.3105H20.8696V35.6453H24.0868H25.8334H27.5981H30.7972V32.3105H27.5981V32.3105Z" fill="#FF9C7C"/>
<path d="M24.2633 32.3117V22.9678H24.0868V32.1261H20.8742L20.8696 35.651H21.0506L21.0461 32.3117H24.2633Z" fill="#FFE6DE"/>
<path d="M23.6794 19.1074C24.4441 18.4966 24.9916 17.759 25.3265 16.8902H26.0143H27.6025L27.96 16.7002H25.8378H25.15C24.8152 17.569 24.2676 18.3065 23.5029 18.9174C22.7428 19.5283 21.9373 19.8902 21.0957 19.9988V22.7771H21.2722V20.1889C22.1138 20.0803 22.9147 19.7183 23.6794 19.1074Z" fill="#FFE6DE"/>
</svg>
