<svg width="69" height="21" viewBox="0 0 69 21" fill="none" xmlns="http://www.w3.org/2000/svg">
<path fill-rule="evenodd" clip-rule="evenodd" d="M10.4536 20.5H10.5233C16.035 20.4767 20.5001 16.0116 20.5001 10.5C20.5001 4.98837 16.035 0.523256 10.5466 0.5H10.4536C4.94195 0.523256 0.50009 4.98837 0.50009 10.5C0.476835 16.0116 4.94195 20.4767 10.4536 20.5Z" fill="#E31818"/>
<path fill-rule="evenodd" clip-rule="evenodd" d="M4.22217 8.61624H8.59426V4.24414H12.3617V8.61624H16.7338V12.3604H12.3617V16.7558H8.59426V12.3604H4.22217V8.61624Z" fill="white"/>
<path d="M30.058 16.14C29.358 16.14 28.7093 16.014 28.112 15.762C27.5147 15.5007 26.992 15.1413 26.544 14.684C26.1053 14.2267 25.7647 13.6947 25.522 13.088C25.2793 12.4813 25.158 11.8327 25.158 11.142C25.158 10.442 25.2793 9.78867 25.522 9.182C25.7647 8.57533 26.1053 8.048 26.544 7.6C26.992 7.14267 27.51 6.788 28.098 6.536C28.6953 6.27467 29.344 6.144 30.044 6.144C30.8093 6.144 31.4813 6.27467 32.06 6.536C32.6387 6.79733 33.152 7.152 33.6 7.6L32.69 8.51C32.382 8.16467 32.004 7.894 31.556 7.698C31.1173 7.502 30.6133 7.404 30.044 7.404C29.5307 7.404 29.0593 7.49733 28.63 7.684C28.2007 7.86133 27.8273 8.118 27.51 8.454C27.1927 8.79 26.9453 9.18667 26.768 9.644C26.6 10.1013 26.516 10.6007 26.516 11.142C26.516 11.6833 26.6 12.1827 26.768 12.64C26.9453 13.0973 27.1927 13.494 27.51 13.83C27.8273 14.166 28.2007 14.4273 28.63 14.614C29.0593 14.7913 29.5307 14.88 30.044 14.88C30.6507 14.88 31.178 14.782 31.626 14.586C32.074 14.3807 32.452 14.1053 32.76 13.76L33.67 14.656C33.222 15.1227 32.6947 15.4867 32.088 15.748C31.4907 16.0093 30.814 16.14 30.058 16.14ZM35.2867 16V6.284H36.6027V16H35.2867ZM41.5587 16V6.284H42.8747V16H41.5587ZM36.1827 11.576V10.372H41.8807V11.576H36.1827Z" fill="#080708"/>
<path d="M65.4762 6.95703L60.4982 11.9171L58.4727 9.89159" stroke="#3FCA89" stroke-width="1.5" stroke-linecap="round" stroke-linejoin="round"/>
<path d="M66.0251 9.24401C66.6305 11.9058 65.2529 14.621 62.7474 15.7045C60.2419 16.788 57.32 15.932 55.7952 13.6679C54.2703 11.4038 54.5756 8.37443 56.5214 6.46001C58.4673 4.54558 61.5012 4.28974 63.7402 5.85127" stroke="#D8D8E4" stroke-linecap="round" stroke-linejoin="round"/>
</svg>
