<svg width="16" height="17" viewBox="0 0 16 17" fill="none" xmlns="http://www.w3.org/2000/svg">
<path d="M14.94 1.87819L9.96503 14.8482C9.92877 14.9422 9.86498 15.023 9.78201 15.0801C9.69903 15.1372 9.60075 15.1679 9.50003 15.1682H9.46503C9.35879 15.1603 9.25784 15.1187 9.1769 15.0495C9.09595 14.9802 9.03924 14.8869 9.01503 14.7832L7.58503 8.58319L1.38503 7.16819C1.28221 7.1428 1.1901 7.08542 1.12199 7.00431C1.05388 6.9232 1.01328 6.82256 1.00605 6.7169C0.99882 6.61123 1.02533 6.506 1.08176 6.41637C1.13819 6.32674 1.22162 6.25735 1.32003 6.21819L14.29 1.22819C14.3809 1.19182 14.4804 1.18291 14.5763 1.20258C14.6722 1.22225 14.7602 1.26962 14.8294 1.33883C14.8986 1.40804 14.946 1.49603 14.9656 1.59191C14.9853 1.68778 14.9764 1.78733 14.94 1.87819Z" fill="white"/>
</svg>
