<svg width="134" height="64" viewBox="0 0 134 64" fill="none" xmlns="http://www.w3.org/2000/svg">
<circle cx="29" cy="35.668" r="28" fill="url(#paint0_linear_1434_8772)"/>
<g clip-path="url(#clip0_1434_8772)">
<mask id="mask0_1434_8772" style="mask-type:alpha" maskUnits="userSpaceOnUse" x="1" y="7" width="56" height="57">
<circle cx="29" cy="35.668" r="28" fill="url(#paint1_linear_1434_8772)"/>
</mask>
<g mask="url(#mask0_1434_8772)">
<path fill-rule="evenodd" clip-rule="evenodd" d="M15.0231 38.6289C15.0231 38.6289 13.7835 46.5832 11.7625 49.4683C10.2265 51.6793 9.49897 54.6723 8.25941 57.2338C7.82826 58.1506 7.31628 59.0134 6.66955 59.7684C4.05569 62.8962 0.579516 67.7227 0.579516 67.7227C-2.03434 67.3452 -3.57031 63.6781 -3.57031 63.6781C-1.63013 58.7707 2.41192 52.677 4.8641 50.1694C7.12764 47.8774 8.74446 43.779 9.79539 40.786C9.90318 40.5164 9.98402 40.2467 10.0649 39.9771C11.0888 36.9302 12.4093 35.3933 12.4093 35.3933C13.1099 35.2315 15.0231 38.6289 15.0231 38.6289Z" fill="#321833"/>
<path fill-rule="evenodd" clip-rule="evenodd" d="M15.0258 38.6289C15.0258 38.6289 13.7863 46.5832 11.7652 49.4683C10.2292 51.6793 9.50168 54.6723 8.26212 57.2338L4.83984 58.0967C4.83984 58.0967 6.75309 54.2948 7.37287 51.5445C7.99265 48.7942 9.71726 41.0826 9.71726 41.0826L9.77116 40.786C9.87895 40.5164 9.95979 40.2467 10.0406 39.9771C11.0646 36.9302 12.385 35.3933 12.385 35.3933C13.1126 35.2315 15.0258 38.6289 15.0258 38.6289Z" fill="#321833"/>
<path fill-rule="evenodd" clip-rule="evenodd" d="M37.8514 35.7975C37.8783 36.0671 37.9053 36.3098 37.9053 36.4985C37.9322 37.4423 37.4741 39.114 36.9082 40.7588C36.1807 42.8619 35.2914 44.8842 35.1836 45.1269C35.2375 44.9651 35.5609 43.9135 35.1836 42.1339C34.7525 40.1926 30.3062 37.0378 29.0667 33.3168C28.8242 32.5619 28.7433 31.6181 28.7972 30.5935C28.905 28.3286 29.5517 25.5244 30.0907 22.8819L30.1446 22.5853C30.5218 20.6439 30.8182 18.7835 30.7643 17.2735C30.6027 12.6088 32.2464 9.48101 32.2464 9.48101L34.0519 9.18441C34.0519 9.18441 36.046 8.45639 37.3933 9.48101C38.4712 10.3169 38.6598 14.3075 37.3933 20.7788C36.2076 26.6568 37.528 32.9663 37.8514 35.7975Z" fill="url(#paint2_linear_1434_8772)"/>
<path fill-rule="evenodd" clip-rule="evenodd" d="M21.819 1.9834C21.819 1.9834 20.4986 4.30227 18.1272 5.24599C15.7559 6.18972 14.3008 6.89077 13.8966 9.29054C13.4924 11.6903 15.3517 14.0092 16.214 14.6293C17.1032 15.2225 19.4207 10.5848 19.4207 10.5848L22.9507 4.14049L22.1693 3.19676L21.819 1.9834Z" fill="url(#paint3_linear_1434_8772)"/>
<path fill-rule="evenodd" clip-rule="evenodd" d="M19.0956 4.76367C19.0956 4.76367 18.7992 5.30294 17.0476 6.70505C14.9997 8.32287 14.2451 14.0392 17.5866 15.4952C17.5866 15.4952 14.4338 14.7672 13.5445 11.3967C12.7092 8.32287 15.9158 7.16343 19.0956 4.76367Z" fill="url(#paint4_linear_1434_8772)"/>
<path fill-rule="evenodd" clip-rule="evenodd" d="M45.7758 43.0771C45.7758 43.0771 46.1262 44.641 45.5603 45.4769L44.3477 44.2635L45.7758 43.0771Z" fill="url(#paint5_radial_1434_8772)"/>
<path d="M43.5391 27.8435V29.9197L46.4493 32.3733L48.8476 32.1846L49.8985 31.8071C49.8985 31.8071 50.8956 30.378 50.9764 30.0814C51.0573 29.7848 50.9764 29.1647 50.9764 29.1647L47.0422 27.0615L43.5391 27.8435Z" fill="#F17C57"/>
<path d="M43.7539 27.6015C43.7539 27.6015 44.6701 24.8243 44.8048 23.8805C44.9396 22.9368 45.748 19.7551 46.0713 19.1619C46.0713 19.1619 46.6911 19.081 47.0684 19.6742C47.4456 20.2405 47.0953 22.9368 46.2061 24.2041C46.2061 24.2041 45.8827 25.8759 45.9097 27.0353L43.7539 27.6015Z" fill="url(#paint6_linear_1434_8772)"/>
<path d="M28.3952 24.4736C28.3952 24.4736 27.6138 27.3587 27.7754 29.1653L28.3952 29.5698C28.3952 29.5698 26.482 34.0457 23.5986 35.0434C20.7153 36.041 18.8021 34.8546 19.8261 32.1583C19.8261 32.1583 22.6016 31.1336 23.1136 30.136C23.6256 29.1114 23.5717 26.7386 23.5717 26.7386L28.3952 24.4736Z" fill="url(#paint7_linear_1434_8772)"/>
<path d="M32.4385 13.0132C32.4385 13.0132 32.2768 18.8643 30.0402 22.5044C29.7708 22.9358 29.4744 23.3402 29.151 23.7177C26.6988 26.3871 23.1149 27.2769 21.6867 27.196C20.2585 27.1151 19.8812 26.6568 19.3692 26.1984C18.8842 25.767 15.6775 24.23 14.896 21.9381C14.1685 19.808 15.7044 17.5161 16.1086 16.2218C16.1356 16.114 16.1625 16.0331 16.1895 15.9522C16.4051 14.7388 15.7853 11.8537 16.1895 9.61576C16.5937 7.37778 19.8004 4.27697 22.9532 4.11519C29.7708 3.76466 32.4385 13.0132 32.4385 13.0132Z" fill="url(#paint8_linear_1434_8772)"/>
<path d="M31.9204 17.2196C31.9204 17.2196 32.4324 16.3837 33.9683 16.0602C33.9683 16.0602 35.0732 15.8984 35.3696 17.1927C35.3696 17.1927 35.5043 19.5655 34.4534 20.9406C33.4025 22.3427 31.5701 22.4236 31.1389 22.3157C30.7078 22.2079 30.7347 21.2102 30.7347 21.2102C30.7347 21.2102 31.4084 17.8667 31.9204 17.2196Z" fill="url(#paint9_linear_1434_8772)"/>
<path d="M41.3828 41.4076C41.3828 41.4076 44.1853 37.417 44.2931 36.2845C44.4009 35.125 42.5685 33.4263 42.1643 32.1321C41.8948 31.2423 42.8649 27.4943 42.9996 27.2247C43.1344 26.9551 44.832 26.4967 45.5057 26.308C46.1794 26.0922 47.1495 25.6608 47.365 25.8226C47.5806 26.0114 47.2034 27.6022 46.0716 28.1415C45.0206 28.6268 44.4009 28.5729 44.4009 28.5729L44.1045 29.8402C44.1045 29.8402 45.1823 30.1098 45.883 30.8378C46.5566 31.5659 47.9309 31.8085 48.901 31.8355C49.8711 31.8625 51.0029 30.0829 51.0029 30.0829C51.0029 30.0829 50.1675 33.8308 48.9549 35.3947C48.9549 35.3947 47.904 36.5272 47.3111 36.662C47.3111 36.662 45.371 44.4814 42.7302 49.0922L41.3828 41.4076Z" fill="url(#paint10_linear_1434_8772)"/>
<path d="M46.823 26.4404C46.823 26.4404 47.4428 26.5752 48.0895 27.0606V27.5729C48.0895 27.5729 49.3291 27.7347 49.6794 28.1391V28.5166C49.6794 28.5166 50.4339 28.6515 50.9459 29.1638C50.9459 29.1638 50.4878 30.7276 49.6794 31.2939C49.6794 31.2939 49.0866 31.2669 48.6015 30.8625L48.2782 31.186C48.2782 31.186 47.2811 31.3478 47.2272 30.5389L47.5506 29.4064C47.5506 29.4064 47.1464 29.8918 46.9578 29.9457C46.7961 30.0266 46.0685 29.8109 46.0416 29.2716C45.9877 28.7323 46.823 26.4404 46.823 26.4404Z" fill="url(#paint11_linear_1434_8772)"/>
<path fill-rule="evenodd" clip-rule="evenodd" d="M19.9734 33.5645C19.9734 33.5645 20.6688 35.3841 24.3777 33.7884L19.4809 38.6875L18.9883 37.3718L19.9734 33.5645Z" fill="url(#paint12_linear_1434_8772)"/>
<path fill-rule="evenodd" clip-rule="evenodd" d="M30.0358 30.8905C30.0358 30.8905 29.4699 31.4567 28.5806 32.2926C27.8531 32.9937 26.9099 33.9104 25.9398 34.8541L25.9129 34.8811C23.7571 36.9573 21.4127 39.2222 20.6313 39.9503C19.0684 41.4063 16.8317 45.4778 16.8317 45.4778C16.8317 45.4778 15.2958 43.0511 15.0802 42.0265C14.8646 41.0018 15.0802 33.9643 15.0802 33.9643C15.0802 33.9643 16.8318 33.3172 18.3408 32.5083C19.3109 31.969 20.4426 31.2949 21.1163 30.8635C21.4127 30.6748 21.6283 30.54 21.7092 30.486H21.7361L22.6792 30.6209C22.275 31.1062 20.6582 31.7803 20.6582 31.7803C19.4726 33.6408 19.8768 37.3348 19.8768 37.3348C19.8768 37.3348 21.5744 36.1754 23.4068 34.5036C25.2392 32.8319 28.2303 29.4614 28.2303 29.4614L28.0147 29.3266L28.3651 29.2188L28.8501 29.7041L29.443 30.2973L30.0358 30.8905Z" fill="url(#paint13_linear_1434_8772)"/>
<path fill-rule="evenodd" clip-rule="evenodd" d="M39.9009 94.1195H16.7535C16.2684 92.0164 15.8642 89.9671 15.5139 88.2684L15.3792 87.5674L15.2714 87.0281L15.2444 86.9203L15.2175 86.7046C15.2175 86.6776 15.2175 86.6776 15.2175 86.6776C14.9749 85.3564 14.8133 84.3857 14.7594 84.0352L15.9989 94.1465H6.67529C5.70519 89.8323 4.97763 84.898 4.51953 80.6647C4.25006 77.9953 4.08837 75.5686 4.06142 73.789C4.03448 72.5217 4.08837 71.551 4.2231 70.9848C4.97762 67.6683 7.67231 63.7046 9.5586 59.3635C10.4479 57.3412 10.9599 55.3459 11.2832 53.809C11.2832 53.809 11.2832 53.809 11.2832 53.782C11.6335 52.0294 11.7144 50.843 11.7144 50.843C11.5527 50.6812 11.391 50.4924 11.2293 50.2767C9.98976 48.605 9.47777 46.1783 9.53166 45.7468C9.58556 45.2615 9.80113 44.3178 10.879 42.7539C11.9569 41.19 13.2234 38.9251 13.1695 37.9004C13.1156 36.8489 12.3611 35.4468 12.3611 35.4468C12.3611 35.4468 14.463 34.2064 16.0528 33.4245C16.5379 33.1818 17.0499 32.9122 17.508 32.6695C18.5858 32.0763 19.4751 31.5101 19.4751 31.5101H20.1218L20.041 31.564C20.014 31.564 20.014 31.591 19.9871 31.591C19.9601 31.591 19.9601 31.6179 19.9332 31.6179C19.9062 31.6449 19.8793 31.6449 19.8524 31.6719C19.7176 31.7527 19.529 31.8876 19.3404 31.9954C19.2595 32.0493 19.1787 32.0763 19.1248 32.1302C18.8823 32.292 18.6397 32.4268 18.4511 32.5616L18.0469 32.8313C17.8583 33.1818 17.6427 33.775 17.4541 34.4761C16.996 36.0939 16.5379 38.3319 16.2415 40.0845C16.0528 41.2439 15.9181 42.1607 15.9181 42.5382C15.9181 42.5382 15.9181 42.5382 15.9181 42.5651C15.9181 42.6191 15.9181 42.646 15.9181 42.673C15.9181 42.7 15.9181 42.7269 15.945 42.7539C15.945 42.7809 15.945 42.7809 15.945 42.8078C15.972 42.9696 16.0259 43.1583 16.0798 43.3471V43.3741C16.2684 43.9942 16.5109 44.7222 16.6187 45.0188V45.0458V45.0728L16.6457 45.1267C16.6457 45.1267 18.4242 42.2955 19.6907 40.6507C20.0949 40.1115 21.1189 39.0868 22.3315 37.9274C24.7837 35.5007 28.0173 32.4808 28.3676 31.8336C28.5562 31.4831 28.691 31.0787 28.7449 30.7281C28.7718 30.5394 28.7988 30.3506 28.8257 30.2158C28.8527 29.9192 28.8527 29.7305 28.8527 29.7305H29.4455C29.8497 29.9462 30.9276 30.1349 32.1941 30.3776C32.8408 30.5124 33.3798 30.782 33.784 31.0247C34.1612 31.2674 34.4037 31.4561 34.4037 31.4561C34.4037 31.4561 34.1612 31.6179 33.8109 31.9415C33.272 32.3999 32.4636 33.1548 31.6821 34.1525C31.6282 34.2334 31.5474 34.3143 31.4935 34.3952C31.1432 34.8805 30.7928 35.4198 30.4964 35.986C30.3347 36.2826 30.2 36.5792 30.0653 36.9028C29.6072 38.0622 29.4455 39.2217 29.3916 40.2193C29.3647 40.7316 29.3916 41.19 29.4185 41.5945C29.4994 42.4573 29.6341 43.0505 29.688 43.2392V43.2662C29.688 43.2932 29.688 43.2932 29.688 43.2932C28.5023 44.6953 27.2628 47.3647 26.3196 49.9801C25.3495 52.6765 24.7028 55.3189 24.7567 56.5053C24.8645 58.8781 28.3137 69.5827 32.0593 76.9977C34.5924 82.0668 37.9608 89.6975 39.9009 94.1195Z" fill="#321833"/>
<path fill-rule="evenodd" clip-rule="evenodd" d="M28.8486 29.7051C28.8486 29.7051 28.2019 30.9454 24.9143 34.2889C21.6268 37.6054 20.0908 39.7086 20.0908 39.7086L17.5039 39.6007L20.1447 39.7895L28.3636 32.7789L29.4684 30.2174L28.8486 29.7051Z" fill="url(#paint14_linear_1434_8772)"/>
<path fill-rule="evenodd" clip-rule="evenodd" d="M45.8248 45.4768L43.5613 47.7956C42.4834 50.7077 38.1988 55.8577 37.8216 55.8577C37.4443 55.8577 34.9113 54.2399 33.9142 52.0828C32.9172 49.9527 32.9442 48.4697 32.8364 47.6608C32.7286 46.8789 30.7345 42.6995 30.7345 42.6995L29.6836 43.2927C29.6836 43.2927 29.3063 42.4029 29.1716 41.0278C29.0099 39.5987 29.0907 37.6573 30.0339 35.6081C31.8932 31.5635 34.3724 31.4287 34.3724 31.4287C34.3724 31.4287 34.8574 31.7792 34.9113 31.941C34.9382 31.9949 34.9113 32.3724 34.9113 32.8847V32.9387C34.8843 33.8015 34.8304 35.0149 34.8843 35.9047C34.9652 37.3337 37.1209 45.4498 37.2287 45.4768C37.2557 45.4768 37.579 45.2341 38.0102 44.8566C38.9803 43.9938 40.6241 42.4029 41.2977 41.3513C41.4325 41.1356 41.5672 40.9199 41.675 40.7312C42.2678 39.7065 42.4564 39.1673 42.4834 39.1133L43.0762 38.9246L42.9146 39.1942C43.696 43.6972 45.6631 45.1532 45.6631 45.1532C45.9865 44.2904 45.9326 43.1848 45.9057 42.9691C46.0135 43.9668 45.8248 45.4768 45.8248 45.4768Z" fill="#321833"/>
<path fill-rule="evenodd" clip-rule="evenodd" d="M22.6797 7.16211C22.6797 7.16211 23.03 7.32389 24.6199 7.89013C26.2367 8.45636 27.8535 9.18438 28.7428 10.6943C28.7428 10.6943 27.4224 9.50794 25.8325 9.26527C24.2426 9.0226 23.4342 8.91474 23.1647 8.726C22.8953 8.56422 22.6797 7.16211 22.6797 7.16211Z" fill="url(#paint15_linear_1434_8772)"/>
<path fill-rule="evenodd" clip-rule="evenodd" d="M16.0495 11.5581C16.0495 11.5581 16.3189 10.9919 16.9387 11.0998C17.5585 11.2346 18.7172 13.2838 18.7172 13.2838C18.7172 13.2838 17.8549 10.6144 17.0465 10.0212C16.4537 9.58979 16.0495 10.3987 16.0495 10.3987C16.0495 10.3987 15.78 10.9649 16.0495 11.5581Z" fill="url(#paint16_linear_1434_8772)"/>
<path d="M24.1089 17.1384C24.5401 17.6508 28.3935 17.2193 29.0133 15.6824C29.6869 14.0107 28.124 11.5839 25.9952 12.0154C23.4622 12.5007 22.8963 15.6824 24.1089 17.1384Z" fill="url(#paint17_linear_1434_8772)"/>
<path d="M19.0966 15.6825C19.0966 15.8712 19.0966 16.0599 19.0697 16.2487C19.0158 16.6801 18.8541 17.0306 18.6924 17.3003C18.396 17.7856 18.0187 18.0283 17.8301 18.0283C17.4528 18.0283 16.86 18.0552 16.5905 16.6801C16.3211 15.305 16.5366 13.3097 17.3451 12.9861C17.6415 12.8513 18.0187 13.1209 18.369 13.5523C18.5307 13.768 18.6924 14.0377 18.8271 14.3343C18.9888 14.7387 19.0966 15.1971 19.0966 15.6825Z" fill="url(#paint18_linear_1434_8772)"/>
<path fill-rule="evenodd" clip-rule="evenodd" d="M20.0364 20.2939C20.0364 20.2939 17.9345 20.5905 17.4494 19.3771C17.1261 18.5952 18.4195 18.3525 19.0932 16.8965C19.0932 16.8965 18.7698 17.7593 18.3387 18.2447C17.8537 18.7839 17.7728 18.9188 18.0423 19.3502C18.5004 20.1591 20.0364 20.2939 20.0364 20.2939Z" fill="#F17C57"/>
<path fill-rule="evenodd" clip-rule="evenodd" d="M20.2812 19.4315C20.2812 19.4315 20.7393 18.8922 21.4939 18.9731C21.4939 18.9731 21.1166 19.054 21.0088 19.2158C20.901 19.3776 20.5777 19.7011 20.2812 19.4315Z" fill="#C44A4C"/>
<path fill-rule="evenodd" clip-rule="evenodd" d="M21.1953 4.81684C21.1953 4.81684 21.357 0.691406 23.2163 0.691406C24.8601 0.691406 25.8571 2.28226 27.3931 3.14509C28.9291 4.00793 33.2406 5.65271 34.2916 7.02785C35.3425 8.403 36.1509 12.9598 34.2916 16.0337C34.2916 16.0337 32.5669 16.0876 31.516 18.2717C31.516 18.2717 32.1358 15.3326 31.7046 13.553C31.7046 13.553 29.98 13.2025 28.3093 10.6949C26.6386 8.18729 25.7494 4.78988 24.6715 4.38542C23.5936 3.98097 22.0307 4.2506 21.2223 5.05951V4.81684H21.1953Z" fill="url(#paint19_linear_1434_8772)"/>
<path fill-rule="evenodd" clip-rule="evenodd" d="M20.7953 5.40906C20.7953 5.40906 20.0947 4.81586 19.0977 5.67869C19.0977 5.67869 19.8252 4.73497 20.1486 2.84751C20.445 0.960061 22.978 0.178116 24.3523 1.01399C25.7266 1.8229 26.8853 9.56145 30.0651 12.7162C30.0651 12.7162 27.559 10.9636 26.2925 7.62007C25.3763 5.19335 24.8374 4.49229 23.5708 4.22266C22.3313 3.95302 20.7953 5.40906 20.7953 5.40906Z" fill="url(#paint20_linear_1434_8772)"/>
<path fill-rule="evenodd" clip-rule="evenodd" d="M23.5689 16.0341C23.5689 16.0341 23.1109 13.9309 24.9163 12.6906C26.6948 11.4502 28.9584 12.6366 29.1739 14.6319C29.1739 14.6319 29.9554 14.3623 30.3057 13.4995C30.3057 13.4995 29.8476 13.6073 29.5242 13.5804C29.5242 13.5804 28.5541 11.3963 26.4523 11.3693C24.3504 11.3424 23.057 13.9309 23.5689 16.0341Z" fill="url(#paint21_linear_1434_8772)"/>
<path fill-rule="evenodd" clip-rule="evenodd" d="M24.5664 17.3023C24.5664 17.3023 25.4287 17.6258 27.1264 17.3292C28.824 17.0326 29.0666 15.4688 29.0666 15.4688C29.0666 15.4688 28.5276 17.3562 24.5664 17.3023Z" fill="#C44A4C"/>
<path fill-rule="evenodd" clip-rule="evenodd" d="M16.6445 16.9785C16.6445 16.9785 16.7523 17.9762 17.399 18.111C18.0188 18.2458 18.6117 17.5717 18.8003 17.0594C18.8003 17.0594 18.3961 17.9492 17.6146 17.9222C16.9679 17.9222 16.6445 16.9785 16.6445 16.9785Z" fill="#C44A4C"/>
<path fill-rule="evenodd" clip-rule="evenodd" d="M28.5561 14.6289C28.5561 15.7074 27.6938 16.5703 26.616 16.5703C25.5381 16.5703 24.6758 15.7074 24.6758 14.6289C24.6758 13.5503 25.5381 12.6875 26.616 12.6875C27.6669 12.6875 28.5561 13.5773 28.5561 14.6289Z" fill="url(#paint22_linear_1434_8772)"/>
<path fill-rule="evenodd" clip-rule="evenodd" d="M27.9103 14.6308C27.9103 15.3588 27.3175 15.952 26.5899 15.952C25.8624 15.952 25.2695 15.3588 25.2695 14.6308C25.2695 13.9028 25.8624 13.3096 26.5899 13.3096C27.3175 13.3096 27.9103 13.9028 27.9103 14.6308Z" fill="url(#paint23_linear_1434_8772)"/>
<path fill-rule="evenodd" clip-rule="evenodd" d="M19.0991 15.6829C19.0991 15.8716 19.0992 16.0603 19.0722 16.2491C19.0183 16.6805 18.8566 17.031 18.6949 17.3007C18.5602 17.3816 18.3985 17.4355 18.2638 17.4355C17.5901 17.4355 17.0781 16.5727 17.0781 15.4941C17.0781 14.4156 17.6171 13.5527 18.2638 13.5527C18.2907 13.5527 18.3446 13.5527 18.3716 13.5527C18.5333 13.7684 18.6949 14.0381 18.8297 14.3347C18.9914 14.7391 19.0991 15.1975 19.0991 15.6829Z" fill="url(#paint24_linear_1434_8772)"/>
<path fill-rule="evenodd" clip-rule="evenodd" d="M19.095 15.6838C19.095 15.8725 19.095 16.0613 19.068 16.25C18.9333 16.6006 18.6908 16.8163 18.3943 16.8163C17.9362 16.8163 17.5859 16.2231 17.5859 15.495C17.5859 14.767 17.9362 14.1738 18.3943 14.1738C18.5291 14.1738 18.6908 14.2278 18.7986 14.3626C18.9872 14.7401 19.095 15.1984 19.095 15.6838Z" fill="url(#paint25_linear_1434_8772)"/>
<path fill-rule="evenodd" clip-rule="evenodd" d="M19.0957 16.0327C19.0957 16.0327 18.6645 13.1476 17.6405 13.2824C16.7513 13.4172 16.4818 15.3316 16.4818 15.3316C16.4818 15.3316 15.9968 15.3047 15.5117 14.7654C15.5117 14.7654 15.9159 14.7115 16.2123 14.6036C16.2123 14.6036 16.5357 12.8779 17.2902 12.5544C18.0717 12.2308 19.1765 14.3609 19.0957 16.0327Z" fill="url(#paint26_linear_1434_8772)"/>
<path d="M18.1797 21.9654C18.1797 21.9654 18.5839 22.0732 18.7995 22.3429C19.0151 22.6125 19.0689 22.99 19.6887 23.0978C20.2816 23.2057 22.572 23.0439 24.647 20.6172C24.647 20.6172 23.3535 21.2643 21.9253 21.3182C20.4971 21.3722 19.5001 21.6957 19.0959 21.8575C18.6917 22.0463 18.1797 21.9654 18.1797 21.9654Z" fill="url(#paint27_linear_1434_8772)"/>
<path d="M18.0699 21.9389C18.0699 21.9389 18.3663 22.0198 18.7975 21.9389C19.2287 21.858 19.2825 21.3187 20.4413 21.2109C21.6 21.0761 22.9743 21.1839 23.6749 20.9952C24.3755 20.8064 24.7528 20.375 24.7528 20.375H24.9414C24.9414 20.375 24.4833 20.9143 22.9743 21.3727C21.4653 21.8041 19.1209 22.0737 18.6897 22.0737C18.2586 22.0467 18.043 22.0198 18.043 22.0198L18.0699 21.9389Z" fill="url(#paint28_linear_1434_8772)"/>
<path fill-rule="evenodd" clip-rule="evenodd" d="M25.1858 15.6283C25.1858 15.817 25.0241 15.9518 24.8624 15.9518C24.6738 15.9518 24.5391 15.7901 24.5391 15.6283C24.5391 15.4395 24.7007 15.3047 24.8624 15.3047C25.0241 15.2777 25.1858 15.4395 25.1858 15.6283Z" fill="white"/>
<path fill-rule="evenodd" clip-rule="evenodd" d="M17.638 16.572C17.665 16.7607 17.5303 16.9225 17.3416 16.9495C17.153 16.9764 16.9913 16.8416 16.9644 16.6529C16.9374 16.4641 17.0722 16.3024 17.2608 16.2754C17.4494 16.2754 17.6111 16.4102 17.638 16.572Z" fill="white"/>
<path fill-rule="evenodd" clip-rule="evenodd" d="M31.3555 19.5376C31.3555 19.5376 32.8375 17.6232 34.2657 17.3535C34.2657 17.3535 34.8316 18.0006 34.7777 18.9713C34.7777 18.9713 34.5622 17.9737 34.131 17.758C34.131 17.758 34.0232 17.7849 33.7538 17.9197C33.3495 18.0815 32.595 18.5399 31.3555 19.5376Z" fill="#F3764E"/>
<path fill-rule="evenodd" clip-rule="evenodd" d="M32.6791 18.4331C32.6791 18.4331 33.73 18.3792 33.9726 18.4331C34.2151 18.4871 34.3498 19.8083 33.9726 20.3206C33.5953 20.8329 33.1103 20.5093 32.4635 20.4824C31.8168 20.4554 31.3856 20.6172 31.3856 20.6172C31.3856 20.6172 31.0892 19.8892 31.3856 19.5387C31.6551 19.1881 32.6791 18.4331 32.6791 18.4331Z" fill="#F3764E"/>
<path fill-rule="evenodd" clip-rule="evenodd" d="M24.6484 1.31055C24.6484 1.31055 28.6905 7.43128 31.2235 9.48052C33.7565 11.5298 34.7805 11.1253 34.7805 11.1253C34.7805 11.1253 33.002 14.6845 30.3073 12.8779C27.6126 11.0714 26.0497 3.33282 24.6484 1.31055Z" fill="url(#paint29_linear_1434_8772)"/>
<path fill-rule="evenodd" clip-rule="evenodd" d="M25.2695 1.55469C25.2695 1.55469 26.2127 3.90052 28.7457 5.86887C31.3057 7.83721 34.674 7.83721 34.674 7.83721C34.674 7.83721 34.5662 7.43275 34.3237 7.13615C34.3237 7.13615 29.7966 6.08457 27.9103 4.49372C25.9971 2.90287 25.5659 1.7704 25.5659 1.7704L25.2695 1.55469Z" fill="url(#paint30_linear_1434_8772)"/>
<path fill-rule="evenodd" clip-rule="evenodd" d="M23.1914 0.691355C23.1914 0.691355 24.4849 0.20601 25.7244 3.65735C26.964 7.10869 27.961 11.4768 30.3054 12.8789C32.6498 14.281 34.1858 12.0161 34.1858 12.0161C34.1858 12.0161 32.7845 14.0383 30.0359 12.097C27.2334 10.1017 27.1257 0.691355 23.1914 0.691355Z" fill="url(#paint31_linear_1434_8772)"/>
<path fill-rule="evenodd" clip-rule="evenodd" d="M37.3653 9.48047C37.3653 9.48047 39.4402 11.2061 37.8504 21.1827C36.2605 31.1592 40.1139 34.8532 40.3026 38.6012C40.4912 42.3761 36.8533 44.2635 36.8533 44.2635L36.6917 43.6433C36.6917 43.6433 39.6828 42.403 39.4941 38.6012C39.3055 34.7993 36.1258 30.6199 36.6378 24.0408C37.0959 17.4617 38.9552 14.6305 37.3653 9.48047Z" fill="url(#paint32_linear_1434_8772)"/>
<path fill-rule="evenodd" clip-rule="evenodd" d="M37.9862 44.8584L37.2048 45.4786C37.2048 45.4786 34.5909 47.1233 34.3214 48.2019C33.9981 49.5501 34.9412 51.5454 34.9412 51.5454C34.9412 51.5454 35.1568 48.849 35.8035 47.7705C36.4233 46.6919 37.9862 44.8584 37.9862 44.8584Z" fill="url(#paint33_linear_1434_8772)"/>
<path fill-rule="evenodd" clip-rule="evenodd" d="M45.8248 45.4781L43.5613 47.7969C43.5613 47.7969 41.7558 44.5343 41.6211 40.7594L42.4295 39.1416L42.8337 39.2225C43.6152 43.7254 45.5823 45.1815 45.5823 45.1815C45.9057 44.3186 45.8518 43.2131 45.8248 42.9974C46.0135 43.9681 45.8248 45.4781 45.8248 45.4781Z" fill="url(#paint34_linear_1434_8772)"/>
<path opacity="0.5" fill-rule="evenodd" clip-rule="evenodd" d="M14.4336 50.2773C14.4336 50.2773 14.7031 48.9561 14.9186 48.9561C15.5115 48.983 23.4339 49.4953 23.4339 49.4953C23.4339 49.4953 18.314 50.7626 17.1822 50.7087C16.0504 50.6278 14.4336 50.2773 14.4336 50.2773Z" fill="url(#paint35_linear_1434_8772)"/>
<path opacity="0.4" fill-rule="evenodd" clip-rule="evenodd" d="M15.1361 35.9068L13.7618 36.1495C13.7618 36.1495 15.2708 37.7943 15.5134 38.6302C15.5134 38.6302 13.4384 39.9783 12.4414 41.6501C12.4414 41.6501 13.4115 45.8295 15.5942 47.4473V41.3805L16.7799 35.3945L15.1361 35.9068Z" fill="#6F1D77"/>
<path opacity="0.4" fill-rule="evenodd" clip-rule="evenodd" d="M29.4701 32.2656L31.7067 34.207C31.7067 34.207 28.8233 36.2023 26.7215 36.5798C26.7215 36.5798 27.9071 39.3301 28.0419 40.3277C28.0419 40.3277 21.3321 43.7521 19.4458 44.7228C17.5595 45.7205 16.293 46.772 16.293 46.772L22.9219 38.6021L29.4701 32.2656Z" fill="#6F1D77"/>
<path fill-rule="evenodd" clip-rule="evenodd" d="M15.7268 47.7684C15.7268 47.7684 13.5172 43.7778 13.3555 39.3288C13.3555 39.3288 15.0801 37.8728 16.1041 37.3335C16.1041 37.3335 15.3765 36.0393 13.8944 35.6887C13.8944 35.6887 16.6161 33.4508 17.5323 32.561C18.4485 31.6712 19.2838 30.9971 19.2838 30.9971L20.1461 31.4015L18.0173 32.7497C18.0173 32.7497 15.8885 40.5691 15.8615 41.9982C15.8346 43.4273 16.6699 45.126 16.6699 45.126L15.7268 47.7684Z" fill="url(#paint36_linear_1434_8772)"/>
<path fill-rule="evenodd" clip-rule="evenodd" d="M15.2695 48.1997C15.2695 48.1997 16.6977 44.1821 18.7726 41.4858C20.8476 38.7894 28.2041 31.5093 28.5005 31.0509C28.7969 30.5655 28.8508 29.7027 28.8508 29.7027L28.6622 29.5139L29.2281 29.3252C29.2281 29.3252 30.7102 32.1833 32.0575 33.4506C32.0575 33.4506 29.3628 34.7718 26.5873 35.6347C26.5873 35.6347 28.231 37.7648 28.5005 39.3826C28.5005 39.3826 23.3536 41.8093 20.5242 43.6429C17.6948 45.4764 16.6977 46.3392 16.5091 46.5819C16.3474 46.7976 15.2695 48.1997 15.2695 48.1997Z" fill="url(#paint37_linear_1434_8772)"/>
<path fill-rule="evenodd" clip-rule="evenodd" d="M48.0897 27.0361C48.0897 27.0361 47.8203 28.4652 47.5508 29.4089L48.2784 27.5754L48.0897 27.5484V27.0361Z" fill="#F17C57"/>
<path fill-rule="evenodd" clip-rule="evenodd" d="M49.6794 28.1123C49.6794 28.1123 49.1405 29.7301 48.6016 30.8356C48.6016 30.8356 49.4639 29.4874 49.895 28.5437L49.6525 28.4898V28.1123H49.6794Z" fill="#F17C57"/>
<path fill-rule="evenodd" clip-rule="evenodd" d="M30.7396 42.7281L29.1228 41.3799C29.1228 41.3799 26.6706 46.7996 26.3203 50.0352C27.3443 47.2849 28.3413 45.2896 29.6887 43.3482L30.7396 42.7281Z" fill="#321833"/>
</g>
<g clip-path="url(#clip1_1434_8772)">
<path fill-rule="evenodd" clip-rule="evenodd" d="M15.0231 38.6289C15.0231 38.6289 13.7835 46.5832 11.7625 49.4683C10.2265 51.6793 9.49897 54.6723 8.25941 57.2338C7.82826 58.1506 7.31628 59.0134 6.66955 59.7684C4.05569 62.8962 0.579516 67.7227 0.579516 67.7227C-2.03434 67.3452 -3.57031 63.6781 -3.57031 63.6781C-1.63013 58.7707 2.41192 52.677 4.8641 50.1694C7.12764 47.8774 8.74446 43.779 9.79539 40.786C9.90318 40.5164 9.98402 40.2467 10.0649 39.9771C11.0888 36.9302 12.4093 35.3933 12.4093 35.3933C13.1099 35.2315 15.0231 38.6289 15.0231 38.6289Z" fill="#321833"/>
<path fill-rule="evenodd" clip-rule="evenodd" d="M15.0258 38.6289C15.0258 38.6289 13.7863 46.5832 11.7652 49.4683C10.2292 51.6793 9.50168 54.6723 8.26212 57.2338L4.83984 58.0967C4.83984 58.0967 6.75309 54.2948 7.37287 51.5445C7.99265 48.7942 9.71726 41.0826 9.71726 41.0826L9.77116 40.786C9.87895 40.5164 9.95979 40.2467 10.0406 39.9771C11.0646 36.9302 12.385 35.3933 12.385 35.3933C13.1126 35.2315 15.0258 38.6289 15.0258 38.6289Z" fill="#321833"/>
<path fill-rule="evenodd" clip-rule="evenodd" d="M37.8514 35.7975C37.8783 36.0671 37.9053 36.3098 37.9053 36.4985C37.9322 37.4423 37.4741 39.114 36.9082 40.7588C36.1807 42.8619 35.2914 44.8842 35.1836 45.1269C35.2375 44.9651 35.5609 43.9135 35.1836 42.1339C34.7525 40.1926 30.3062 37.0378 29.0667 33.3168C28.8242 32.5619 28.7433 31.6181 28.7972 30.5935C28.905 28.3286 29.5517 25.5244 30.0907 22.8819L30.1446 22.5853C30.5218 20.6439 30.8182 18.7835 30.7643 17.2735C30.6027 12.6088 32.2464 9.48101 32.2464 9.48101L34.0519 9.18441C34.0519 9.18441 36.046 8.45639 37.3933 9.48101C38.4712 10.3169 38.6598 14.3075 37.3933 20.7788C36.2076 26.6568 37.528 32.9663 37.8514 35.7975Z" fill="url(#paint38_linear_1434_8772)"/>
<path fill-rule="evenodd" clip-rule="evenodd" d="M21.819 1.9834C21.819 1.9834 20.4986 4.30227 18.1272 5.24599C15.7559 6.18972 14.3008 6.89077 13.8966 9.29054C13.4924 11.6903 15.3517 14.0092 16.214 14.6293C17.1032 15.2225 19.4207 10.5848 19.4207 10.5848L22.9507 4.14049L22.1693 3.19676L21.819 1.9834Z" fill="url(#paint39_linear_1434_8772)"/>
<path fill-rule="evenodd" clip-rule="evenodd" d="M19.0956 4.76367C19.0956 4.76367 18.7992 5.30294 17.0476 6.70505C14.9997 8.32287 14.2451 14.0392 17.5866 15.4952C17.5866 15.4952 14.4338 14.7672 13.5445 11.3967C12.7092 8.32287 15.9158 7.16343 19.0956 4.76367Z" fill="url(#paint40_linear_1434_8772)"/>
<path fill-rule="evenodd" clip-rule="evenodd" d="M45.7758 43.0771C45.7758 43.0771 46.1262 44.641 45.5603 45.4769L44.3477 44.2635L45.7758 43.0771Z" fill="url(#paint41_radial_1434_8772)"/>
<path d="M43.5391 27.8435V29.9197L46.4493 32.3733L48.8476 32.1846L49.8985 31.8071C49.8985 31.8071 50.8956 30.378 50.9764 30.0814C51.0573 29.7848 50.9764 29.1647 50.9764 29.1647L47.0422 27.0615L43.5391 27.8435Z" fill="#F17C57"/>
<path d="M43.7539 27.6015C43.7539 27.6015 44.6701 24.8243 44.8048 23.8805C44.9396 22.9368 45.748 19.7551 46.0713 19.1619C46.0713 19.1619 46.6911 19.081 47.0684 19.6742C47.4456 20.2405 47.0953 22.9368 46.2061 24.2041C46.2061 24.2041 45.8827 25.8759 45.9097 27.0353L43.7539 27.6015Z" fill="url(#paint42_linear_1434_8772)"/>
<path d="M28.3952 24.4736C28.3952 24.4736 27.6138 27.3587 27.7754 29.1653L28.3952 29.5698C28.3952 29.5698 26.482 34.0457 23.5986 35.0434C20.7153 36.041 18.8021 34.8546 19.8261 32.1583C19.8261 32.1583 22.6016 31.1336 23.1136 30.136C23.6256 29.1114 23.5717 26.7386 23.5717 26.7386L28.3952 24.4736Z" fill="url(#paint43_linear_1434_8772)"/>
<path d="M32.4385 13.0132C32.4385 13.0132 32.2768 18.8643 30.0402 22.5044C29.7708 22.9358 29.4744 23.3402 29.151 23.7177C26.6988 26.3871 23.1149 27.2769 21.6867 27.196C20.2585 27.1151 19.8812 26.6568 19.3692 26.1984C18.8842 25.767 15.6775 24.23 14.896 21.9381C14.1685 19.808 15.7044 17.5161 16.1086 16.2218C16.1356 16.114 16.1625 16.0331 16.1895 15.9522C16.4051 14.7388 15.7853 11.8537 16.1895 9.61576C16.5937 7.37778 19.8004 4.27697 22.9532 4.11519C29.7708 3.76466 32.4385 13.0132 32.4385 13.0132Z" fill="url(#paint44_linear_1434_8772)"/>
<path d="M31.9204 17.2196C31.9204 17.2196 32.4324 16.3837 33.9683 16.0602C33.9683 16.0602 35.0732 15.8984 35.3696 17.1927C35.3696 17.1927 35.5043 19.5655 34.4534 20.9406C33.4025 22.3427 31.5701 22.4236 31.1389 22.3157C30.7078 22.2079 30.7347 21.2102 30.7347 21.2102C30.7347 21.2102 31.4084 17.8667 31.9204 17.2196Z" fill="url(#paint45_linear_1434_8772)"/>
<path d="M41.3828 41.4076C41.3828 41.4076 44.1853 37.417 44.2931 36.2845C44.4009 35.125 42.5685 33.4263 42.1643 32.1321C41.8948 31.2423 42.8649 27.4943 42.9996 27.2247C43.1344 26.9551 44.832 26.4967 45.5057 26.308C46.1794 26.0922 47.1495 25.6608 47.365 25.8226C47.5806 26.0114 47.2034 27.6022 46.0716 28.1415C45.0206 28.6268 44.4009 28.5729 44.4009 28.5729L44.1045 29.8402C44.1045 29.8402 45.1823 30.1098 45.883 30.8378C46.5566 31.5659 47.9309 31.8085 48.901 31.8355C49.8711 31.8625 51.0029 30.0829 51.0029 30.0829C51.0029 30.0829 50.1675 33.8308 48.9549 35.3947C48.9549 35.3947 47.904 36.5272 47.3111 36.662C47.3111 36.662 45.371 44.4814 42.7302 49.0922L41.3828 41.4076Z" fill="url(#paint46_linear_1434_8772)"/>
<path d="M46.823 26.4404C46.823 26.4404 47.4428 26.5752 48.0895 27.0606V27.5729C48.0895 27.5729 49.3291 27.7347 49.6794 28.1391V28.5166C49.6794 28.5166 50.4339 28.6515 50.9459 29.1638C50.9459 29.1638 50.4878 30.7276 49.6794 31.2939C49.6794 31.2939 49.0866 31.2669 48.6015 30.8625L48.2782 31.186C48.2782 31.186 47.2811 31.3478 47.2272 30.5389L47.5506 29.4064C47.5506 29.4064 47.1464 29.8918 46.9578 29.9457C46.7961 30.0266 46.0685 29.8109 46.0416 29.2716C45.9877 28.7323 46.823 26.4404 46.823 26.4404Z" fill="url(#paint47_linear_1434_8772)"/>
<path fill-rule="evenodd" clip-rule="evenodd" d="M19.9734 33.5645C19.9734 33.5645 20.6688 35.3841 24.3777 33.7884L19.4809 38.6875L18.9883 37.3718L19.9734 33.5645Z" fill="url(#paint48_linear_1434_8772)"/>
<path fill-rule="evenodd" clip-rule="evenodd" d="M30.0358 30.8905C30.0358 30.8905 29.4699 31.4567 28.5806 32.2926C27.8531 32.9937 26.9099 33.9104 25.9398 34.8541L25.9129 34.8811C23.7571 36.9573 21.4127 39.2222 20.6313 39.9503C19.0684 41.4063 16.8317 45.4778 16.8317 45.4778C16.8317 45.4778 15.2958 43.0511 15.0802 42.0265C14.8646 41.0018 15.0802 33.9643 15.0802 33.9643C15.0802 33.9643 16.8318 33.3172 18.3408 32.5083C19.3109 31.969 20.4426 31.2949 21.1163 30.8635C21.4127 30.6748 21.6283 30.54 21.7092 30.486H21.7361L22.6792 30.6209C22.275 31.1062 20.6582 31.7803 20.6582 31.7803C19.4726 33.6408 19.8768 37.3348 19.8768 37.3348C19.8768 37.3348 21.5744 36.1754 23.4068 34.5036C25.2392 32.8319 28.2303 29.4614 28.2303 29.4614L28.0147 29.3266L28.3651 29.2188L28.8501 29.7041L29.443 30.2973L30.0358 30.8905Z" fill="url(#paint49_linear_1434_8772)"/>
<path fill-rule="evenodd" clip-rule="evenodd" d="M39.9009 94.1195H16.7535C16.2684 92.0164 15.8642 89.9671 15.5139 88.2684L15.3792 87.5674L15.2714 87.0281L15.2444 86.9203L15.2175 86.7046C15.2175 86.6776 15.2175 86.6776 15.2175 86.6776C14.9749 85.3564 14.8133 84.3857 14.7594 84.0352L15.9989 94.1465H6.67529C5.70519 89.8323 4.97763 84.898 4.51953 80.6647C4.25006 77.9953 4.08837 75.5686 4.06142 73.789C4.03448 72.5217 4.08837 71.551 4.2231 70.9848C4.97762 67.6683 7.67231 63.7046 9.5586 59.3635C10.4479 57.3412 10.9599 55.3459 11.2832 53.809C11.2832 53.809 11.2832 53.809 11.2832 53.782C11.6335 52.0294 11.7144 50.843 11.7144 50.843C11.5527 50.6812 11.391 50.4924 11.2293 50.2767C9.98976 48.605 9.47777 46.1783 9.53166 45.7468C9.58556 45.2615 9.80113 44.3178 10.879 42.7539C11.9569 41.19 13.2234 38.9251 13.1695 37.9004C13.1156 36.8489 12.3611 35.4468 12.3611 35.4468C12.3611 35.4468 14.463 34.2064 16.0528 33.4245C16.5379 33.1818 17.0499 32.9122 17.508 32.6695C18.5858 32.0763 19.4751 31.5101 19.4751 31.5101H20.1218L20.041 31.564C20.014 31.564 20.014 31.591 19.9871 31.591C19.9601 31.591 19.9601 31.6179 19.9332 31.6179C19.9062 31.6449 19.8793 31.6449 19.8524 31.6719C19.7176 31.7527 19.529 31.8876 19.3404 31.9954C19.2595 32.0493 19.1787 32.0763 19.1248 32.1302C18.8823 32.292 18.6397 32.4268 18.4511 32.5616L18.0469 32.8313C17.8583 33.1818 17.6427 33.775 17.4541 34.4761C16.996 36.0939 16.5379 38.3319 16.2415 40.0845C16.0528 41.2439 15.9181 42.1607 15.9181 42.5382C15.9181 42.5382 15.9181 42.5382 15.9181 42.5651C15.9181 42.6191 15.9181 42.646 15.9181 42.673C15.9181 42.7 15.9181 42.7269 15.945 42.7539C15.945 42.7809 15.945 42.7809 15.945 42.8078C15.972 42.9696 16.0259 43.1583 16.0798 43.3471V43.3741C16.2684 43.9942 16.5109 44.7222 16.6187 45.0188V45.0458V45.0728L16.6457 45.1267C16.6457 45.1267 18.4242 42.2955 19.6907 40.6507C20.0949 40.1115 21.1189 39.0868 22.3315 37.9274C24.7837 35.5007 28.0173 32.4808 28.3676 31.8336C28.5562 31.4831 28.691 31.0787 28.7449 30.7281C28.7718 30.5394 28.7988 30.3506 28.8257 30.2158C28.8527 29.9192 28.8527 29.7305 28.8527 29.7305H29.4455C29.8497 29.9462 30.9276 30.1349 32.1941 30.3776C32.8408 30.5124 33.3798 30.782 33.784 31.0247C34.1612 31.2674 34.4037 31.4561 34.4037 31.4561C34.4037 31.4561 34.1612 31.6179 33.8109 31.9415C33.272 32.3999 32.4636 33.1548 31.6821 34.1525C31.6282 34.2334 31.5474 34.3143 31.4935 34.3952C31.1432 34.8805 30.7928 35.4198 30.4964 35.986C30.3347 36.2826 30.2 36.5792 30.0653 36.9028C29.6072 38.0622 29.4455 39.2217 29.3916 40.2193C29.3647 40.7316 29.3916 41.19 29.4185 41.5945C29.4994 42.4573 29.6341 43.0505 29.688 43.2392V43.2662C29.688 43.2932 29.688 43.2932 29.688 43.2932C28.5023 44.6953 27.2628 47.3647 26.3196 49.9801C25.3495 52.6765 24.7028 55.3189 24.7567 56.5053C24.8645 58.8781 28.3137 69.5827 32.0593 76.9977C34.5924 82.0668 37.9608 89.6975 39.9009 94.1195Z" fill="#321833"/>
<path fill-rule="evenodd" clip-rule="evenodd" d="M28.8486 29.7051C28.8486 29.7051 28.2019 30.9454 24.9143 34.2889C21.6268 37.6054 20.0908 39.7086 20.0908 39.7086L17.5039 39.6007L20.1447 39.7895L28.3636 32.7789L29.4684 30.2174L28.8486 29.7051Z" fill="url(#paint50_linear_1434_8772)"/>
<path fill-rule="evenodd" clip-rule="evenodd" d="M45.8248 45.4768L43.5613 47.7956C42.4834 50.7077 38.1988 55.8577 37.8216 55.8577C37.4443 55.8577 34.9113 54.2399 33.9142 52.0828C32.9172 49.9527 32.9442 48.4697 32.8364 47.6608C32.7286 46.8789 30.7345 42.6995 30.7345 42.6995L29.6836 43.2927C29.6836 43.2927 29.3063 42.4029 29.1716 41.0278C29.0099 39.5987 29.0907 37.6573 30.0339 35.6081C31.8932 31.5635 34.3724 31.4287 34.3724 31.4287C34.3724 31.4287 34.8574 31.7792 34.9113 31.941C34.9382 31.9949 34.9113 32.3724 34.9113 32.8847V32.9387C34.8843 33.8015 34.8304 35.0149 34.8843 35.9047C34.9652 37.3337 37.1209 45.4498 37.2287 45.4768C37.2557 45.4768 37.579 45.2341 38.0102 44.8566C38.9803 43.9938 40.6241 42.4029 41.2977 41.3513C41.4325 41.1356 41.5672 40.9199 41.675 40.7312C42.2678 39.7065 42.4564 39.1673 42.4834 39.1133L43.0762 38.9246L42.9146 39.1942C43.696 43.6972 45.6631 45.1532 45.6631 45.1532C45.9865 44.2904 45.9326 43.1848 45.9057 42.9691C46.0135 43.9668 45.8248 45.4768 45.8248 45.4768Z" fill="#321833"/>
<path fill-rule="evenodd" clip-rule="evenodd" d="M22.6797 7.16211C22.6797 7.16211 23.03 7.32389 24.6199 7.89013C26.2367 8.45636 27.8535 9.18438 28.7428 10.6943C28.7428 10.6943 27.4224 9.50794 25.8325 9.26527C24.2426 9.0226 23.4342 8.91474 23.1647 8.726C22.8953 8.56422 22.6797 7.16211 22.6797 7.16211Z" fill="url(#paint51_linear_1434_8772)"/>
<path fill-rule="evenodd" clip-rule="evenodd" d="M16.0495 11.5581C16.0495 11.5581 16.3189 10.9919 16.9387 11.0998C17.5585 11.2346 18.7172 13.2838 18.7172 13.2838C18.7172 13.2838 17.8549 10.6144 17.0465 10.0212C16.4537 9.58979 16.0495 10.3987 16.0495 10.3987C16.0495 10.3987 15.78 10.9649 16.0495 11.5581Z" fill="url(#paint52_linear_1434_8772)"/>
<path d="M24.1089 17.1384C24.5401 17.6508 28.3935 17.2193 29.0133 15.6824C29.6869 14.0107 28.124 11.5839 25.9952 12.0154C23.4622 12.5007 22.8963 15.6824 24.1089 17.1384Z" fill="url(#paint53_linear_1434_8772)"/>
<path d="M19.0966 15.6825C19.0966 15.8712 19.0966 16.0599 19.0697 16.2487C19.0158 16.6801 18.8541 17.0306 18.6924 17.3003C18.396 17.7856 18.0187 18.0283 17.8301 18.0283C17.4528 18.0283 16.86 18.0552 16.5905 16.6801C16.3211 15.305 16.5366 13.3097 17.3451 12.9861C17.6415 12.8513 18.0187 13.1209 18.369 13.5523C18.5307 13.768 18.6924 14.0377 18.8271 14.3343C18.9888 14.7387 19.0966 15.1971 19.0966 15.6825Z" fill="url(#paint54_linear_1434_8772)"/>
<path fill-rule="evenodd" clip-rule="evenodd" d="M20.0364 20.2939C20.0364 20.2939 17.9345 20.5905 17.4494 19.3771C17.1261 18.5952 18.4195 18.3525 19.0932 16.8965C19.0932 16.8965 18.7698 17.7593 18.3387 18.2447C17.8537 18.7839 17.7728 18.9188 18.0423 19.3502C18.5004 20.1591 20.0364 20.2939 20.0364 20.2939Z" fill="#F17C57"/>
<path fill-rule="evenodd" clip-rule="evenodd" d="M20.2812 19.4315C20.2812 19.4315 20.7393 18.8922 21.4939 18.9731C21.4939 18.9731 21.1166 19.054 21.0088 19.2158C20.901 19.3776 20.5777 19.7011 20.2812 19.4315Z" fill="#C44A4C"/>
<path fill-rule="evenodd" clip-rule="evenodd" d="M21.1953 4.81684C21.1953 4.81684 21.357 0.691406 23.2163 0.691406C24.8601 0.691406 25.8571 2.28226 27.3931 3.14509C28.9291 4.00793 33.2406 5.65271 34.2916 7.02785C35.3425 8.403 36.1509 12.9598 34.2916 16.0337C34.2916 16.0337 32.5669 16.0876 31.516 18.2717C31.516 18.2717 32.1358 15.3326 31.7046 13.553C31.7046 13.553 29.98 13.2025 28.3093 10.6949C26.6386 8.18729 25.7494 4.78988 24.6715 4.38542C23.5936 3.98097 22.0307 4.2506 21.2223 5.05951V4.81684H21.1953Z" fill="url(#paint55_linear_1434_8772)"/>
<path fill-rule="evenodd" clip-rule="evenodd" d="M20.7953 5.40906C20.7953 5.40906 20.0947 4.81586 19.0977 5.67869C19.0977 5.67869 19.8252 4.73497 20.1486 2.84751C20.445 0.960061 22.978 0.178116 24.3523 1.01399C25.7266 1.8229 26.8853 9.56145 30.0651 12.7162C30.0651 12.7162 27.559 10.9636 26.2925 7.62007C25.3763 5.19335 24.8374 4.49229 23.5708 4.22266C22.3313 3.95302 20.7953 5.40906 20.7953 5.40906Z" fill="url(#paint56_linear_1434_8772)"/>
<path fill-rule="evenodd" clip-rule="evenodd" d="M23.5689 16.0341C23.5689 16.0341 23.1109 13.9309 24.9163 12.6906C26.6948 11.4502 28.9584 12.6366 29.1739 14.6319C29.1739 14.6319 29.9554 14.3623 30.3057 13.4995C30.3057 13.4995 29.8476 13.6073 29.5242 13.5804C29.5242 13.5804 28.5541 11.3963 26.4523 11.3693C24.3504 11.3424 23.057 13.9309 23.5689 16.0341Z" fill="url(#paint57_linear_1434_8772)"/>
<path fill-rule="evenodd" clip-rule="evenodd" d="M24.5664 17.3023C24.5664 17.3023 25.4287 17.6258 27.1264 17.3292C28.824 17.0326 29.0666 15.4688 29.0666 15.4688C29.0666 15.4688 28.5276 17.3562 24.5664 17.3023Z" fill="#C44A4C"/>
<path fill-rule="evenodd" clip-rule="evenodd" d="M16.6445 16.9785C16.6445 16.9785 16.7523 17.9762 17.399 18.111C18.0188 18.2458 18.6117 17.5717 18.8003 17.0594C18.8003 17.0594 18.3961 17.9492 17.6146 17.9222C16.9679 17.9222 16.6445 16.9785 16.6445 16.9785Z" fill="#C44A4C"/>
<path fill-rule="evenodd" clip-rule="evenodd" d="M28.5561 14.6289C28.5561 15.7074 27.6938 16.5703 26.616 16.5703C25.5381 16.5703 24.6758 15.7074 24.6758 14.6289C24.6758 13.5503 25.5381 12.6875 26.616 12.6875C27.6669 12.6875 28.5561 13.5773 28.5561 14.6289Z" fill="url(#paint58_linear_1434_8772)"/>
<path fill-rule="evenodd" clip-rule="evenodd" d="M27.9103 14.6308C27.9103 15.3588 27.3175 15.952 26.5899 15.952C25.8624 15.952 25.2695 15.3588 25.2695 14.6308C25.2695 13.9028 25.8624 13.3096 26.5899 13.3096C27.3175 13.3096 27.9103 13.9028 27.9103 14.6308Z" fill="url(#paint59_linear_1434_8772)"/>
<path fill-rule="evenodd" clip-rule="evenodd" d="M19.0991 15.6829C19.0991 15.8716 19.0992 16.0603 19.0722 16.2491C19.0183 16.6805 18.8566 17.031 18.6949 17.3007C18.5602 17.3816 18.3985 17.4355 18.2638 17.4355C17.5901 17.4355 17.0781 16.5727 17.0781 15.4941C17.0781 14.4156 17.6171 13.5527 18.2638 13.5527C18.2907 13.5527 18.3446 13.5527 18.3716 13.5527C18.5333 13.7684 18.6949 14.0381 18.8297 14.3347C18.9914 14.7391 19.0991 15.1975 19.0991 15.6829Z" fill="url(#paint60_linear_1434_8772)"/>
<path fill-rule="evenodd" clip-rule="evenodd" d="M19.095 15.6838C19.095 15.8725 19.095 16.0613 19.068 16.25C18.9333 16.6006 18.6908 16.8163 18.3943 16.8163C17.9362 16.8163 17.5859 16.2231 17.5859 15.495C17.5859 14.767 17.9362 14.1738 18.3943 14.1738C18.5291 14.1738 18.6908 14.2278 18.7986 14.3626C18.9872 14.7401 19.095 15.1984 19.095 15.6838Z" fill="url(#paint61_linear_1434_8772)"/>
<path fill-rule="evenodd" clip-rule="evenodd" d="M19.0957 16.0327C19.0957 16.0327 18.6645 13.1476 17.6405 13.2824C16.7513 13.4172 16.4818 15.3316 16.4818 15.3316C16.4818 15.3316 15.9968 15.3047 15.5117 14.7654C15.5117 14.7654 15.9159 14.7115 16.2123 14.6036C16.2123 14.6036 16.5357 12.8779 17.2902 12.5544C18.0717 12.2308 19.1765 14.3609 19.0957 16.0327Z" fill="url(#paint62_linear_1434_8772)"/>
<path d="M18.1797 21.9654C18.1797 21.9654 18.5839 22.0732 18.7995 22.3429C19.0151 22.6125 19.0689 22.99 19.6887 23.0978C20.2816 23.2057 22.572 23.0439 24.647 20.6172C24.647 20.6172 23.3535 21.2643 21.9253 21.3182C20.4971 21.3722 19.5001 21.6957 19.0959 21.8575C18.6917 22.0463 18.1797 21.9654 18.1797 21.9654Z" fill="url(#paint63_linear_1434_8772)"/>
<path d="M18.0699 21.9389C18.0699 21.9389 18.3663 22.0198 18.7975 21.9389C19.2287 21.858 19.2825 21.3187 20.4413 21.2109C21.6 21.0761 22.9743 21.1839 23.6749 20.9952C24.3755 20.8064 24.7528 20.375 24.7528 20.375H24.9414C24.9414 20.375 24.4833 20.9143 22.9743 21.3727C21.4653 21.8041 19.1209 22.0737 18.6897 22.0737C18.2586 22.0467 18.043 22.0198 18.043 22.0198L18.0699 21.9389Z" fill="url(#paint64_linear_1434_8772)"/>
<path fill-rule="evenodd" clip-rule="evenodd" d="M25.1858 15.6283C25.1858 15.817 25.0241 15.9518 24.8624 15.9518C24.6738 15.9518 24.5391 15.7901 24.5391 15.6283C24.5391 15.4395 24.7007 15.3047 24.8624 15.3047C25.0241 15.2777 25.1858 15.4395 25.1858 15.6283Z" fill="white"/>
<path fill-rule="evenodd" clip-rule="evenodd" d="M17.638 16.572C17.665 16.7607 17.5303 16.9225 17.3416 16.9495C17.153 16.9764 16.9913 16.8416 16.9644 16.6529C16.9374 16.4641 17.0722 16.3024 17.2608 16.2754C17.4494 16.2754 17.6111 16.4102 17.638 16.572Z" fill="white"/>
<path fill-rule="evenodd" clip-rule="evenodd" d="M31.3555 19.5376C31.3555 19.5376 32.8375 17.6232 34.2657 17.3535C34.2657 17.3535 34.8316 18.0006 34.7777 18.9713C34.7777 18.9713 34.5622 17.9737 34.131 17.758C34.131 17.758 34.0232 17.7849 33.7538 17.9197C33.3495 18.0815 32.595 18.5399 31.3555 19.5376Z" fill="#F3764E"/>
<path fill-rule="evenodd" clip-rule="evenodd" d="M32.6791 18.4331C32.6791 18.4331 33.73 18.3792 33.9726 18.4331C34.2151 18.4871 34.3498 19.8083 33.9726 20.3206C33.5953 20.8329 33.1103 20.5093 32.4635 20.4824C31.8168 20.4554 31.3856 20.6172 31.3856 20.6172C31.3856 20.6172 31.0892 19.8892 31.3856 19.5387C31.6551 19.1881 32.6791 18.4331 32.6791 18.4331Z" fill="#F3764E"/>
<path fill-rule="evenodd" clip-rule="evenodd" d="M24.6484 1.31055C24.6484 1.31055 28.6905 7.43128 31.2235 9.48052C33.7565 11.5298 34.7805 11.1253 34.7805 11.1253C34.7805 11.1253 33.002 14.6845 30.3073 12.8779C27.6126 11.0714 26.0497 3.33282 24.6484 1.31055Z" fill="url(#paint65_linear_1434_8772)"/>
<path fill-rule="evenodd" clip-rule="evenodd" d="M25.2695 1.55469C25.2695 1.55469 26.2127 3.90052 28.7457 5.86887C31.3057 7.83721 34.674 7.83721 34.674 7.83721C34.674 7.83721 34.5662 7.43275 34.3237 7.13615C34.3237 7.13615 29.7966 6.08457 27.9103 4.49372C25.9971 2.90287 25.5659 1.7704 25.5659 1.7704L25.2695 1.55469Z" fill="url(#paint66_linear_1434_8772)"/>
<path fill-rule="evenodd" clip-rule="evenodd" d="M23.1914 0.691355C23.1914 0.691355 24.4849 0.20601 25.7244 3.65735C26.964 7.10869 27.961 11.4768 30.3054 12.8789C32.6498 14.281 34.1858 12.0161 34.1858 12.0161C34.1858 12.0161 32.7845 14.0383 30.0359 12.097C27.2334 10.1017 27.1257 0.691355 23.1914 0.691355Z" fill="url(#paint67_linear_1434_8772)"/>
<path fill-rule="evenodd" clip-rule="evenodd" d="M20.0379 4.76372C20.0379 4.76372 19.6067 1.71683 21.6547 1.01578C23.7026 0.314725 24.7805 1.60898 25.1847 3.7391C25.562 5.89619 26.1279 7.16348 26.1279 7.16348C26.1279 7.16348 25.4812 5.86923 24.8614 3.68518C24.2416 1.50112 22.3822 0.853998 21.1966 1.7438C20.0109 2.6336 20.0379 4.76372 20.0379 4.76372Z" fill="url(#paint68_linear_1434_8772)"/>
<path fill-rule="evenodd" clip-rule="evenodd" d="M37.3653 9.48047C37.3653 9.48047 39.4402 11.2061 37.8504 21.1827C36.2605 31.1592 40.1139 34.8532 40.3026 38.6012C40.4912 42.3761 36.8533 44.2635 36.8533 44.2635L36.6917 43.6433C36.6917 43.6433 39.6828 42.403 39.4941 38.6012C39.3055 34.7993 36.1258 30.6199 36.6378 24.0408C37.0959 17.4617 38.9552 14.6305 37.3653 9.48047Z" fill="url(#paint69_linear_1434_8772)"/>
<path fill-rule="evenodd" clip-rule="evenodd" d="M37.9862 44.8584L37.2048 45.4786C37.2048 45.4786 34.5909 47.1233 34.3214 48.2019C33.9981 49.5501 34.9412 51.5454 34.9412 51.5454C34.9412 51.5454 35.1568 48.849 35.8035 47.7705C36.4233 46.6919 37.9862 44.8584 37.9862 44.8584Z" fill="url(#paint70_linear_1434_8772)"/>
<path fill-rule="evenodd" clip-rule="evenodd" d="M45.8248 45.4781L43.5613 47.7969C43.5613 47.7969 41.7558 44.5343 41.6211 40.7594L42.4295 39.1416L42.8337 39.2225C43.6152 43.7254 45.5823 45.1815 45.5823 45.1815C45.9057 44.3186 45.8518 43.2131 45.8248 42.9974C46.0135 43.9681 45.8248 45.4781 45.8248 45.4781Z" fill="url(#paint71_linear_1434_8772)"/>
<path opacity="0.4" fill-rule="evenodd" clip-rule="evenodd" d="M15.1361 35.9068L13.7618 36.1495C13.7618 36.1495 15.2708 37.7943 15.5134 38.6302C15.5134 38.6302 13.4384 39.9783 12.4414 41.6501C12.4414 41.6501 13.4115 45.8295 15.5942 47.4473V41.3805L16.7799 35.3945L15.1361 35.9068Z" fill="#6F1D77"/>
<path opacity="0.4" fill-rule="evenodd" clip-rule="evenodd" d="M29.4701 32.2656L31.7067 34.207C31.7067 34.207 28.8233 36.2023 26.7215 36.5798C26.7215 36.5798 27.9071 39.3301 28.0419 40.3277C28.0419 40.3277 21.3321 43.7521 19.4458 44.7228C17.5595 45.7205 16.293 46.772 16.293 46.772L22.9219 38.6021L29.4701 32.2656Z" fill="#6F1D77"/>
<path fill-rule="evenodd" clip-rule="evenodd" d="M15.7268 47.7684C15.7268 47.7684 13.5172 43.7778 13.3555 39.3288C13.3555 39.3288 15.0801 37.8728 16.1041 37.3335C16.1041 37.3335 15.3765 36.0393 13.8944 35.6887C13.8944 35.6887 16.6161 33.4508 17.5323 32.561C18.4485 31.6712 19.2838 30.9971 19.2838 30.9971L20.1461 31.4015L18.0173 32.7497C18.0173 32.7497 15.8885 40.5691 15.8615 41.9982C15.8346 43.4273 16.6699 45.126 16.6699 45.126L15.7268 47.7684Z" fill="url(#paint72_linear_1434_8772)"/>
<path fill-rule="evenodd" clip-rule="evenodd" d="M15.2695 48.1997C15.2695 48.1997 16.6977 44.1821 18.7726 41.4858C20.8476 38.7894 28.2041 31.5093 28.5005 31.0509C28.7969 30.5655 28.8508 29.7027 28.8508 29.7027L28.6622 29.5139L29.2281 29.3252C29.2281 29.3252 30.7102 32.1833 32.0575 33.4506C32.0575 33.4506 29.3628 34.7718 26.5873 35.6347C26.5873 35.6347 28.231 37.7648 28.5005 39.3826C28.5005 39.3826 23.3536 41.8093 20.5242 43.6429C17.6948 45.4764 16.6977 46.3392 16.5091 46.5819C16.3474 46.7976 15.2695 48.1997 15.2695 48.1997Z" fill="url(#paint73_linear_1434_8772)"/>
<path fill-rule="evenodd" clip-rule="evenodd" d="M48.0897 27.0361C48.0897 27.0361 47.8203 28.4652 47.5508 29.4089L48.2784 27.5754L48.0897 27.5484V27.0361Z" fill="#F17C57"/>
<path fill-rule="evenodd" clip-rule="evenodd" d="M49.6794 28.1123C49.6794 28.1123 49.1405 29.7301 48.6016 30.8356C48.6016 30.8356 49.4639 29.4874 49.895 28.5437L49.6525 28.4898V28.1123H49.6794Z" fill="#F17C57"/>
<path fill-rule="evenodd" clip-rule="evenodd" d="M30.7396 42.7281L29.1228 41.3799C29.1228 41.3799 26.6706 46.7996 26.3203 50.0352C27.3443 47.2849 28.3413 45.2896 29.6887 43.3482L30.7396 42.7281Z" fill="#321833"/>
</g>
</g>
<path d="M73.088 34.06C69.9333 34.06 67.5253 33.1826 65.864 31.428C64.2213 29.6733 63.4 27.1813 63.4 23.952C63.4 22.3466 63.652 20.9186 64.156 19.668C64.66 18.3986 65.3507 17.3346 66.228 16.476C67.1053 15.5986 68.1507 14.936 69.364 14.488C70.5773 14.04 71.8933 13.816 73.312 13.816C74.1333 13.816 74.88 13.8813 75.552 14.012C76.224 14.124 76.812 14.264 77.316 14.432C77.82 14.5813 78.24 14.74 78.576 14.908C78.912 15.076 79.1547 15.2066 79.304 15.3L78.044 18.828C77.4467 18.5106 76.7467 18.24 75.944 18.016C75.16 17.792 74.264 17.68 73.256 17.68C72.584 17.68 71.9213 17.792 71.268 18.016C70.6333 18.24 70.064 18.604 69.56 19.108C69.0747 19.5933 68.6827 20.228 68.384 21.012C68.0853 21.796 67.936 22.748 67.936 23.868C67.936 24.764 68.0293 25.604 68.216 26.388C68.4213 27.1533 68.7387 27.816 69.168 28.376C69.616 28.936 70.1947 29.384 70.904 29.72C71.6133 30.0373 72.472 30.196 73.48 30.196C74.1147 30.196 74.684 30.1586 75.188 30.084C75.692 30.0093 76.14 29.9253 76.532 29.832C76.924 29.72 77.2693 29.5986 77.568 29.468C77.8667 29.3373 78.1373 29.216 78.38 29.104L79.584 32.604C78.968 32.9773 78.1 33.3133 76.98 33.612C75.86 33.9106 74.5627 34.06 73.088 34.06ZM94.1003 14.264H98.4683V33.668H94.1003V25.436H86.7643V33.668H82.3963V14.264H86.7643V21.684H94.1003V14.264Z" fill="#E5476D"/>
<path d="M102.959 33.668V14.264H116.063V17.932H107.327V21.74H115.083V25.324H107.327V30H116.707V33.668H102.959ZM119.939 33.668V14.264H132.931V17.932H124.307V21.992H131.979V25.66H124.307V33.668H119.939Z" fill="white"/>
<path d="M68.37 52.908C67.53 52.908 66.79 52.7746 66.15 52.508C65.5233 52.2413 64.99 51.868 64.55 51.388C64.1233 50.908 63.8033 50.3413 63.59 49.688C63.3767 49.0213 63.27 48.288 63.27 47.488C63.27 46.688 63.3833 45.9546 63.61 45.288C63.85 44.6213 64.1833 44.048 64.61 43.568C65.0367 43.0746 65.5567 42.6946 66.17 42.428C66.7967 42.148 67.49 42.008 68.25 42.008C68.7167 42.008 69.1833 42.048 69.65 42.128C70.1167 42.208 70.5633 42.3346 70.99 42.508L70.57 44.088C70.29 43.9546 69.9633 43.848 69.59 43.768C69.23 43.688 68.8433 43.648 68.43 43.648C67.39 43.648 66.59 43.9746 66.03 44.628C65.4833 45.2813 65.21 46.2346 65.21 47.488C65.21 48.048 65.27 48.5613 65.39 49.028C65.5233 49.4946 65.7233 49.8946 65.99 50.228C66.27 50.5613 66.6233 50.8213 67.05 51.008C67.4767 51.1813 67.9967 51.268 68.61 51.268C69.1033 51.268 69.55 51.2213 69.95 51.128C70.35 51.0346 70.6633 50.9346 70.89 50.828L71.15 52.388C71.0433 52.4546 70.89 52.5213 70.69 52.588C70.49 52.6413 70.2633 52.688 70.01 52.728C69.7567 52.7813 69.4833 52.8213 69.19 52.848C68.91 52.888 68.6367 52.908 68.37 52.908ZM76.6669 51.328C77.1069 51.328 77.4935 51.3213 77.8269 51.308C78.1735 51.2813 78.4602 51.2413 78.6869 51.188V48.088C78.5535 48.0213 78.3335 47.968 78.0269 47.928C77.7335 47.8746 77.3735 47.848 76.9469 47.848C76.6669 47.848 76.3669 47.868 76.0469 47.908C75.7402 47.948 75.4535 48.0346 75.1869 48.168C74.9335 48.288 74.7202 48.4613 74.5469 48.688C74.3735 48.9013 74.2869 49.188 74.2869 49.548C74.2869 50.2146 74.5002 50.6813 74.9269 50.948C75.3535 51.2013 75.9335 51.328 76.6669 51.328ZM76.5069 42.008C77.2535 42.008 77.8802 42.108 78.3869 42.308C78.9069 42.4946 79.3202 42.768 79.6269 43.128C79.9469 43.4746 80.1735 43.8946 80.3069 44.388C80.4402 44.868 80.5069 45.4013 80.5069 45.988V52.488C80.3469 52.5146 80.1202 52.5546 79.8269 52.608C79.5469 52.648 79.2269 52.688 78.8669 52.728C78.5069 52.768 78.1135 52.8013 77.6869 52.828C77.2735 52.868 76.8602 52.888 76.4469 52.888C75.8602 52.888 75.3202 52.828 74.8269 52.708C74.3335 52.588 73.9069 52.4013 73.5469 52.148C73.1869 51.8813 72.9069 51.5346 72.7069 51.108C72.5069 50.6813 72.4069 50.168 72.4069 49.568C72.4069 48.9946 72.5202 48.5013 72.7469 48.088C72.9869 47.6746 73.3069 47.3413 73.7069 47.088C74.1069 46.8346 74.5735 46.648 75.1069 46.528C75.6402 46.408 76.2002 46.348 76.7869 46.348C76.9735 46.348 77.1669 46.3613 77.3669 46.388C77.5669 46.4013 77.7535 46.428 77.9269 46.468C78.1135 46.4946 78.2735 46.5213 78.4069 46.548C78.5402 46.5746 78.6335 46.5946 78.6869 46.608V46.088C78.6869 45.7813 78.6535 45.4813 78.5869 45.188C78.5202 44.8813 78.4002 44.6146 78.2269 44.388C78.0535 44.148 77.8135 43.9613 77.5069 43.828C77.2135 43.6813 76.8269 43.608 76.3469 43.608C75.7335 43.608 75.1935 43.6546 74.7269 43.748C74.2735 43.828 73.9335 43.9146 73.7069 44.008L73.4869 42.468C73.7269 42.3613 74.1269 42.2613 74.6869 42.168C75.2469 42.0613 75.8535 42.008 76.5069 42.008ZM86.0161 51.328C86.7761 51.328 87.3361 51.228 87.6961 51.028C88.0694 50.828 88.2561 50.508 88.2561 50.068C88.2561 49.6146 88.0761 49.2546 87.7161 48.988C87.3561 48.7213 86.7628 48.4213 85.9361 48.088C85.5361 47.928 85.1494 47.768 84.7761 47.608C84.4161 47.4346 84.1028 47.2346 83.8361 47.008C83.5694 46.7813 83.3561 46.508 83.1961 46.188C83.0361 45.868 82.9561 45.4746 82.9561 45.008C82.9561 44.088 83.2961 43.3613 83.9761 42.828C84.6561 42.2813 85.5828 42.008 86.7561 42.008C87.0494 42.008 87.3428 42.028 87.6361 42.068C87.9294 42.0946 88.2028 42.1346 88.4561 42.188C88.7094 42.228 88.9294 42.2746 89.1161 42.328C89.3161 42.3813 89.4694 42.428 89.5761 42.468L89.2361 44.068C89.0361 43.9613 88.7228 43.8546 88.2961 43.748C87.8694 43.628 87.3561 43.568 86.7561 43.568C86.2361 43.568 85.7828 43.6746 85.3961 43.888C85.0094 44.088 84.8161 44.408 84.8161 44.848C84.8161 45.0746 84.8561 45.2746 84.9361 45.448C85.0294 45.6213 85.1628 45.7813 85.3361 45.928C85.5228 46.0613 85.7494 46.188 86.0161 46.308C86.2828 46.428 86.6028 46.5546 86.9761 46.688C87.4694 46.8746 87.9094 47.0613 88.2961 47.248C88.6828 47.4213 89.0094 47.628 89.2761 47.868C89.5561 48.108 89.7694 48.4013 89.9161 48.748C90.0628 49.0813 90.1361 49.4946 90.1361 49.988C90.1361 50.948 89.7761 51.6746 89.0561 52.168C88.3494 52.6613 87.3361 52.908 86.0161 52.908C85.0961 52.908 84.3761 52.828 83.8561 52.668C83.3361 52.5213 82.9828 52.408 82.7961 52.328L83.1361 50.728C83.3494 50.808 83.6894 50.928 84.1561 51.088C84.6228 51.248 85.2428 51.328 86.0161 51.328ZM94.3819 52.668H92.5219V42.268H94.3819V52.668ZM93.4419 40.388C93.1085 40.388 92.8219 40.2813 92.5819 40.068C92.3552 39.8413 92.2419 39.5413 92.2419 39.168C92.2419 38.7946 92.3552 38.5013 92.5819 38.288C92.8219 38.0613 93.1085 37.948 93.4419 37.948C93.7752 37.948 94.0552 38.0613 94.2819 38.288C94.5219 38.5013 94.6419 38.7946 94.6419 39.168C94.6419 39.5413 94.5219 39.8413 94.2819 40.068C94.0552 40.2813 93.7752 40.388 93.4419 40.388ZM97.5805 42.568C98.0071 42.4613 98.5738 42.348 99.2805 42.228C99.9871 42.108 100.8 42.048 101.72 42.048C102.547 42.048 103.234 42.168 103.78 42.408C104.327 42.6346 104.76 42.9613 105.08 43.388C105.414 43.8013 105.647 44.3013 105.78 44.888C105.914 45.4746 105.98 46.1213 105.98 46.828V52.668H104.12V47.228C104.12 46.588 104.074 46.0413 103.98 45.588C103.9 45.1346 103.76 44.768 103.56 44.488C103.36 44.208 103.094 44.008 102.76 43.888C102.427 43.7546 102.014 43.688 101.52 43.688C101.32 43.688 101.114 43.6946 100.9 43.708C100.687 43.7213 100.48 43.7413 100.28 43.768C100.094 43.7813 99.9205 43.8013 99.7605 43.828C99.6138 43.8546 99.5071 43.8746 99.4405 43.888V52.668H97.5805V42.568ZM118.245 47.468C118.245 48.2946 118.125 49.0413 117.885 49.708C117.645 50.3746 117.305 50.948 116.865 51.428C116.438 51.908 115.925 52.2813 115.325 52.548C114.725 52.8013 114.072 52.928 113.365 52.928C112.658 52.928 112.005 52.8013 111.405 52.548C110.805 52.2813 110.285 51.908 109.845 51.428C109.418 50.948 109.085 50.3746 108.845 49.708C108.605 49.0413 108.485 48.2946 108.485 47.468C108.485 46.6546 108.605 45.9146 108.845 45.248C109.085 44.568 109.418 43.988 109.845 43.508C110.285 43.028 110.805 42.6613 111.405 42.408C112.005 42.1413 112.658 42.008 113.365 42.008C114.072 42.008 114.725 42.1413 115.325 42.408C115.925 42.6613 116.438 43.028 116.865 43.508C117.305 43.988 117.645 44.568 117.885 45.248C118.125 45.9146 118.245 46.6546 118.245 47.468ZM116.305 47.468C116.305 46.2946 116.038 45.368 115.505 44.688C114.985 43.9946 114.272 43.648 113.365 43.648C112.458 43.648 111.738 43.9946 111.205 44.688C110.685 45.368 110.425 46.2946 110.425 47.468C110.425 48.6413 110.685 49.5746 111.205 50.268C111.738 50.948 112.458 51.288 113.365 51.288C114.272 51.288 114.985 50.948 115.505 50.268C116.038 49.5746 116.305 48.6413 116.305 47.468Z" fill="white"/>
<defs>
<linearGradient id="paint0_linear_1434_8772" x1="-21.5808" y1="49.8188" x2="57.9035" y2="48.6686" gradientUnits="userSpaceOnUse">
<stop stop-color="#231845"/>
<stop offset="1" stop-color="#7D53FE"/>
</linearGradient>
<linearGradient id="paint1_linear_1434_8772" x1="-21.5808" y1="49.8188" x2="57.9035" y2="48.6686" gradientUnits="userSpaceOnUse">
<stop stop-color="#231845"/>
<stop offset="1" stop-color="#7D53FE"/>
</linearGradient>
<linearGradient id="paint2_linear_1434_8772" x1="33.5255" y1="45.1415" x2="33.5255" y2="8.9575" gradientUnits="userSpaceOnUse">
<stop offset="0.0111732" stop-color="#772438"/>
<stop offset="0.9944" stop-color="#994540"/>
</linearGradient>
<linearGradient id="paint3_linear_1434_8772" x1="18.3933" y1="14.6869" x2="18.3933" y2="1.99179" gradientUnits="userSpaceOnUse">
<stop offset="0.0111732" stop-color="#772438"/>
<stop offset="0.9944" stop-color="#994540"/>
</linearGradient>
<linearGradient id="paint4_linear_1434_8772" x1="16.7723" y1="14.7659" x2="14.2412" y2="5.82143" gradientUnits="userSpaceOnUse">
<stop offset="0.0111732" stop-color="#B45E52"/>
<stop offset="0.9944" stop-color="#C16140"/>
</linearGradient>
<radialGradient id="paint5_radial_1434_8772" cx="0" cy="0" r="1" gradientUnits="userSpaceOnUse" gradientTransform="translate(45.1112 44.2772) scale(1.01076 1.01138)">
<stop stop-color="#B3819D"/>
<stop offset="1" stop-color="#785CA6"/>
</radialGradient>
<linearGradient id="paint6_linear_1434_8772" x1="45.4626" y1="27.6107" x2="45.4626" y2="19.179" gradientUnits="userSpaceOnUse">
<stop offset="0.0159875" stop-color="#FFAE78"/>
<stop offset="1" stop-color="#FF957C"/>
</linearGradient>
<linearGradient id="paint7_linear_1434_8772" x1="23.958" y1="35.3829" x2="23.958" y2="24.4712" gradientUnits="userSpaceOnUse">
<stop offset="0.0215741" stop-color="#FF8359"/>
<stop offset="1" stop-color="#FF8B7C"/>
</linearGradient>
<linearGradient id="paint8_linear_1434_8772" x1="25.8578" y1="27.4051" x2="22.392" y2="3.95291" gradientUnits="userSpaceOnUse">
<stop offset="0.0159875" stop-color="#FFAE78"/>
<stop offset="1" stop-color="#FF957C"/>
</linearGradient>
<linearGradient id="paint9_linear_1434_8772" x1="33.055" y1="22.3315" x2="33.055" y2="16.0311" gradientUnits="userSpaceOnUse">
<stop offset="0.0215741" stop-color="#FF8359"/>
<stop offset="1" stop-color="#FF8B7C"/>
</linearGradient>
<linearGradient id="paint10_linear_1434_8772" x1="46.1746" y1="49.0941" x2="46.1746" y2="25.7764" gradientUnits="userSpaceOnUse">
<stop offset="0.0159875" stop-color="#FFAE78"/>
<stop offset="1" stop-color="#FF957C"/>
</linearGradient>
<linearGradient id="paint11_linear_1434_8772" x1="48.5014" y1="31.2742" x2="48.5014" y2="26.4354" gradientUnits="userSpaceOnUse">
<stop offset="0.0159875" stop-color="#FFAE78"/>
<stop offset="1" stop-color="#FF957C"/>
</linearGradient>
<linearGradient id="paint12_linear_1434_8772" x1="21.6863" y1="38.686" x2="21.6863" y2="33.5574" gradientUnits="userSpaceOnUse">
<stop stop-color="#EDE3FC"/>
<stop offset="1" stop-color="white"/>
</linearGradient>
<linearGradient id="paint13_linear_1434_8772" x1="22.5193" y1="45.4729" x2="22.5193" y2="29.1965" gradientUnits="userSpaceOnUse">
<stop stop-color="#EDE3FC"/>
<stop offset="1" stop-color="white"/>
</linearGradient>
<linearGradient id="paint14_linear_1434_8772" x1="23.4935" y1="39.7864" x2="23.4935" y2="29.6913" gradientUnits="userSpaceOnUse">
<stop stop-color="#EDE3FC"/>
<stop offset="1" stop-color="white"/>
</linearGradient>
<linearGradient id="paint15_linear_1434_8772" x1="25.7016" y1="10.6951" x2="25.7016" y2="7.1739" gradientUnits="userSpaceOnUse">
<stop offset="0.0111732" stop-color="#772438"/>
<stop offset="0.9944" stop-color="#994540"/>
</linearGradient>
<linearGradient id="paint16_linear_1434_8772" x1="17.319" y1="13.2845" x2="17.319" y2="9.90584" gradientUnits="userSpaceOnUse">
<stop offset="0.0111732" stop-color="#772438"/>
<stop offset="0.9944" stop-color="#994540"/>
</linearGradient>
<linearGradient id="paint17_linear_1434_8772" x1="26.3306" y1="17.3354" x2="26.3306" y2="11.9529" gradientUnits="userSpaceOnUse">
<stop stop-color="#E1DBFB"/>
<stop offset="1" stop-color="white"/>
</linearGradient>
<linearGradient id="paint18_linear_1434_8772" x1="17.783" y1="18.0144" x2="17.783" y2="12.9315" gradientUnits="userSpaceOnUse">
<stop stop-color="#E1DBFB"/>
<stop offset="1" stop-color="white"/>
</linearGradient>
<linearGradient id="paint19_linear_1434_8772" x1="28.2961" y1="18.2788" x2="28.2961" y2="0.70302" gradientUnits="userSpaceOnUse">
<stop offset="0.0111732" stop-color="#772438"/>
<stop offset="0.9944" stop-color="#994540"/>
</linearGradient>
<linearGradient id="paint20_linear_1434_8772" x1="26.7697" y1="12.5233" x2="25.5077" y2="1.17014" gradientUnits="userSpaceOnUse">
<stop offset="0.0111732" stop-color="#512438"/>
<stop offset="0.9944" stop-color="#6D1D20"/>
</linearGradient>
<linearGradient id="paint21_linear_1434_8772" x1="26.8836" y1="16.0267" x2="26.8836" y2="11.3848" gradientUnits="userSpaceOnUse">
<stop stop-color="#403060"/>
<stop offset="0.9944" stop-color="#2A0E51"/>
</linearGradient>
<linearGradient id="paint22_linear_1434_8772" x1="26.6391" y1="16.5559" x2="26.6391" y2="12.6737" gradientUnits="userSpaceOnUse">
<stop offset="0.0223464" stop-color="#85757A"/>
<stop offset="0.9944" stop-color="#563757"/>
</linearGradient>
<linearGradient id="paint23_linear_1434_8772" x1="26.5959" y1="15.9687" x2="26.5959" y2="13.3194" gradientUnits="userSpaceOnUse">
<stop stop-color="#403060"/>
<stop offset="0.9944" stop-color="#2A0E51"/>
</linearGradient>
<linearGradient id="paint24_linear_1434_8772" x1="18.1007" y1="17.4212" x2="18.1007" y2="13.5389" gradientUnits="userSpaceOnUse">
<stop offset="0.0223464" stop-color="#85757A"/>
<stop offset="0.9944" stop-color="#563757"/>
</linearGradient>
<linearGradient id="paint25_linear_1434_8772" x1="17.5818" y1="15.474" x2="19.0968" y2="15.474" gradientUnits="userSpaceOnUse">
<stop stop-color="#382160"/>
<stop offset="0.9944" stop-color="#2A0E51"/>
</linearGradient>
<linearGradient id="paint26_linear_1434_8772" x1="17.2986" y1="16.0305" x2="17.2986" y2="12.5177" gradientUnits="userSpaceOnUse">
<stop stop-color="#403060"/>
<stop offset="0.9944" stop-color="#2A0E51"/>
</linearGradient>
<linearGradient id="paint27_linear_1434_8772" x1="21.4091" y1="23.114" x2="21.4091" y2="20.6014" gradientUnits="userSpaceOnUse">
<stop stop-color="#E76C42"/>
<stop offset="0.9944" stop-color="#AE2545"/>
</linearGradient>
<linearGradient id="paint28_linear_1434_8772" x1="21.4792" y1="22.0392" x2="21.4792" y2="20.3617" gradientUnits="userSpaceOnUse">
<stop stop-color="#A12F42"/>
<stop offset="0.9944" stop-color="#811945"/>
</linearGradient>
<linearGradient id="paint29_linear_1434_8772" x1="29.7123" y1="13.3943" x2="29.7123" y2="1.31853" gradientUnits="userSpaceOnUse">
<stop offset="0.0111732" stop-color="#772438"/>
<stop offset="0.9944" stop-color="#994540"/>
</linearGradient>
<linearGradient id="paint30_linear_1434_8772" x1="30.831" y1="7.41029" x2="30.2702" y2="1.81079" gradientUnits="userSpaceOnUse">
<stop offset="0.0111732" stop-color="#B45E52"/>
<stop offset="0.9944" stop-color="#C16140"/>
</linearGradient>
<linearGradient id="paint31_linear_1434_8772" x1="29.5023" y1="14.53" x2="26.2502" y2="1.54416" gradientUnits="userSpaceOnUse">
<stop offset="0.0111732" stop-color="#B45E52"/>
<stop offset="0.9944" stop-color="#C16140"/>
</linearGradient>
<linearGradient id="paint32_linear_1434_8772" x1="38.7864" y1="41.8999" x2="23.9727" y2="31.3103" gradientUnits="userSpaceOnUse">
<stop offset="0.0111732" stop-color="#B45E52"/>
<stop offset="0.9944" stop-color="#C16140"/>
</linearGradient>
<linearGradient id="paint33_linear_1434_8772" x1="36.1267" y1="51.5612" x2="36.1267" y2="44.8757" gradientUnits="userSpaceOnUse">
<stop stop-color="#5B4365"/>
<stop offset="0.9777" stop-color="#70517C"/>
</linearGradient>
<linearGradient id="paint34_linear_1434_8772" x1="43.7726" y1="47.8174" x2="43.7726" y2="39.164" gradientUnits="userSpaceOnUse">
<stop stop-color="#5B4365"/>
<stop offset="0.9777" stop-color="#70517C"/>
</linearGradient>
<linearGradient id="paint35_linear_1434_8772" x1="14.438" y1="49.813" x2="23.4373" y2="49.813" gradientUnits="userSpaceOnUse">
<stop offset="0.0111732" stop-color="#C695C7"/>
<stop offset="1" stop-color="#8E81F4"/>
</linearGradient>
<linearGradient id="paint36_linear_1434_8772" x1="16.7485" y1="47.7727" x2="16.7485" y2="31.0054" gradientUnits="userSpaceOnUse">
<stop stop-color="#5B4365"/>
<stop offset="0.9777" stop-color="#70517C"/>
</linearGradient>
<linearGradient id="paint37_linear_1434_8772" x1="23.6282" y1="48.2143" x2="23.6282" y2="29.3402" gradientUnits="userSpaceOnUse">
<stop stop-color="#5B4365"/>
<stop offset="0.9777" stop-color="#70517C"/>
</linearGradient>
<linearGradient id="paint38_linear_1434_8772" x1="33.5255" y1="45.1415" x2="33.5255" y2="8.9575" gradientUnits="userSpaceOnUse">
<stop offset="0.0111732" stop-color="#772438"/>
<stop offset="0.9944" stop-color="#994540"/>
</linearGradient>
<linearGradient id="paint39_linear_1434_8772" x1="18.3933" y1="14.6869" x2="18.3933" y2="1.99179" gradientUnits="userSpaceOnUse">
<stop offset="0.0111732" stop-color="#772438"/>
<stop offset="0.9944" stop-color="#994540"/>
</linearGradient>
<linearGradient id="paint40_linear_1434_8772" x1="16.7723" y1="14.7659" x2="14.2412" y2="5.82143" gradientUnits="userSpaceOnUse">
<stop offset="0.0111732" stop-color="#B45E52"/>
<stop offset="0.9944" stop-color="#C16140"/>
</linearGradient>
<radialGradient id="paint41_radial_1434_8772" cx="0" cy="0" r="1" gradientUnits="userSpaceOnUse" gradientTransform="translate(45.1112 44.2772) scale(1.01076 1.01138)">
<stop stop-color="#B3819D"/>
<stop offset="1" stop-color="#785CA6"/>
</radialGradient>
<linearGradient id="paint42_linear_1434_8772" x1="45.4626" y1="27.6107" x2="45.4626" y2="19.179" gradientUnits="userSpaceOnUse">
<stop offset="0.0159875" stop-color="#FFAE78"/>
<stop offset="1" stop-color="#FF957C"/>
</linearGradient>
<linearGradient id="paint43_linear_1434_8772" x1="23.958" y1="35.3829" x2="23.958" y2="24.4712" gradientUnits="userSpaceOnUse">
<stop offset="0.0215741" stop-color="#FF8359"/>
<stop offset="1" stop-color="#FF8B7C"/>
</linearGradient>
<linearGradient id="paint44_linear_1434_8772" x1="25.8578" y1="27.4051" x2="22.392" y2="3.95291" gradientUnits="userSpaceOnUse">
<stop offset="0.0159875" stop-color="#FFAE78"/>
<stop offset="1" stop-color="#FF957C"/>
</linearGradient>
<linearGradient id="paint45_linear_1434_8772" x1="33.055" y1="22.3315" x2="33.055" y2="16.0311" gradientUnits="userSpaceOnUse">
<stop offset="0.0215741" stop-color="#FF8359"/>
<stop offset="1" stop-color="#FF8B7C"/>
</linearGradient>
<linearGradient id="paint46_linear_1434_8772" x1="46.1746" y1="49.0941" x2="46.1746" y2="25.7764" gradientUnits="userSpaceOnUse">
<stop offset="0.0159875" stop-color="#FFAE78"/>
<stop offset="1" stop-color="#FF957C"/>
</linearGradient>
<linearGradient id="paint47_linear_1434_8772" x1="48.5014" y1="31.2742" x2="48.5014" y2="26.4354" gradientUnits="userSpaceOnUse">
<stop offset="0.0159875" stop-color="#FFAE78"/>
<stop offset="1" stop-color="#FF957C"/>
</linearGradient>
<linearGradient id="paint48_linear_1434_8772" x1="21.6863" y1="38.686" x2="21.6863" y2="33.5574" gradientUnits="userSpaceOnUse">
<stop stop-color="#EDE3FC"/>
<stop offset="1" stop-color="white"/>
</linearGradient>
<linearGradient id="paint49_linear_1434_8772" x1="22.5193" y1="45.4729" x2="22.5193" y2="29.1965" gradientUnits="userSpaceOnUse">
<stop stop-color="#EDE3FC"/>
<stop offset="1" stop-color="white"/>
</linearGradient>
<linearGradient id="paint50_linear_1434_8772" x1="23.4935" y1="39.7864" x2="23.4935" y2="29.6913" gradientUnits="userSpaceOnUse">
<stop stop-color="#EDE3FC"/>
<stop offset="1" stop-color="white"/>
</linearGradient>
<linearGradient id="paint51_linear_1434_8772" x1="25.7016" y1="10.6951" x2="25.7016" y2="7.1739" gradientUnits="userSpaceOnUse">
<stop offset="0.0111732" stop-color="#772438"/>
<stop offset="0.9944" stop-color="#994540"/>
</linearGradient>
<linearGradient id="paint52_linear_1434_8772" x1="17.319" y1="13.2845" x2="17.319" y2="9.90584" gradientUnits="userSpaceOnUse">
<stop offset="0.0111732" stop-color="#772438"/>
<stop offset="0.9944" stop-color="#994540"/>
</linearGradient>
<linearGradient id="paint53_linear_1434_8772" x1="26.3306" y1="17.3354" x2="26.3306" y2="11.9529" gradientUnits="userSpaceOnUse">
<stop stop-color="#E1DBFB"/>
<stop offset="1" stop-color="white"/>
</linearGradient>
<linearGradient id="paint54_linear_1434_8772" x1="17.783" y1="18.0144" x2="17.783" y2="12.9315" gradientUnits="userSpaceOnUse">
<stop stop-color="#E1DBFB"/>
<stop offset="1" stop-color="white"/>
</linearGradient>
<linearGradient id="paint55_linear_1434_8772" x1="28.2961" y1="18.2788" x2="28.2961" y2="0.70302" gradientUnits="userSpaceOnUse">
<stop offset="0.0111732" stop-color="#772438"/>
<stop offset="0.9944" stop-color="#994540"/>
</linearGradient>
<linearGradient id="paint56_linear_1434_8772" x1="26.7697" y1="12.5233" x2="25.5077" y2="1.17014" gradientUnits="userSpaceOnUse">
<stop offset="0.0111732" stop-color="#512438"/>
<stop offset="0.9944" stop-color="#6D1D20"/>
</linearGradient>
<linearGradient id="paint57_linear_1434_8772" x1="26.8836" y1="16.0267" x2="26.8836" y2="11.3848" gradientUnits="userSpaceOnUse">
<stop stop-color="#403060"/>
<stop offset="0.9944" stop-color="#2A0E51"/>
</linearGradient>
<linearGradient id="paint58_linear_1434_8772" x1="26.6391" y1="16.5559" x2="26.6391" y2="12.6737" gradientUnits="userSpaceOnUse">
<stop offset="0.0223464" stop-color="#85757A"/>
<stop offset="0.9944" stop-color="#563757"/>
</linearGradient>
<linearGradient id="paint59_linear_1434_8772" x1="26.5959" y1="15.9687" x2="26.5959" y2="13.3194" gradientUnits="userSpaceOnUse">
<stop stop-color="#403060"/>
<stop offset="0.9944" stop-color="#2A0E51"/>
</linearGradient>
<linearGradient id="paint60_linear_1434_8772" x1="18.1007" y1="17.4212" x2="18.1007" y2="13.5389" gradientUnits="userSpaceOnUse">
<stop offset="0.0223464" stop-color="#85757A"/>
<stop offset="0.9944" stop-color="#563757"/>
</linearGradient>
<linearGradient id="paint61_linear_1434_8772" x1="17.5818" y1="15.474" x2="19.0968" y2="15.474" gradientUnits="userSpaceOnUse">
<stop stop-color="#382160"/>
<stop offset="0.9944" stop-color="#2A0E51"/>
</linearGradient>
<linearGradient id="paint62_linear_1434_8772" x1="17.2986" y1="16.0305" x2="17.2986" y2="12.5177" gradientUnits="userSpaceOnUse">
<stop stop-color="#403060"/>
<stop offset="0.9944" stop-color="#2A0E51"/>
</linearGradient>
<linearGradient id="paint63_linear_1434_8772" x1="21.4091" y1="23.114" x2="21.4091" y2="20.6014" gradientUnits="userSpaceOnUse">
<stop stop-color="#E76C42"/>
<stop offset="0.9944" stop-color="#AE2545"/>
</linearGradient>
<linearGradient id="paint64_linear_1434_8772" x1="21.4792" y1="22.0392" x2="21.4792" y2="20.3617" gradientUnits="userSpaceOnUse">
<stop stop-color="#A12F42"/>
<stop offset="0.9944" stop-color="#811945"/>
</linearGradient>
<linearGradient id="paint65_linear_1434_8772" x1="29.7123" y1="13.3943" x2="29.7123" y2="1.31853" gradientUnits="userSpaceOnUse">
<stop offset="0.0111732" stop-color="#772438"/>
<stop offset="0.9944" stop-color="#994540"/>
</linearGradient>
<linearGradient id="paint66_linear_1434_8772" x1="30.831" y1="7.41029" x2="30.2702" y2="1.81079" gradientUnits="userSpaceOnUse">
<stop offset="0.0111732" stop-color="#B45E52"/>
<stop offset="0.9944" stop-color="#C16140"/>
</linearGradient>
<linearGradient id="paint67_linear_1434_8772" x1="29.5023" y1="14.53" x2="26.2502" y2="1.54416" gradientUnits="userSpaceOnUse">
<stop offset="0.0111732" stop-color="#B45E52"/>
<stop offset="0.9944" stop-color="#C16140"/>
</linearGradient>
<linearGradient id="paint68_linear_1434_8772" x1="23.6238" y1="6.73271" x2="22.7595" y2="1.16" gradientUnits="userSpaceOnUse">
<stop offset="0.0111732" stop-color="#B45E52"/>
<stop offset="0.9944" stop-color="#C16140"/>
</linearGradient>
<linearGradient id="paint69_linear_1434_8772" x1="38.7864" y1="41.8999" x2="23.9727" y2="31.3103" gradientUnits="userSpaceOnUse">
<stop offset="0.0111732" stop-color="#B45E52"/>
<stop offset="0.9944" stop-color="#C16140"/>
</linearGradient>
<linearGradient id="paint70_linear_1434_8772" x1="36.1267" y1="51.5612" x2="36.1267" y2="44.8757" gradientUnits="userSpaceOnUse">
<stop stop-color="#5B4365"/>
<stop offset="0.9777" stop-color="#70517C"/>
</linearGradient>
<linearGradient id="paint71_linear_1434_8772" x1="43.7726" y1="47.8174" x2="43.7726" y2="39.164" gradientUnits="userSpaceOnUse">
<stop stop-color="#5B4365"/>
<stop offset="0.9777" stop-color="#70517C"/>
</linearGradient>
<linearGradient id="paint72_linear_1434_8772" x1="16.7485" y1="47.7727" x2="16.7485" y2="31.0054" gradientUnits="userSpaceOnUse">
<stop stop-color="#5B4365"/>
<stop offset="0.9777" stop-color="#70517C"/>
</linearGradient>
<linearGradient id="paint73_linear_1434_8772" x1="23.6282" y1="48.2143" x2="23.6282" y2="29.3402" gradientUnits="userSpaceOnUse">
<stop stop-color="#5B4365"/>
<stop offset="0.9777" stop-color="#70517C"/>
</linearGradient>
<clipPath id="clip0_1434_8772">
<rect width="57" height="63" fill="white" transform="translate(0 0.667969)"/>
</clipPath>
<clipPath id="clip1_1434_8772">
<rect width="63" height="48" fill="white" transform="translate(-12 0.667969)"/>
</clipPath>
</defs>
</svg>
