<svg width="20" height="20" viewBox="0 0 20 20" fill="none" xmlns="http://www.w3.org/2000/svg">
<path fill-rule="evenodd" clip-rule="evenodd" d="M15.8333 15.8327H6.66667C5.74583 15.8327 5 15.0868 5 14.166V8.33268C5 7.41185 5.74583 6.66602 6.66667 6.66602H15.8333C16.7542 6.66602 17.5 7.41185 17.5 8.33268V14.166C17.5 15.0868 16.7542 15.8327 15.8333 15.8327Z" stroke="#7D53FE" stroke-width="1.5" stroke-linecap="round" stroke-linejoin="round"/>
<path d="M5 10.0007H17.5" stroke="#7D53FE" stroke-width="1.5" stroke-linecap="round" stroke-linejoin="round"/>
<path d="M5 13.3327H4.16667C3.24583 13.3327 2.5 12.5868 2.5 11.666V5.83268C2.5 4.91185 3.24583 4.16602 4.16667 4.16602H13.3333C14.2542 4.16602 15 4.91185 15 5.83268V6.66602" stroke="#7D53FE" stroke-width="1.5" stroke-linecap="round" stroke-linejoin="round"/>
<path d="M10 13.3327H7.5" stroke="#7D53FE" stroke-width="1.5" stroke-linecap="round" stroke-linejoin="round"/>
</svg>
