<svg width="18" height="18" viewBox="0 0 18 18" fill="none" xmlns="http://www.w3.org/2000/svg">
<path fill-rule="evenodd" clip-rule="evenodd" d="M6.35583 14.5475H4.28833C3.82667 14.5475 3.4525 14.1733 3.4525 13.7117V11.6433C3.4525 11.4217 3.36417 11.2092 3.2075 11.0525L1.745 9.59C1.41833 9.26333 1.41833 8.73417 1.745 8.40833L3.2225 6.93083C3.37 6.78333 3.4525 6.58417 3.4525 6.37583V4.28833C3.4525 3.82667 3.82667 3.4525 4.28833 3.4525H6.35667C6.57833 3.4525 6.79083 3.36417 6.9475 3.2075L8.41 1.745C8.73667 1.41833 9.26583 1.41833 9.59167 1.745L11.0542 3.2075C11.2108 3.36417 11.4233 3.4525 11.645 3.4525H13.7133C14.175 3.4525 14.5492 3.82667 14.5492 4.28833V6.35667C14.5492 6.57833 14.6375 6.79083 14.7942 6.9475L16.2567 8.41C16.5833 8.73667 16.5833 9.26583 16.2567 9.59167L14.7942 11.0542C14.6375 11.2108 14.5492 11.4233 14.5492 11.645V13.7133C14.5492 14.175 14.175 14.5492 13.7133 14.5492H11.645C11.4233 14.5492 11.2108 14.6375 11.0542 14.7942L9.59167 16.2567C9.265 16.5833 8.73583 16.5833 8.41 16.2567L6.9475 14.7942C6.79 14.635 6.5775 14.5475 6.35583 14.5475Z" stroke="#7D53FE" stroke-width="1.5" stroke-linecap="round" stroke-linejoin="round"/>
<path d="M11.5 7.75L8.375 10.875L6.5 9" stroke="#7D53FE" stroke-width="1.5" stroke-linecap="round" stroke-linejoin="round"/>
</svg>
