<svg width="32" height="32" viewBox="0 0 32 32" fill="none" xmlns="http://www.w3.org/2000/svg">
<path d="M0 16C0 7.16344 7.16344 0 16 0C24.8366 0 32 7.16344 32 16C32 24.8366 24.8366 32 16 32C7.16344 32 0 24.8366 0 16Z" fill="white"/>
<path fill-rule="evenodd" clip-rule="evenodd" d="M21.8346 23.5V23.5C22.7555 23.5 23.5013 22.7542 23.5013 21.8333V16.8333C23.5013 16.3733 23.128 16 22.668 16H20.168V21.8333C20.168 22.7542 20.9138 23.5 21.8346 23.5Z" stroke="#7D53FE" stroke-width="1.5" stroke-linecap="round" stroke-linejoin="round"/>
<path d="M11.832 12.6667H16.832" stroke="#7D53FE" stroke-width="1.5" stroke-linecap="round" stroke-linejoin="round"/>
<path d="M11.832 15.8913H16.832" stroke="#7D53FE" stroke-width="1.5" stroke-linecap="round" stroke-linejoin="round"/>
<path d="M11.832 19.3835H14.332" stroke="#7D53FE" stroke-width="1.5" stroke-linecap="round" stroke-linejoin="round"/>
<path d="M20.1667 15.9997V10.1663C20.1667 9.70634 19.7933 9.33301 19.3333 9.33301H9.33333C8.87333 9.33301 8.5 9.70634 8.5 10.1663V21.833C8.5 22.7538 9.24583 23.4997 10.1667 23.4997H21.8333" stroke="#7D53FE" stroke-width="1.5" stroke-linecap="round" stroke-linejoin="round"/>
</svg>
