<svg width="20" height="20" viewBox="0 0 20 20" fill="none" xmlns="http://www.w3.org/2000/svg">
<path d="M7.59667 11.8232C4.635 12.2132 2.5 13.3007 2.5 14.5841C2.5 16.1949 5.8575 17.5007 10 17.5007C14.1425 17.5007 17.5 16.1949 17.5 14.5841C17.5 13.3007 15.365 12.2132 12.4033 11.8232" stroke="#7D53FE" stroke-width="1.5" stroke-linecap="round" stroke-linejoin="round"/>
<path fill-rule="evenodd" clip-rule="evenodd" d="M15 6.52783C15 3.84366 12.7617 1.66699 10 1.66699C7.23833 1.66699 5 3.84366 5 6.52783C5 10.1737 10 14.167 10 14.167C10 14.167 15 10.1737 15 6.52783Z" stroke="#7D53FE" stroke-width="1.5" stroke-linecap="round" stroke-linejoin="round"/>
<path d="M11.1772 5.48816C11.8281 6.13903 11.8281 7.19431 11.1772 7.84518C10.5263 8.49605 9.47106 8.49605 8.82019 7.84518C8.16931 7.19431 8.16931 6.13903 8.82019 5.48816C9.47106 4.83728 10.5263 4.83728 11.1772 5.48816" stroke="#7D53FE" stroke-width="1.5" stroke-linecap="round" stroke-linejoin="round"/>
</svg>
