<svg width="66" height="65" viewBox="0 0 66 65" fill="none" xmlns="http://www.w3.org/2000/svg">
<path d="M51.0277 15.4851C49.6655 13.0523 48.0158 10.3097 44.3506 11.5346C43.1246 11.8476 41.9301 12.2729 40.7822 12.805C40.7474 12.5391 40.7066 12.2624 40.6476 11.9531C39.6153 6.56799 33.2258 2.21384 27.5201 9.37437C25.9145 11.6148 24.6974 14.1095 23.9201 16.754C21.2592 16.0346 18.4963 15.7683 15.747 15.9663C6.66026 17.0882 7.08721 24.7809 11.1062 28.4936C11.339 28.7057 11.5536 28.8851 11.7621 29.0536C10.7092 29.7552 9.72246 30.5513 8.814 31.4319C5.84329 33.9226 7.30839 36.7686 8.67055 39.2014C10.0327 41.6342 11.0535 43.2025 14.5923 42.1341C15.4914 44.1985 16.5804 46.2707 17.6081 48.1062C20.6121 53.4715 24.2604 58.7898 27.7866 58.6415C29.9816 59.2242 38.1528 56.5179 44.2674 53.0942C50.382 49.6706 56.9781 44.1513 57.5852 41.9997C59.5763 39.0589 56.9272 33.181 53.9231 27.8158C52.8954 25.9803 51.6979 23.9689 50.4078 22.1234C53.186 19.5692 52.3777 17.8962 51.0277 15.4851Z" fill="#B19BF5" stroke="black" stroke-width="1.5" stroke-miterlimit="10"/>
<path d="M44.7371 46.8244C44.1038 45.0819 40.7901 38.5776 36.9178 31.3304" stroke="black" stroke-width="1.5" stroke-miterlimit="10" stroke-linecap="round"/>
<path d="M29.554 35.4541C33.7087 42.5432 37.5328 48.7617 38.6766 50.2183" stroke="black" stroke-width="1.5" stroke-miterlimit="10" stroke-linecap="round"/>
<path d="M43.6617 27.1712C43.6617 27.1712 38.5367 30.4259 33.2366 33.3935C27.9366 36.361 22.4832 39.0293 22.4832 39.0293" stroke="black" stroke-width="1.5" stroke-miterlimit="10" stroke-linecap="round"/>
<path d="M18.8355 25.5071C18.8355 25.5071 22.4995 23.1846 26.3225 21.044C30.1455 18.9035 34.0406 16.9936 34.0406 16.9936" stroke="black" stroke-width="1.5" stroke-miterlimit="10" stroke-linecap="round"/>
<path d="M31.6722 9.96318C32.0135 9.63096 32.4297 9.38557 32.8856 9.24764C33.3416 9.10972 33.824 9.0833 34.2922 9.1706C34.7605 9.2579 35.201 9.45637 35.5766 9.74933C35.9522 10.0423 36.252 10.4211 36.4507 10.8541" stroke="white" stroke-width="1.5" stroke-miterlimit="10" stroke-linecap="round"/>
</svg>
