<svg width="112" height="19" viewBox="0 0 112 19" fill="none" xmlns="http://www.w3.org/2000/svg">
<g clip-path="url(#clip0_1921_49167)">
<path d="M18.6958 6.79665L12.8549 5.90444L10.2368 0.327938C10.0413 -0.0884792 9.35807 -0.0884792 9.16253 0.327938L6.54528 5.90444L0.704361 6.79665C0.224611 6.87027 0.0330276 7.45373 0.369486 7.7981L4.61282 12.1475L3.60978 18.2964C3.52982 18.7849 4.05153 19.1514 4.48299 18.9115L9.70007 16.0283L14.9172 18.9123C15.3447 19.1498 15.8711 18.7904 15.7904 18.2972L14.7873 12.1483L19.0307 7.7989C19.3671 7.45373 19.1747 6.87027 18.6958 6.79665Z" fill="#FECC41"/>
</g>
<g clip-path="url(#clip1_1921_49167)">
<path d="M41.6958 6.79665L35.8549 5.90444L33.2368 0.327938C33.0413 -0.0884792 32.3581 -0.0884792 32.1625 0.327938L29.5453 5.90444L23.7044 6.79665C23.2246 6.87027 23.033 7.45373 23.3695 7.7981L27.6128 12.1475L26.6098 18.2964C26.5298 18.7849 27.0515 19.1514 27.483 18.9115L32.7001 16.0283L37.9172 18.9123C38.3447 19.1498 38.8711 18.7904 38.7904 18.2972L37.7873 12.1483L42.0307 7.7989C42.3671 7.45373 42.1747 6.87027 41.6958 6.79665Z" fill="#FECC41"/>
</g>
<g clip-path="url(#clip2_1921_49167)">
<path d="M64.6958 6.79665L58.8549 5.90444L56.2368 0.327938C56.0413 -0.0884792 55.3581 -0.0884792 55.1625 0.327938L52.5453 5.90444L46.7044 6.79665C46.2246 6.87027 46.033 7.45373 46.3695 7.7981L50.6128 12.1475L49.6098 18.2964C49.5298 18.7849 50.0515 19.1514 50.483 18.9115L55.7001 16.0283L60.9172 18.9123C61.3447 19.1498 61.8711 18.7904 61.7904 18.2972L60.7873 12.1483L65.0307 7.7989C65.3671 7.45373 65.1747 6.87027 64.6958 6.79665Z" fill="#FECC41"/>
</g>
<g clip-path="url(#clip3_1921_49167)">
<path d="M87.6958 6.79665L81.8549 5.90444L79.2368 0.327938C79.0413 -0.0884792 78.3581 -0.0884792 78.1625 0.327938L75.5453 5.90444L69.7044 6.79665C69.2246 6.87027 69.033 7.45373 69.3695 7.7981L73.6128 12.1475L72.6098 18.2964C72.5298 18.7849 73.0515 19.1514 73.483 18.9115L78.7001 16.0283L83.9172 18.9123C84.3447 19.1498 84.8711 18.7904 84.7904 18.2972L83.7873 12.1483L88.0307 7.7989C88.3671 7.45373 88.1747 6.87027 87.6958 6.79665Z" fill="#FECC41"/>
</g>
<g clip-path="url(#clip4_1921_49167)">
<path d="M110.696 6.79665L104.855 5.90444L102.237 0.327938C102.041 -0.0884792 101.358 -0.0884792 101.163 0.327938L98.5453 5.90444L92.7044 6.79665C92.2246 6.87027 92.033 7.45373 92.3695 7.7981L96.6128 12.1475L95.6098 18.2964C95.5298 18.7849 96.0515 19.1514 96.483 18.9115L101.7 16.0283L106.917 18.9123C107.345 19.1498 107.871 18.7904 107.79 18.2972L106.787 12.1483L111.031 7.7989C111.367 7.45373 111.175 6.87027 110.696 6.79665Z" fill="#2A1E4A"/>
<g clip-path="url(#clip5_1921_49167)">
<path d="M110.696 6.79665L104.855 5.90444L102.237 0.327938C102.041 -0.0884792 101.358 -0.0884792 101.163 0.327938L98.5453 5.90444L92.7044 6.79665C92.2246 6.87027 92.033 7.45373 92.3695 7.7981L96.6128 12.1475L95.6098 18.2964C95.5298 18.7849 96.0515 19.1514 96.483 18.9115L101.7 16.0283L106.917 18.9123C107.345 19.1498 107.871 18.7904 107.79 18.2972L106.787 12.1483L111.031 7.7989C111.367 7.45373 111.175 6.87027 110.696 6.79665Z" fill="#FECC41"/>
</g>
</g>
<defs>
<clipPath id="clip0_1921_49167">
<rect width="19" height="19" fill="white" transform="translate(0.199951)"/>
</clipPath>
<clipPath id="clip1_1921_49167">
<rect width="19" height="19" fill="white" transform="translate(23.2)"/>
</clipPath>
<clipPath id="clip2_1921_49167">
<rect width="19" height="19" fill="white" transform="translate(46.2)"/>
</clipPath>
<clipPath id="clip3_1921_49167">
<rect width="19" height="19" fill="white" transform="translate(69.2)"/>
</clipPath>
<clipPath id="clip4_1921_49167">
<rect width="19" height="19" fill="white" transform="translate(92.2)"/>
</clipPath>
<clipPath id="clip5_1921_49167">
<rect width="14" height="19" fill="white" transform="translate(91.7)"/>
</clipPath>
</defs>
</svg>
