<svg width="12" height="13" viewBox="0 0 12 13" fill="none" xmlns="http://www.w3.org/2000/svg">
<g clip-path="url(#clip0_1434_6298)">
<path d="M8.83309 4.08984L6.59668 11.1718L12.0013 4.08984H8.83309Z" fill="#3FCA89"/>
<path d="M1.74253 1.58496L0.0256348 3.64523H2.94435L1.74253 1.58496Z" fill="#3FCA89"/>
<path d="M10.2572 1.58496L9.05542 3.64523H11.9741L10.2572 1.58496Z" fill="#3FCA89"/>
<path d="M3.16823 4.08984H0L5.40464 11.1718L3.16823 4.08984Z" fill="#3FCA89"/>
<path d="M6.53687 1.4209L8.62205 3.50609L9.83832 1.4209H6.53687Z" fill="#3FCA89"/>
<path d="M2.1604 1.4209L3.37667 3.50609L5.46185 1.4209H2.1604Z" fill="#3FCA89"/>
<path d="M3.63501 4.08984L6.00042 11.5799L8.36582 4.08984H3.63501Z" fill="#3FCA89"/>
<path d="M6.00126 1.51172L3.86938 3.64359H8.13313L6.00126 1.51172Z" fill="#3FCA89"/>
</g>
<defs>
<clipPath id="clip0_1434_6298">
<rect width="12" height="12" fill="white" transform="translate(0 0.5)"/>
</clipPath>
</defs>
</svg>
