<svg width="135" height="345" viewBox="0 0 135 345" fill="none" xmlns="http://www.w3.org/2000/svg">
<g clip-path="url(#clip0_1913_60793)">
<g clip-path="url(#clip1_1913_60793)">
<path d="M74.2869 185.373C74.2869 185.373 57.115 212.762 43.1917 225.816C31.7948 236.498 9.40108 264.993 22.8849 283.932C28.2019 291.403 46.148 272.731 51.7499 260.079C54.5151 253.831 86.3391 191.77 86.3391 191.77L74.2869 185.373Z" fill="#FFAE78"/>
</g>
<path d="M104.031 101.486C104.031 101.486 95.8475 101.497 97.4083 119.596L95.298 136.967L105.409 146.288C105.409 146.288 104.806 122.072 105.241 120.41C105.667 118.748 104.031 101.486 104.031 101.486Z" fill="url(#paint0_linear_1913_60793)"/>
<path d="M79.8091 141.287L83.437 138.245C83.437 138.245 88.7419 138.992 89.3175 139.544C89.9022 140.097 98.9057 151.446 98.9057 151.446L99.5302 157.902C99.5302 157.902 86.753 176.9 85.018 174.402C83.2833 171.895 79.8091 141.287 79.8091 141.287Z" fill="#DD6668"/>
<path d="M107.319 145.164L108.567 152.748C108.567 152.748 99.3704 178.797 95.6848 182.095C91.9993 185.393 88.1356 189.366 88.1356 189.366L86.0503 192.2L73.8562 186.083C73.8562 186.083 70.2923 162.408 73.8662 154.81C77.4397 147.221 74.7546 135.029 74.7546 135.029C74.7546 135.029 84.724 134.95 82.6914 146.275C80.7093 157.297 90.0951 162.808 85.1325 172.329C81.0392 180.181 101.226 144.475 101.226 144.475L107.319 145.164Z" fill="url(#paint1_linear_1913_60793)"/>
<path d="M77.6024 136.93C77.6024 136.93 79.1275 144.101 89.5222 140.31L94.8239 141.13L96.4772 146.885L106.477 144.896C106.477 144.896 98.7948 134.973 97.0235 132.049C95.2518 129.133 91.0711 130.913 90.6615 131.19C90.3377 131.406 80.1641 136.445 77.6024 136.93Z" fill="url(#paint2_linear_1913_60793)"/>
<path d="M77.5972 136.929C77.5972 136.929 84.9634 134.35 90.0558 130.986C95.1482 127.622 100.332 134.764 100.332 134.764C100.332 134.764 96.2854 130.065 93.1706 130.526C90.0558 130.986 82.7099 137.639 77.5972 136.929Z" fill="#D36865"/>
<path d="M77.5911 136.93C77.5911 136.93 79.8583 144.236 89.6798 138.812C89.6798 138.812 90.0509 140.214 92.7416 140.353C95.4319 140.502 95.6548 140.475 95.6548 140.475L95.4913 143.497L94.8126 141.13L89.5109 140.31C89.5013 140.319 80.0747 144.56 77.5911 136.93Z" fill="#D36865"/>
<path d="M77.4336 147.211C77.4336 147.211 81.2529 153.479 89.7978 146.455L95.0696 145.473L98.5354 150.357L107.312 145.164C107.312 145.164 98.8062 138.159 96.1605 135.99C93.524 133.821 86.5012 137.597 86.7561 137.886C87.0202 138.175 79.6903 145.909 77.4336 147.211Z" fill="url(#paint3_linear_1913_60793)"/>
<path d="M77.4305 147.211C77.4305 147.211 81.2809 153.609 89.7947 146.455L95.0665 145.473L98.2939 150.319L94.5632 143.723C94.5632 143.723 93.0528 146.093 88.903 145.537C88.903 145.537 84.3201 152.776 77.4305 147.211Z" fill="#D36865"/>
<path d="M81.6093 143.594C81.6093 143.594 85.904 139.279 86.9275 137.672C86.9275 137.672 91.276 134.625 95.3547 135.529C95.3547 135.529 90.8992 135.2 87.0881 138.002C87.0881 138.002 83.7809 142.13 81.6093 143.594Z" fill="#FFC7BB"/>
<path d="M96.1601 135.989L104.951 143.219C104.942 143.219 98.2109 136.599 96.1601 135.989Z" fill="#FFC7BB"/>
<path d="M78.6796 154.794C78.6796 154.794 82.4991 161.062 91.044 154.038L96.3157 153.056L99.7815 157.94L108.558 152.747C108.558 152.747 100.043 145.742 97.4067 143.573C94.7702 141.404 87.7473 145.18 88.0022 145.469C88.2571 145.757 80.9271 153.491 78.6796 154.794Z" fill="url(#paint4_linear_1913_60793)"/>
<path d="M78.6726 154.794C78.6726 154.794 82.5232 161.192 91.037 154.038L96.3087 153.056L99.5361 157.902L95.8054 151.306C95.8054 151.306 94.2951 153.676 90.1453 153.12C90.1361 153.12 85.5622 160.359 78.6726 154.794Z" fill="#D36865"/>
<path d="M82.8632 151.177C82.8632 151.177 87.1578 146.862 88.1813 145.255C88.1813 145.255 92.5299 142.208 96.6086 143.112C96.6086 143.112 92.153 142.783 88.3419 145.585C88.3327 145.585 85.0255 149.713 82.8632 151.177Z" fill="#FFC7BB"/>
<path d="M97.4062 143.574L106.198 150.803C106.198 150.803 99.4569 144.183 97.4062 143.574Z" fill="#FFC7BB"/>
<path d="M80.5534 183.207C80.5534 183.207 90.6242 172.234 85.2735 160.578C85.2735 160.578 87.7141 170.191 80.5534 183.207Z" fill="#D36865"/>
<path d="M-58.2643 205.871L21.6179 221.225L31.1602 122.478L-2.78298 65.5789L-26.9112 52.9346L-59.3549 58.9557C-59.3549 58.9557 -75.5767 91.7708 -72.9867 131.059C-70.3966 170.346 -63.717 199.85 -58.2643 205.871Z" fill="url(#paint5_linear_1913_60793)"/>
<path d="M35.2013 130.358L34.8899 132.75L33.8873 140.826L33.7735 142.327C30.8951 166.564 27.6785 191.833 25.9239 204.683C25.8214 206.034 25.6011 207.225 25.5214 208.275L24.8872 213.209L3.35546 183.501L10.5515 88.6396C10.5515 88.6396 -11.2125 55.1405 -14.7786 47.3227C-17.2346 42.0043 -21.5345 31.8666 -24.2034 25.9282C-24.8764 24.5186 -25.2071 23.7388 -25.2071 23.7388C-25.8687 22.1792 -26.3173 21.2395 -26.3173 21.2395C-26.3173 21.2395 -41.4563 22.0565 -44.493 24.393C-44.493 24.393 -62.2911 37.9914 -67.5379 59.1816C-72.7846 80.3718 -77.6368 128.915 -66.0509 169.796L-70.8325 169.435C-70.8325 169.435 -80.6416 110.271 -73.3027 70.0674C-65.8345 29.8734 -53.5745 13.8936 -50.7621 11.0872C-47.9497 8.28076 -27.7394 15.9992 -17.9024 18.2531C-8.06534 20.507 10.0312 23.5368 18.1848 29.1353C26.2091 34.7241 38.3649 73.2327 39.3316 84.4769C39.7768 88.8884 37.8025 108.062 35.2013 130.358Z" fill="url(#paint6_linear_1913_60793)"/>
<path fill-rule="evenodd" clip-rule="evenodd" d="M77.213 215.843C77.213 215.843 79.009 223.802 76.1077 228.056L69.8906 221.881L77.213 215.843Z" fill="url(#paint7_radial_1913_60793)"/>
<path d="M7.70493 63.7253C7.70493 63.7253 6.88619 93.1368 -4.43926 111.434C-5.80377 113.603 -7.30472 115.636 -8.94213 117.533C-21.3592 130.952 -39.5072 135.424 -46.7391 135.018C-53.971 134.611 -55.8813 132.307 -58.4739 130.003C-60.93 127.834 -77.1677 120.109 -81.1247 108.588C-84.8089 97.8806 -77.0312 86.3599 -74.9844 79.8542C-74.848 79.312 -74.7116 78.9054 -74.5751 78.4988C-73.4835 72.3996 -76.6219 57.8972 -74.5751 46.6476C-72.5283 35.398 -56.2907 19.8113 -40.3259 18.9981C-5.80375 17.2361 7.70493 63.7253 7.70493 63.7253Z" fill="url(#paint8_linear_1913_60793)"/>
<path d="M6.18212 84.2395C6.18212 84.2395 8.80715 79.9854 16.6821 78.3386C16.6821 78.3386 22.3465 77.5152 23.8663 84.1023C23.8663 84.1023 24.557 96.1787 19.1689 103.177C13.7808 110.313 4.38613 110.725 2.17562 110.176C-0.0348887 109.627 0.103268 104.55 0.103268 104.55C0.103268 104.55 3.55714 87.5331 6.18212 84.2395Z" fill="url(#paint9_linear_1913_60793)"/>
<path fill-rule="evenodd" clip-rule="evenodd" d="M47.0995 475.624H-71.5772C-74.064 464.92 -76.1364 454.49 -77.9324 445.845L-78.6232 442.277L-79.1758 439.532L-79.314 438.983L-79.4522 437.885C-79.4522 437.748 -79.4522 437.748 -79.4522 437.748C-80.6956 431.024 -81.5245 426.084 -81.8008 424.3L-75.4456 475.761H-123.248C-128.221 453.804 -131.952 428.691 -134.3 407.146C-135.682 393.56 -136.511 381.209 -136.649 372.152C-136.787 365.702 -136.511 360.762 -135.82 357.88C-131.952 341 -118.136 320.827 -108.465 298.733C-103.906 288.441 -101.281 278.286 -99.623 270.463C-99.623 270.463 -99.623 270.463 -99.623 270.326C-97.827 261.406 -97.4126 255.368 -97.4126 255.368C-98.2415 254.545 -99.0704 253.584 -99.8994 252.486C-106.255 243.978 -108.88 231.627 -108.603 229.431C-108.327 226.961 -107.222 222.158 -101.695 214.199C-96.1691 206.239 -89.6758 194.712 -89.9521 189.497C-90.2284 184.145 -94.0968 177.009 -94.0968 177.009C-94.0968 177.009 -83.3205 170.696 -75.1693 166.717C-72.6824 165.482 -70.0575 164.109 -67.7089 162.874C-62.1826 159.855 -57.6233 156.973 -57.6233 156.973H-54.3076L-54.7221 157.248C-54.8602 157.248 -54.8602 157.385 -54.9984 157.385C-55.1366 157.385 -55.1366 157.522 -55.2747 157.522C-55.4129 157.659 -55.551 157.659 -55.6892 157.797C-56.38 158.208 -57.347 158.895 -58.3141 159.443C-58.7286 159.718 -59.1431 159.855 -59.4194 160.13C-60.6629 160.953 -61.9063 161.639 -62.8734 162.325L-64.9457 163.698C-65.9128 165.482 -67.018 168.501 -67.9851 172.069C-70.3338 180.303 -72.6824 191.693 -74.2022 200.613C-75.1693 206.514 -75.8601 211.18 -75.8601 213.101C-75.8601 213.101 -75.8601 213.101 -75.8601 213.238C-75.8601 213.513 -75.8601 213.65 -75.8601 213.787C-75.8601 213.924 -75.8601 214.061 -75.7219 214.199C-75.7219 214.336 -75.7219 214.336 -75.7219 214.473C-75.5838 215.297 -75.3075 216.257 -75.0311 217.218V217.355C-74.064 220.511 -72.8206 224.217 -72.268 225.726V225.863V226.001L-72.1298 226.275C-72.1298 226.275 -63.0115 211.866 -56.5181 203.495C-54.4457 200.75 -49.1958 195.535 -42.9787 189.634C-30.4065 177.283 -13.8276 161.914 -12.0316 158.62C-11.0645 156.836 -10.3738 154.778 -10.0974 152.994C-9.95928 152.033 -9.82114 151.072 -9.68299 150.386C-9.54483 148.877 -9.54478 147.916 -9.54478 147.916H-6.50531C-4.43296 149.014 1.09325 149.974 7.58662 151.21C10.9024 151.896 13.6656 153.268 15.7379 154.503C17.6721 155.738 18.9155 156.699 18.9155 156.699C18.9155 156.699 17.6721 157.522 15.876 159.169C13.1129 161.502 8.96824 165.344 4.96169 170.422C4.68537 170.834 4.27089 171.245 3.99457 171.657C2.19853 174.127 0.402479 176.872 -1.11725 179.754C-1.94619 181.263 -2.63694 182.773 -3.32772 184.42C-5.67639 190.32 -6.50533 196.221 -6.78164 201.299C-6.9198 203.906 -6.78168 206.239 -6.64352 208.298C-6.22905 212.689 -5.53826 215.708 -5.26195 216.669V216.806C-5.26195 216.943 -5.26195 216.943 -5.26195 216.943C-11.3409 224.079 -17.6961 237.665 -22.5316 250.977C-27.5052 264.7 -30.8209 278.148 -30.5446 284.187C-29.992 296.263 -12.308 350.744 6.89583 388.482C19.8826 414.282 37.1522 453.118 47.0995 475.624Z" fill="black"/>
<path fill-rule="evenodd" clip-rule="evenodd" d="M77.4699 228.054L65.8647 239.856C60.3384 254.677 38.3715 280.888 36.4373 280.888C34.5031 280.888 21.5163 272.654 16.4045 261.676C11.2927 250.834 11.4309 243.287 10.8783 239.17C10.3256 235.19 0.102037 213.919 0.102037 213.919L-5.28612 216.938C-5.28612 216.938 -7.22026 212.41 -7.91105 205.411C-8.73999 198.138 -8.32558 188.257 -3.49009 177.827C6.04273 157.243 18.7532 156.557 18.7532 156.557C18.7532 156.557 21.24 158.341 21.5164 159.164C21.6545 159.439 21.5164 161.36 21.5164 163.967V164.242C21.3782 168.633 21.1018 174.808 21.3781 179.337C21.7926 186.61 32.8452 227.917 33.3978 228.054C33.536 228.054 35.1939 226.819 37.4044 224.898C42.378 220.506 50.8056 212.41 54.2596 207.058C54.9503 205.96 55.6411 204.862 56.1937 203.901C59.2332 198.687 60.2002 195.942 60.3384 195.668L63.3779 194.707L62.549 196.079C66.5555 218.997 76.6409 226.407 76.6409 226.407C78.2988 222.016 78.0225 216.389 77.8843 215.292C78.437 220.369 77.4699 228.054 77.4699 228.054Z" fill="black"/>
<path fill-rule="evenodd" clip-rule="evenodd" d="M3.28125 96.0395C3.28125 96.0395 10.8798 86.2961 18.2021 84.9238C18.2021 84.9238 21.1035 88.2174 20.8271 93.1577C20.8271 93.1577 19.7219 88.0801 17.5114 86.9823C17.5114 86.9823 16.9588 87.1195 15.5772 87.8057C13.5049 88.6291 9.63645 90.962 3.28125 96.0395Z" fill="#F3764E"/>
<path fill-rule="evenodd" clip-rule="evenodd" d="M10.0648 90.415C10.0648 90.415 15.4529 90.1405 16.6963 90.415C17.9397 90.6894 18.6305 97.4137 16.6963 100.021C14.7621 102.629 12.2753 100.982 8.95951 100.845C5.64375 100.707 3.43324 101.531 3.43324 101.531C3.43324 101.531 1.91352 97.8254 3.43324 96.0414C4.81481 94.2574 10.0648 90.415 10.0648 90.415Z" fill="#F3764E"/>
<path fill-rule="evenodd" clip-rule="evenodd" d="M-31.1133 3.27148C-31.1133 3.27148 -10.3897 34.423 2.59705 44.8525C15.5838 55.2821 20.8338 53.2236 20.8338 53.2236C20.8338 53.2236 11.7154 71.3381 -2.10032 62.1436C-15.916 52.9492 -23.9291 13.5638 -31.1133 3.27148Z" fill="url(#paint10_linear_1913_60793)"/>
<path fill-rule="evenodd" clip-rule="evenodd" d="M-38.5742 0.119026C-38.5742 0.119026 -31.9427 -2.35114 -25.5875 15.2145C-19.2323 32.78 -14.1205 55.0115 -2.10086 62.1475C9.91879 69.2835 17.7938 57.7561 17.7938 57.7561C17.7938 57.7561 10.6096 68.0484 -3.48243 58.1678C-17.8507 48.0127 -18.4033 0.119026 -38.5742 0.119026Z" fill="url(#paint11_linear_1913_60793)"/>
<path fill-rule="evenodd" clip-rule="evenodd" d="M37.2722 224.906L33.2657 228.063C33.2657 228.063 19.8645 236.434 18.4829 241.923C16.825 248.784 21.6605 258.94 21.6605 258.94C21.6605 258.94 22.7658 245.216 26.0815 239.727C29.2591 234.238 37.2722 224.906 37.2722 224.906Z" fill="url(#paint12_linear_1913_60793)"/>
<path fill-rule="evenodd" clip-rule="evenodd" d="M77.4744 228.062L65.8692 239.864C65.8692 239.864 56.6127 223.259 55.9219 204.046L60.0666 195.812L62.1389 196.224C66.1455 219.142 76.2309 226.552 76.2309 226.552C77.8888 222.161 77.6125 216.534 77.4744 215.437C78.4415 220.377 77.4744 228.062 77.4744 228.062Z" fill="url(#paint13_linear_1913_60793)"/>
<path opacity="0.4" fill-rule="evenodd" clip-rule="evenodd" d="M-6.3866 160.816L5.0804 170.697C5.0804 170.697 -9.70238 180.852 -20.4786 182.773C-20.4786 182.773 -14.3997 196.771 -13.7089 201.849C-13.7089 201.849 -48.11 219.277 -57.7809 224.217C-67.4519 229.295 -73.9453 234.647 -73.9453 234.647L-39.9587 193.066L-6.3866 160.816Z" fill="black"/>
<path fill-rule="evenodd" clip-rule="evenodd" d="M-79.1875 241.913C-79.1875 241.913 -71.8652 221.466 -61.2271 207.743C-50.589 194.02 -12.8722 156.967 -11.3525 154.634C-9.83273 152.164 -9.55644 147.773 -9.55644 147.773L-10.5235 146.812L-7.62229 145.852C-7.62229 145.852 -0.0236662 160.398 6.88417 166.848C6.88417 166.848 -6.93149 173.572 -21.1616 177.964C-21.1616 177.964 -12.734 188.805 -11.3525 197.039C-11.3525 197.039 -37.7405 209.39 -52.2469 218.721C-66.7534 228.053 -71.8651 232.444 -72.8322 233.68C-73.6612 234.777 -79.1875 241.913 -79.1875 241.913Z" fill="#292329"/>
<path fill-rule="evenodd" clip-rule="evenodd" d="M0.114791 214.064L-8.17462 207.202C-8.17462 207.202 -20.7469 234.786 -22.543 251.253C-17.293 237.256 -12.1812 227.101 -5.27336 217.22L0.114791 214.064Z" fill="black"/>
<g clip-path="url(#clip2_1913_60793)">
<path d="M93.3487 76.4273C92.3253 76.3814 91.5246 75.5055 91.5706 74.482L91.6131 73.5365C91.659 72.5131 92.535 71.7125 93.5584 71.7585L95.8295 71.8605L96.0007 68.0493L110.197 68.6869L110.026 72.4981L111.873 72.5811C112.897 72.627 113.697 73.5029 113.651 74.5264L113.609 75.4719C113.563 76.4953 112.687 77.2959 111.664 77.2499L109.817 77.167L109.767 78.2684L110.971 78.3225C111.994 78.3684 112.795 79.2443 112.749 80.2678L112.7 81.3546C112.654 82.3781 111.778 83.1787 110.755 83.1327L109.551 83.0786L109.502 84.1801C110.382 84.2538 111.067 84.9926 111.027 85.8845L110.965 87.2491C110.925 88.1605 110.146 88.8678 109.239 88.8271L109.01 88.8168C108.331 90.5638 106.65 91.7873 104.676 91.6986L99.4418 91.4635C97.468 91.3749 95.9033 90.0056 95.3835 88.2047L95.1545 88.1945C94.2431 88.1535 93.5358 87.3746 93.5766 86.4681L93.6378 85.1035C93.6777 84.2165 94.4261 83.5371 95.3097 83.5426L95.3592 82.4412L93.0881 82.3392C92.0646 82.2932 91.264 81.4173 91.31 80.3939L91.3588 79.307C91.4047 78.2836 92.2807 77.483 93.3041 77.529L95.5752 77.631L95.6247 76.5295L93.3487 76.4273Z" fill="#482D5D"/>
<path d="M110.199 88.465C109.912 88.6573 109.601 88.8338 109.236 88.8174L109.007 88.8071C108.328 90.5541 106.646 91.7776 104.673 91.6889L99.4384 91.4538C97.4646 91.3652 95.8999 89.996 95.3802 88.195L95.1511 88.1848C94.2398 88.1438 93.5325 87.3649 93.5732 86.4584L93.6345 85.0938C93.6743 84.2068 94.4227 83.5274 95.3063 83.5329L95.3558 82.4315L93.0847 82.3295C92.0613 82.2835 91.2606 81.4076 91.3066 80.3842L91.3554 79.2974C91.4014 78.2739 92.2773 77.4733 93.3008 77.5193L95.5719 77.6213L95.6213 76.5198L93.3502 76.4178C92.3268 76.3719 91.5261 75.496 91.5721 74.4725L91.6146 73.527C91.6605 72.5036 92.5365 71.703 93.5599 71.749L95.831 71.851L96.0022 68.0398C94.7156 80.8107 105.064 86.4617 110.199 88.465Z" fill="#3E1B40"/>
<path d="M81.6378 44.0878C79.3984 31.1429 88.0769 18.8335 101.022 16.5941C113.967 14.3547 126.276 23.0332 128.515 35.9782C130.755 48.9231 122.076 61.2324 109.131 63.4718C96.1866 65.7112 83.8772 57.0327 81.6378 44.0878Z" fill="#FCD89A"/>
<path d="M96.0977 69.5721L109.105 70.1564C110.694 70.2277 112.038 68.9989 112.11 67.4102L112.539 57.853L93.7855 57.0107L93.3563 66.5678C93.2849 68.1566 94.5138 69.501 96.0977 69.5721Z" fill="#FCD89A"/>
<path d="M81.2766 38.9663C81.8661 25.8417 92.983 15.6806 106.108 16.2701C119.232 16.8595 129.393 27.9764 128.804 41.101C128.346 51.2965 121.501 59.6327 112.333 62.6003L112.155 66.5771C112.063 68.624 110.326 70.2112 108.279 70.1193L96.9385 69.6099C94.8915 69.518 93.3043 67.7815 93.3962 65.7346L93.618 60.7976C85.9409 56.5656 80.8567 48.3138 81.2766 38.9663Z" fill="#FFCD19"/>
<path d="M116.931 40.5679C116.705 45.5974 118.847 49.7761 121.717 49.905C124.588 50.0339 127.096 46.0641 127.322 41.0345C127.547 36.005 125.406 31.8263 122.535 31.6973C119.67 31.5686 117.157 35.5432 116.931 40.5679Z" fill="#FFF1DA"/>
<path d="M81.278 38.9665C81.4196 35.8133 82.1975 32.845 83.4373 30.1415C81.3024 57.1241 105.341 63.2679 112.246 64.4571L112.151 66.5722C112.059 68.6191 110.323 70.2064 108.276 70.1144L96.9352 69.6051C94.8883 69.5131 93.301 67.7766 93.393 65.7297L93.6147 60.7927C85.9423 56.5658 80.8581 48.3141 81.278 38.9665Z" fill="#EDA018"/>
</g>
</g>
<defs>
<linearGradient id="paint0_linear_1913_60793" x1="100.224" y1="146.104" x2="102.227" y2="101.515" gradientUnits="userSpaceOnUse">
<stop offset="0.0159875" stop-color="#FFAE78"/>
<stop offset="1" stop-color="#FF957C"/>
</linearGradient>
<linearGradient id="paint1_linear_1913_60793" x1="88.8885" y1="194.348" x2="91.5203" y2="135.752" gradientUnits="userSpaceOnUse">
<stop offset="0.0159875" stop-color="#FFAE78"/>
<stop offset="1" stop-color="#FF957C"/>
</linearGradient>
<linearGradient id="paint2_linear_1913_60793" x1="91.7306" y1="146.605" x2="92.4623" y2="130.315" gradientUnits="userSpaceOnUse">
<stop offset="0.0159875" stop-color="#FFAE78"/>
<stop offset="1" stop-color="#FF957C"/>
</linearGradient>
<linearGradient id="paint3_linear_1913_60793" x1="92.1396" y1="150.17" x2="92.8097" y2="135.251" gradientUnits="userSpaceOnUse">
<stop offset="0.0159875" stop-color="#FFAE78"/>
<stop offset="1" stop-color="#FF957C"/>
</linearGradient>
<linearGradient id="paint4_linear_1913_60793" x1="93.3857" y1="157.753" x2="94.0558" y2="142.834" gradientUnits="userSpaceOnUse">
<stop offset="0.0159875" stop-color="#FFAE78"/>
<stop offset="1" stop-color="#FF957C"/>
</linearGradient>
<linearGradient id="paint5_linear_1913_60793" x1="-32.9921" y1="210.852" x2="-3.16071" y2="57.6415" gradientUnits="userSpaceOnUse">
<stop offset="0.0111732" stop-color="#512438"/>
<stop offset="0.9944" stop-color="#832E31"/>
</linearGradient>
<linearGradient id="paint6_linear_1913_60793" x1="-27.1905" y1="209.348" x2="-12.3574" y2="13.3042" gradientUnits="userSpaceOnUse">
<stop offset="0.0111732" stop-color="#772438"/>
<stop offset="0.9944" stop-color="#994540"/>
</linearGradient>
<radialGradient id="paint7_radial_1913_60793" cx="0" cy="0" r="1" gradientUnits="userSpaceOnUse" gradientTransform="translate(73.8055 221.951) scale(5.18215 5.1474)">
<stop stop-color="#B3819D"/>
<stop offset="1" stop-color="#785CA6"/>
</radialGradient>
<linearGradient id="paint8_linear_1913_60793" x1="-25.618" y1="136.069" x2="-42.9174" y2="18.1456" gradientUnits="userSpaceOnUse">
<stop offset="0.0159875" stop-color="#FFAE78"/>
<stop offset="1" stop-color="#FF957C"/>
</linearGradient>
<linearGradient id="paint9_linear_1913_60793" x1="11.9995" y1="110.257" x2="11.9995" y2="78.1905" gradientUnits="userSpaceOnUse">
<stop offset="0.0215741" stop-color="#FF8359"/>
<stop offset="1" stop-color="#FF8B7C"/>
</linearGradient>
<linearGradient id="paint10_linear_1913_60793" x1="-5.15117" y1="64.7718" x2="-5.15117" y2="3.3121" gradientUnits="userSpaceOnUse">
<stop offset="0.0111732" stop-color="#772438"/>
<stop offset="0.9944" stop-color="#994540"/>
</linearGradient>
<linearGradient id="paint11_linear_1913_60793" x1="-6.21824" y1="70.5505" x2="-22.6629" y2="4.4025" gradientUnits="userSpaceOnUse">
<stop offset="0.0111732" stop-color="#B45E52"/>
<stop offset="0.9944" stop-color="#C16140"/>
</linearGradient>
<linearGradient id="paint12_linear_1913_60793" x1="27.7387" y1="259.02" x2="27.7387" y2="224.995" gradientUnits="userSpaceOnUse">
<stop stop-color="#5B4365"/>
<stop offset="0.9777" stop-color="#70517C"/>
</linearGradient>
<linearGradient id="paint13_linear_1913_60793" x1="66.9524" y1="239.968" x2="66.9524" y2="195.927" gradientUnits="userSpaceOnUse">
<stop stop-color="#5B4365"/>
<stop offset="0.9777" stop-color="#70517C"/>
</linearGradient>
<clipPath id="clip0_1913_60793">
<rect width="135" height="345" fill="white"/>
</clipPath>
<clipPath id="clip1_1913_60793">
<rect width="64.0765" height="71.7016" fill="white" transform="matrix(-0.998993 -0.0448699 -0.0448699 0.998993 86.6016 185.926)"/>
</clipPath>
<clipPath id="clip2_1913_60793">
<rect width="66.7905" height="87.6837" fill="white" transform="matrix(-0.998993 -0.0448699 -0.0448699 0.998993 134.656 12.9971)"/>
</clipPath>
</defs>
</svg>
