<svg width="12" height="12" viewBox="0 0 12 12" fill="none" xmlns="http://www.w3.org/2000/svg">
<g clip-path="url(#clip0_1913_60775)">
<path d="M8.83309 3.59033L6.59668 10.6723L12.0013 3.59033H8.83309Z" fill="#3FCA89"/>
<path d="M1.74253 1.08447L0.0256348 3.14475H2.94435L1.74253 1.08447Z" fill="#3FCA89"/>
<path d="M10.2572 1.08447L9.05542 3.14475H11.9741L10.2572 1.08447Z" fill="#3FCA89"/>
<path d="M3.16823 3.59033H0L5.40464 10.6723L3.16823 3.59033Z" fill="#3FCA89"/>
<path d="M6.53687 0.92041L8.62205 3.0056L9.83832 0.92041H6.53687Z" fill="#3FCA89"/>
<path d="M2.1604 0.92041L3.37667 3.0056L5.46185 0.92041H2.1604Z" fill="#3FCA89"/>
<path d="M3.63501 3.59033L6.00042 11.0804L8.36582 3.59033H3.63501Z" fill="#3FCA89"/>
<path d="M6.00126 1.01221L3.86938 3.14408H8.13313L6.00126 1.01221Z" fill="#3FCA89"/>
</g>
<defs>
<clipPath id="clip0_1913_60775">
<rect width="12" height="12" fill="white"/>
</clipPath>
</defs>
</svg>
