<svg width="64" height="64" viewBox="0 0 64 64" fill="none" xmlns="http://www.w3.org/2000/svg">
<path d="M26.6509 9.28241C27.8172 9.2706 28.7435 7.36281 28.7198 5.02124C28.6961 2.67968 27.7314 0.791032 26.565 0.80284C25.3986 0.814647 24.4723 2.72243 24.496 5.064C24.5197 7.40557 25.4845 9.29421 26.6509 9.28241Z" fill="white" stroke="#080708" stroke-width="1.5" stroke-miterlimit="10"/>
<path d="M14.9217 14.3116C15.8365 13.5879 15.4002 11.5124 13.9473 9.676C12.4944 7.83956 10.575 6.93754 9.66021 7.66126C8.74546 8.38498 9.18174 10.4604 10.6347 12.2968C12.0876 14.1333 14.007 15.0353 14.9217 14.3116Z" fill="white" stroke="#080708" stroke-width="1.5" stroke-miterlimit="10"/>
<path d="M10.8427 26.4855C10.9243 25.3191 9.09221 24.2406 6.75052 24.0767C4.40884 23.9128 2.44433 24.7255 2.36268 25.8919C2.28103 27.0583 4.11316 28.1368 6.45484 28.3007C8.79653 28.4646 10.761 27.6519 10.8427 26.4855Z" fill="white" stroke="#080708" stroke-width="1.5" stroke-miterlimit="10"/>
<path d="M43.4046 10.0887C44.7215 8.1524 45.0071 6.05095 44.0426 5.39499C43.0781 4.73902 41.2287 5.77694 39.9118 7.71325C38.5949 9.64955 38.3092 11.751 39.2737 12.407C40.2382 13.0629 42.0877 12.025 43.4046 10.0887Z" fill="white" stroke="#080708" stroke-width="1.5" stroke-miterlimit="10"/>
<path d="M51.1587 21.2361C53.3928 20.5343 54.9204 19.0633 54.5708 17.9505C54.2212 16.8376 52.1268 16.5045 49.8927 17.2063C47.6587 17.9081 46.1311 19.3792 46.4806 20.492C46.8302 21.6048 48.9247 21.9379 51.1587 21.2361Z" fill="white" stroke="#080708" stroke-width="1.5" stroke-miterlimit="10"/>
<path d="M45.4236 30.0479C34.5916 30.0479 29.1836 35.6959 29.1836 44.1759C29.1836 49.6159 31.4396 53.8878 35.9036 56.2558C35.0716 59.0718 33.0236 60.7359 34.8316 62.5438C35.9996 63.7119 42.9756 63.8879 45.3436 58.2879H45.4236C56.2556 58.2879 61.6796 52.6239 61.6796 44.1599C61.6796 35.6959 56.2556 30.0479 45.4236 30.0479Z" fill="white" stroke="#080708" stroke-width="1.5" stroke-miterlimit="10"/>
<path d="M50.9609 33.4561C52.6497 33.8138 54.1964 34.6594 55.4089 35.8881" stroke="#B19BF5" stroke-width="1.5" stroke-linecap="round" stroke-linejoin="round"/>
<path d="M42.5582 32.096C44.6862 24.24 41.6142 17.792 32.6222 15.36C23.6302 12.928 17.7422 16.96 15.5982 24.784C14.2382 29.84 16.2542 34.992 18.4302 38.992C18.9943 40.0301 19.2602 41.2041 19.1982 42.384C18.8236 42.4566 18.4762 42.6308 18.194 42.8876C17.9118 43.1444 17.7057 43.4739 17.5982 43.84C17.491 44.2465 17.5136 44.6763 17.6627 45.0693C17.8119 45.4624 18.0802 45.7989 18.4302 46.032C17.6782 50.592 19.1662 52.704 22.2062 53.536C25.2462 54.368 27.5982 53.28 29.2622 48.96C29.679 48.9403 30.0787 48.7886 30.4037 48.5269C30.7287 48.2652 30.9621 47.907 31.0702 47.504C31.1684 47.1346 31.1605 46.7449 31.0473 46.3798C30.9341 46.0147 30.7202 45.689 30.4302 45.44C30.9963 44.391 31.8441 43.521 32.8782 42.928C36.7982 40.576 41.1822 37.152 42.5582 32.096Z" fill="#B19BF5" stroke="#080708" stroke-width="1.5" stroke-miterlimit="10"/>
<path d="M22.7969 43.4561C24.2035 43.6573 25.5795 44.0336 26.8929 44.5761" stroke="#080708" stroke-width="1.5" stroke-miterlimit="10" stroke-linecap="round"/>
<path d="M21.9336 46.624C23.3444 46.8219 24.7254 47.1927 26.0456 47.728" stroke="#080708" stroke-width="1.5" stroke-miterlimit="10" stroke-linecap="round"/>
<path d="M24.7172 29.7278C24.7172 29.7278 24.3812 30.4158 25.1172 33.0238C25.3793 33.9826 25.7553 34.9065 26.2372 35.7758C26.4048 36.0311 26.6602 36.2161 26.9551 36.2957C27.25 36.3753 27.5638 36.3441 27.8372 36.2078C28.7015 35.7103 29.4975 35.1026 30.2052 34.3998C31.0412 33.6518 31.7256 32.7502 32.2212 31.7438C32.3013 31.4915 32.2908 31.2191 32.1915 30.9737C32.0921 30.7283 31.9102 30.5253 31.6772 30.3998C30.7708 29.9009 29.8024 29.5243 28.7972 29.2798C27.8401 28.9958 26.8509 28.8345 25.8532 28.7998C25.5927 28.8005 25.3401 28.8895 25.1367 29.0522C24.9333 29.215 24.791 29.4418 24.7332 29.6958L24.7172 29.7278Z" fill="white" stroke="#080708" stroke-width="1.5" stroke-miterlimit="10"/>
<path d="M26.9439 36.272L26.3359 38.576" stroke="#080708" stroke-width="1.5" stroke-linecap="round" stroke-linejoin="round"/>
<path d="M36.8789 20.7041C37.9592 21.4459 38.7858 22.5014 39.2469 23.7281" stroke="white" stroke-width="1.5" stroke-linecap="round" stroke-linejoin="round"/>
</svg>
