<svg width="12" height="12" viewBox="0 0 12 12" fill="none" xmlns="http://www.w3.org/2000/svg">
<path fill-rule="evenodd" clip-rule="evenodd" d="M2.81996 4.16016H0.4375V11.8331H2.81996V4.16016ZM3.0133 1.72949C3.0133 0.966632 2.39333 0.345703 1.63165 0.345703C0.865543 0.345703 0.25 0.966632 0.25 1.72949C0.25 2.49234 0.865543 3.11327 1.63165 3.11327C2.39333 3.11327 3.0133 2.49234 3.0133 1.72949ZM6.59701 4.15893H4.32083V11.8318H6.69887V8.0353C6.69887 7.03738 6.88486 6.06607 8.1248 6.06607C9.34703 6.06607 9.36031 7.21036 9.36031 8.10183V11.8318H11.7383V7.62726C11.7383 5.56046 11.2911 3.97266 8.88205 3.97266C7.72182 3.97266 6.94686 4.60689 6.62801 5.21008H6.59701V4.15893Z" fill="white"/>
</svg>
