<svg width="16" height="21" viewBox="0 0 16 21" fill="none" xmlns="http://www.w3.org/2000/svg">
<path d="M9.28986 15.0931C8.08028 14.9996 7.57204 14.3998 6.62343 13.8239C6.10207 16.5594 5.46491 19.1816 3.57767 20.5515C2.99442 16.417 4.43273 13.3117 5.10069 10.0155C3.96214 8.09889 5.2376 4.24114 7.63906 5.19175C10.5947 6.36054 5.08016 12.3183 8.78219 13.0624C12.6471 13.8393 14.2249 6.35626 11.8279 3.92228C8.36492 0.408201 1.74776 3.84242 2.56147 8.87295C2.75969 10.1028 4.03059 10.4761 3.06914 12.1731C0.852775 11.6823 0.191657 9.93422 0.27665 7.60377C0.413836 3.78908 3.70431 1.11809 7.00476 0.748456C11.1788 0.281282 15.0965 2.28118 15.6372 6.20738C16.2456 10.6387 13.7528 15.4376 9.28986 15.0931Z" fill="white"/>
</svg>
