<svg width="16" height="15" viewBox="0 0 16 15" fill="none" xmlns="http://www.w3.org/2000/svg">
<path fill-rule="evenodd" clip-rule="evenodd" d="M15.5276 2.47175C14.9739 2.73624 14.3777 2.91508 13.7531 2.99602C14.3909 2.58376 14.8809 1.93242 15.1112 1.15589C14.5141 1.5371 13.8532 1.81382 13.1489 1.96254C12.5854 1.3159 11.7828 0.912109 10.8942 0.912109C9.18795 0.912109 7.80415 2.40116 7.80415 4.23846C7.80415 4.50013 7.8325 4.75332 7.88476 4.99711C5.31738 4.85874 3.04145 3.53347 1.51768 1.52109C1.25102 2.01242 1.09952 2.58376 1.09952 3.19368C1.09952 4.34765 1.64525 5.36607 2.47358 5.96188C1.96684 5.94494 1.49021 5.79528 1.07472 5.54585C1.07472 5.55997 1.07472 5.57409 1.07472 5.58821C1.07472 7.19962 2.1387 8.54371 3.55263 8.84962C3.29305 8.92586 3.02108 8.96633 2.73847 8.96633C2.54002 8.96633 2.34601 8.94562 2.15731 8.90609C2.55066 10.2276 3.69172 11.1895 5.04363 11.2168C3.98584 12.1082 2.65342 12.64 1.20583 12.64C0.95689 12.64 0.710605 12.6249 0.46875 12.5939C1.83572 13.538 3.45961 14.0886 5.20486 14.0886C10.8871 14.0886 13.9949 9.01998 13.9949 4.62437C13.9949 4.47942 13.9914 4.3373 13.9861 4.19423C14.5894 3.72549 15.1139 3.13909 15.5276 2.47269V2.47175Z" fill="white"/>
</svg>
