<svg width="28" height="42" viewBox="0 0 28 42" fill="none" xmlns="http://www.w3.org/2000/svg">
<path d="M14.0026 38.5938L10.7098 36.7606L7.41699 38.5938V23.9629H14.0026V38.5938Z" fill="#FECC41"/>
<path d="M14.0029 38.5938L17.2957 36.7606L20.5857 38.5938V23.9629H14.0029V38.5938Z" fill="#FECC41"/>
<path d="M17.2956 41.2041L14.0028 39.3709L10.71 41.2041V26.5703H17.2956V41.2041Z" fill="#FFEB57"/>
<path d="M16.353 39.6755L14.0027 38.3652L11.6494 39.6755V27.0904L16.353 26.5703V39.6755Z" fill="#FECC41"/>
<path d="M3.24807 15.1366C3.24807 9.19751 8.06374 4.38472 14 4.38184V0.798828C12.9771 0.798828 12.1956 2.82164 11.2387 3.04001C10.2532 3.26413 8.67 1.79012 7.77928 2.22112C6.87419 2.66073 7.04659 4.81859 6.26792 5.4421C5.48638 6.0656 3.41759 5.42198 2.79409 6.20352C2.17345 6.98219 3.25956 8.85271 2.81995 9.75781C2.38895 10.6485 0.245461 10.9617 0.01847 11.9501C-0.199902 12.907 1.59017 14.1166 1.59017 15.1395C1.59017 16.1624 -0.199902 17.3721 0.01847 18.3289C0.242588 19.3173 2.38895 19.6276 2.81995 20.5183C3.25956 21.4234 2.17345 23.2968 2.79409 24.0755C3.42047 24.857 5.48638 24.2105 6.26792 24.8369C7.04659 25.4576 6.87131 27.6183 7.77928 28.055C8.67 28.486 10.2532 27.012 11.2387 27.2361C12.1956 27.4545 12.9771 29.4745 14 29.4745V25.8914C8.06374 25.8914 3.24807 21.0758 3.24807 15.1366Z" fill="#FFF080"/>
<path d="M27.9815 11.9472C27.7574 10.9588 25.611 10.6485 25.18 9.75775C24.7433 8.85266 25.8294 6.97926 25.2059 6.20059C24.5824 5.41905 22.5136 6.06555 21.7321 5.43917C20.9534 4.81853 21.1287 2.6578 20.2207 2.21819C19.33 1.78719 17.7468 3.2612 16.7613 3.03708C15.8044 2.81871 15.0229 0.795898 14 0.795898V4.38179C19.9391 4.38179 24.7519 9.19745 24.7519 15.1366C24.7519 21.0757 19.9391 25.8885 14 25.8885V29.4715C15.0229 29.4715 15.8044 27.4487 16.7613 27.2332C17.7497 27.0062 19.33 28.4831 20.2207 28.0521C21.1258 27.6154 20.9534 25.4546 21.7321 24.834C22.5136 24.2105 24.5795 24.857 25.2059 24.0726C25.8265 23.2939 24.7433 21.4234 25.18 20.5154C25.611 19.6247 27.7545 19.3144 27.9815 18.326C28.1999 17.3691 26.4098 16.1566 26.4098 15.1366C26.4098 14.1137 28.1999 12.904 27.9815 11.9472Z" fill="#FFEB57"/>
<path d="M3.97779 15.1312C3.97779 9.59143 8.4659 5.10332 14.0056 5.10332V1.75879C13.0517 1.75879 12.3219 3.64368 11.4312 3.84768C10.5088 4.05744 9.03481 2.68112 8.20442 3.08338C7.35967 3.49139 7.52058 5.50558 6.7965 6.08599C6.06668 6.66927 4.13869 6.06588 3.55541 6.7957C2.975 7.51977 3.9864 9.26675 3.58127 10.1115C3.179 10.9419 1.17918 11.235 0.969431 12.1544C0.765426 13.048 2.43482 14.1772 2.43482 15.1312C2.43482 16.0851 0.765426 17.2143 0.969431 18.105C1.17918 19.0274 3.179 19.3176 3.58127 20.148C3.98928 20.9927 2.97787 22.7368 3.55541 23.4638C4.13869 24.1936 6.06668 23.5902 6.7965 24.1735C7.52345 24.7539 7.35967 26.7681 8.20442 27.1761C9.03481 27.5783 10.5117 26.202 11.4312 26.4118C12.3219 26.6158 13.0517 28.5007 14.0056 28.5007V25.1561C8.4659 25.159 3.97779 20.6709 3.97779 15.1312Z" fill="#219ABC"/>
<path d="M27.0449 12.1544C26.8352 11.235 24.8354 10.9419 24.4331 10.1115C24.0251 9.26675 25.0365 7.52265 24.4561 6.7957C23.8728 6.06588 21.9477 6.66927 21.215 6.08599C20.488 5.50558 20.6518 3.49139 19.8071 3.08338C18.9738 2.68112 17.4998 4.05744 16.5803 3.84768C15.6867 3.64368 14.9598 1.75879 14.0059 1.75879V5.10332C19.5456 5.10332 24.0337 9.5943 24.0337 15.1312C24.0337 20.6709 19.5427 25.159 14.0059 25.159V28.5036C14.9598 28.5036 15.6896 26.6187 16.5803 26.4147C17.4998 26.2049 18.9738 27.5812 19.8071 27.179C20.6518 26.7709 20.4909 24.7568 21.215 24.1763C21.9448 23.5931 23.8728 24.1965 24.4561 23.4666C25.0365 22.7397 24.0222 20.9956 24.4331 20.1508C24.8354 19.3205 26.8352 19.0274 27.0449 18.1079C27.2489 17.2143 25.5795 16.088 25.5795 15.134C25.5767 14.1772 27.2489 13.048 27.0449 12.1544Z" fill="#198EC3"/>
<path d="M3.97779 15.1312C3.97779 9.59143 8.4659 5.10332 14.0056 5.10332V1.75879C13.0517 1.75879 12.3219 3.64368 11.4312 3.84768C10.5088 4.05744 9.03481 2.68112 8.20442 3.08338C7.35967 3.49139 7.52058 5.50558 6.7965 6.08599C6.06668 6.66927 4.13869 6.06588 3.55541 6.7957C2.975 7.51977 3.9864 9.26675 3.58127 10.1115C3.179 10.9419 1.17918 11.235 0.969431 12.1544C0.765426 13.048 2.43482 14.1772 2.43482 15.1312C2.43482 16.0851 0.765426 17.2143 0.969431 18.105C1.17918 19.0274 3.179 19.3176 3.58127 20.148C3.98928 20.9927 2.97787 22.7368 3.55541 23.4638C4.13869 24.1936 6.06668 23.5902 6.7965 24.1735C7.52345 24.7539 7.35967 26.7681 8.20442 27.1761C9.03481 27.5783 10.5117 26.202 11.4312 26.4118C12.3219 26.6158 13.0517 28.5007 14.0056 28.5007V25.1561C8.4659 25.159 3.97779 20.6709 3.97779 15.1312Z" fill="#FECC41"/>
<path d="M27.0449 12.1544C26.8352 11.235 24.8354 10.9419 24.4331 10.1115C24.0251 9.26675 25.0365 7.52265 24.4561 6.7957C23.8728 6.06588 21.9477 6.66927 21.215 6.08599C20.488 5.50558 20.6518 3.49139 19.8071 3.08338C18.9738 2.68112 17.4998 4.05744 16.5803 3.84768C15.6867 3.64368 14.9598 1.75879 14.0059 1.75879V5.10332C19.5456 5.10332 24.0337 9.5943 24.0337 15.1312C24.0337 20.6709 19.5427 25.159 14.0059 25.159V28.5036C14.9598 28.5036 15.6896 26.6187 16.5803 26.4147C17.4998 26.2049 18.9738 27.5812 19.8071 27.179C20.6518 26.7709 20.4909 24.7568 21.215 24.1763C21.9448 23.5931 23.8728 24.1965 24.4561 23.4666C25.0365 22.7397 24.0222 20.9956 24.4331 20.1508C24.8354 19.3205 26.8352 19.0274 27.0449 18.1079C27.2489 17.2143 25.5795 16.088 25.5795 15.134C25.5767 14.1772 27.2489 13.048 27.0449 12.1544Z" fill="#FECC41"/>
<path d="M14.0049 25.1582C19.5446 25.1582 24.0327 20.6673 24.0327 15.1304C24.0327 9.59065 19.5417 5.10254 14.0049 5.10254V25.1582Z" fill="#FF835B"/>
<path d="M3.97754 15.1304C3.97754 20.6701 8.46565 25.1582 14.0054 25.1582V5.10254C8.46565 5.10254 3.97754 9.59065 3.97754 15.1304Z" fill="#FF835B"/>
<path d="M14.0059 24.259C19.0456 24.259 23.1315 20.1732 23.1315 15.1334C23.1315 10.0936 19.0456 6.00488 14.0059 6.00488V24.259Z" fill="white"/>
<path d="M4.87988 15.1334C4.87988 20.1732 8.96573 24.259 14.0055 24.259V6.00488C8.96573 6.00488 4.87988 10.0907 4.87988 15.1334Z" fill="white"/>
<path d="M15.0688 18.4897L15.0737 9.94141H14.1024L13.7258 10.0455C13.5425 10.5212 13.2426 10.9276 12.8239 11.2596C12.4076 11.5941 11.9666 11.7923 11.5057 11.8518V13.3731H13.1435V18.4897H11.3818V20.3159H13.1435H14.1H15.0663H16.8181V18.4897H15.0688Z" fill="#FF835B"/>
<path d="M14.8778 18.4911V10.0469H13.9115H13.5349C13.3515 10.5226 13.0517 10.929 12.6354 11.261C12.2192 11.5955 11.7781 11.7937 11.3172 11.8532V13.3745H12.9551V18.4911H11.1934V20.3173H12.9551H13.9115H14.8778H16.6296V18.4911H14.8778Z" fill="#FF9C7C"/>
<path d="M13.0517 18.4897V13.373H12.9551V18.3881H11.1958L11.1934 20.3183H11.2925L11.29 18.4897H13.0517Z" fill="#FFE6DE"/>
<path d="M12.7322 11.2596C13.1509 10.9251 13.4507 10.5212 13.6341 10.0455H14.0107H14.8804L15.0762 9.94141H13.9141H13.5375C13.3541 10.4171 13.0543 10.821 12.6356 11.1555C12.2193 11.49 11.7782 11.6882 11.3174 11.7477V13.2691H11.414V11.8518C11.8749 11.7923 12.3134 11.5941 12.7322 11.2596Z" fill="#FFE6DE"/>
</svg>
