<svg width="440" height="877" viewBox="0 0 440 877" fill="none" xmlns="http://www.w3.org/2000/svg">
<path fill-rule="evenodd" clip-rule="evenodd" d="M95.4889 97.3213L97.5488 102.86C93.157 109.331 70.1873 121.748 61.462 119.922L58.547 114.791C58.547 114.791 74.1322 114.228 95.4889 97.3213Z" fill="url(#paint0_radial_2102_54110)"/>
<path fill-rule="evenodd" clip-rule="evenodd" d="M95.4854 97.3213C95.4854 97.3213 71.6995 99.3617 58.5434 114.791C67.0745 116.735 90.4911 105.172 95.4854 97.3213Z" fill="url(#paint1_radial_2102_54110)"/>
<path opacity="0.2" fill-rule="evenodd" clip-rule="evenodd" d="M90.7681 99.5557C90.7681 99.5557 74.1529 100.586 61.094 113.586C61.094 113.586 78.9917 111.468 90.7681 99.5557Z" fill="#DD4C90"/>
<path fill-rule="evenodd" clip-rule="evenodd" d="M89.913 100.391C89.913 100.391 71.7044 103.248 61.9296 113.47L61.094 113.586C65.0778 108.145 79.4776 100.644 90.7681 99.5557L89.913 100.391Z" fill="url(#paint2_radial_2102_54110)"/>
<path opacity="0.4" fill-rule="evenodd" clip-rule="evenodd" d="M94.2975 98.8975L96.5518 104.105L93.7729 106.651L91.266 101.754C91.2854 101.754 93.3453 100.083 94.2975 98.8975Z" fill="#864C90"/>
<path fill-rule="evenodd" clip-rule="evenodd" d="M28.3063 157.483L33.9224 159.33C36.2349 166.792 31.6099 192.501 24.7501 198.176L18.9202 197.263C18.9202 197.263 28.2091 184.728 28.3063 157.483Z" fill="url(#paint3_radial_2102_54110)"/>
<path fill-rule="evenodd" clip-rule="evenodd" d="M28.3101 157.483C28.3101 157.483 15.0569 177.344 18.9241 197.263C25.745 191.802 31.3222 166.286 28.3101 157.483Z" fill="url(#paint4_radial_2102_54110)"/>
<path opacity="0.2" fill-rule="evenodd" clip-rule="evenodd" d="M27.1061 162.574C27.1061 162.574 17.5645 176.197 19.5661 194.522C19.5661 194.522 29.0688 179.228 27.1061 162.574Z" fill="#DD4C90"/>
<path fill-rule="evenodd" clip-rule="evenodd" d="M27.2134 163.758C27.2134 163.758 18.08 179.77 19.965 193.781L19.5374 194.5C17.769 188.01 20.8977 172.055 27.0774 162.553L27.2134 163.758Z" fill="url(#paint5_radial_2102_54110)"/>
<path opacity="0.4" fill-rule="evenodd" clip-rule="evenodd" d="M28.7917 159.408L34.2718 160.885L34.5244 164.636L29.1415 163.547C29.1415 163.547 29.1221 160.885 28.7917 159.408Z" fill="#864C90"/>
<path fill-rule="evenodd" clip-rule="evenodd" d="M166.019 168.205L163.085 173.336C155.312 174.113 131.04 164.474 126.843 156.623L128.902 151.085C128.902 151.085 139.338 162.686 166.019 168.205Z" fill="url(#paint6_radial_2102_54110)"/>
<path fill-rule="evenodd" clip-rule="evenodd" d="M166.019 168.203C166.019 168.203 149.19 151.276 128.902 151.102C132.906 158.875 156.789 169.388 166.019 168.203Z" fill="url(#paint7_radial_2102_54110)"/>
<path opacity="0.2" fill-rule="evenodd" clip-rule="evenodd" d="M161.266 166.005C161.266 166.005 149.82 153.937 131.456 152.266C131.475 152.246 144.573 164.606 161.266 166.005Z" fill="#DD4C90"/>
<path fill-rule="evenodd" clip-rule="evenodd" d="M160.07 165.874C160.07 165.874 146.195 153.728 132.086 152.815L131.465 152.251C138.188 151.804 153.191 158.042 161.275 165.99L160.07 165.874Z" fill="url(#paint8_radial_2102_54110)"/>
<path opacity="0.4" fill-rule="evenodd" clip-rule="evenodd" d="M164.037 168.277L161.491 173.349L157.76 172.863L159.898 167.811C159.917 167.811 162.521 168.316 164.037 168.277Z" fill="#864C90"/>
<path fill-rule="evenodd" clip-rule="evenodd" d="M64.8379 266.697L66.4099 275.736C57.8546 284.382 19.1892 296.868 6.37131 291.608L3.34822 282.931C3.37845 282.931 27.3818 286.499 64.8379 266.697Z" fill="url(#paint9_radial_2102_54110)"/>
<path fill-rule="evenodd" clip-rule="evenodd" d="M64.8464 266.703C64.8464 266.703 27.874 263.075 3.38697 282.937C15.9026 288.318 54.9911 277.284 64.8464 266.703Z" fill="#FFA945"/>
<path opacity="0.2" fill-rule="evenodd" clip-rule="evenodd" d="M56.9753 268.754C56.9753 268.754 31.2791 265.641 7.60826 281.814C7.60826 281.814 35.5718 283.658 56.9753 268.754Z" fill="#DD4C90"/>
<path fill-rule="evenodd" clip-rule="evenodd" d="M55.4336 269.787C55.4336 269.787 26.7747 268.971 8.90816 281.849L7.60826 281.789C15.2265 274.594 39.4112 267.187 56.9753 268.729L55.4336 269.787Z" fill="url(#paint10_radial_2102_54110)"/>
<path opacity="0.4" fill-rule="evenodd" clip-rule="evenodd" d="M62.5653 268.759L64.5303 277.344L59.5724 280.458L57.1237 272.266C57.154 272.266 60.7817 270.301 62.5653 268.759Z" fill="#864C90"/>
<path fill-rule="evenodd" clip-rule="evenodd" d="M56.7737 565.159L56.1993 573.382C46.9486 579.096 10.732 581.696 0.755749 574.38L-2.28882e-05 566.157C-0.0302544 566.187 20.0431 574.41 56.7737 565.159Z" fill="url(#paint11_radial_2102_54110)"/>
<path fill-rule="evenodd" clip-rule="evenodd" d="M56.7737 565.163C56.7737 565.163 25.4847 554.099 -2.28882e-05 566.161C9.67388 573.537 45.951 572.298 56.7737 565.163Z" fill="url(#paint12_radial_2102_54110)"/>
<path opacity="0.2" fill-rule="evenodd" clip-rule="evenodd" d="M49.4836 565.286C49.4836 565.286 27.8685 557.063 3.86516 566.102C3.86516 566.102 27.7476 573.69 49.4836 565.286Z" fill="#DD4C90"/>
<path fill-rule="evenodd" clip-rule="evenodd" d="M47.96 565.856C47.96 565.856 23.2614 559.024 5.03212 566.431L3.9135 566.098C12.0456 561.473 34.5979 560.173 49.532 565.282L47.96 565.856Z" fill="url(#paint13_radial_2102_54110)"/>
<path opacity="0.4" fill-rule="evenodd" clip-rule="evenodd" d="M54.3518 566.49L54.2309 574.411L49.273 576.043L48.9103 568.395C48.88 568.395 52.4775 567.458 54.3518 566.49Z" fill="#864C90"/>
<path fill-rule="evenodd" clip-rule="evenodd" d="M172.48 459.093L171.906 467.316C162.655 473.029 126.439 475.629 116.463 468.313L115.707 460.09C115.707 460.121 135.78 468.374 172.48 459.093Z" fill="url(#paint14_radial_2102_54110)"/>
<path fill-rule="evenodd" clip-rule="evenodd" d="M172.48 459.097C172.48 459.097 141.191 448.032 115.707 460.094C125.411 467.471 161.688 466.231 172.48 459.097Z" fill="url(#paint15_radial_2102_54110)"/>
<path opacity="0.2" fill-rule="evenodd" clip-rule="evenodd" d="M165.239 459.211C165.239 459.211 143.624 450.989 119.62 460.028C119.62 460.028 143.503 467.616 165.239 459.211Z" fill="#DD4C90"/>
<path fill-rule="evenodd" clip-rule="evenodd" d="M163.667 459.79C163.667 459.79 138.968 452.958 120.739 460.364L119.62 460.032C127.752 455.406 150.305 454.107 165.239 459.216L163.667 459.79Z" fill="url(#paint16_radial_2102_54110)"/>
<path opacity="0.4" fill-rule="evenodd" clip-rule="evenodd" d="M170.059 460.424L169.938 468.344L164.98 469.977L164.617 462.328C164.617 462.328 168.215 461.391 170.059 460.424Z" fill="#864C90"/>
<path fill-rule="evenodd" clip-rule="evenodd" d="M156.416 348.211L155.841 356.434C146.591 362.147 110.374 364.747 100.398 357.431L99.6421 349.209C99.6421 349.209 119.715 357.462 156.416 348.211Z" fill="url(#paint17_radial_2102_54110)"/>
<path fill-rule="evenodd" clip-rule="evenodd" d="M156.416 348.214C156.416 348.214 125.127 337.149 99.6421 349.212C109.346 356.588 145.623 355.318 156.416 348.214Z" fill="url(#paint18_radial_2102_54110)"/>
<path opacity="0.2" fill-rule="evenodd" clip-rule="evenodd" d="M149.174 348.329C149.174 348.329 127.559 340.106 103.556 349.145C103.556 349.115 127.438 356.733 149.174 348.329Z" fill="#DD4C90"/>
<path fill-rule="evenodd" clip-rule="evenodd" d="M147.602 348.907C147.602 348.907 122.903 342.075 104.674 349.482L103.556 349.149C111.688 344.524 134.24 343.224 149.174 348.333L147.602 348.907Z" fill="url(#paint19_radial_2102_54110)"/>
<path opacity="0.4" fill-rule="evenodd" clip-rule="evenodd" d="M153.994 349.511L153.873 357.431L148.915 359.064L148.552 351.415C148.552 351.415 152.15 350.478 153.994 349.511Z" fill="#864C90"/>
<path fill-rule="evenodd" clip-rule="evenodd" d="M145.159 320.302L140.503 327.104C129.62 327.316 97.1217 311.173 92.2545 299.776L95.7613 292.309C95.7613 292.309 108.851 309.631 145.159 320.302Z" fill="url(#paint20_radial_2102_54110)"/>
<path fill-rule="evenodd" clip-rule="evenodd" d="M145.159 320.302C145.159 320.302 123.846 294.848 95.7613 292.309C100.356 303.585 132.22 320.937 145.159 320.302Z" fill="#FFA945"/>
<path opacity="0.2" fill-rule="evenodd" clip-rule="evenodd" d="M138.836 316.739C138.836 316.739 124.385 298.661 99.1425 294.247C99.1425 294.247 115.83 312.9 138.836 316.739Z" fill="#DD4C90"/>
<path fill-rule="evenodd" clip-rule="evenodd" d="M137.221 316.437C137.221 316.437 119.415 297.996 99.9767 295.094L99.1908 294.247C108.562 294.398 128.636 304.767 138.884 316.739L137.221 316.437Z" fill="url(#paint21_radial_2102_54110)"/>
<path opacity="0.4" fill-rule="evenodd" clip-rule="evenodd" d="M142.402 320.209L138.291 326.981L133.182 325.863L136.749 319.091C136.749 319.091 140.316 320.088 142.402 320.209Z" fill="#864C90"/>
<path fill-rule="evenodd" clip-rule="evenodd" d="M90.5239 398.793L88.9821 406.895C79.1268 411.459 42.8497 409.797 33.8106 401.332L34.0223 393.079C34.0223 393.079 52.9469 403.63 90.5239 398.793Z" fill="url(#paint22_radial_2102_54110)"/>
<path fill-rule="evenodd" clip-rule="evenodd" d="M90.5239 398.789C90.5239 398.789 60.7464 384.097 34.0223 393.105C42.759 401.54 78.9455 404.563 90.5239 398.789Z" fill="url(#paint23_radial_2102_54110)"/>
<path opacity="0.2" fill-rule="evenodd" clip-rule="evenodd" d="M83.2822 398.036C83.2822 398.036 62.7856 387.305 37.9056 393.472C37.9056 393.472 60.7299 403.811 83.2822 398.036Z" fill="#DD4C90"/>
<path fill-rule="evenodd" clip-rule="evenodd" d="M81.68 398.426C81.68 398.426 57.9487 388.722 38.9939 393.921L37.9056 393.468C46.5516 389.81 69.0737 391.231 83.2822 398.033L81.68 398.426Z" fill="url(#paint24_radial_2102_54110)"/>
<path opacity="0.4" fill-rule="evenodd" clip-rule="evenodd" d="M87.9453 399.788L86.8873 407.648L81.748 408.706L82.2921 401.058C82.3224 401.058 85.9803 400.544 87.9453 399.788Z" fill="#864C90"/>
<path fill-rule="evenodd" clip-rule="evenodd" d="M66.4099 347.879L64.4751 356.858C53.3199 361.665 12.7802 358.732 2.89467 349.058L3.34811 339.898C3.31788 339.868 24.2377 352.172 66.4099 347.879Z" fill="url(#paint25_radial_2102_54110)"/>
<path fill-rule="evenodd" clip-rule="evenodd" d="M66.4099 347.879C66.4099 347.879 33.5186 330.648 3.34813 339.868C12.9011 349.542 53.2897 353.986 66.4099 347.879Z" fill="url(#paint26_radial_2102_54110)"/>
<path opacity="0.2" fill-rule="evenodd" clip-rule="evenodd" d="M58.3308 346.849C58.3308 346.849 35.6879 334.303 7.66382 340.409C7.66382 340.409 32.9066 352.623 58.3308 346.849Z" fill="#DD4C90"/>
<path fill-rule="evenodd" clip-rule="evenodd" d="M56.4868 347.212C56.4868 347.212 30.2161 335.725 8.84278 340.955L7.66382 340.41C17.4284 336.601 42.6107 338.808 58.3308 346.85L56.4868 347.212Z" fill="url(#paint27_radial_2102_54110)"/>
<path opacity="0.4" fill-rule="evenodd" clip-rule="evenodd" d="M63.5059 348.94L62.1153 357.647L56.3411 358.675L57.1574 350.18C57.1574 350.18 61.2688 349.696 63.5059 348.94Z" fill="#864C90"/>
<path fill-rule="evenodd" clip-rule="evenodd" d="M350.786 708.278C350.786 708.278 349.02 751.023 350.786 775.752C352.552 800.48 372.688 842.519 376.928 848.525C381.167 854.53 405.542 869.367 406.249 871.487C406.602 873.607 353.259 869.721 353.259 869.721C353.259 869.721 346.193 851.704 333.476 839.34C321.111 827.329 311.927 819.557 311.927 819.557C311.927 819.557 316.519 808.605 327.824 793.768C327.824 793.768 333.123 784.23 331.356 763.387C329.59 742.544 324.291 727.354 319.698 698.739C319.345 698.739 341.248 702.625 350.786 708.278Z" fill="url(#paint28_linear_2102_54110)"/>
<path fill-rule="evenodd" clip-rule="evenodd" d="M238.804 730.872C238.804 730.872 230.326 758.074 230.326 777.15C230.326 796.226 237.038 834.379 244.81 846.037C251.169 855.222 266.006 860.874 270.951 872.179C270.951 872.179 251.169 877.125 213.016 869.706C213.016 869.706 208.423 851.689 204.184 837.559C199.945 823.428 197.119 810.71 197.119 810.71C197.119 810.71 196.412 803.998 211.249 779.623C211.249 779.623 216.195 761.253 212.309 728.046L238.804 730.872Z" fill="url(#paint29_linear_2102_54110)"/>
<path fill-rule="evenodd" clip-rule="evenodd" d="M373.754 842.865C373.754 842.865 362.802 843.218 350.791 832.973C338.78 822.729 327.476 793.761 327.476 793.761C327.476 793.761 315.818 806.478 311.579 819.549L320.057 870.773H331.008L333.128 840.745C333.128 840.745 347.612 858.055 352.204 870.773C352.204 870.773 387.531 877.838 408.727 872.186C408.727 872.186 400.602 861.235 389.651 855.936C376.58 849.93 373.754 842.865 373.754 842.865Z" fill="url(#paint30_linear_2102_54110)"/>
<path fill-rule="evenodd" clip-rule="evenodd" d="M245.528 847.1C245.528 847.1 231.397 854.165 219.739 841.448C208.081 828.73 203.842 791.99 203.842 791.99C203.842 791.99 195.717 806.121 194.657 810.007C193.597 813.893 201.016 833.676 204.549 847.1C208.081 860.524 209.141 870.416 209.141 870.416C209.141 870.416 259.305 882.073 273.789 872.182C273.789 872.182 263.898 858.051 245.528 847.1Z" fill="url(#paint31_linear_2102_54110)"/>
<path fill-rule="evenodd" clip-rule="evenodd" d="M213.039 741.831C217.631 743.951 231.408 744.657 240.593 744.657C245.186 744.657 248.365 744.657 248.365 744.657C248.365 744.657 256.137 645.036 274.154 575.796C292.17 506.555 303.122 432.016 303.122 432.016L314.78 430.603C314.78 430.603 326.437 562.371 326.791 576.502C327.144 590.633 315.486 617.834 313.013 647.509C310.187 676.83 322.905 754.196 322.905 754.196L349.753 757.022C349.753 757.022 359.291 625.606 365.65 579.682C372.009 533.757 386.493 441.554 383.314 418.592C382.607 413.646 380.487 405.521 377.661 395.629C376.601 391.743 375.188 387.857 374.128 383.618C363.53 350.764 348.693 309.785 348.693 309.785C329.97 306.606 278.746 307.666 278.746 307.666C278.746 307.666 270.268 320.03 260.023 337.693C257.55 341.933 255.077 346.525 252.605 351.471L251.898 352.884C240.593 374.08 229.995 398.809 227.876 418.592C223.283 461.337 231.408 522.806 230.702 554.246C229.995 585.334 221.164 614.302 214.098 637.264C207.033 659.873 213.039 741.831 213.039 741.831Z" fill="#321833"/>
<path d="M316.557 150.61C317.959 154.785 325.126 162.207 331.981 168.701C339.147 175.505 345.847 181.226 345.847 181.226C345.847 181.226 358.778 195.452 362.206 194.215C365.633 192.978 362.517 171.639 362.517 171.639C362.517 171.639 360.492 166.846 360.492 163.908C360.492 160.97 372.021 115.509 372.021 115.509C372.021 115.509 365.01 64.791 362.673 64.791C360.492 64.791 357.064 66.1827 357.064 66.1827L320.452 93.3972C320.452 93.3972 317.647 112.88 316.401 129.271C315.778 138.858 315.466 147.517 316.557 150.61Z" fill="url(#paint32_linear_2102_54110)"/>
<path d="M360.661 163.906C360.661 163.906 351.469 161.432 349.911 152.154C348.353 142.877 363.621 121.074 363.621 121.074V118.136C363.621 118.136 358.636 104.22 359.882 94.942L362.219 88.7568L374.994 123.239C375.15 123.084 362.998 150.144 360.661 163.906Z" fill="url(#paint33_linear_2102_54110)"/>
<path d="M357.058 64.958H305.645V151.55H357.058V64.958Z" fill="#3E1B40"/>
<path opacity="0.5" fill-rule="evenodd" clip-rule="evenodd" d="M353.954 111.408L321.389 71.1367L305.657 135.944L346.56 143.812L353.954 111.408Z" fill="#523E7A"/>
<path d="M85.0505 212.303C87.2317 237.507 102.811 254.98 102.811 254.98C111.38 261.011 122.286 266.113 131.167 269.67C140.047 273.226 146.591 275.236 146.591 275.236L155.627 285.287L163.572 294.101L161.703 284.359L155.783 253.434C155.471 248.176 155.004 243.074 154.536 238.59C153.134 224.673 151.264 215.241 151.264 215.241C145.5 212.612 130.699 215.086 130.699 215.086C107.797 220.343 85.0505 212.303 85.0505 212.303Z" fill="url(#paint34_linear_2102_54110)"/>
<path d="M309.248 165.454L217.95 181.226L207.044 79.7897L245.838 21.3403L273.414 8.35156L310.494 14.5367C310.494 14.5367 329.034 48.2456 326.074 88.6035C323.114 128.961 315.479 159.269 309.248 165.454Z" fill="url(#paint35_linear_2102_54110)"/>
<path d="M238.665 117.208C238.665 117.208 244.274 144.423 241.937 162.669C241.937 162.669 274.81 192.667 288.52 192.667C302.23 192.667 295.22 166.689 295.22 166.689C295.22 166.689 281.042 162.05 275.122 156.02C269.201 150.144 267.799 133.444 267.799 133.444L238.665 117.208Z" fill="url(#paint36_linear_2102_54110)"/>
<path d="M235.854 110.562C236.322 111.953 236.633 113.19 236.945 114.273C240.217 124.324 266.391 136.694 281.503 141.487C282.126 141.642 282.749 141.796 283.217 141.951C284.463 142.26 286.177 142.724 288.202 142.879C291.786 143.343 295.681 143.652 296.927 143.188C298.797 142.57 302.692 135.147 307.365 130.663C311.884 126.179 322.322 113.809 322.322 106.387C322.322 102.676 320.764 98.6552 319.362 94.7895C317.804 91.0785 316.402 87.522 316.246 84.7387C315.778 72.2138 320.92 55.9779 320.92 52.2668C320.92 51.339 320.141 48.2465 318.427 44.2261C318.115 43.6076 317.96 42.9891 317.648 42.3706C312.507 31.0828 301.601 13.919 283.996 8.81631C283.996 8.81631 271.532 6.18764 257.822 10.0533L237.101 38.3503C237.101 38.3503 232.427 73.7601 235.543 86.5942C238.659 99.4284 235.854 110.562 235.854 110.562Z" fill="url(#paint37_linear_2102_54110)"/>
<path d="M191.456 117.206L191.611 119.68L192.079 128.03V129.577C193.325 154.626 194.883 180.759 195.818 194.057C195.818 195.448 195.974 196.685 195.974 197.768L196.285 202.87L224.796 174.11V76.3846C224.796 76.3846 253.931 43.7581 258.916 36.0267C262.344 30.7693 268.42 20.7185 272.159 14.8426C273.094 13.451 273.561 12.6778 273.561 12.6778C274.496 11.1315 275.119 10.2038 275.119 10.2038C275.119 10.2038 293.191 12.2139 296.619 14.8426C296.619 14.8426 316.717 30.1508 321.079 52.2626C325.442 74.3744 326.844 124.474 309.239 165.45H315.003C315.003 165.45 332.141 105.609 327 63.8597C321.702 22.1101 308.46 4.79178 305.344 1.69922C302.228 -1.39334 277.3 4.94641 265.304 6.49269C253.307 8.03897 231.34 9.73988 221.057 14.8426C210.93 19.9453 192.858 58.4477 190.677 69.8902C189.742 74.3744 190.365 94.1668 191.456 117.206Z" fill="url(#paint38_linear_2102_54110)"/>
<path d="M245.989 52.418C245.989 52.418 238.666 71.7465 238.666 87.0547L237.108 88.7556C237.108 88.7556 230.565 81.9519 224.956 76.3853L245.989 52.418Z" fill="url(#paint39_linear_2102_54110)"/>
<path fill-rule="evenodd" clip-rule="evenodd" d="M315.326 163.909L317.196 183.238L317.663 187.877L318.598 196.845L352.562 236.275C352.562 236.275 355.522 238.285 359.728 241.223C370.634 248.645 390.421 261.789 396.964 264.727C406 268.747 421.736 271.685 421.736 271.685L361.754 195.917C356.301 193.443 348.978 188.804 341.967 184.011C328.413 174.579 315.326 163.909 315.326 163.909Z" fill="url(#paint40_linear_2102_54110)"/>
<path fill-rule="evenodd" clip-rule="evenodd" d="M346.016 181.223C346.327 181.533 349.132 185.398 353.182 190.81C362.53 203.49 378.422 225.447 382.784 235.034C382.784 235.034 395.403 257.3 411.762 267.815C411.762 267.815 427.342 274.773 434.82 274.773C437.625 274.773 444.947 246.94 433.106 224.828C431.86 222.354 430.302 219.88 428.433 217.561C428.433 217.561 374.215 186.171 362.686 171.791C362.686 171.791 362.842 184.625 359.882 187.718C356.921 190.501 346.639 181.687 346.016 181.223Z" fill="url(#paint41_linear_2102_54110)"/>
<path fill-rule="evenodd" clip-rule="evenodd" d="M38.6256 184H31.6147C31.6147 184 63.2416 233.636 75.238 274.767H137.09C137.09 274.767 115.745 222.502 85.0533 186.474L38.6256 184Z" fill="#4D1A4F"/>
<path fill-rule="evenodd" clip-rule="evenodd" d="M98.9233 179.523C98.9233 179.523 137.25 221.118 151.427 250.806L79.2928 253.126C79.2928 253.126 52.8072 196.841 38.4739 177.977L98.9233 179.523Z" fill="url(#paint42_linear_2102_54110)"/>
<path fill-rule="evenodd" clip-rule="evenodd" d="M143.165 248.796L149.241 253.126L134.596 270.908L79.4435 267.815L38.6245 187.718V177.977L83.1826 253.126L143.165 248.796Z" fill="url(#paint43_linear_2102_54110)"/>
<path fill-rule="evenodd" clip-rule="evenodd" d="M38.6245 177.977V187.718L79.4435 267.815L134.596 270.908L149.241 253.126L82.2478 255.909C82.2478 255.909 59.5014 204.418 38.6245 177.977Z" fill="url(#paint44_linear_2102_54110)"/>
<path opacity="0.3" fill-rule="evenodd" clip-rule="evenodd" d="M82.2433 255.911L79.439 267.818L134.591 270.91L149.236 253.128L82.2433 255.911Z" fill="#592963"/>
<path d="M50.2425 184.494L50.228 185.112L99.7568 186.253L99.7712 185.635L50.2425 184.494Z" fill="#726295"/>
<path d="M107.809 194.832V194.214L58.4209 192.513L58.2651 193.131L107.809 194.832Z" fill="#726295"/>
<path d="M137.862 239.519H90.3433V240.137H137.862V239.519Z" fill="#726295"/>
<path opacity="0.6" fill-rule="evenodd" clip-rule="evenodd" d="M142.223 234.569L109.818 212.302L103.586 201.169L123.995 209.364C123.995 209.364 138.484 228.538 142.223 234.569Z" fill="#8B689A"/>
<path d="M151.425 215.085C149.4 206.116 142.856 200.859 142.233 200.241C141.61 199.622 128.523 201.478 128.523 201.478L103.751 191.427C103.751 191.427 101.881 197.612 103.751 201.014C103.751 201.014 107.334 206.58 114.345 208.436C114.345 208.436 125.407 208.127 132.418 211.838L131.015 214.776C130.86 214.93 153.45 224.208 151.425 215.085Z" fill="url(#paint45_linear_2102_54110)"/>
<path d="M320.774 50.8739L314.075 54.1211L306.596 65.409C306.596 65.409 311.426 49.7916 318.749 44.0703C318.749 44.0703 320.774 46.3897 320.774 50.8739Z" fill="url(#paint46_linear_2102_54110)"/>
<path d="M285.408 43.2979L280.734 52.5755V50.5654C280.734 50.5654 266.089 51.3385 262.35 52.5755C258.766 53.8126 253.781 57.0598 253.781 57.0598C253.781 57.0598 260.48 49.6376 263.129 48.4006C265.777 47.1636 285.408 43.2979 285.408 43.2979Z" fill="url(#paint47_linear_2102_54110)"/>
<path d="M256.583 72.822L257.206 76.2238C257.206 76.2238 267.488 84.883 281.666 82.409C281.666 82.409 281.822 81.3266 282.133 79.7803C282.601 75.6053 283.068 67.5647 279.329 61.8434C279.329 61.8434 277.459 61.5342 274.811 61.6888C272.007 61.8434 268.423 62.3073 265.151 64.1629C258.764 67.7193 256.583 72.822 256.583 72.822Z" fill="url(#paint48_linear_2102_54110)"/>
<path d="M303.952 81.3379C303.952 83.3481 307.847 88.6055 310.339 89.5332C312.832 90.461 315.948 89.5332 315.948 89.5332C315.948 89.0694 316.104 88.4508 316.104 87.987C316.883 78.7093 316.883 68.8131 316.883 68.8131C316.883 68.8131 315.325 68.6584 313.455 68.9677C311.742 69.277 309.872 69.8955 308.314 71.2871C306.912 72.6788 303.952 79.3278 303.952 81.3379Z" fill="url(#paint49_linear_2102_54110)"/>
<path d="M270.768 70.6676C270.768 76.2342 274.351 80.8731 278.713 80.8731C279.96 80.8731 281.05 80.5638 281.985 79.9453C282.452 75.7704 282.92 67.7297 279.181 62.0085C279.181 62.0085 277.311 61.6992 274.663 61.8538C272.481 63.5548 270.768 66.8019 270.768 70.6676Z" fill="url(#paint50_linear_2102_54110)"/>
<path d="M273.572 70.8215C273.572 74.9965 276.221 78.3983 279.492 78.3983C280.427 78.3983 281.206 78.089 281.985 77.7798C282.297 74.6872 282.608 68.6567 279.96 64.4818C279.96 64.4818 278.558 64.3271 276.688 64.3271C274.818 65.5642 273.572 68.0382 273.572 70.8215Z" fill="#522F30"/>
<path d="M310.958 77.7815C310.958 83.3481 313.139 87.987 315.944 87.987H316.1C316.879 78.7093 317.969 68.8131 317.969 68.8131C317.969 68.8131 315.476 68.6584 313.607 68.9677C311.893 70.514 310.958 73.9158 310.958 77.7815Z" fill="url(#paint51_linear_2102_54110)"/>
<path d="M312.666 77.4648C312.666 81.3305 314.224 84.423 316.094 84.423C316.094 84.423 316.094 84.423 316.249 84.423C316.873 78.0833 317.496 71.2797 317.496 71.2797C317.496 71.2797 315.782 71.125 314.536 71.2797C313.445 72.5167 312.666 74.8361 312.666 77.4648Z" fill="#522F30"/>
<path fill-rule="evenodd" clip-rule="evenodd" d="M281.978 80.8752V82.8853L282.289 84.7409C282.289 84.7409 267.956 84.5862 257.206 76.2363C257.206 76.2363 265.463 82.4214 281.666 82.4214L281.978 80.8752Z" fill="#D2726C"/>
<path fill-rule="evenodd" clip-rule="evenodd" d="M316.1 87.8299L316.256 91.0771C316.256 91.0771 307.843 91.2318 304.416 82.8818C304.416 82.8818 306.597 88.6031 315.321 89.2216L316.1 87.8299Z" fill="#D2726C"/>
<path d="M281.51 67.574L286.651 63.7083H281.666L280.264 59.3787C280.264 59.3787 263.126 58.9148 256.583 72.986C256.583 72.986 262.97 62.9352 279.796 62.9352C279.796 62.7805 281.199 65.4092 281.51 67.574Z" fill="#522F30"/>
<path d="M316.725 73.9183L321.554 70.8257H319.217L318.75 65.5684C318.75 65.5684 313.453 65.2591 309.091 69.1248C305.196 72.5266 304.105 80.8766 304.105 80.8766C304.105 80.8766 304.884 75.0007 309.869 70.9804C312.83 68.6609 317.036 68.8156 317.036 68.8156L316.725 73.9183Z" fill="#522F30"/>
<path d="M268.737 72.3646C268.737 73.447 269.672 74.3748 270.763 74.3748C271.853 74.3748 272.788 73.447 272.788 72.3646C272.788 71.2823 271.853 70.3545 270.763 70.3545C269.672 70.3545 268.737 71.2823 268.737 72.3646Z" fill="#F5F5F5"/>
<path d="M308.627 78.3983C308.627 79.3261 309.406 80.0992 310.34 80.0992C311.275 80.0992 312.054 79.3261 312.054 78.3983C312.054 77.4706 311.275 76.6974 310.34 76.6974C309.406 76.5428 308.627 77.3159 308.627 78.3983Z" fill="#F5F5F5"/>
<path fill-rule="evenodd" clip-rule="evenodd" d="M314.378 99.4275C314.378 99.4275 308.925 100.355 302.07 99.4275C295.215 98.4997 295.526 97.2627 295.526 97.2627L288.36 99.1182L292.41 99.8914C292.41 99.8914 297.396 105.303 301.447 106.076C301.447 106.076 309.704 104.839 314.378 99.4275Z" fill="#D2726C"/>
<path d="M295.525 102.982C295.525 102.982 293.033 98.6523 292.254 98.6523C291.475 98.6523 289.293 99.4255 289.293 99.4255C289.293 99.4255 293.344 100.663 295.525 102.982Z" fill="#A64A4C"/>
<path d="M275.119 10.2064L263.434 9.12402C263.434 9.12402 231.34 40.6682 217.63 74.2225L224.952 76.2326C224.952 76.3872 262.344 37.7302 275.119 10.2064Z" fill="url(#paint52_linear_2102_54110)"/>
<path d="M224.803 108.857L224.959 172.719L209.379 188.027L219.506 104.373L224.803 108.857Z" fill="url(#paint53_linear_2102_54110)"/>
<path fill-rule="evenodd" clip-rule="evenodd" d="M303.642 118.912C303.642 118.912 304.732 123.242 303.642 127.107C303.642 127.107 293.982 125.87 289.308 123.087C283.544 119.531 277.624 107.934 277.624 107.934C277.624 107.934 286.037 114.583 288.529 115.356C291.178 116.284 303.642 118.912 303.642 118.912Z" fill="#D2726C"/>
<path fill-rule="evenodd" clip-rule="evenodd" d="M304.107 120.768C304.107 120.768 306.6 116.129 306.6 114.737C306.6 114.737 301.614 113.191 296.94 112.572C292.266 111.954 286.658 112.263 284.944 111.954C283.074 111.645 277.777 107.934 277.777 107.934C277.777 107.934 282.919 113.346 288.683 115.356C292.111 116.593 303.796 118.758 303.796 118.758L304.107 120.768Z" fill="#B14D63"/>
<path fill-rule="evenodd" clip-rule="evenodd" d="M275.117 10.2056C275.117 10.2056 300.356 9.27781 306.588 11.1333C312.82 12.9889 320.143 48.3987 320.143 48.3987C320.143 48.3987 305.809 21.1842 298.331 16.2361C291.009 11.4426 275.117 10.2056 275.117 10.2056Z" fill="url(#paint54_linear_2102_54110)"/>
<path d="M238.667 107.937C238.667 107.937 234.148 113.194 231.656 113.194C229.319 113.194 214.518 100.979 213.272 98.0406C209.065 89.0722 212.493 76.5473 213.272 75.7741C214.051 75.001 220.127 74.0732 220.127 74.0732C220.127 74.0732 230.877 78.0936 235.551 86.7527C235.551 86.5981 238.667 98.5045 238.667 107.937Z" fill="url(#paint55_linear_2102_54110)"/>
<path d="M260.649 9.12402L248.341 22.7313V19.1748L221.7 21.185L213.91 21.8035C213.91 21.8035 217.181 17.3193 222.011 14.3814C226.685 11.7527 260.649 9.12402 260.649 9.12402Z" fill="url(#paint56_linear_2102_54110)"/>
<path d="M275.138 10.2055C275.138 10.2055 303.181 9.27769 307.232 11.5971C311.439 13.9165 323.902 46.5431 323.902 46.5431C323.902 46.5431 315.334 6.33975 303.805 0C303.805 0 283.707 1.0824 266.102 8.34992L275.138 10.2055Z" fill="url(#paint57_linear_2102_54110)"/>
<path fill-rule="evenodd" clip-rule="evenodd" d="M147.217 276.171C148.307 277.717 150.8 281.274 154.383 286.067C169.184 306.014 201.122 346.681 216.702 346.681C219.974 346.681 233.528 329.672 236.956 307.096C240.383 284.521 236.956 253.595 236.956 253.595L240.851 246.328C240.851 246.328 242.72 248.647 245.836 252.667C253.315 262.564 267.648 282.974 278.086 307.56L275.749 310.189L285.721 320.858C285.721 320.858 306.286 336.012 329.188 333.692C352.09 331.373 354.583 314.982 354.583 314.982C354.583 314.982 356.453 304.313 355.362 303.076C354.116 301.839 345.858 302.303 345.858 302.303C346.17 301.221 357.543 268.903 359.413 241.379C359.724 235.658 359.724 230.092 359.101 224.989L337.913 206.588L333.55 202.877L332.304 200.867L322.489 185.404L315.322 163.756C315.322 163.756 298.652 162.983 286.032 160.045C281.67 159.117 277.931 157.88 275.438 156.334L275.594 156.489L286.811 164.065C286.811 164.065 293.355 173.962 291.797 187.878C291.797 187.878 291.797 187.878 291.641 187.878C289.615 187.26 257.521 178.137 241.941 162.674L242.409 155.097V154.942C242.409 154.942 240.383 156.953 237.268 160.2C232.282 165.302 224.336 173.343 216.235 181.229C210.782 186.641 207.199 190.043 204.706 192.672C201.123 196.383 199.72 198.084 198.941 200.403C197.539 204.423 201.901 233.339 203.148 243.699C204.238 254.214 201.122 276.48 201.122 276.48C201.122 276.48 197.695 274.625 195.825 276.48C195.825 276.48 172.144 265.811 159.992 256.688C158.434 255.451 157.032 254.368 155.941 253.286C155.941 253.286 159.057 277.717 155.941 280.81C153.448 283.284 148.93 278.336 147.217 276.171Z" fill="url(#paint58_linear_2102_54110)"/>
<path fill-rule="evenodd" clip-rule="evenodd" d="M234.306 165.145C234.306 165.145 262.506 191.896 292.107 195.607L291.64 187.875C291.64 187.875 291.64 187.875 291.484 187.875C289.614 187.257 259.857 177.051 242.408 159.578V155.249V151.692L237.267 160.197L234.306 165.145Z" fill="url(#paint59_linear_2102_54110)"/>
<path fill-rule="evenodd" clip-rule="evenodd" d="M273.572 154.314C274.04 155.088 274.663 155.861 275.442 156.479L275.598 156.634C278.714 159.726 282.92 161.582 282.92 161.582C291.177 172.406 291.956 188.023 291.956 188.023L302.551 194.363C302.551 172.561 286.348 160.19 286.348 160.19L273.572 154.314Z" fill="url(#paint60_linear_2102_54110)"/>
<path fill-rule="evenodd" clip-rule="evenodd" d="M362.686 171.637L368.45 177.513C368.45 177.513 364.244 192.357 362.374 194.212C360.505 196.068 351.78 188.955 351.78 188.955L346.016 181.224C346.016 181.224 353.961 186.636 358.479 186.636C358.479 186.636 362.686 182.77 362.686 171.637Z" fill="url(#paint61_linear_2102_54110)"/>
<path d="M362.686 171.637C362.686 171.637 362.374 184.162 356.142 185.089C352.403 185.708 346.016 181.069 346.016 181.069C346.016 181.069 353.027 186.481 358.479 186.481C358.479 186.636 362.53 186.636 362.686 171.637Z" fill="#A64A4C"/>
<path opacity="0.5" fill-rule="evenodd" clip-rule="evenodd" d="M241.015 246.164C241.015 246.164 260.489 268.895 275.134 300.13L266.877 271.678L246 235.959L241.015 246.164Z" fill="url(#paint62_linear_2102_54110)"/>
<path fill-rule="evenodd" clip-rule="evenodd" d="M147.219 276.162C148.31 277.708 150.803 281.265 154.386 286.058C156.879 286.522 159.06 286.058 159.839 283.584C161.864 276.78 159.839 256.833 159.839 256.833C158.281 255.596 156.879 254.514 155.788 253.432C155.788 253.432 158.904 277.863 155.788 280.955C153.451 283.275 148.933 278.327 147.219 276.162Z" fill="url(#paint63_linear_2102_54110)"/>
<path opacity="0.5" fill-rule="evenodd" clip-rule="evenodd" d="M195.823 276.629C195.823 276.629 197.225 274.774 201.12 276.629C205.015 278.485 214.831 303.999 214.831 303.999C214.831 303.999 205.794 284.515 195.823 276.629Z" fill="url(#paint64_linear_2102_54110)"/>
<g clip-path="url(#clip0_2102_54110)">
<path fill-rule="evenodd" clip-rule="evenodd" d="M213.458 740.931C218.059 743.048 231.864 743.754 241.067 743.754C245.669 743.754 248.854 743.754 248.854 743.754C248.854 743.754 256.641 644.253 274.694 575.097C292.746 505.941 303.719 431.492 303.719 431.492L315.399 430.08C315.399 430.08 327.08 561.689 327.434 575.803C327.788 589.916 316.107 617.085 313.629 646.723C310.798 676.009 323.54 753.281 323.54 753.281L350.442 756.103C350.442 756.103 359.999 624.847 366.37 578.978C372.741 533.109 387.254 441.018 384.068 418.084C383.36 413.144 381.236 405.029 378.405 395.149C377.343 391.268 375.927 387.387 374.865 383.153C364.246 350.339 349.38 309.409 349.38 309.409C330.62 306.234 279.295 307.292 279.295 307.292C279.295 307.292 270.8 319.642 260.535 337.284C258.057 341.518 255.58 346.105 253.102 351.044L252.394 352.456C241.067 373.626 230.448 398.325 228.324 418.084C223.723 460.777 231.864 522.171 231.156 553.574C230.448 584.624 221.599 613.556 214.52 636.491C207.441 659.073 213.458 740.931 213.458 740.931Z" fill="#321833"/>
<path d="M85.218 212.045C87.4035 237.219 103.014 254.671 103.014 254.671C111.6 260.694 122.527 265.79 131.425 269.342C140.323 272.894 146.879 274.902 146.879 274.902L155.933 284.941L163.895 293.744L162.021 284.014L156.089 253.126C155.777 247.875 155.309 242.779 154.841 238.3C153.436 224.4 151.562 214.979 151.562 214.979C145.786 212.354 130.957 214.825 130.957 214.825C108.009 220.076 85.218 212.045 85.218 212.045Z" fill="url(#paint65_linear_2102_54110)"/>
<path d="M309.857 165.252L218.379 181.005L207.452 79.6923L246.322 21.3138L273.953 8.34082L311.105 14.5184C311.105 14.5184 329.682 48.1865 326.716 88.4954C323.75 128.804 316.101 159.075 309.857 165.252Z" fill="url(#paint66_linear_2102_54110)"/>
<path d="M239.135 117.066C239.135 117.066 244.755 144.248 242.413 162.472C242.413 162.472 275.351 192.433 289.088 192.433C302.826 192.433 295.801 166.487 295.801 166.487C295.801 166.487 281.595 161.854 275.663 155.831C269.731 149.962 268.327 133.283 268.327 133.283L239.135 117.066Z" fill="url(#paint67_linear_2102_54110)"/>
<path d="M236.319 110.428C236.787 111.818 237.1 113.054 237.412 114.135C240.69 124.174 266.915 136.529 282.058 141.316C282.682 141.471 283.306 141.625 283.775 141.78C285.024 142.089 286.741 142.552 288.77 142.706C292.36 143.17 296.263 143.479 297.512 143.015C299.385 142.397 303.288 134.984 307.971 130.506C312.498 126.027 322.957 113.672 322.957 106.258C322.957 102.552 321.396 98.5364 319.991 94.6754C318.43 90.9688 317.025 87.4167 316.869 84.6367C316.401 72.127 321.552 55.9108 321.552 52.2042C321.552 51.2776 320.771 48.1888 319.054 44.1733C318.742 43.5556 318.586 42.9378 318.274 42.32C313.122 31.0459 302.195 13.903 284.555 8.80646C284.555 8.80646 272.067 6.18098 258.33 10.042L237.568 38.3046C237.568 38.3046 232.885 73.6715 236.007 86.49C239.129 99.3086 236.319 110.428 236.319 110.428Z" fill="url(#paint68_linear_2102_54110)"/>
<path d="M191.833 117.064L191.989 119.535L192.457 127.875V129.42C193.706 154.439 195.267 180.539 196.204 193.821C196.204 195.211 196.36 196.447 196.36 197.528L196.672 202.624L225.239 173.898V76.292C225.239 76.292 254.43 43.705 259.426 35.983C262.86 30.732 268.948 20.6934 272.695 14.8247C273.631 13.4347 274.1 12.6625 274.1 12.6625C275.036 11.1181 275.661 10.1915 275.661 10.1915C275.661 10.1915 293.769 12.1992 297.203 14.8247C297.203 14.8247 317.341 30.1143 321.711 52.1993C326.082 74.2843 327.487 124.323 309.847 165.25H315.623C315.623 165.25 332.795 105.481 327.643 63.7823C322.336 22.0834 309.067 4.78604 305.945 1.69723C302.823 -1.39158 277.846 4.94048 265.826 6.48488C253.806 8.02929 231.795 9.72813 221.492 14.8247C211.346 19.9212 193.238 58.3769 191.052 69.8055C190.116 74.2843 190.74 94.0526 191.833 117.064Z" fill="url(#paint69_linear_2102_54110)"/>
<path d="M246.473 52.3545C246.473 52.3545 239.136 71.6596 239.136 86.9492L237.575 88.648C237.575 88.648 231.019 81.8526 225.399 76.2928L246.473 52.3545Z" fill="url(#paint70_linear_2102_54110)"/>
<path fill-rule="evenodd" clip-rule="evenodd" d="M38.7017 183.777H31.677C31.677 183.777 63.3662 233.353 75.3862 274.434H137.36C137.36 274.434 115.973 222.233 85.2208 186.248L38.7017 183.777Z" fill="#4D1A4F"/>
<path fill-rule="evenodd" clip-rule="evenodd" d="M99.118 179.305C99.118 179.305 137.52 220.85 151.725 250.502L79.4489 252.819C79.4489 252.819 52.9112 196.602 38.5496 177.761L99.118 179.305Z" fill="url(#paint71_linear_2102_54110)"/>
<path fill-rule="evenodd" clip-rule="evenodd" d="M143.447 248.494L149.535 252.819L134.861 270.579L79.6 267.491L38.7007 187.49V177.761L83.3465 252.819L143.447 248.494Z" fill="url(#paint72_linear_2102_54110)"/>
<path fill-rule="evenodd" clip-rule="evenodd" d="M38.7007 177.761V187.49L79.6 267.491L134.861 270.579L149.535 252.819L82.4099 255.599C82.4099 255.599 59.6187 204.17 38.7007 177.761Z" fill="url(#paint73_linear_2102_54110)"/>
<path opacity="0.3" fill-rule="evenodd" clip-rule="evenodd" d="M82.4051 255.6L79.5952 267.492L134.856 270.581L149.53 252.82L82.4051 255.6Z" fill="#592963"/>
<path d="M50.3416 184.27L50.3271 184.888L99.9534 186.027L99.9679 185.409L50.3416 184.27Z" fill="#726295"/>
<path d="M108.021 194.596V193.978L58.5358 192.279L58.3796 192.897L108.021 194.596Z" fill="#726295"/>
<path d="M138.133 239.229H90.5212V239.846H138.133V239.229Z" fill="#726295"/>
<path opacity="0.6" fill-rule="evenodd" clip-rule="evenodd" d="M142.503 234.284L110.034 212.045L103.79 200.925L124.239 209.11C124.239 209.11 138.757 228.261 142.503 234.284Z" fill="#8B689A"/>
<path d="M151.723 214.825C149.694 205.867 143.137 200.616 142.513 199.998C141.888 199.381 128.776 201.234 128.776 201.234L103.955 191.195C103.955 191.195 102.082 197.373 103.955 200.771C103.955 200.771 107.546 206.33 114.57 208.184C114.57 208.184 125.654 207.875 132.678 211.581L131.273 214.516C131.117 214.67 153.752 223.937 151.723 214.825Z" fill="url(#paint74_linear_2102_54110)"/>
<path d="M275.661 10.1944L263.953 9.11328C263.953 9.11328 231.796 40.6191 218.058 74.1327L225.395 76.1404C225.395 76.2949 262.86 37.6848 275.661 10.1944Z" fill="url(#paint75_linear_2102_54110)"/>
<path d="M225.246 108.725L225.402 172.509L209.791 187.798L219.938 104.246L225.246 108.725Z" fill="url(#paint76_linear_2102_54110)"/>
<path d="M239.137 107.806C239.137 107.806 234.61 113.057 232.112 113.057C229.77 113.057 214.94 100.856 213.692 97.9217C209.477 88.9641 212.911 76.4544 213.692 75.6822C214.472 74.91 220.56 73.9834 220.56 73.9834C220.56 73.9834 231.331 77.9988 236.015 86.6475C236.015 86.4931 239.137 98.385 239.137 107.806Z" fill="url(#paint77_linear_2102_54110)"/>
<path d="M261.162 9.11328L248.83 22.704V19.1519L222.136 21.1596L214.331 21.7774C214.331 21.7774 217.609 17.2986 222.448 14.3643C227.131 11.7388 261.162 9.11328 261.162 9.11328Z" fill="url(#paint78_linear_2102_54110)"/>
<path fill-rule="evenodd" clip-rule="evenodd" d="M147.506 275.835C148.599 277.38 151.097 280.932 154.687 285.719C169.517 305.642 201.518 346.26 217.129 346.26C220.407 346.26 233.988 329.272 237.422 306.723C240.857 284.175 237.422 253.287 237.422 253.287L241.325 246.028C241.325 246.028 243.198 248.345 246.32 252.36C253.813 262.244 268.175 282.631 278.634 307.187L276.292 309.812L286.283 320.469C286.283 320.469 306.889 335.604 329.836 333.287C352.784 330.97 355.281 314.6 355.281 314.6C355.281 314.6 357.154 303.943 356.062 302.708C354.813 301.472 346.539 301.936 346.539 301.936C346.852 300.855 358.247 268.577 360.12 241.086C360.433 235.372 360.433 229.812 359.808 224.715L338.578 206.337L334.207 202.63L332.958 200.623L323.124 185.179L315.943 163.557C315.943 163.557 299.24 162.785 286.595 159.85C282.224 158.924 278.478 157.688 275.98 156.144L276.136 156.298L287.376 163.866C287.376 163.866 293.932 173.75 292.371 187.65C292.371 187.65 292.371 187.65 292.215 187.65C290.186 187.032 258.028 177.92 242.418 162.476L242.886 154.908V154.754C242.886 154.754 240.857 156.762 237.735 160.005C232.739 165.101 224.778 173.132 216.661 181.009C211.197 186.414 207.607 189.812 205.109 192.437C201.518 196.144 200.113 197.843 199.333 200.159C197.928 204.175 202.299 233.055 203.548 243.403C204.641 253.905 201.518 276.144 201.518 276.144C201.518 276.144 198.084 274.291 196.211 276.144C196.211 276.144 172.483 265.488 160.307 256.376C158.746 255.14 157.341 254.059 156.248 252.978C156.248 252.978 159.37 277.38 156.248 280.468C153.751 282.939 149.223 277.997 147.506 275.835Z" fill="url(#paint79_linear_2102_54110)"/>
<path fill-rule="evenodd" clip-rule="evenodd" d="M234.768 164.944C234.768 164.944 263.022 191.662 292.682 195.369L292.214 187.647C292.214 187.647 292.214 187.647 292.058 187.647C290.185 187.029 260.369 176.836 242.885 159.384V155.06V151.508L237.734 160.002L234.768 164.944Z" fill="url(#paint80_linear_2102_54110)"/>
<path opacity="0.5" fill-rule="evenodd" clip-rule="evenodd" d="M241.489 245.865C241.489 245.865 261.002 268.568 275.676 299.765L267.403 271.348L246.485 235.672L241.489 245.865Z" fill="url(#paint81_linear_2102_54110)"/>
<path fill-rule="evenodd" clip-rule="evenodd" d="M147.509 275.827C148.602 277.371 151.099 280.923 154.69 285.711C157.187 286.174 159.373 285.711 160.153 283.24C162.183 276.445 160.153 256.522 160.153 256.522C158.592 255.286 157.188 254.205 156.095 253.124C156.095 253.124 159.217 277.526 156.095 280.614C153.753 282.931 149.226 277.989 147.509 275.827Z" fill="url(#paint82_linear_2102_54110)"/>
<path opacity="0.5" fill-rule="evenodd" clip-rule="evenodd" d="M196.209 276.293C196.209 276.293 197.614 274.44 201.517 276.293C205.419 278.147 215.254 303.629 215.254 303.629C215.254 303.629 206.2 284.17 196.209 276.293Z" fill="url(#paint83_linear_2102_54110)"/>
<path d="M101.086 208.946C101.468 209.285 101.916 209.502 102.359 209.564C102.511 209.591 102.661 209.607 102.809 209.61C102.847 209.615 102.883 209.615 102.918 209.609C102.931 209.607 102.942 209.603 102.951 209.596C102.961 209.589 102.969 209.58 102.974 209.569C102.979 209.558 102.982 209.545 102.983 209.532C102.983 209.518 102.981 209.504 102.976 209.49C102.966 209.462 102.947 209.437 102.923 209.419C102.899 209.401 102.872 209.391 102.846 209.393L102.774 209.383C102.768 209.382 102.761 209.379 102.755 209.375C102.749 209.371 102.743 209.366 102.739 209.36C102.543 209.149 102.539 207.972 103.175 205.358C103.241 205.154 103.24 204.919 103.174 204.681C103.108 204.443 102.978 204.215 102.803 204.026C102.557 203.783 102.272 203.597 101.973 203.484C101.674 203.371 101.372 203.336 101.094 203.38C100.95 203.394 100.823 203.455 100.73 203.555C100.637 203.655 100.58 203.79 100.568 203.943C100.55 204.451 100.516 204.933 100.482 205.401C100.427 206.011 100.403 206.632 100.41 207.26C100.439 207.98 100.665 208.541 101.086 208.946Z" fill="#E5476D"/>
<g style="mix-blend-mode:overlay">
<g style="mix-blend-mode:overlay">
<path d="M93.7224 217.329C93.8326 214.898 93.6001 214.446 93.5085 214.363C93.5039 214.362 93.4993 214.361 93.4949 214.362C93.4851 214.358 93.4751 214.357 93.4658 214.358C93.4216 214.389 93.3872 214.432 93.3651 214.484C93.4607 214.756 93.5627 215.427 93.4982 217.088C93.5625 217.178 93.6383 217.259 93.7224 217.329Z" fill="white"/>
</g>
<g style="mix-blend-mode:overlay">
<path d="M99.2196 219.626C99.2404 219.649 99.2669 219.663 99.2932 219.667L99.3165 219.67C99.3327 219.669 99.3474 219.664 99.3594 219.654C99.3713 219.645 99.3802 219.632 99.3852 219.617L99.3929 219.599C99.1984 219.369 98.6085 218.534 98.7308 217.32C98.9109 215.51 100.13 212.804 101.408 212.735C101.616 212.688 101.839 212.684 102.068 212.722C101.76 212.645 101.456 212.635 101.176 212.694C99.896 212.763 98.6801 215.468 98.4964 217.279C98.3544 218.695 99.1828 219.589 99.2196 219.626Z" fill="white"/>
</g>
<g style="mix-blend-mode:overlay">
<path d="M98.2849 223.574C98.3086 224.498 98.1306 225.362 97.7641 226.103C97.6896 226.169 97.5999 226.215 97.4998 226.24C97.5516 226.271 97.6073 226.289 97.6607 226.29C97.7916 226.28 97.908 226.229 97.9966 226.143C98.364 225.403 98.5421 224.538 98.5174 223.614C98.4797 222.92 98.2536 221.946 97.4032 221.282C96.8566 220.874 96.2839 220.521 95.695 220.23C95.6983 220.259 95.6916 220.284 95.6887 220.31C96.1993 220.572 96.6958 220.883 97.1705 221.24C98.0216 221.91 98.2446 222.873 98.2849 223.574Z" fill="white"/>
</g>
<g style="mix-blend-mode:overlay">
<path d="M103.203 226.541C103.225 226.574 103.256 226.6 103.29 226.614C103.503 226.691 104.002 226.134 104.501 223.596C105.131 220.405 105.688 215.76 105.877 214.113C105.899 213.437 105.921 213.032 105.92 213.014C105.921 212.997 105.926 212.981 105.935 212.969C105.944 212.957 105.956 212.948 105.97 212.943C106.667 212.687 107.225 212.583 107.659 212.631C107.187 212.508 106.557 212.596 105.731 212.9C105.717 212.905 105.705 212.914 105.696 212.926C105.688 212.938 105.683 212.953 105.682 212.97C105.684 212.989 105.658 213.393 105.638 214.069C105.45 215.717 104.891 220.361 104.26 223.552C103.858 225.621 103.454 226.374 103.203 226.541Z" fill="white"/>
</g>
<g style="mix-blend-mode:overlay">
<path d="M100.414 217.702C100.32 217.893 100.225 218.083 100.133 218.301C100.063 219.286 100.021 220.324 100.028 221.344C100.118 221.493 100.199 221.646 100.271 221.802C100.25 220.416 100.298 219.047 100.414 217.702Z" fill="white"/>
</g>
<g style="mix-blend-mode:overlay">
<path d="M118.592 226.064L118.546 226.089C118.574 226.111 118.605 226.129 118.637 226.14C118.672 226.15 118.707 226.152 118.739 226.146C118.771 226.14 118.8 226.127 118.824 226.107C119.229 225.839 119.557 224.531 119.722 222.739C119.466 222.662 119.212 222.55 118.968 222.404C118.329 222.005 117.776 221.43 117.383 220.757C117.396 220.873 117.397 220.987 117.406 221.099C117.764 221.613 118.222 222.051 118.734 222.368C118.978 222.513 119.232 222.626 119.489 222.705C119.325 224.488 118.994 225.796 118.592 226.064Z" fill="white"/>
</g>
<g style="mix-blend-mode:overlay">
<path d="M93.3809 218.954C93.3498 219.343 93.3123 219.76 93.2683 220.221C93.0844 222.132 92.5965 227.206 91.6136 227.748C91.5909 227.761 91.5664 227.772 91.5404 227.779C91.5563 227.795 91.5748 227.807 91.5942 227.815C91.6871 227.845 91.7784 227.836 91.8482 227.791C92.8291 227.248 93.3246 222.173 93.4943 220.272C93.5389 219.816 93.5759 219.395 93.6069 219.006C92.7172 218.313 92.0593 217.382 92.0421 215.847C92.0276 214.591 92.5499 213.544 93.327 213.301C93.4503 213.263 93.5838 213.249 93.7224 213.258C93.5023 213.196 93.2851 213.197 93.0945 213.261C92.323 213.503 91.793 214.548 91.8075 215.804C91.8352 217.331 92.4912 218.262 93.3809 218.954Z" fill="white"/>
</g>
<g style="mix-blend-mode:overlay">
<path d="M119.608 219.868C119.611 220.044 119.609 220.217 119.607 220.388C119.685 220.421 119.764 220.452 119.841 220.478C119.843 220.29 119.843 220.101 119.843 219.911C119.811 215.736 119.173 213.34 118.558 213.13L118.525 213.125C118.485 213.12 118.447 213.124 118.413 213.138C118.998 213.527 119.58 215.895 119.608 219.868Z" fill="white"/>
</g>
<g style="mix-blend-mode:overlay">
<path d="M118.498 227.443C117.548 227.14 116.717 225.814 116.168 223.946C116.133 224.065 116.097 224.185 116.06 224.304C116.606 225.96 117.385 227.122 118.263 227.403C118.378 227.438 118.493 227.467 118.608 227.489L118.717 227.504C118.644 227.486 118.571 227.468 118.498 227.443Z" fill="white"/>
</g>
<g style="mix-blend-mode:overlay">
<path d="M88.9088 214.328C88.9192 214.284 88.9295 214.239 88.9404 214.2C89.1376 213.48 89.7886 213.389 90.3924 213.475C89.7402 213.334 88.9345 213.344 88.7134 214.158C88.7155 214.177 88.7039 214.193 88.7002 214.211C88.7677 214.249 88.8391 214.288 88.9088 214.328Z" fill="white"/>
</g>
<g style="mix-blend-mode:overlay">
<path d="M101.757 227.719C101.2 227.167 100.827 226.263 100.599 225.169C100.571 225.332 100.535 225.494 100.496 225.658C100.728 226.506 101.054 227.216 101.524 227.676C101.813 227.968 102.167 228.162 102.522 228.223L102.621 228.236C102.311 228.155 102.008 227.974 101.757 227.719Z" fill="white"/>
</g>
<g style="mix-blend-mode:overlay">
<path d="M112.376 227.529C111.936 227.192 111.717 226.622 111.527 225.882C110.728 222.768 111.18 218.674 111.396 217.137C111.305 217.301 111.199 217.517 111.082 217.749C110.861 219.598 110.593 223.098 111.296 225.84C111.489 226.586 111.706 227.152 112.145 227.486C112.389 227.662 112.661 227.765 112.923 227.782C112.735 227.742 112.547 227.655 112.376 227.529Z" fill="white"/>
</g>
<g style="mix-blend-mode:overlay">
<path d="M107.293 227.946C106.94 227.738 106.698 227.341 106.587 226.771C106.369 225.688 106.212 224.607 106.114 223.536C106.076 223.826 106.031 224.111 105.979 224.391C106.072 225.22 106.201 226 106.354 226.731C106.474 227.302 106.713 227.696 107.06 227.903C107.184 227.974 107.315 228.022 107.444 228.044C107.485 228.05 107.523 228.055 107.564 228.061C107.472 228.035 107.381 227.997 107.293 227.946Z" fill="white"/>
</g>
<g style="mix-blend-mode:overlay">
<path d="M89.175 225.675C89.1429 225.85 89.1084 226.021 89.0717 226.189C89.591 228.204 90.2774 228.719 91.3531 228.913L91.4407 228.925C90.3586 228.692 89.6871 228.052 89.175 225.675Z" fill="white"/>
</g>
<g style="mix-blend-mode:overlay">
<path d="M95.9994 228.131C95.3241 227.234 95.5485 225.308 96.6574 222.403C96.6647 222.384 96.6786 222.369 96.6968 222.362C96.8787 222.279 97.0866 222.247 97.3051 222.269L97.2896 222.267C96.9941 222.196 96.7068 222.215 96.4626 222.323C96.4454 222.332 96.4323 222.346 96.4251 222.365C95.3143 225.269 95.094 227.198 95.7674 228.094C95.8911 228.249 96.0403 228.379 96.2035 228.475C96.3667 228.572 96.5396 228.631 96.7089 228.649C96.7439 228.654 96.7789 228.659 96.8159 228.664C96.6657 228.634 96.5153 228.571 96.3746 228.479C96.2339 228.387 96.1061 228.268 95.9994 228.131Z" fill="white"/>
</g>
<g style="mix-blend-mode:overlay">
<path d="M88.5882 218.418C88.5818 217.486 88.6206 216.567 88.7043 215.663C88.6772 215.643 88.6473 215.629 88.6174 215.623C88.5642 215.614 88.5119 215.612 88.4617 215.617L88.4714 215.619C88.3932 216.407 88.3511 217.363 88.3531 218.371C88.3554 218.665 88.3593 219.075 88.3689 219.553C88.2886 220.339 88.1919 221.219 88.0792 222.092C87.5969 226.037 87.2439 227.073 87.0731 227.326C87.1381 227.427 87.1866 227.45 87.2082 227.455C87.2841 227.466 87.6919 227.208 88.3119 222.135C88.4188 221.26 88.5154 220.381 88.6014 219.594C88.5864 219.119 88.5827 218.71 88.5882 218.418Z" fill="white"/>
</g>
<g style="mix-blend-mode:overlay">
<path d="M84.7455 226.705C84.6585 226.429 84.5846 226.152 84.524 225.875C84.4731 225.968 84.4227 226.064 84.3642 226.158C84.4086 226.332 84.4544 226.501 84.5069 226.661C84.9742 228.127 85.7066 228.985 86.6239 229.151L86.6746 229.158L86.7252 229.165C85.8741 228.941 85.1913 228.098 84.7455 226.705Z" fill="white"/>
</g>
<g style="mix-blend-mode:overlay">
<path d="M79.8976 227.57C79.9548 227.603 80.0159 227.62 80.0736 227.619C81.1711 227.598 83.6627 223.183 84.3347 218.653C84.6069 216.487 85.2085 214.165 86.125 213.829C86.4836 213.697 86.8859 213.662 87.3033 213.725C86.8049 213.61 86.3188 213.631 85.8923 213.786C84.9718 214.122 84.3742 216.445 84.0999 218.611C83.4398 223.058 81.0218 227.412 79.8976 227.57Z" fill="white"/>
</g>
<g style="mix-blend-mode:overlay">
<path d="M78.0337 228.34C76.0345 226.212 75.5501 221.007 75.7119 218.028C76.3073 207.084 79.7537 204.202 81.6944 204.222C81.8283 204.225 81.9638 204.236 82.1003 204.254C81.8848 204.206 81.6708 204.181 81.462 204.182C79.519 204.159 76.0727 207.041 75.4792 217.986C75.3156 220.966 75.8003 226.173 77.801 228.298C78.2465 228.786 78.8139 229.114 79.3843 229.213C79.4221 229.22 79.4598 229.225 79.4972 229.228C78.9665 229.108 78.4471 228.793 78.0337 228.34Z" fill="white"/>
</g>
<g style="mix-blend-mode:overlay">
<path d="M82.2427 205.385C82.6336 205.933 82.1694 208.146 81.9823 209.09C81.5826 211.024 80.2343 214.424 80.2207 214.456C80.2152 214.47 80.2132 214.485 80.2151 214.501C80.2169 214.518 80.2224 214.534 80.2312 214.55C80.4068 214.886 80.8417 215.126 81.3956 215.196C80.9551 215.094 80.6154 214.884 80.4637 214.59C80.4558 214.575 80.4508 214.559 80.449 214.543C80.4473 214.527 80.4488 214.512 80.4534 214.499C80.4668 214.464 81.8153 211.067 82.215 209.133C82.4116 208.187 82.8683 205.976 82.4774 205.428C82.4588 205.4 82.4351 205.376 82.4083 205.358C82.3816 205.34 82.3526 205.328 82.3239 205.323C82.2787 205.317 82.2349 205.319 82.1943 205.33C82.2126 205.346 82.229 205.365 82.2427 205.385Z" fill="white"/>
</g>
</g>
<path d="M123.075 218.56C123.064 218.543 123.05 218.529 123.033 218.518C123.017 218.508 122.999 218.502 122.982 218.5C122.965 218.498 122.949 218.5 122.935 218.506C122.922 218.513 122.91 218.523 122.902 218.536C122.479 219.207 121.936 219.77 121.292 220.202C121.202 217.925 120.888 215.329 120.378 214.074C119.849 212.777 119.203 212.229 117.993 212.038C117.064 211.89 116.401 212.196 115.905 212.993C115.309 213.956 115.127 215.755 115.076 217.473C114.677 220.397 113.967 224.846 113.631 225.319C113.468 224.942 113.306 222.997 113.293 219.316C113.317 218.504 113.331 217.723 113.346 216.971C113.366 215.965 113.384 215.095 113.415 214.402C113.446 213.783 113.38 212.97 112.899 212.547C112.581 212.272 112.138 212.225 111.585 212.401C110.161 212.855 108.922 217.636 108.221 220.965C108.24 219.323 108.328 217.419 108.532 215.301C108.645 214.136 108.471 213.372 108.004 212.967C107.537 212.562 106.733 212.54 105.56 212.968C105.546 212.973 105.534 212.982 105.525 212.994C105.517 213.007 105.511 213.022 105.51 213.038C105.512 213.057 105.487 213.463 105.467 214.139C105.277 215.784 104.716 220.429 104.084 223.619C103.58 226.156 103.088 226.714 102.872 226.637C102.701 226.578 102.376 225.919 102.358 223.844C102.331 220.171 102.714 213.216 102.718 213.147C102.719 213.12 102.709 213.091 102.692 213.066C102.675 213.041 102.65 213.022 102.624 213.012C101.914 212.75 101.37 212.666 100.999 212.762C99.7183 212.83 98.5006 215.533 98.3161 217.344C98.1727 218.751 99.0022 219.653 99.0366 219.687C99.0582 219.709 99.0852 219.725 99.1123 219.73L99.1357 219.733C99.1516 219.732 99.1662 219.727 99.1782 219.718C99.1901 219.709 99.1992 219.696 99.2047 219.681C99.4229 219 99.6885 218.346 99.9998 217.725C99.8829 219.071 99.8334 220.441 99.8514 221.828C99.6177 221.317 99.2902 220.84 98.8925 220.432C98.4948 220.025 98.0368 219.696 97.5515 219.47C96.9811 219.187 96.4026 218.917 95.8449 218.662L95.3519 218.436C95.3613 215.215 94.5634 214.03 94.0652 213.604C93.891 213.456 93.6935 213.352 93.4931 213.302C93.2927 213.253 93.0968 213.26 92.9257 213.323C92.1533 213.564 91.6225 214.612 91.6366 215.867C91.6532 217.402 92.3115 218.334 93.2018 219.026C93.1713 219.416 93.1335 219.838 93.0884 220.291C92.9036 222.201 92.4135 227.276 91.4294 227.818C91.3948 227.841 91.3546 227.854 91.311 227.858C91.2673 227.863 91.2212 227.857 91.1751 227.842C91.0013 227.779 90.4554 227.081 90.7208 220.787C90.8639 217.391 91.1753 214.007 91.1772 213.973C91.1794 213.948 91.1725 213.921 91.1577 213.897C91.143 213.872 91.1215 213.853 91.0973 213.841C91.0759 213.838 88.9114 212.81 88.5237 214.228L88.4901 214.356C87.6886 213.891 86.6517 213.517 85.7143 213.86C84.7768 214.202 84.1945 216.518 83.9193 218.684C83.247 223.209 80.7521 227.62 79.6525 227.645C79.5969 227.644 79.5388 227.629 79.4831 227.6C79.4274 227.572 79.376 227.53 79.3331 227.48C78.5625 226.676 77.8958 223.203 78.1083 218.098C78.4531 209.911 80.9387 205.177 81.9053 205.352C81.9341 205.356 81.9632 205.368 81.99 205.386C82.0168 205.405 82.0404 205.429 82.0589 205.457C82.45 206.004 81.9843 208.214 81.7969 209.161C81.3961 211.094 80.0451 214.49 80.0318 214.525C80.0262 214.538 80.0242 214.553 80.026 214.569C80.0278 214.585 80.0333 214.601 80.042 214.616C80.2203 214.959 80.6633 215.2 81.2286 215.266C81.7369 215.337 82.2939 215.227 82.3923 214.925C82.4957 214.735 84.2387 211.587 83.8358 207.269C83.725 206.108 83.428 205.339 82.9265 204.85C82.5163 204.456 81.9807 204.261 81.2916 204.253C79.3469 204.23 75.8968 207.111 75.2987 218.054C75.1336 221.032 75.6168 226.238 77.6186 228.365C78.0641 228.853 78.6321 229.181 79.2027 229.278C79.3622 229.306 79.5202 229.32 79.6751 229.319C81.8151 229.307 83.2331 227.572 84.108 225.899C84.1757 226.196 84.2489 226.473 84.3315 226.732C84.7982 228.195 85.531 229.055 86.4465 229.219L86.4991 229.226C87.7003 229.408 88.3799 227.806 88.7592 225.698C89.294 228.18 90.0042 228.77 91.1721 228.979C91.7335 229.079 92.8187 228.978 93.7803 227.173C94.5899 225.655 95.0943 223.327 95.2805 220.247C95.87 220.54 96.4436 220.893 96.9915 221.3C97.843 221.971 98.0665 222.94 98.1059 223.634C98.1293 224.558 97.9508 225.422 97.5838 226.162C97.4966 226.252 97.3804 226.307 97.2486 226.32C97.2056 226.319 97.1608 226.308 97.1175 226.288C97.0741 226.267 97.0332 226.238 96.9977 226.201C96.643 225.858 96.4773 224.482 97.2117 222.497C97.2182 222.483 97.2206 222.466 97.2187 222.449C97.2167 222.431 97.2105 222.413 97.2006 222.397C97.1904 222.381 97.177 222.366 97.1617 222.355C97.1464 222.343 97.1296 222.336 97.1128 222.332C96.8168 222.26 96.529 222.281 96.2854 222.39C96.2681 222.399 96.2551 222.413 96.2478 222.432C95.135 225.335 94.9136 227.261 95.5872 228.158C95.7107 228.313 95.8599 228.444 96.0233 228.54C96.1867 228.637 96.3599 228.697 96.5295 228.715C96.6692 228.738 96.8077 228.75 96.9437 228.75L96.9717 228.744C97.7548 228.889 98.7729 228.77 99.3983 227.524C99.7657 226.814 100.031 226.032 100.186 225.197C100.418 226.291 100.794 227.196 101.344 227.747C101.634 228.036 101.988 228.227 102.342 228.283C102.622 228.329 102.895 228.322 103.148 228.263C104.679 227.942 105.391 225.878 105.69 223.563C105.787 224.635 105.945 225.715 106.163 226.799C106.282 227.37 106.522 227.766 106.869 227.971C106.993 228.044 107.124 228.092 107.253 228.112C107.872 228.225 108.494 227.858 108.524 227.84C108.538 227.832 108.549 227.82 108.555 227.804C108.561 227.789 108.562 227.77 108.559 227.751C108.559 227.751 108.541 227.594 108.509 227.31C108.428 222.317 110.251 218.488 110.98 217.166C110.768 218.704 110.306 222.796 111.105 225.91C111.298 226.656 111.515 227.22 111.955 227.557C112.309 227.826 112.762 227.916 113.404 227.842C114.397 227.725 115.189 225.895 115.75 223.973C116.299 225.843 117.13 227.169 118.078 227.472C118.193 227.51 118.309 227.539 118.423 227.559C118.921 227.65 119.39 227.562 119.757 227.308C120.648 226.706 121.162 225.186 121.287 222.78C121.96 222.588 122.581 222.291 123.134 221.897C123.149 221.887 123.159 221.873 123.164 221.854C123.193 221.752 123.769 219.531 123.075 218.56ZM116.969 220.769C117.361 221.441 117.914 222.017 118.553 222.416C118.797 222.563 119.051 222.677 119.308 222.753C119.144 224.545 118.813 225.852 118.41 226.12C118.386 226.14 118.357 226.154 118.324 226.159C118.292 226.165 118.257 226.163 118.222 226.153C117.717 225.989 117.147 223.827 116.97 220.773L116.969 220.769ZM119.421 219.927C119.423 220.117 119.421 220.307 119.419 220.494C119.11 220.392 118.809 220.221 118.539 219.994C116.751 218.508 117.328 214.934 117.637 213.55C117.703 213.402 117.799 213.277 117.92 213.181C117.97 213.143 118.036 213.127 118.107 213.136L118.138 213.14C118.755 213.361 119.393 215.757 119.421 219.932L119.421 219.927ZM93.3089 217.345C92.8874 217.005 92.7565 216.453 92.7199 216.04C92.6446 215.196 92.9209 214.411 93.052 214.366L93.0793 214.37C93.0813 214.369 93.0836 214.369 93.0859 214.369C93.0883 214.37 93.0906 214.37 93.0929 214.372C93.1879 214.466 93.4184 214.916 93.3093 217.349L93.3089 217.345ZM88.1646 218.434C88.1668 218.728 88.1703 219.136 88.1798 219.614C88.0993 220.402 88.0019 221.279 87.889 222.155C87.2664 227.227 86.857 227.474 86.7822 227.474C86.7432 227.468 86.6074 227.403 86.4645 226.879C86.3347 226.33 86.2541 225.783 86.2238 225.244C85.9571 221.696 86.5884 215.349 88.191 215.639C88.221 215.644 88.2513 215.658 88.2779 215.68C88.2052 216.469 88.1634 217.431 88.165 218.438L88.1646 218.434Z" fill="#E5476D"/>
<path d="M123.592 231.108C122.703 231.458 121.979 232.13 121.565 232.989C121.153 232.128 120.429 231.456 119.538 231.108C120.428 230.758 121.152 230.084 121.565 229.224C121.979 230.083 122.703 230.756 123.592 231.108Z" fill="#E5476D"/>
</g>
<defs>
<radialGradient id="paint0_radial_2102_54110" cx="0" cy="0" r="1" gradientUnits="userSpaceOnUse" gradientTransform="translate(79.0365 110.316) rotate(154.694) scale(14.7407 16.7672)">
<stop stop-color="#FFD100"/>
<stop offset="1" stop-color="#F46F00"/>
</radialGradient>
<radialGradient id="paint1_radial_2102_54110" cx="0" cy="0" r="1" gradientUnits="userSpaceOnUse" gradientTransform="translate(77.0614 106.146) rotate(154.694) scale(14.6387 16.6512)">
<stop stop-color="#FFEF00"/>
<stop offset="1" stop-color="#FBBA00"/>
</radialGradient>
<radialGradient id="paint2_radial_2102_54110" cx="0" cy="0" r="1" gradientUnits="userSpaceOnUse" gradientTransform="translate(75.4473 105.552) rotate(154.694) scale(11.6436 13.2443)">
<stop stop-color="#FFD100"/>
<stop offset="1" stop-color="#F46F00"/>
</radialGradient>
<radialGradient id="paint3_radial_2102_54110" cx="0" cy="0" r="1" gradientUnits="userSpaceOnUse" gradientTransform="translate(28.1906 178.458) rotate(103.29) scale(14.7407 16.7668)">
<stop stop-color="#FFD100"/>
<stop offset="1" stop-color="#F46F00"/>
</radialGradient>
<radialGradient id="paint4_radial_2102_54110" cx="0" cy="0" r="1" gradientUnits="userSpaceOnUse" gradientTransform="translate(23.7051 177.397) rotate(103.29) scale(14.6387 16.6508)">
<stop stop-color="#FFEF00"/>
<stop offset="1" stop-color="#FBBA00"/>
</radialGradient>
<radialGradient id="paint5_radial_2102_54110" cx="0" cy="0" r="1" gradientUnits="userSpaceOnUse" gradientTransform="translate(22.2228 178.29) rotate(103.29) scale(11.6436 13.244)">
<stop stop-color="#FFD100"/>
<stop offset="1" stop-color="#F46F00"/>
</radialGradient>
<radialGradient id="paint6_radial_2102_54110" cx="0" cy="0" r="1" gradientUnits="userSpaceOnUse" gradientTransform="translate(145.489 163.914) rotate(-155.248) scale(14.7408 16.7663)">
<stop stop-color="#FFD100"/>
<stop offset="1" stop-color="#F46F00"/>
</radialGradient>
<radialGradient id="paint7_radial_2102_54110" cx="0" cy="0" r="1" gradientUnits="userSpaceOnUse" gradientTransform="translate(147.421 159.722) rotate(-155.248) scale(14.6386 16.6501)">
<stop stop-color="#FFEF00"/>
<stop offset="1" stop-color="#FBBA00"/>
</radialGradient>
<radialGradient id="paint8_radial_2102_54110" cx="0" cy="0" r="1" gradientUnits="userSpaceOnUse" gradientTransform="translate(146.833 158.102) rotate(-155.248) scale(11.6436 13.2436)">
<stop stop-color="#FFD100"/>
<stop offset="1" stop-color="#F46F00"/>
</radialGradient>
<radialGradient id="paint9_radial_2102_54110" cx="0" cy="0" r="1" gradientUnits="userSpaceOnUse" gradientTransform="translate(35.9914 281.883) rotate(165.191) scale(22.9314 26.0855)">
<stop stop-color="#DB6D56"/>
<stop offset="1" stop-color="#C74747"/>
</radialGradient>
<radialGradient id="paint10_radial_2102_54110" cx="0" cy="0" r="1" gradientUnits="userSpaceOnUse" gradientTransform="translate(31.8464 273.585) rotate(165.191) scale(18.1134 20.6048)">
<stop stop-color="#FFD100"/>
<stop offset="1" stop-color="#F46F00"/>
</radialGradient>
<radialGradient id="paint11_radial_2102_54110" cx="0" cy="0" r="1" gradientUnits="userSpaceOnUse" gradientTransform="translate(28.4876 572.242) rotate(178.978) scale(20.4854 23.4259)">
<stop stop-color="#FFD100"/>
<stop offset="1" stop-color="#F46F00"/>
</radialGradient>
<radialGradient id="paint12_radial_2102_54110" cx="0" cy="0" r="1" gradientUnits="userSpaceOnUse" gradientTransform="translate(28.3729 565.803) rotate(178.978) scale(20.3434 23.2636)">
<stop stop-color="#FFEF00"/>
<stop offset="1" stop-color="#FBBA00"/>
</radialGradient>
<radialGradient id="paint13_radial_2102_54110" cx="0" cy="0" r="1" gradientUnits="userSpaceOnUse" gradientTransform="translate(26.6745 564.115) rotate(178.978) scale(16.1812 18.5039)">
<stop stop-color="#FFD100"/>
<stop offset="1" stop-color="#F46F00"/>
</radialGradient>
<radialGradient id="paint14_radial_2102_54110" cx="0" cy="0" r="1" gradientUnits="userSpaceOnUse" gradientTransform="translate(144.216 466.18) rotate(178.978) scale(20.4854 23.4259)">
<stop stop-color="#FFD100"/>
<stop offset="1" stop-color="#F46F00"/>
</radialGradient>
<radialGradient id="paint15_radial_2102_54110" cx="0" cy="0" r="1" gradientUnits="userSpaceOnUse" gradientTransform="translate(144.101 459.741) rotate(178.978) scale(20.3434 23.2636)">
<stop stop-color="#FFEF00"/>
<stop offset="1" stop-color="#FBBA00"/>
</radialGradient>
<radialGradient id="paint16_radial_2102_54110" cx="0" cy="0" r="1" gradientUnits="userSpaceOnUse" gradientTransform="translate(142.403 458.053) rotate(178.978) scale(16.1812 18.5039)">
<stop stop-color="#FFD100"/>
<stop offset="1" stop-color="#F46F00"/>
</radialGradient>
<radialGradient id="paint17_radial_2102_54110" cx="0" cy="0" r="1" gradientUnits="userSpaceOnUse" gradientTransform="translate(128.152 355.276) rotate(178.978) scale(20.4854 23.4259)">
<stop stop-color="#FFD100"/>
<stop offset="1" stop-color="#F46F00"/>
</radialGradient>
<radialGradient id="paint18_radial_2102_54110" cx="0" cy="0" r="1" gradientUnits="userSpaceOnUse" gradientTransform="translate(128.037 348.836) rotate(178.978) scale(20.3434 23.2636)">
<stop stop-color="#FFEF00"/>
<stop offset="1" stop-color="#FBBA00"/>
</radialGradient>
<radialGradient id="paint19_radial_2102_54110" cx="0" cy="0" r="1" gradientUnits="userSpaceOnUse" gradientTransform="translate(126.339 347.148) rotate(178.978) scale(16.1812 18.5038)">
<stop stop-color="#FFD100"/>
<stop offset="1" stop-color="#F46F00"/>
</radialGradient>
<radialGradient id="paint20_radial_2102_54110" cx="0" cy="0" r="1" gradientUnits="userSpaceOnUse" gradientTransform="translate(117.216 312.033) rotate(-150.462) scale(20.4854 23.428)">
<stop stop-color="#DB6D56"/>
<stop offset="1" stop-color="#C74747"/>
</radialGradient>
<radialGradient id="paint21_radial_2102_54110" cx="0" cy="0" r="1" gradientUnits="userSpaceOnUse" gradientTransform="translate(119.789 304.107) rotate(-150.462) scale(16.1812 18.5055)">
<stop stop-color="#FFD100"/>
<stop offset="1" stop-color="#F46F00"/>
</radialGradient>
<radialGradient id="paint22_radial_2102_54110" cx="0" cy="0" r="1" gradientUnits="userSpaceOnUse" gradientTransform="translate(61.5998 402.473) rotate(-174.244) scale(20.4852 23.4284)">
<stop stop-color="#FFD100"/>
<stop offset="1" stop-color="#F46F00"/>
</radialGradient>
<radialGradient id="paint23_radial_2102_54110" cx="0" cy="0" r="1" gradientUnits="userSpaceOnUse" gradientTransform="translate(62.2462 396.057) rotate(-174.244) scale(20.3435 23.2664)">
<stop stop-color="#FFEF00"/>
<stop offset="1" stop-color="#FBBA00"/>
</radialGradient>
<radialGradient id="paint24_radial_2102_54110" cx="0" cy="0" r="1" gradientUnits="userSpaceOnUse" gradientTransform="translate(60.7587 394.18) rotate(-174.244) scale(16.1812 18.5061)">
<stop stop-color="#FFD100"/>
<stop offset="1" stop-color="#F46F00"/>
</radialGradient>
<radialGradient id="paint25_radial_2102_54110" cx="0" cy="0" r="1" gradientUnits="userSpaceOnUse" gradientTransform="translate(33.9439 351.141) rotate(-172.772) scale(22.9315 26.0868)">
<stop stop-color="#FFD100"/>
<stop offset="1" stop-color="#F46F00"/>
</radialGradient>
<radialGradient id="paint26_radial_2102_54110" cx="0" cy="0" r="1" gradientUnits="userSpaceOnUse" gradientTransform="translate(34.8467 344.021) rotate(-172.772) scale(22.7726 25.906)">
<stop stop-color="#FFEF00"/>
<stop offset="1" stop-color="#FBBA00"/>
</radialGradient>
<radialGradient id="paint27_radial_2102_54110" cx="0" cy="0" r="1" gradientUnits="userSpaceOnUse" gradientTransform="translate(33.2117 341.887) rotate(-172.772) scale(18.1134 20.6057)">
<stop stop-color="#FFD100"/>
<stop offset="1" stop-color="#F46F00"/>
</radialGradient>
<linearGradient id="paint28_linear_2102_54110" x1="358.982" y1="872.126" x2="358.982" y2="698.766" gradientUnits="userSpaceOnUse">
<stop stop-color="#FFA486"/>
<stop offset="1" stop-color="#FFB886"/>
</linearGradient>
<linearGradient id="paint29_linear_2102_54110" x1="233.983" y1="873.732" x2="233.983" y2="727.92" gradientUnits="userSpaceOnUse">
<stop stop-color="#FFA486"/>
<stop offset="1" stop-color="#FFB886"/>
</linearGradient>
<linearGradient id="paint30_linear_2102_54110" x1="360.359" y1="874.427" x2="360.359" y2="793.809" gradientUnits="userSpaceOnUse">
<stop offset="0.0111732" stop-color="#592227"/>
<stop offset="1" stop-color="#3E1827"/>
</linearGradient>
<linearGradient id="paint31_linear_2102_54110" x1="234.32" y1="876.112" x2="234.32" y2="792.121" gradientUnits="userSpaceOnUse">
<stop offset="0.0111732" stop-color="#592227"/>
<stop offset="1" stop-color="#3E1827"/>
</linearGradient>
<linearGradient id="paint32_linear_2102_54110" x1="355.861" y1="195.408" x2="333.88" y2="69.8063" gradientUnits="userSpaceOnUse">
<stop stop-color="#FF957C"/>
<stop offset="0.984" stop-color="#F47867"/>
</linearGradient>
<linearGradient id="paint33_linear_2102_54110" x1="366.985" y1="162.807" x2="354.25" y2="90.0345" gradientUnits="userSpaceOnUse">
<stop stop-color="#FF957C"/>
<stop offset="0.984" stop-color="#FFAE78"/>
</linearGradient>
<linearGradient id="paint34_linear_2102_54110" x1="133.309" y1="299.353" x2="117.09" y2="206.675" gradientUnits="userSpaceOnUse">
<stop stop-color="#FF957C"/>
<stop offset="0.984" stop-color="#F48767"/>
</linearGradient>
<linearGradient id="paint35_linear_2102_54110" x1="280.364" y1="170.571" x2="252.627" y2="12.0742" gradientUnits="userSpaceOnUse">
<stop offset="0.0111732" stop-color="#512438"/>
<stop offset="0.9944" stop-color="#832E31"/>
</linearGradient>
<linearGradient id="paint36_linear_2102_54110" x1="267.827" y1="192.819" x2="267.827" y2="117.257" gradientUnits="userSpaceOnUse">
<stop stop-color="#FF7459"/>
<stop offset="0.9784" stop-color="#C75659"/>
</linearGradient>
<linearGradient id="paint37_linear_2102_54110" x1="289.725" y1="144.615" x2="265.856" y2="8.22133" gradientUnits="userSpaceOnUse">
<stop offset="0.0159875" stop-color="#FFAE78"/>
<stop offset="1" stop-color="#FF957C"/>
</linearGradient>
<linearGradient id="paint38_linear_2102_54110" x1="259.061" y1="202.952" x2="259.061" y2="0.993801" gradientUnits="userSpaceOnUse">
<stop offset="0.0111732" stop-color="#772438"/>
<stop offset="0.9944" stop-color="#994540"/>
</linearGradient>
<linearGradient id="paint39_linear_2102_54110" x1="239.669" y1="88.1733" x2="233.777" y2="54.5034" gradientUnits="userSpaceOnUse">
<stop offset="0.0111732" stop-color="#512438"/>
<stop offset="0.9944" stop-color="#6D1D20"/>
</linearGradient>
<linearGradient id="paint40_linear_2102_54110" x1="368.596" y1="271.652" x2="368.596" y2="163.761" gradientUnits="userSpaceOnUse">
<stop stop-color="#EDE3FC"/>
<stop offset="1" stop-color="white"/>
</linearGradient>
<linearGradient id="paint41_linear_2102_54110" x1="392.885" y1="274.742" x2="392.885" y2="171.65" gradientUnits="userSpaceOnUse">
<stop stop-color="#EDE3FC"/>
<stop offset="1" stop-color="white"/>
</linearGradient>
<linearGradient id="paint42_linear_2102_54110" x1="95.0296" y1="253.161" x2="95.0296" y2="177.946" gradientUnits="userSpaceOnUse">
<stop offset="0.0167598" stop-color="#E3D1FE"/>
<stop offset="1" stop-color="#EBE8FF"/>
</linearGradient>
<linearGradient id="paint43_linear_2102_54110" x1="93.8837" y1="270.97" x2="93.8837" y2="177.946" gradientUnits="userSpaceOnUse">
<stop offset="0.0167598" stop-color="#E3D1FE"/>
<stop offset="1" stop-color="#EBE8FF"/>
</linearGradient>
<linearGradient id="paint44_linear_2102_54110" x1="93.8837" y1="270.97" x2="93.8837" y2="177.946" gradientUnits="userSpaceOnUse">
<stop stop-color="#8E8EC9"/>
<stop offset="0.9888" stop-color="#BE6888"/>
</linearGradient>
<linearGradient id="paint45_linear_2102_54110" x1="129.854" y1="222.25" x2="123.855" y2="187.975" gradientUnits="userSpaceOnUse">
<stop stop-color="#FF957C"/>
<stop offset="0.984" stop-color="#FFAE78"/>
</linearGradient>
<linearGradient id="paint46_linear_2102_54110" x1="313.651" y1="65.451" x2="313.651" y2="44.111" gradientUnits="userSpaceOnUse">
<stop offset="0.0111732" stop-color="#772438"/>
<stop offset="0.9944" stop-color="#994540"/>
</linearGradient>
<linearGradient id="paint47_linear_2102_54110" x1="269.544" y1="57.0626" x2="269.544" y2="43.3438" gradientUnits="userSpaceOnUse">
<stop offset="0.0111732" stop-color="#772438"/>
<stop offset="0.9944" stop-color="#994540"/>
</linearGradient>
<linearGradient id="paint48_linear_2102_54110" x1="269.488" y1="82.9294" x2="269.488" y2="61.7324" gradientUnits="userSpaceOnUse">
<stop offset="0.00396825" stop-color="#E1DBFB"/>
<stop offset="1" stop-color="white"/>
</linearGradient>
<linearGradient id="paint49_linear_2102_54110" x1="310.374" y1="89.8725" x2="310.374" y2="68.6485" gradientUnits="userSpaceOnUse">
<stop offset="0.00396825" stop-color="#E1DBFB"/>
<stop offset="1" stop-color="white"/>
</linearGradient>
<linearGradient id="paint50_linear_2102_54110" x1="276.601" y1="80.8027" x2="276.601" y2="61.7428" gradientUnits="userSpaceOnUse">
<stop offset="0.0223464" stop-color="#85757A"/>
<stop offset="0.9944" stop-color="#563757"/>
</linearGradient>
<linearGradient id="paint51_linear_2102_54110" x1="314.416" y1="87.9185" x2="314.416" y2="68.6485" gradientUnits="userSpaceOnUse">
<stop offset="0.0223464" stop-color="#85757A"/>
<stop offset="0.9944" stop-color="#563757"/>
</linearGradient>
<linearGradient id="paint52_linear_2102_54110" x1="251.627" y1="71.6728" x2="241.368" y2="13.055" gradientUnits="userSpaceOnUse">
<stop offset="0.0111732" stop-color="#B45E52"/>
<stop offset="0.9944" stop-color="#C16140"/>
</linearGradient>
<linearGradient id="paint53_linear_2102_54110" x1="223.731" y1="185.529" x2="209.821" y2="106.043" gradientUnits="userSpaceOnUse">
<stop offset="0.0111732" stop-color="#B45E52"/>
<stop offset="0.9944" stop-color="#C16140"/>
</linearGradient>
<linearGradient id="paint54_linear_2102_54110" x1="297.637" y1="48.5032" x2="297.637" y2="9.99342" gradientUnits="userSpaceOnUse">
<stop offset="0.0111732" stop-color="#512438"/>
<stop offset="0.9944" stop-color="#6D1D20"/>
</linearGradient>
<linearGradient id="paint55_linear_2102_54110" x1="228.047" y1="113.748" x2="221.048" y2="73.7523" gradientUnits="userSpaceOnUse">
<stop offset="0.0159875" stop-color="#FFAE78"/>
<stop offset="1" stop-color="#FF957C"/>
</linearGradient>
<linearGradient id="paint56_linear_2102_54110" x1="238.893" y1="24.3898" x2="236.616" y2="11.3785" gradientUnits="userSpaceOnUse">
<stop offset="0.0111732" stop-color="#B45E52"/>
<stop offset="0.9944" stop-color="#C16140"/>
</linearGradient>
<linearGradient id="paint57_linear_2102_54110" x1="299.28" y1="50.9263" x2="290.671" y2="1.73346" gradientUnits="userSpaceOnUse">
<stop offset="0.0111732" stop-color="#B45E52"/>
<stop offset="0.9944" stop-color="#C16140"/>
</linearGradient>
<linearGradient id="paint58_linear_2102_54110" x1="253.547" y1="346.623" x2="253.547" y2="154.68" gradientUnits="userSpaceOnUse">
<stop stop-color="#EDE3FC"/>
<stop offset="1" stop-color="white"/>
</linearGradient>
<linearGradient id="paint59_linear_2102_54110" x1="263.232" y1="195.666" x2="263.232" y2="151.674" gradientUnits="userSpaceOnUse">
<stop offset="0.0111732" stop-color="#EFEDFF"/>
<stop offset="1" stop-color="#EBE8FF"/>
</linearGradient>
<linearGradient id="paint60_linear_2102_54110" x1="287.91" y1="194.306" x2="287.91" y2="154.248" gradientUnits="userSpaceOnUse">
<stop offset="0.0111732" stop-color="#EFEDFF"/>
<stop offset="1" stop-color="#EBE8FF"/>
</linearGradient>
<linearGradient id="paint61_linear_2102_54110" x1="357.29" y1="194.557" x2="357.29" y2="171.696" gradientUnits="userSpaceOnUse">
<stop offset="0.0111732" stop-color="#EFEDFF"/>
<stop offset="1" stop-color="#EBE8FF"/>
</linearGradient>
<linearGradient id="paint62_linear_2102_54110" x1="258.079" y1="300.177" x2="258.079" y2="236.019" gradientUnits="userSpaceOnUse">
<stop stop-color="#8E81F4"/>
<stop offset="0.9888" stop-color="#BE6888"/>
</linearGradient>
<linearGradient id="paint63_linear_2102_54110" x1="154.037" y1="286.167" x2="154.037" y2="253.329" gradientUnits="userSpaceOnUse">
<stop offset="0.0111732" stop-color="#EFEDFF"/>
<stop offset="1" stop-color="#EBE8FF"/>
</linearGradient>
<linearGradient id="paint64_linear_2102_54110" x1="205.261" y1="303.963" x2="205.261" y2="275.723" gradientUnits="userSpaceOnUse">
<stop offset="0.0111732" stop-color="#BE6888"/>
<stop offset="1" stop-color="#8E81F4"/>
</linearGradient>
<linearGradient id="paint65_linear_2102_54110" x1="133.571" y1="298.99" x2="117.42" y2="206.407" gradientUnits="userSpaceOnUse">
<stop stop-color="#FF957C"/>
<stop offset="0.984" stop-color="#F48767"/>
</linearGradient>
<linearGradient id="paint66_linear_2102_54110" x1="280.916" y1="170.363" x2="253.295" y2="12.0291" gradientUnits="userSpaceOnUse">
<stop offset="0.0111732" stop-color="#512438"/>
<stop offset="0.9944" stop-color="#832E31"/>
</linearGradient>
<linearGradient id="paint67_linear_2102_54110" x1="268.355" y1="192.586" x2="268.355" y2="117.116" gradientUnits="userSpaceOnUse">
<stop stop-color="#FF7459"/>
<stop offset="0.9784" stop-color="#C75659"/>
</linearGradient>
<linearGradient id="paint68_linear_2102_54110" x1="290.296" y1="144.44" x2="266.527" y2="8.18652" gradientUnits="userSpaceOnUse">
<stop offset="0.0159875" stop-color="#FFAE78"/>
<stop offset="1" stop-color="#FF957C"/>
</linearGradient>
<linearGradient id="paint69_linear_2102_54110" x1="259.571" y1="202.706" x2="259.571" y2="0.992662" gradientUnits="userSpaceOnUse">
<stop offset="0.0111732" stop-color="#772438"/>
<stop offset="0.9944" stop-color="#994540"/>
</linearGradient>
<linearGradient id="paint70_linear_2102_54110" x1="240.141" y1="88.0664" x2="234.273" y2="54.4311" gradientUnits="userSpaceOnUse">
<stop offset="0.0111732" stop-color="#512438"/>
<stop offset="0.9944" stop-color="#6D1D20"/>
</linearGradient>
<linearGradient id="paint71_linear_2102_54110" x1="95.2167" y1="252.854" x2="95.2167" y2="177.73" gradientUnits="userSpaceOnUse">
<stop offset="0.0167598" stop-color="#E3D1FE"/>
<stop offset="1" stop-color="#EBE8FF"/>
</linearGradient>
<linearGradient id="paint72_linear_2102_54110" x1="94.0687" y1="270.642" x2="94.0687" y2="177.73" gradientUnits="userSpaceOnUse">
<stop offset="0.0167598" stop-color="#E3D1FE"/>
<stop offset="1" stop-color="#EBE8FF"/>
</linearGradient>
<linearGradient id="paint73_linear_2102_54110" x1="94.0687" y1="270.642" x2="94.0687" y2="177.73" gradientUnits="userSpaceOnUse">
<stop stop-color="#8E8EC9"/>
<stop offset="0.9888" stop-color="#BE6888"/>
</linearGradient>
<linearGradient id="paint74_linear_2102_54110" x1="130.109" y1="221.981" x2="124.136" y2="187.742" gradientUnits="userSpaceOnUse">
<stop stop-color="#FF957C"/>
<stop offset="0.984" stop-color="#FFAE78"/>
</linearGradient>
<linearGradient id="paint75_linear_2102_54110" x1="252.122" y1="71.5861" x2="241.907" y2="13.0284" gradientUnits="userSpaceOnUse">
<stop offset="0.0111732" stop-color="#B45E52"/>
<stop offset="0.9944" stop-color="#C16140"/>
</linearGradient>
<linearGradient id="paint76_linear_2102_54110" x1="224.171" y1="185.304" x2="210.32" y2="105.899" gradientUnits="userSpaceOnUse">
<stop offset="0.0111732" stop-color="#B45E52"/>
<stop offset="0.9944" stop-color="#C16140"/>
</linearGradient>
<linearGradient id="paint77_linear_2102_54110" x1="228.496" y1="113.61" x2="221.526" y2="73.6553" gradientUnits="userSpaceOnUse">
<stop offset="0.0159875" stop-color="#FFAE78"/>
<stop offset="1" stop-color="#FF957C"/>
</linearGradient>
<linearGradient id="paint78_linear_2102_54110" x1="239.363" y1="24.3606" x2="237.096" y2="11.3626" gradientUnits="userSpaceOnUse">
<stop offset="0.0111732" stop-color="#B45E52"/>
<stop offset="0.9944" stop-color="#C16140"/>
</linearGradient>
<linearGradient id="paint79_linear_2102_54110" x1="254.046" y1="346.202" x2="254.046" y2="154.491" gradientUnits="userSpaceOnUse">
<stop stop-color="#EDE3FC"/>
<stop offset="1" stop-color="white"/>
</linearGradient>
<linearGradient id="paint80_linear_2102_54110" x1="263.75" y1="195.428" x2="263.75" y2="151.49" gradientUnits="userSpaceOnUse">
<stop offset="0.0111732" stop-color="#EFEDFF"/>
<stop offset="1" stop-color="#EBE8FF"/>
</linearGradient>
<linearGradient id="paint81_linear_2102_54110" x1="258.587" y1="299.812" x2="258.587" y2="235.731" gradientUnits="userSpaceOnUse">
<stop stop-color="#8E81F4"/>
<stop offset="0.9888" stop-color="#BE6888"/>
</linearGradient>
<linearGradient id="paint82_linear_2102_54110" x1="154.34" y1="285.82" x2="154.34" y2="253.022" gradientUnits="userSpaceOnUse">
<stop offset="0.0111732" stop-color="#EFEDFF"/>
<stop offset="1" stop-color="#EBE8FF"/>
</linearGradient>
<linearGradient id="paint83_linear_2102_54110" x1="205.665" y1="303.593" x2="205.665" y2="275.388" gradientUnits="userSpaceOnUse">
<stop offset="0.0111732" stop-color="#BE6888"/>
<stop offset="1" stop-color="#8E81F4"/>
</linearGradient>
<clipPath id="clip0_2102_54110">
<rect width="246" height="359" fill="white" transform="matrix(-1 0 0 1 246 0)"/>
</clipPath>
</defs>
</svg>
