<svg width="97" height="17" viewBox="0 0 97 17" fill="none" xmlns="http://www.w3.org/2000/svg">
<g clip-path="url(#clip0_1936_51576)">
<path d="M16.1814 6.22303L11.2627 5.4717L9.05806 0.775695C8.89339 0.425029 8.31806 0.425029 8.15339 0.775695L5.94939 5.4717L1.03072 6.22303C0.626723 6.28503 0.46539 6.77636 0.748723 7.06636L4.32206 10.729L3.47739 15.907C3.41006 16.3184 3.84939 16.627 4.21272 16.425L8.60606 13.997L12.9994 16.4257C13.3594 16.6257 13.8027 16.323 13.7347 15.9077L12.8901 10.7297L16.4634 7.06703C16.7467 6.77636 16.5847 6.28503 16.1814 6.22303Z" fill="#FECC41"/>
</g>
<g clip-path="url(#clip1_1936_51576)">
<path d="M36.1814 6.22303L31.2627 5.4717L29.0581 0.775695C28.8934 0.425029 28.3181 0.425029 28.1534 0.775695L25.9494 5.4717L21.0307 6.22303C20.6267 6.28503 20.4654 6.77636 20.7487 7.06636L24.3221 10.729L23.4774 15.907C23.4101 16.3184 23.8494 16.627 24.2127 16.425L28.6061 13.997L32.9994 16.4257C33.3594 16.6257 33.8027 16.323 33.7347 15.9077L32.8901 10.7297L36.4634 7.06703C36.7467 6.77636 36.5847 6.28503 36.1814 6.22303Z" fill="#FECC41"/>
</g>
<g clip-path="url(#clip2_1936_51576)">
<path d="M56.1814 6.22303L51.2627 5.4717L49.0581 0.775695C48.8934 0.425029 48.3181 0.425029 48.1534 0.775695L45.9494 5.4717L41.0307 6.22303C40.6267 6.28503 40.4654 6.77636 40.7487 7.06636L44.3221 10.729L43.4774 15.907C43.4101 16.3184 43.8494 16.627 44.2127 16.425L48.6061 13.997L52.9994 16.4257C53.3594 16.6257 53.8027 16.323 53.7347 15.9077L52.8901 10.7297L56.4634 7.06703C56.7467 6.77636 56.5847 6.28503 56.1814 6.22303Z" fill="#FECC41"/>
</g>
<g clip-path="url(#clip3_1936_51576)">
<path d="M76.1814 6.22303L71.2627 5.4717L69.0581 0.775695C68.8934 0.425029 68.3181 0.425029 68.1534 0.775695L65.9494 5.4717L61.0307 6.22303C60.6267 6.28503 60.4654 6.77636 60.7487 7.06636L64.3221 10.729L63.4774 15.907C63.4101 16.3184 63.8494 16.627 64.2127 16.425L68.6061 13.997L72.9994 16.4257C73.3594 16.6257 73.8027 16.323 73.7347 15.9077L72.8901 10.7297L76.4634 7.06703C76.7467 6.77636 76.5847 6.28503 76.1814 6.22303Z" fill="#FECC41"/>
</g>
<g clip-path="url(#clip4_1936_51576)">
<path d="M96.2046 6.23447L91.2786 5.48202L89.0707 0.779017C88.9057 0.427828 88.3296 0.427828 88.1646 0.779017L85.9574 5.48202L81.0314 6.23447C80.6268 6.29657 80.4652 6.78863 80.7489 7.07906L84.3276 10.7472L83.4817 15.9329C83.4142 16.3449 83.8542 16.654 84.2181 16.4517L88.618 14.0201L93.0179 16.4524C93.3784 16.6527 93.8224 16.3495 93.7543 15.9336L92.9084 10.7479L96.487 7.07973C96.7708 6.78863 96.6086 6.29657 96.2046 6.23447Z" fill="#D8D8E4"/>
<g clip-path="url(#clip5_1936_51576)">
<path d="M96.1851 6.2117L91.2653 5.46019L89.0601 0.763063C88.8954 0.412312 88.3199 0.412312 88.1552 0.763063L85.9507 5.46019L81.0308 6.2117C80.6267 6.27371 80.4654 6.76517 80.7488 7.05524L84.3229 10.7188L83.4781 15.898C83.4107 16.3095 83.8502 16.6182 84.2136 16.4161L88.608 13.9876L93.0024 16.4168C93.3624 16.6169 93.8059 16.3141 93.7379 15.8987L92.893 10.7194L96.4672 7.0559C96.7506 6.76517 96.5885 6.27371 96.1851 6.2117Z" fill="#FECC41"/>
</g>
</g>
<defs>
<clipPath id="clip0_1936_51576">
<rect width="16" height="16" fill="white" transform="translate(0.605957 0.5)"/>
</clipPath>
<clipPath id="clip1_1936_51576">
<rect width="16" height="16" fill="white" transform="translate(20.606 0.5)"/>
</clipPath>
<clipPath id="clip2_1936_51576">
<rect width="16" height="16" fill="white" transform="translate(40.606 0.5)"/>
</clipPath>
<clipPath id="clip3_1936_51576">
<rect width="16" height="16" fill="white" transform="translate(60.606 0.5)"/>
</clipPath>
<clipPath id="clip4_1936_51576">
<rect width="16" height="16" fill="white" transform="translate(80.606 0.5)"/>
</clipPath>
<clipPath id="clip5_1936_51576">
<rect width="10.4" height="16" fill="white" transform="translate(80.606 0.5)"/>
</clipPath>
</defs>
</svg>
