<svg width="25" height="24" viewBox="0 0 25 24" fill="none" xmlns="http://www.w3.org/2000/svg">
<path d="M20.75 5.75H4.25C3.83579 5.75 3.5 6.08579 3.5 6.5C3.5 6.91421 3.83579 7.25 4.25 7.25H20.75C21.1642 7.25 21.5 6.91421 21.5 6.5C21.5 6.08579 21.1642 5.75 20.75 5.75Z" fill="#080708"/>
<path d="M20.75 11.25H4.25C3.83579 11.25 3.5 11.5858 3.5 12C3.5 12.4142 3.83579 12.75 4.25 12.75H20.75C21.1642 12.75 21.5 12.4142 21.5 12C21.5 11.5858 21.1642 11.25 20.75 11.25Z" fill="#080708"/>
<path d="M20.75 16.75H4.25C3.83579 16.75 3.5 17.0858 3.5 17.5C3.5 17.9142 3.83579 18.25 4.25 18.25H20.75C21.1642 18.25 21.5 17.9142 21.5 17.5C21.5 17.0858 21.1642 16.75 20.75 16.75Z" fill="#080708"/>
</svg>
