<svg width="24" height="24" viewBox="0 0 24 24" fill="none" xmlns="http://www.w3.org/2000/svg">
<path d="M4.29861 7.54515L3.10986 6.3564L4.17036 5.2959L5.35986 6.48465C5.50264 6.62117 5.69257 6.69736 5.89011 6.69736C6.08766 6.69736 6.27759 6.62117 6.42036 6.48465L9.10986 3.7959L10.1704 4.8564L7.48086 7.54515C7.27193 7.75412 7.02387 7.91989 6.75086 8.03299C6.47786 8.14608 6.18524 8.20429 5.88974 8.20429C5.59423 8.20429 5.30162 8.14608 5.02861 8.03299C4.75561 7.91989 4.50755 7.75412 4.29861 7.54515ZM11.8901 7.4544H20.8901V5.9544H11.8901V7.4544ZM5.89011 14.2044C6.1857 14.2052 6.47851 14.1474 6.75157 14.0342C7.02464 13.9211 7.27252 13.7548 7.48086 13.5451L10.1704 10.8564L9.10986 9.7959L6.42036 12.4846C6.27759 12.6212 6.08766 12.6974 5.89011 12.6974C5.69257 12.6974 5.50264 12.6212 5.35986 12.4846L4.17036 11.2959L3.10986 12.3564L4.29861 13.5451C4.50714 13.7548 4.75517 13.921 5.02834 14.0342C5.30152 14.1473 5.59443 14.2052 5.89011 14.2044ZM11.8901 13.4544H20.8901V11.9544H11.8901V13.4544ZM5.89011 20.2044C6.1857 20.2052 6.47851 20.1474 6.75157 20.0342C7.02464 19.9211 7.27252 19.7548 7.48086 19.5451L10.1704 16.8564L9.10986 15.7959L6.42036 18.4846C6.27759 18.6212 6.08766 18.6974 5.89011 18.6974C5.69257 18.6974 5.50264 18.6212 5.35986 18.4846L4.17036 17.2959L3.10986 18.3564L4.29861 19.5451C4.50714 19.7548 4.75517 19.921 5.02834 20.0341C5.30152 20.1473 5.59443 20.2052 5.89011 20.2044ZM11.8901 19.4544H20.8901V17.9544H11.8901V19.4544Z" fill="#080708"/>
</svg>
