<svg width="24" height="24" viewBox="0 0 24 24" fill="none" xmlns="http://www.w3.org/2000/svg">
<path d="M14.3002 15C19.242 14.9798 21 12.366 21 10.125C20.9995 9.52558 20.7939 8.94439 20.4173 8.47803C20.0407 8.01167 19.5159 7.68824 18.93 7.5615C19.1467 6.95174 19.3221 6.32808 19.455 5.69475C19.5216 5.37052 19.5149 5.03551 19.4353 4.71421C19.3558 4.39291 19.2054 4.09346 18.9952 3.83775C18.7824 3.57565 18.5137 3.36442 18.2088 3.21948C17.9038 3.07453 17.5704 2.99955 17.2327 3H6.76725C6.42949 2.99944 6.09588 3.07437 5.79081 3.21931C5.48573 3.36426 5.21691 3.57556 5.004 3.83775C4.79382 4.09346 4.64346 4.39291 4.56391 4.71421C4.48436 5.03551 4.47765 5.37052 4.54425 5.69475C4.6768 6.32817 4.8522 6.95185 5.06925 7.5615C4.48352 7.68839 3.95884 8.01188 3.58241 8.47823C3.20598 8.94457 3.00046 9.52569 3 10.125C3 12.366 4.758 14.9798 9.69975 15C9.72781 15.1579 9.7446 15.3175 9.75 15.4777V18C9.76289 18.2003 9.73292 18.4011 9.66209 18.5889C9.59127 18.7768 9.48122 18.9473 9.33927 19.0893C9.19733 19.2312 9.02676 19.3413 8.83893 19.4121C8.65109 19.4829 8.45032 19.5129 8.25 19.5H6.75V21H17.25V19.5H15.756C15.5552 19.5135 15.3539 19.4841 15.1655 19.4135C14.977 19.343 14.8058 19.2331 14.6632 19.0911C14.5207 18.9491 14.4101 18.7783 14.3388 18.5902C14.2675 18.402 14.2373 18.2008 14.25 18V15.4777C14.2554 15.3175 14.2722 15.1579 14.3002 15ZM18.375 9C18.6734 9 18.9595 9.11853 19.1705 9.32951C19.3815 9.54048 19.5 9.82663 19.5 10.125C19.5 11.661 18.2767 13.2938 14.907 13.4813C15.0396 13.307 15.1927 13.1494 15.363 13.0118C16.6416 11.9146 17.6565 10.5434 18.3322 9H18.375ZM4.5 10.125C4.5 9.82663 4.61853 9.54048 4.8295 9.32951C5.04048 9.11853 5.32663 9 5.625 9H5.66775C6.34297 10.5435 7.35765 11.9148 8.63625 13.0118C8.80675 13.1494 8.9601 13.307 9.093 13.4813C5.72325 13.2938 4.5 11.661 4.5 10.125ZM12.75 15.4777V18C12.7415 18.523 12.8673 19.0394 13.1152 19.5H10.8847C11.1327 19.0394 11.2585 18.523 11.25 18V15.4777C11.2627 14.7841 11.1185 14.0966 10.8281 13.4666C10.5377 12.8366 10.1086 12.2804 9.573 11.8395C7.725 10.362 6.45 7.5375 6.0135 5.3925C5.99108 5.2866 5.99293 5.177 6.01891 5.07192C6.04488 4.96684 6.09432 4.86901 6.1635 4.78575C6.2363 4.69594 6.32836 4.62364 6.43286 4.57418C6.53736 4.52472 6.65164 4.49937 6.76725 4.5H17.2327C17.3477 4.49993 17.4613 4.52555 17.5651 4.57499C17.6689 4.62443 17.7603 4.69644 17.8327 4.78575C17.9017 4.86912 17.951 4.96696 17.977 5.072C18.003 5.17705 18.0049 5.2866 17.9827 5.3925C17.5432 7.5375 16.2712 10.362 14.4225 11.8425C13.8882 12.2836 13.4603 12.8395 13.1707 13.4689C12.8811 14.0984 12.7373 14.785 12.75 15.4777Z" fill="#080708"/>
</svg>
