<svg width="68" height="22" viewBox="0 0 68 22" fill="none" xmlns="http://www.w3.org/2000/svg">
<path fill-rule="evenodd" clip-rule="evenodd" d="M9.95358 21H10.0233C15.535 20.9767 20.0001 16.5116 20.0001 11C20.0001 5.48837 15.535 1.02326 10.0466 1H9.95358C4.44195 1.02326 9.04323e-05 5.48837 9.04323e-05 11C-0.0231654 16.5116 4.44195 20.9767 9.95358 21Z" fill="#E31818"/>
<path fill-rule="evenodd" clip-rule="evenodd" d="M3.72217 9.11648H8.09426V4.74438H11.8617V9.11648H16.2338V12.8607H11.8617V17.256H8.09426V12.8607H3.72217V9.11648Z" fill="white"/>
<path d="M29.558 16.64C28.858 16.64 28.2093 16.514 27.612 16.262C27.0147 16.0007 26.492 15.6413 26.044 15.184C25.6053 14.7267 25.2647 14.1947 25.022 13.588C24.7793 12.9813 24.658 12.3327 24.658 11.642C24.658 10.942 24.7793 10.2887 25.022 9.682C25.2647 9.07533 25.6053 8.548 26.044 8.1C26.492 7.64267 27.01 7.288 27.598 7.036C28.1953 6.77467 28.844 6.644 29.544 6.644C30.3093 6.644 30.9813 6.77467 31.56 7.036C32.1387 7.29733 32.652 7.652 33.1 8.1L32.19 9.01C31.882 8.66467 31.504 8.394 31.056 8.198C30.6173 8.002 30.1133 7.904 29.544 7.904C29.0307 7.904 28.5593 7.99733 28.13 8.184C27.7007 8.36133 27.3273 8.618 27.01 8.954C26.6927 9.29 26.4453 9.68667 26.268 10.144C26.1 10.6013 26.016 11.1007 26.016 11.642C26.016 12.1833 26.1 12.6827 26.268 13.14C26.4453 13.5973 26.6927 13.994 27.01 14.33C27.3273 14.666 27.7007 14.9273 28.13 15.114C28.5593 15.2913 29.0307 15.38 29.544 15.38C30.1507 15.38 30.678 15.282 31.126 15.086C31.574 14.8807 31.952 14.6053 32.26 14.26L33.17 15.156C32.722 15.6227 32.1947 15.9867 31.588 16.248C30.9907 16.5093 30.314 16.64 29.558 16.64ZM34.7867 16.5V6.784H36.1027V16.5H34.7867ZM41.0587 16.5V6.784H42.3747V16.5H41.0587ZM35.6827 12.076V10.872H41.3807V12.076H35.6827Z" fill="#080708"/>
<path d="M64.9762 7.45703L59.9982 12.4171L57.9727 10.3916" stroke="#3FCA89" stroke-width="1.5" stroke-linecap="round" stroke-linejoin="round"/>
<path d="M65.5251 9.74401C66.1305 12.4058 64.7529 15.121 62.2474 16.2045C59.7419 17.288 56.82 16.432 55.2952 14.1679C53.7703 11.9038 54.0756 8.87443 56.0214 6.96001C57.9673 5.04558 61.0012 4.78974 63.2402 6.35127" stroke="#D8D8E4" stroke-linecap="round" stroke-linejoin="round"/>
</svg>
